<?xml version="1.0" encoding="utf-8" standalone="no"?>
<!DOCTYPE svg PUBLIC "-//W3C//DTD SVG 1.1//EN"
  "http://www.w3.org/Graphics/SVG/1.1/DTD/svg11.dtd">
<svg xmlns:xlink="http://www.w3.org/1999/xlink" width="959.255156pt" height="511.382094pt" viewBox="0 0 959.255156 511.382094" xmlns="http://www.w3.org/2000/svg" version="1.1">
 <metadata>
  <rdf:RDF xmlns:dc="http://purl.org/dc/elements/1.1/" xmlns:cc="http://creativecommons.org/ns#" xmlns:rdf="http://www.w3.org/1999/02/22-rdf-syntax-ns#">
   <cc:Work>
    <dc:type rdf:resource="http://purl.org/dc/dcmitype/StillImage"/>
    <dc:date>2026-05-23T10:04:05.155397</dc:date>
    <dc:format>image/svg+xml</dc:format>
    <dc:creator>
     <cc:Agent>
      <dc:title>Matplotlib v3.10.8, https://matplotlib.org/</dc:title>
     </cc:Agent>
    </dc:creator>
   </cc:Work>
  </rdf:RDF>
 </metadata>
 <defs>
  <style type="text/css">*{stroke-linejoin: round; stroke-linecap: butt}</style>
 </defs>
 <g id="figure_1">
  <g id="patch_1">
   <path d="M 0 511.382094 
L 959.255156 511.382094 
L 959.255156 0 
L 0 0 
z
" style="fill: #ffffff"/>
  </g>
  <g id="axes_1">
   <g id="patch_2">
    <path d="M 59.255156 467.357812 
L 952.055156 467.357812 
L 952.055156 23.837812 
L 59.255156 23.837812 
z
" style="fill: #ffffff"/>
   </g>
   <g id="matplotlib.axis_1">
    <g id="xtick_1">
     <g id="line2d_1">
      <path d="M 99.836974 467.357812 
L 99.836974 23.837812 
" clip-path="url(#pf882c1c1a8)" style="fill: none; stroke: #cccccc; stroke-linecap: round"/>
     </g>
     <g id="text_1">
      <!-- L0 -->
      <g style="fill: #262626" transform="translate(92.616678 486.051922) scale(0.121 -0.121)">
       <defs>
        <path id="DejaVuSans-4c" d="M 628 4666 
L 1259 4666 
L 1259 531 
L 3531 531 
L 3531 0 
L 628 0 
L 628 4666 
z
" transform="scale(0.015625)"/>
        <path id="DejaVuSans-30" d="M 2034 4250 
Q 1547 4250 1301 3770 
Q 1056 3291 1056 2328 
Q 1056 1369 1301 889 
Q 1547 409 2034 409 
Q 2525 409 2770 889 
Q 3016 1369 3016 2328 
Q 3016 3291 2770 3770 
Q 2525 4250 2034 4250 
z
M 2034 4750 
Q 2819 4750 3233 4129 
Q 3647 3509 3647 2328 
Q 3647 1150 3233 529 
Q 2819 -91 2034 -91 
Q 1250 -91 836 529 
Q 422 1150 422 2328 
Q 422 3509 836 4129 
Q 1250 4750 2034 4750 
z
" transform="scale(0.015625)"/>
       </defs>
       <use xlink:href="#DejaVuSans-4c"/>
       <use xlink:href="#DejaVuSans-30" transform="translate(55.712891 0)"/>
      </g>
     </g>
    </g>
    <g id="xtick_2">
     <g id="line2d_2">
      <path d="M 147.58029 467.357812 
L 147.58029 23.837812 
" clip-path="url(#pf882c1c1a8)" style="fill: none; stroke: #cccccc; stroke-linecap: round"/>
     </g>
     <g id="text_2">
      <!-- L2 -->
      <g style="fill: #262626" transform="translate(140.359993 486.051922) scale(0.121 -0.121)">
       <defs>
        <path id="DejaVuSans-32" d="M 1228 531 
L 3431 531 
L 3431 0 
L 469 0 
L 469 531 
Q 828 903 1448 1529 
Q 2069 2156 2228 2338 
Q 2531 2678 2651 2914 
Q 2772 3150 2772 3378 
Q 2772 3750 2511 3984 
Q 2250 4219 1831 4219 
Q 1534 4219 1204 4116 
Q 875 4013 500 3803 
L 500 4441 
Q 881 4594 1212 4672 
Q 1544 4750 1819 4750 
Q 2544 4750 2975 4387 
Q 3406 4025 3406 3419 
Q 3406 3131 3298 2873 
Q 3191 2616 2906 2266 
Q 2828 2175 2409 1742 
Q 1991 1309 1228 531 
z
" transform="scale(0.015625)"/>
       </defs>
       <use xlink:href="#DejaVuSans-4c"/>
       <use xlink:href="#DejaVuSans-32" transform="translate(55.712891 0)"/>
      </g>
     </g>
    </g>
    <g id="xtick_3">
     <g id="line2d_3">
      <path d="M 195.323605 467.357812 
L 195.323605 23.837812 
" clip-path="url(#pf882c1c1a8)" style="fill: none; stroke: #cccccc; stroke-linecap: round"/>
     </g>
     <g id="text_3">
      <!-- L4 -->
      <g style="fill: #262626" transform="translate(188.103309 486.051922) scale(0.121 -0.121)">
       <defs>
        <path id="DejaVuSans-34" d="M 2419 4116 
L 825 1625 
L 2419 1625 
L 2419 4116 
z
M 2253 4666 
L 3047 4666 
L 3047 1625 
L 3713 1625 
L 3713 1100 
L 3047 1100 
L 3047 0 
L 2419 0 
L 2419 1100 
L 313 1100 
L 313 1709 
L 2253 4666 
z
" transform="scale(0.015625)"/>
       </defs>
       <use xlink:href="#DejaVuSans-4c"/>
       <use xlink:href="#DejaVuSans-34" transform="translate(55.712891 0)"/>
      </g>
     </g>
    </g>
    <g id="xtick_4">
     <g id="line2d_4">
      <path d="M 243.066921 467.357812 
L 243.066921 23.837812 
" clip-path="url(#pf882c1c1a8)" style="fill: none; stroke: #cccccc; stroke-linecap: round"/>
     </g>
     <g id="text_4">
      <!-- L6 -->
      <g style="fill: #262626" transform="translate(235.846624 486.051922) scale(0.121 -0.121)">
       <defs>
        <path id="DejaVuSans-36" d="M 2113 2584 
Q 1688 2584 1439 2293 
Q 1191 2003 1191 1497 
Q 1191 994 1439 701 
Q 1688 409 2113 409 
Q 2538 409 2786 701 
Q 3034 994 3034 1497 
Q 3034 2003 2786 2293 
Q 2538 2584 2113 2584 
z
M 3366 4563 
L 3366 3988 
Q 3128 4100 2886 4159 
Q 2644 4219 2406 4219 
Q 1781 4219 1451 3797 
Q 1122 3375 1075 2522 
Q 1259 2794 1537 2939 
Q 1816 3084 2150 3084 
Q 2853 3084 3261 2657 
Q 3669 2231 3669 1497 
Q 3669 778 3244 343 
Q 2819 -91 2113 -91 
Q 1303 -91 875 529 
Q 447 1150 447 2328 
Q 447 3434 972 4092 
Q 1497 4750 2381 4750 
Q 2619 4750 2861 4703 
Q 3103 4656 3366 4563 
z
" transform="scale(0.015625)"/>
       </defs>
       <use xlink:href="#DejaVuSans-4c"/>
       <use xlink:href="#DejaVuSans-36" transform="translate(55.712891 0)"/>
      </g>
     </g>
    </g>
    <g id="xtick_5">
     <g id="line2d_5">
      <path d="M 290.810236 467.357812 
L 290.810236 23.837812 
" clip-path="url(#pf882c1c1a8)" style="fill: none; stroke: #cccccc; stroke-linecap: round"/>
     </g>
     <g id="text_5">
      <!-- L8 -->
      <g style="fill: #262626" transform="translate(283.58994 486.051922) scale(0.121 -0.121)">
       <defs>
        <path id="DejaVuSans-38" d="M 2034 2216 
Q 1584 2216 1326 1975 
Q 1069 1734 1069 1313 
Q 1069 891 1326 650 
Q 1584 409 2034 409 
Q 2484 409 2743 651 
Q 3003 894 3003 1313 
Q 3003 1734 2745 1975 
Q 2488 2216 2034 2216 
z
M 1403 2484 
Q 997 2584 770 2862 
Q 544 3141 544 3541 
Q 544 4100 942 4425 
Q 1341 4750 2034 4750 
Q 2731 4750 3128 4425 
Q 3525 4100 3525 3541 
Q 3525 3141 3298 2862 
Q 3072 2584 2669 2484 
Q 3125 2378 3379 2068 
Q 3634 1759 3634 1313 
Q 3634 634 3220 271 
Q 2806 -91 2034 -91 
Q 1263 -91 848 271 
Q 434 634 434 1313 
Q 434 1759 690 2068 
Q 947 2378 1403 2484 
z
M 1172 3481 
Q 1172 3119 1398 2916 
Q 1625 2713 2034 2713 
Q 2441 2713 2670 2916 
Q 2900 3119 2900 3481 
Q 2900 3844 2670 4047 
Q 2441 4250 2034 4250 
Q 1625 4250 1398 4047 
Q 1172 3844 1172 3481 
z
" transform="scale(0.015625)"/>
       </defs>
       <use xlink:href="#DejaVuSans-4c"/>
       <use xlink:href="#DejaVuSans-38" transform="translate(55.712891 0)"/>
      </g>
     </g>
    </g>
    <g id="xtick_6">
     <g id="line2d_6">
      <path d="M 338.553552 467.357812 
L 338.553552 23.837812 
" clip-path="url(#pf882c1c1a8)" style="fill: none; stroke: #cccccc; stroke-linecap: round"/>
     </g>
     <g id="text_6">
      <!-- L10 -->
      <g style="fill: #262626" transform="translate(327.483943 486.051922) scale(0.121 -0.121)">
       <defs>
        <path id="DejaVuSans-31" d="M 794 531 
L 1825 531 
L 1825 4091 
L 703 3866 
L 703 4441 
L 1819 4666 
L 2450 4666 
L 2450 531 
L 3481 531 
L 3481 0 
L 794 0 
L 794 531 
z
" transform="scale(0.015625)"/>
       </defs>
       <use xlink:href="#DejaVuSans-4c"/>
       <use xlink:href="#DejaVuSans-31" transform="translate(55.712891 0)"/>
       <use xlink:href="#DejaVuSans-30" transform="translate(119.335938 0)"/>
      </g>
     </g>
    </g>
    <g id="xtick_7">
     <g id="line2d_7">
      <path d="M 386.296867 467.357812 
L 386.296867 23.837812 
" clip-path="url(#pf882c1c1a8)" style="fill: none; stroke: #cccccc; stroke-linecap: round"/>
     </g>
     <g id="text_7">
      <!-- L12 -->
      <g style="fill: #262626" transform="translate(375.227258 486.051922) scale(0.121 -0.121)">
       <use xlink:href="#DejaVuSans-4c"/>
       <use xlink:href="#DejaVuSans-31" transform="translate(55.712891 0)"/>
       <use xlink:href="#DejaVuSans-32" transform="translate(119.335938 0)"/>
      </g>
     </g>
    </g>
    <g id="xtick_8">
     <g id="line2d_8">
      <path d="M 434.040183 467.357812 
L 434.040183 23.837812 
" clip-path="url(#pf882c1c1a8)" style="fill: none; stroke: #cccccc; stroke-linecap: round"/>
     </g>
     <g id="text_8">
      <!-- L14 -->
      <g style="fill: #262626" transform="translate(422.970574 486.051922) scale(0.121 -0.121)">
       <use xlink:href="#DejaVuSans-4c"/>
       <use xlink:href="#DejaVuSans-31" transform="translate(55.712891 0)"/>
       <use xlink:href="#DejaVuSans-34" transform="translate(119.335938 0)"/>
      </g>
     </g>
    </g>
    <g id="xtick_9">
     <g id="line2d_9">
      <path d="M 481.783498 467.357812 
L 481.783498 23.837812 
" clip-path="url(#pf882c1c1a8)" style="fill: none; stroke: #cccccc; stroke-linecap: round"/>
     </g>
     <g id="text_9">
      <!-- L16 -->
      <g style="fill: #262626" transform="translate(470.713889 486.051922) scale(0.121 -0.121)">
       <use xlink:href="#DejaVuSans-4c"/>
       <use xlink:href="#DejaVuSans-31" transform="translate(55.712891 0)"/>
       <use xlink:href="#DejaVuSans-36" transform="translate(119.335938 0)"/>
      </g>
     </g>
    </g>
    <g id="xtick_10">
     <g id="line2d_10">
      <path d="M 529.526814 467.357812 
L 529.526814 23.837812 
" clip-path="url(#pf882c1c1a8)" style="fill: none; stroke: #cccccc; stroke-linecap: round"/>
     </g>
     <g id="text_10">
      <!-- L18 -->
      <g style="fill: #262626" transform="translate(518.457205 486.051922) scale(0.121 -0.121)">
       <use xlink:href="#DejaVuSans-4c"/>
       <use xlink:href="#DejaVuSans-31" transform="translate(55.712891 0)"/>
       <use xlink:href="#DejaVuSans-38" transform="translate(119.335938 0)"/>
      </g>
     </g>
    </g>
    <g id="xtick_11">
     <g id="line2d_11">
      <path d="M 577.27013 467.357812 
L 577.27013 23.837812 
" clip-path="url(#pf882c1c1a8)" style="fill: none; stroke: #cccccc; stroke-linecap: round"/>
     </g>
     <g id="text_11">
      <!-- L20 -->
      <g style="fill: #262626" transform="translate(566.20052 486.051922) scale(0.121 -0.121)">
       <use xlink:href="#DejaVuSans-4c"/>
       <use xlink:href="#DejaVuSans-32" transform="translate(55.712891 0)"/>
       <use xlink:href="#DejaVuSans-30" transform="translate(119.335938 0)"/>
      </g>
     </g>
    </g>
    <g id="xtick_12">
     <g id="line2d_12">
      <path d="M 625.013445 467.357812 
L 625.013445 23.837812 
" clip-path="url(#pf882c1c1a8)" style="fill: none; stroke: #cccccc; stroke-linecap: round"/>
     </g>
     <g id="text_12">
      <!-- L22 -->
      <g style="fill: #262626" transform="translate(613.943836 486.051922) scale(0.121 -0.121)">
       <use xlink:href="#DejaVuSans-4c"/>
       <use xlink:href="#DejaVuSans-32" transform="translate(55.712891 0)"/>
       <use xlink:href="#DejaVuSans-32" transform="translate(119.335938 0)"/>
      </g>
     </g>
    </g>
    <g id="xtick_13">
     <g id="line2d_13">
      <path d="M 672.756761 467.357812 
L 672.756761 23.837812 
" clip-path="url(#pf882c1c1a8)" style="fill: none; stroke: #cccccc; stroke-linecap: round"/>
     </g>
     <g id="text_13">
      <!-- L24 -->
      <g style="fill: #262626" transform="translate(661.687151 486.051922) scale(0.121 -0.121)">
       <use xlink:href="#DejaVuSans-4c"/>
       <use xlink:href="#DejaVuSans-32" transform="translate(55.712891 0)"/>
       <use xlink:href="#DejaVuSans-34" transform="translate(119.335938 0)"/>
      </g>
     </g>
    </g>
    <g id="xtick_14">
     <g id="line2d_14">
      <path d="M 720.500076 467.357812 
L 720.500076 23.837812 
" clip-path="url(#pf882c1c1a8)" style="fill: none; stroke: #cccccc; stroke-linecap: round"/>
     </g>
     <g id="text_14">
      <!-- L26 -->
      <g style="fill: #262626" transform="translate(709.430467 486.051922) scale(0.121 -0.121)">
       <use xlink:href="#DejaVuSans-4c"/>
       <use xlink:href="#DejaVuSans-32" transform="translate(55.712891 0)"/>
       <use xlink:href="#DejaVuSans-36" transform="translate(119.335938 0)"/>
      </g>
     </g>
    </g>
    <g id="xtick_15">
     <g id="line2d_15">
      <path d="M 768.243392 467.357812 
L 768.243392 23.837812 
" clip-path="url(#pf882c1c1a8)" style="fill: none; stroke: #cccccc; stroke-linecap: round"/>
     </g>
     <g id="text_15">
      <!-- L28 -->
      <g style="fill: #262626" transform="translate(757.173782 486.051922) scale(0.121 -0.121)">
       <use xlink:href="#DejaVuSans-4c"/>
       <use xlink:href="#DejaVuSans-32" transform="translate(55.712891 0)"/>
       <use xlink:href="#DejaVuSans-38" transform="translate(119.335938 0)"/>
      </g>
     </g>
    </g>
    <g id="xtick_16">
     <g id="line2d_16">
      <path d="M 815.986707 467.357812 
L 815.986707 23.837812 
" clip-path="url(#pf882c1c1a8)" style="fill: none; stroke: #cccccc; stroke-linecap: round"/>
     </g>
     <g id="text_16">
      <!-- L30 -->
      <g style="fill: #262626" transform="translate(804.917098 486.051922) scale(0.121 -0.121)">
       <defs>
        <path id="DejaVuSans-33" d="M 2597 2516 
Q 3050 2419 3304 2112 
Q 3559 1806 3559 1356 
Q 3559 666 3084 287 
Q 2609 -91 1734 -91 
Q 1441 -91 1130 -33 
Q 819 25 488 141 
L 488 750 
Q 750 597 1062 519 
Q 1375 441 1716 441 
Q 2309 441 2620 675 
Q 2931 909 2931 1356 
Q 2931 1769 2642 2001 
Q 2353 2234 1838 2234 
L 1294 2234 
L 1294 2753 
L 1863 2753 
Q 2328 2753 2575 2939 
Q 2822 3125 2822 3475 
Q 2822 3834 2567 4026 
Q 2313 4219 1838 4219 
Q 1578 4219 1281 4162 
Q 984 4106 628 3988 
L 628 4550 
Q 988 4650 1302 4700 
Q 1616 4750 1894 4750 
Q 2613 4750 3031 4423 
Q 3450 4097 3450 3541 
Q 3450 3153 3228 2886 
Q 3006 2619 2597 2516 
z
" transform="scale(0.015625)"/>
       </defs>
       <use xlink:href="#DejaVuSans-4c"/>
       <use xlink:href="#DejaVuSans-33" transform="translate(55.712891 0)"/>
       <use xlink:href="#DejaVuSans-30" transform="translate(119.335938 0)"/>
      </g>
     </g>
    </g>
    <g id="xtick_17">
     <g id="line2d_17">
      <path d="M 863.730023 467.357812 
L 863.730023 23.837812 
" clip-path="url(#pf882c1c1a8)" style="fill: none; stroke: #cccccc; stroke-linecap: round"/>
     </g>
     <g id="text_17">
      <!-- L32 -->
      <g style="fill: #262626" transform="translate(852.660413 486.051922) scale(0.121 -0.121)">
       <use xlink:href="#DejaVuSans-4c"/>
       <use xlink:href="#DejaVuSans-33" transform="translate(55.712891 0)"/>
       <use xlink:href="#DejaVuSans-32" transform="translate(119.335938 0)"/>
      </g>
     </g>
    </g>
    <g id="xtick_18">
     <g id="line2d_18">
      <path d="M 911.473338 467.357812 
L 911.473338 23.837812 
" clip-path="url(#pf882c1c1a8)" style="fill: none; stroke: #cccccc; stroke-linecap: round"/>
     </g>
     <g id="text_18">
      <!-- L34 -->
      <g style="fill: #262626" transform="translate(900.403729 486.051922) scale(0.121 -0.121)">
       <use xlink:href="#DejaVuSans-4c"/>
       <use xlink:href="#DejaVuSans-33" transform="translate(55.712891 0)"/>
       <use xlink:href="#DejaVuSans-34" transform="translate(119.335938 0)"/>
      </g>
     </g>
    </g>
    <g id="text_19">
     <!-- Layer -->
     <g style="fill: #262626" transform="translate(488.925469 501.686469) scale(0.12 -0.12)">
      <defs>
       <path id="DejaVuSans-61" d="M 2194 1759 
Q 1497 1759 1228 1600 
Q 959 1441 959 1056 
Q 959 750 1161 570 
Q 1363 391 1709 391 
Q 2188 391 2477 730 
Q 2766 1069 2766 1631 
L 2766 1759 
L 2194 1759 
z
M 3341 1997 
L 3341 0 
L 2766 0 
L 2766 531 
Q 2569 213 2275 61 
Q 1981 -91 1556 -91 
Q 1019 -91 701 211 
Q 384 513 384 1019 
Q 384 1609 779 1909 
Q 1175 2209 1959 2209 
L 2766 2209 
L 2766 2266 
Q 2766 2663 2505 2880 
Q 2244 3097 1772 3097 
Q 1472 3097 1187 3025 
Q 903 2953 641 2809 
L 641 3341 
Q 956 3463 1253 3523 
Q 1550 3584 1831 3584 
Q 2591 3584 2966 3190 
Q 3341 2797 3341 1997 
z
" transform="scale(0.015625)"/>
       <path id="DejaVuSans-79" d="M 2059 -325 
Q 1816 -950 1584 -1140 
Q 1353 -1331 966 -1331 
L 506 -1331 
L 506 -850 
L 844 -850 
Q 1081 -850 1212 -737 
Q 1344 -625 1503 -206 
L 1606 56 
L 191 3500 
L 800 3500 
L 1894 763 
L 2988 3500 
L 3597 3500 
L 2059 -325 
z
" transform="scale(0.015625)"/>
       <path id="DejaVuSans-65" d="M 3597 1894 
L 3597 1613 
L 953 1613 
Q 991 1019 1311 708 
Q 1631 397 2203 397 
Q 2534 397 2845 478 
Q 3156 559 3463 722 
L 3463 178 
Q 3153 47 2828 -22 
Q 2503 -91 2169 -91 
Q 1331 -91 842 396 
Q 353 884 353 1716 
Q 353 2575 817 3079 
Q 1281 3584 2069 3584 
Q 2775 3584 3186 3129 
Q 3597 2675 3597 1894 
z
M 3022 2063 
Q 3016 2534 2758 2815 
Q 2500 3097 2075 3097 
Q 1594 3097 1305 2825 
Q 1016 2553 972 2059 
L 3022 2063 
z
" transform="scale(0.015625)"/>
       <path id="DejaVuSans-72" d="M 2631 2963 
Q 2534 3019 2420 3045 
Q 2306 3072 2169 3072 
Q 1681 3072 1420 2755 
Q 1159 2438 1159 1844 
L 1159 0 
L 581 0 
L 581 3500 
L 1159 3500 
L 1159 2956 
Q 1341 3275 1631 3429 
Q 1922 3584 2338 3584 
Q 2397 3584 2469 3576 
Q 2541 3569 2628 3553 
L 2631 2963 
z
" transform="scale(0.015625)"/>
      </defs>
      <use xlink:href="#DejaVuSans-4c"/>
      <use xlink:href="#DejaVuSans-61" transform="translate(55.712891 0)"/>
      <use xlink:href="#DejaVuSans-79" transform="translate(116.992188 0)"/>
      <use xlink:href="#DejaVuSans-65" transform="translate(176.171875 0)"/>
      <use xlink:href="#DejaVuSans-72" transform="translate(237.695312 0)"/>
     </g>
    </g>
   </g>
   <g id="matplotlib.axis_2">
    <g id="ytick_1">
     <g id="line2d_19">
      <path d="M 59.255156 447.197812 
L 952.055156 447.197812 
" clip-path="url(#pf882c1c1a8)" style="fill: none; stroke: #cccccc; stroke-linecap: round"/>
     </g>
     <g id="text_20">
      <!-- 0.00 -->
      <g style="fill: #262626" transform="translate(22.81375 451.794867) scale(0.121 -0.121)">
       <defs>
        <path id="DejaVuSans-2e" d="M 684 794 
L 1344 794 
L 1344 0 
L 684 0 
L 684 794 
z
" transform="scale(0.015625)"/>
       </defs>
       <use xlink:href="#DejaVuSans-30"/>
       <use xlink:href="#DejaVuSans-2e" transform="translate(63.623047 0)"/>
       <use xlink:href="#DejaVuSans-30" transform="translate(95.410156 0)"/>
       <use xlink:href="#DejaVuSans-30" transform="translate(159.033203 0)"/>
      </g>
     </g>
    </g>
    <g id="ytick_2">
     <g id="line2d_20">
      <path d="M 59.255156 385.670984 
L 952.055156 385.670984 
" clip-path="url(#pf882c1c1a8)" style="fill: none; stroke: #cccccc; stroke-linecap: round"/>
     </g>
     <g id="text_21">
      <!-- 0.25 -->
      <g style="fill: #262626" transform="translate(22.81375 390.268039) scale(0.121 -0.121)">
       <defs>
        <path id="DejaVuSans-35" d="M 691 4666 
L 3169 4666 
L 3169 4134 
L 1269 4134 
L 1269 2991 
Q 1406 3038 1543 3061 
Q 1681 3084 1819 3084 
Q 2600 3084 3056 2656 
Q 3513 2228 3513 1497 
Q 3513 744 3044 326 
Q 2575 -91 1722 -91 
Q 1428 -91 1123 -41 
Q 819 9 494 109 
L 494 744 
Q 775 591 1075 516 
Q 1375 441 1709 441 
Q 2250 441 2565 725 
Q 2881 1009 2881 1497 
Q 2881 1984 2565 2268 
Q 2250 2553 1709 2553 
Q 1456 2553 1204 2497 
Q 953 2441 691 2322 
L 691 4666 
z
" transform="scale(0.015625)"/>
       </defs>
       <use xlink:href="#DejaVuSans-30"/>
       <use xlink:href="#DejaVuSans-2e" transform="translate(63.623047 0)"/>
       <use xlink:href="#DejaVuSans-32" transform="translate(95.410156 0)"/>
       <use xlink:href="#DejaVuSans-35" transform="translate(159.033203 0)"/>
      </g>
     </g>
    </g>
    <g id="ytick_3">
     <g id="line2d_21">
      <path d="M 59.255156 324.144156 
L 952.055156 324.144156 
" clip-path="url(#pf882c1c1a8)" style="fill: none; stroke: #cccccc; stroke-linecap: round"/>
     </g>
     <g id="text_22">
      <!-- 0.50 -->
      <g style="fill: #262626" transform="translate(22.81375 328.74121) scale(0.121 -0.121)">
       <use xlink:href="#DejaVuSans-30"/>
       <use xlink:href="#DejaVuSans-2e" transform="translate(63.623047 0)"/>
       <use xlink:href="#DejaVuSans-35" transform="translate(95.410156 0)"/>
       <use xlink:href="#DejaVuSans-30" transform="translate(159.033203 0)"/>
      </g>
     </g>
    </g>
    <g id="ytick_4">
     <g id="line2d_22">
      <path d="M 59.255156 262.617327 
L 952.055156 262.617327 
" clip-path="url(#pf882c1c1a8)" style="fill: none; stroke: #cccccc; stroke-linecap: round"/>
     </g>
     <g id="text_23">
      <!-- 0.75 -->
      <g style="fill: #262626" transform="translate(22.81375 267.214382) scale(0.121 -0.121)">
       <defs>
        <path id="DejaVuSans-37" d="M 525 4666 
L 3525 4666 
L 3525 4397 
L 1831 0 
L 1172 0 
L 2766 4134 
L 525 4134 
L 525 4666 
z
" transform="scale(0.015625)"/>
       </defs>
       <use xlink:href="#DejaVuSans-30"/>
       <use xlink:href="#DejaVuSans-2e" transform="translate(63.623047 0)"/>
       <use xlink:href="#DejaVuSans-37" transform="translate(95.410156 0)"/>
       <use xlink:href="#DejaVuSans-35" transform="translate(159.033203 0)"/>
      </g>
     </g>
    </g>
    <g id="ytick_5">
     <g id="line2d_23">
      <path d="M 59.255156 201.090499 
L 952.055156 201.090499 
" clip-path="url(#pf882c1c1a8)" style="fill: none; stroke: #cccccc; stroke-linecap: round"/>
     </g>
     <g id="text_24">
      <!-- 1.00 -->
      <g style="fill: #262626" transform="translate(22.81375 205.687554) scale(0.121 -0.121)">
       <use xlink:href="#DejaVuSans-31"/>
       <use xlink:href="#DejaVuSans-2e" transform="translate(63.623047 0)"/>
       <use xlink:href="#DejaVuSans-30" transform="translate(95.410156 0)"/>
       <use xlink:href="#DejaVuSans-30" transform="translate(159.033203 0)"/>
      </g>
     </g>
    </g>
    <g id="ytick_6">
     <g id="line2d_24">
      <path d="M 59.255156 139.56367 
L 952.055156 139.56367 
" clip-path="url(#pf882c1c1a8)" style="fill: none; stroke: #cccccc; stroke-linecap: round"/>
     </g>
     <g id="text_25">
      <!-- 1.25 -->
      <g style="fill: #262626" transform="translate(22.81375 144.160725) scale(0.121 -0.121)">
       <use xlink:href="#DejaVuSans-31"/>
       <use xlink:href="#DejaVuSans-2e" transform="translate(63.623047 0)"/>
       <use xlink:href="#DejaVuSans-32" transform="translate(95.410156 0)"/>
       <use xlink:href="#DejaVuSans-35" transform="translate(159.033203 0)"/>
      </g>
     </g>
    </g>
    <g id="ytick_7">
     <g id="line2d_25">
      <path d="M 59.255156 78.036842 
L 952.055156 78.036842 
" clip-path="url(#pf882c1c1a8)" style="fill: none; stroke: #cccccc; stroke-linecap: round"/>
     </g>
     <g id="text_26">
      <!-- 1.50 -->
      <g style="fill: #262626" transform="translate(22.81375 82.633897) scale(0.121 -0.121)">
       <use xlink:href="#DejaVuSans-31"/>
       <use xlink:href="#DejaVuSans-2e" transform="translate(63.623047 0)"/>
       <use xlink:href="#DejaVuSans-35" transform="translate(95.410156 0)"/>
       <use xlink:href="#DejaVuSans-30" transform="translate(159.033203 0)"/>
      </g>
     </g>
    </g>
    <g id="text_27">
     <!-- Mean Edit Norm -->
     <g style="fill: #262626" transform="translate(16.318125 293.745) rotate(-90) scale(0.12 -0.12)">
      <defs>
       <path id="DejaVuSans-4d" d="M 628 4666 
L 1569 4666 
L 2759 1491 
L 3956 4666 
L 4897 4666 
L 4897 0 
L 4281 0 
L 4281 4097 
L 3078 897 
L 2444 897 
L 1241 4097 
L 1241 0 
L 628 0 
L 628 4666 
z
" transform="scale(0.015625)"/>
       <path id="DejaVuSans-6e" d="M 3513 2113 
L 3513 0 
L 2938 0 
L 2938 2094 
Q 2938 2591 2744 2837 
Q 2550 3084 2163 3084 
Q 1697 3084 1428 2787 
Q 1159 2491 1159 1978 
L 1159 0 
L 581 0 
L 581 3500 
L 1159 3500 
L 1159 2956 
Q 1366 3272 1645 3428 
Q 1925 3584 2291 3584 
Q 2894 3584 3203 3211 
Q 3513 2838 3513 2113 
z
" transform="scale(0.015625)"/>
       <path id="DejaVuSans-20" transform="scale(0.015625)"/>
       <path id="DejaVuSans-45" d="M 628 4666 
L 3578 4666 
L 3578 4134 
L 1259 4134 
L 1259 2753 
L 3481 2753 
L 3481 2222 
L 1259 2222 
L 1259 531 
L 3634 531 
L 3634 0 
L 628 0 
L 628 4666 
z
" transform="scale(0.015625)"/>
       <path id="DejaVuSans-64" d="M 2906 2969 
L 2906 4863 
L 3481 4863 
L 3481 0 
L 2906 0 
L 2906 525 
Q 2725 213 2448 61 
Q 2172 -91 1784 -91 
Q 1150 -91 751 415 
Q 353 922 353 1747 
Q 353 2572 751 3078 
Q 1150 3584 1784 3584 
Q 2172 3584 2448 3432 
Q 2725 3281 2906 2969 
z
M 947 1747 
Q 947 1113 1208 752 
Q 1469 391 1925 391 
Q 2381 391 2643 752 
Q 2906 1113 2906 1747 
Q 2906 2381 2643 2742 
Q 2381 3103 1925 3103 
Q 1469 3103 1208 2742 
Q 947 2381 947 1747 
z
" transform="scale(0.015625)"/>
       <path id="DejaVuSans-69" d="M 603 3500 
L 1178 3500 
L 1178 0 
L 603 0 
L 603 3500 
z
M 603 4863 
L 1178 4863 
L 1178 4134 
L 603 4134 
L 603 4863 
z
" transform="scale(0.015625)"/>
       <path id="DejaVuSans-74" d="M 1172 4494 
L 1172 3500 
L 2356 3500 
L 2356 3053 
L 1172 3053 
L 1172 1153 
Q 1172 725 1289 603 
Q 1406 481 1766 481 
L 2356 481 
L 2356 0 
L 1766 0 
Q 1100 0 847 248 
Q 594 497 594 1153 
L 594 3053 
L 172 3053 
L 172 3500 
L 594 3500 
L 594 4494 
L 1172 4494 
z
" transform="scale(0.015625)"/>
       <path id="DejaVuSans-4e" d="M 628 4666 
L 1478 4666 
L 3547 763 
L 3547 4666 
L 4159 4666 
L 4159 0 
L 3309 0 
L 1241 3903 
L 1241 0 
L 628 0 
L 628 4666 
z
" transform="scale(0.015625)"/>
       <path id="DejaVuSans-6f" d="M 1959 3097 
Q 1497 3097 1228 2736 
Q 959 2375 959 1747 
Q 959 1119 1226 758 
Q 1494 397 1959 397 
Q 2419 397 2687 759 
Q 2956 1122 2956 1747 
Q 2956 2369 2687 2733 
Q 2419 3097 1959 3097 
z
M 1959 3584 
Q 2709 3584 3137 3096 
Q 3566 2609 3566 1747 
Q 3566 888 3137 398 
Q 2709 -91 1959 -91 
Q 1206 -91 779 398 
Q 353 888 353 1747 
Q 353 2609 779 3096 
Q 1206 3584 1959 3584 
z
" transform="scale(0.015625)"/>
       <path id="DejaVuSans-6d" d="M 3328 2828 
Q 3544 3216 3844 3400 
Q 4144 3584 4550 3584 
Q 5097 3584 5394 3201 
Q 5691 2819 5691 2113 
L 5691 0 
L 5113 0 
L 5113 2094 
Q 5113 2597 4934 2840 
Q 4756 3084 4391 3084 
Q 3944 3084 3684 2787 
Q 3425 2491 3425 1978 
L 3425 0 
L 2847 0 
L 2847 2094 
Q 2847 2600 2669 2842 
Q 2491 3084 2119 3084 
Q 1678 3084 1418 2786 
Q 1159 2488 1159 1978 
L 1159 0 
L 581 0 
L 581 3500 
L 1159 3500 
L 1159 2956 
Q 1356 3278 1631 3431 
Q 1906 3584 2284 3584 
Q 2666 3584 2933 3390 
Q 3200 3197 3328 2828 
z
" transform="scale(0.015625)"/>
      </defs>
      <use xlink:href="#DejaVuSans-4d"/>
      <use xlink:href="#DejaVuSans-65" transform="translate(86.279297 0)"/>
      <use xlink:href="#DejaVuSans-61" transform="translate(147.802734 0)"/>
      <use xlink:href="#DejaVuSans-6e" transform="translate(209.082031 0)"/>
      <use xlink:href="#DejaVuSans-20" transform="translate(272.460938 0)"/>
      <use xlink:href="#DejaVuSans-45" transform="translate(304.248047 0)"/>
      <use xlink:href="#DejaVuSans-64" transform="translate(367.431641 0)"/>
      <use xlink:href="#DejaVuSans-69" transform="translate(430.908203 0)"/>
      <use xlink:href="#DejaVuSans-74" transform="translate(458.691406 0)"/>
      <use xlink:href="#DejaVuSans-20" transform="translate(497.900391 0)"/>
      <use xlink:href="#DejaVuSans-4e" transform="translate(529.6875 0)"/>
      <use xlink:href="#DejaVuSans-6f" transform="translate(604.492188 0)"/>
      <use xlink:href="#DejaVuSans-72" transform="translate(665.673828 0)"/>
      <use xlink:href="#DejaVuSans-6d" transform="translate(705.037109 0)"/>
     </g>
    </g>
   </g>
   <g id="line2d_26">
    <path d="M 99.836974 447.197812 
L 123.708632 447.197812 
L 147.58029 447.197812 
L 171.451948 447.197812 
L 195.323605 447.197812 
L 219.195263 447.197812 
L 243.066921 447.197812 
L 266.938579 447.197812 
L 290.810236 447.197812 
L 314.681894 447.197812 
L 338.553552 447.197812 
L 362.42521 447.197812 
L 386.296867 447.197812 
L 410.168525 447.197812 
L 434.040183 447.197812 
L 457.911841 447.197812 
L 481.783498 447.197812 
L 505.655156 350.129773 
L 529.526814 386.009341 
L 553.398472 414.683942 
L 577.27013 396.23411 
L 601.141787 405.766175 
L 625.013445 410.066497 
L 648.885103 410.52432 
L 672.756761 355.218908 
L 696.628418 387.078821 
L 720.500076 447.197812 
L 744.371734 447.197812 
L 768.243392 447.197812 
L 792.115049 447.197812 
L 815.986707 447.197812 
L 839.858365 447.197812 
L 863.730023 447.197812 
L 887.60168 447.197812 
L 911.473338 447.197812 
" clip-path="url(#pf882c1c1a8)" style="fill: none; stroke: #27ae60; stroke-opacity: 0.7; stroke-width: 1.5; stroke-linecap: round"/>
   </g>
   <g id="line2d_27">
    <path d="M 99.836974 447.197812 
L 123.708632 447.197812 
L 147.58029 447.197812 
L 171.451948 447.197812 
L 195.323605 447.197812 
L 219.195263 447.197812 
L 243.066921 423.754071 
L 266.938579 423.912026 
L 290.810236 423.231862 
L 314.681894 421.883587 
L 338.553552 422.641023 
L 362.42521 422.725393 
L 386.296867 422.342536 
L 410.168525 419.209516 
L 434.040183 416.106583 
L 457.911841 366.965912 
L 481.783498 357.137147 
L 505.655156 357.694784 
L 529.526814 361.358753 
L 553.398472 352.891435 
L 577.27013 354.380606 
L 601.141787 356.763281 
L 625.013445 361.609629 
L 648.885103 365.7151 
L 672.756761 354.166565 
L 696.628418 357.63884 
L 720.500076 358.642033 
L 744.371734 361.874034 
L 768.243392 363.99244 
L 792.115049 357.274494 
L 815.986707 363.092138 
L 839.858365 368.321431 
L 863.730023 369.644809 
L 887.60168 371.988146 
L 911.473338 360.748691 
" clip-path="url(#pf882c1c1a8)" style="fill: none; stroke: #9b59b6; stroke-opacity: 0.7; stroke-width: 1.5; stroke-linecap: round"/>
   </g>
   <g id="line2d_28">
    <path d="M 99.836974 442.672836 
L 123.708632 442.467937 
L 147.58029 441.483884 
L 171.451948 441.558155 
L 195.323605 440.156763 
L 219.195263 440.691648 
L 243.066921 441.314899 
L 266.938579 440.632598 
L 290.810236 438.994332 
L 314.681894 305.917598 
L 338.553552 311.651094 
L 362.42521 327.189641 
L 386.296867 330.662838 
L 410.168525 327.629111 
L 434.040183 440.749165 
L 457.911841 229.44452 
L 481.783498 241.359951 
L 505.655156 240.735908 
L 529.526814 235.628602 
L 553.398472 248.66882 
L 577.27013 262.511716 
L 601.141787 257.726283 
L 625.013445 264.542046 
L 648.885103 254.868437 
L 672.756761 254.328863 
L 696.628418 251.052855 
L 720.500076 270.818464 
L 744.371734 259.947465 
L 768.243392 260.461105 
L 792.115049 256.46372 
L 815.986707 251.727401 
L 839.858365 262.425949 
L 863.730023 257.002186 
L 887.60168 434.386294 
L 911.473338 257.301272 
" clip-path="url(#pf882c1c1a8)" style="fill: none; stroke: #c0392b; stroke-opacity: 0.7; stroke-width: 1.5; stroke-linecap: round"/>
   </g>
   <g id="line2d_29">
    <path d="M 99.836974 447.197812 
L 123.708632 447.197812 
L 147.58029 447.197812 
L 171.451948 447.197812 
L 195.323605 447.197812 
L 219.195263 447.197812 
L 243.066921 447.197812 
L 266.938579 447.197812 
L 290.810236 447.197812 
L 314.681894 447.197812 
L 338.553552 398.77533 
L 362.42521 399.965677 
L 386.296867 403.563837 
L 410.168525 401.082658 
L 434.040183 393.591047 
L 457.911841 386.39603 
L 481.783498 382.007655 
L 505.655156 381.979424 
L 529.526814 387.76976 
L 553.398472 384.245422 
L 577.27013 387.822417 
L 601.141787 390.695735 
L 625.013445 392.193662 
L 648.885103 394.17223 
L 672.756761 385.248884 
L 696.628418 386.578229 
L 720.500076 386.013579 
L 744.371734 387.396622 
L 768.243392 387.146498 
L 792.115049 381.934499 
L 815.986707 383.875654 
L 839.858365 386.723448 
L 863.730023 387.024495 
L 887.60168 386.08878 
L 911.473338 378.408 
" clip-path="url(#pf882c1c1a8)" style="fill: none; stroke: #8e44ad; stroke-opacity: 0.7; stroke-width: 1.5; stroke-linecap: round"/>
   </g>
   <g id="line2d_30">
    <path d="M 99.836974 447.197812 
L 123.708632 447.197812 
L 147.58029 447.197812 
L 171.451948 447.197812 
L 195.323605 447.197812 
L 219.195263 311.326404 
L 243.066921 315.17728 
L 266.938579 318.695951 
L 290.810236 321.196691 
L 314.681894 311.820146 
L 338.553552 326.689058 
L 362.42521 329.646419 
L 386.296867 338.620152 
L 410.168525 332.440468 
L 434.040183 313.771997 
L 457.911841 295.864527 
L 481.783498 284.90122 
L 505.655156 284.823943 
L 529.526814 299.289195 
L 553.398472 290.501904 
L 577.27013 299.429052 
L 601.141787 306.573402 
L 625.013445 310.267482 
L 648.885103 315.189092 
L 672.756761 293.017879 
L 696.628418 296.338285 
L 720.500076 294.926541 
L 744.371734 298.371093 
L 768.243392 297.74363 
L 792.115049 284.773616 
L 815.986707 289.611384 
L 839.858365 296.697962 
L 863.730023 297.435747 
L 887.60168 295.131187 
L 911.473338 275.985752 
" clip-path="url(#pf882c1c1a8)" style="fill: none; stroke: #e67e22; stroke-opacity: 0.7; stroke-width: 1.5; stroke-linecap: round"/>
   </g>
   <g id="line2d_31">
    <path d="M 99.836974 447.197812 
L 123.708632 447.197812 
L 147.58029 447.197812 
L 171.451948 447.197812 
L 195.323605 447.197812 
L 219.195263 447.197812 
L 243.066921 447.197812 
L 266.938579 447.197812 
L 290.810236 447.197812 
L 314.681894 447.197812 
L 338.553552 447.197812 
L 362.42521 447.197812 
L 386.296867 447.197812 
L 410.168525 447.197812 
L 434.040183 447.197812 
L 457.911841 447.197812 
L 481.783498 447.197812 
L 505.655156 382.550297 
L 529.526814 339.070047 
L 553.398472 321.815434 
L 577.27013 372.360828 
L 601.141787 376.274889 
L 625.013445 360.435966 
L 648.885103 286.658051 
L 672.756761 271.687449 
L 696.628418 354.394142 
L 720.500076 417.596999 
L 744.371734 330.946101 
L 768.243392 392.743772 
L 792.115049 342.856839 
L 815.986707 291.635483 
L 839.858365 416.099307 
L 863.730023 326.39125 
L 887.60168 447.197812 
L 911.473338 447.197812 
" clip-path="url(#pf882c1c1a8)" style="fill: none; stroke: #3498db; stroke-opacity: 0.7; stroke-width: 1.5; stroke-linecap: round"/>
   </g>
   <g id="line2d_32">
    <path d="M 99.836974 447.197812 
L 123.708632 447.197812 
L 147.58029 447.197812 
L 171.451948 447.197812 
L 195.323605 447.197812 
L 219.195263 447.197812 
L 243.066921 447.197812 
L 266.938579 447.197812 
L 290.810236 447.197812 
L 314.681894 447.197812 
L 338.553552 447.197812 
L 362.42521 447.197812 
L 386.296867 447.197812 
L 410.168525 447.197812 
L 434.040183 447.197812 
L 457.911841 447.197812 
L 481.783498 447.197812 
L 505.655156 405.1505 
L 529.526814 373.887344 
L 553.398472 401.908503 
L 577.27013 405.395184 
L 601.141787 419.529951 
L 625.013445 407.168079 
L 648.885103 394.313654 
L 672.756761 447.197812 
L 696.628418 447.197812 
L 720.500076 447.197812 
L 744.371734 447.197812 
L 768.243392 447.197812 
L 792.115049 447.197812 
L 815.986707 447.197812 
L 839.858365 447.197812 
L 863.730023 447.197812 
L 887.60168 447.197812 
L 911.473338 447.197812 
" clip-path="url(#pf882c1c1a8)" style="fill: none; stroke: #2ecc71; stroke-opacity: 0.7; stroke-width: 1.5; stroke-linecap: round"/>
   </g>
   <g id="line2d_33">
    <path d="M 99.836974 447.197812 
L 123.708632 447.197812 
L 147.58029 447.197812 
L 171.451948 447.197812 
L 195.323605 447.197812 
L 219.195263 447.197812 
L 243.066921 447.197812 
L 266.938579 447.197812 
L 290.810236 447.197812 
L 314.681894 447.197812 
L 338.553552 447.197812 
L 362.42521 447.197812 
L 386.296867 447.197812 
L 410.168525 447.197812 
L 434.040183 447.197812 
L 457.911841 447.197812 
L 481.783498 409.023363 
L 505.655156 419.470415 
L 529.526814 425.728627 
L 553.398472 429.873061 
L 577.27013 434.358073 
L 601.141787 432.629784 
L 625.013445 430.008728 
L 648.885103 431.896494 
L 672.756761 424.85656 
L 696.628418 410.070146 
L 720.500076 438.084168 
L 744.371734 423.753141 
L 768.243392 429.244398 
L 792.115049 432.227109 
L 815.986707 422.660221 
L 839.858365 430.152511 
L 863.730023 447.197812 
L 887.60168 447.197812 
L 911.473338 447.197812 
" clip-path="url(#pf882c1c1a8)" style="fill: none; stroke: #2980b9; stroke-opacity: 0.7; stroke-width: 1.5; stroke-linecap: round"/>
   </g>
   <g id="line2d_34">
    <path d="M 99.836974 447.197812 
L 123.708632 447.197812 
L 147.58029 447.197812 
L 171.451948 447.197812 
L 195.323605 447.197812 
L 219.195263 447.197812 
L 243.066921 447.197812 
L 266.938579 447.197812 
L 290.810236 447.197812 
L 314.681894 447.197812 
L 338.553552 398.77533 
L 362.42521 399.965677 
L 386.296867 403.563837 
L 410.168525 401.082658 
L 434.040183 393.591047 
L 457.911841 386.39603 
L 481.783498 382.007655 
L 505.655156 381.979424 
L 529.526814 387.76976 
L 553.398472 384.245422 
L 577.27013 387.822417 
L 601.141787 390.695735 
L 625.013445 392.193662 
L 648.885103 394.17223 
L 672.756761 385.248884 
L 696.628418 386.578229 
L 720.500076 386.013579 
L 744.371734 387.396622 
L 768.243392 387.146498 
L 792.115049 381.934499 
L 815.986707 383.875654 
L 839.858365 386.723448 
L 863.730023 387.024495 
L 887.60168 386.08878 
L 911.473338 378.408 
" clip-path="url(#pf882c1c1a8)" style="fill: none; stroke: #c39bd3; stroke-opacity: 0.7; stroke-width: 1.5; stroke-linecap: round"/>
   </g>
   <g id="line2d_35">
    <path d="M 99.836974 447.197812 
L 123.708632 447.197812 
L 147.58029 447.197812 
L 171.451948 447.197812 
L 195.323605 447.197812 
L 219.195263 447.197812 
L 243.066921 447.197812 
L 266.938579 447.197812 
L 290.810236 447.197812 
L 314.681894 303.199939 
L 338.553552 351.52867 
L 362.42521 330.745303 
L 386.296867 358.706635 
L 410.168525 357.012257 
L 434.040183 447.197812 
L 457.911841 317.742569 
L 481.783498 273.270513 
L 505.655156 273.154308 
L 529.526814 272.594618 
L 553.398472 252.603829 
L 577.27013 270.627855 
L 601.141787 281.746907 
L 625.013445 277.366099 
L 648.885103 282.175468 
L 672.756761 261.975125 
L 696.628418 285.376006 
L 720.500076 289.645991 
L 744.371734 282.857952 
L 768.243392 285.152096 
L 792.115049 268.922425 
L 815.986707 270.068973 
L 839.858365 277.63122 
L 863.730023 278.101865 
L 887.60168 270.108307 
L 911.473338 447.197812 
" clip-path="url(#pf882c1c1a8)" style="fill: none; stroke: #e74c3c; stroke-opacity: 0.7; stroke-width: 1.5; stroke-linecap: round"/>
   </g>
   <g id="line2d_36">
    <path d="M 99.836974 381.919783 
L 123.708632 385.568419 
L 147.58029 386.622255 
L 171.451948 384.934638 
L 195.323605 379.591385 
L 219.195263 385.924236 
L 243.066921 388.972136 
L 266.938579 387.302777 
L 290.810236 387.253394 
L 314.681894 382.00947 
L 338.553552 392.778617 
L 362.42521 395.703056 
L 386.296867 396.759188 
L 410.168525 393.931886 
L 434.040183 390.565603 
L 457.911841 385.651535 
L 481.783498 384.615382 
L 505.655156 382.834425 
L 529.526814 382.902383 
L 553.398472 378.492546 
L 577.27013 384.058235 
L 601.141787 387.51363 
L 625.013445 388.506265 
L 648.885103 385.719786 
L 672.756761 380.460901 
L 696.628418 387.701448 
L 720.500076 388.947202 
L 744.371734 386.892803 
L 768.243392 387.733123 
L 792.115049 380.973154 
L 815.986707 382.29016 
L 839.858365 382.677146 
L 863.730023 384.086334 
L 887.60168 382.256828 
L 911.473338 381.49398 
" clip-path="url(#pf882c1c1a8)" style="fill: none; stroke: #f39c12; stroke-opacity: 0.7; stroke-width: 1.5; stroke-linecap: round"/>
   </g>
   <g id="line2d_37">
    <path d="M 99.836974 447.197812 
L 123.708632 447.197812 
L 147.58029 447.197812 
L 171.451948 447.197812 
L 195.323605 447.197812 
L 219.195263 447.197812 
L 243.066921 447.197812 
L 266.938579 447.197812 
L 290.810236 447.197812 
L 314.681894 367.043588 
L 338.553552 386.626546 
L 362.42521 388.680411 
L 386.296867 385.135609 
L 410.168525 391.270184 
L 434.040183 337.011096 
L 457.911841 356.953932 
L 481.783498 334.40005 
L 505.655156 329.81377 
L 529.526814 329.743008 
L 553.398472 298.695903 
L 577.27013 317.821727 
L 601.141787 319.368502 
L 625.013445 303.806509 
L 648.885103 299.637794 
L 672.756761 275.404567 
L 696.628418 300.01777 
L 720.500076 292.982992 
L 744.371734 278.360423 
L 768.243392 283.009472 
L 792.115049 253.337131 
L 815.986707 278.276451 
L 839.858365 274.404372 
L 863.730023 276.392435 
L 887.60168 278.254759 
L 911.473338 258.344201 
" clip-path="url(#pf882c1c1a8)" style="fill: none; stroke: #d35400; stroke-opacity: 0.7; stroke-width: 1.5; stroke-linecap: round"/>
   </g>
   <g id="line2d_38">
    <path d="M 99.836974 447.197812 
L 123.708632 447.197812 
L 147.58029 447.197812 
L 171.451948 447.197812 
L 195.323605 447.197812 
L 219.195263 447.197812 
L 243.066921 447.197812 
L 266.938579 447.197812 
L 290.810236 447.197812 
L 314.681894 249.073473 
L 338.553552 270.969925 
L 362.42521 280.623963 
L 386.296867 259.842333 
L 410.168525 284.807648 
L 434.040183 447.197812 
L 457.911841 222.942504 
L 481.783498 220.485291 
L 505.655156 212.469391 
L 529.526814 206.546939 
L 553.398472 177.171239 
L 577.27013 205.122557 
L 601.141787 205.911827 
L 625.013445 220.815911 
L 648.885103 202.74261 
L 672.756761 185.79828 
L 696.628418 207.583964 
L 720.500076 229.886847 
L 744.371734 205.881736 
L 768.243392 216.075097 
L 792.115049 213.458219 
L 815.986707 214.500073 
L 839.858365 227.353868 
L 863.730023 220.049666 
L 887.60168 447.197812 
L 911.473338 43.997813 
" clip-path="url(#pf882c1c1a8)" style="fill: none; stroke: #7f8c8d; stroke-opacity: 0.7; stroke-width: 1.5; stroke-linecap: round"/>
   </g>
   <g id="patch_3">
    <path d="M 59.255156 467.357812 
L 59.255156 23.837812 
" style="fill: none; stroke: #cccccc; stroke-width: 1.25; stroke-linejoin: miter; stroke-linecap: square"/>
   </g>
   <g id="patch_4">
    <path d="M 952.055156 467.357812 
L 952.055156 23.837812 
" style="fill: none; stroke: #cccccc; stroke-width: 1.25; stroke-linejoin: miter; stroke-linecap: square"/>
   </g>
   <g id="patch_5">
    <path d="M 59.255156 467.357812 
L 952.055156 467.357812 
" style="fill: none; stroke: #cccccc; stroke-width: 1.25; stroke-linejoin: miter; stroke-linecap: square"/>
   </g>
   <g id="patch_6">
    <path d="M 59.255156 23.837812 
L 952.055156 23.837812 
" style="fill: none; stroke: #cccccc; stroke-width: 1.25; stroke-linejoin: miter; stroke-linecap: square"/>
   </g>
   <g id="text_28">
    <!-- Gemma4-E2B Layer-wise Edit Magnitude -->
    <g style="fill: #262626" transform="translate(345.652656 17.837812) scale(0.14 -0.14)">
     <defs>
      <path id="DejaVuSans-Bold-47" d="M 4781 347 
Q 4331 128 3847 18 
Q 3363 -91 2847 -91 
Q 1681 -91 1000 561 
Q 319 1213 319 2328 
Q 319 3456 1012 4103 
Q 1706 4750 2913 4750 
Q 3378 4750 3804 4662 
Q 4231 4575 4609 4403 
L 4609 3438 
Q 4219 3659 3833 3768 
Q 3447 3878 3059 3878 
Q 2341 3878 1952 3476 
Q 1563 3075 1563 2328 
Q 1563 1588 1938 1184 
Q 2313 781 3003 781 
Q 3191 781 3352 804 
Q 3513 828 3641 878 
L 3641 1784 
L 2906 1784 
L 2906 2591 
L 4781 2591 
L 4781 347 
z
" transform="scale(0.015625)"/>
      <path id="DejaVuSans-Bold-65" d="M 4031 1759 
L 4031 1441 
L 1416 1441 
Q 1456 1047 1700 850 
Q 1944 653 2381 653 
Q 2734 653 3104 758 
Q 3475 863 3866 1075 
L 3866 213 
Q 3469 63 3072 -14 
Q 2675 -91 2278 -91 
Q 1328 -91 801 392 
Q 275 875 275 1747 
Q 275 2603 792 3093 
Q 1309 3584 2216 3584 
Q 3041 3584 3536 3087 
Q 4031 2591 4031 1759 
z
M 2881 2131 
Q 2881 2450 2695 2645 
Q 2509 2841 2209 2841 
Q 1884 2841 1681 2658 
Q 1478 2475 1428 2131 
L 2881 2131 
z
" transform="scale(0.015625)"/>
      <path id="DejaVuSans-Bold-6d" d="M 3781 2919 
Q 3994 3244 4286 3414 
Q 4578 3584 4928 3584 
Q 5531 3584 5847 3212 
Q 6163 2841 6163 2131 
L 6163 0 
L 5038 0 
L 5038 1825 
Q 5041 1866 5042 1909 
Q 5044 1953 5044 2034 
Q 5044 2406 4934 2573 
Q 4825 2741 4581 2741 
Q 4263 2741 4089 2478 
Q 3916 2216 3909 1719 
L 3909 0 
L 2784 0 
L 2784 1825 
Q 2784 2406 2684 2573 
Q 2584 2741 2328 2741 
Q 2006 2741 1831 2477 
Q 1656 2213 1656 1722 
L 1656 0 
L 531 0 
L 531 3500 
L 1656 3500 
L 1656 2988 
Q 1863 3284 2130 3434 
Q 2397 3584 2719 3584 
Q 3081 3584 3359 3409 
Q 3638 3234 3781 2919 
z
" transform="scale(0.015625)"/>
      <path id="DejaVuSans-Bold-61" d="M 2106 1575 
Q 1756 1575 1579 1456 
Q 1403 1338 1403 1106 
Q 1403 894 1545 773 
Q 1688 653 1941 653 
Q 2256 653 2472 879 
Q 2688 1106 2688 1447 
L 2688 1575 
L 2106 1575 
z
M 3816 1997 
L 3816 0 
L 2688 0 
L 2688 519 
Q 2463 200 2181 54 
Q 1900 -91 1497 -91 
Q 953 -91 614 226 
Q 275 544 275 1050 
Q 275 1666 698 1953 
Q 1122 2241 2028 2241 
L 2688 2241 
L 2688 2328 
Q 2688 2594 2478 2717 
Q 2269 2841 1825 2841 
Q 1466 2841 1156 2769 
Q 847 2697 581 2553 
L 581 3406 
Q 941 3494 1303 3539 
Q 1666 3584 2028 3584 
Q 2975 3584 3395 3211 
Q 3816 2838 3816 1997 
z
" transform="scale(0.015625)"/>
      <path id="DejaVuSans-Bold-34" d="M 2356 3675 
L 1038 1722 
L 2356 1722 
L 2356 3675 
z
M 2156 4666 
L 3494 4666 
L 3494 1722 
L 4159 1722 
L 4159 850 
L 3494 850 
L 3494 0 
L 2356 0 
L 2356 850 
L 288 850 
L 288 1881 
L 2156 4666 
z
" transform="scale(0.015625)"/>
      <path id="DejaVuSans-Bold-2d" d="M 347 2297 
L 2309 2297 
L 2309 1388 
L 347 1388 
L 347 2297 
z
" transform="scale(0.015625)"/>
      <path id="DejaVuSans-Bold-45" d="M 588 4666 
L 3834 4666 
L 3834 3756 
L 1791 3756 
L 1791 2888 
L 3713 2888 
L 3713 1978 
L 1791 1978 
L 1791 909 
L 3903 909 
L 3903 0 
L 588 0 
L 588 4666 
z
" transform="scale(0.015625)"/>
      <path id="DejaVuSans-Bold-32" d="M 1844 884 
L 3897 884 
L 3897 0 
L 506 0 
L 506 884 
L 2209 2388 
Q 2438 2594 2547 2791 
Q 2656 2988 2656 3200 
Q 2656 3528 2436 3728 
Q 2216 3928 1850 3928 
Q 1569 3928 1234 3808 
Q 900 3688 519 3450 
L 519 4475 
Q 925 4609 1322 4679 
Q 1719 4750 2100 4750 
Q 2938 4750 3402 4381 
Q 3866 4013 3866 3353 
Q 3866 2972 3669 2642 
Q 3472 2313 2841 1759 
L 1844 884 
z
" transform="scale(0.015625)"/>
      <path id="DejaVuSans-Bold-42" d="M 2456 2859 
Q 2741 2859 2887 2984 
Q 3034 3109 3034 3353 
Q 3034 3594 2887 3720 
Q 2741 3847 2456 3847 
L 1791 3847 
L 1791 2859 
L 2456 2859 
z
M 2497 819 
Q 2859 819 3042 972 
Q 3225 1125 3225 1434 
Q 3225 1738 3044 1889 
Q 2863 2041 2497 2041 
L 1791 2041 
L 1791 819 
L 2497 819 
z
M 3616 2497 
Q 4003 2384 4215 2081 
Q 4428 1778 4428 1338 
Q 4428 663 3972 331 
Q 3516 0 2584 0 
L 588 0 
L 588 4666 
L 2394 4666 
Q 3366 4666 3802 4372 
Q 4238 4078 4238 3431 
Q 4238 3091 4078 2852 
Q 3919 2613 3616 2497 
z
" transform="scale(0.015625)"/>
      <path id="DejaVuSans-Bold-20" transform="scale(0.015625)"/>
      <path id="DejaVuSans-Bold-4c" d="M 588 4666 
L 1791 4666 
L 1791 909 
L 3903 909 
L 3903 0 
L 588 0 
L 588 4666 
z
" transform="scale(0.015625)"/>
      <path id="DejaVuSans-Bold-79" d="M 78 3500 
L 1197 3500 
L 2138 1125 
L 2938 3500 
L 4056 3500 
L 2584 -331 
Q 2363 -916 2067 -1148 
Q 1772 -1381 1288 -1381 
L 641 -1381 
L 641 -647 
L 991 -647 
Q 1275 -647 1404 -556 
Q 1534 -466 1606 -231 
L 1638 -134 
L 78 3500 
z
" transform="scale(0.015625)"/>
      <path id="DejaVuSans-Bold-72" d="M 3138 2547 
Q 2991 2616 2845 2648 
Q 2700 2681 2553 2681 
Q 2122 2681 1889 2404 
Q 1656 2128 1656 1613 
L 1656 0 
L 538 0 
L 538 3500 
L 1656 3500 
L 1656 2925 
Q 1872 3269 2151 3426 
Q 2431 3584 2822 3584 
Q 2878 3584 2943 3579 
Q 3009 3575 3134 3559 
L 3138 2547 
z
" transform="scale(0.015625)"/>
      <path id="DejaVuSans-Bold-77" d="M 225 3500 
L 1313 3500 
L 1900 1088 
L 2491 3500 
L 3425 3500 
L 4013 1113 
L 4603 3500 
L 5691 3500 
L 4769 0 
L 3547 0 
L 2956 2406 
L 2369 0 
L 1147 0 
L 225 3500 
z
" transform="scale(0.015625)"/>
      <path id="DejaVuSans-Bold-69" d="M 538 3500 
L 1656 3500 
L 1656 0 
L 538 0 
L 538 3500 
z
M 538 4863 
L 1656 4863 
L 1656 3950 
L 538 3950 
L 538 4863 
z
" transform="scale(0.015625)"/>
      <path id="DejaVuSans-Bold-73" d="M 3272 3391 
L 3272 2541 
Q 2913 2691 2578 2766 
Q 2244 2841 1947 2841 
Q 1628 2841 1473 2761 
Q 1319 2681 1319 2516 
Q 1319 2381 1436 2309 
Q 1553 2238 1856 2203 
L 2053 2175 
Q 2913 2066 3209 1816 
Q 3506 1566 3506 1031 
Q 3506 472 3093 190 
Q 2681 -91 1863 -91 
Q 1516 -91 1145 -36 
Q 775 19 384 128 
L 384 978 
Q 719 816 1070 734 
Q 1422 653 1784 653 
Q 2113 653 2278 743 
Q 2444 834 2444 1013 
Q 2444 1163 2330 1236 
Q 2216 1309 1875 1350 
L 1678 1375 
Q 931 1469 631 1722 
Q 331 1975 331 2491 
Q 331 3047 712 3315 
Q 1094 3584 1881 3584 
Q 2191 3584 2531 3537 
Q 2872 3491 3272 3391 
z
" transform="scale(0.015625)"/>
      <path id="DejaVuSans-Bold-64" d="M 2919 2988 
L 2919 4863 
L 4044 4863 
L 4044 0 
L 2919 0 
L 2919 506 
Q 2688 197 2409 53 
Q 2131 -91 1766 -91 
Q 1119 -91 703 423 
Q 288 938 288 1747 
Q 288 2556 703 3070 
Q 1119 3584 1766 3584 
Q 2128 3584 2408 3439 
Q 2688 3294 2919 2988 
z
M 2181 722 
Q 2541 722 2730 984 
Q 2919 1247 2919 1747 
Q 2919 2247 2730 2509 
Q 2541 2772 2181 2772 
Q 1825 2772 1636 2509 
Q 1447 2247 1447 1747 
Q 1447 1247 1636 984 
Q 1825 722 2181 722 
z
" transform="scale(0.015625)"/>
      <path id="DejaVuSans-Bold-74" d="M 1759 4494 
L 1759 3500 
L 2913 3500 
L 2913 2700 
L 1759 2700 
L 1759 1216 
Q 1759 972 1856 886 
Q 1953 800 2241 800 
L 2816 800 
L 2816 0 
L 1856 0 
Q 1194 0 917 276 
Q 641 553 641 1216 
L 641 2700 
L 84 2700 
L 84 3500 
L 641 3500 
L 641 4494 
L 1759 4494 
z
" transform="scale(0.015625)"/>
      <path id="DejaVuSans-Bold-4d" d="M 588 4666 
L 2119 4666 
L 3181 2169 
L 4250 4666 
L 5778 4666 
L 5778 0 
L 4641 0 
L 4641 3413 
L 3566 897 
L 2803 897 
L 1728 3413 
L 1728 0 
L 588 0 
L 588 4666 
z
" transform="scale(0.015625)"/>
      <path id="DejaVuSans-Bold-67" d="M 2919 594 
Q 2688 288 2409 144 
Q 2131 0 1766 0 
Q 1125 0 706 504 
Q 288 1009 288 1791 
Q 288 2575 706 3076 
Q 1125 3578 1766 3578 
Q 2131 3578 2409 3434 
Q 2688 3291 2919 2981 
L 2919 3500 
L 4044 3500 
L 4044 353 
Q 4044 -491 3511 -936 
Q 2978 -1381 1966 -1381 
Q 1638 -1381 1331 -1331 
Q 1025 -1281 716 -1178 
L 716 -306 
Q 1009 -475 1290 -558 
Q 1572 -641 1856 -641 
Q 2406 -641 2662 -400 
Q 2919 -159 2919 353 
L 2919 594 
z
M 2181 2772 
Q 1834 2772 1640 2515 
Q 1447 2259 1447 1791 
Q 1447 1309 1634 1061 
Q 1822 813 2181 813 
Q 2531 813 2725 1069 
Q 2919 1325 2919 1791 
Q 2919 2259 2725 2515 
Q 2531 2772 2181 2772 
z
" transform="scale(0.015625)"/>
      <path id="DejaVuSans-Bold-6e" d="M 4056 2131 
L 4056 0 
L 2931 0 
L 2931 347 
L 2931 1631 
Q 2931 2084 2911 2256 
Q 2891 2428 2841 2509 
Q 2775 2619 2662 2680 
Q 2550 2741 2406 2741 
Q 2056 2741 1856 2470 
Q 1656 2200 1656 1722 
L 1656 0 
L 538 0 
L 538 3500 
L 1656 3500 
L 1656 2988 
Q 1909 3294 2193 3439 
Q 2478 3584 2822 3584 
Q 3428 3584 3742 3212 
Q 4056 2841 4056 2131 
z
" transform="scale(0.015625)"/>
      <path id="DejaVuSans-Bold-75" d="M 500 1363 
L 500 3500 
L 1625 3500 
L 1625 3150 
Q 1625 2866 1622 2436 
Q 1619 2006 1619 1863 
Q 1619 1441 1641 1255 
Q 1663 1069 1716 984 
Q 1784 875 1895 815 
Q 2006 756 2150 756 
Q 2500 756 2700 1025 
Q 2900 1294 2900 1772 
L 2900 3500 
L 4019 3500 
L 4019 0 
L 2900 0 
L 2900 506 
Q 2647 200 2364 54 
Q 2081 -91 1741 -91 
Q 1134 -91 817 281 
Q 500 653 500 1363 
z
" transform="scale(0.015625)"/>
     </defs>
     <use xlink:href="#DejaVuSans-Bold-47"/>
     <use xlink:href="#DejaVuSans-Bold-65" transform="translate(82.080078 0)"/>
     <use xlink:href="#DejaVuSans-Bold-6d" transform="translate(149.902344 0)"/>
     <use xlink:href="#DejaVuSans-Bold-6d" transform="translate(254.101562 0)"/>
     <use xlink:href="#DejaVuSans-Bold-61" transform="translate(358.300781 0)"/>
     <use xlink:href="#DejaVuSans-Bold-34" transform="translate(425.78125 0)"/>
     <use xlink:href="#DejaVuSans-Bold-2d" transform="translate(495.361328 0)"/>
     <use xlink:href="#DejaVuSans-Bold-45" transform="translate(536.865234 0)"/>
     <use xlink:href="#DejaVuSans-Bold-32" transform="translate(605.175781 0)"/>
     <use xlink:href="#DejaVuSans-Bold-42" transform="translate(674.755859 0)"/>
     <use xlink:href="#DejaVuSans-Bold-20" transform="translate(750.976562 0)"/>
     <use xlink:href="#DejaVuSans-Bold-4c" transform="translate(785.791016 0)"/>
     <use xlink:href="#DejaVuSans-Bold-61" transform="translate(849.511719 0)"/>
     <use xlink:href="#DejaVuSans-Bold-79" transform="translate(913.867188 0)"/>
     <use xlink:href="#DejaVuSans-Bold-65" transform="translate(979.052734 0)"/>
     <use xlink:href="#DejaVuSans-Bold-72" transform="translate(1046.875 0)"/>
     <use xlink:href="#DejaVuSans-Bold-2d" transform="translate(1096.191406 0)"/>
     <use xlink:href="#DejaVuSans-Bold-77" transform="translate(1137.695312 0)"/>
     <use xlink:href="#DejaVuSans-Bold-69" transform="translate(1230.078125 0)"/>
     <use xlink:href="#DejaVuSans-Bold-73" transform="translate(1264.355469 0)"/>
     <use xlink:href="#DejaVuSans-Bold-65" transform="translate(1323.876953 0)"/>
     <use xlink:href="#DejaVuSans-Bold-20" transform="translate(1391.699219 0)"/>
     <use xlink:href="#DejaVuSans-Bold-45" transform="translate(1426.513672 0)"/>
     <use xlink:href="#DejaVuSans-Bold-64" transform="translate(1494.824219 0)"/>
     <use xlink:href="#DejaVuSans-Bold-69" transform="translate(1566.40625 0)"/>
     <use xlink:href="#DejaVuSans-Bold-74" transform="translate(1600.683594 0)"/>
     <use xlink:href="#DejaVuSans-Bold-20" transform="translate(1648.486328 0)"/>
     <use xlink:href="#DejaVuSans-Bold-4d" transform="translate(1683.300781 0)"/>
     <use xlink:href="#DejaVuSans-Bold-61" transform="translate(1782.8125 0)"/>
     <use xlink:href="#DejaVuSans-Bold-67" transform="translate(1850.292969 0)"/>
     <use xlink:href="#DejaVuSans-Bold-6e" transform="translate(1921.875 0)"/>
     <use xlink:href="#DejaVuSans-Bold-69" transform="translate(1993.066406 0)"/>
     <use xlink:href="#DejaVuSans-Bold-74" transform="translate(2027.34375 0)"/>
     <use xlink:href="#DejaVuSans-Bold-75" transform="translate(2075.146484 0)"/>
     <use xlink:href="#DejaVuSans-Bold-64" transform="translate(2146.337891 0)"/>
     <use xlink:href="#DejaVuSans-Bold-65" transform="translate(2217.919922 0)"/>
    </g>
   </g>
   <g id="legend_1">
    <g id="patch_7">
     <path d="M 64.155156 80.81125 
L 280.8675 80.81125 
Q 282.2675 80.81125 282.2675 79.41125 
L 282.2675 28.737812 
Q 282.2675 27.337812 280.8675 27.337812 
L 64.155156 27.337812 
Q 62.755156 27.337812 62.755156 28.737812 
L 62.755156 79.41125 
Q 62.755156 80.81125 64.155156 80.81125 
z
" style="fill: #ffffff; opacity: 0.8; stroke: #cccccc; stroke-linejoin: miter"/>
    </g>
    <g id="line2d_39">
     <path d="M 65.555156 33.006719 
L 72.555156 33.006719 
L 79.555156 33.006719 
" style="fill: none; stroke: #27ae60; stroke-opacity: 0.7; stroke-width: 1.5; stroke-linecap: round"/>
    </g>
    <g id="text_29">
     <!-- Coder3101 -->
     <g style="fill: #262626" transform="translate(85.155156 35.456719) scale(0.07 -0.07)">
      <defs>
       <path id="DejaVuSans-43" d="M 4122 4306 
L 4122 3641 
Q 3803 3938 3442 4084 
Q 3081 4231 2675 4231 
Q 1875 4231 1450 3742 
Q 1025 3253 1025 2328 
Q 1025 1406 1450 917 
Q 1875 428 2675 428 
Q 3081 428 3442 575 
Q 3803 722 4122 1019 
L 4122 359 
Q 3791 134 3420 21 
Q 3050 -91 2638 -91 
Q 1578 -91 968 557 
Q 359 1206 359 2328 
Q 359 3453 968 4101 
Q 1578 4750 2638 4750 
Q 3056 4750 3426 4639 
Q 3797 4528 4122 4306 
z
" transform="scale(0.015625)"/>
      </defs>
      <use xlink:href="#DejaVuSans-43"/>
      <use xlink:href="#DejaVuSans-6f" transform="translate(69.824219 0)"/>
      <use xlink:href="#DejaVuSans-64" transform="translate(131.005859 0)"/>
      <use xlink:href="#DejaVuSans-65" transform="translate(194.482422 0)"/>
      <use xlink:href="#DejaVuSans-72" transform="translate(256.005859 0)"/>
      <use xlink:href="#DejaVuSans-33" transform="translate(297.119141 0)"/>
      <use xlink:href="#DejaVuSans-31" transform="translate(360.742188 0)"/>
      <use xlink:href="#DejaVuSans-30" transform="translate(424.365234 0)"/>
      <use xlink:href="#DejaVuSans-31" transform="translate(487.988281 0)"/>
     </g>
    </g>
    <g id="line2d_40">
     <path d="M 65.555156 43.281406 
L 72.555156 43.281406 
L 79.555156 43.281406 
" style="fill: none; stroke: #9b59b6; stroke-opacity: 0.7; stroke-width: 1.5; stroke-linecap: round"/>
    </g>
    <g id="text_30">
     <!-- Duoneural -->
     <g style="fill: #262626" transform="translate(85.155156 45.731406) scale(0.07 -0.07)">
      <defs>
       <path id="DejaVuSans-44" d="M 1259 4147 
L 1259 519 
L 2022 519 
Q 2988 519 3436 956 
Q 3884 1394 3884 2338 
Q 3884 3275 3436 3711 
Q 2988 4147 2022 4147 
L 1259 4147 
z
M 628 4666 
L 1925 4666 
Q 3281 4666 3915 4102 
Q 4550 3538 4550 2338 
Q 4550 1131 3912 565 
Q 3275 0 1925 0 
L 628 0 
L 628 4666 
z
" transform="scale(0.015625)"/>
       <path id="DejaVuSans-75" d="M 544 1381 
L 544 3500 
L 1119 3500 
L 1119 1403 
Q 1119 906 1312 657 
Q 1506 409 1894 409 
Q 2359 409 2629 706 
Q 2900 1003 2900 1516 
L 2900 3500 
L 3475 3500 
L 3475 0 
L 2900 0 
L 2900 538 
Q 2691 219 2414 64 
Q 2138 -91 1772 -91 
Q 1169 -91 856 284 
Q 544 659 544 1381 
z
M 1991 3584 
L 1991 3584 
z
" transform="scale(0.015625)"/>
       <path id="DejaVuSans-6c" d="M 603 4863 
L 1178 4863 
L 1178 0 
L 603 0 
L 603 4863 
z
" transform="scale(0.015625)"/>
      </defs>
      <use xlink:href="#DejaVuSans-44"/>
      <use xlink:href="#DejaVuSans-75" transform="translate(77.001953 0)"/>
      <use xlink:href="#DejaVuSans-6f" transform="translate(140.380859 0)"/>
      <use xlink:href="#DejaVuSans-6e" transform="translate(201.5625 0)"/>
      <use xlink:href="#DejaVuSans-65" transform="translate(264.941406 0)"/>
      <use xlink:href="#DejaVuSans-75" transform="translate(326.464844 0)"/>
      <use xlink:href="#DejaVuSans-72" transform="translate(389.84375 0)"/>
      <use xlink:href="#DejaVuSans-61" transform="translate(430.957031 0)"/>
      <use xlink:href="#DejaVuSans-6c" transform="translate(492.236328 0)"/>
     </g>
    </g>
    <g id="line2d_41">
     <path d="M 65.555156 53.556094 
L 72.555156 53.556094 
L 79.555156 53.556094 
" style="fill: none; stroke: #c0392b; stroke-opacity: 0.7; stroke-width: 1.5; stroke-linecap: round"/>
    </g>
    <g id="text_31">
     <!-- EtherOpus -->
     <g style="fill: #262626" transform="translate(85.155156 56.006094) scale(0.07 -0.07)">
      <defs>
       <path id="DejaVuSans-68" d="M 3513 2113 
L 3513 0 
L 2938 0 
L 2938 2094 
Q 2938 2591 2744 2837 
Q 2550 3084 2163 3084 
Q 1697 3084 1428 2787 
Q 1159 2491 1159 1978 
L 1159 0 
L 581 0 
L 581 4863 
L 1159 4863 
L 1159 2956 
Q 1366 3272 1645 3428 
Q 1925 3584 2291 3584 
Q 2894 3584 3203 3211 
Q 3513 2838 3513 2113 
z
" transform="scale(0.015625)"/>
       <path id="DejaVuSans-4f" d="M 2522 4238 
Q 1834 4238 1429 3725 
Q 1025 3213 1025 2328 
Q 1025 1447 1429 934 
Q 1834 422 2522 422 
Q 3209 422 3611 934 
Q 4013 1447 4013 2328 
Q 4013 3213 3611 3725 
Q 3209 4238 2522 4238 
z
M 2522 4750 
Q 3503 4750 4090 4092 
Q 4678 3434 4678 2328 
Q 4678 1225 4090 567 
Q 3503 -91 2522 -91 
Q 1538 -91 948 565 
Q 359 1222 359 2328 
Q 359 3434 948 4092 
Q 1538 4750 2522 4750 
z
" transform="scale(0.015625)"/>
       <path id="DejaVuSans-70" d="M 1159 525 
L 1159 -1331 
L 581 -1331 
L 581 3500 
L 1159 3500 
L 1159 2969 
Q 1341 3281 1617 3432 
Q 1894 3584 2278 3584 
Q 2916 3584 3314 3078 
Q 3713 2572 3713 1747 
Q 3713 922 3314 415 
Q 2916 -91 2278 -91 
Q 1894 -91 1617 61 
Q 1341 213 1159 525 
z
M 3116 1747 
Q 3116 2381 2855 2742 
Q 2594 3103 2138 3103 
Q 1681 3103 1420 2742 
Q 1159 2381 1159 1747 
Q 1159 1113 1420 752 
Q 1681 391 2138 391 
Q 2594 391 2855 752 
Q 3116 1113 3116 1747 
z
" transform="scale(0.015625)"/>
       <path id="DejaVuSans-73" d="M 2834 3397 
L 2834 2853 
Q 2591 2978 2328 3040 
Q 2066 3103 1784 3103 
Q 1356 3103 1142 2972 
Q 928 2841 928 2578 
Q 928 2378 1081 2264 
Q 1234 2150 1697 2047 
L 1894 2003 
Q 2506 1872 2764 1633 
Q 3022 1394 3022 966 
Q 3022 478 2636 193 
Q 2250 -91 1575 -91 
Q 1294 -91 989 -36 
Q 684 19 347 128 
L 347 722 
Q 666 556 975 473 
Q 1284 391 1588 391 
Q 1994 391 2212 530 
Q 2431 669 2431 922 
Q 2431 1156 2273 1281 
Q 2116 1406 1581 1522 
L 1381 1569 
Q 847 1681 609 1914 
Q 372 2147 372 2553 
Q 372 3047 722 3315 
Q 1072 3584 1716 3584 
Q 2034 3584 2315 3537 
Q 2597 3491 2834 3397 
z
" transform="scale(0.015625)"/>
      </defs>
      <use xlink:href="#DejaVuSans-45"/>
      <use xlink:href="#DejaVuSans-74" transform="translate(63.183594 0)"/>
      <use xlink:href="#DejaVuSans-68" transform="translate(102.392578 0)"/>
      <use xlink:href="#DejaVuSans-65" transform="translate(165.771484 0)"/>
      <use xlink:href="#DejaVuSans-72" transform="translate(227.294922 0)"/>
      <use xlink:href="#DejaVuSans-4f" transform="translate(268.408203 0)"/>
      <use xlink:href="#DejaVuSans-70" transform="translate(347.119141 0)"/>
      <use xlink:href="#DejaVuSans-75" transform="translate(410.595703 0)"/>
      <use xlink:href="#DejaVuSans-73" transform="translate(473.974609 0)"/>
     </g>
    </g>
    <g id="line2d_42">
     <path d="M 65.555156 63.830781 
L 72.555156 63.830781 
L 79.555156 63.830781 
" style="fill: none; stroke: #8e44ad; stroke-opacity: 0.7; stroke-width: 1.5; stroke-linecap: round"/>
    </g>
    <g id="text_32">
     <!-- Huihui-v1 -->
     <g style="fill: #262626" transform="translate(85.155156 66.280781) scale(0.07 -0.07)">
      <defs>
       <path id="DejaVuSans-48" d="M 628 4666 
L 1259 4666 
L 1259 2753 
L 3553 2753 
L 3553 4666 
L 4184 4666 
L 4184 0 
L 3553 0 
L 3553 2222 
L 1259 2222 
L 1259 0 
L 628 0 
L 628 4666 
z
" transform="scale(0.015625)"/>
       <path id="DejaVuSans-2d" d="M 313 2009 
L 1997 2009 
L 1997 1497 
L 313 1497 
L 313 2009 
z
" transform="scale(0.015625)"/>
       <path id="DejaVuSans-76" d="M 191 3500 
L 800 3500 
L 1894 563 
L 2988 3500 
L 3597 3500 
L 2284 0 
L 1503 0 
L 191 3500 
z
" transform="scale(0.015625)"/>
      </defs>
      <use xlink:href="#DejaVuSans-48"/>
      <use xlink:href="#DejaVuSans-75" transform="translate(75.195312 0)"/>
      <use xlink:href="#DejaVuSans-69" transform="translate(138.574219 0)"/>
      <use xlink:href="#DejaVuSans-68" transform="translate(166.357422 0)"/>
      <use xlink:href="#DejaVuSans-75" transform="translate(229.736328 0)"/>
      <use xlink:href="#DejaVuSans-69" transform="translate(293.115234 0)"/>
      <use xlink:href="#DejaVuSans-2d" transform="translate(320.898438 0)"/>
      <use xlink:href="#DejaVuSans-76" transform="translate(354.357422 0)"/>
      <use xlink:href="#DejaVuSans-31" transform="translate(413.537109 0)"/>
     </g>
    </g>
    <g id="line2d_43">
     <path d="M 65.555156 74.105469 
L 72.555156 74.105469 
L 79.555156 74.105469 
" style="fill: none; stroke: #e67e22; stroke-opacity: 0.7; stroke-width: 1.5; stroke-linecap: round"/>
    </g>
    <g id="text_33">
     <!-- Huihui-v2 -->
     <g style="fill: #262626" transform="translate(85.155156 76.555469) scale(0.07 -0.07)">
      <use xlink:href="#DejaVuSans-48"/>
      <use xlink:href="#DejaVuSans-75" transform="translate(75.195312 0)"/>
      <use xlink:href="#DejaVuSans-69" transform="translate(138.574219 0)"/>
      <use xlink:href="#DejaVuSans-68" transform="translate(166.357422 0)"/>
      <use xlink:href="#DejaVuSans-75" transform="translate(229.736328 0)"/>
      <use xlink:href="#DejaVuSans-69" transform="translate(293.115234 0)"/>
      <use xlink:href="#DejaVuSans-2d" transform="translate(320.898438 0)"/>
      <use xlink:href="#DejaVuSans-76" transform="translate(354.357422 0)"/>
      <use xlink:href="#DejaVuSans-32" transform="translate(413.537109 0)"/>
     </g>
    </g>
    <g id="line2d_44">
     <path d="M 137.77 33.006719 
L 144.77 33.006719 
L 151.77 33.006719 
" style="fill: none; stroke: #3498db; stroke-opacity: 0.7; stroke-width: 1.5; stroke-linecap: round"/>
    </g>
    <g id="text_34">
     <!-- Kasper -->
     <g style="fill: #262626" transform="translate(157.37 35.456719) scale(0.07 -0.07)">
      <defs>
       <path id="DejaVuSans-4b" d="M 628 4666 
L 1259 4666 
L 1259 2694 
L 3353 4666 
L 4166 4666 
L 1850 2491 
L 4331 0 
L 3500 0 
L 1259 2247 
L 1259 0 
L 628 0 
L 628 4666 
z
" transform="scale(0.015625)"/>
      </defs>
      <use xlink:href="#DejaVuSans-4b"/>
      <use xlink:href="#DejaVuSans-61" transform="translate(63.826172 0)"/>
      <use xlink:href="#DejaVuSans-73" transform="translate(125.105469 0)"/>
      <use xlink:href="#DejaVuSans-70" transform="translate(177.205078 0)"/>
      <use xlink:href="#DejaVuSans-65" transform="translate(240.681641 0)"/>
      <use xlink:href="#DejaVuSans-72" transform="translate(302.205078 0)"/>
     </g>
    </g>
    <g id="line2d_45">
     <path d="M 137.77 43.281406 
L 144.77 43.281406 
L 151.77 43.281406 
" style="fill: none; stroke: #2ecc71; stroke-opacity: 0.7; stroke-width: 1.5; stroke-linecap: round"/>
    </g>
    <g id="text_35">
     <!-- LLMFan46 -->
     <g style="fill: #262626" transform="translate(157.37 45.731406) scale(0.07 -0.07)">
      <defs>
       <path id="DejaVuSans-46" d="M 628 4666 
L 3309 4666 
L 3309 4134 
L 1259 4134 
L 1259 2759 
L 3109 2759 
L 3109 2228 
L 1259 2228 
L 1259 0 
L 628 0 
L 628 4666 
z
" transform="scale(0.015625)"/>
      </defs>
      <use xlink:href="#DejaVuSans-4c"/>
      <use xlink:href="#DejaVuSans-4c" transform="translate(55.712891 0)"/>
      <use xlink:href="#DejaVuSans-4d" transform="translate(111.425781 0)"/>
      <use xlink:href="#DejaVuSans-46" transform="translate(197.705078 0)"/>
      <use xlink:href="#DejaVuSans-61" transform="translate(246.099609 0)"/>
      <use xlink:href="#DejaVuSans-6e" transform="translate(307.378906 0)"/>
      <use xlink:href="#DejaVuSans-34" transform="translate(370.757812 0)"/>
      <use xlink:href="#DejaVuSans-36" transform="translate(434.380859 0)"/>
     </g>
    </g>
    <g id="line2d_46">
     <path d="M 137.77 53.556094 
L 144.77 53.556094 
L 151.77 53.556094 
" style="fill: none; stroke: #2980b9; stroke-opacity: 0.7; stroke-width: 1.5; stroke-linecap: round"/>
    </g>
    <g id="text_36">
     <!-- PEW -->
     <g style="fill: #262626" transform="translate(157.37 56.006094) scale(0.07 -0.07)">
      <defs>
       <path id="DejaVuSans-50" d="M 1259 4147 
L 1259 2394 
L 2053 2394 
Q 2494 2394 2734 2622 
Q 2975 2850 2975 3272 
Q 2975 3691 2734 3919 
Q 2494 4147 2053 4147 
L 1259 4147 
z
M 628 4666 
L 2053 4666 
Q 2838 4666 3239 4311 
Q 3641 3956 3641 3272 
Q 3641 2581 3239 2228 
Q 2838 1875 2053 1875 
L 1259 1875 
L 1259 0 
L 628 0 
L 628 4666 
z
" transform="scale(0.015625)"/>
       <path id="DejaVuSans-57" d="M 213 4666 
L 850 4666 
L 1831 722 
L 2809 4666 
L 3519 4666 
L 4500 722 
L 5478 4666 
L 6119 4666 
L 4947 0 
L 4153 0 
L 3169 4050 
L 2175 0 
L 1381 0 
L 213 4666 
z
" transform="scale(0.015625)"/>
      </defs>
      <use xlink:href="#DejaVuSans-50"/>
      <use xlink:href="#DejaVuSans-45" transform="translate(60.302734 0)"/>
      <use xlink:href="#DejaVuSans-57" transform="translate(123.486328 0)"/>
     </g>
    </g>
    <g id="line2d_47">
     <path d="M 137.77 63.830781 
L 144.77 63.830781 
L 151.77 63.830781 
" style="fill: none; stroke: #c39bd3; stroke-opacity: 0.7; stroke-width: 1.5; stroke-linecap: round"/>
    </g>
    <g id="text_37">
     <!-- Prithiv -->
     <g style="fill: #262626" transform="translate(157.37 66.280781) scale(0.07 -0.07)">
      <use xlink:href="#DejaVuSans-50"/>
      <use xlink:href="#DejaVuSans-72" transform="translate(58.552734 0)"/>
      <use xlink:href="#DejaVuSans-69" transform="translate(99.666016 0)"/>
      <use xlink:href="#DejaVuSans-74" transform="translate(127.449219 0)"/>
      <use xlink:href="#DejaVuSans-68" transform="translate(166.658203 0)"/>
      <use xlink:href="#DejaVuSans-69" transform="translate(230.037109 0)"/>
      <use xlink:href="#DejaVuSans-76" transform="translate(257.820312 0)"/>
     </g>
    </g>
    <g id="line2d_48">
     <path d="M 206.231094 33.006719 
L 213.231094 33.006719 
L 220.231094 33.006719 
" style="fill: none; stroke: #e74c3c; stroke-opacity: 0.7; stroke-width: 1.5; stroke-linecap: round"/>
    </g>
    <g id="text_38">
     <!-- Treadon -->
     <g style="fill: #262626" transform="translate(225.831094 35.456719) scale(0.07 -0.07)">
      <defs>
       <path id="DejaVuSans-54" d="M -19 4666 
L 3928 4666 
L 3928 4134 
L 2272 4134 
L 2272 0 
L 1638 0 
L 1638 4134 
L -19 4134 
L -19 4666 
z
" transform="scale(0.015625)"/>
      </defs>
      <use xlink:href="#DejaVuSans-54"/>
      <use xlink:href="#DejaVuSans-72" transform="translate(46.333984 0)"/>
      <use xlink:href="#DejaVuSans-65" transform="translate(85.197266 0)"/>
      <use xlink:href="#DejaVuSans-61" transform="translate(146.720703 0)"/>
      <use xlink:href="#DejaVuSans-64" transform="translate(208 0)"/>
      <use xlink:href="#DejaVuSans-6f" transform="translate(271.476562 0)"/>
      <use xlink:href="#DejaVuSans-6e" transform="translate(332.658203 0)"/>
     </g>
    </g>
    <g id="line2d_49">
     <path d="M 206.231094 43.281406 
L 213.231094 43.281406 
L 220.231094 43.281406 
" style="fill: none; stroke: #f39c12; stroke-opacity: 0.7; stroke-width: 1.5; stroke-linecap: round"/>
    </g>
    <g id="text_39">
     <!-- TrevorJS -->
     <g style="fill: #262626" transform="translate(225.831094 45.731406) scale(0.07 -0.07)">
      <defs>
       <path id="DejaVuSans-4a" d="M 628 4666 
L 1259 4666 
L 1259 325 
Q 1259 -519 939 -900 
Q 619 -1281 -91 -1281 
L -331 -1281 
L -331 -750 
L -134 -750 
Q 284 -750 456 -515 
Q 628 -281 628 325 
L 628 4666 
z
" transform="scale(0.015625)"/>
       <path id="DejaVuSans-53" d="M 3425 4513 
L 3425 3897 
Q 3066 4069 2747 4153 
Q 2428 4238 2131 4238 
Q 1616 4238 1336 4038 
Q 1056 3838 1056 3469 
Q 1056 3159 1242 3001 
Q 1428 2844 1947 2747 
L 2328 2669 
Q 3034 2534 3370 2195 
Q 3706 1856 3706 1288 
Q 3706 609 3251 259 
Q 2797 -91 1919 -91 
Q 1588 -91 1214 -16 
Q 841 59 441 206 
L 441 856 
Q 825 641 1194 531 
Q 1563 422 1919 422 
Q 2459 422 2753 634 
Q 3047 847 3047 1241 
Q 3047 1584 2836 1778 
Q 2625 1972 2144 2069 
L 1759 2144 
Q 1053 2284 737 2584 
Q 422 2884 422 3419 
Q 422 4038 858 4394 
Q 1294 4750 2059 4750 
Q 2388 4750 2728 4690 
Q 3069 4631 3425 4513 
z
" transform="scale(0.015625)"/>
      </defs>
      <use xlink:href="#DejaVuSans-54"/>
      <use xlink:href="#DejaVuSans-72" transform="translate(46.333984 0)"/>
      <use xlink:href="#DejaVuSans-65" transform="translate(85.197266 0)"/>
      <use xlink:href="#DejaVuSans-76" transform="translate(146.720703 0)"/>
      <use xlink:href="#DejaVuSans-6f" transform="translate(205.900391 0)"/>
      <use xlink:href="#DejaVuSans-72" transform="translate(267.082031 0)"/>
      <use xlink:href="#DejaVuSans-4a" transform="translate(308.195312 0)"/>
      <use xlink:href="#DejaVuSans-53" transform="translate(337.6875 0)"/>
     </g>
    </g>
    <g id="line2d_50">
     <path d="M 206.231094 53.556094 
L 213.231094 53.556094 
L 220.231094 53.556094 
" style="fill: none; stroke: #d35400; stroke-opacity: 0.7; stroke-width: 1.5; stroke-linecap: round"/>
    </g>
    <g id="text_40">
     <!-- Wangzhang -->
     <g style="fill: #262626" transform="translate(225.831094 56.006094) scale(0.07 -0.07)">
      <defs>
       <path id="DejaVuSans-67" d="M 2906 1791 
Q 2906 2416 2648 2759 
Q 2391 3103 1925 3103 
Q 1463 3103 1205 2759 
Q 947 2416 947 1791 
Q 947 1169 1205 825 
Q 1463 481 1925 481 
Q 2391 481 2648 825 
Q 2906 1169 2906 1791 
z
M 3481 434 
Q 3481 -459 3084 -895 
Q 2688 -1331 1869 -1331 
Q 1566 -1331 1297 -1286 
Q 1028 -1241 775 -1147 
L 775 -588 
Q 1028 -725 1275 -790 
Q 1522 -856 1778 -856 
Q 2344 -856 2625 -561 
Q 2906 -266 2906 331 
L 2906 616 
Q 2728 306 2450 153 
Q 2172 0 1784 0 
Q 1141 0 747 490 
Q 353 981 353 1791 
Q 353 2603 747 3093 
Q 1141 3584 1784 3584 
Q 2172 3584 2450 3431 
Q 2728 3278 2906 2969 
L 2906 3500 
L 3481 3500 
L 3481 434 
z
" transform="scale(0.015625)"/>
       <path id="DejaVuSans-7a" d="M 353 3500 
L 3084 3500 
L 3084 2975 
L 922 459 
L 3084 459 
L 3084 0 
L 275 0 
L 275 525 
L 2438 3041 
L 353 3041 
L 353 3500 
z
" transform="scale(0.015625)"/>
      </defs>
      <use xlink:href="#DejaVuSans-57"/>
      <use xlink:href="#DejaVuSans-61" transform="translate(92.501953 0)"/>
      <use xlink:href="#DejaVuSans-6e" transform="translate(153.78125 0)"/>
      <use xlink:href="#DejaVuSans-67" transform="translate(217.160156 0)"/>
      <use xlink:href="#DejaVuSans-7a" transform="translate(280.636719 0)"/>
      <use xlink:href="#DejaVuSans-68" transform="translate(333.126953 0)"/>
      <use xlink:href="#DejaVuSans-61" transform="translate(396.505859 0)"/>
      <use xlink:href="#DejaVuSans-6e" transform="translate(457.785156 0)"/>
      <use xlink:href="#DejaVuSans-67" transform="translate(521.164062 0)"/>
     </g>
    </g>
    <g id="line2d_51">
     <path d="M 206.231094 63.830781 
L 213.231094 63.830781 
L 220.231094 63.830781 
" style="fill: none; stroke: #7f8c8d; stroke-opacity: 0.7; stroke-width: 1.5; stroke-linecap: round"/>
    </g>
    <g id="text_41">
     <!-- WWT CyberLab -->
     <g style="fill: #262626" transform="translate(225.831094 66.280781) scale(0.07 -0.07)">
      <defs>
       <path id="DejaVuSans-62" d="M 3116 1747 
Q 3116 2381 2855 2742 
Q 2594 3103 2138 3103 
Q 1681 3103 1420 2742 
Q 1159 2381 1159 1747 
Q 1159 1113 1420 752 
Q 1681 391 2138 391 
Q 2594 391 2855 752 
Q 3116 1113 3116 1747 
z
M 1159 2969 
Q 1341 3281 1617 3432 
Q 1894 3584 2278 3584 
Q 2916 3584 3314 3078 
Q 3713 2572 3713 1747 
Q 3713 922 3314 415 
Q 2916 -91 2278 -91 
Q 1894 -91 1617 61 
Q 1341 213 1159 525 
L 1159 0 
L 581 0 
L 581 4863 
L 1159 4863 
L 1159 2969 
z
" transform="scale(0.015625)"/>
      </defs>
      <use xlink:href="#DejaVuSans-57"/>
      <use xlink:href="#DejaVuSans-57" transform="translate(98.876953 0)"/>
      <use xlink:href="#DejaVuSans-54" transform="translate(197.753906 0)"/>
      <use xlink:href="#DejaVuSans-20" transform="translate(258.837891 0)"/>
      <use xlink:href="#DejaVuSans-43" transform="translate(290.625 0)"/>
      <use xlink:href="#DejaVuSans-79" transform="translate(360.449219 0)"/>
      <use xlink:href="#DejaVuSans-62" transform="translate(419.628906 0)"/>
      <use xlink:href="#DejaVuSans-65" transform="translate(483.105469 0)"/>
      <use xlink:href="#DejaVuSans-72" transform="translate(544.628906 0)"/>
      <use xlink:href="#DejaVuSans-4c" transform="translate(585.742188 0)"/>
      <use xlink:href="#DejaVuSans-61" transform="translate(641.455078 0)"/>
      <use xlink:href="#DejaVuSans-62" transform="translate(702.734375 0)"/>
     </g>
    </g>
   </g>
  </g>
 </g>
 <defs>
  <clipPath id="pf882c1c1a8">
   <rect x="59.255156" y="23.837812" width="892.8" height="443.52"/>
  </clipPath>
 </defs>
</svg>
