<?xml version="1.0" encoding="utf-8" standalone="no"?>
<!DOCTYPE svg PUBLIC "-//W3C//DTD SVG 1.1//EN"
  "http://www.w3.org/Graphics/SVG/1.1/DTD/svg11.dtd">
<svg xmlns:xlink="http://www.w3.org/1999/xlink" width="1179.771pt" height="493.735937pt" viewBox="0 0 1179.771 493.735937" xmlns="http://www.w3.org/2000/svg" version="1.1">
 <metadata>
  <rdf:RDF xmlns:dc="http://purl.org/dc/elements/1.1/" xmlns:cc="http://creativecommons.org/ns#" xmlns:rdf="http://www.w3.org/1999/02/22-rdf-syntax-ns#">
   <cc:Work>
    <dc:type rdf:resource="http://purl.org/dc/dcmitype/StillImage"/>
    <dc:date>2026-05-23T10:04:04.709782</dc:date>
    <dc:format>image/svg+xml</dc:format>
    <dc:creator>
     <cc:Agent>
      <dc:title>Matplotlib v3.10.8, https://matplotlib.org/</dc:title>
     </cc:Agent>
    </dc:creator>
   </cc:Work>
  </rdf:RDF>
 </metadata>
 <defs>
  <style type="text/css">*{stroke-linejoin: round; stroke-linecap: butt}</style>
 </defs>
 <g id="figure_1">
  <g id="patch_1">
   <path d="M 0 493.735937 
L 1179.771 493.735937 
L 1179.771 0 
L 0 0 
z
" style="fill: #ffffff"/>
  </g>
  <g id="axes_1">
   <g id="patch_2">
    <path d="M 56.571 467.357812 
L 1172.571 467.357812 
L 1172.571 23.837812 
L 56.571 23.837812 
z
" style="fill: #ffffff"/>
   </g>
   <g id="matplotlib.axis_1">
    <g id="xtick_1">
     <g id="line2d_1">
      <path d="M 173.464281 467.357812 
L 173.464281 23.837812 
" clip-path="url(#p8474fc2730)" style="fill: none; stroke: #cccccc; stroke-linecap: round"/>
     </g>
     <g id="text_1">
      <!-- Chem/Bio -->
      <g style="fill: #262626" transform="translate(149.293968 484.45625) scale(0.1 -0.1)">
       <defs>
        <path id="DejaVuSans-43" d="M 4122 4306 
L 4122 3641 
Q 3803 3938 3442 4084 
Q 3081 4231 2675 4231 
Q 1875 4231 1450 3742 
Q 1025 3253 1025 2328 
Q 1025 1406 1450 917 
Q 1875 428 2675 428 
Q 3081 428 3442 575 
Q 3803 722 4122 1019 
L 4122 359 
Q 3791 134 3420 21 
Q 3050 -91 2638 -91 
Q 1578 -91 968 557 
Q 359 1206 359 2328 
Q 359 3453 968 4101 
Q 1578 4750 2638 4750 
Q 3056 4750 3426 4639 
Q 3797 4528 4122 4306 
z
" transform="scale(0.015625)"/>
        <path id="DejaVuSans-68" d="M 3513 2113 
L 3513 0 
L 2938 0 
L 2938 2094 
Q 2938 2591 2744 2837 
Q 2550 3084 2163 3084 
Q 1697 3084 1428 2787 
Q 1159 2491 1159 1978 
L 1159 0 
L 581 0 
L 581 4863 
L 1159 4863 
L 1159 2956 
Q 1366 3272 1645 3428 
Q 1925 3584 2291 3584 
Q 2894 3584 3203 3211 
Q 3513 2838 3513 2113 
z
" transform="scale(0.015625)"/>
        <path id="DejaVuSans-65" d="M 3597 1894 
L 3597 1613 
L 953 1613 
Q 991 1019 1311 708 
Q 1631 397 2203 397 
Q 2534 397 2845 478 
Q 3156 559 3463 722 
L 3463 178 
Q 3153 47 2828 -22 
Q 2503 -91 2169 -91 
Q 1331 -91 842 396 
Q 353 884 353 1716 
Q 353 2575 817 3079 
Q 1281 3584 2069 3584 
Q 2775 3584 3186 3129 
Q 3597 2675 3597 1894 
z
M 3022 2063 
Q 3016 2534 2758 2815 
Q 2500 3097 2075 3097 
Q 1594 3097 1305 2825 
Q 1016 2553 972 2059 
L 3022 2063 
z
" transform="scale(0.015625)"/>
        <path id="DejaVuSans-6d" d="M 3328 2828 
Q 3544 3216 3844 3400 
Q 4144 3584 4550 3584 
Q 5097 3584 5394 3201 
Q 5691 2819 5691 2113 
L 5691 0 
L 5113 0 
L 5113 2094 
Q 5113 2597 4934 2840 
Q 4756 3084 4391 3084 
Q 3944 3084 3684 2787 
Q 3425 2491 3425 1978 
L 3425 0 
L 2847 0 
L 2847 2094 
Q 2847 2600 2669 2842 
Q 2491 3084 2119 3084 
Q 1678 3084 1418 2786 
Q 1159 2488 1159 1978 
L 1159 0 
L 581 0 
L 581 3500 
L 1159 3500 
L 1159 2956 
Q 1356 3278 1631 3431 
Q 1906 3584 2284 3584 
Q 2666 3584 2933 3390 
Q 3200 3197 3328 2828 
z
" transform="scale(0.015625)"/>
        <path id="DejaVuSans-2f" d="M 1625 4666 
L 2156 4666 
L 531 -594 
L 0 -594 
L 1625 4666 
z
" transform="scale(0.015625)"/>
        <path id="DejaVuSans-42" d="M 1259 2228 
L 1259 519 
L 2272 519 
Q 2781 519 3026 730 
Q 3272 941 3272 1375 
Q 3272 1813 3026 2020 
Q 2781 2228 2272 2228 
L 1259 2228 
z
M 1259 4147 
L 1259 2741 
L 2194 2741 
Q 2656 2741 2882 2914 
Q 3109 3088 3109 3444 
Q 3109 3797 2882 3972 
Q 2656 4147 2194 4147 
L 1259 4147 
z
M 628 4666 
L 2241 4666 
Q 2963 4666 3353 4366 
Q 3744 4066 3744 3513 
Q 3744 3084 3544 2831 
Q 3344 2578 2956 2516 
Q 3422 2416 3680 2098 
Q 3938 1781 3938 1306 
Q 3938 681 3513 340 
Q 3088 0 2303 0 
L 628 0 
L 628 4666 
z
" transform="scale(0.015625)"/>
        <path id="DejaVuSans-69" d="M 603 3500 
L 1178 3500 
L 1178 0 
L 603 0 
L 603 3500 
z
M 603 4863 
L 1178 4863 
L 1178 4134 
L 603 4134 
L 603 4863 
z
" transform="scale(0.015625)"/>
        <path id="DejaVuSans-6f" d="M 1959 3097 
Q 1497 3097 1228 2736 
Q 959 2375 959 1747 
Q 959 1119 1226 758 
Q 1494 397 1959 397 
Q 2419 397 2687 759 
Q 2956 1122 2956 1747 
Q 2956 2369 2687 2733 
Q 2419 3097 1959 3097 
z
M 1959 3584 
Q 2709 3584 3137 3096 
Q 3566 2609 3566 1747 
Q 3566 888 3137 398 
Q 2709 -91 1959 -91 
Q 1206 -91 779 398 
Q 353 888 353 1747 
Q 353 2609 779 3096 
Q 1206 3584 1959 3584 
z
" transform="scale(0.015625)"/>
       </defs>
       <use xlink:href="#DejaVuSans-43"/>
       <use xlink:href="#DejaVuSans-68" transform="translate(69.824219 0)"/>
       <use xlink:href="#DejaVuSans-65" transform="translate(133.203125 0)"/>
       <use xlink:href="#DejaVuSans-6d" transform="translate(194.726562 0)"/>
       <use xlink:href="#DejaVuSans-2f" transform="translate(292.138672 0)"/>
       <use xlink:href="#DejaVuSans-42" transform="translate(325.830078 0)"/>
       <use xlink:href="#DejaVuSans-69" transform="translate(394.433594 0)"/>
       <use xlink:href="#DejaVuSans-6f" transform="translate(422.216797 0)"/>
      </g>
     </g>
    </g>
    <g id="xtick_2">
     <g id="line2d_2">
      <path d="M 320.499854 467.357812 
L 320.499854 23.837812 
" clip-path="url(#p8474fc2730)" style="fill: none; stroke: #cccccc; stroke-linecap: round"/>
     </g>
     <g id="text_2">
      <!-- Copyright -->
      <g style="fill: #262626" transform="translate(296.067823 484.45625) scale(0.1 -0.1)">
       <defs>
        <path id="DejaVuSans-70" d="M 1159 525 
L 1159 -1331 
L 581 -1331 
L 581 3500 
L 1159 3500 
L 1159 2969 
Q 1341 3281 1617 3432 
Q 1894 3584 2278 3584 
Q 2916 3584 3314 3078 
Q 3713 2572 3713 1747 
Q 3713 922 3314 415 
Q 2916 -91 2278 -91 
Q 1894 -91 1617 61 
Q 1341 213 1159 525 
z
M 3116 1747 
Q 3116 2381 2855 2742 
Q 2594 3103 2138 3103 
Q 1681 3103 1420 2742 
Q 1159 2381 1159 1747 
Q 1159 1113 1420 752 
Q 1681 391 2138 391 
Q 2594 391 2855 752 
Q 3116 1113 3116 1747 
z
" transform="scale(0.015625)"/>
        <path id="DejaVuSans-79" d="M 2059 -325 
Q 1816 -950 1584 -1140 
Q 1353 -1331 966 -1331 
L 506 -1331 
L 506 -850 
L 844 -850 
Q 1081 -850 1212 -737 
Q 1344 -625 1503 -206 
L 1606 56 
L 191 3500 
L 800 3500 
L 1894 763 
L 2988 3500 
L 3597 3500 
L 2059 -325 
z
" transform="scale(0.015625)"/>
        <path id="DejaVuSans-72" d="M 2631 2963 
Q 2534 3019 2420 3045 
Q 2306 3072 2169 3072 
Q 1681 3072 1420 2755 
Q 1159 2438 1159 1844 
L 1159 0 
L 581 0 
L 581 3500 
L 1159 3500 
L 1159 2956 
Q 1341 3275 1631 3429 
Q 1922 3584 2338 3584 
Q 2397 3584 2469 3576 
Q 2541 3569 2628 3553 
L 2631 2963 
z
" transform="scale(0.015625)"/>
        <path id="DejaVuSans-67" d="M 2906 1791 
Q 2906 2416 2648 2759 
Q 2391 3103 1925 3103 
Q 1463 3103 1205 2759 
Q 947 2416 947 1791 
Q 947 1169 1205 825 
Q 1463 481 1925 481 
Q 2391 481 2648 825 
Q 2906 1169 2906 1791 
z
M 3481 434 
Q 3481 -459 3084 -895 
Q 2688 -1331 1869 -1331 
Q 1566 -1331 1297 -1286 
Q 1028 -1241 775 -1147 
L 775 -588 
Q 1028 -725 1275 -790 
Q 1522 -856 1778 -856 
Q 2344 -856 2625 -561 
Q 2906 -266 2906 331 
L 2906 616 
Q 2728 306 2450 153 
Q 2172 0 1784 0 
Q 1141 0 747 490 
Q 353 981 353 1791 
Q 353 2603 747 3093 
Q 1141 3584 1784 3584 
Q 2172 3584 2450 3431 
Q 2728 3278 2906 2969 
L 2906 3500 
L 3481 3500 
L 3481 434 
z
" transform="scale(0.015625)"/>
        <path id="DejaVuSans-74" d="M 1172 4494 
L 1172 3500 
L 2356 3500 
L 2356 3053 
L 1172 3053 
L 1172 1153 
Q 1172 725 1289 603 
Q 1406 481 1766 481 
L 2356 481 
L 2356 0 
L 1766 0 
Q 1100 0 847 248 
Q 594 497 594 1153 
L 594 3053 
L 172 3053 
L 172 3500 
L 594 3500 
L 594 4494 
L 1172 4494 
z
" transform="scale(0.015625)"/>
       </defs>
       <use xlink:href="#DejaVuSans-43"/>
       <use xlink:href="#DejaVuSans-6f" transform="translate(69.824219 0)"/>
       <use xlink:href="#DejaVuSans-70" transform="translate(131.005859 0)"/>
       <use xlink:href="#DejaVuSans-79" transform="translate(194.482422 0)"/>
       <use xlink:href="#DejaVuSans-72" transform="translate(253.662109 0)"/>
       <use xlink:href="#DejaVuSans-69" transform="translate(294.775391 0)"/>
       <use xlink:href="#DejaVuSans-67" transform="translate(322.558594 0)"/>
       <use xlink:href="#DejaVuSans-68" transform="translate(386.035156 0)"/>
       <use xlink:href="#DejaVuSans-74" transform="translate(449.414062 0)"/>
      </g>
     </g>
    </g>
    <g id="xtick_3">
     <g id="line2d_3">
      <path d="M 467.535427 467.357812 
L 467.535427 23.837812 
" clip-path="url(#p8474fc2730)" style="fill: none; stroke: #cccccc; stroke-linecap: round"/>
     </g>
     <g id="text_3">
      <!-- Cybercrime -->
      <g style="fill: #262626" transform="translate(438.750271 484.45625) scale(0.1 -0.1)">
       <defs>
        <path id="DejaVuSans-62" d="M 3116 1747 
Q 3116 2381 2855 2742 
Q 2594 3103 2138 3103 
Q 1681 3103 1420 2742 
Q 1159 2381 1159 1747 
Q 1159 1113 1420 752 
Q 1681 391 2138 391 
Q 2594 391 2855 752 
Q 3116 1113 3116 1747 
z
M 1159 2969 
Q 1341 3281 1617 3432 
Q 1894 3584 2278 3584 
Q 2916 3584 3314 3078 
Q 3713 2572 3713 1747 
Q 3713 922 3314 415 
Q 2916 -91 2278 -91 
Q 1894 -91 1617 61 
Q 1341 213 1159 525 
L 1159 0 
L 581 0 
L 581 4863 
L 1159 4863 
L 1159 2969 
z
" transform="scale(0.015625)"/>
        <path id="DejaVuSans-63" d="M 3122 3366 
L 3122 2828 
Q 2878 2963 2633 3030 
Q 2388 3097 2138 3097 
Q 1578 3097 1268 2742 
Q 959 2388 959 1747 
Q 959 1106 1268 751 
Q 1578 397 2138 397 
Q 2388 397 2633 464 
Q 2878 531 3122 666 
L 3122 134 
Q 2881 22 2623 -34 
Q 2366 -91 2075 -91 
Q 1284 -91 818 406 
Q 353 903 353 1747 
Q 353 2603 823 3093 
Q 1294 3584 2113 3584 
Q 2378 3584 2631 3529 
Q 2884 3475 3122 3366 
z
" transform="scale(0.015625)"/>
       </defs>
       <use xlink:href="#DejaVuSans-43"/>
       <use xlink:href="#DejaVuSans-79" transform="translate(69.824219 0)"/>
       <use xlink:href="#DejaVuSans-62" transform="translate(129.003906 0)"/>
       <use xlink:href="#DejaVuSans-65" transform="translate(192.480469 0)"/>
       <use xlink:href="#DejaVuSans-72" transform="translate(254.003906 0)"/>
       <use xlink:href="#DejaVuSans-63" transform="translate(292.867188 0)"/>
       <use xlink:href="#DejaVuSans-72" transform="translate(347.847656 0)"/>
       <use xlink:href="#DejaVuSans-69" transform="translate(388.960938 0)"/>
       <use xlink:href="#DejaVuSans-6d" transform="translate(416.744141 0)"/>
       <use xlink:href="#DejaVuSans-65" transform="translate(514.15625 0)"/>
      </g>
     </g>
    </g>
    <g id="xtick_4">
     <g id="line2d_4">
      <path d="M 614.571 467.357812 
L 614.571 23.837812 
" clip-path="url(#p8474fc2730)" style="fill: none; stroke: #cccccc; stroke-linecap: round"/>
     </g>
     <g id="text_4">
      <!-- Harassment -->
      <g style="fill: #262626" transform="translate(584.342094 484.45625) scale(0.1 -0.1)">
       <defs>
        <path id="DejaVuSans-48" d="M 628 4666 
L 1259 4666 
L 1259 2753 
L 3553 2753 
L 3553 4666 
L 4184 4666 
L 4184 0 
L 3553 0 
L 3553 2222 
L 1259 2222 
L 1259 0 
L 628 0 
L 628 4666 
z
" transform="scale(0.015625)"/>
        <path id="DejaVuSans-61" d="M 2194 1759 
Q 1497 1759 1228 1600 
Q 959 1441 959 1056 
Q 959 750 1161 570 
Q 1363 391 1709 391 
Q 2188 391 2477 730 
Q 2766 1069 2766 1631 
L 2766 1759 
L 2194 1759 
z
M 3341 1997 
L 3341 0 
L 2766 0 
L 2766 531 
Q 2569 213 2275 61 
Q 1981 -91 1556 -91 
Q 1019 -91 701 211 
Q 384 513 384 1019 
Q 384 1609 779 1909 
Q 1175 2209 1959 2209 
L 2766 2209 
L 2766 2266 
Q 2766 2663 2505 2880 
Q 2244 3097 1772 3097 
Q 1472 3097 1187 3025 
Q 903 2953 641 2809 
L 641 3341 
Q 956 3463 1253 3523 
Q 1550 3584 1831 3584 
Q 2591 3584 2966 3190 
Q 3341 2797 3341 1997 
z
" transform="scale(0.015625)"/>
        <path id="DejaVuSans-73" d="M 2834 3397 
L 2834 2853 
Q 2591 2978 2328 3040 
Q 2066 3103 1784 3103 
Q 1356 3103 1142 2972 
Q 928 2841 928 2578 
Q 928 2378 1081 2264 
Q 1234 2150 1697 2047 
L 1894 2003 
Q 2506 1872 2764 1633 
Q 3022 1394 3022 966 
Q 3022 478 2636 193 
Q 2250 -91 1575 -91 
Q 1294 -91 989 -36 
Q 684 19 347 128 
L 347 722 
Q 666 556 975 473 
Q 1284 391 1588 391 
Q 1994 391 2212 530 
Q 2431 669 2431 922 
Q 2431 1156 2273 1281 
Q 2116 1406 1581 1522 
L 1381 1569 
Q 847 1681 609 1914 
Q 372 2147 372 2553 
Q 372 3047 722 3315 
Q 1072 3584 1716 3584 
Q 2034 3584 2315 3537 
Q 2597 3491 2834 3397 
z
" transform="scale(0.015625)"/>
        <path id="DejaVuSans-6e" d="M 3513 2113 
L 3513 0 
L 2938 0 
L 2938 2094 
Q 2938 2591 2744 2837 
Q 2550 3084 2163 3084 
Q 1697 3084 1428 2787 
Q 1159 2491 1159 1978 
L 1159 0 
L 581 0 
L 581 3500 
L 1159 3500 
L 1159 2956 
Q 1366 3272 1645 3428 
Q 1925 3584 2291 3584 
Q 2894 3584 3203 3211 
Q 3513 2838 3513 2113 
z
" transform="scale(0.015625)"/>
       </defs>
       <use xlink:href="#DejaVuSans-48"/>
       <use xlink:href="#DejaVuSans-61" transform="translate(75.195312 0)"/>
       <use xlink:href="#DejaVuSans-72" transform="translate(136.474609 0)"/>
       <use xlink:href="#DejaVuSans-61" transform="translate(177.587891 0)"/>
       <use xlink:href="#DejaVuSans-73" transform="translate(238.867188 0)"/>
       <use xlink:href="#DejaVuSans-73" transform="translate(290.966797 0)"/>
       <use xlink:href="#DejaVuSans-6d" transform="translate(343.066406 0)"/>
       <use xlink:href="#DejaVuSans-65" transform="translate(440.478516 0)"/>
       <use xlink:href="#DejaVuSans-6e" transform="translate(502.001953 0)"/>
       <use xlink:href="#DejaVuSans-74" transform="translate(565.380859 0)"/>
      </g>
     </g>
    </g>
    <g id="xtick_5">
     <g id="line2d_5">
      <path d="M 761.606573 467.357812 
L 761.606573 23.837812 
" clip-path="url(#p8474fc2730)" style="fill: none; stroke: #cccccc; stroke-linecap: round"/>
     </g>
     <g id="text_5">
      <!-- Harmful -->
      <g style="fill: #262626" transform="translate(741.626104 484.45625) scale(0.1 -0.1)">
       <defs>
        <path id="DejaVuSans-66" d="M 2375 4863 
L 2375 4384 
L 1825 4384 
Q 1516 4384 1395 4259 
Q 1275 4134 1275 3809 
L 1275 3500 
L 2222 3500 
L 2222 3053 
L 1275 3053 
L 1275 0 
L 697 0 
L 697 3053 
L 147 3053 
L 147 3500 
L 697 3500 
L 697 3744 
Q 697 4328 969 4595 
Q 1241 4863 1831 4863 
L 2375 4863 
z
" transform="scale(0.015625)"/>
        <path id="DejaVuSans-75" d="M 544 1381 
L 544 3500 
L 1119 3500 
L 1119 1403 
Q 1119 906 1312 657 
Q 1506 409 1894 409 
Q 2359 409 2629 706 
Q 2900 1003 2900 1516 
L 2900 3500 
L 3475 3500 
L 3475 0 
L 2900 0 
L 2900 538 
Q 2691 219 2414 64 
Q 2138 -91 1772 -91 
Q 1169 -91 856 284 
Q 544 659 544 1381 
z
M 1991 3584 
L 1991 3584 
z
" transform="scale(0.015625)"/>
        <path id="DejaVuSans-6c" d="M 603 4863 
L 1178 4863 
L 1178 0 
L 603 0 
L 603 4863 
z
" transform="scale(0.015625)"/>
       </defs>
       <use xlink:href="#DejaVuSans-48"/>
       <use xlink:href="#DejaVuSans-61" transform="translate(75.195312 0)"/>
       <use xlink:href="#DejaVuSans-72" transform="translate(136.474609 0)"/>
       <use xlink:href="#DejaVuSans-6d" transform="translate(175.837891 0)"/>
       <use xlink:href="#DejaVuSans-66" transform="translate(273.25 0)"/>
       <use xlink:href="#DejaVuSans-75" transform="translate(308.455078 0)"/>
       <use xlink:href="#DejaVuSans-6c" transform="translate(371.833984 0)"/>
      </g>
     </g>
    </g>
    <g id="xtick_6">
     <g id="line2d_6">
      <path d="M 908.642146 467.357812 
L 908.642146 23.837812 
" clip-path="url(#p8474fc2730)" style="fill: none; stroke: #cccccc; stroke-linecap: round"/>
     </g>
     <g id="text_6">
      <!-- Illegal -->
      <g style="fill: #262626" transform="translate(893.685115 484.45625) scale(0.1 -0.1)">
       <defs>
        <path id="DejaVuSans-49" d="M 628 4666 
L 1259 4666 
L 1259 0 
L 628 0 
L 628 4666 
z
" transform="scale(0.015625)"/>
       </defs>
       <use xlink:href="#DejaVuSans-49"/>
       <use xlink:href="#DejaVuSans-6c" transform="translate(29.492188 0)"/>
       <use xlink:href="#DejaVuSans-6c" transform="translate(57.275391 0)"/>
       <use xlink:href="#DejaVuSans-65" transform="translate(85.058594 0)"/>
       <use xlink:href="#DejaVuSans-67" transform="translate(146.582031 0)"/>
       <use xlink:href="#DejaVuSans-61" transform="translate(210.058594 0)"/>
       <use xlink:href="#DejaVuSans-6c" transform="translate(271.337891 0)"/>
      </g>
     </g>
    </g>
    <g id="xtick_7">
     <g id="line2d_7">
      <path d="M 1055.677719 467.357812 
L 1055.677719 23.837812 
" clip-path="url(#p8474fc2730)" style="fill: none; stroke: #cccccc; stroke-linecap: round"/>
     </g>
     <g id="text_7">
      <!-- Misinfo -->
      <g style="fill: #262626" transform="translate(1037.992563 484.45625) scale(0.1 -0.1)">
       <defs>
        <path id="DejaVuSans-4d" d="M 628 4666 
L 1569 4666 
L 2759 1491 
L 3956 4666 
L 4897 4666 
L 4897 0 
L 4281 0 
L 4281 4097 
L 3078 897 
L 2444 897 
L 1241 4097 
L 1241 0 
L 628 0 
L 628 4666 
z
" transform="scale(0.015625)"/>
       </defs>
       <use xlink:href="#DejaVuSans-4d"/>
       <use xlink:href="#DejaVuSans-69" transform="translate(86.279297 0)"/>
       <use xlink:href="#DejaVuSans-73" transform="translate(114.0625 0)"/>
       <use xlink:href="#DejaVuSans-69" transform="translate(166.162109 0)"/>
       <use xlink:href="#DejaVuSans-6e" transform="translate(193.945312 0)"/>
       <use xlink:href="#DejaVuSans-66" transform="translate(257.324219 0)"/>
       <use xlink:href="#DejaVuSans-6f" transform="translate(292.529297 0)"/>
      </g>
     </g>
    </g>
   </g>
   <g id="matplotlib.axis_2">
    <g id="ytick_1">
     <g id="line2d_8">
      <path d="M 56.571 467.357812 
L 1172.571 467.357812 
" clip-path="url(#p8474fc2730)" style="fill: none; stroke: #cccccc; stroke-linecap: round"/>
     </g>
     <g id="text_8">
      <!-- 0 -->
      <g style="fill: #262626" transform="translate(39.372375 471.954867) scale(0.121 -0.121)">
       <defs>
        <path id="DejaVuSans-30" d="M 2034 4250 
Q 1547 4250 1301 3770 
Q 1056 3291 1056 2328 
Q 1056 1369 1301 889 
Q 1547 409 2034 409 
Q 2525 409 2770 889 
Q 3016 1369 3016 2328 
Q 3016 3291 2770 3770 
Q 2525 4250 2034 4250 
z
M 2034 4750 
Q 2819 4750 3233 4129 
Q 3647 3509 3647 2328 
Q 3647 1150 3233 529 
Q 2819 -91 2034 -91 
Q 1250 -91 836 529 
Q 422 1150 422 2328 
Q 422 3509 836 4129 
Q 1250 4750 2034 4750 
z
" transform="scale(0.015625)"/>
       </defs>
       <use xlink:href="#DejaVuSans-30"/>
      </g>
     </g>
    </g>
    <g id="ytick_2">
     <g id="line2d_9">
      <path d="M 56.571 390.223899 
L 1172.571 390.223899 
" clip-path="url(#p8474fc2730)" style="fill: none; stroke: #cccccc; stroke-linecap: round"/>
     </g>
     <g id="text_9">
      <!-- 20 -->
      <g style="fill: #262626" transform="translate(31.67375 394.820954) scale(0.121 -0.121)">
       <defs>
        <path id="DejaVuSans-32" d="M 1228 531 
L 3431 531 
L 3431 0 
L 469 0 
L 469 531 
Q 828 903 1448 1529 
Q 2069 2156 2228 2338 
Q 2531 2678 2651 2914 
Q 2772 3150 2772 3378 
Q 2772 3750 2511 3984 
Q 2250 4219 1831 4219 
Q 1534 4219 1204 4116 
Q 875 4013 500 3803 
L 500 4441 
Q 881 4594 1212 4672 
Q 1544 4750 1819 4750 
Q 2544 4750 2975 4387 
Q 3406 4025 3406 3419 
Q 3406 3131 3298 2873 
Q 3191 2616 2906 2266 
Q 2828 2175 2409 1742 
Q 1991 1309 1228 531 
z
" transform="scale(0.015625)"/>
       </defs>
       <use xlink:href="#DejaVuSans-32"/>
       <use xlink:href="#DejaVuSans-30" transform="translate(63.623047 0)"/>
      </g>
     </g>
    </g>
    <g id="ytick_3">
     <g id="line2d_10">
      <path d="M 56.571 313.089986 
L 1172.571 313.089986 
" clip-path="url(#p8474fc2730)" style="fill: none; stroke: #cccccc; stroke-linecap: round"/>
     </g>
     <g id="text_10">
      <!-- 40 -->
      <g style="fill: #262626" transform="translate(31.67375 317.687041) scale(0.121 -0.121)">
       <defs>
        <path id="DejaVuSans-34" d="M 2419 4116 
L 825 1625 
L 2419 1625 
L 2419 4116 
z
M 2253 4666 
L 3047 4666 
L 3047 1625 
L 3713 1625 
L 3713 1100 
L 3047 1100 
L 3047 0 
L 2419 0 
L 2419 1100 
L 313 1100 
L 313 1709 
L 2253 4666 
z
" transform="scale(0.015625)"/>
       </defs>
       <use xlink:href="#DejaVuSans-34"/>
       <use xlink:href="#DejaVuSans-30" transform="translate(63.623047 0)"/>
      </g>
     </g>
    </g>
    <g id="ytick_4">
     <g id="line2d_11">
      <path d="M 56.571 235.956073 
L 1172.571 235.956073 
" clip-path="url(#p8474fc2730)" style="fill: none; stroke: #cccccc; stroke-linecap: round"/>
     </g>
     <g id="text_11">
      <!-- 60 -->
      <g style="fill: #262626" transform="translate(31.67375 240.553128) scale(0.121 -0.121)">
       <defs>
        <path id="DejaVuSans-36" d="M 2113 2584 
Q 1688 2584 1439 2293 
Q 1191 2003 1191 1497 
Q 1191 994 1439 701 
Q 1688 409 2113 409 
Q 2538 409 2786 701 
Q 3034 994 3034 1497 
Q 3034 2003 2786 2293 
Q 2538 2584 2113 2584 
z
M 3366 4563 
L 3366 3988 
Q 3128 4100 2886 4159 
Q 2644 4219 2406 4219 
Q 1781 4219 1451 3797 
Q 1122 3375 1075 2522 
Q 1259 2794 1537 2939 
Q 1816 3084 2150 3084 
Q 2853 3084 3261 2657 
Q 3669 2231 3669 1497 
Q 3669 778 3244 343 
Q 2819 -91 2113 -91 
Q 1303 -91 875 529 
Q 447 1150 447 2328 
Q 447 3434 972 4092 
Q 1497 4750 2381 4750 
Q 2619 4750 2861 4703 
Q 3103 4656 3366 4563 
z
" transform="scale(0.015625)"/>
       </defs>
       <use xlink:href="#DejaVuSans-36"/>
       <use xlink:href="#DejaVuSans-30" transform="translate(63.623047 0)"/>
      </g>
     </g>
    </g>
    <g id="ytick_5">
     <g id="line2d_12">
      <path d="M 56.571 158.82216 
L 1172.571 158.82216 
" clip-path="url(#p8474fc2730)" style="fill: none; stroke: #cccccc; stroke-linecap: round"/>
     </g>
     <g id="text_12">
      <!-- 80 -->
      <g style="fill: #262626" transform="translate(31.67375 163.419215) scale(0.121 -0.121)">
       <defs>
        <path id="DejaVuSans-38" d="M 2034 2216 
Q 1584 2216 1326 1975 
Q 1069 1734 1069 1313 
Q 1069 891 1326 650 
Q 1584 409 2034 409 
Q 2484 409 2743 651 
Q 3003 894 3003 1313 
Q 3003 1734 2745 1975 
Q 2488 2216 2034 2216 
z
M 1403 2484 
Q 997 2584 770 2862 
Q 544 3141 544 3541 
Q 544 4100 942 4425 
Q 1341 4750 2034 4750 
Q 2731 4750 3128 4425 
Q 3525 4100 3525 3541 
Q 3525 3141 3298 2862 
Q 3072 2584 2669 2484 
Q 3125 2378 3379 2068 
Q 3634 1759 3634 1313 
Q 3634 634 3220 271 
Q 2806 -91 2034 -91 
Q 1263 -91 848 271 
Q 434 634 434 1313 
Q 434 1759 690 2068 
Q 947 2378 1403 2484 
z
M 1172 3481 
Q 1172 3119 1398 2916 
Q 1625 2713 2034 2713 
Q 2441 2713 2670 2916 
Q 2900 3119 2900 3481 
Q 2900 3844 2670 4047 
Q 2441 4250 2034 4250 
Q 1625 4250 1398 4047 
Q 1172 3844 1172 3481 
z
" transform="scale(0.015625)"/>
       </defs>
       <use xlink:href="#DejaVuSans-38"/>
       <use xlink:href="#DejaVuSans-30" transform="translate(63.623047 0)"/>
      </g>
     </g>
    </g>
    <g id="ytick_6">
     <g id="line2d_13">
      <path d="M 56.571 81.688247 
L 1172.571 81.688247 
" clip-path="url(#p8474fc2730)" style="fill: none; stroke: #cccccc; stroke-linecap: round"/>
     </g>
     <g id="text_13">
      <!-- 100 -->
      <g style="fill: #262626" transform="translate(23.975125 86.285302) scale(0.121 -0.121)">
       <defs>
        <path id="DejaVuSans-31" d="M 794 531 
L 1825 531 
L 1825 4091 
L 703 3866 
L 703 4441 
L 1819 4666 
L 2450 4666 
L 2450 531 
L 3481 531 
L 3481 0 
L 794 0 
L 794 531 
z
" transform="scale(0.015625)"/>
       </defs>
       <use xlink:href="#DejaVuSans-31"/>
       <use xlink:href="#DejaVuSans-30" transform="translate(63.623047 0)"/>
       <use xlink:href="#DejaVuSans-30" transform="translate(127.246094 0)"/>
      </g>
     </g>
    </g>
    <g id="text_14">
     <!-- Attack Success Rate (%) -->
     <g style="fill: #262626" transform="translate(17.229938 326.079656) rotate(-90) scale(0.132 -0.132)">
      <defs>
       <path id="DejaVuSans-41" d="M 2188 4044 
L 1331 1722 
L 3047 1722 
L 2188 4044 
z
M 1831 4666 
L 2547 4666 
L 4325 0 
L 3669 0 
L 3244 1197 
L 1141 1197 
L 716 0 
L 50 0 
L 1831 4666 
z
" transform="scale(0.015625)"/>
       <path id="DejaVuSans-6b" d="M 581 4863 
L 1159 4863 
L 1159 1991 
L 2875 3500 
L 3609 3500 
L 1753 1863 
L 3688 0 
L 2938 0 
L 1159 1709 
L 1159 0 
L 581 0 
L 581 4863 
z
" transform="scale(0.015625)"/>
       <path id="DejaVuSans-20" transform="scale(0.015625)"/>
       <path id="DejaVuSans-53" d="M 3425 4513 
L 3425 3897 
Q 3066 4069 2747 4153 
Q 2428 4238 2131 4238 
Q 1616 4238 1336 4038 
Q 1056 3838 1056 3469 
Q 1056 3159 1242 3001 
Q 1428 2844 1947 2747 
L 2328 2669 
Q 3034 2534 3370 2195 
Q 3706 1856 3706 1288 
Q 3706 609 3251 259 
Q 2797 -91 1919 -91 
Q 1588 -91 1214 -16 
Q 841 59 441 206 
L 441 856 
Q 825 641 1194 531 
Q 1563 422 1919 422 
Q 2459 422 2753 634 
Q 3047 847 3047 1241 
Q 3047 1584 2836 1778 
Q 2625 1972 2144 2069 
L 1759 2144 
Q 1053 2284 737 2584 
Q 422 2884 422 3419 
Q 422 4038 858 4394 
Q 1294 4750 2059 4750 
Q 2388 4750 2728 4690 
Q 3069 4631 3425 4513 
z
" transform="scale(0.015625)"/>
       <path id="DejaVuSans-52" d="M 2841 2188 
Q 3044 2119 3236 1894 
Q 3428 1669 3622 1275 
L 4263 0 
L 3584 0 
L 2988 1197 
Q 2756 1666 2539 1819 
Q 2322 1972 1947 1972 
L 1259 1972 
L 1259 0 
L 628 0 
L 628 4666 
L 2053 4666 
Q 2853 4666 3247 4331 
Q 3641 3997 3641 3322 
Q 3641 2881 3436 2590 
Q 3231 2300 2841 2188 
z
M 1259 4147 
L 1259 2491 
L 2053 2491 
Q 2509 2491 2742 2702 
Q 2975 2913 2975 3322 
Q 2975 3731 2742 3939 
Q 2509 4147 2053 4147 
L 1259 4147 
z
" transform="scale(0.015625)"/>
       <path id="DejaVuSans-28" d="M 1984 4856 
Q 1566 4138 1362 3434 
Q 1159 2731 1159 2009 
Q 1159 1288 1364 580 
Q 1569 -128 1984 -844 
L 1484 -844 
Q 1016 -109 783 600 
Q 550 1309 550 2009 
Q 550 2706 781 3412 
Q 1013 4119 1484 4856 
L 1984 4856 
z
" transform="scale(0.015625)"/>
       <path id="DejaVuSans-25" d="M 4653 2053 
Q 4381 2053 4226 1822 
Q 4072 1591 4072 1178 
Q 4072 772 4226 539 
Q 4381 306 4653 306 
Q 4919 306 5073 539 
Q 5228 772 5228 1178 
Q 5228 1588 5073 1820 
Q 4919 2053 4653 2053 
z
M 4653 2450 
Q 5147 2450 5437 2106 
Q 5728 1763 5728 1178 
Q 5728 594 5436 251 
Q 5144 -91 4653 -91 
Q 4153 -91 3862 251 
Q 3572 594 3572 1178 
Q 3572 1766 3864 2108 
Q 4156 2450 4653 2450 
z
M 1428 4353 
Q 1159 4353 1004 4120 
Q 850 3888 850 3481 
Q 850 3069 1003 2837 
Q 1156 2606 1428 2606 
Q 1700 2606 1854 2837 
Q 2009 3069 2009 3481 
Q 2009 3884 1853 4118 
Q 1697 4353 1428 4353 
z
M 4250 4750 
L 4750 4750 
L 1831 -91 
L 1331 -91 
L 4250 4750 
z
M 1428 4750 
Q 1922 4750 2215 4408 
Q 2509 4066 2509 3481 
Q 2509 2891 2217 2550 
Q 1925 2209 1428 2209 
Q 931 2209 642 2551 
Q 353 2894 353 3481 
Q 353 4063 643 4406 
Q 934 4750 1428 4750 
z
" transform="scale(0.015625)"/>
       <path id="DejaVuSans-29" d="M 513 4856 
L 1013 4856 
Q 1481 4119 1714 3412 
Q 1947 2706 1947 2009 
Q 1947 1309 1714 600 
Q 1481 -109 1013 -844 
L 513 -844 
Q 928 -128 1133 580 
Q 1338 1288 1338 2009 
Q 1338 2731 1133 3434 
Q 928 4138 513 4856 
z
" transform="scale(0.015625)"/>
      </defs>
      <use xlink:href="#DejaVuSans-41"/>
      <use xlink:href="#DejaVuSans-74" transform="translate(66.658203 0)"/>
      <use xlink:href="#DejaVuSans-74" transform="translate(105.867188 0)"/>
      <use xlink:href="#DejaVuSans-61" transform="translate(145.076172 0)"/>
      <use xlink:href="#DejaVuSans-63" transform="translate(206.355469 0)"/>
      <use xlink:href="#DejaVuSans-6b" transform="translate(261.335938 0)"/>
      <use xlink:href="#DejaVuSans-20" transform="translate(319.246094 0)"/>
      <use xlink:href="#DejaVuSans-53" transform="translate(351.033203 0)"/>
      <use xlink:href="#DejaVuSans-75" transform="translate(414.509766 0)"/>
      <use xlink:href="#DejaVuSans-63" transform="translate(477.888672 0)"/>
      <use xlink:href="#DejaVuSans-63" transform="translate(532.869141 0)"/>
      <use xlink:href="#DejaVuSans-65" transform="translate(587.849609 0)"/>
      <use xlink:href="#DejaVuSans-73" transform="translate(649.373047 0)"/>
      <use xlink:href="#DejaVuSans-73" transform="translate(701.472656 0)"/>
      <use xlink:href="#DejaVuSans-20" transform="translate(753.572266 0)"/>
      <use xlink:href="#DejaVuSans-52" transform="translate(785.359375 0)"/>
      <use xlink:href="#DejaVuSans-61" transform="translate(852.591797 0)"/>
      <use xlink:href="#DejaVuSans-74" transform="translate(913.871094 0)"/>
      <use xlink:href="#DejaVuSans-65" transform="translate(953.080078 0)"/>
      <use xlink:href="#DejaVuSans-20" transform="translate(1014.603516 0)"/>
      <use xlink:href="#DejaVuSans-28" transform="translate(1046.390625 0)"/>
      <use xlink:href="#DejaVuSans-25" transform="translate(1085.404297 0)"/>
      <use xlink:href="#DejaVuSans-29" transform="translate(1180.423828 0)"/>
     </g>
    </g>
   </g>
   <g id="patch_3">
    <path d="M 107.298273 467.357812 
L 116.75056 467.357812 
L 116.75056 460.470856 
L 107.298273 460.470856 
z
" clip-path="url(#p8474fc2730)" style="fill: #95a5a6; opacity: 0.85; stroke: #ffffff; stroke-linejoin: miter"/>
   </g>
   <g id="patch_4">
    <path d="M 254.333846 467.357812 
L 263.786133 467.357812 
L 263.786133 116.398508 
L 254.333846 116.398508 
z
" clip-path="url(#p8474fc2730)" style="fill: #95a5a6; opacity: 0.85; stroke: #ffffff; stroke-linejoin: miter"/>
   </g>
   <g id="patch_5">
    <path d="M 401.369419 467.357812 
L 410.821706 467.357812 
L 410.821706 432.820239 
L 401.369419 432.820239 
z
" clip-path="url(#p8474fc2730)" style="fill: #95a5a6; opacity: 0.85; stroke: #ffffff; stroke-linejoin: miter"/>
   </g>
   <g id="patch_6">
    <path d="M 548.404992 467.357812 
L 557.857279 467.357812 
L 557.857279 467.357812 
L 548.404992 467.357812 
z
" clip-path="url(#p8474fc2730)" style="fill: #95a5a6; opacity: 0.85; stroke: #ffffff; stroke-linejoin: miter"/>
   </g>
   <g id="patch_7">
    <path d="M 695.440565 467.357812 
L 704.892852 467.357812 
L 704.892852 414.766508 
L 695.440565 414.766508 
z
" clip-path="url(#p8474fc2730)" style="fill: #95a5a6; opacity: 0.85; stroke: #ffffff; stroke-linejoin: miter"/>
   </g>
   <g id="patch_8">
    <path d="M 842.476138 467.357812 
L 851.928425 467.357812 
L 851.928425 425.824167 
L 842.476138 425.824167 
z
" clip-path="url(#p8474fc2730)" style="fill: #95a5a6; opacity: 0.85; stroke: #ffffff; stroke-linejoin: miter"/>
   </g>
   <g id="patch_9">
    <path d="M 989.511711 467.357812 
L 998.963998 467.357812 
L 998.963998 402.090655 
L 989.511711 402.090655 
z
" clip-path="url(#p8474fc2730)" style="fill: #95a5a6; opacity: 0.85; stroke: #ffffff; stroke-linejoin: miter"/>
   </g>
   <g id="patch_10">
    <path d="M 116.75056 467.357812 
L 126.202846 467.357812 
L 126.202846 102.349117 
L 116.75056 102.349117 
z
" clip-path="url(#p8474fc2730)" style="fill: #27ae60; opacity: 0.85; stroke: #ffffff; stroke-linejoin: miter"/>
   </g>
   <g id="patch_11">
    <path d="M 263.786133 467.357812 
L 273.23842 467.357812 
L 273.23842 108.685117 
L 263.786133 108.685117 
z
" clip-path="url(#p8474fc2730)" style="fill: #27ae60; opacity: 0.85; stroke: #ffffff; stroke-linejoin: miter"/>
   </g>
   <g id="patch_12">
    <path d="M 410.821706 467.357812 
L 420.273993 467.357812 
L 420.273993 98.957034 
L 410.821706 98.957034 
z
" clip-path="url(#p8474fc2730)" style="fill: #27ae60; opacity: 0.85; stroke: #ffffff; stroke-linejoin: miter"/>
   </g>
   <g id="patch_13">
    <path d="M 557.857279 467.357812 
L 567.309566 467.357812 
L 567.309566 97.11503 
L 557.857279 97.11503 
z
" clip-path="url(#p8474fc2730)" style="fill: #27ae60; opacity: 0.85; stroke: #ffffff; stroke-linejoin: miter"/>
   </g>
   <g id="patch_14">
    <path d="M 704.892852 467.357812 
L 714.345139 467.357812 
L 714.345139 81.688247 
L 704.892852 81.688247 
z
" clip-path="url(#p8474fc2730)" style="fill: #27ae60; opacity: 0.85; stroke: #ffffff; stroke-linejoin: miter"/>
   </g>
   <g id="patch_15">
    <path d="M 851.928425 467.357812 
L 861.380712 467.357812 
L 861.380712 99.488381 
L 851.928425 99.488381 
z
" clip-path="url(#p8474fc2730)" style="fill: #27ae60; opacity: 0.85; stroke: #ffffff; stroke-linejoin: miter"/>
   </g>
   <g id="patch_16">
    <path d="M 998.963998 467.357812 
L 1008.416285 467.357812 
L 1008.416285 81.688247 
L 998.963998 81.688247 
z
" clip-path="url(#p8474fc2730)" style="fill: #27ae60; opacity: 0.85; stroke: #ffffff; stroke-linejoin: miter"/>
   </g>
   <g id="patch_17">
    <path d="M 126.202846 467.357812 
L 135.655133 467.357812 
L 135.655133 191.879552 
L 126.202846 191.879552 
z
" clip-path="url(#p8474fc2730)" style="fill: #9b59b6; opacity: 0.85; stroke: #ffffff; stroke-linejoin: miter"/>
   </g>
   <g id="patch_18">
    <path d="M 273.23842 467.357812 
L 282.690706 467.357812 
L 282.690706 93.258334 
L 273.23842 93.258334 
z
" clip-path="url(#p8474fc2730)" style="fill: #9b59b6; opacity: 0.85; stroke: #ffffff; stroke-linejoin: miter"/>
   </g>
   <g id="patch_19">
    <path d="M 420.273993 467.357812 
L 429.72628 467.357812 
L 429.72628 139.250869 
L 420.273993 139.250869 
z
" clip-path="url(#p8474fc2730)" style="fill: #9b59b6; opacity: 0.85; stroke: #ffffff; stroke-linejoin: miter"/>
   </g>
   <g id="patch_20">
    <path d="M 567.309566 467.357812 
L 576.761853 467.357812 
L 576.761853 235.956073 
L 567.309566 235.956073 
z
" clip-path="url(#p8474fc2730)" style="fill: #9b59b6; opacity: 0.85; stroke: #ffffff; stroke-linejoin: miter"/>
   </g>
   <g id="patch_21">
    <path d="M 714.345139 467.357812 
L 723.797426 467.357812 
L 723.797426 134.279552 
L 714.345139 134.279552 
z
" clip-path="url(#p8474fc2730)" style="fill: #9b59b6; opacity: 0.85; stroke: #ffffff; stroke-linejoin: miter"/>
   </g>
   <g id="patch_22">
    <path d="M 861.380712 467.357812 
L 870.832999 467.357812 
L 870.832999 241.889451 
L 861.380712 241.889451 
z
" clip-path="url(#p8474fc2730)" style="fill: #9b59b6; opacity: 0.85; stroke: #ffffff; stroke-linejoin: miter"/>
   </g>
   <g id="patch_23">
    <path d="M 1008.416285 467.357812 
L 1017.868572 467.357812 
L 1017.868572 105.421759 
L 1008.416285 105.421759 
z
" clip-path="url(#p8474fc2730)" style="fill: #9b59b6; opacity: 0.85; stroke: #ffffff; stroke-linejoin: miter"/>
   </g>
   <g id="patch_24">
    <path d="M 135.655133 467.357812 
L 145.10742 467.357812 
L 145.10742 88.575204 
L 135.655133 88.575204 
z
" clip-path="url(#p8474fc2730)" style="fill: #c0392b; opacity: 0.85; stroke: #ffffff; stroke-linejoin: miter"/>
   </g>
   <g id="patch_25">
    <path d="M 282.690706 467.357812 
L 292.142993 467.357812 
L 292.142993 97.11503 
L 282.690706 97.11503 
z
" clip-path="url(#p8474fc2730)" style="fill: #c0392b; opacity: 0.85; stroke: #ffffff; stroke-linejoin: miter"/>
   </g>
   <g id="patch_26">
    <path d="M 429.72628 467.357812 
L 439.178566 467.357812 
L 439.178566 81.688247 
L 429.72628 81.688247 
z
" clip-path="url(#p8474fc2730)" style="fill: #c0392b; opacity: 0.85; stroke: #ffffff; stroke-linejoin: miter"/>
   </g>
   <g id="patch_27">
    <path d="M 576.761853 467.357812 
L 586.214139 467.357812 
L 586.214139 81.688247 
L 576.761853 81.688247 
z
" clip-path="url(#p8474fc2730)" style="fill: #c0392b; opacity: 0.85; stroke: #ffffff; stroke-linejoin: miter"/>
   </g>
   <g id="patch_28">
    <path d="M 723.797426 467.357812 
L 733.249713 467.357812 
L 733.249713 81.688247 
L 723.797426 81.688247 
z
" clip-path="url(#p8474fc2730)" style="fill: #c0392b; opacity: 0.85; stroke: #ffffff; stroke-linejoin: miter"/>
   </g>
   <g id="patch_29">
    <path d="M 870.832999 467.357812 
L 880.285286 467.357812 
L 880.285286 111.355137 
L 870.832999 111.355137 
z
" clip-path="url(#p8474fc2730)" style="fill: #c0392b; opacity: 0.85; stroke: #ffffff; stroke-linejoin: miter"/>
   </g>
   <g id="patch_30">
    <path d="M 1017.868572 467.357812 
L 1027.320859 467.357812 
L 1027.320859 93.555003 
L 1017.868572 93.555003 
z
" clip-path="url(#p8474fc2730)" style="fill: #c0392b; opacity: 0.85; stroke: #ffffff; stroke-linejoin: miter"/>
   </g>
   <g id="patch_31">
    <path d="M 145.10742 467.357812 
L 154.559707 467.357812 
L 154.559707 157.444769 
L 145.10742 157.444769 
z
" clip-path="url(#p8474fc2730)" style="fill: #8e44ad; opacity: 0.85; stroke: #ffffff; stroke-linejoin: miter"/>
   </g>
   <g id="patch_32">
    <path d="M 292.142993 467.357812 
L 301.59528 467.357812 
L 301.59528 97.11503 
L 292.142993 97.11503 
z
" clip-path="url(#p8474fc2730)" style="fill: #8e44ad; opacity: 0.85; stroke: #ffffff; stroke-linejoin: miter"/>
   </g>
   <g id="patch_33">
    <path d="M 439.178566 467.357812 
L 448.630853 467.357812 
L 448.630853 121.982082 
L 439.178566 121.982082 
z
" clip-path="url(#p8474fc2730)" style="fill: #8e44ad; opacity: 0.85; stroke: #ffffff; stroke-linejoin: miter"/>
   </g>
   <g id="patch_34">
    <path d="M 586.214139 467.357812 
L 595.666426 467.357812 
L 595.666426 158.82216 
L 586.214139 158.82216 
z
" clip-path="url(#p8474fc2730)" style="fill: #8e44ad; opacity: 0.85; stroke: #ffffff; stroke-linejoin: miter"/>
   </g>
   <g id="patch_35">
    <path d="M 733.249713 467.357812 
L 742.701999 467.357812 
L 742.701999 81.688247 
L 733.249713 81.688247 
z
" clip-path="url(#p8474fc2730)" style="fill: #8e44ad; opacity: 0.85; stroke: #ffffff; stroke-linejoin: miter"/>
   </g>
   <g id="patch_36">
    <path d="M 880.285286 467.357812 
L 889.737573 467.357812 
L 889.737573 200.355806 
L 880.285286 200.355806 
z
" clip-path="url(#p8474fc2730)" style="fill: #8e44ad; opacity: 0.85; stroke: #ffffff; stroke-linejoin: miter"/>
   </g>
   <g id="patch_37">
    <path d="M 1027.320859 467.357812 
L 1036.773146 467.357812 
L 1036.773146 111.355137 
L 1027.320859 111.355137 
z
" clip-path="url(#p8474fc2730)" style="fill: #8e44ad; opacity: 0.85; stroke: #ffffff; stroke-linejoin: miter"/>
   </g>
   <g id="patch_38">
    <path d="M 154.559707 467.357812 
L 164.011994 467.357812 
L 164.011994 88.575204 
L 154.559707 88.575204 
z
" clip-path="url(#p8474fc2730)" style="fill: #e67e22; opacity: 0.85; stroke: #ffffff; stroke-linejoin: miter"/>
   </g>
   <g id="patch_39">
    <path d="M 301.59528 467.357812 
L 311.047567 467.357812 
L 311.047567 97.11503 
L 301.59528 97.11503 
z
" clip-path="url(#p8474fc2730)" style="fill: #e67e22; opacity: 0.85; stroke: #ffffff; stroke-linejoin: miter"/>
   </g>
   <g id="patch_40">
    <path d="M 448.630853 467.357812 
L 458.08314 467.357812 
L 458.08314 93.200772 
L 448.630853 93.200772 
z
" clip-path="url(#p8474fc2730)" style="fill: #e67e22; opacity: 0.85; stroke: #ffffff; stroke-linejoin: miter"/>
   </g>
   <g id="patch_41">
    <path d="M 595.666426 467.357812 
L 605.118713 467.357812 
L 605.118713 81.688247 
L 595.666426 81.688247 
z
" clip-path="url(#p8474fc2730)" style="fill: #e67e22; opacity: 0.85; stroke: #ffffff; stroke-linejoin: miter"/>
   </g>
   <g id="patch_42">
    <path d="M 742.701999 467.357812 
L 752.154286 467.357812 
L 752.154286 81.688247 
L 742.701999 81.688247 
z
" clip-path="url(#p8474fc2730)" style="fill: #e67e22; opacity: 0.85; stroke: #ffffff; stroke-linejoin: miter"/>
   </g>
   <g id="patch_43">
    <path d="M 889.737573 467.357812 
L 899.189859 467.357812 
L 899.189859 105.421759 
L 889.737573 105.421759 
z
" clip-path="url(#p8474fc2730)" style="fill: #e67e22; opacity: 0.85; stroke: #ffffff; stroke-linejoin: miter"/>
   </g>
   <g id="patch_44">
    <path d="M 1036.773146 467.357812 
L 1046.225433 467.357812 
L 1046.225433 87.621625 
L 1036.773146 87.621625 
z
" clip-path="url(#p8474fc2730)" style="fill: #e67e22; opacity: 0.85; stroke: #ffffff; stroke-linejoin: miter"/>
   </g>
   <g id="patch_45">
    <path d="M 164.011994 467.357812 
L 173.464281 467.357812 
L 173.464281 129.896943 
L 164.011994 129.896943 
z
" clip-path="url(#p8474fc2730)" style="fill: #3498db; opacity: 0.85; stroke: #ffffff; stroke-linejoin: miter"/>
   </g>
   <g id="patch_46">
    <path d="M 311.047567 467.357812 
L 320.499854 467.357812 
L 320.499854 104.828421 
L 311.047567 104.828421 
z
" clip-path="url(#p8474fc2730)" style="fill: #3498db; opacity: 0.85; stroke: #ffffff; stroke-linejoin: miter"/>
   </g>
   <g id="patch_47">
    <path d="M 458.08314 467.357812 
L 467.535427 467.357812 
L 467.535427 127.738345 
L 458.08314 127.738345 
z
" clip-path="url(#p8474fc2730)" style="fill: #3498db; opacity: 0.85; stroke: #ffffff; stroke-linejoin: miter"/>
   </g>
   <g id="patch_48">
    <path d="M 605.118713 467.357812 
L 614.571 467.357812 
L 614.571 112.541812 
L 605.118713 112.541812 
z
" clip-path="url(#p8474fc2730)" style="fill: #3498db; opacity: 0.85; stroke: #ffffff; stroke-linejoin: miter"/>
   </g>
   <g id="patch_49">
    <path d="M 752.154286 467.357812 
L 761.606573 467.357812 
L 761.606573 81.688247 
L 752.154286 81.688247 
z
" clip-path="url(#p8474fc2730)" style="fill: #3498db; opacity: 0.85; stroke: #ffffff; stroke-linejoin: miter"/>
   </g>
   <g id="patch_50">
    <path d="M 899.189859 467.357812 
L 908.642146 467.357812 
L 908.642146 129.155271 
L 899.189859 129.155271 
z
" clip-path="url(#p8474fc2730)" style="fill: #3498db; opacity: 0.85; stroke: #ffffff; stroke-linejoin: miter"/>
   </g>
   <g id="patch_51">
    <path d="M 1046.225433 467.357812 
L 1055.677719 467.357812 
L 1055.677719 99.488381 
L 1046.225433 99.488381 
z
" clip-path="url(#p8474fc2730)" style="fill: #3498db; opacity: 0.85; stroke: #ffffff; stroke-linejoin: miter"/>
   </g>
   <g id="patch_52">
    <path d="M 173.464281 467.357812 
L 182.916567 467.357812 
L 182.916567 233.201291 
L 173.464281 233.201291 
z
" clip-path="url(#p8474fc2730)" style="fill: #2ecc71; opacity: 0.85; stroke: #ffffff; stroke-linejoin: miter"/>
   </g>
   <g id="patch_53">
    <path d="M 320.499854 467.357812 
L 329.952141 467.357812 
L 329.952141 93.258334 
L 320.499854 93.258334 
z
" clip-path="url(#p8474fc2730)" style="fill: #2ecc71; opacity: 0.85; stroke: #ffffff; stroke-linejoin: miter"/>
   </g>
   <g id="patch_54">
    <path d="M 467.535427 467.357812 
L 476.987714 467.357812 
L 476.987714 179.544704 
L 467.535427 179.544704 
z
" clip-path="url(#p8474fc2730)" style="fill: #2ecc71; opacity: 0.85; stroke: #ffffff; stroke-linejoin: miter"/>
   </g>
   <g id="patch_55">
    <path d="M 614.571 467.357812 
L 624.023287 467.357812 
L 624.023287 143.395378 
L 614.571 143.395378 
z
" clip-path="url(#p8474fc2730)" style="fill: #2ecc71; opacity: 0.85; stroke: #ffffff; stroke-linejoin: miter"/>
   </g>
   <g id="patch_56">
    <path d="M 761.606573 467.357812 
L 771.05886 467.357812 
L 771.05886 81.688247 
L 761.606573 81.688247 
z
" clip-path="url(#p8474fc2730)" style="fill: #2ecc71; opacity: 0.85; stroke: #ffffff; stroke-linejoin: miter"/>
   </g>
   <g id="patch_57">
    <path d="M 908.642146 467.357812 
L 918.094433 467.357812 
L 918.094433 152.888782 
L 908.642146 152.888782 
z
" clip-path="url(#p8474fc2730)" style="fill: #2ecc71; opacity: 0.85; stroke: #ffffff; stroke-linejoin: miter"/>
   </g>
   <g id="patch_58">
    <path d="M 1055.677719 467.357812 
L 1065.130006 467.357812 
L 1065.130006 93.555003 
L 1055.677719 93.555003 
z
" clip-path="url(#p8474fc2730)" style="fill: #2ecc71; opacity: 0.85; stroke: #ffffff; stroke-linejoin: miter"/>
   </g>
   <g id="patch_59">
    <path d="M 182.916567 467.357812 
L 192.368854 467.357812 
L 192.368854 164.331726 
L 182.916567 164.331726 
z
" clip-path="url(#p8474fc2730)" style="fill: #2980b9; opacity: 0.85; stroke: #ffffff; stroke-linejoin: miter"/>
   </g>
   <g id="patch_60">
    <path d="M 329.952141 467.357812 
L 339.404427 467.357812 
L 339.404427 112.541812 
L 329.952141 112.541812 
z
" clip-path="url(#p8474fc2730)" style="fill: #2980b9; opacity: 0.85; stroke: #ffffff; stroke-linejoin: miter"/>
   </g>
   <g id="patch_61">
    <path d="M 476.987714 467.357812 
L 486.440001 467.357812 
L 486.440001 87.444509 
L 476.987714 87.444509 
z
" clip-path="url(#p8474fc2730)" style="fill: #2980b9; opacity: 0.85; stroke: #ffffff; stroke-linejoin: miter"/>
   </g>
   <g id="patch_62">
    <path d="M 624.023287 467.357812 
L 633.475574 467.357812 
L 633.475574 112.541812 
L 624.023287 112.541812 
z
" clip-path="url(#p8474fc2730)" style="fill: #2980b9; opacity: 0.85; stroke: #ffffff; stroke-linejoin: miter"/>
   </g>
   <g id="patch_63">
    <path d="M 771.05886 467.357812 
L 780.511147 467.357812 
L 780.511147 81.688247 
L 771.05886 81.688247 
z
" clip-path="url(#p8474fc2730)" style="fill: #2980b9; opacity: 0.85; stroke: #ffffff; stroke-linejoin: miter"/>
   </g>
   <g id="patch_64">
    <path d="M 918.094433 467.357812 
L 927.54672 467.357812 
L 927.54672 129.155271 
L 918.094433 129.155271 
z
" clip-path="url(#p8474fc2730)" style="fill: #2980b9; opacity: 0.85; stroke: #ffffff; stroke-linejoin: miter"/>
   </g>
   <g id="patch_65">
    <path d="M 1065.130006 467.357812 
L 1074.582293 467.357812 
L 1074.582293 87.621625 
L 1065.130006 87.621625 
z
" clip-path="url(#p8474fc2730)" style="fill: #2980b9; opacity: 0.85; stroke: #ffffff; stroke-linejoin: miter"/>
   </g>
   <g id="patch_66">
    <path d="M 192.368854 467.357812 
L 201.821141 467.357812 
L 201.821141 157.444769 
L 192.368854 157.444769 
z
" clip-path="url(#p8474fc2730)" style="fill: #c39bd3; opacity: 0.85; stroke: #ffffff; stroke-linejoin: miter"/>
   </g>
   <g id="patch_67">
    <path d="M 339.404427 467.357812 
L 348.856714 467.357812 
L 348.856714 100.971726 
L 339.404427 100.971726 
z
" clip-path="url(#p8474fc2730)" style="fill: #c39bd3; opacity: 0.85; stroke: #ffffff; stroke-linejoin: miter"/>
   </g>
   <g id="patch_68">
    <path d="M 486.440001 467.357812 
L 495.892287 467.357812 
L 495.892287 110.469558 
L 486.440001 110.469558 
z
" clip-path="url(#p8474fc2730)" style="fill: #c39bd3; opacity: 0.85; stroke: #ffffff; stroke-linejoin: miter"/>
   </g>
   <g id="patch_69">
    <path d="M 633.475574 467.357812 
L 642.927861 467.357812 
L 642.927861 174.248943 
L 633.475574 174.248943 
z
" clip-path="url(#p8474fc2730)" style="fill: #c39bd3; opacity: 0.85; stroke: #ffffff; stroke-linejoin: miter"/>
   </g>
   <g id="patch_70">
    <path d="M 780.511147 467.357812 
L 789.963434 467.357812 
L 789.963434 99.218682 
L 780.511147 99.218682 
z
" clip-path="url(#p8474fc2730)" style="fill: #c39bd3; opacity: 0.85; stroke: #ffffff; stroke-linejoin: miter"/>
   </g>
   <g id="patch_71">
    <path d="M 927.54672 467.357812 
L 936.999007 467.357812 
L 936.999007 182.555672 
L 927.54672 182.555672 
z
" clip-path="url(#p8474fc2730)" style="fill: #c39bd3; opacity: 0.85; stroke: #ffffff; stroke-linejoin: miter"/>
   </g>
   <g id="patch_72">
    <path d="M 1074.582293 467.357812 
L 1084.03458 467.357812 
L 1084.03458 99.488381 
L 1074.582293 99.488381 
z
" clip-path="url(#p8474fc2730)" style="fill: #c39bd3; opacity: 0.85; stroke: #ffffff; stroke-linejoin: miter"/>
   </g>
   <g id="patch_73">
    <path d="M 201.821141 467.357812 
L 211.273428 467.357812 
L 211.273428 88.575204 
L 201.821141 88.575204 
z
" clip-path="url(#p8474fc2730)" style="fill: #e74c3c; opacity: 0.85; stroke: #ffffff; stroke-linejoin: miter"/>
   </g>
   <g id="patch_74">
    <path d="M 348.856714 467.357812 
L 358.309001 467.357812 
L 358.309001 81.688247 
L 348.856714 81.688247 
z
" clip-path="url(#p8474fc2730)" style="fill: #e74c3c; opacity: 0.85; stroke: #ffffff; stroke-linejoin: miter"/>
   </g>
   <g id="patch_75">
    <path d="M 495.892287 467.357812 
L 505.344574 467.357812 
L 505.344574 81.688247 
L 495.892287 81.688247 
z
" clip-path="url(#p8474fc2730)" style="fill: #e74c3c; opacity: 0.85; stroke: #ffffff; stroke-linejoin: miter"/>
   </g>
   <g id="patch_76">
    <path d="M 642.927861 467.357812 
L 652.380147 467.357812 
L 652.380147 97.11503 
L 642.927861 97.11503 
z
" clip-path="url(#p8474fc2730)" style="fill: #e74c3c; opacity: 0.85; stroke: #ffffff; stroke-linejoin: miter"/>
   </g>
   <g id="patch_77">
    <path d="M 789.963434 467.357812 
L 799.41572 467.357812 
L 799.41572 81.688247 
L 789.963434 81.688247 
z
" clip-path="url(#p8474fc2730)" style="fill: #e74c3c; opacity: 0.85; stroke: #ffffff; stroke-linejoin: miter"/>
   </g>
   <g id="patch_78">
    <path d="M 936.999007 467.357812 
L 946.451294 467.357812 
L 946.451294 99.488381 
L 936.999007 99.488381 
z
" clip-path="url(#p8474fc2730)" style="fill: #e74c3c; opacity: 0.85; stroke: #ffffff; stroke-linejoin: miter"/>
   </g>
   <g id="patch_79">
    <path d="M 1084.03458 467.357812 
L 1093.486867 467.357812 
L 1093.486867 81.688247 
L 1084.03458 81.688247 
z
" clip-path="url(#p8474fc2730)" style="fill: #e74c3c; opacity: 0.85; stroke: #ffffff; stroke-linejoin: miter"/>
   </g>
   <g id="patch_80">
    <path d="M 211.273428 467.357812 
L 220.725715 467.357812 
L 220.725715 102.349117 
L 211.273428 102.349117 
z
" clip-path="url(#p8474fc2730)" style="fill: #f39c12; opacity: 0.85; stroke: #ffffff; stroke-linejoin: miter"/>
   </g>
   <g id="patch_81">
    <path d="M 358.309001 467.357812 
L 367.761288 467.357812 
L 367.761288 85.544943 
L 358.309001 85.544943 
z
" clip-path="url(#p8474fc2730)" style="fill: #f39c12; opacity: 0.85; stroke: #ffffff; stroke-linejoin: miter"/>
   </g>
   <g id="patch_82">
    <path d="M 505.344574 467.357812 
L 514.796861 467.357812 
L 514.796861 87.444509 
L 505.344574 87.444509 
z
" clip-path="url(#p8474fc2730)" style="fill: #f39c12; opacity: 0.85; stroke: #ffffff; stroke-linejoin: miter"/>
   </g>
   <g id="patch_83">
    <path d="M 652.380147 467.357812 
L 661.832434 467.357812 
L 661.832434 81.688247 
L 652.380147 81.688247 
z
" clip-path="url(#p8474fc2730)" style="fill: #f39c12; opacity: 0.85; stroke: #ffffff; stroke-linejoin: miter"/>
   </g>
   <g id="patch_84">
    <path d="M 799.41572 467.357812 
L 808.868007 467.357812 
L 808.868007 81.688247 
L 799.41572 81.688247 
z
" clip-path="url(#p8474fc2730)" style="fill: #f39c12; opacity: 0.85; stroke: #ffffff; stroke-linejoin: miter"/>
   </g>
   <g id="patch_85">
    <path d="M 946.451294 467.357812 
L 955.90358 467.357812 
L 955.90358 111.355137 
L 946.451294 111.355137 
z
" clip-path="url(#p8474fc2730)" style="fill: #f39c12; opacity: 0.85; stroke: #ffffff; stroke-linejoin: miter"/>
   </g>
   <g id="patch_86">
    <path d="M 1093.486867 467.357812 
L 1102.939154 467.357812 
L 1102.939154 87.621625 
L 1093.486867 87.621625 
z
" clip-path="url(#p8474fc2730)" style="fill: #f39c12; opacity: 0.85; stroke: #ffffff; stroke-linejoin: miter"/>
   </g>
   <g id="patch_87">
    <path d="M 220.725715 467.357812 
L 230.178002 467.357812 
L 230.178002 88.575204 
L 220.725715 88.575204 
z
" clip-path="url(#p8474fc2730)" style="fill: #d35400; opacity: 0.85; stroke: #ffffff; stroke-linejoin: miter"/>
   </g>
   <g id="patch_88">
    <path d="M 367.761288 467.357812 
L 377.213575 467.357812 
L 377.213575 81.688247 
L 367.761288 81.688247 
z
" clip-path="url(#p8474fc2730)" style="fill: #d35400; opacity: 0.85; stroke: #ffffff; stroke-linejoin: miter"/>
   </g>
   <g id="patch_89">
    <path d="M 514.796861 467.357812 
L 524.249148 467.357812 
L 524.249148 81.688247 
L 514.796861 81.688247 
z
" clip-path="url(#p8474fc2730)" style="fill: #d35400; opacity: 0.85; stroke: #ffffff; stroke-linejoin: miter"/>
   </g>
   <g id="patch_90">
    <path d="M 661.832434 467.357812 
L 671.284721 467.357812 
L 671.284721 81.688247 
L 661.832434 81.688247 
z
" clip-path="url(#p8474fc2730)" style="fill: #d35400; opacity: 0.85; stroke: #ffffff; stroke-linejoin: miter"/>
   </g>
   <g id="patch_91">
    <path d="M 808.868007 467.357812 
L 818.320294 467.357812 
L 818.320294 81.688247 
L 808.868007 81.688247 
z
" clip-path="url(#p8474fc2730)" style="fill: #d35400; opacity: 0.85; stroke: #ffffff; stroke-linejoin: miter"/>
   </g>
   <g id="patch_92">
    <path d="M 955.90358 467.357812 
L 965.355867 467.357812 
L 965.355867 99.488381 
L 955.90358 99.488381 
z
" clip-path="url(#p8474fc2730)" style="fill: #d35400; opacity: 0.85; stroke: #ffffff; stroke-linejoin: miter"/>
   </g>
   <g id="patch_93">
    <path d="M 1102.939154 467.357812 
L 1112.39144 467.357812 
L 1112.39144 87.621625 
L 1102.939154 87.621625 
z
" clip-path="url(#p8474fc2730)" style="fill: #d35400; opacity: 0.85; stroke: #ffffff; stroke-linejoin: miter"/>
   </g>
   <g id="patch_94">
    <path d="M 230.178002 467.357812 
L 239.630289 467.357812 
L 239.630289 88.575204 
L 230.178002 88.575204 
z
" clip-path="url(#p8474fc2730)" style="fill: #7f8c8d; opacity: 0.85; stroke: #ffffff; stroke-linejoin: miter"/>
   </g>
   <g id="patch_95">
    <path d="M 377.213575 467.357812 
L 386.665862 467.357812 
L 386.665862 81.688247 
L 377.213575 81.688247 
z
" clip-path="url(#p8474fc2730)" style="fill: #7f8c8d; opacity: 0.85; stroke: #ffffff; stroke-linejoin: miter"/>
   </g>
   <g id="patch_96">
    <path d="M 524.249148 467.357812 
L 533.701435 467.357812 
L 533.701435 81.688247 
L 524.249148 81.688247 
z
" clip-path="url(#p8474fc2730)" style="fill: #7f8c8d; opacity: 0.85; stroke: #ffffff; stroke-linejoin: miter"/>
   </g>
   <g id="patch_97">
    <path d="M 671.284721 467.357812 
L 680.737008 467.357812 
L 680.737008 112.541812 
L 671.284721 112.541812 
z
" clip-path="url(#p8474fc2730)" style="fill: #7f8c8d; opacity: 0.85; stroke: #ffffff; stroke-linejoin: miter"/>
   </g>
   <g id="patch_98">
    <path d="M 818.320294 467.357812 
L 827.772581 467.357812 
L 827.772581 81.688247 
L 818.320294 81.688247 
z
" clip-path="url(#p8474fc2730)" style="fill: #7f8c8d; opacity: 0.85; stroke: #ffffff; stroke-linejoin: miter"/>
   </g>
   <g id="patch_99">
    <path d="M 965.355867 467.357812 
L 974.808154 467.357812 
L 974.808154 123.221893 
L 965.355867 123.221893 
z
" clip-path="url(#p8474fc2730)" style="fill: #7f8c8d; opacity: 0.85; stroke: #ffffff; stroke-linejoin: miter"/>
   </g>
   <g id="patch_100">
    <path d="M 1112.39144 467.357812 
L 1121.843727 467.357812 
L 1121.843727 87.621625 
L 1112.39144 87.621625 
z
" clip-path="url(#p8474fc2730)" style="fill: #7f8c8d; opacity: 0.85; stroke: #ffffff; stroke-linejoin: miter"/>
   </g>
   <g id="line2d_14">
    <path d="M 56.571 81.688247 
L 1172.571 81.688247 
" clip-path="url(#p8474fc2730)" style="fill: none; stroke-dasharray: 5.55,2.4; stroke-dashoffset: 0; stroke: #e74c3c; stroke-opacity: 0.3; stroke-width: 1.5"/>
   </g>
   <g id="patch_101">
    <path d="M 56.571 467.357812 
L 56.571 23.837812 
" style="fill: none; stroke: #cccccc; stroke-width: 1.25; stroke-linejoin: miter; stroke-linecap: square"/>
   </g>
   <g id="patch_102">
    <path d="M 1172.571 467.357812 
L 1172.571 23.837812 
" style="fill: none; stroke: #cccccc; stroke-width: 1.25; stroke-linejoin: miter; stroke-linecap: square"/>
   </g>
   <g id="patch_103">
    <path d="M 56.571 467.357812 
L 1172.571 467.357812 
" style="fill: none; stroke: #cccccc; stroke-width: 1.25; stroke-linejoin: miter; stroke-linecap: square"/>
   </g>
   <g id="patch_104">
    <path d="M 56.571 23.837812 
L 1172.571 23.837812 
" style="fill: none; stroke: #cccccc; stroke-width: 1.25; stroke-linejoin: miter; stroke-linecap: square"/>
   </g>
   <g id="text_15">
    <!-- Gemma4-E2B HarmBench ASR by Category -->
    <g style="fill: #262626" transform="translate(445.515531 17.837812) scale(0.14 -0.14)">
     <defs>
      <path id="DejaVuSans-Bold-47" d="M 4781 347 
Q 4331 128 3847 18 
Q 3363 -91 2847 -91 
Q 1681 -91 1000 561 
Q 319 1213 319 2328 
Q 319 3456 1012 4103 
Q 1706 4750 2913 4750 
Q 3378 4750 3804 4662 
Q 4231 4575 4609 4403 
L 4609 3438 
Q 4219 3659 3833 3768 
Q 3447 3878 3059 3878 
Q 2341 3878 1952 3476 
Q 1563 3075 1563 2328 
Q 1563 1588 1938 1184 
Q 2313 781 3003 781 
Q 3191 781 3352 804 
Q 3513 828 3641 878 
L 3641 1784 
L 2906 1784 
L 2906 2591 
L 4781 2591 
L 4781 347 
z
" transform="scale(0.015625)"/>
      <path id="DejaVuSans-Bold-65" d="M 4031 1759 
L 4031 1441 
L 1416 1441 
Q 1456 1047 1700 850 
Q 1944 653 2381 653 
Q 2734 653 3104 758 
Q 3475 863 3866 1075 
L 3866 213 
Q 3469 63 3072 -14 
Q 2675 -91 2278 -91 
Q 1328 -91 801 392 
Q 275 875 275 1747 
Q 275 2603 792 3093 
Q 1309 3584 2216 3584 
Q 3041 3584 3536 3087 
Q 4031 2591 4031 1759 
z
M 2881 2131 
Q 2881 2450 2695 2645 
Q 2509 2841 2209 2841 
Q 1884 2841 1681 2658 
Q 1478 2475 1428 2131 
L 2881 2131 
z
" transform="scale(0.015625)"/>
      <path id="DejaVuSans-Bold-6d" d="M 3781 2919 
Q 3994 3244 4286 3414 
Q 4578 3584 4928 3584 
Q 5531 3584 5847 3212 
Q 6163 2841 6163 2131 
L 6163 0 
L 5038 0 
L 5038 1825 
Q 5041 1866 5042 1909 
Q 5044 1953 5044 2034 
Q 5044 2406 4934 2573 
Q 4825 2741 4581 2741 
Q 4263 2741 4089 2478 
Q 3916 2216 3909 1719 
L 3909 0 
L 2784 0 
L 2784 1825 
Q 2784 2406 2684 2573 
Q 2584 2741 2328 2741 
Q 2006 2741 1831 2477 
Q 1656 2213 1656 1722 
L 1656 0 
L 531 0 
L 531 3500 
L 1656 3500 
L 1656 2988 
Q 1863 3284 2130 3434 
Q 2397 3584 2719 3584 
Q 3081 3584 3359 3409 
Q 3638 3234 3781 2919 
z
" transform="scale(0.015625)"/>
      <path id="DejaVuSans-Bold-61" d="M 2106 1575 
Q 1756 1575 1579 1456 
Q 1403 1338 1403 1106 
Q 1403 894 1545 773 
Q 1688 653 1941 653 
Q 2256 653 2472 879 
Q 2688 1106 2688 1447 
L 2688 1575 
L 2106 1575 
z
M 3816 1997 
L 3816 0 
L 2688 0 
L 2688 519 
Q 2463 200 2181 54 
Q 1900 -91 1497 -91 
Q 953 -91 614 226 
Q 275 544 275 1050 
Q 275 1666 698 1953 
Q 1122 2241 2028 2241 
L 2688 2241 
L 2688 2328 
Q 2688 2594 2478 2717 
Q 2269 2841 1825 2841 
Q 1466 2841 1156 2769 
Q 847 2697 581 2553 
L 581 3406 
Q 941 3494 1303 3539 
Q 1666 3584 2028 3584 
Q 2975 3584 3395 3211 
Q 3816 2838 3816 1997 
z
" transform="scale(0.015625)"/>
      <path id="DejaVuSans-Bold-34" d="M 2356 3675 
L 1038 1722 
L 2356 1722 
L 2356 3675 
z
M 2156 4666 
L 3494 4666 
L 3494 1722 
L 4159 1722 
L 4159 850 
L 3494 850 
L 3494 0 
L 2356 0 
L 2356 850 
L 288 850 
L 288 1881 
L 2156 4666 
z
" transform="scale(0.015625)"/>
      <path id="DejaVuSans-Bold-2d" d="M 347 2297 
L 2309 2297 
L 2309 1388 
L 347 1388 
L 347 2297 
z
" transform="scale(0.015625)"/>
      <path id="DejaVuSans-Bold-45" d="M 588 4666 
L 3834 4666 
L 3834 3756 
L 1791 3756 
L 1791 2888 
L 3713 2888 
L 3713 1978 
L 1791 1978 
L 1791 909 
L 3903 909 
L 3903 0 
L 588 0 
L 588 4666 
z
" transform="scale(0.015625)"/>
      <path id="DejaVuSans-Bold-32" d="M 1844 884 
L 3897 884 
L 3897 0 
L 506 0 
L 506 884 
L 2209 2388 
Q 2438 2594 2547 2791 
Q 2656 2988 2656 3200 
Q 2656 3528 2436 3728 
Q 2216 3928 1850 3928 
Q 1569 3928 1234 3808 
Q 900 3688 519 3450 
L 519 4475 
Q 925 4609 1322 4679 
Q 1719 4750 2100 4750 
Q 2938 4750 3402 4381 
Q 3866 4013 3866 3353 
Q 3866 2972 3669 2642 
Q 3472 2313 2841 1759 
L 1844 884 
z
" transform="scale(0.015625)"/>
      <path id="DejaVuSans-Bold-42" d="M 2456 2859 
Q 2741 2859 2887 2984 
Q 3034 3109 3034 3353 
Q 3034 3594 2887 3720 
Q 2741 3847 2456 3847 
L 1791 3847 
L 1791 2859 
L 2456 2859 
z
M 2497 819 
Q 2859 819 3042 972 
Q 3225 1125 3225 1434 
Q 3225 1738 3044 1889 
Q 2863 2041 2497 2041 
L 1791 2041 
L 1791 819 
L 2497 819 
z
M 3616 2497 
Q 4003 2384 4215 2081 
Q 4428 1778 4428 1338 
Q 4428 663 3972 331 
Q 3516 0 2584 0 
L 588 0 
L 588 4666 
L 2394 4666 
Q 3366 4666 3802 4372 
Q 4238 4078 4238 3431 
Q 4238 3091 4078 2852 
Q 3919 2613 3616 2497 
z
" transform="scale(0.015625)"/>
      <path id="DejaVuSans-Bold-20" transform="scale(0.015625)"/>
      <path id="DejaVuSans-Bold-48" d="M 588 4666 
L 1791 4666 
L 1791 2888 
L 3566 2888 
L 3566 4666 
L 4769 4666 
L 4769 0 
L 3566 0 
L 3566 1978 
L 1791 1978 
L 1791 0 
L 588 0 
L 588 4666 
z
" transform="scale(0.015625)"/>
      <path id="DejaVuSans-Bold-72" d="M 3138 2547 
Q 2991 2616 2845 2648 
Q 2700 2681 2553 2681 
Q 2122 2681 1889 2404 
Q 1656 2128 1656 1613 
L 1656 0 
L 538 0 
L 538 3500 
L 1656 3500 
L 1656 2925 
Q 1872 3269 2151 3426 
Q 2431 3584 2822 3584 
Q 2878 3584 2943 3579 
Q 3009 3575 3134 3559 
L 3138 2547 
z
" transform="scale(0.015625)"/>
      <path id="DejaVuSans-Bold-6e" d="M 4056 2131 
L 4056 0 
L 2931 0 
L 2931 347 
L 2931 1631 
Q 2931 2084 2911 2256 
Q 2891 2428 2841 2509 
Q 2775 2619 2662 2680 
Q 2550 2741 2406 2741 
Q 2056 2741 1856 2470 
Q 1656 2200 1656 1722 
L 1656 0 
L 538 0 
L 538 3500 
L 1656 3500 
L 1656 2988 
Q 1909 3294 2193 3439 
Q 2478 3584 2822 3584 
Q 3428 3584 3742 3212 
Q 4056 2841 4056 2131 
z
" transform="scale(0.015625)"/>
      <path id="DejaVuSans-Bold-63" d="M 3366 3391 
L 3366 2478 
Q 3138 2634 2908 2709 
Q 2678 2784 2431 2784 
Q 1963 2784 1702 2511 
Q 1441 2238 1441 1747 
Q 1441 1256 1702 982 
Q 1963 709 2431 709 
Q 2694 709 2930 787 
Q 3166 866 3366 1019 
L 3366 103 
Q 3103 6 2833 -42 
Q 2563 -91 2291 -91 
Q 1344 -91 809 395 
Q 275 881 275 1747 
Q 275 2613 809 3098 
Q 1344 3584 2291 3584 
Q 2566 3584 2833 3536 
Q 3100 3488 3366 3391 
z
" transform="scale(0.015625)"/>
      <path id="DejaVuSans-Bold-68" d="M 4056 2131 
L 4056 0 
L 2931 0 
L 2931 347 
L 2931 1625 
Q 2931 2084 2911 2256 
Q 2891 2428 2841 2509 
Q 2775 2619 2662 2680 
Q 2550 2741 2406 2741 
Q 2056 2741 1856 2470 
Q 1656 2200 1656 1722 
L 1656 0 
L 538 0 
L 538 4863 
L 1656 4863 
L 1656 2988 
Q 1909 3294 2193 3439 
Q 2478 3584 2822 3584 
Q 3428 3584 3742 3212 
Q 4056 2841 4056 2131 
z
" transform="scale(0.015625)"/>
      <path id="DejaVuSans-Bold-41" d="M 3419 850 
L 1538 850 
L 1241 0 
L 31 0 
L 1759 4666 
L 3194 4666 
L 4922 0 
L 3713 0 
L 3419 850 
z
M 1838 1716 
L 3116 1716 
L 2478 3572 
L 1838 1716 
z
" transform="scale(0.015625)"/>
      <path id="DejaVuSans-Bold-53" d="M 3834 4519 
L 3834 3531 
Q 3450 3703 3084 3790 
Q 2719 3878 2394 3878 
Q 1963 3878 1756 3759 
Q 1550 3641 1550 3391 
Q 1550 3203 1689 3098 
Q 1828 2994 2194 2919 
L 2706 2816 
Q 3484 2659 3812 2340 
Q 4141 2022 4141 1434 
Q 4141 663 3683 286 
Q 3225 -91 2284 -91 
Q 1841 -91 1394 -6 
Q 947 78 500 244 
L 500 1259 
Q 947 1022 1364 901 
Q 1781 781 2169 781 
Q 2563 781 2772 912 
Q 2981 1044 2981 1288 
Q 2981 1506 2839 1625 
Q 2697 1744 2272 1838 
L 1806 1941 
Q 1106 2091 782 2419 
Q 459 2747 459 3303 
Q 459 4000 909 4375 
Q 1359 4750 2203 4750 
Q 2588 4750 2994 4692 
Q 3400 4634 3834 4519 
z
" transform="scale(0.015625)"/>
      <path id="DejaVuSans-Bold-52" d="M 2297 2597 
Q 2675 2597 2839 2737 
Q 3003 2878 3003 3200 
Q 3003 3519 2839 3656 
Q 2675 3794 2297 3794 
L 1791 3794 
L 1791 2597 
L 2297 2597 
z
M 1791 1766 
L 1791 0 
L 588 0 
L 588 4666 
L 2425 4666 
Q 3347 4666 3776 4356 
Q 4206 4047 4206 3378 
Q 4206 2916 3982 2619 
Q 3759 2322 3309 2181 
Q 3556 2125 3751 1926 
Q 3947 1728 4147 1325 
L 4800 0 
L 3519 0 
L 2950 1159 
Q 2778 1509 2601 1637 
Q 2425 1766 2131 1766 
L 1791 1766 
z
" transform="scale(0.015625)"/>
      <path id="DejaVuSans-Bold-62" d="M 2400 722 
Q 2759 722 2948 984 
Q 3138 1247 3138 1747 
Q 3138 2247 2948 2509 
Q 2759 2772 2400 2772 
Q 2041 2772 1848 2508 
Q 1656 2244 1656 1747 
Q 1656 1250 1848 986 
Q 2041 722 2400 722 
z
M 1656 2988 
Q 1888 3294 2169 3439 
Q 2450 3584 2816 3584 
Q 3463 3584 3878 3070 
Q 4294 2556 4294 1747 
Q 4294 938 3878 423 
Q 3463 -91 2816 -91 
Q 2450 -91 2169 54 
Q 1888 200 1656 506 
L 1656 0 
L 538 0 
L 538 4863 
L 1656 4863 
L 1656 2988 
z
" transform="scale(0.015625)"/>
      <path id="DejaVuSans-Bold-79" d="M 78 3500 
L 1197 3500 
L 2138 1125 
L 2938 3500 
L 4056 3500 
L 2584 -331 
Q 2363 -916 2067 -1148 
Q 1772 -1381 1288 -1381 
L 641 -1381 
L 641 -647 
L 991 -647 
Q 1275 -647 1404 -556 
Q 1534 -466 1606 -231 
L 1638 -134 
L 78 3500 
z
" transform="scale(0.015625)"/>
      <path id="DejaVuSans-Bold-43" d="M 4288 256 
Q 3956 84 3597 -3 
Q 3238 -91 2847 -91 
Q 1681 -91 1000 561 
Q 319 1213 319 2328 
Q 319 3447 1000 4098 
Q 1681 4750 2847 4750 
Q 3238 4750 3597 4662 
Q 3956 4575 4288 4403 
L 4288 3438 
Q 3953 3666 3628 3772 
Q 3303 3878 2944 3878 
Q 2300 3878 1931 3465 
Q 1563 3053 1563 2328 
Q 1563 1606 1931 1193 
Q 2300 781 2944 781 
Q 3303 781 3628 887 
Q 3953 994 4288 1222 
L 4288 256 
z
" transform="scale(0.015625)"/>
      <path id="DejaVuSans-Bold-74" d="M 1759 4494 
L 1759 3500 
L 2913 3500 
L 2913 2700 
L 1759 2700 
L 1759 1216 
Q 1759 972 1856 886 
Q 1953 800 2241 800 
L 2816 800 
L 2816 0 
L 1856 0 
Q 1194 0 917 276 
Q 641 553 641 1216 
L 641 2700 
L 84 2700 
L 84 3500 
L 641 3500 
L 641 4494 
L 1759 4494 
z
" transform="scale(0.015625)"/>
      <path id="DejaVuSans-Bold-67" d="M 2919 594 
Q 2688 288 2409 144 
Q 2131 0 1766 0 
Q 1125 0 706 504 
Q 288 1009 288 1791 
Q 288 2575 706 3076 
Q 1125 3578 1766 3578 
Q 2131 3578 2409 3434 
Q 2688 3291 2919 2981 
L 2919 3500 
L 4044 3500 
L 4044 353 
Q 4044 -491 3511 -936 
Q 2978 -1381 1966 -1381 
Q 1638 -1381 1331 -1331 
Q 1025 -1281 716 -1178 
L 716 -306 
Q 1009 -475 1290 -558 
Q 1572 -641 1856 -641 
Q 2406 -641 2662 -400 
Q 2919 -159 2919 353 
L 2919 594 
z
M 2181 2772 
Q 1834 2772 1640 2515 
Q 1447 2259 1447 1791 
Q 1447 1309 1634 1061 
Q 1822 813 2181 813 
Q 2531 813 2725 1069 
Q 2919 1325 2919 1791 
Q 2919 2259 2725 2515 
Q 2531 2772 2181 2772 
z
" transform="scale(0.015625)"/>
      <path id="DejaVuSans-Bold-6f" d="M 2203 2784 
Q 1831 2784 1636 2517 
Q 1441 2250 1441 1747 
Q 1441 1244 1636 976 
Q 1831 709 2203 709 
Q 2569 709 2762 976 
Q 2956 1244 2956 1747 
Q 2956 2250 2762 2517 
Q 2569 2784 2203 2784 
z
M 2203 3584 
Q 3106 3584 3614 3096 
Q 4122 2609 4122 1747 
Q 4122 884 3614 396 
Q 3106 -91 2203 -91 
Q 1297 -91 786 396 
Q 275 884 275 1747 
Q 275 2609 786 3096 
Q 1297 3584 2203 3584 
z
" transform="scale(0.015625)"/>
     </defs>
     <use xlink:href="#DejaVuSans-Bold-47"/>
     <use xlink:href="#DejaVuSans-Bold-65" transform="translate(82.080078 0)"/>
     <use xlink:href="#DejaVuSans-Bold-6d" transform="translate(149.902344 0)"/>
     <use xlink:href="#DejaVuSans-Bold-6d" transform="translate(254.101562 0)"/>
     <use xlink:href="#DejaVuSans-Bold-61" transform="translate(358.300781 0)"/>
     <use xlink:href="#DejaVuSans-Bold-34" transform="translate(425.78125 0)"/>
     <use xlink:href="#DejaVuSans-Bold-2d" transform="translate(495.361328 0)"/>
     <use xlink:href="#DejaVuSans-Bold-45" transform="translate(536.865234 0)"/>
     <use xlink:href="#DejaVuSans-Bold-32" transform="translate(605.175781 0)"/>
     <use xlink:href="#DejaVuSans-Bold-42" transform="translate(674.755859 0)"/>
     <use xlink:href="#DejaVuSans-Bold-20" transform="translate(750.976562 0)"/>
     <use xlink:href="#DejaVuSans-Bold-48" transform="translate(785.791016 0)"/>
     <use xlink:href="#DejaVuSans-Bold-61" transform="translate(869.482422 0)"/>
     <use xlink:href="#DejaVuSans-Bold-72" transform="translate(936.962891 0)"/>
     <use xlink:href="#DejaVuSans-Bold-6d" transform="translate(986.279297 0)"/>
     <use xlink:href="#DejaVuSans-Bold-42" transform="translate(1090.478516 0)"/>
     <use xlink:href="#DejaVuSans-Bold-65" transform="translate(1166.699219 0)"/>
     <use xlink:href="#DejaVuSans-Bold-6e" transform="translate(1234.521484 0)"/>
     <use xlink:href="#DejaVuSans-Bold-63" transform="translate(1305.712891 0)"/>
     <use xlink:href="#DejaVuSans-Bold-68" transform="translate(1364.990234 0)"/>
     <use xlink:href="#DejaVuSans-Bold-20" transform="translate(1436.181641 0)"/>
     <use xlink:href="#DejaVuSans-Bold-41" transform="translate(1470.996094 0)"/>
     <use xlink:href="#DejaVuSans-Bold-53" transform="translate(1548.388672 0)"/>
     <use xlink:href="#DejaVuSans-Bold-52" transform="translate(1620.410156 0)"/>
     <use xlink:href="#DejaVuSans-Bold-20" transform="translate(1697.412109 0)"/>
     <use xlink:href="#DejaVuSans-Bold-62" transform="translate(1732.226562 0)"/>
     <use xlink:href="#DejaVuSans-Bold-79" transform="translate(1803.808594 0)"/>
     <use xlink:href="#DejaVuSans-Bold-20" transform="translate(1868.994141 0)"/>
     <use xlink:href="#DejaVuSans-Bold-43" transform="translate(1903.808594 0)"/>
     <use xlink:href="#DejaVuSans-Bold-61" transform="translate(1977.197266 0)"/>
     <use xlink:href="#DejaVuSans-Bold-74" transform="translate(2044.677734 0)"/>
     <use xlink:href="#DejaVuSans-Bold-65" transform="translate(2092.480469 0)"/>
     <use xlink:href="#DejaVuSans-Bold-67" transform="translate(2160.302734 0)"/>
     <use xlink:href="#DejaVuSans-Bold-6f" transform="translate(2231.884766 0)"/>
     <use xlink:href="#DejaVuSans-Bold-72" transform="translate(2300.585938 0)"/>
     <use xlink:href="#DejaVuSans-Bold-79" transform="translate(2349.902344 0)"/>
    </g>
   </g>
   <g id="legend_1">
    <g id="patch_105">
     <path d="M 60.771 63.865313 
L 299.08725 63.865313 
Q 300.28725 63.865313 300.28725 62.665313 
L 300.28725 28.037812 
Q 300.28725 26.837812 299.08725 26.837812 
L 60.771 26.837812 
Q 59.571 26.837812 59.571 28.037812 
L 59.571 62.665313 
Q 59.571 63.865313 60.771 63.865313 
z
" style="fill: #ffffff; opacity: 0.8; stroke: #cccccc; stroke-linejoin: miter"/>
    </g>
    <g id="patch_106">
     <path d="M 61.971 33.796875 
L 73.971 33.796875 
L 73.971 29.596875 
L 61.971 29.596875 
z
" style="fill: #95a5a6; opacity: 0.85; stroke: #ffffff; stroke-linejoin: miter"/>
    </g>
    <g id="text_16">
     <!-- Base -->
     <g style="fill: #262626" transform="translate(78.771 33.796875) scale(0.06 -0.06)">
      <use xlink:href="#DejaVuSans-42"/>
      <use xlink:href="#DejaVuSans-61" transform="translate(68.603516 0)"/>
      <use xlink:href="#DejaVuSans-73" transform="translate(129.882812 0)"/>
      <use xlink:href="#DejaVuSans-65" transform="translate(181.982422 0)"/>
     </g>
    </g>
    <g id="patch_107">
     <path d="M 61.971 42.60375 
L 73.971 42.60375 
L 73.971 38.40375 
L 61.971 38.40375 
z
" style="fill: #27ae60; opacity: 0.85; stroke: #ffffff; stroke-linejoin: miter"/>
    </g>
    <g id="text_17">
     <!-- Coder3101 -->
     <g style="fill: #262626" transform="translate(78.771 42.60375) scale(0.06 -0.06)">
      <defs>
       <path id="DejaVuSans-64" d="M 2906 2969 
L 2906 4863 
L 3481 4863 
L 3481 0 
L 2906 0 
L 2906 525 
Q 2725 213 2448 61 
Q 2172 -91 1784 -91 
Q 1150 -91 751 415 
Q 353 922 353 1747 
Q 353 2572 751 3078 
Q 1150 3584 1784 3584 
Q 2172 3584 2448 3432 
Q 2725 3281 2906 2969 
z
M 947 1747 
Q 947 1113 1208 752 
Q 1469 391 1925 391 
Q 2381 391 2643 752 
Q 2906 1113 2906 1747 
Q 2906 2381 2643 2742 
Q 2381 3103 1925 3103 
Q 1469 3103 1208 2742 
Q 947 2381 947 1747 
z
" transform="scale(0.015625)"/>
       <path id="DejaVuSans-33" d="M 2597 2516 
Q 3050 2419 3304 2112 
Q 3559 1806 3559 1356 
Q 3559 666 3084 287 
Q 2609 -91 1734 -91 
Q 1441 -91 1130 -33 
Q 819 25 488 141 
L 488 750 
Q 750 597 1062 519 
Q 1375 441 1716 441 
Q 2309 441 2620 675 
Q 2931 909 2931 1356 
Q 2931 1769 2642 2001 
Q 2353 2234 1838 2234 
L 1294 2234 
L 1294 2753 
L 1863 2753 
Q 2328 2753 2575 2939 
Q 2822 3125 2822 3475 
Q 2822 3834 2567 4026 
Q 2313 4219 1838 4219 
Q 1578 4219 1281 4162 
Q 984 4106 628 3988 
L 628 4550 
Q 988 4650 1302 4700 
Q 1616 4750 1894 4750 
Q 2613 4750 3031 4423 
Q 3450 4097 3450 3541 
Q 3450 3153 3228 2886 
Q 3006 2619 2597 2516 
z
" transform="scale(0.015625)"/>
      </defs>
      <use xlink:href="#DejaVuSans-43"/>
      <use xlink:href="#DejaVuSans-6f" transform="translate(69.824219 0)"/>
      <use xlink:href="#DejaVuSans-64" transform="translate(131.005859 0)"/>
      <use xlink:href="#DejaVuSans-65" transform="translate(194.482422 0)"/>
      <use xlink:href="#DejaVuSans-72" transform="translate(256.005859 0)"/>
      <use xlink:href="#DejaVuSans-33" transform="translate(297.119141 0)"/>
      <use xlink:href="#DejaVuSans-31" transform="translate(360.742188 0)"/>
      <use xlink:href="#DejaVuSans-30" transform="translate(424.365234 0)"/>
      <use xlink:href="#DejaVuSans-31" transform="translate(487.988281 0)"/>
     </g>
    </g>
    <g id="patch_108">
     <path d="M 61.971 51.410625 
L 73.971 51.410625 
L 73.971 47.210625 
L 61.971 47.210625 
z
" style="fill: #9b59b6; opacity: 0.85; stroke: #ffffff; stroke-linejoin: miter"/>
    </g>
    <g id="text_18">
     <!-- Duoneural -->
     <g style="fill: #262626" transform="translate(78.771 51.410625) scale(0.06 -0.06)">
      <defs>
       <path id="DejaVuSans-44" d="M 1259 4147 
L 1259 519 
L 2022 519 
Q 2988 519 3436 956 
Q 3884 1394 3884 2338 
Q 3884 3275 3436 3711 
Q 2988 4147 2022 4147 
L 1259 4147 
z
M 628 4666 
L 1925 4666 
Q 3281 4666 3915 4102 
Q 4550 3538 4550 2338 
Q 4550 1131 3912 565 
Q 3275 0 1925 0 
L 628 0 
L 628 4666 
z
" transform="scale(0.015625)"/>
      </defs>
      <use xlink:href="#DejaVuSans-44"/>
      <use xlink:href="#DejaVuSans-75" transform="translate(77.001953 0)"/>
      <use xlink:href="#DejaVuSans-6f" transform="translate(140.380859 0)"/>
      <use xlink:href="#DejaVuSans-6e" transform="translate(201.5625 0)"/>
      <use xlink:href="#DejaVuSans-65" transform="translate(264.941406 0)"/>
      <use xlink:href="#DejaVuSans-75" transform="translate(326.464844 0)"/>
      <use xlink:href="#DejaVuSans-72" transform="translate(389.84375 0)"/>
      <use xlink:href="#DejaVuSans-61" transform="translate(430.957031 0)"/>
      <use xlink:href="#DejaVuSans-6c" transform="translate(492.236328 0)"/>
     </g>
    </g>
    <g id="patch_109">
     <path d="M 61.971 60.2175 
L 73.971 60.2175 
L 73.971 56.0175 
L 61.971 56.0175 
z
" style="fill: #c0392b; opacity: 0.85; stroke: #ffffff; stroke-linejoin: miter"/>
    </g>
    <g id="text_19">
     <!-- EtherOpus -->
     <g style="fill: #262626" transform="translate(78.771 60.2175) scale(0.06 -0.06)">
      <defs>
       <path id="DejaVuSans-45" d="M 628 4666 
L 3578 4666 
L 3578 4134 
L 1259 4134 
L 1259 2753 
L 3481 2753 
L 3481 2222 
L 1259 2222 
L 1259 531 
L 3634 531 
L 3634 0 
L 628 0 
L 628 4666 
z
" transform="scale(0.015625)"/>
       <path id="DejaVuSans-4f" d="M 2522 4238 
Q 1834 4238 1429 3725 
Q 1025 3213 1025 2328 
Q 1025 1447 1429 934 
Q 1834 422 2522 422 
Q 3209 422 3611 934 
Q 4013 1447 4013 2328 
Q 4013 3213 3611 3725 
Q 3209 4238 2522 4238 
z
M 2522 4750 
Q 3503 4750 4090 4092 
Q 4678 3434 4678 2328 
Q 4678 1225 4090 567 
Q 3503 -91 2522 -91 
Q 1538 -91 948 565 
Q 359 1222 359 2328 
Q 359 3434 948 4092 
Q 1538 4750 2522 4750 
z
" transform="scale(0.015625)"/>
      </defs>
      <use xlink:href="#DejaVuSans-45"/>
      <use xlink:href="#DejaVuSans-74" transform="translate(63.183594 0)"/>
      <use xlink:href="#DejaVuSans-68" transform="translate(102.392578 0)"/>
      <use xlink:href="#DejaVuSans-65" transform="translate(165.771484 0)"/>
      <use xlink:href="#DejaVuSans-72" transform="translate(227.294922 0)"/>
      <use xlink:href="#DejaVuSans-4f" transform="translate(268.408203 0)"/>
      <use xlink:href="#DejaVuSans-70" transform="translate(347.119141 0)"/>
      <use xlink:href="#DejaVuSans-75" transform="translate(410.595703 0)"/>
      <use xlink:href="#DejaVuSans-73" transform="translate(473.974609 0)"/>
     </g>
    </g>
    <g id="patch_110">
     <path d="M 123.869438 33.796875 
L 135.869438 33.796875 
L 135.869438 29.596875 
L 123.869438 29.596875 
z
" style="fill: #8e44ad; opacity: 0.85; stroke: #ffffff; stroke-linejoin: miter"/>
    </g>
    <g id="text_20">
     <!-- Huihui-v1 -->
     <g style="fill: #262626" transform="translate(140.669438 33.796875) scale(0.06 -0.06)">
      <defs>
       <path id="DejaVuSans-2d" d="M 313 2009 
L 1997 2009 
L 1997 1497 
L 313 1497 
L 313 2009 
z
" transform="scale(0.015625)"/>
       <path id="DejaVuSans-76" d="M 191 3500 
L 800 3500 
L 1894 563 
L 2988 3500 
L 3597 3500 
L 2284 0 
L 1503 0 
L 191 3500 
z
" transform="scale(0.015625)"/>
      </defs>
      <use xlink:href="#DejaVuSans-48"/>
      <use xlink:href="#DejaVuSans-75" transform="translate(75.195312 0)"/>
      <use xlink:href="#DejaVuSans-69" transform="translate(138.574219 0)"/>
      <use xlink:href="#DejaVuSans-68" transform="translate(166.357422 0)"/>
      <use xlink:href="#DejaVuSans-75" transform="translate(229.736328 0)"/>
      <use xlink:href="#DejaVuSans-69" transform="translate(293.115234 0)"/>
      <use xlink:href="#DejaVuSans-2d" transform="translate(320.898438 0)"/>
      <use xlink:href="#DejaVuSans-76" transform="translate(354.357422 0)"/>
      <use xlink:href="#DejaVuSans-31" transform="translate(413.537109 0)"/>
     </g>
    </g>
    <g id="patch_111">
     <path d="M 123.869438 42.60375 
L 135.869438 42.60375 
L 135.869438 38.40375 
L 123.869438 38.40375 
z
" style="fill: #e67e22; opacity: 0.85; stroke: #ffffff; stroke-linejoin: miter"/>
    </g>
    <g id="text_21">
     <!-- Huihui-v2 -->
     <g style="fill: #262626" transform="translate(140.669438 42.60375) scale(0.06 -0.06)">
      <use xlink:href="#DejaVuSans-48"/>
      <use xlink:href="#DejaVuSans-75" transform="translate(75.195312 0)"/>
      <use xlink:href="#DejaVuSans-69" transform="translate(138.574219 0)"/>
      <use xlink:href="#DejaVuSans-68" transform="translate(166.357422 0)"/>
      <use xlink:href="#DejaVuSans-75" transform="translate(229.736328 0)"/>
      <use xlink:href="#DejaVuSans-69" transform="translate(293.115234 0)"/>
      <use xlink:href="#DejaVuSans-2d" transform="translate(320.898438 0)"/>
      <use xlink:href="#DejaVuSans-76" transform="translate(354.357422 0)"/>
      <use xlink:href="#DejaVuSans-32" transform="translate(413.537109 0)"/>
     </g>
    </g>
    <g id="patch_112">
     <path d="M 123.869438 51.410625 
L 135.869438 51.410625 
L 135.869438 47.210625 
L 123.869438 47.210625 
z
" style="fill: #3498db; opacity: 0.85; stroke: #ffffff; stroke-linejoin: miter"/>
    </g>
    <g id="text_22">
     <!-- Kasper -->
     <g style="fill: #262626" transform="translate(140.669438 51.410625) scale(0.06 -0.06)">
      <defs>
       <path id="DejaVuSans-4b" d="M 628 4666 
L 1259 4666 
L 1259 2694 
L 3353 4666 
L 4166 4666 
L 1850 2491 
L 4331 0 
L 3500 0 
L 1259 2247 
L 1259 0 
L 628 0 
L 628 4666 
z
" transform="scale(0.015625)"/>
      </defs>
      <use xlink:href="#DejaVuSans-4b"/>
      <use xlink:href="#DejaVuSans-61" transform="translate(63.826172 0)"/>
      <use xlink:href="#DejaVuSans-73" transform="translate(125.105469 0)"/>
      <use xlink:href="#DejaVuSans-70" transform="translate(177.205078 0)"/>
      <use xlink:href="#DejaVuSans-65" transform="translate(240.681641 0)"/>
      <use xlink:href="#DejaVuSans-72" transform="translate(302.205078 0)"/>
     </g>
    </g>
    <g id="patch_113">
     <path d="M 123.869438 60.2175 
L 135.869438 60.2175 
L 135.869438 56.0175 
L 123.869438 56.0175 
z
" style="fill: #2ecc71; opacity: 0.85; stroke: #ffffff; stroke-linejoin: miter"/>
    </g>
    <g id="text_23">
     <!-- LLMFan46 -->
     <g style="fill: #262626" transform="translate(140.669438 60.2175) scale(0.06 -0.06)">
      <defs>
       <path id="DejaVuSans-4c" d="M 628 4666 
L 1259 4666 
L 1259 531 
L 3531 531 
L 3531 0 
L 628 0 
L 628 4666 
z
" transform="scale(0.015625)"/>
       <path id="DejaVuSans-46" d="M 628 4666 
L 3309 4666 
L 3309 4134 
L 1259 4134 
L 1259 2759 
L 3109 2759 
L 3109 2228 
L 1259 2228 
L 1259 0 
L 628 0 
L 628 4666 
z
" transform="scale(0.015625)"/>
      </defs>
      <use xlink:href="#DejaVuSans-4c"/>
      <use xlink:href="#DejaVuSans-4c" transform="translate(55.712891 0)"/>
      <use xlink:href="#DejaVuSans-4d" transform="translate(111.425781 0)"/>
      <use xlink:href="#DejaVuSans-46" transform="translate(197.705078 0)"/>
      <use xlink:href="#DejaVuSans-61" transform="translate(246.099609 0)"/>
      <use xlink:href="#DejaVuSans-6e" transform="translate(307.378906 0)"/>
      <use xlink:href="#DejaVuSans-34" transform="translate(370.757812 0)"/>
      <use xlink:href="#DejaVuSans-36" transform="translate(434.380859 0)"/>
     </g>
    </g>
    <g id="patch_114">
     <path d="M 182.550375 33.796875 
L 194.550375 33.796875 
L 194.550375 29.596875 
L 182.550375 29.596875 
z
" style="fill: #2980b9; opacity: 0.85; stroke: #ffffff; stroke-linejoin: miter"/>
    </g>
    <g id="text_24">
     <!-- PEW -->
     <g style="fill: #262626" transform="translate(199.350375 33.796875) scale(0.06 -0.06)">
      <defs>
       <path id="DejaVuSans-50" d="M 1259 4147 
L 1259 2394 
L 2053 2394 
Q 2494 2394 2734 2622 
Q 2975 2850 2975 3272 
Q 2975 3691 2734 3919 
Q 2494 4147 2053 4147 
L 1259 4147 
z
M 628 4666 
L 2053 4666 
Q 2838 4666 3239 4311 
Q 3641 3956 3641 3272 
Q 3641 2581 3239 2228 
Q 2838 1875 2053 1875 
L 1259 1875 
L 1259 0 
L 628 0 
L 628 4666 
z
" transform="scale(0.015625)"/>
       <path id="DejaVuSans-57" d="M 213 4666 
L 850 4666 
L 1831 722 
L 2809 4666 
L 3519 4666 
L 4500 722 
L 5478 4666 
L 6119 4666 
L 4947 0 
L 4153 0 
L 3169 4050 
L 2175 0 
L 1381 0 
L 213 4666 
z
" transform="scale(0.015625)"/>
      </defs>
      <use xlink:href="#DejaVuSans-50"/>
      <use xlink:href="#DejaVuSans-45" transform="translate(60.302734 0)"/>
      <use xlink:href="#DejaVuSans-57" transform="translate(123.486328 0)"/>
     </g>
    </g>
    <g id="patch_115">
     <path d="M 182.550375 42.60375 
L 194.550375 42.60375 
L 194.550375 38.40375 
L 182.550375 38.40375 
z
" style="fill: #c39bd3; opacity: 0.85; stroke: #ffffff; stroke-linejoin: miter"/>
    </g>
    <g id="text_25">
     <!-- Prithiv -->
     <g style="fill: #262626" transform="translate(199.350375 42.60375) scale(0.06 -0.06)">
      <use xlink:href="#DejaVuSans-50"/>
      <use xlink:href="#DejaVuSans-72" transform="translate(58.552734 0)"/>
      <use xlink:href="#DejaVuSans-69" transform="translate(99.666016 0)"/>
      <use xlink:href="#DejaVuSans-74" transform="translate(127.449219 0)"/>
      <use xlink:href="#DejaVuSans-68" transform="translate(166.658203 0)"/>
      <use xlink:href="#DejaVuSans-69" transform="translate(230.037109 0)"/>
      <use xlink:href="#DejaVuSans-76" transform="translate(257.820312 0)"/>
     </g>
    </g>
    <g id="patch_116">
     <path d="M 182.550375 51.410625 
L 194.550375 51.410625 
L 194.550375 47.210625 
L 182.550375 47.210625 
z
" style="fill: #e74c3c; opacity: 0.85; stroke: #ffffff; stroke-linejoin: miter"/>
    </g>
    <g id="text_26">
     <!-- Treadon -->
     <g style="fill: #262626" transform="translate(199.350375 51.410625) scale(0.06 -0.06)">
      <defs>
       <path id="DejaVuSans-54" d="M -19 4666 
L 3928 4666 
L 3928 4134 
L 2272 4134 
L 2272 0 
L 1638 0 
L 1638 4134 
L -19 4134 
L -19 4666 
z
" transform="scale(0.015625)"/>
      </defs>
      <use xlink:href="#DejaVuSans-54"/>
      <use xlink:href="#DejaVuSans-72" transform="translate(46.333984 0)"/>
      <use xlink:href="#DejaVuSans-65" transform="translate(85.197266 0)"/>
      <use xlink:href="#DejaVuSans-61" transform="translate(146.720703 0)"/>
      <use xlink:href="#DejaVuSans-64" transform="translate(208 0)"/>
      <use xlink:href="#DejaVuSans-6f" transform="translate(271.476562 0)"/>
      <use xlink:href="#DejaVuSans-6e" transform="translate(332.658203 0)"/>
     </g>
    </g>
    <g id="patch_117">
     <path d="M 235.113188 33.796875 
L 247.113188 33.796875 
L 247.113188 29.596875 
L 235.113188 29.596875 
z
" style="fill: #f39c12; opacity: 0.85; stroke: #ffffff; stroke-linejoin: miter"/>
    </g>
    <g id="text_27">
     <!-- TrevorJS -->
     <g style="fill: #262626" transform="translate(251.913188 33.796875) scale(0.06 -0.06)">
      <defs>
       <path id="DejaVuSans-4a" d="M 628 4666 
L 1259 4666 
L 1259 325 
Q 1259 -519 939 -900 
Q 619 -1281 -91 -1281 
L -331 -1281 
L -331 -750 
L -134 -750 
Q 284 -750 456 -515 
Q 628 -281 628 325 
L 628 4666 
z
" transform="scale(0.015625)"/>
      </defs>
      <use xlink:href="#DejaVuSans-54"/>
      <use xlink:href="#DejaVuSans-72" transform="translate(46.333984 0)"/>
      <use xlink:href="#DejaVuSans-65" transform="translate(85.197266 0)"/>
      <use xlink:href="#DejaVuSans-76" transform="translate(146.720703 0)"/>
      <use xlink:href="#DejaVuSans-6f" transform="translate(205.900391 0)"/>
      <use xlink:href="#DejaVuSans-72" transform="translate(267.082031 0)"/>
      <use xlink:href="#DejaVuSans-4a" transform="translate(308.195312 0)"/>
      <use xlink:href="#DejaVuSans-53" transform="translate(337.6875 0)"/>
     </g>
    </g>
    <g id="patch_118">
     <path d="M 235.113188 42.60375 
L 247.113188 42.60375 
L 247.113188 38.40375 
L 235.113188 38.40375 
z
" style="fill: #d35400; opacity: 0.85; stroke: #ffffff; stroke-linejoin: miter"/>
    </g>
    <g id="text_28">
     <!-- Wangzhang -->
     <g style="fill: #262626" transform="translate(251.913188 42.60375) scale(0.06 -0.06)">
      <defs>
       <path id="DejaVuSans-7a" d="M 353 3500 
L 3084 3500 
L 3084 2975 
L 922 459 
L 3084 459 
L 3084 0 
L 275 0 
L 275 525 
L 2438 3041 
L 353 3041 
L 353 3500 
z
" transform="scale(0.015625)"/>
      </defs>
      <use xlink:href="#DejaVuSans-57"/>
      <use xlink:href="#DejaVuSans-61" transform="translate(92.501953 0)"/>
      <use xlink:href="#DejaVuSans-6e" transform="translate(153.78125 0)"/>
      <use xlink:href="#DejaVuSans-67" transform="translate(217.160156 0)"/>
      <use xlink:href="#DejaVuSans-7a" transform="translate(280.636719 0)"/>
      <use xlink:href="#DejaVuSans-68" transform="translate(333.126953 0)"/>
      <use xlink:href="#DejaVuSans-61" transform="translate(396.505859 0)"/>
      <use xlink:href="#DejaVuSans-6e" transform="translate(457.785156 0)"/>
      <use xlink:href="#DejaVuSans-67" transform="translate(521.164062 0)"/>
     </g>
    </g>
    <g id="patch_119">
     <path d="M 235.113188 51.410625 
L 247.113188 51.410625 
L 247.113188 47.210625 
L 235.113188 47.210625 
z
" style="fill: #7f8c8d; opacity: 0.85; stroke: #ffffff; stroke-linejoin: miter"/>
    </g>
    <g id="text_29">
     <!-- WWT CyberLab -->
     <g style="fill: #262626" transform="translate(251.913188 51.410625) scale(0.06 -0.06)">
      <use xlink:href="#DejaVuSans-57"/>
      <use xlink:href="#DejaVuSans-57" transform="translate(98.876953 0)"/>
      <use xlink:href="#DejaVuSans-54" transform="translate(197.753906 0)"/>
      <use xlink:href="#DejaVuSans-20" transform="translate(258.837891 0)"/>
      <use xlink:href="#DejaVuSans-43" transform="translate(290.625 0)"/>
      <use xlink:href="#DejaVuSans-79" transform="translate(360.449219 0)"/>
      <use xlink:href="#DejaVuSans-62" transform="translate(419.628906 0)"/>
      <use xlink:href="#DejaVuSans-65" transform="translate(483.105469 0)"/>
      <use xlink:href="#DejaVuSans-72" transform="translate(544.628906 0)"/>
      <use xlink:href="#DejaVuSans-4c" transform="translate(585.742188 0)"/>
      <use xlink:href="#DejaVuSans-61" transform="translate(641.455078 0)"/>
      <use xlink:href="#DejaVuSans-62" transform="translate(702.734375 0)"/>
     </g>
    </g>
   </g>
  </g>
 </g>
 <defs>
  <clipPath id="p8474fc2730">
   <rect x="56.571" y="23.837812" width="1116" height="443.52"/>
  </clipPath>
 </defs>
</svg>
