<?xml version="1.0" encoding="utf-8" standalone="no"?>
<!DOCTYPE svg PUBLIC "-//W3C//DTD SVG 1.1//EN"
  "http://www.w3.org/Graphics/SVG/1.1/DTD/svg11.dtd">
<svg xmlns:xlink="http://www.w3.org/1999/xlink" width="616.756531pt" height="384.791562pt" viewBox="0 0 616.756531 384.791562" xmlns="http://www.w3.org/2000/svg" version="1.1">
 <metadata>
  <rdf:RDF xmlns:dc="http://purl.org/dc/elements/1.1/" xmlns:cc="http://creativecommons.org/ns#" xmlns:rdf="http://www.w3.org/1999/02/22-rdf-syntax-ns#">
   <cc:Work>
    <dc:type rdf:resource="http://purl.org/dc/dcmitype/StillImage"/>
    <dc:date>2026-04-24T22:09:20.983630</dc:date>
    <dc:format>image/svg+xml</dc:format>
    <dc:creator>
     <cc:Agent>
      <dc:title>Matplotlib v3.10.8, https://matplotlib.org/</dc:title>
     </cc:Agent>
    </dc:creator>
   </cc:Work>
  </rdf:RDF>
 </metadata>
 <defs>
  <style type="text/css">*{stroke-linejoin: round; stroke-linecap: butt}</style>
 </defs>
 <g id="figure_1">
  <g id="patch_1">
   <path d="M 0 384.791562 
L 616.756531 384.791562 
L 616.756531 0 
L 0 0 
z
" style="fill: #ffffff"/>
  </g>
  <g id="axes_1">
   <g id="patch_2">
    <path d="M 51.556531 356.477812 
L 609.556531 356.477812 
L 609.556531 23.837812 
L 51.556531 23.837812 
z
" style="fill: #ffffff"/>
   </g>
   <g id="matplotlib.axis_1">
    <g id="xtick_1">
     <g id="line2d_1">
      <path d="M 127.64744 356.477812 
L 127.64744 23.837812 
" clip-path="url(#p58e5062372)" style="fill: none; stroke: #cccccc; stroke-linecap: round"/>
     </g>
     <g id="text_1">
      <!-- Heretic -->
      <g style="fill: #262626" transform="translate(106.101815 375.095937) scale(0.12 -0.12)">
       <defs>
        <path id="DejaVuSans-48" d="M 628 4666 
L 1259 4666 
L 1259 2753 
L 3553 2753 
L 3553 4666 
L 4184 4666 
L 4184 0 
L 3553 0 
L 3553 2222 
L 1259 2222 
L 1259 0 
L 628 0 
L 628 4666 
z
" transform="scale(0.015625)"/>
        <path id="DejaVuSans-65" d="M 3597 1894 
L 3597 1613 
L 953 1613 
Q 991 1019 1311 708 
Q 1631 397 2203 397 
Q 2534 397 2845 478 
Q 3156 559 3463 722 
L 3463 178 
Q 3153 47 2828 -22 
Q 2503 -91 2169 -91 
Q 1331 -91 842 396 
Q 353 884 353 1716 
Q 353 2575 817 3079 
Q 1281 3584 2069 3584 
Q 2775 3584 3186 3129 
Q 3597 2675 3597 1894 
z
M 3022 2063 
Q 3016 2534 2758 2815 
Q 2500 3097 2075 3097 
Q 1594 3097 1305 2825 
Q 1016 2553 972 2059 
L 3022 2063 
z
" transform="scale(0.015625)"/>
        <path id="DejaVuSans-72" d="M 2631 2963 
Q 2534 3019 2420 3045 
Q 2306 3072 2169 3072 
Q 1681 3072 1420 2755 
Q 1159 2438 1159 1844 
L 1159 0 
L 581 0 
L 581 3500 
L 1159 3500 
L 1159 2956 
Q 1341 3275 1631 3429 
Q 1922 3584 2338 3584 
Q 2397 3584 2469 3576 
Q 2541 3569 2628 3553 
L 2631 2963 
z
" transform="scale(0.015625)"/>
        <path id="DejaVuSans-74" d="M 1172 4494 
L 1172 3500 
L 2356 3500 
L 2356 3053 
L 1172 3053 
L 1172 1153 
Q 1172 725 1289 603 
Q 1406 481 1766 481 
L 2356 481 
L 2356 0 
L 1766 0 
Q 1100 0 847 248 
Q 594 497 594 1153 
L 594 3053 
L 172 3053 
L 172 3500 
L 594 3500 
L 594 4494 
L 1172 4494 
z
" transform="scale(0.015625)"/>
        <path id="DejaVuSans-69" d="M 603 3500 
L 1178 3500 
L 1178 0 
L 603 0 
L 603 3500 
z
M 603 4863 
L 1178 4863 
L 1178 4134 
L 603 4134 
L 603 4863 
z
" transform="scale(0.015625)"/>
        <path id="DejaVuSans-63" d="M 3122 3366 
L 3122 2828 
Q 2878 2963 2633 3030 
Q 2388 3097 2138 3097 
Q 1578 3097 1268 2742 
Q 959 2388 959 1747 
Q 959 1106 1268 751 
Q 1578 397 2138 397 
Q 2388 397 2633 464 
Q 2878 531 3122 666 
L 3122 134 
Q 2881 22 2623 -34 
Q 2366 -91 2075 -91 
Q 1284 -91 818 406 
Q 353 903 353 1747 
Q 353 2603 823 3093 
Q 1294 3584 2113 3584 
Q 2378 3584 2631 3529 
Q 2884 3475 3122 3366 
z
" transform="scale(0.015625)"/>
       </defs>
       <use xlink:href="#DejaVuSans-48"/>
       <use xlink:href="#DejaVuSans-65" transform="translate(75.195312 0)"/>
       <use xlink:href="#DejaVuSans-72" transform="translate(136.71875 0)"/>
       <use xlink:href="#DejaVuSans-65" transform="translate(175.582031 0)"/>
       <use xlink:href="#DejaVuSans-74" transform="translate(237.105469 0)"/>
       <use xlink:href="#DejaVuSans-69" transform="translate(276.314453 0)"/>
       <use xlink:href="#DejaVuSans-63" transform="translate(304.097656 0)"/>
      </g>
     </g>
    </g>
    <g id="xtick_2">
     <g id="line2d_2">
      <path d="M 330.556531 356.477812 
L 330.556531 23.837812 
" clip-path="url(#p58e5062372)" style="fill: none; stroke: #cccccc; stroke-linecap: round"/>
     </g>
     <g id="text_2">
      <!-- HauhauCS -->
      <g style="fill: #262626" transform="translate(299.284344 375.095937) scale(0.12 -0.12)">
       <defs>
        <path id="DejaVuSans-61" d="M 2194 1759 
Q 1497 1759 1228 1600 
Q 959 1441 959 1056 
Q 959 750 1161 570 
Q 1363 391 1709 391 
Q 2188 391 2477 730 
Q 2766 1069 2766 1631 
L 2766 1759 
L 2194 1759 
z
M 3341 1997 
L 3341 0 
L 2766 0 
L 2766 531 
Q 2569 213 2275 61 
Q 1981 -91 1556 -91 
Q 1019 -91 701 211 
Q 384 513 384 1019 
Q 384 1609 779 1909 
Q 1175 2209 1959 2209 
L 2766 2209 
L 2766 2266 
Q 2766 2663 2505 2880 
Q 2244 3097 1772 3097 
Q 1472 3097 1187 3025 
Q 903 2953 641 2809 
L 641 3341 
Q 956 3463 1253 3523 
Q 1550 3584 1831 3584 
Q 2591 3584 2966 3190 
Q 3341 2797 3341 1997 
z
" transform="scale(0.015625)"/>
        <path id="DejaVuSans-75" d="M 544 1381 
L 544 3500 
L 1119 3500 
L 1119 1403 
Q 1119 906 1312 657 
Q 1506 409 1894 409 
Q 2359 409 2629 706 
Q 2900 1003 2900 1516 
L 2900 3500 
L 3475 3500 
L 3475 0 
L 2900 0 
L 2900 538 
Q 2691 219 2414 64 
Q 2138 -91 1772 -91 
Q 1169 -91 856 284 
Q 544 659 544 1381 
z
M 1991 3584 
L 1991 3584 
z
" transform="scale(0.015625)"/>
        <path id="DejaVuSans-68" d="M 3513 2113 
L 3513 0 
L 2938 0 
L 2938 2094 
Q 2938 2591 2744 2837 
Q 2550 3084 2163 3084 
Q 1697 3084 1428 2787 
Q 1159 2491 1159 1978 
L 1159 0 
L 581 0 
L 581 4863 
L 1159 4863 
L 1159 2956 
Q 1366 3272 1645 3428 
Q 1925 3584 2291 3584 
Q 2894 3584 3203 3211 
Q 3513 2838 3513 2113 
z
" transform="scale(0.015625)"/>
        <path id="DejaVuSans-43" d="M 4122 4306 
L 4122 3641 
Q 3803 3938 3442 4084 
Q 3081 4231 2675 4231 
Q 1875 4231 1450 3742 
Q 1025 3253 1025 2328 
Q 1025 1406 1450 917 
Q 1875 428 2675 428 
Q 3081 428 3442 575 
Q 3803 722 4122 1019 
L 4122 359 
Q 3791 134 3420 21 
Q 3050 -91 2638 -91 
Q 1578 -91 968 557 
Q 359 1206 359 2328 
Q 359 3453 968 4101 
Q 1578 4750 2638 4750 
Q 3056 4750 3426 4639 
Q 3797 4528 4122 4306 
z
" transform="scale(0.015625)"/>
        <path id="DejaVuSans-53" d="M 3425 4513 
L 3425 3897 
Q 3066 4069 2747 4153 
Q 2428 4238 2131 4238 
Q 1616 4238 1336 4038 
Q 1056 3838 1056 3469 
Q 1056 3159 1242 3001 
Q 1428 2844 1947 2747 
L 2328 2669 
Q 3034 2534 3370 2195 
Q 3706 1856 3706 1288 
Q 3706 609 3251 259 
Q 2797 -91 1919 -91 
Q 1588 -91 1214 -16 
Q 841 59 441 206 
L 441 856 
Q 825 641 1194 531 
Q 1563 422 1919 422 
Q 2459 422 2753 634 
Q 3047 847 3047 1241 
Q 3047 1584 2836 1778 
Q 2625 1972 2144 2069 
L 1759 2144 
Q 1053 2284 737 2584 
Q 422 2884 422 3419 
Q 422 4038 858 4394 
Q 1294 4750 2059 4750 
Q 2388 4750 2728 4690 
Q 3069 4631 3425 4513 
z
" transform="scale(0.015625)"/>
       </defs>
       <use xlink:href="#DejaVuSans-48"/>
       <use xlink:href="#DejaVuSans-61" transform="translate(75.195312 0)"/>
       <use xlink:href="#DejaVuSans-75" transform="translate(136.474609 0)"/>
       <use xlink:href="#DejaVuSans-68" transform="translate(199.853516 0)"/>
       <use xlink:href="#DejaVuSans-61" transform="translate(263.232422 0)"/>
       <use xlink:href="#DejaVuSans-75" transform="translate(324.511719 0)"/>
       <use xlink:href="#DejaVuSans-43" transform="translate(387.890625 0)"/>
       <use xlink:href="#DejaVuSans-53" transform="translate(457.714844 0)"/>
      </g>
     </g>
    </g>
    <g id="xtick_3">
     <g id="line2d_3">
      <path d="M 533.465622 356.477812 
L 533.465622 23.837812 
" clip-path="url(#p58e5062372)" style="fill: none; stroke: #cccccc; stroke-linecap: round"/>
     </g>
     <g id="text_3">
      <!-- Huihui -->
      <g style="fill: #262626" transform="translate(514.212185 375.095937) scale(0.12 -0.12)">
       <use xlink:href="#DejaVuSans-48"/>
       <use xlink:href="#DejaVuSans-75" transform="translate(75.195312 0)"/>
       <use xlink:href="#DejaVuSans-69" transform="translate(138.574219 0)"/>
       <use xlink:href="#DejaVuSans-68" transform="translate(166.357422 0)"/>
       <use xlink:href="#DejaVuSans-75" transform="translate(229.736328 0)"/>
       <use xlink:href="#DejaVuSans-69" transform="translate(293.115234 0)"/>
      </g>
     </g>
    </g>
   </g>
   <g id="matplotlib.axis_2">
    <g id="ytick_1">
     <g id="line2d_4">
      <path d="M 51.556531 343.15826 
L 609.556531 343.15826 
" clip-path="url(#p58e5062372)" style="fill: none; stroke: #cccccc; stroke-linecap: round"/>
     </g>
     <g id="text_4">
      <!-- 0.0 -->
      <g style="fill: #262626" transform="translate(22.81375 347.755314) scale(0.121 -0.121)">
       <defs>
        <path id="DejaVuSans-30" d="M 2034 4250 
Q 1547 4250 1301 3770 
Q 1056 3291 1056 2328 
Q 1056 1369 1301 889 
Q 1547 409 2034 409 
Q 2525 409 2770 889 
Q 3016 1369 3016 2328 
Q 3016 3291 2770 3770 
Q 2525 4250 2034 4250 
z
M 2034 4750 
Q 2819 4750 3233 4129 
Q 3647 3509 3647 2328 
Q 3647 1150 3233 529 
Q 2819 -91 2034 -91 
Q 1250 -91 836 529 
Q 422 1150 422 2328 
Q 422 3509 836 4129 
Q 1250 4750 2034 4750 
z
" transform="scale(0.015625)"/>
        <path id="DejaVuSans-2e" d="M 684 794 
L 1344 794 
L 1344 0 
L 684 0 
L 684 794 
z
" transform="scale(0.015625)"/>
       </defs>
       <use xlink:href="#DejaVuSans-30"/>
       <use xlink:href="#DejaVuSans-2e" transform="translate(63.623047 0)"/>
       <use xlink:href="#DejaVuSans-30" transform="translate(95.410156 0)"/>
      </g>
     </g>
    </g>
    <g id="ytick_2">
     <g id="line2d_5">
      <path d="M 51.556531 272.146415 
L 609.556531 272.146415 
" clip-path="url(#p58e5062372)" style="fill: none; stroke: #cccccc; stroke-linecap: round"/>
     </g>
     <g id="text_5">
      <!-- 0.5 -->
      <g style="fill: #262626" transform="translate(22.81375 276.74347) scale(0.121 -0.121)">
       <defs>
        <path id="DejaVuSans-35" d="M 691 4666 
L 3169 4666 
L 3169 4134 
L 1269 4134 
L 1269 2991 
Q 1406 3038 1543 3061 
Q 1681 3084 1819 3084 
Q 2600 3084 3056 2656 
Q 3513 2228 3513 1497 
Q 3513 744 3044 326 
Q 2575 -91 1722 -91 
Q 1428 -91 1123 -41 
Q 819 9 494 109 
L 494 744 
Q 775 591 1075 516 
Q 1375 441 1709 441 
Q 2250 441 2565 725 
Q 2881 1009 2881 1497 
Q 2881 1984 2565 2268 
Q 2250 2553 1709 2553 
Q 1456 2553 1204 2497 
Q 953 2441 691 2322 
L 691 4666 
z
" transform="scale(0.015625)"/>
       </defs>
       <use xlink:href="#DejaVuSans-30"/>
       <use xlink:href="#DejaVuSans-2e" transform="translate(63.623047 0)"/>
       <use xlink:href="#DejaVuSans-35" transform="translate(95.410156 0)"/>
      </g>
     </g>
    </g>
    <g id="ytick_3">
     <g id="line2d_6">
      <path d="M 51.556531 201.13457 
L 609.556531 201.13457 
" clip-path="url(#p58e5062372)" style="fill: none; stroke: #cccccc; stroke-linecap: round"/>
     </g>
     <g id="text_6">
      <!-- 1.0 -->
      <g style="fill: #262626" transform="translate(22.81375 205.731625) scale(0.121 -0.121)">
       <defs>
        <path id="DejaVuSans-31" d="M 794 531 
L 1825 531 
L 1825 4091 
L 703 3866 
L 703 4441 
L 1819 4666 
L 2450 4666 
L 2450 531 
L 3481 531 
L 3481 0 
L 794 0 
L 794 531 
z
" transform="scale(0.015625)"/>
       </defs>
       <use xlink:href="#DejaVuSans-31"/>
       <use xlink:href="#DejaVuSans-2e" transform="translate(63.623047 0)"/>
       <use xlink:href="#DejaVuSans-30" transform="translate(95.410156 0)"/>
      </g>
     </g>
    </g>
    <g id="ytick_4">
     <g id="line2d_7">
      <path d="M 51.556531 130.122726 
L 609.556531 130.122726 
" clip-path="url(#p58e5062372)" style="fill: none; stroke: #cccccc; stroke-linecap: round"/>
     </g>
     <g id="text_7">
      <!-- 1.5 -->
      <g style="fill: #262626" transform="translate(22.81375 134.719781) scale(0.121 -0.121)">
       <use xlink:href="#DejaVuSans-31"/>
       <use xlink:href="#DejaVuSans-2e" transform="translate(63.623047 0)"/>
       <use xlink:href="#DejaVuSans-35" transform="translate(95.410156 0)"/>
      </g>
     </g>
    </g>
    <g id="ytick_5">
     <g id="line2d_8">
      <path d="M 51.556531 59.110881 
L 609.556531 59.110881 
" clip-path="url(#p58e5062372)" style="fill: none; stroke: #cccccc; stroke-linecap: round"/>
     </g>
     <g id="text_8">
      <!-- 2.0 -->
      <g style="fill: #262626" transform="translate(22.81375 63.707936) scale(0.121 -0.121)">
       <defs>
        <path id="DejaVuSans-32" d="M 1228 531 
L 3431 531 
L 3431 0 
L 469 0 
L 469 531 
Q 828 903 1448 1529 
Q 2069 2156 2228 2338 
Q 2531 2678 2651 2914 
Q 2772 3150 2772 3378 
Q 2772 3750 2511 3984 
Q 2250 4219 1831 4219 
Q 1534 4219 1204 4116 
Q 875 4013 500 3803 
L 500 4441 
Q 881 4594 1212 4672 
Q 1544 4750 1819 4750 
Q 2544 4750 2975 4387 
Q 3406 4025 3406 3419 
Q 3406 3131 3298 2873 
Q 3191 2616 2906 2266 
Q 2828 2175 2409 1742 
Q 1991 1309 1228 531 
z
" transform="scale(0.015625)"/>
       </defs>
       <use xlink:href="#DejaVuSans-32"/>
       <use xlink:href="#DejaVuSans-2e" transform="translate(63.623047 0)"/>
       <use xlink:href="#DejaVuSans-30" transform="translate(95.410156 0)"/>
      </g>
     </g>
    </g>
    <g id="text_9">
     <!-- Edit Norm -->
     <g style="fill: #262626" transform="translate(16.318125 220.05) rotate(-90) scale(0.12 -0.12)">
      <defs>
       <path id="DejaVuSans-45" d="M 628 4666 
L 3578 4666 
L 3578 4134 
L 1259 4134 
L 1259 2753 
L 3481 2753 
L 3481 2222 
L 1259 2222 
L 1259 531 
L 3634 531 
L 3634 0 
L 628 0 
L 628 4666 
z
" transform="scale(0.015625)"/>
       <path id="DejaVuSans-64" d="M 2906 2969 
L 2906 4863 
L 3481 4863 
L 3481 0 
L 2906 0 
L 2906 525 
Q 2725 213 2448 61 
Q 2172 -91 1784 -91 
Q 1150 -91 751 415 
Q 353 922 353 1747 
Q 353 2572 751 3078 
Q 1150 3584 1784 3584 
Q 2172 3584 2448 3432 
Q 2725 3281 2906 2969 
z
M 947 1747 
Q 947 1113 1208 752 
Q 1469 391 1925 391 
Q 2381 391 2643 752 
Q 2906 1113 2906 1747 
Q 2906 2381 2643 2742 
Q 2381 3103 1925 3103 
Q 1469 3103 1208 2742 
Q 947 2381 947 1747 
z
" transform="scale(0.015625)"/>
       <path id="DejaVuSans-20" transform="scale(0.015625)"/>
       <path id="DejaVuSans-4e" d="M 628 4666 
L 1478 4666 
L 3547 763 
L 3547 4666 
L 4159 4666 
L 4159 0 
L 3309 0 
L 1241 3903 
L 1241 0 
L 628 0 
L 628 4666 
z
" transform="scale(0.015625)"/>
       <path id="DejaVuSans-6f" d="M 1959 3097 
Q 1497 3097 1228 2736 
Q 959 2375 959 1747 
Q 959 1119 1226 758 
Q 1494 397 1959 397 
Q 2419 397 2687 759 
Q 2956 1122 2956 1747 
Q 2956 2369 2687 2733 
Q 2419 3097 1959 3097 
z
M 1959 3584 
Q 2709 3584 3137 3096 
Q 3566 2609 3566 1747 
Q 3566 888 3137 398 
Q 2709 -91 1959 -91 
Q 1206 -91 779 398 
Q 353 888 353 1747 
Q 353 2609 779 3096 
Q 1206 3584 1959 3584 
z
" transform="scale(0.015625)"/>
       <path id="DejaVuSans-6d" d="M 3328 2828 
Q 3544 3216 3844 3400 
Q 4144 3584 4550 3584 
Q 5097 3584 5394 3201 
Q 5691 2819 5691 2113 
L 5691 0 
L 5113 0 
L 5113 2094 
Q 5113 2597 4934 2840 
Q 4756 3084 4391 3084 
Q 3944 3084 3684 2787 
Q 3425 2491 3425 1978 
L 3425 0 
L 2847 0 
L 2847 2094 
Q 2847 2600 2669 2842 
Q 2491 3084 2119 3084 
Q 1678 3084 1418 2786 
Q 1159 2488 1159 1978 
L 1159 0 
L 581 0 
L 581 3500 
L 1159 3500 
L 1159 2956 
Q 1356 3278 1631 3431 
Q 1906 3584 2284 3584 
Q 2666 3584 2933 3390 
Q 3200 3197 3328 2828 
z
" transform="scale(0.015625)"/>
      </defs>
      <use xlink:href="#DejaVuSans-45"/>
      <use xlink:href="#DejaVuSans-64" transform="translate(63.183594 0)"/>
      <use xlink:href="#DejaVuSans-69" transform="translate(126.660156 0)"/>
      <use xlink:href="#DejaVuSans-74" transform="translate(154.443359 0)"/>
      <use xlink:href="#DejaVuSans-20" transform="translate(193.652344 0)"/>
      <use xlink:href="#DejaVuSans-4e" transform="translate(225.439453 0)"/>
      <use xlink:href="#DejaVuSans-6f" transform="translate(300.244141 0)"/>
      <use xlink:href="#DejaVuSans-72" transform="translate(361.425781 0)"/>
      <use xlink:href="#DejaVuSans-6d" transform="translate(400.789062 0)"/>
     </g>
    </g>
   </g>
   <g id="FillBetweenPolyCollection_1">
    <defs>
     <path id="m4260f600a7" d="M 178.342328 -43.43375 
L 76.952552 -43.43375 
L 76.920168 -44.873305 
L 77.012174 -46.312859 
L 77.227133 -47.752414 
L 77.562603 -49.191969 
L 78.015167 -50.631523 
L 78.580467 -52.071078 
L 79.253254 -53.510632 
L 80.027445 -54.950187 
L 80.896192 -56.389742 
L 81.851954 -57.829296 
L 82.886588 -59.268851 
L 83.991431 -60.708406 
L 85.157396 -62.14796 
L 86.375065 -63.587515 
L 87.63479 -65.027069 
L 88.926786 -66.466624 
L 90.241226 -67.906179 
L 91.568335 -69.345733 
L 92.898475 -70.785288 
L 94.222228 -72.224843 
L 95.530472 -73.664397 
L 96.81445 -75.103952 
L 98.065831 -76.543507 
L 99.276762 -77.983061 
L 100.439913 -79.422616 
L 101.548517 -80.86217 
L 102.596392 -82.301725 
L 103.577964 -83.74128 
L 104.488281 -85.180834 
L 105.323014 -86.620389 
L 106.078456 -88.059944 
L 106.751518 -89.499498 
L 107.339711 -90.939053 
L 107.841131 -92.378607 
L 108.254441 -93.818162 
L 108.578839 -95.257717 
L 108.814042 -96.697271 
L 108.960252 -98.136826 
L 109.01813 -99.576381 
L 108.98877 -101.015935 
L 108.87367 -102.45549 
L 108.674707 -103.895044 
L 108.394109 -105.334599 
L 108.034439 -106.774154 
L 107.598566 -108.213708 
L 107.08965 -109.653263 
L 106.511123 -111.092818 
L 105.866672 -112.532372 
L 105.160229 -113.971927 
L 104.395952 -115.411482 
L 103.578219 -116.851036 
L 102.711613 -118.290591 
L 101.800911 -119.730145 
L 100.851076 -121.1697 
L 99.867242 -122.609255 
L 98.854704 -124.048809 
L 97.818904 -125.488364 
L 96.765416 -126.927919 
L 95.699929 -128.367473 
L 94.628228 -129.807028 
L 93.556175 -131.246582 
L 92.489682 -132.686137 
L 91.434689 -134.125692 
L 90.397136 -135.565246 
L 89.382932 -137.004801 
L 88.397924 -138.444356 
L 87.447863 -139.88391 
L 86.538369 -141.323465 
L 85.6749 -142.76302 
L 84.862706 -144.202574 
L 84.106804 -145.642129 
L 83.411934 -147.081683 
L 82.782527 -148.521238 
L 82.222669 -149.960793 
L 81.736073 -151.400347 
L 81.326045 -152.839902 
L 80.99546 -154.279457 
L 80.746737 -155.719011 
L 80.581821 -157.158566 
L 80.502162 -158.59812 
L 80.508708 -160.037675 
L 80.601897 -161.47723 
L 80.781649 -162.916784 
L 81.047376 -164.356339 
L 81.397979 -165.795894 
L 81.831869 -167.235448 
L 82.346973 -168.675003 
L 82.94076 -170.114558 
L 83.610263 -171.554112 
L 84.352108 -172.993667 
L 85.162543 -174.433221 
L 86.037472 -175.872776 
L 86.972497 -177.312331 
L 87.962951 -178.751885 
L 89.003942 -180.19144 
L 90.090394 -181.630995 
L 91.217093 -183.070549 
L 92.378723 -184.510104 
L 93.569919 -185.949658 
L 161.724962 -185.949658 
L 161.724962 -185.949658 
L 162.916157 -184.510104 
L 164.077788 -183.070549 
L 165.204486 -181.630995 
L 166.290939 -180.19144 
L 167.33193 -178.751885 
L 168.322383 -177.312331 
L 169.257408 -175.872776 
L 170.132338 -174.433221 
L 170.942772 -172.993667 
L 171.684617 -171.554112 
L 172.354121 -170.114558 
L 172.947908 -168.675003 
L 173.463012 -167.235448 
L 173.896901 -165.795894 
L 174.247505 -164.356339 
L 174.513232 -162.916784 
L 174.692984 -161.47723 
L 174.786172 -160.037675 
L 174.792719 -158.59812 
L 174.71306 -157.158566 
L 174.548143 -155.719011 
L 174.299421 -154.279457 
L 173.968836 -152.839902 
L 173.558808 -151.400347 
L 173.072212 -149.960793 
L 172.512354 -148.521238 
L 171.882946 -147.081683 
L 171.188076 -145.642129 
L 170.432174 -144.202574 
L 169.619981 -142.76302 
L 168.756511 -141.323465 
L 167.847018 -139.88391 
L 166.896957 -138.444356 
L 165.911948 -137.004801 
L 164.897744 -135.565246 
L 163.860192 -134.125692 
L 162.805199 -132.686137 
L 161.738706 -131.246582 
L 160.666652 -129.807028 
L 159.594952 -128.367473 
L 158.529465 -126.927919 
L 157.475977 -125.488364 
L 156.440177 -124.048809 
L 155.427639 -122.609255 
L 154.443805 -121.1697 
L 153.49397 -119.730145 
L 152.583268 -118.290591 
L 151.716661 -116.851036 
L 150.898929 -115.411482 
L 150.134652 -113.971927 
L 149.428209 -112.532372 
L 148.783758 -111.092818 
L 148.20523 -109.653263 
L 147.696314 -108.213708 
L 147.260441 -106.774154 
L 146.900771 -105.334599 
L 146.620174 -103.895044 
L 146.42121 -102.45549 
L 146.30611 -101.015935 
L 146.276751 -99.576381 
L 146.334629 -98.136826 
L 146.480838 -96.697271 
L 146.716041 -95.257717 
L 147.04044 -93.818162 
L 147.453749 -92.378607 
L 147.95517 -90.939053 
L 148.543363 -89.499498 
L 149.216424 -88.059944 
L 149.971867 -86.620389 
L 150.806599 -85.180834 
L 151.716916 -83.74128 
L 152.698489 -82.301725 
L 153.746364 -80.86217 
L 154.854968 -79.422616 
L 156.018119 -77.983061 
L 157.22905 -76.543507 
L 158.48043 -75.103952 
L 159.764408 -73.664397 
L 161.072652 -72.224843 
L 162.396405 -70.785288 
L 163.726545 -69.345733 
L 165.053654 -67.906179 
L 166.368095 -66.466624 
L 167.660091 -65.027069 
L 168.919816 -63.587515 
L 170.137485 -62.14796 
L 171.303449 -60.708406 
L 172.408292 -59.268851 
L 173.442926 -57.829296 
L 174.398689 -56.389742 
L 175.267435 -54.950187 
L 176.041626 -53.510632 
L 176.714414 -52.071078 
L 177.279714 -50.631523 
L 177.732277 -49.191969 
L 178.067747 -47.752414 
L 178.282706 -46.312859 
L 178.374713 -44.873305 
L 178.342328 -43.43375 
z
" style="stroke: #ffffff; stroke-opacity: 0.7"/>
    </defs>
    <g clip-path="url(#p58e5062372)">
     <use xlink:href="#m4260f600a7" x="0" y="384.791562" style="fill: #3498db; fill-opacity: 0.7; stroke: #ffffff; stroke-opacity: 0.7"/>
    </g>
   </g>
   <g id="FillBetweenPolyCollection_2">
    <defs>
     <path id="me54d9da3e8" d="M 369.06052 -43.43375 
L 292.052542 -43.43375 
L 291.475131 -46.488295 
L 291.071056 -49.542841 
L 290.829316 -52.597386 
L 290.734247 -55.651932 
L 290.766062 -58.706477 
L 290.901542 -61.761023 
L 291.11486 -64.815568 
L 291.378494 -67.870114 
L 291.664195 -70.924659 
L 291.943965 -73.979205 
L 292.191009 -77.03375 
L 292.380627 -80.088295 
L 292.491005 -83.142841 
L 292.503889 -86.197386 
L 292.405129 -89.251932 
L 292.185054 -92.306477 
L 291.838713 -95.361023 
L 291.365943 -98.415568 
L 290.771303 -101.470114 
L 290.06386 -104.524659 
L 289.256857 -107.579205 
L 288.367273 -110.63375 
L 287.415289 -113.688295 
L 286.423684 -116.742841 
L 285.417176 -119.797386 
L 284.421727 -122.851932 
L 283.463827 -125.906477 
L 282.569784 -128.961023 
L 281.765022 -132.015568 
L 281.073413 -135.070114 
L 280.516669 -138.124659 
L 280.113785 -141.179205 
L 279.880567 -144.23375 
L 279.829259 -147.288295 
L 279.968258 -150.342841 
L 280.301959 -153.397386 
L 280.830695 -156.451932 
L 281.550811 -159.506477 
L 282.454837 -162.561023 
L 283.531778 -165.615568 
L 284.767488 -168.670114 
L 286.145128 -171.724659 
L 287.645684 -174.779205 
L 289.248525 -177.83375 
L 290.931978 -180.888295 
L 292.673908 -183.942841 
L 294.452266 -186.997386 
L 296.245607 -190.051932 
L 298.033546 -193.106477 
L 299.797151 -196.161023 
L 301.519255 -199.215568 
L 303.184698 -202.270114 
L 304.780483 -205.324659 
L 306.295855 -208.379205 
L 307.722316 -211.43375 
L 309.053572 -214.488295 
L 310.285434 -217.542841 
L 311.415671 -220.597386 
L 312.44384 -223.651932 
L 313.371091 -226.706477 
L 314.199961 -229.761023 
L 314.934173 -232.815568 
L 315.578433 -235.870114 
L 316.138235 -238.924659 
L 316.619687 -241.979205 
L 317.029348 -245.03375 
L 317.374084 -248.088295 
L 317.660937 -251.142841 
L 317.897014 -254.197386 
L 318.089395 -257.251932 
L 318.245044 -260.306477 
L 318.37074 -263.361023 
L 318.473018 -266.415568 
L 318.558115 -269.470114 
L 318.631925 -272.524659 
L 318.699962 -275.579205 
L 318.767326 -278.63375 
L 318.838674 -281.688295 
L 318.918198 -284.742841 
L 319.009605 -287.797386 
L 319.116103 -290.851932 
L 319.24039 -293.906477 
L 319.38465 -296.961023 
L 319.550556 -300.015568 
L 319.739273 -303.070114 
L 319.95147 -306.124659 
L 320.18734 -309.179205 
L 320.446622 -312.23375 
L 320.728627 -315.288295 
L 321.032273 -318.342841 
L 321.356123 -321.397386 
L 321.698422 -324.451932 
L 322.057142 -327.506477 
L 322.430028 -330.561023 
L 322.814643 -333.615568 
L 323.208415 -336.670114 
L 323.608683 -339.724659 
L 324.012744 -342.779205 
L 324.417894 -345.83375 
L 336.695168 -345.83375 
L 336.695168 -345.83375 
L 337.100319 -342.779205 
L 337.504379 -339.724659 
L 337.904647 -336.670114 
L 338.298419 -333.615568 
L 338.683034 -330.561023 
L 339.05592 -327.506477 
L 339.414641 -324.451932 
L 339.756939 -321.397386 
L 340.080789 -318.342841 
L 340.384436 -315.288295 
L 340.666441 -312.23375 
L 340.925723 -309.179205 
L 341.161593 -306.124659 
L 341.37379 -303.070114 
L 341.562506 -300.015568 
L 341.728412 -296.961023 
L 341.872673 -293.906477 
L 341.996959 -290.851932 
L 342.103457 -287.797386 
L 342.194864 -284.742841 
L 342.274389 -281.688295 
L 342.345737 -278.63375 
L 342.4131 -275.579205 
L 342.481137 -272.524659 
L 342.554947 -269.470114 
L 342.640044 -266.415568 
L 342.742322 -263.361023 
L 342.868018 -260.306477 
L 343.023667 -257.251932 
L 343.216048 -254.197386 
L 343.452126 -251.142841 
L 343.738978 -248.088295 
L 344.083714 -245.03375 
L 344.493376 -241.979205 
L 344.974828 -238.924659 
L 345.53463 -235.870114 
L 346.178889 -232.815568 
L 346.913102 -229.761023 
L 347.741972 -226.706477 
L 348.669222 -223.651932 
L 349.697391 -220.597386 
L 350.827628 -217.542841 
L 352.05949 -214.488295 
L 353.390747 -211.43375 
L 354.817207 -208.379205 
L 356.332579 -205.324659 
L 357.928364 -202.270114 
L 359.593808 -199.215568 
L 361.315912 -196.161023 
L 363.079516 -193.106477 
L 364.867456 -190.051932 
L 366.660797 -186.997386 
L 368.439155 -183.942841 
L 370.181084 -180.888295 
L 371.864538 -177.83375 
L 373.467379 -174.779205 
L 374.967935 -171.724659 
L 376.345575 -168.670114 
L 377.581285 -165.615568 
L 378.658226 -162.561023 
L 379.562252 -159.506477 
L 380.282367 -156.451932 
L 380.811104 -153.397386 
L 381.144804 -150.342841 
L 381.283804 -147.288295 
L 381.232495 -144.23375 
L 380.999278 -141.179205 
L 380.596393 -138.124659 
L 380.039649 -135.070114 
L 379.348041 -132.015568 
L 378.543278 -128.961023 
L 377.649235 -125.906477 
L 376.691336 -122.851932 
L 375.695886 -119.797386 
L 374.689378 -116.742841 
L 373.697774 -113.688295 
L 372.74579 -110.63375 
L 371.856206 -107.579205 
L 371.049203 -104.524659 
L 370.34176 -101.470114 
L 369.747119 -98.415568 
L 369.27435 -95.361023 
L 368.928008 -92.306477 
L 368.707934 -89.251932 
L 368.609173 -86.197386 
L 368.622058 -83.142841 
L 368.732435 -80.088295 
L 368.922053 -77.03375 
L 369.169098 -73.979205 
L 369.448868 -70.924659 
L 369.734569 -67.870114 
L 369.998203 -64.815568 
L 370.211521 -61.761023 
L 370.347001 -58.706477 
L 370.378815 -55.651932 
L 370.283746 -52.597386 
L 370.042006 -49.542841 
L 369.637932 -46.488295 
L 369.06052 -43.43375 
z
" style="stroke: #ffffff; stroke-opacity: 0.7"/>
    </defs>
    <g clip-path="url(#p58e5062372)">
     <use xlink:href="#me54d9da3e8" x="0" y="384.791562" style="fill: #e74c3c; fill-opacity: 0.7; stroke: #ffffff; stroke-opacity: 0.7"/>
    </g>
   </g>
   <g id="FillBetweenPolyCollection_3">
    <defs>
     <path id="mc2f8669d3d" d="M 547.058527 -111.957683 
L 519.872717 -111.957683 
L 519.011129 -112.48326 
L 518.148076 -113.008838 
L 517.285228 -113.534415 
L 516.423696 -114.059993 
L 515.564074 -114.58557 
L 514.706519 -115.111148 
L 513.850859 -115.636725 
L 512.996728 -116.162303 
L 512.143727 -116.68788 
L 511.291582 -117.213458 
L 510.440308 -117.739035 
L 509.590366 -118.264613 
L 508.742789 -118.79019 
L 507.899279 -119.315768 
L 507.062262 -119.841345 
L 506.234893 -120.366923 
L 505.420998 -120.8925 
L 504.624969 -121.418078 
L 503.851589 -121.943655 
L 503.105812 -122.469233 
L 502.392489 -122.99481 
L 501.71607 -123.520388 
L 501.080279 -124.045965 
L 500.487797 -124.571543 
L 499.93996 -125.09712 
L 499.436507 -125.622698 
L 498.975386 -126.148275 
L 498.552644 -126.673853 
L 498.162419 -127.19943 
L 497.797039 -127.725008 
L 497.447234 -128.250585 
L 497.102459 -128.776163 
L 496.751324 -129.30174 
L 496.382101 -129.827318 
L 495.983297 -130.352895 
L 495.544261 -130.878473 
L 495.055782 -131.40405 
L 494.510666 -131.929628 
L 493.904229 -132.455205 
L 493.234706 -132.980783 
L 492.503524 -133.50636 
L 491.715435 -134.031938 
L 490.878495 -134.557515 
L 490.003884 -135.083093 
L 489.105583 -135.60867 
L 488.199905 -136.134248 
L 487.304935 -136.659825 
L 486.439877 -137.185403 
L 485.62436 -137.71098 
L 484.877738 -138.236558 
L 484.218411 -138.762135 
L 483.663206 -139.287713 
L 483.226844 -139.81329 
L 482.921514 -140.338868 
L 482.756569 -140.864445 
L 482.738349 -141.390023 
L 482.870137 -141.9156 
L 483.152228 -142.441178 
L 483.582108 -142.966755 
L 484.15473 -143.492333 
L 484.862837 -144.01791 
L 485.697354 -144.543488 
L 486.64778 -145.069065 
L 487.702594 -145.594643 
L 488.849639 -146.12022 
L 490.076466 -146.645798 
L 491.370647 -147.171375 
L 492.72002 -147.696953 
L 494.112892 -148.22253 
L 495.538184 -148.748108 
L 496.985525 -149.273685 
L 498.445305 -149.799263 
L 499.908698 -150.32484 
L 501.367647 -150.850418 
L 502.814851 -151.375995 
L 504.243724 -151.901573 
L 505.64837 -152.42715 
L 507.023549 -152.952728 
L 508.364656 -153.478305 
L 509.667711 -154.003883 
L 510.929353 -154.52946 
L 512.146838 -155.055038 
L 513.318051 -155.580615 
L 514.441503 -156.106193 
L 515.516337 -156.63177 
L 516.542312 -157.157348 
L 517.519789 -157.682925 
L 518.449687 -158.208503 
L 519.333439 -158.73408 
L 520.17292 -159.259658 
L 520.970365 -159.785235 
L 521.728278 -160.310813 
L 522.449333 -160.83639 
L 523.136263 -161.361968 
L 523.791765 -161.887545 
L 524.418399 -162.413123 
L 525.018507 -162.9387 
L 525.594137 -163.464278 
L 526.146999 -163.989855 
L 540.784245 -163.989855 
L 540.784245 -163.989855 
L 541.337108 -163.464278 
L 541.912738 -162.9387 
L 542.512845 -162.413123 
L 543.139479 -161.887545 
L 543.794981 -161.361968 
L 544.481912 -160.83639 
L 545.202966 -160.310813 
L 545.96088 -159.785235 
L 546.758325 -159.259658 
L 547.597805 -158.73408 
L 548.481557 -158.208503 
L 549.411456 -157.682925 
L 550.388932 -157.157348 
L 551.414907 -156.63177 
L 552.489741 -156.106193 
L 553.613193 -155.580615 
L 554.784406 -155.055038 
L 556.001891 -154.52946 
L 557.263533 -154.003883 
L 558.566588 -153.478305 
L 559.907696 -152.952728 
L 561.282874 -152.42715 
L 562.68752 -151.901573 
L 564.116394 -151.375995 
L 565.563597 -150.850418 
L 567.022547 -150.32484 
L 568.485939 -149.799263 
L 569.945719 -149.273685 
L 571.39306 -148.748108 
L 572.818352 -148.22253 
L 574.211225 -147.696953 
L 575.560597 -147.171375 
L 576.854778 -146.645798 
L 578.081606 -146.12022 
L 579.22865 -145.594643 
L 580.283464 -145.069065 
L 581.23389 -144.543488 
L 582.068407 -144.01791 
L 582.776515 -143.492333 
L 583.349136 -142.966755 
L 583.779017 -142.441178 
L 584.061107 -141.9156 
L 584.192895 -141.390023 
L 584.174675 -140.864445 
L 584.00973 -140.338868 
L 583.704401 -139.81329 
L 583.268039 -139.287713 
L 582.712834 -138.762135 
L 582.053506 -138.236558 
L 581.306885 -137.71098 
L 580.491368 -137.185403 
L 579.626309 -136.659825 
L 578.73134 -136.134248 
L 577.825662 -135.60867 
L 576.92736 -135.083093 
L 576.052749 -134.557515 
L 575.215809 -134.031938 
L 574.42772 -133.50636 
L 573.696538 -132.980783 
L 573.027015 -132.455205 
L 572.420579 -131.929628 
L 571.875462 -131.40405 
L 571.386984 -130.878473 
L 570.947947 -130.352895 
L 570.549144 -129.827318 
L 570.179921 -129.30174 
L 569.828785 -128.776163 
L 569.484011 -128.250585 
L 569.134205 -127.725008 
L 568.768825 -127.19943 
L 568.3786 -126.673853 
L 567.955858 -126.148275 
L 567.494737 -125.622698 
L 566.991284 -125.09712 
L 566.443448 -124.571543 
L 565.850965 -124.045965 
L 565.215174 -123.520388 
L 564.538755 -122.99481 
L 563.825432 -122.469233 
L 563.079655 -121.943655 
L 562.306275 -121.418078 
L 561.510246 -120.8925 
L 560.696352 -120.366923 
L 559.868982 -119.841345 
L 559.031966 -119.315768 
L 558.188456 -118.79019 
L 557.340878 -118.264613 
L 556.490936 -117.739035 
L 555.639663 -117.213458 
L 554.787517 -116.68788 
L 553.934516 -116.162303 
L 553.080386 -115.636725 
L 552.224725 -115.111148 
L 551.36717 -114.58557 
L 550.507548 -114.059993 
L 549.646017 -113.534415 
L 548.783169 -113.008838 
L 547.920115 -112.48326 
L 547.058527 -111.957683 
z
" style="stroke: #ffffff; stroke-opacity: 0.7"/>
    </defs>
    <g clip-path="url(#p58e5062372)">
     <use xlink:href="#mc2f8669d3d" x="0" y="384.791562" style="fill: #2ecc71; fill-opacity: 0.7; stroke: #ffffff; stroke-opacity: 0.7"/>
    </g>
   </g>
   <g id="LineCollection_1">
    <path d="M 102.283804 281.098266 
L 153.011077 281.098266 
" clip-path="url(#p58e5062372)" style="fill: none; stroke: #4878d0; stroke-width: 1.5"/>
    <path d="M 305.192895 248.708978 
L 355.920168 248.708978 
" clip-path="url(#p58e5062372)" style="fill: none; stroke: #4878d0; stroke-width: 1.5"/>
    <path d="M 508.101986 248.149743 
L 558.829259 248.149743 
" clip-path="url(#p58e5062372)" style="fill: none; stroke: #4878d0; stroke-width: 1.5"/>
   </g>
   <g id="LineCollection_2">
    <path d="M 102.283804 198.841904 
L 153.011077 198.841904 
" clip-path="url(#p58e5062372)" style="fill: none; stroke: #4878d0; stroke-width: 1.5"/>
    <path d="M 305.192895 38.957812 
L 355.920168 38.957812 
" clip-path="url(#p58e5062372)" style="fill: none; stroke: #4878d0; stroke-width: 1.5"/>
    <path d="M 508.101986 220.801707 
L 558.829259 220.801707 
" clip-path="url(#p58e5062372)" style="fill: none; stroke: #4878d0; stroke-width: 1.5"/>
   </g>
   <g id="LineCollection_3">
    <path d="M 102.283804 341.357813 
L 153.011077 341.357813 
" clip-path="url(#p58e5062372)" style="fill: none; stroke: #4878d0; stroke-width: 1.5"/>
    <path d="M 305.192895 341.357813 
L 355.920168 341.357813 
" clip-path="url(#p58e5062372)" style="fill: none; stroke: #4878d0; stroke-width: 1.5"/>
    <path d="M 508.101986 272.83388 
L 558.829259 272.83388 
" clip-path="url(#p58e5062372)" style="fill: none; stroke: #4878d0; stroke-width: 1.5"/>
   </g>
   <g id="LineCollection_4">
    <path d="M 127.64744 341.357813 
L 127.64744 198.841904 
" clip-path="url(#p58e5062372)" style="fill: none; stroke: #4878d0; stroke-width: 1.5"/>
    <path d="M 330.556531 341.357813 
L 330.556531 38.957812 
" clip-path="url(#p58e5062372)" style="fill: none; stroke: #4878d0; stroke-width: 1.5"/>
    <path d="M 533.465622 272.83388 
L 533.465622 220.801707 
" clip-path="url(#p58e5062372)" style="fill: none; stroke: #4878d0; stroke-width: 1.5"/>
   </g>
   <g id="LineCollection_5">
    <path d="M 102.283804 268.446539 
L 153.011077 268.446539 
" clip-path="url(#p58e5062372)" style="fill: none; stroke: #4878d0; stroke-width: 1.5"/>
    <path d="M 305.192895 242.219699 
L 355.920168 242.219699 
" clip-path="url(#p58e5062372)" style="fill: none; stroke: #4878d0; stroke-width: 1.5"/>
    <path d="M 508.101986 246.820816 
L 558.829259 246.820816 
" clip-path="url(#p58e5062372)" style="fill: none; stroke: #4878d0; stroke-width: 1.5"/>
   </g>
   <g id="patch_3">
    <path d="M 51.556531 356.477813 
L 51.556531 23.837812 
" style="fill: none; stroke: #cccccc; stroke-width: 1.25; stroke-linejoin: miter; stroke-linecap: square"/>
   </g>
   <g id="patch_4">
    <path d="M 609.556531 356.477813 
L 609.556531 23.837812 
" style="fill: none; stroke: #cccccc; stroke-width: 1.25; stroke-linejoin: miter; stroke-linecap: square"/>
   </g>
   <g id="patch_5">
    <path d="M 51.556531 356.477812 
L 609.556531 356.477812 
" style="fill: none; stroke: #cccccc; stroke-width: 1.25; stroke-linejoin: miter; stroke-linecap: square"/>
   </g>
   <g id="patch_6">
    <path d="M 51.556531 23.837812 
L 609.556531 23.837812 
" style="fill: none; stroke: #cccccc; stroke-width: 1.25; stroke-linejoin: miter; stroke-linecap: square"/>
   </g>
   <g id="text_10">
    <!-- Qwen3.5-2B Distribution of Per-Tensor Edit Magnitudes -->
    <g style="fill: #262626" transform="translate(112.668406 17.837812) scale(0.14 -0.14)">
     <defs>
      <path id="DejaVuSans-Bold-51" d="M 2847 -84 
L 2753 -84 
Q 1600 -84 959 553 
Q 319 1191 319 2328 
Q 319 3463 958 4106 
Q 1597 4750 2719 4750 
Q 3853 4750 4486 4112 
Q 5119 3475 5119 2328 
Q 5119 1541 4783 972 
Q 4447 403 3816 116 
L 4756 -934 
L 3609 -934 
L 2847 -84 
z
M 2719 3878 
Q 2169 3878 1866 3472 
Q 1563 3066 1563 2328 
Q 1563 1578 1859 1179 
Q 2156 781 2719 781 
Q 3272 781 3575 1187 
Q 3878 1594 3878 2328 
Q 3878 3066 3575 3472 
Q 3272 3878 2719 3878 
z
" transform="scale(0.015625)"/>
      <path id="DejaVuSans-Bold-77" d="M 225 3500 
L 1313 3500 
L 1900 1088 
L 2491 3500 
L 3425 3500 
L 4013 1113 
L 4603 3500 
L 5691 3500 
L 4769 0 
L 3547 0 
L 2956 2406 
L 2369 0 
L 1147 0 
L 225 3500 
z
" transform="scale(0.015625)"/>
      <path id="DejaVuSans-Bold-65" d="M 4031 1759 
L 4031 1441 
L 1416 1441 
Q 1456 1047 1700 850 
Q 1944 653 2381 653 
Q 2734 653 3104 758 
Q 3475 863 3866 1075 
L 3866 213 
Q 3469 63 3072 -14 
Q 2675 -91 2278 -91 
Q 1328 -91 801 392 
Q 275 875 275 1747 
Q 275 2603 792 3093 
Q 1309 3584 2216 3584 
Q 3041 3584 3536 3087 
Q 4031 2591 4031 1759 
z
M 2881 2131 
Q 2881 2450 2695 2645 
Q 2509 2841 2209 2841 
Q 1884 2841 1681 2658 
Q 1478 2475 1428 2131 
L 2881 2131 
z
" transform="scale(0.015625)"/>
      <path id="DejaVuSans-Bold-6e" d="M 4056 2131 
L 4056 0 
L 2931 0 
L 2931 347 
L 2931 1631 
Q 2931 2084 2911 2256 
Q 2891 2428 2841 2509 
Q 2775 2619 2662 2680 
Q 2550 2741 2406 2741 
Q 2056 2741 1856 2470 
Q 1656 2200 1656 1722 
L 1656 0 
L 538 0 
L 538 3500 
L 1656 3500 
L 1656 2988 
Q 1909 3294 2193 3439 
Q 2478 3584 2822 3584 
Q 3428 3584 3742 3212 
Q 4056 2841 4056 2131 
z
" transform="scale(0.015625)"/>
      <path id="DejaVuSans-Bold-33" d="M 2981 2516 
Q 3453 2394 3698 2092 
Q 3944 1791 3944 1325 
Q 3944 631 3412 270 
Q 2881 -91 1863 -91 
Q 1503 -91 1142 -33 
Q 781 25 428 141 
L 428 1069 
Q 766 900 1098 814 
Q 1431 728 1753 728 
Q 2231 728 2486 893 
Q 2741 1059 2741 1369 
Q 2741 1688 2480 1852 
Q 2219 2016 1709 2016 
L 1228 2016 
L 1228 2791 
L 1734 2791 
Q 2188 2791 2409 2933 
Q 2631 3075 2631 3366 
Q 2631 3634 2415 3781 
Q 2200 3928 1806 3928 
Q 1516 3928 1219 3862 
Q 922 3797 628 3669 
L 628 4550 
Q 984 4650 1334 4700 
Q 1684 4750 2022 4750 
Q 2931 4750 3382 4451 
Q 3834 4153 3834 3553 
Q 3834 3144 3618 2883 
Q 3403 2622 2981 2516 
z
" transform="scale(0.015625)"/>
      <path id="DejaVuSans-Bold-2e" d="M 653 1209 
L 1778 1209 
L 1778 0 
L 653 0 
L 653 1209 
z
" transform="scale(0.015625)"/>
      <path id="DejaVuSans-Bold-35" d="M 678 4666 
L 3669 4666 
L 3669 3781 
L 1638 3781 
L 1638 3059 
Q 1775 3097 1914 3117 
Q 2053 3138 2203 3138 
Q 3056 3138 3531 2711 
Q 4006 2284 4006 1522 
Q 4006 766 3489 337 
Q 2972 -91 2053 -91 
Q 1656 -91 1267 -14 
Q 878 63 494 219 
L 494 1166 
Q 875 947 1217 837 
Q 1559 728 1863 728 
Q 2300 728 2551 942 
Q 2803 1156 2803 1522 
Q 2803 1891 2551 2103 
Q 2300 2316 1863 2316 
Q 1603 2316 1309 2248 
Q 1016 2181 678 2041 
L 678 4666 
z
" transform="scale(0.015625)"/>
      <path id="DejaVuSans-Bold-2d" d="M 347 2297 
L 2309 2297 
L 2309 1388 
L 347 1388 
L 347 2297 
z
" transform="scale(0.015625)"/>
      <path id="DejaVuSans-Bold-32" d="M 1844 884 
L 3897 884 
L 3897 0 
L 506 0 
L 506 884 
L 2209 2388 
Q 2438 2594 2547 2791 
Q 2656 2988 2656 3200 
Q 2656 3528 2436 3728 
Q 2216 3928 1850 3928 
Q 1569 3928 1234 3808 
Q 900 3688 519 3450 
L 519 4475 
Q 925 4609 1322 4679 
Q 1719 4750 2100 4750 
Q 2938 4750 3402 4381 
Q 3866 4013 3866 3353 
Q 3866 2972 3669 2642 
Q 3472 2313 2841 1759 
L 1844 884 
z
" transform="scale(0.015625)"/>
      <path id="DejaVuSans-Bold-42" d="M 2456 2859 
Q 2741 2859 2887 2984 
Q 3034 3109 3034 3353 
Q 3034 3594 2887 3720 
Q 2741 3847 2456 3847 
L 1791 3847 
L 1791 2859 
L 2456 2859 
z
M 2497 819 
Q 2859 819 3042 972 
Q 3225 1125 3225 1434 
Q 3225 1738 3044 1889 
Q 2863 2041 2497 2041 
L 1791 2041 
L 1791 819 
L 2497 819 
z
M 3616 2497 
Q 4003 2384 4215 2081 
Q 4428 1778 4428 1338 
Q 4428 663 3972 331 
Q 3516 0 2584 0 
L 588 0 
L 588 4666 
L 2394 4666 
Q 3366 4666 3802 4372 
Q 4238 4078 4238 3431 
Q 4238 3091 4078 2852 
Q 3919 2613 3616 2497 
z
" transform="scale(0.015625)"/>
      <path id="DejaVuSans-Bold-20" transform="scale(0.015625)"/>
      <path id="DejaVuSans-Bold-44" d="M 1791 3756 
L 1791 909 
L 2222 909 
Q 2959 909 3348 1275 
Q 3738 1641 3738 2338 
Q 3738 3031 3350 3393 
Q 2963 3756 2222 3756 
L 1791 3756 
z
M 588 4666 
L 1856 4666 
Q 2919 4666 3439 4514 
Q 3959 4363 4331 4000 
Q 4659 3684 4818 3271 
Q 4978 2859 4978 2338 
Q 4978 1809 4818 1395 
Q 4659 981 4331 666 
Q 3956 303 3431 151 
Q 2906 0 1856 0 
L 588 0 
L 588 4666 
z
" transform="scale(0.015625)"/>
      <path id="DejaVuSans-Bold-69" d="M 538 3500 
L 1656 3500 
L 1656 0 
L 538 0 
L 538 3500 
z
M 538 4863 
L 1656 4863 
L 1656 3950 
L 538 3950 
L 538 4863 
z
" transform="scale(0.015625)"/>
      <path id="DejaVuSans-Bold-73" d="M 3272 3391 
L 3272 2541 
Q 2913 2691 2578 2766 
Q 2244 2841 1947 2841 
Q 1628 2841 1473 2761 
Q 1319 2681 1319 2516 
Q 1319 2381 1436 2309 
Q 1553 2238 1856 2203 
L 2053 2175 
Q 2913 2066 3209 1816 
Q 3506 1566 3506 1031 
Q 3506 472 3093 190 
Q 2681 -91 1863 -91 
Q 1516 -91 1145 -36 
Q 775 19 384 128 
L 384 978 
Q 719 816 1070 734 
Q 1422 653 1784 653 
Q 2113 653 2278 743 
Q 2444 834 2444 1013 
Q 2444 1163 2330 1236 
Q 2216 1309 1875 1350 
L 1678 1375 
Q 931 1469 631 1722 
Q 331 1975 331 2491 
Q 331 3047 712 3315 
Q 1094 3584 1881 3584 
Q 2191 3584 2531 3537 
Q 2872 3491 3272 3391 
z
" transform="scale(0.015625)"/>
      <path id="DejaVuSans-Bold-74" d="M 1759 4494 
L 1759 3500 
L 2913 3500 
L 2913 2700 
L 1759 2700 
L 1759 1216 
Q 1759 972 1856 886 
Q 1953 800 2241 800 
L 2816 800 
L 2816 0 
L 1856 0 
Q 1194 0 917 276 
Q 641 553 641 1216 
L 641 2700 
L 84 2700 
L 84 3500 
L 641 3500 
L 641 4494 
L 1759 4494 
z
" transform="scale(0.015625)"/>
      <path id="DejaVuSans-Bold-72" d="M 3138 2547 
Q 2991 2616 2845 2648 
Q 2700 2681 2553 2681 
Q 2122 2681 1889 2404 
Q 1656 2128 1656 1613 
L 1656 0 
L 538 0 
L 538 3500 
L 1656 3500 
L 1656 2925 
Q 1872 3269 2151 3426 
Q 2431 3584 2822 3584 
Q 2878 3584 2943 3579 
Q 3009 3575 3134 3559 
L 3138 2547 
z
" transform="scale(0.015625)"/>
      <path id="DejaVuSans-Bold-62" d="M 2400 722 
Q 2759 722 2948 984 
Q 3138 1247 3138 1747 
Q 3138 2247 2948 2509 
Q 2759 2772 2400 2772 
Q 2041 2772 1848 2508 
Q 1656 2244 1656 1747 
Q 1656 1250 1848 986 
Q 2041 722 2400 722 
z
M 1656 2988 
Q 1888 3294 2169 3439 
Q 2450 3584 2816 3584 
Q 3463 3584 3878 3070 
Q 4294 2556 4294 1747 
Q 4294 938 3878 423 
Q 3463 -91 2816 -91 
Q 2450 -91 2169 54 
Q 1888 200 1656 506 
L 1656 0 
L 538 0 
L 538 4863 
L 1656 4863 
L 1656 2988 
z
" transform="scale(0.015625)"/>
      <path id="DejaVuSans-Bold-75" d="M 500 1363 
L 500 3500 
L 1625 3500 
L 1625 3150 
Q 1625 2866 1622 2436 
Q 1619 2006 1619 1863 
Q 1619 1441 1641 1255 
Q 1663 1069 1716 984 
Q 1784 875 1895 815 
Q 2006 756 2150 756 
Q 2500 756 2700 1025 
Q 2900 1294 2900 1772 
L 2900 3500 
L 4019 3500 
L 4019 0 
L 2900 0 
L 2900 506 
Q 2647 200 2364 54 
Q 2081 -91 1741 -91 
Q 1134 -91 817 281 
Q 500 653 500 1363 
z
" transform="scale(0.015625)"/>
      <path id="DejaVuSans-Bold-6f" d="M 2203 2784 
Q 1831 2784 1636 2517 
Q 1441 2250 1441 1747 
Q 1441 1244 1636 976 
Q 1831 709 2203 709 
Q 2569 709 2762 976 
Q 2956 1244 2956 1747 
Q 2956 2250 2762 2517 
Q 2569 2784 2203 2784 
z
M 2203 3584 
Q 3106 3584 3614 3096 
Q 4122 2609 4122 1747 
Q 4122 884 3614 396 
Q 3106 -91 2203 -91 
Q 1297 -91 786 396 
Q 275 884 275 1747 
Q 275 2609 786 3096 
Q 1297 3584 2203 3584 
z
" transform="scale(0.015625)"/>
      <path id="DejaVuSans-Bold-66" d="M 2841 4863 
L 2841 4128 
L 2222 4128 
Q 1984 4128 1890 4042 
Q 1797 3956 1797 3744 
L 1797 3500 
L 2753 3500 
L 2753 2700 
L 1797 2700 
L 1797 0 
L 678 0 
L 678 2700 
L 122 2700 
L 122 3500 
L 678 3500 
L 678 3744 
Q 678 4316 997 4589 
Q 1316 4863 1984 4863 
L 2841 4863 
z
" transform="scale(0.015625)"/>
      <path id="DejaVuSans-Bold-50" d="M 588 4666 
L 2584 4666 
Q 3475 4666 3951 4270 
Q 4428 3875 4428 3144 
Q 4428 2409 3951 2014 
Q 3475 1619 2584 1619 
L 1791 1619 
L 1791 0 
L 588 0 
L 588 4666 
z
M 1791 3794 
L 1791 2491 
L 2456 2491 
Q 2806 2491 2997 2661 
Q 3188 2831 3188 3144 
Q 3188 3456 2997 3625 
Q 2806 3794 2456 3794 
L 1791 3794 
z
" transform="scale(0.015625)"/>
      <path id="DejaVuSans-Bold-54" d="M 31 4666 
L 4331 4666 
L 4331 3756 
L 2784 3756 
L 2784 0 
L 1581 0 
L 1581 3756 
L 31 3756 
L 31 4666 
z
" transform="scale(0.015625)"/>
      <path id="DejaVuSans-Bold-45" d="M 588 4666 
L 3834 4666 
L 3834 3756 
L 1791 3756 
L 1791 2888 
L 3713 2888 
L 3713 1978 
L 1791 1978 
L 1791 909 
L 3903 909 
L 3903 0 
L 588 0 
L 588 4666 
z
" transform="scale(0.015625)"/>
      <path id="DejaVuSans-Bold-64" d="M 2919 2988 
L 2919 4863 
L 4044 4863 
L 4044 0 
L 2919 0 
L 2919 506 
Q 2688 197 2409 53 
Q 2131 -91 1766 -91 
Q 1119 -91 703 423 
Q 288 938 288 1747 
Q 288 2556 703 3070 
Q 1119 3584 1766 3584 
Q 2128 3584 2408 3439 
Q 2688 3294 2919 2988 
z
M 2181 722 
Q 2541 722 2730 984 
Q 2919 1247 2919 1747 
Q 2919 2247 2730 2509 
Q 2541 2772 2181 2772 
Q 1825 2772 1636 2509 
Q 1447 2247 1447 1747 
Q 1447 1247 1636 984 
Q 1825 722 2181 722 
z
" transform="scale(0.015625)"/>
      <path id="DejaVuSans-Bold-4d" d="M 588 4666 
L 2119 4666 
L 3181 2169 
L 4250 4666 
L 5778 4666 
L 5778 0 
L 4641 0 
L 4641 3413 
L 3566 897 
L 2803 897 
L 1728 3413 
L 1728 0 
L 588 0 
L 588 4666 
z
" transform="scale(0.015625)"/>
      <path id="DejaVuSans-Bold-61" d="M 2106 1575 
Q 1756 1575 1579 1456 
Q 1403 1338 1403 1106 
Q 1403 894 1545 773 
Q 1688 653 1941 653 
Q 2256 653 2472 879 
Q 2688 1106 2688 1447 
L 2688 1575 
L 2106 1575 
z
M 3816 1997 
L 3816 0 
L 2688 0 
L 2688 519 
Q 2463 200 2181 54 
Q 1900 -91 1497 -91 
Q 953 -91 614 226 
Q 275 544 275 1050 
Q 275 1666 698 1953 
Q 1122 2241 2028 2241 
L 2688 2241 
L 2688 2328 
Q 2688 2594 2478 2717 
Q 2269 2841 1825 2841 
Q 1466 2841 1156 2769 
Q 847 2697 581 2553 
L 581 3406 
Q 941 3494 1303 3539 
Q 1666 3584 2028 3584 
Q 2975 3584 3395 3211 
Q 3816 2838 3816 1997 
z
" transform="scale(0.015625)"/>
      <path id="DejaVuSans-Bold-67" d="M 2919 594 
Q 2688 288 2409 144 
Q 2131 0 1766 0 
Q 1125 0 706 504 
Q 288 1009 288 1791 
Q 288 2575 706 3076 
Q 1125 3578 1766 3578 
Q 2131 3578 2409 3434 
Q 2688 3291 2919 2981 
L 2919 3500 
L 4044 3500 
L 4044 353 
Q 4044 -491 3511 -936 
Q 2978 -1381 1966 -1381 
Q 1638 -1381 1331 -1331 
Q 1025 -1281 716 -1178 
L 716 -306 
Q 1009 -475 1290 -558 
Q 1572 -641 1856 -641 
Q 2406 -641 2662 -400 
Q 2919 -159 2919 353 
L 2919 594 
z
M 2181 2772 
Q 1834 2772 1640 2515 
Q 1447 2259 1447 1791 
Q 1447 1309 1634 1061 
Q 1822 813 2181 813 
Q 2531 813 2725 1069 
Q 2919 1325 2919 1791 
Q 2919 2259 2725 2515 
Q 2531 2772 2181 2772 
z
" transform="scale(0.015625)"/>
     </defs>
     <use xlink:href="#DejaVuSans-Bold-51"/>
     <use xlink:href="#DejaVuSans-Bold-77" transform="translate(85.009766 0)"/>
     <use xlink:href="#DejaVuSans-Bold-65" transform="translate(177.392578 0)"/>
     <use xlink:href="#DejaVuSans-Bold-6e" transform="translate(245.214844 0)"/>
     <use xlink:href="#DejaVuSans-Bold-33" transform="translate(316.40625 0)"/>
     <use xlink:href="#DejaVuSans-Bold-2e" transform="translate(385.986328 0)"/>
     <use xlink:href="#DejaVuSans-Bold-35" transform="translate(423.974609 0)"/>
     <use xlink:href="#DejaVuSans-Bold-2d" transform="translate(493.554688 0)"/>
     <use xlink:href="#DejaVuSans-Bold-32" transform="translate(535.058594 0)"/>
     <use xlink:href="#DejaVuSans-Bold-42" transform="translate(604.638672 0)"/>
     <use xlink:href="#DejaVuSans-Bold-20" transform="translate(680.859375 0)"/>
     <use xlink:href="#DejaVuSans-Bold-44" transform="translate(715.673828 0)"/>
     <use xlink:href="#DejaVuSans-Bold-69" transform="translate(798.681641 0)"/>
     <use xlink:href="#DejaVuSans-Bold-73" transform="translate(832.958984 0)"/>
     <use xlink:href="#DejaVuSans-Bold-74" transform="translate(892.480469 0)"/>
     <use xlink:href="#DejaVuSans-Bold-72" transform="translate(940.283203 0)"/>
     <use xlink:href="#DejaVuSans-Bold-69" transform="translate(989.599609 0)"/>
     <use xlink:href="#DejaVuSans-Bold-62" transform="translate(1023.876953 0)"/>
     <use xlink:href="#DejaVuSans-Bold-75" transform="translate(1095.458984 0)"/>
     <use xlink:href="#DejaVuSans-Bold-74" transform="translate(1166.650391 0)"/>
     <use xlink:href="#DejaVuSans-Bold-69" transform="translate(1214.453125 0)"/>
     <use xlink:href="#DejaVuSans-Bold-6f" transform="translate(1248.730469 0)"/>
     <use xlink:href="#DejaVuSans-Bold-6e" transform="translate(1317.431641 0)"/>
     <use xlink:href="#DejaVuSans-Bold-20" transform="translate(1388.623047 0)"/>
     <use xlink:href="#DejaVuSans-Bold-6f" transform="translate(1423.4375 0)"/>
     <use xlink:href="#DejaVuSans-Bold-66" transform="translate(1492.138672 0)"/>
     <use xlink:href="#DejaVuSans-Bold-20" transform="translate(1535.644531 0)"/>
     <use xlink:href="#DejaVuSans-Bold-50" transform="translate(1570.458984 0)"/>
     <use xlink:href="#DejaVuSans-Bold-65" transform="translate(1643.75 0)"/>
     <use xlink:href="#DejaVuSans-Bold-72" transform="translate(1711.572266 0)"/>
     <use xlink:href="#DejaVuSans-Bold-2d" transform="translate(1760.888672 0)"/>
     <use xlink:href="#DejaVuSans-Bold-54" transform="translate(1787.642578 0)"/>
     <use xlink:href="#DejaVuSans-Bold-65" transform="translate(1842.605469 0)"/>
     <use xlink:href="#DejaVuSans-Bold-6e" transform="translate(1910.427734 0)"/>
     <use xlink:href="#DejaVuSans-Bold-73" transform="translate(1981.619141 0)"/>
     <use xlink:href="#DejaVuSans-Bold-6f" transform="translate(2041.140625 0)"/>
     <use xlink:href="#DejaVuSans-Bold-72" transform="translate(2109.841797 0)"/>
     <use xlink:href="#DejaVuSans-Bold-20" transform="translate(2159.158203 0)"/>
     <use xlink:href="#DejaVuSans-Bold-45" transform="translate(2193.972656 0)"/>
     <use xlink:href="#DejaVuSans-Bold-64" transform="translate(2262.283203 0)"/>
     <use xlink:href="#DejaVuSans-Bold-69" transform="translate(2333.865234 0)"/>
     <use xlink:href="#DejaVuSans-Bold-74" transform="translate(2368.142578 0)"/>
     <use xlink:href="#DejaVuSans-Bold-20" transform="translate(2415.945312 0)"/>
     <use xlink:href="#DejaVuSans-Bold-4d" transform="translate(2450.759766 0)"/>
     <use xlink:href="#DejaVuSans-Bold-61" transform="translate(2550.271484 0)"/>
     <use xlink:href="#DejaVuSans-Bold-67" transform="translate(2617.751953 0)"/>
     <use xlink:href="#DejaVuSans-Bold-6e" transform="translate(2689.333984 0)"/>
     <use xlink:href="#DejaVuSans-Bold-69" transform="translate(2760.525391 0)"/>
     <use xlink:href="#DejaVuSans-Bold-74" transform="translate(2794.802734 0)"/>
     <use xlink:href="#DejaVuSans-Bold-75" transform="translate(2842.605469 0)"/>
     <use xlink:href="#DejaVuSans-Bold-64" transform="translate(2913.796875 0)"/>
     <use xlink:href="#DejaVuSans-Bold-65" transform="translate(2985.378906 0)"/>
     <use xlink:href="#DejaVuSans-Bold-73" transform="translate(3053.201172 0)"/>
    </g>
   </g>
  </g>
 </g>
 <defs>
  <clipPath id="p58e5062372">
   <rect x="51.556531" y="23.837812" width="558" height="332.64"/>
  </clipPath>
 </defs>
</svg>
