<?xml version="1.0" encoding="utf-8" standalone="no"?>
<!DOCTYPE svg PUBLIC "-//W3C//DTD SVG 1.1//EN"
  "http://www.w3.org/Graphics/SVG/1.1/DTD/svg11.dtd">
<svg xmlns:xlink="http://www.w3.org/1999/xlink" width="616.756531pt" height="384.791562pt" viewBox="0 0 616.756531 384.791562" xmlns="http://www.w3.org/2000/svg" version="1.1">
 <metadata>
  <rdf:RDF xmlns:dc="http://purl.org/dc/elements/1.1/" xmlns:cc="http://creativecommons.org/ns#" xmlns:rdf="http://www.w3.org/1999/02/22-rdf-syntax-ns#">
   <cc:Work>
    <dc:type rdf:resource="http://purl.org/dc/dcmitype/StillImage"/>
    <dc:date>2026-04-24T22:09:22.990024</dc:date>
    <dc:format>image/svg+xml</dc:format>
    <dc:creator>
     <cc:Agent>
      <dc:title>Matplotlib v3.10.8, https://matplotlib.org/</dc:title>
     </cc:Agent>
    </dc:creator>
   </cc:Work>
  </rdf:RDF>
 </metadata>
 <defs>
  <style type="text/css">*{stroke-linejoin: round; stroke-linecap: butt}</style>
 </defs>
 <g id="figure_1">
  <g id="patch_1">
   <path d="M 0 384.791562 
L 616.756531 384.791562 
L 616.756531 0 
L 0 0 
z
" style="fill: #ffffff"/>
  </g>
  <g id="axes_1">
   <g id="patch_2">
    <path d="M 51.556531 356.477812 
L 609.556531 356.477812 
L 609.556531 23.837812 
L 51.556531 23.837812 
z
" style="fill: #ffffff"/>
   </g>
   <g id="matplotlib.axis_1">
    <g id="xtick_1">
     <g id="line2d_1">
      <path d="M 127.64744 356.477812 
L 127.64744 23.837812 
" clip-path="url(#p33659ba8ee)" style="fill: none; stroke: #cccccc; stroke-linecap: round"/>
     </g>
     <g id="text_1">
      <!-- Heretic -->
      <g style="fill: #262626" transform="translate(106.101815 375.095937) scale(0.12 -0.12)">
       <defs>
        <path id="DejaVuSans-48" d="M 628 4666 
L 1259 4666 
L 1259 2753 
L 3553 2753 
L 3553 4666 
L 4184 4666 
L 4184 0 
L 3553 0 
L 3553 2222 
L 1259 2222 
L 1259 0 
L 628 0 
L 628 4666 
z
" transform="scale(0.015625)"/>
        <path id="DejaVuSans-65" d="M 3597 1894 
L 3597 1613 
L 953 1613 
Q 991 1019 1311 708 
Q 1631 397 2203 397 
Q 2534 397 2845 478 
Q 3156 559 3463 722 
L 3463 178 
Q 3153 47 2828 -22 
Q 2503 -91 2169 -91 
Q 1331 -91 842 396 
Q 353 884 353 1716 
Q 353 2575 817 3079 
Q 1281 3584 2069 3584 
Q 2775 3584 3186 3129 
Q 3597 2675 3597 1894 
z
M 3022 2063 
Q 3016 2534 2758 2815 
Q 2500 3097 2075 3097 
Q 1594 3097 1305 2825 
Q 1016 2553 972 2059 
L 3022 2063 
z
" transform="scale(0.015625)"/>
        <path id="DejaVuSans-72" d="M 2631 2963 
Q 2534 3019 2420 3045 
Q 2306 3072 2169 3072 
Q 1681 3072 1420 2755 
Q 1159 2438 1159 1844 
L 1159 0 
L 581 0 
L 581 3500 
L 1159 3500 
L 1159 2956 
Q 1341 3275 1631 3429 
Q 1922 3584 2338 3584 
Q 2397 3584 2469 3576 
Q 2541 3569 2628 3553 
L 2631 2963 
z
" transform="scale(0.015625)"/>
        <path id="DejaVuSans-74" d="M 1172 4494 
L 1172 3500 
L 2356 3500 
L 2356 3053 
L 1172 3053 
L 1172 1153 
Q 1172 725 1289 603 
Q 1406 481 1766 481 
L 2356 481 
L 2356 0 
L 1766 0 
Q 1100 0 847 248 
Q 594 497 594 1153 
L 594 3053 
L 172 3053 
L 172 3500 
L 594 3500 
L 594 4494 
L 1172 4494 
z
" transform="scale(0.015625)"/>
        <path id="DejaVuSans-69" d="M 603 3500 
L 1178 3500 
L 1178 0 
L 603 0 
L 603 3500 
z
M 603 4863 
L 1178 4863 
L 1178 4134 
L 603 4134 
L 603 4863 
z
" transform="scale(0.015625)"/>
        <path id="DejaVuSans-63" d="M 3122 3366 
L 3122 2828 
Q 2878 2963 2633 3030 
Q 2388 3097 2138 3097 
Q 1578 3097 1268 2742 
Q 959 2388 959 1747 
Q 959 1106 1268 751 
Q 1578 397 2138 397 
Q 2388 397 2633 464 
Q 2878 531 3122 666 
L 3122 134 
Q 2881 22 2623 -34 
Q 2366 -91 2075 -91 
Q 1284 -91 818 406 
Q 353 903 353 1747 
Q 353 2603 823 3093 
Q 1294 3584 2113 3584 
Q 2378 3584 2631 3529 
Q 2884 3475 3122 3366 
z
" transform="scale(0.015625)"/>
       </defs>
       <use xlink:href="#DejaVuSans-48"/>
       <use xlink:href="#DejaVuSans-65" transform="translate(75.195312 0)"/>
       <use xlink:href="#DejaVuSans-72" transform="translate(136.71875 0)"/>
       <use xlink:href="#DejaVuSans-65" transform="translate(175.582031 0)"/>
       <use xlink:href="#DejaVuSans-74" transform="translate(237.105469 0)"/>
       <use xlink:href="#DejaVuSans-69" transform="translate(276.314453 0)"/>
       <use xlink:href="#DejaVuSans-63" transform="translate(304.097656 0)"/>
      </g>
     </g>
    </g>
    <g id="xtick_2">
     <g id="line2d_2">
      <path d="M 330.556531 356.477812 
L 330.556531 23.837812 
" clip-path="url(#p33659ba8ee)" style="fill: none; stroke: #cccccc; stroke-linecap: round"/>
     </g>
     <g id="text_2">
      <!-- HauhauCS -->
      <g style="fill: #262626" transform="translate(299.284344 375.095937) scale(0.12 -0.12)">
       <defs>
        <path id="DejaVuSans-61" d="M 2194 1759 
Q 1497 1759 1228 1600 
Q 959 1441 959 1056 
Q 959 750 1161 570 
Q 1363 391 1709 391 
Q 2188 391 2477 730 
Q 2766 1069 2766 1631 
L 2766 1759 
L 2194 1759 
z
M 3341 1997 
L 3341 0 
L 2766 0 
L 2766 531 
Q 2569 213 2275 61 
Q 1981 -91 1556 -91 
Q 1019 -91 701 211 
Q 384 513 384 1019 
Q 384 1609 779 1909 
Q 1175 2209 1959 2209 
L 2766 2209 
L 2766 2266 
Q 2766 2663 2505 2880 
Q 2244 3097 1772 3097 
Q 1472 3097 1187 3025 
Q 903 2953 641 2809 
L 641 3341 
Q 956 3463 1253 3523 
Q 1550 3584 1831 3584 
Q 2591 3584 2966 3190 
Q 3341 2797 3341 1997 
z
" transform="scale(0.015625)"/>
        <path id="DejaVuSans-75" d="M 544 1381 
L 544 3500 
L 1119 3500 
L 1119 1403 
Q 1119 906 1312 657 
Q 1506 409 1894 409 
Q 2359 409 2629 706 
Q 2900 1003 2900 1516 
L 2900 3500 
L 3475 3500 
L 3475 0 
L 2900 0 
L 2900 538 
Q 2691 219 2414 64 
Q 2138 -91 1772 -91 
Q 1169 -91 856 284 
Q 544 659 544 1381 
z
M 1991 3584 
L 1991 3584 
z
" transform="scale(0.015625)"/>
        <path id="DejaVuSans-68" d="M 3513 2113 
L 3513 0 
L 2938 0 
L 2938 2094 
Q 2938 2591 2744 2837 
Q 2550 3084 2163 3084 
Q 1697 3084 1428 2787 
Q 1159 2491 1159 1978 
L 1159 0 
L 581 0 
L 581 4863 
L 1159 4863 
L 1159 2956 
Q 1366 3272 1645 3428 
Q 1925 3584 2291 3584 
Q 2894 3584 3203 3211 
Q 3513 2838 3513 2113 
z
" transform="scale(0.015625)"/>
        <path id="DejaVuSans-43" d="M 4122 4306 
L 4122 3641 
Q 3803 3938 3442 4084 
Q 3081 4231 2675 4231 
Q 1875 4231 1450 3742 
Q 1025 3253 1025 2328 
Q 1025 1406 1450 917 
Q 1875 428 2675 428 
Q 3081 428 3442 575 
Q 3803 722 4122 1019 
L 4122 359 
Q 3791 134 3420 21 
Q 3050 -91 2638 -91 
Q 1578 -91 968 557 
Q 359 1206 359 2328 
Q 359 3453 968 4101 
Q 1578 4750 2638 4750 
Q 3056 4750 3426 4639 
Q 3797 4528 4122 4306 
z
" transform="scale(0.015625)"/>
        <path id="DejaVuSans-53" d="M 3425 4513 
L 3425 3897 
Q 3066 4069 2747 4153 
Q 2428 4238 2131 4238 
Q 1616 4238 1336 4038 
Q 1056 3838 1056 3469 
Q 1056 3159 1242 3001 
Q 1428 2844 1947 2747 
L 2328 2669 
Q 3034 2534 3370 2195 
Q 3706 1856 3706 1288 
Q 3706 609 3251 259 
Q 2797 -91 1919 -91 
Q 1588 -91 1214 -16 
Q 841 59 441 206 
L 441 856 
Q 825 641 1194 531 
Q 1563 422 1919 422 
Q 2459 422 2753 634 
Q 3047 847 3047 1241 
Q 3047 1584 2836 1778 
Q 2625 1972 2144 2069 
L 1759 2144 
Q 1053 2284 737 2584 
Q 422 2884 422 3419 
Q 422 4038 858 4394 
Q 1294 4750 2059 4750 
Q 2388 4750 2728 4690 
Q 3069 4631 3425 4513 
z
" transform="scale(0.015625)"/>
       </defs>
       <use xlink:href="#DejaVuSans-48"/>
       <use xlink:href="#DejaVuSans-61" transform="translate(75.195312 0)"/>
       <use xlink:href="#DejaVuSans-75" transform="translate(136.474609 0)"/>
       <use xlink:href="#DejaVuSans-68" transform="translate(199.853516 0)"/>
       <use xlink:href="#DejaVuSans-61" transform="translate(263.232422 0)"/>
       <use xlink:href="#DejaVuSans-75" transform="translate(324.511719 0)"/>
       <use xlink:href="#DejaVuSans-43" transform="translate(387.890625 0)"/>
       <use xlink:href="#DejaVuSans-53" transform="translate(457.714844 0)"/>
      </g>
     </g>
    </g>
    <g id="xtick_3">
     <g id="line2d_3">
      <path d="M 533.465622 356.477812 
L 533.465622 23.837812 
" clip-path="url(#p33659ba8ee)" style="fill: none; stroke: #cccccc; stroke-linecap: round"/>
     </g>
     <g id="text_3">
      <!-- Huihui -->
      <g style="fill: #262626" transform="translate(514.212185 375.095937) scale(0.12 -0.12)">
       <use xlink:href="#DejaVuSans-48"/>
       <use xlink:href="#DejaVuSans-75" transform="translate(75.195312 0)"/>
       <use xlink:href="#DejaVuSans-69" transform="translate(138.574219 0)"/>
       <use xlink:href="#DejaVuSans-68" transform="translate(166.357422 0)"/>
       <use xlink:href="#DejaVuSans-75" transform="translate(229.736328 0)"/>
       <use xlink:href="#DejaVuSans-69" transform="translate(293.115234 0)"/>
      </g>
     </g>
    </g>
   </g>
   <g id="matplotlib.axis_2">
    <g id="ytick_1">
     <g id="line2d_4">
      <path d="M 51.556531 344.900844 
L 609.556531 344.900844 
" clip-path="url(#p33659ba8ee)" style="fill: none; stroke: #cccccc; stroke-linecap: round"/>
     </g>
     <g id="text_4">
      <!-- 1.0 -->
      <g style="fill: #262626" transform="translate(22.81375 349.497899) scale(0.121 -0.121)">
       <defs>
        <path id="DejaVuSans-31" d="M 794 531 
L 1825 531 
L 1825 4091 
L 703 3866 
L 703 4441 
L 1819 4666 
L 2450 4666 
L 2450 531 
L 3481 531 
L 3481 0 
L 794 0 
L 794 531 
z
" transform="scale(0.015625)"/>
        <path id="DejaVuSans-2e" d="M 684 794 
L 1344 794 
L 1344 0 
L 684 0 
L 684 794 
z
" transform="scale(0.015625)"/>
        <path id="DejaVuSans-30" d="M 2034 4250 
Q 1547 4250 1301 3770 
Q 1056 3291 1056 2328 
Q 1056 1369 1301 889 
Q 1547 409 2034 409 
Q 2525 409 2770 889 
Q 3016 1369 3016 2328 
Q 3016 3291 2770 3770 
Q 2525 4250 2034 4250 
z
M 2034 4750 
Q 2819 4750 3233 4129 
Q 3647 3509 3647 2328 
Q 3647 1150 3233 529 
Q 2819 -91 2034 -91 
Q 1250 -91 836 529 
Q 422 1150 422 2328 
Q 422 3509 836 4129 
Q 1250 4750 2034 4750 
z
" transform="scale(0.015625)"/>
       </defs>
       <use xlink:href="#DejaVuSans-31"/>
       <use xlink:href="#DejaVuSans-2e" transform="translate(63.623047 0)"/>
       <use xlink:href="#DejaVuSans-30" transform="translate(95.410156 0)"/>
      </g>
     </g>
    </g>
    <g id="ytick_2">
     <g id="line2d_5">
      <path d="M 51.556531 297.650234 
L 609.556531 297.650234 
" clip-path="url(#p33659ba8ee)" style="fill: none; stroke: #cccccc; stroke-linecap: round"/>
     </g>
     <g id="text_5">
      <!-- 1.5 -->
      <g style="fill: #262626" transform="translate(22.81375 302.247289) scale(0.121 -0.121)">
       <defs>
        <path id="DejaVuSans-35" d="M 691 4666 
L 3169 4666 
L 3169 4134 
L 1269 4134 
L 1269 2991 
Q 1406 3038 1543 3061 
Q 1681 3084 1819 3084 
Q 2600 3084 3056 2656 
Q 3513 2228 3513 1497 
Q 3513 744 3044 326 
Q 2575 -91 1722 -91 
Q 1428 -91 1123 -41 
Q 819 9 494 109 
L 494 744 
Q 775 591 1075 516 
Q 1375 441 1709 441 
Q 2250 441 2565 725 
Q 2881 1009 2881 1497 
Q 2881 1984 2565 2268 
Q 2250 2553 1709 2553 
Q 1456 2553 1204 2497 
Q 953 2441 691 2322 
L 691 4666 
z
" transform="scale(0.015625)"/>
       </defs>
       <use xlink:href="#DejaVuSans-31"/>
       <use xlink:href="#DejaVuSans-2e" transform="translate(63.623047 0)"/>
       <use xlink:href="#DejaVuSans-35" transform="translate(95.410156 0)"/>
      </g>
     </g>
    </g>
    <g id="ytick_3">
     <g id="line2d_6">
      <path d="M 51.556531 250.399624 
L 609.556531 250.399624 
" clip-path="url(#p33659ba8ee)" style="fill: none; stroke: #cccccc; stroke-linecap: round"/>
     </g>
     <g id="text_6">
      <!-- 2.0 -->
      <g style="fill: #262626" transform="translate(22.81375 254.996679) scale(0.121 -0.121)">
       <defs>
        <path id="DejaVuSans-32" d="M 1228 531 
L 3431 531 
L 3431 0 
L 469 0 
L 469 531 
Q 828 903 1448 1529 
Q 2069 2156 2228 2338 
Q 2531 2678 2651 2914 
Q 2772 3150 2772 3378 
Q 2772 3750 2511 3984 
Q 2250 4219 1831 4219 
Q 1534 4219 1204 4116 
Q 875 4013 500 3803 
L 500 4441 
Q 881 4594 1212 4672 
Q 1544 4750 1819 4750 
Q 2544 4750 2975 4387 
Q 3406 4025 3406 3419 
Q 3406 3131 3298 2873 
Q 3191 2616 2906 2266 
Q 2828 2175 2409 1742 
Q 1991 1309 1228 531 
z
" transform="scale(0.015625)"/>
       </defs>
       <use xlink:href="#DejaVuSans-32"/>
       <use xlink:href="#DejaVuSans-2e" transform="translate(63.623047 0)"/>
       <use xlink:href="#DejaVuSans-30" transform="translate(95.410156 0)"/>
      </g>
     </g>
    </g>
    <g id="ytick_4">
     <g id="line2d_7">
      <path d="M 51.556531 203.149014 
L 609.556531 203.149014 
" clip-path="url(#p33659ba8ee)" style="fill: none; stroke: #cccccc; stroke-linecap: round"/>
     </g>
     <g id="text_7">
      <!-- 2.5 -->
      <g style="fill: #262626" transform="translate(22.81375 207.746069) scale(0.121 -0.121)">
       <use xlink:href="#DejaVuSans-32"/>
       <use xlink:href="#DejaVuSans-2e" transform="translate(63.623047 0)"/>
       <use xlink:href="#DejaVuSans-35" transform="translate(95.410156 0)"/>
      </g>
     </g>
    </g>
    <g id="ytick_5">
     <g id="line2d_8">
      <path d="M 51.556531 155.898404 
L 609.556531 155.898404 
" clip-path="url(#p33659ba8ee)" style="fill: none; stroke: #cccccc; stroke-linecap: round"/>
     </g>
     <g id="text_8">
      <!-- 3.0 -->
      <g style="fill: #262626" transform="translate(22.81375 160.495459) scale(0.121 -0.121)">
       <defs>
        <path id="DejaVuSans-33" d="M 2597 2516 
Q 3050 2419 3304 2112 
Q 3559 1806 3559 1356 
Q 3559 666 3084 287 
Q 2609 -91 1734 -91 
Q 1441 -91 1130 -33 
Q 819 25 488 141 
L 488 750 
Q 750 597 1062 519 
Q 1375 441 1716 441 
Q 2309 441 2620 675 
Q 2931 909 2931 1356 
Q 2931 1769 2642 2001 
Q 2353 2234 1838 2234 
L 1294 2234 
L 1294 2753 
L 1863 2753 
Q 2328 2753 2575 2939 
Q 2822 3125 2822 3475 
Q 2822 3834 2567 4026 
Q 2313 4219 1838 4219 
Q 1578 4219 1281 4162 
Q 984 4106 628 3988 
L 628 4550 
Q 988 4650 1302 4700 
Q 1616 4750 1894 4750 
Q 2613 4750 3031 4423 
Q 3450 4097 3450 3541 
Q 3450 3153 3228 2886 
Q 3006 2619 2597 2516 
z
" transform="scale(0.015625)"/>
       </defs>
       <use xlink:href="#DejaVuSans-33"/>
       <use xlink:href="#DejaVuSans-2e" transform="translate(63.623047 0)"/>
       <use xlink:href="#DejaVuSans-30" transform="translate(95.410156 0)"/>
      </g>
     </g>
    </g>
    <g id="ytick_6">
     <g id="line2d_9">
      <path d="M 51.556531 108.647794 
L 609.556531 108.647794 
" clip-path="url(#p33659ba8ee)" style="fill: none; stroke: #cccccc; stroke-linecap: round"/>
     </g>
     <g id="text_9">
      <!-- 3.5 -->
      <g style="fill: #262626" transform="translate(22.81375 113.244849) scale(0.121 -0.121)">
       <use xlink:href="#DejaVuSans-33"/>
       <use xlink:href="#DejaVuSans-2e" transform="translate(63.623047 0)"/>
       <use xlink:href="#DejaVuSans-35" transform="translate(95.410156 0)"/>
      </g>
     </g>
    </g>
    <g id="ytick_7">
     <g id="line2d_10">
      <path d="M 51.556531 61.397184 
L 609.556531 61.397184 
" clip-path="url(#p33659ba8ee)" style="fill: none; stroke: #cccccc; stroke-linecap: round"/>
     </g>
     <g id="text_10">
      <!-- 4.0 -->
      <g style="fill: #262626" transform="translate(22.81375 65.994239) scale(0.121 -0.121)">
       <defs>
        <path id="DejaVuSans-34" d="M 2419 4116 
L 825 1625 
L 2419 1625 
L 2419 4116 
z
M 2253 4666 
L 3047 4666 
L 3047 1625 
L 3713 1625 
L 3713 1100 
L 3047 1100 
L 3047 0 
L 2419 0 
L 2419 1100 
L 313 1100 
L 313 1709 
L 2253 4666 
z
" transform="scale(0.015625)"/>
       </defs>
       <use xlink:href="#DejaVuSans-34"/>
       <use xlink:href="#DejaVuSans-2e" transform="translate(63.623047 0)"/>
       <use xlink:href="#DejaVuSans-30" transform="translate(95.410156 0)"/>
      </g>
     </g>
    </g>
    <g id="text_11">
     <!-- Edit Norm -->
     <g style="fill: #262626" transform="translate(16.318125 220.05) rotate(-90) scale(0.12 -0.12)">
      <defs>
       <path id="DejaVuSans-45" d="M 628 4666 
L 3578 4666 
L 3578 4134 
L 1259 4134 
L 1259 2753 
L 3481 2753 
L 3481 2222 
L 1259 2222 
L 1259 531 
L 3634 531 
L 3634 0 
L 628 0 
L 628 4666 
z
" transform="scale(0.015625)"/>
       <path id="DejaVuSans-64" d="M 2906 2969 
L 2906 4863 
L 3481 4863 
L 3481 0 
L 2906 0 
L 2906 525 
Q 2725 213 2448 61 
Q 2172 -91 1784 -91 
Q 1150 -91 751 415 
Q 353 922 353 1747 
Q 353 2572 751 3078 
Q 1150 3584 1784 3584 
Q 2172 3584 2448 3432 
Q 2725 3281 2906 2969 
z
M 947 1747 
Q 947 1113 1208 752 
Q 1469 391 1925 391 
Q 2381 391 2643 752 
Q 2906 1113 2906 1747 
Q 2906 2381 2643 2742 
Q 2381 3103 1925 3103 
Q 1469 3103 1208 2742 
Q 947 2381 947 1747 
z
" transform="scale(0.015625)"/>
       <path id="DejaVuSans-20" transform="scale(0.015625)"/>
       <path id="DejaVuSans-4e" d="M 628 4666 
L 1478 4666 
L 3547 763 
L 3547 4666 
L 4159 4666 
L 4159 0 
L 3309 0 
L 1241 3903 
L 1241 0 
L 628 0 
L 628 4666 
z
" transform="scale(0.015625)"/>
       <path id="DejaVuSans-6f" d="M 1959 3097 
Q 1497 3097 1228 2736 
Q 959 2375 959 1747 
Q 959 1119 1226 758 
Q 1494 397 1959 397 
Q 2419 397 2687 759 
Q 2956 1122 2956 1747 
Q 2956 2369 2687 2733 
Q 2419 3097 1959 3097 
z
M 1959 3584 
Q 2709 3584 3137 3096 
Q 3566 2609 3566 1747 
Q 3566 888 3137 398 
Q 2709 -91 1959 -91 
Q 1206 -91 779 398 
Q 353 888 353 1747 
Q 353 2609 779 3096 
Q 1206 3584 1959 3584 
z
" transform="scale(0.015625)"/>
       <path id="DejaVuSans-6d" d="M 3328 2828 
Q 3544 3216 3844 3400 
Q 4144 3584 4550 3584 
Q 5097 3584 5394 3201 
Q 5691 2819 5691 2113 
L 5691 0 
L 5113 0 
L 5113 2094 
Q 5113 2597 4934 2840 
Q 4756 3084 4391 3084 
Q 3944 3084 3684 2787 
Q 3425 2491 3425 1978 
L 3425 0 
L 2847 0 
L 2847 2094 
Q 2847 2600 2669 2842 
Q 2491 3084 2119 3084 
Q 1678 3084 1418 2786 
Q 1159 2488 1159 1978 
L 1159 0 
L 581 0 
L 581 3500 
L 1159 3500 
L 1159 2956 
Q 1356 3278 1631 3431 
Q 1906 3584 2284 3584 
Q 2666 3584 2933 3390 
Q 3200 3197 3328 2828 
z
" transform="scale(0.015625)"/>
      </defs>
      <use xlink:href="#DejaVuSans-45"/>
      <use xlink:href="#DejaVuSans-64" transform="translate(63.183594 0)"/>
      <use xlink:href="#DejaVuSans-69" transform="translate(126.660156 0)"/>
      <use xlink:href="#DejaVuSans-74" transform="translate(154.443359 0)"/>
      <use xlink:href="#DejaVuSans-20" transform="translate(193.652344 0)"/>
      <use xlink:href="#DejaVuSans-4e" transform="translate(225.439453 0)"/>
      <use xlink:href="#DejaVuSans-6f" transform="translate(300.244141 0)"/>
      <use xlink:href="#DejaVuSans-72" transform="translate(361.425781 0)"/>
      <use xlink:href="#DejaVuSans-6d" transform="translate(400.789062 0)"/>
     </g>
    </g>
   </g>
   <g id="FillBetweenPolyCollection_1">
    <defs>
     <path id="m7d577470a0" d="M 161.887919 -43.43375 
L 93.406961 -43.43375 
L 91.538461 -46.488295 
L 89.71373 -49.542841 
L 87.949449 -52.597386 
L 86.262439 -55.651932 
L 84.669409 -58.706477 
L 83.18669 -61.761023 
L 81.829955 -64.815568 
L 80.613959 -67.870114 
L 79.552264 -70.924659 
L 78.656998 -73.979205 
L 77.938615 -77.03375 
L 77.405695 -80.088295 
L 77.064766 -83.142841 
L 76.920168 -86.197386 
L 76.973951 -89.251932 
L 77.22582 -92.306477 
L 77.673119 -95.361023 
L 78.310863 -98.415568 
L 79.131813 -101.470114 
L 80.126595 -104.524659 
L 81.283848 -107.579205 
L 82.590421 -110.63375 
L 84.031587 -113.688295 
L 85.591285 -116.742841 
L 87.252384 -119.797386 
L 88.996946 -122.851932 
L 90.806505 -125.906477 
L 92.662335 -128.961023 
L 94.54571 -132.015568 
L 96.438156 -135.070114 
L 98.321672 -138.124659 
L 100.178936 -141.179205 
L 101.993481 -144.23375 
L 103.749842 -147.288295 
L 105.433676 -150.342841 
L 107.03185 -153.397386 
L 108.532499 -156.451932 
L 109.925067 -159.506477 
L 111.200311 -162.561023 
L 112.350303 -165.615568 
L 113.368395 -168.670114 
L 114.249196 -171.724659 
L 114.988523 -174.779205 
L 115.583356 -177.83375 
L 116.031798 -180.888295 
L 116.333027 -183.942841 
L 116.487268 -186.997386 
L 116.495756 -190.051932 
L 116.360726 -193.106477 
L 116.085396 -196.161023 
L 115.673964 -199.215568 
L 115.131612 -202.270114 
L 114.46451 -205.324659 
L 113.679823 -208.379205 
L 112.785717 -211.43375 
L 111.791349 -214.488295 
L 110.706864 -217.542841 
L 109.543359 -220.597386 
L 108.312845 -223.651932 
L 107.028185 -226.706477 
L 105.703003 -229.761023 
L 104.351587 -232.815568 
L 102.988748 -235.870114 
L 101.629679 -238.924659 
L 100.289774 -241.979205 
L 98.984444 -245.03375 
L 97.728909 -248.088295 
L 96.537987 -251.142841 
L 95.425874 -254.197386 
L 94.405928 -257.251932 
L 93.490459 -260.306477 
L 92.69053 -263.361023 
L 92.01578 -266.415568 
L 91.474265 -269.470114 
L 91.072334 -272.524659 
L 90.81453 -275.579205 
L 90.703532 -278.63375 
L 90.740128 -281.688295 
L 90.923233 -284.742841 
L 91.249932 -287.797386 
L 91.715574 -290.851932 
L 92.313886 -293.906477 
L 93.037119 -296.961023 
L 93.876228 -300.015568 
L 94.821056 -303.070114 
L 95.86055 -306.124659 
L 96.98297 -309.179205 
L 98.176117 -312.23375 
L 99.427543 -315.288295 
L 100.724771 -318.342841 
L 102.055485 -321.397386 
L 103.407718 -324.451932 
L 104.770018 -327.506477 
L 106.131584 -330.561023 
L 107.482391 -333.615568 
L 108.81328 -336.670114 
L 110.116029 -339.724659 
L 111.383401 -342.779205 
L 112.60916 -345.83375 
L 142.685721 -345.83375 
L 142.685721 -345.83375 
L 143.91148 -342.779205 
L 145.178851 -339.724659 
L 146.481601 -336.670114 
L 147.81249 -333.615568 
L 149.163297 -330.561023 
L 150.524863 -327.506477 
L 151.887163 -324.451932 
L 153.239396 -321.397386 
L 154.57011 -318.342841 
L 155.867337 -315.288295 
L 157.118764 -312.23375 
L 158.311911 -309.179205 
L 159.434331 -306.124659 
L 160.473824 -303.070114 
L 161.418653 -300.015568 
L 162.257761 -296.961023 
L 162.980995 -293.906477 
L 163.579307 -290.851932 
L 164.044949 -287.797386 
L 164.371648 -284.742841 
L 164.554752 -281.688295 
L 164.591349 -278.63375 
L 164.48035 -275.579205 
L 164.222546 -272.524659 
L 163.820615 -269.470114 
L 163.279101 -266.415568 
L 162.604351 -263.361023 
L 161.804422 -260.306477 
L 160.888953 -257.251932 
L 159.869007 -254.197386 
L 158.756894 -251.142841 
L 157.565971 -248.088295 
L 156.310437 -245.03375 
L 155.005107 -241.979205 
L 153.665202 -238.924659 
L 152.306133 -235.870114 
L 150.943294 -232.815568 
L 149.591877 -229.761023 
L 148.266696 -226.706477 
L 146.982035 -223.651932 
L 145.751522 -220.597386 
L 144.588017 -217.542841 
L 143.503531 -214.488295 
L 142.509164 -211.43375 
L 141.615057 -208.379205 
L 140.830371 -205.324659 
L 140.163269 -202.270114 
L 139.620916 -199.215568 
L 139.209484 -196.161023 
L 138.934154 -193.106477 
L 138.799125 -190.051932 
L 138.807613 -186.997386 
L 138.961853 -183.942841 
L 139.263083 -180.888295 
L 139.711524 -177.83375 
L 140.306358 -174.779205 
L 141.045684 -171.724659 
L 141.926485 -168.670114 
L 142.944578 -165.615568 
L 144.094569 -162.561023 
L 145.369814 -159.506477 
L 146.762382 -156.451932 
L 148.263031 -153.397386 
L 149.861205 -150.342841 
L 151.545039 -147.288295 
L 153.3014 -144.23375 
L 155.115945 -141.179205 
L 156.973208 -138.124659 
L 158.856724 -135.070114 
L 160.74917 -132.015568 
L 162.632546 -128.961023 
L 164.488376 -125.906477 
L 166.297935 -122.851932 
L 168.042497 -119.797386 
L 169.703595 -116.742841 
L 171.263294 -113.688295 
L 172.70446 -110.63375 
L 174.011033 -107.579205 
L 175.168286 -104.524659 
L 176.163067 -101.470114 
L 176.984018 -98.415568 
L 177.621762 -95.361023 
L 178.069061 -92.306477 
L 178.32093 -89.251932 
L 178.374713 -86.197386 
L 178.230115 -83.142841 
L 177.889186 -80.088295 
L 177.356266 -77.03375 
L 176.637883 -73.979205 
L 175.742616 -70.924659 
L 174.680922 -67.870114 
L 173.464926 -64.815568 
L 172.108191 -61.761023 
L 170.625471 -58.706477 
L 169.032442 -55.651932 
L 167.345432 -52.597386 
L 165.581151 -49.542841 
L 163.75642 -46.488295 
L 161.887919 -43.43375 
z
" style="stroke: #ffffff; stroke-opacity: 0.7"/>
    </defs>
    <g clip-path="url(#p33659ba8ee)">
     <use xlink:href="#m7d577470a0" x="0" y="384.791562" style="fill: #3498db; fill-opacity: 0.7; stroke: #ffffff; stroke-opacity: 0.7"/>
    </g>
   </g>
   <g id="FillBetweenPolyCollection_2">
    <defs>
     <path id="m20cc648edc" d="M 367.608079 -119.389661 
L 293.504984 -119.389661 
L 291.826827 -121.449541 
L 290.224442 -123.509421 
L 288.709775 -125.569301 
L 287.293673 -127.629181 
L 285.985698 -129.689061 
L 284.793969 -131.748941 
L 283.725036 -133.808821 
L 282.7838 -135.868701 
L 281.973457 -137.928581 
L 281.295489 -139.988461 
L 280.749693 -142.04834 
L 280.334237 -144.10822 
L 280.045749 -146.1681 
L 279.879444 -148.22798 
L 279.829259 -150.28786 
L 279.888011 -152.34774 
L 280.047576 -154.40762 
L 280.299059 -156.4675 
L 280.632984 -158.52738 
L 281.039465 -160.58726 
L 281.508382 -162.64714 
L 282.029544 -164.70702 
L 282.592833 -166.7669 
L 283.188343 -168.826779 
L 283.806492 -170.886659 
L 284.438121 -172.946539 
L 285.074575 -175.006419 
L 285.707765 -177.066299 
L 286.330213 -179.126179 
L 286.93508 -181.186059 
L 287.516185 -183.245939 
L 288.068002 -185.305819 
L 288.585659 -187.365699 
L 289.064917 -189.425579 
L 289.502155 -191.485459 
L 289.894342 -193.545339 
L 290.239011 -195.605218 
L 290.534237 -197.665098 
L 290.77861 -199.724978 
L 290.971216 -201.784858 
L 291.111622 -203.844738 
L 291.199862 -205.904618 
L 291.236432 -207.964498 
L 291.222285 -210.024378 
L 291.158832 -212.084258 
L 291.047946 -214.144138 
L 290.89196 -216.204018 
L 290.693675 -218.263898 
L 290.456354 -220.323778 
L 290.18372 -222.383657 
L 289.879944 -224.443537 
L 289.549626 -226.503417 
L 289.197767 -228.563297 
L 288.829735 -230.623177 
L 288.45122 -232.683057 
L 288.068175 -234.742937 
L 287.686759 -236.802817 
L 287.313265 -238.862697 
L 286.954044 -240.922577 
L 286.615429 -242.982457 
L 286.303655 -245.042337 
L 286.02478 -247.102217 
L 285.784608 -249.162096 
L 285.588623 -251.221976 
L 285.441922 -253.281856 
L 285.349159 -255.341736 
L 285.314506 -257.401616 
L 285.341609 -259.461496 
L 285.433567 -261.521376 
L 285.592918 -263.581256 
L 285.821627 -265.641136 
L 286.121092 -267.701016 
L 286.492148 -269.760896 
L 286.935085 -271.820776 
L 287.449665 -273.880656 
L 288.035139 -275.940535 
L 288.690274 -278.000415 
L 289.413373 -280.060295 
L 290.2023 -282.120175 
L 291.0545 -284.180055 
L 291.967024 -286.239935 
L 292.936548 -288.299815 
L 293.959397 -290.359695 
L 295.031565 -292.419575 
L 296.148739 -294.479455 
L 297.306325 -296.539335 
L 298.499474 -298.599215 
L 299.723115 -300.659095 
L 300.971988 -302.718974 
L 302.240684 -304.778854 
L 303.523683 -306.838734 
L 304.815407 -308.898614 
L 306.110262 -310.958494 
L 307.402693 -313.018374 
L 308.687235 -315.078254 
L 309.958568 -317.138134 
L 311.211568 -319.198014 
L 312.441359 -321.257894 
L 313.643361 -323.317774 
L 347.469702 -323.317774 
L 347.469702 -323.317774 
L 348.671704 -321.257894 
L 349.901495 -319.198014 
L 351.154495 -317.138134 
L 352.425827 -315.078254 
L 353.710369 -313.018374 
L 355.0028 -310.958494 
L 356.297655 -308.898614 
L 357.589379 -306.838734 
L 358.872379 -304.778854 
L 360.141074 -302.718974 
L 361.389947 -300.659095 
L 362.613588 -298.599215 
L 363.806737 -296.539335 
L 364.964323 -294.479455 
L 366.081497 -292.419575 
L 367.153665 -290.359695 
L 368.176514 -288.299815 
L 369.146039 -286.239935 
L 370.058563 -284.180055 
L 370.910763 -282.120175 
L 371.699689 -280.060295 
L 372.422789 -278.000415 
L 373.077924 -275.940535 
L 373.663398 -273.880656 
L 374.177977 -271.820776 
L 374.620915 -269.760896 
L 374.991971 -267.701016 
L 375.291435 -265.641136 
L 375.520144 -263.581256 
L 375.679495 -261.521376 
L 375.771454 -259.461496 
L 375.798557 -257.401616 
L 375.763903 -255.341736 
L 375.671141 -253.281856 
L 375.524439 -251.221976 
L 375.328454 -249.162096 
L 375.088283 -247.102217 
L 374.809407 -245.042337 
L 374.497633 -242.982457 
L 374.159019 -240.922577 
L 373.799798 -238.862697 
L 373.426303 -236.802817 
L 373.044888 -234.742937 
L 372.661843 -232.683057 
L 372.283327 -230.623177 
L 371.915296 -228.563297 
L 371.563437 -226.503417 
L 371.233119 -224.443537 
L 370.929342 -222.383657 
L 370.656709 -220.323778 
L 370.419388 -218.263898 
L 370.221103 -216.204018 
L 370.065117 -214.144138 
L 369.95423 -212.084258 
L 369.890778 -210.024378 
L 369.876631 -207.964498 
L 369.9132 -205.904618 
L 370.00144 -203.844738 
L 370.141846 -201.784858 
L 370.334452 -199.724978 
L 370.578825 -197.665098 
L 370.874051 -195.605218 
L 371.218721 -193.545339 
L 371.610908 -191.485459 
L 372.048146 -189.425579 
L 372.527404 -187.365699 
L 373.04506 -185.305819 
L 373.596877 -183.245939 
L 374.177982 -181.186059 
L 374.78285 -179.126179 
L 375.405298 -177.066299 
L 376.038488 -175.006419 
L 376.674942 -172.946539 
L 377.306571 -170.886659 
L 377.924719 -168.826779 
L 378.520229 -166.7669 
L 379.083519 -164.70702 
L 379.60468 -162.64714 
L 380.073598 -160.58726 
L 380.480078 -158.52738 
L 380.814003 -156.4675 
L 381.065487 -154.40762 
L 381.225052 -152.34774 
L 381.283804 -150.28786 
L 381.233618 -148.22798 
L 381.067313 -146.1681 
L 380.778826 -144.10822 
L 380.363369 -142.04834 
L 379.817573 -139.988461 
L 379.139606 -137.928581 
L 378.329262 -135.868701 
L 377.388026 -133.808821 
L 376.319094 -131.748941 
L 375.127364 -129.689061 
L 373.81939 -127.629181 
L 372.403288 -125.569301 
L 370.888621 -123.509421 
L 369.286235 -121.449541 
L 367.608079 -119.389661 
z
" style="stroke: #ffffff; stroke-opacity: 0.7"/>
    </defs>
    <g clip-path="url(#p33659ba8ee)">
     <use xlink:href="#m20cc648edc" x="0" y="384.791562" style="fill: #e74c3c; fill-opacity: 0.7; stroke: #ffffff; stroke-opacity: 0.7"/>
    </g>
   </g>
   <g id="FillBetweenPolyCollection_3">
    <defs>
     <path id="m628d7b6e91" d="M 554.688255 -72.184181 
L 512.242989 -72.184181 
L 510.370449 -73.867974 
L 508.51458 -75.551767 
L 506.703836 -77.23556 
L 504.967546 -78.919353 
L 503.335082 -80.603147 
L 501.834979 -82.28694 
L 500.494033 -83.970733 
L 499.336441 -85.654526 
L 498.382998 -87.338319 
L 497.650399 -89.022113 
L 497.15068 -90.705906 
L 496.890815 -92.389699 
L 496.872491 -94.073492 
L 497.092064 -95.757285 
L 497.540697 -97.441079 
L 498.204663 -99.124872 
L 499.065801 -100.808665 
L 500.102087 -102.492458 
L 501.288297 -104.176252 
L 502.596722 -105.860045 
L 503.997913 -107.543838 
L 505.461402 -109.227631 
L 506.956395 -110.911424 
L 508.452398 -112.595218 
L 509.919766 -114.279011 
L 511.330165 -115.962804 
L 512.656944 -117.646597 
L 513.87542 -119.33039 
L 514.963087 -121.014184 
L 515.89976 -122.697977 
L 516.667673 -124.38177 
L 517.251545 -126.065563 
L 517.638627 -127.749356 
L 517.81876 -129.43315 
L 517.784432 -131.116943 
L 517.530861 -132.800736 
L 517.056094 -134.484529 
L 516.361129 -136.168323 
L 515.450038 -137.852116 
L 514.330099 -139.535909 
L 513.011901 -141.219702 
L 511.509416 -142.903495 
L 509.840019 -144.587289 
L 508.024424 -146.271082 
L 506.08654 -147.954875 
L 504.053215 -149.638668 
L 501.953874 -151.322461 
L 499.820033 -153.006255 
L 497.684716 -154.690048 
L 495.581764 -156.373841 
L 493.545075 -158.057634 
L 491.607784 -159.741427 
L 489.801424 -161.425221 
L 488.155108 -163.109014 
L 486.694742 -164.792807 
L 485.442341 -166.4766 
L 484.415452 -168.160394 
L 483.626726 -169.844187 
L 483.083653 -171.52798 
L 482.788488 -173.211773 
L 482.738349 -174.895566 
L 482.925507 -176.57936 
L 483.337833 -178.263153 
L 483.959397 -179.946946 
L 484.771175 -181.630739 
L 485.751835 -183.314532 
L 486.878565 -184.998326 
L 488.127901 -186.682119 
L 489.476513 -188.365912 
L 490.901932 -190.049705 
L 492.383154 -191.733498 
L 493.901146 -193.417292 
L 495.43919 -195.101085 
L 496.983106 -196.784878 
L 498.521314 -198.468671 
L 500.044782 -200.152465 
L 501.546851 -201.836258 
L 503.022974 -203.520051 
L 504.470381 -205.203844 
L 505.887716 -206.887637 
L 507.274651 -208.571431 
L 508.631517 -210.255224 
L 509.958963 -211.939017 
L 511.257671 -213.62281 
L 512.528119 -215.306603 
L 513.770423 -216.990397 
L 514.984233 -218.67419 
L 516.168703 -220.357983 
L 517.322504 -222.041776 
L 518.443897 -223.725569 
L 519.530823 -225.409363 
L 520.581024 -227.093156 
L 521.592174 -228.776949 
L 522.561999 -230.460742 
L 523.488395 -232.144536 
L 524.36953 -233.828329 
L 525.203914 -235.512122 
L 525.990459 -237.195915 
L 526.72851 -238.879708 
L 540.202735 -238.879708 
L 540.202735 -238.879708 
L 540.940785 -237.195915 
L 541.72733 -235.512122 
L 542.561714 -233.828329 
L 543.442849 -232.144536 
L 544.369246 -230.460742 
L 545.33907 -228.776949 
L 546.35022 -227.093156 
L 547.400421 -225.409363 
L 548.487347 -223.725569 
L 549.60874 -222.041776 
L 550.762542 -220.357983 
L 551.947011 -218.67419 
L 553.160821 -216.990397 
L 554.403125 -215.306603 
L 555.673573 -213.62281 
L 556.972281 -211.939017 
L 558.299728 -210.255224 
L 559.656593 -208.571431 
L 561.043528 -206.887637 
L 562.460863 -205.203844 
L 563.90827 -203.520051 
L 565.384393 -201.836258 
L 566.886463 -200.152465 
L 568.409931 -198.468671 
L 569.948139 -196.784878 
L 571.492054 -195.101085 
L 573.030099 -193.417292 
L 574.54809 -191.733498 
L 576.029313 -190.049705 
L 577.454731 -188.365912 
L 578.803344 -186.682119 
L 580.052679 -184.998326 
L 581.179409 -183.314532 
L 582.160069 -181.630739 
L 582.971847 -179.946946 
L 583.593411 -178.263153 
L 584.005737 -176.57936 
L 584.192895 -174.895566 
L 584.142756 -173.211773 
L 583.847591 -171.52798 
L 583.304519 -169.844187 
L 582.515792 -168.160394 
L 581.488904 -166.4766 
L 580.236503 -164.792807 
L 578.776137 -163.109014 
L 577.12982 -161.425221 
L 575.323461 -159.741427 
L 573.386169 -158.057634 
L 571.34948 -156.373841 
L 569.246528 -154.690048 
L 567.111211 -153.006255 
L 564.97737 -151.322461 
L 562.878029 -149.638668 
L 560.844704 -147.954875 
L 558.90682 -146.271082 
L 557.091225 -144.587289 
L 555.421828 -142.903495 
L 553.919344 -141.219702 
L 552.601146 -139.535909 
L 551.481207 -137.852116 
L 550.570116 -136.168323 
L 549.87515 -134.484529 
L 549.400384 -132.800736 
L 549.146812 -131.116943 
L 549.112484 -129.43315 
L 549.292617 -127.749356 
L 549.6797 -126.065563 
L 550.263571 -124.38177 
L 551.031484 -122.697977 
L 551.968158 -121.014184 
L 553.055824 -119.33039 
L 554.2743 -117.646597 
L 555.601079 -115.962804 
L 557.011478 -114.279011 
L 558.478846 -112.595218 
L 559.974849 -110.911424 
L 561.469842 -109.227631 
L 562.933331 -107.543838 
L 564.334522 -105.860045 
L 565.642948 -104.176252 
L 566.829157 -102.492458 
L 567.865444 -100.808665 
L 568.726582 -99.124872 
L 569.390548 -97.441079 
L 569.83918 -95.757285 
L 570.058753 -94.073492 
L 570.040429 -92.389699 
L 569.780564 -90.705906 
L 569.280845 -89.022113 
L 568.548246 -87.338319 
L 567.594803 -85.654526 
L 566.437211 -83.970733 
L 565.096265 -82.28694 
L 563.596162 -80.603147 
L 561.963699 -78.919353 
L 560.227409 -77.23556 
L 558.416664 -75.551767 
L 556.560795 -73.867974 
L 554.688255 -72.184181 
z
" style="stroke: #ffffff; stroke-opacity: 0.7"/>
    </defs>
    <g clip-path="url(#p33659ba8ee)">
     <use xlink:href="#m628d7b6e91" x="0" y="384.791562" style="fill: #2ecc71; fill-opacity: 0.7; stroke: #ffffff; stroke-opacity: 0.7"/>
    </g>
   </g>
   <g id="LineCollection_1">
    <path d="M 102.283804 216.257901 
L 153.011077 216.257901 
" clip-path="url(#p33659ba8ee)" style="fill: none; stroke: #4878d0; stroke-width: 1.5"/>
    <path d="M 305.192895 176.914128 
L 355.920168 176.914128 
" clip-path="url(#p33659ba8ee)" style="fill: none; stroke: #4878d0; stroke-width: 1.5"/>
    <path d="M 508.101986 234.788196 
L 558.829259 234.788196 
" clip-path="url(#p33659ba8ee)" style="fill: none; stroke: #4878d0; stroke-width: 1.5"/>
   </g>
   <g id="LineCollection_2">
    <path d="M 102.283804 38.957813 
L 153.011077 38.957813 
" clip-path="url(#p33659ba8ee)" style="fill: none; stroke: #4878d0; stroke-width: 1.5"/>
    <path d="M 305.192895 61.473789 
L 355.920168 61.473789 
" clip-path="url(#p33659ba8ee)" style="fill: none; stroke: #4878d0; stroke-width: 1.5"/>
    <path d="M 508.101986 145.911854 
L 558.829259 145.911854 
" clip-path="url(#p33659ba8ee)" style="fill: none; stroke: #4878d0; stroke-width: 1.5"/>
   </g>
   <g id="LineCollection_3">
    <path d="M 102.283804 341.357813 
L 153.011077 341.357813 
" clip-path="url(#p33659ba8ee)" style="fill: none; stroke: #4878d0; stroke-width: 1.5"/>
    <path d="M 305.192895 265.401901 
L 355.920168 265.401901 
" clip-path="url(#p33659ba8ee)" style="fill: none; stroke: #4878d0; stroke-width: 1.5"/>
    <path d="M 508.101986 312.607382 
L 558.829259 312.607382 
" clip-path="url(#p33659ba8ee)" style="fill: none; stroke: #4878d0; stroke-width: 1.5"/>
   </g>
   <g id="LineCollection_4">
    <path d="M 127.64744 341.357813 
L 127.64744 38.957813 
" clip-path="url(#p33659ba8ee)" style="fill: none; stroke: #4878d0; stroke-width: 1.5"/>
    <path d="M 330.556531 265.401901 
L 330.556531 61.473789 
" clip-path="url(#p33659ba8ee)" style="fill: none; stroke: #4878d0; stroke-width: 1.5"/>
    <path d="M 533.465622 312.607382 
L 533.465622 145.911854 
" clip-path="url(#p33659ba8ee)" style="fill: none; stroke: #4878d0; stroke-width: 1.5"/>
   </g>
   <g id="LineCollection_5">
    <path d="M 102.283804 274.664434 
L 153.011077 274.664434 
" clip-path="url(#p33659ba8ee)" style="fill: none; stroke: #4878d0; stroke-width: 1.5"/>
    <path d="M 305.192895 177.175567 
L 355.920168 177.175567 
" clip-path="url(#p33659ba8ee)" style="fill: none; stroke: #4878d0; stroke-width: 1.5"/>
    <path d="M 508.101986 218.677567 
L 558.829259 218.677567 
" clip-path="url(#p33659ba8ee)" style="fill: none; stroke: #4878d0; stroke-width: 1.5"/>
   </g>
   <g id="patch_3">
    <path d="M 51.556531 356.477812 
L 51.556531 23.837813 
" style="fill: none; stroke: #cccccc; stroke-width: 1.25; stroke-linejoin: miter; stroke-linecap: square"/>
   </g>
   <g id="patch_4">
    <path d="M 609.556531 356.477812 
L 609.556531 23.837813 
" style="fill: none; stroke: #cccccc; stroke-width: 1.25; stroke-linejoin: miter; stroke-linecap: square"/>
   </g>
   <g id="patch_5">
    <path d="M 51.556531 356.477812 
L 609.556531 356.477812 
" style="fill: none; stroke: #cccccc; stroke-width: 1.25; stroke-linejoin: miter; stroke-linecap: square"/>
   </g>
   <g id="patch_6">
    <path d="M 51.556531 23.837812 
L 609.556531 23.837812 
" style="fill: none; stroke: #cccccc; stroke-width: 1.25; stroke-linejoin: miter; stroke-linecap: square"/>
   </g>
   <g id="text_12">
    <!-- Qwen3-4B Distribution of Per-Tensor Edit Magnitudes -->
    <g style="fill: #262626" transform="translate(120.197781 17.837812) scale(0.14 -0.14)">
     <defs>
      <path id="DejaVuSans-Bold-51" d="M 2847 -84 
L 2753 -84 
Q 1600 -84 959 553 
Q 319 1191 319 2328 
Q 319 3463 958 4106 
Q 1597 4750 2719 4750 
Q 3853 4750 4486 4112 
Q 5119 3475 5119 2328 
Q 5119 1541 4783 972 
Q 4447 403 3816 116 
L 4756 -934 
L 3609 -934 
L 2847 -84 
z
M 2719 3878 
Q 2169 3878 1866 3472 
Q 1563 3066 1563 2328 
Q 1563 1578 1859 1179 
Q 2156 781 2719 781 
Q 3272 781 3575 1187 
Q 3878 1594 3878 2328 
Q 3878 3066 3575 3472 
Q 3272 3878 2719 3878 
z
" transform="scale(0.015625)"/>
      <path id="DejaVuSans-Bold-77" d="M 225 3500 
L 1313 3500 
L 1900 1088 
L 2491 3500 
L 3425 3500 
L 4013 1113 
L 4603 3500 
L 5691 3500 
L 4769 0 
L 3547 0 
L 2956 2406 
L 2369 0 
L 1147 0 
L 225 3500 
z
" transform="scale(0.015625)"/>
      <path id="DejaVuSans-Bold-65" d="M 4031 1759 
L 4031 1441 
L 1416 1441 
Q 1456 1047 1700 850 
Q 1944 653 2381 653 
Q 2734 653 3104 758 
Q 3475 863 3866 1075 
L 3866 213 
Q 3469 63 3072 -14 
Q 2675 -91 2278 -91 
Q 1328 -91 801 392 
Q 275 875 275 1747 
Q 275 2603 792 3093 
Q 1309 3584 2216 3584 
Q 3041 3584 3536 3087 
Q 4031 2591 4031 1759 
z
M 2881 2131 
Q 2881 2450 2695 2645 
Q 2509 2841 2209 2841 
Q 1884 2841 1681 2658 
Q 1478 2475 1428 2131 
L 2881 2131 
z
" transform="scale(0.015625)"/>
      <path id="DejaVuSans-Bold-6e" d="M 4056 2131 
L 4056 0 
L 2931 0 
L 2931 347 
L 2931 1631 
Q 2931 2084 2911 2256 
Q 2891 2428 2841 2509 
Q 2775 2619 2662 2680 
Q 2550 2741 2406 2741 
Q 2056 2741 1856 2470 
Q 1656 2200 1656 1722 
L 1656 0 
L 538 0 
L 538 3500 
L 1656 3500 
L 1656 2988 
Q 1909 3294 2193 3439 
Q 2478 3584 2822 3584 
Q 3428 3584 3742 3212 
Q 4056 2841 4056 2131 
z
" transform="scale(0.015625)"/>
      <path id="DejaVuSans-Bold-33" d="M 2981 2516 
Q 3453 2394 3698 2092 
Q 3944 1791 3944 1325 
Q 3944 631 3412 270 
Q 2881 -91 1863 -91 
Q 1503 -91 1142 -33 
Q 781 25 428 141 
L 428 1069 
Q 766 900 1098 814 
Q 1431 728 1753 728 
Q 2231 728 2486 893 
Q 2741 1059 2741 1369 
Q 2741 1688 2480 1852 
Q 2219 2016 1709 2016 
L 1228 2016 
L 1228 2791 
L 1734 2791 
Q 2188 2791 2409 2933 
Q 2631 3075 2631 3366 
Q 2631 3634 2415 3781 
Q 2200 3928 1806 3928 
Q 1516 3928 1219 3862 
Q 922 3797 628 3669 
L 628 4550 
Q 984 4650 1334 4700 
Q 1684 4750 2022 4750 
Q 2931 4750 3382 4451 
Q 3834 4153 3834 3553 
Q 3834 3144 3618 2883 
Q 3403 2622 2981 2516 
z
" transform="scale(0.015625)"/>
      <path id="DejaVuSans-Bold-2d" d="M 347 2297 
L 2309 2297 
L 2309 1388 
L 347 1388 
L 347 2297 
z
" transform="scale(0.015625)"/>
      <path id="DejaVuSans-Bold-34" d="M 2356 3675 
L 1038 1722 
L 2356 1722 
L 2356 3675 
z
M 2156 4666 
L 3494 4666 
L 3494 1722 
L 4159 1722 
L 4159 850 
L 3494 850 
L 3494 0 
L 2356 0 
L 2356 850 
L 288 850 
L 288 1881 
L 2156 4666 
z
" transform="scale(0.015625)"/>
      <path id="DejaVuSans-Bold-42" d="M 2456 2859 
Q 2741 2859 2887 2984 
Q 3034 3109 3034 3353 
Q 3034 3594 2887 3720 
Q 2741 3847 2456 3847 
L 1791 3847 
L 1791 2859 
L 2456 2859 
z
M 2497 819 
Q 2859 819 3042 972 
Q 3225 1125 3225 1434 
Q 3225 1738 3044 1889 
Q 2863 2041 2497 2041 
L 1791 2041 
L 1791 819 
L 2497 819 
z
M 3616 2497 
Q 4003 2384 4215 2081 
Q 4428 1778 4428 1338 
Q 4428 663 3972 331 
Q 3516 0 2584 0 
L 588 0 
L 588 4666 
L 2394 4666 
Q 3366 4666 3802 4372 
Q 4238 4078 4238 3431 
Q 4238 3091 4078 2852 
Q 3919 2613 3616 2497 
z
" transform="scale(0.015625)"/>
      <path id="DejaVuSans-Bold-20" transform="scale(0.015625)"/>
      <path id="DejaVuSans-Bold-44" d="M 1791 3756 
L 1791 909 
L 2222 909 
Q 2959 909 3348 1275 
Q 3738 1641 3738 2338 
Q 3738 3031 3350 3393 
Q 2963 3756 2222 3756 
L 1791 3756 
z
M 588 4666 
L 1856 4666 
Q 2919 4666 3439 4514 
Q 3959 4363 4331 4000 
Q 4659 3684 4818 3271 
Q 4978 2859 4978 2338 
Q 4978 1809 4818 1395 
Q 4659 981 4331 666 
Q 3956 303 3431 151 
Q 2906 0 1856 0 
L 588 0 
L 588 4666 
z
" transform="scale(0.015625)"/>
      <path id="DejaVuSans-Bold-69" d="M 538 3500 
L 1656 3500 
L 1656 0 
L 538 0 
L 538 3500 
z
M 538 4863 
L 1656 4863 
L 1656 3950 
L 538 3950 
L 538 4863 
z
" transform="scale(0.015625)"/>
      <path id="DejaVuSans-Bold-73" d="M 3272 3391 
L 3272 2541 
Q 2913 2691 2578 2766 
Q 2244 2841 1947 2841 
Q 1628 2841 1473 2761 
Q 1319 2681 1319 2516 
Q 1319 2381 1436 2309 
Q 1553 2238 1856 2203 
L 2053 2175 
Q 2913 2066 3209 1816 
Q 3506 1566 3506 1031 
Q 3506 472 3093 190 
Q 2681 -91 1863 -91 
Q 1516 -91 1145 -36 
Q 775 19 384 128 
L 384 978 
Q 719 816 1070 734 
Q 1422 653 1784 653 
Q 2113 653 2278 743 
Q 2444 834 2444 1013 
Q 2444 1163 2330 1236 
Q 2216 1309 1875 1350 
L 1678 1375 
Q 931 1469 631 1722 
Q 331 1975 331 2491 
Q 331 3047 712 3315 
Q 1094 3584 1881 3584 
Q 2191 3584 2531 3537 
Q 2872 3491 3272 3391 
z
" transform="scale(0.015625)"/>
      <path id="DejaVuSans-Bold-74" d="M 1759 4494 
L 1759 3500 
L 2913 3500 
L 2913 2700 
L 1759 2700 
L 1759 1216 
Q 1759 972 1856 886 
Q 1953 800 2241 800 
L 2816 800 
L 2816 0 
L 1856 0 
Q 1194 0 917 276 
Q 641 553 641 1216 
L 641 2700 
L 84 2700 
L 84 3500 
L 641 3500 
L 641 4494 
L 1759 4494 
z
" transform="scale(0.015625)"/>
      <path id="DejaVuSans-Bold-72" d="M 3138 2547 
Q 2991 2616 2845 2648 
Q 2700 2681 2553 2681 
Q 2122 2681 1889 2404 
Q 1656 2128 1656 1613 
L 1656 0 
L 538 0 
L 538 3500 
L 1656 3500 
L 1656 2925 
Q 1872 3269 2151 3426 
Q 2431 3584 2822 3584 
Q 2878 3584 2943 3579 
Q 3009 3575 3134 3559 
L 3138 2547 
z
" transform="scale(0.015625)"/>
      <path id="DejaVuSans-Bold-62" d="M 2400 722 
Q 2759 722 2948 984 
Q 3138 1247 3138 1747 
Q 3138 2247 2948 2509 
Q 2759 2772 2400 2772 
Q 2041 2772 1848 2508 
Q 1656 2244 1656 1747 
Q 1656 1250 1848 986 
Q 2041 722 2400 722 
z
M 1656 2988 
Q 1888 3294 2169 3439 
Q 2450 3584 2816 3584 
Q 3463 3584 3878 3070 
Q 4294 2556 4294 1747 
Q 4294 938 3878 423 
Q 3463 -91 2816 -91 
Q 2450 -91 2169 54 
Q 1888 200 1656 506 
L 1656 0 
L 538 0 
L 538 4863 
L 1656 4863 
L 1656 2988 
z
" transform="scale(0.015625)"/>
      <path id="DejaVuSans-Bold-75" d="M 500 1363 
L 500 3500 
L 1625 3500 
L 1625 3150 
Q 1625 2866 1622 2436 
Q 1619 2006 1619 1863 
Q 1619 1441 1641 1255 
Q 1663 1069 1716 984 
Q 1784 875 1895 815 
Q 2006 756 2150 756 
Q 2500 756 2700 1025 
Q 2900 1294 2900 1772 
L 2900 3500 
L 4019 3500 
L 4019 0 
L 2900 0 
L 2900 506 
Q 2647 200 2364 54 
Q 2081 -91 1741 -91 
Q 1134 -91 817 281 
Q 500 653 500 1363 
z
" transform="scale(0.015625)"/>
      <path id="DejaVuSans-Bold-6f" d="M 2203 2784 
Q 1831 2784 1636 2517 
Q 1441 2250 1441 1747 
Q 1441 1244 1636 976 
Q 1831 709 2203 709 
Q 2569 709 2762 976 
Q 2956 1244 2956 1747 
Q 2956 2250 2762 2517 
Q 2569 2784 2203 2784 
z
M 2203 3584 
Q 3106 3584 3614 3096 
Q 4122 2609 4122 1747 
Q 4122 884 3614 396 
Q 3106 -91 2203 -91 
Q 1297 -91 786 396 
Q 275 884 275 1747 
Q 275 2609 786 3096 
Q 1297 3584 2203 3584 
z
" transform="scale(0.015625)"/>
      <path id="DejaVuSans-Bold-66" d="M 2841 4863 
L 2841 4128 
L 2222 4128 
Q 1984 4128 1890 4042 
Q 1797 3956 1797 3744 
L 1797 3500 
L 2753 3500 
L 2753 2700 
L 1797 2700 
L 1797 0 
L 678 0 
L 678 2700 
L 122 2700 
L 122 3500 
L 678 3500 
L 678 3744 
Q 678 4316 997 4589 
Q 1316 4863 1984 4863 
L 2841 4863 
z
" transform="scale(0.015625)"/>
      <path id="DejaVuSans-Bold-50" d="M 588 4666 
L 2584 4666 
Q 3475 4666 3951 4270 
Q 4428 3875 4428 3144 
Q 4428 2409 3951 2014 
Q 3475 1619 2584 1619 
L 1791 1619 
L 1791 0 
L 588 0 
L 588 4666 
z
M 1791 3794 
L 1791 2491 
L 2456 2491 
Q 2806 2491 2997 2661 
Q 3188 2831 3188 3144 
Q 3188 3456 2997 3625 
Q 2806 3794 2456 3794 
L 1791 3794 
z
" transform="scale(0.015625)"/>
      <path id="DejaVuSans-Bold-54" d="M 31 4666 
L 4331 4666 
L 4331 3756 
L 2784 3756 
L 2784 0 
L 1581 0 
L 1581 3756 
L 31 3756 
L 31 4666 
z
" transform="scale(0.015625)"/>
      <path id="DejaVuSans-Bold-45" d="M 588 4666 
L 3834 4666 
L 3834 3756 
L 1791 3756 
L 1791 2888 
L 3713 2888 
L 3713 1978 
L 1791 1978 
L 1791 909 
L 3903 909 
L 3903 0 
L 588 0 
L 588 4666 
z
" transform="scale(0.015625)"/>
      <path id="DejaVuSans-Bold-64" d="M 2919 2988 
L 2919 4863 
L 4044 4863 
L 4044 0 
L 2919 0 
L 2919 506 
Q 2688 197 2409 53 
Q 2131 -91 1766 -91 
Q 1119 -91 703 423 
Q 288 938 288 1747 
Q 288 2556 703 3070 
Q 1119 3584 1766 3584 
Q 2128 3584 2408 3439 
Q 2688 3294 2919 2988 
z
M 2181 722 
Q 2541 722 2730 984 
Q 2919 1247 2919 1747 
Q 2919 2247 2730 2509 
Q 2541 2772 2181 2772 
Q 1825 2772 1636 2509 
Q 1447 2247 1447 1747 
Q 1447 1247 1636 984 
Q 1825 722 2181 722 
z
" transform="scale(0.015625)"/>
      <path id="DejaVuSans-Bold-4d" d="M 588 4666 
L 2119 4666 
L 3181 2169 
L 4250 4666 
L 5778 4666 
L 5778 0 
L 4641 0 
L 4641 3413 
L 3566 897 
L 2803 897 
L 1728 3413 
L 1728 0 
L 588 0 
L 588 4666 
z
" transform="scale(0.015625)"/>
      <path id="DejaVuSans-Bold-61" d="M 2106 1575 
Q 1756 1575 1579 1456 
Q 1403 1338 1403 1106 
Q 1403 894 1545 773 
Q 1688 653 1941 653 
Q 2256 653 2472 879 
Q 2688 1106 2688 1447 
L 2688 1575 
L 2106 1575 
z
M 3816 1997 
L 3816 0 
L 2688 0 
L 2688 519 
Q 2463 200 2181 54 
Q 1900 -91 1497 -91 
Q 953 -91 614 226 
Q 275 544 275 1050 
Q 275 1666 698 1953 
Q 1122 2241 2028 2241 
L 2688 2241 
L 2688 2328 
Q 2688 2594 2478 2717 
Q 2269 2841 1825 2841 
Q 1466 2841 1156 2769 
Q 847 2697 581 2553 
L 581 3406 
Q 941 3494 1303 3539 
Q 1666 3584 2028 3584 
Q 2975 3584 3395 3211 
Q 3816 2838 3816 1997 
z
" transform="scale(0.015625)"/>
      <path id="DejaVuSans-Bold-67" d="M 2919 594 
Q 2688 288 2409 144 
Q 2131 0 1766 0 
Q 1125 0 706 504 
Q 288 1009 288 1791 
Q 288 2575 706 3076 
Q 1125 3578 1766 3578 
Q 2131 3578 2409 3434 
Q 2688 3291 2919 2981 
L 2919 3500 
L 4044 3500 
L 4044 353 
Q 4044 -491 3511 -936 
Q 2978 -1381 1966 -1381 
Q 1638 -1381 1331 -1331 
Q 1025 -1281 716 -1178 
L 716 -306 
Q 1009 -475 1290 -558 
Q 1572 -641 1856 -641 
Q 2406 -641 2662 -400 
Q 2919 -159 2919 353 
L 2919 594 
z
M 2181 2772 
Q 1834 2772 1640 2515 
Q 1447 2259 1447 1791 
Q 1447 1309 1634 1061 
Q 1822 813 2181 813 
Q 2531 813 2725 1069 
Q 2919 1325 2919 1791 
Q 2919 2259 2725 2515 
Q 2531 2772 2181 2772 
z
" transform="scale(0.015625)"/>
     </defs>
     <use xlink:href="#DejaVuSans-Bold-51"/>
     <use xlink:href="#DejaVuSans-Bold-77" transform="translate(85.009766 0)"/>
     <use xlink:href="#DejaVuSans-Bold-65" transform="translate(177.392578 0)"/>
     <use xlink:href="#DejaVuSans-Bold-6e" transform="translate(245.214844 0)"/>
     <use xlink:href="#DejaVuSans-Bold-33" transform="translate(316.40625 0)"/>
     <use xlink:href="#DejaVuSans-Bold-2d" transform="translate(385.986328 0)"/>
     <use xlink:href="#DejaVuSans-Bold-34" transform="translate(427.490234 0)"/>
     <use xlink:href="#DejaVuSans-Bold-42" transform="translate(497.070312 0)"/>
     <use xlink:href="#DejaVuSans-Bold-20" transform="translate(573.291016 0)"/>
     <use xlink:href="#DejaVuSans-Bold-44" transform="translate(608.105469 0)"/>
     <use xlink:href="#DejaVuSans-Bold-69" transform="translate(691.113281 0)"/>
     <use xlink:href="#DejaVuSans-Bold-73" transform="translate(725.390625 0)"/>
     <use xlink:href="#DejaVuSans-Bold-74" transform="translate(784.912109 0)"/>
     <use xlink:href="#DejaVuSans-Bold-72" transform="translate(832.714844 0)"/>
     <use xlink:href="#DejaVuSans-Bold-69" transform="translate(882.03125 0)"/>
     <use xlink:href="#DejaVuSans-Bold-62" transform="translate(916.308594 0)"/>
     <use xlink:href="#DejaVuSans-Bold-75" transform="translate(987.890625 0)"/>
     <use xlink:href="#DejaVuSans-Bold-74" transform="translate(1059.082031 0)"/>
     <use xlink:href="#DejaVuSans-Bold-69" transform="translate(1106.884766 0)"/>
     <use xlink:href="#DejaVuSans-Bold-6f" transform="translate(1141.162109 0)"/>
     <use xlink:href="#DejaVuSans-Bold-6e" transform="translate(1209.863281 0)"/>
     <use xlink:href="#DejaVuSans-Bold-20" transform="translate(1281.054688 0)"/>
     <use xlink:href="#DejaVuSans-Bold-6f" transform="translate(1315.869141 0)"/>
     <use xlink:href="#DejaVuSans-Bold-66" transform="translate(1384.570312 0)"/>
     <use xlink:href="#DejaVuSans-Bold-20" transform="translate(1428.076172 0)"/>
     <use xlink:href="#DejaVuSans-Bold-50" transform="translate(1462.890625 0)"/>
     <use xlink:href="#DejaVuSans-Bold-65" transform="translate(1536.181641 0)"/>
     <use xlink:href="#DejaVuSans-Bold-72" transform="translate(1604.003906 0)"/>
     <use xlink:href="#DejaVuSans-Bold-2d" transform="translate(1653.320312 0)"/>
     <use xlink:href="#DejaVuSans-Bold-54" transform="translate(1680.074219 0)"/>
     <use xlink:href="#DejaVuSans-Bold-65" transform="translate(1735.037109 0)"/>
     <use xlink:href="#DejaVuSans-Bold-6e" transform="translate(1802.859375 0)"/>
     <use xlink:href="#DejaVuSans-Bold-73" transform="translate(1874.050781 0)"/>
     <use xlink:href="#DejaVuSans-Bold-6f" transform="translate(1933.572266 0)"/>
     <use xlink:href="#DejaVuSans-Bold-72" transform="translate(2002.273438 0)"/>
     <use xlink:href="#DejaVuSans-Bold-20" transform="translate(2051.589844 0)"/>
     <use xlink:href="#DejaVuSans-Bold-45" transform="translate(2086.404297 0)"/>
     <use xlink:href="#DejaVuSans-Bold-64" transform="translate(2154.714844 0)"/>
     <use xlink:href="#DejaVuSans-Bold-69" transform="translate(2226.296875 0)"/>
     <use xlink:href="#DejaVuSans-Bold-74" transform="translate(2260.574219 0)"/>
     <use xlink:href="#DejaVuSans-Bold-20" transform="translate(2308.376953 0)"/>
     <use xlink:href="#DejaVuSans-Bold-4d" transform="translate(2343.191406 0)"/>
     <use xlink:href="#DejaVuSans-Bold-61" transform="translate(2442.703125 0)"/>
     <use xlink:href="#DejaVuSans-Bold-67" transform="translate(2510.183594 0)"/>
     <use xlink:href="#DejaVuSans-Bold-6e" transform="translate(2581.765625 0)"/>
     <use xlink:href="#DejaVuSans-Bold-69" transform="translate(2652.957031 0)"/>
     <use xlink:href="#DejaVuSans-Bold-74" transform="translate(2687.234375 0)"/>
     <use xlink:href="#DejaVuSans-Bold-75" transform="translate(2735.037109 0)"/>
     <use xlink:href="#DejaVuSans-Bold-64" transform="translate(2806.228516 0)"/>
     <use xlink:href="#DejaVuSans-Bold-65" transform="translate(2877.810547 0)"/>
     <use xlink:href="#DejaVuSans-Bold-73" transform="translate(2945.632812 0)"/>
    </g>
   </g>
  </g>
 </g>
 <defs>
  <clipPath id="p33659ba8ee">
   <rect x="51.556531" y="23.837812" width="558" height="332.64"/>
  </clipPath>
 </defs>
</svg>
