<?xml version="1.0" encoding="utf-8" standalone="no"?>
<!DOCTYPE svg PUBLIC "-//W3C//DTD SVG 1.1//EN"
  "http://www.w3.org/Graphics/SVG/1.1/DTD/svg11.dtd">
<svg xmlns:xlink="http://www.w3.org/1999/xlink" width="568.841735pt" height="598.677969pt" viewBox="0 0 568.841735 598.677969" xmlns="http://www.w3.org/2000/svg" version="1.1">
 <metadata>
  <rdf:RDF xmlns:dc="http://purl.org/dc/elements/1.1/" xmlns:cc="http://creativecommons.org/ns#" xmlns:rdf="http://www.w3.org/1999/02/22-rdf-syntax-ns#">
   <cc:Work>
    <dc:type rdf:resource="http://purl.org/dc/dcmitype/StillImage"/>
    <dc:date>2026-04-24T22:09:23.070682</dc:date>
    <dc:format>image/svg+xml</dc:format>
    <dc:creator>
     <cc:Agent>
      <dc:title>Matplotlib v3.10.8, https://matplotlib.org/</dc:title>
     </cc:Agent>
    </dc:creator>
   </cc:Work>
  </rdf:RDF>
 </metadata>
 <defs>
  <style type="text/css">*{stroke-linejoin: round; stroke-linecap: butt}</style>
 </defs>
 <g id="figure_1">
  <g id="patch_1">
   <path d="M 0 598.677969 
L 568.841735 598.677969 
L 568.841735 0 
L 0 0 
z
" style="fill: #ffffff"/>
  </g>
  <g id="axes_1">
   <g id="patch_2">
    <path d="M 49.014495 310.065241 
C 49.050091 309.121543 49.097647 308.178334 49.15715 307.235841 
C 49.216654 306.293348 49.2881 305.351647 49.371473 304.410966 
C 50.835478 284.690786 56.087989 265.43657 64.840811 247.704766 
C 73.593633 229.972961 85.683697 214.093916 100.447642 200.93889 
C 115.211586 187.783863 132.374354 177.597936 150.994252 170.939995 
C 169.61415 164.282053 189.344284 161.276136 209.102092 162.087174 
C 228.859901 162.898211 248.277291 167.511094 266.288861 175.672719 
C 284.300431 183.834344 300.57062 195.39266 314.20671 209.713478 
C 327.842799 224.034297 338.590744 240.850819 345.860823 259.240346 
C 353.130901 277.629874 356.787669 297.249807 356.630486 317.02363 
C 356.473303 336.797453 352.505096 356.356775 344.943596 374.628405 
C 337.382095 392.900036 326.368174 409.543571 312.506148 423.645806 
C 298.644122 437.74804 282.192244 449.046246 264.053204 456.920507 
C 245.914164 464.794769 226.425896 469.098388 206.657691 469.595231 
C 186.889486 470.092074 167.209631 466.772884 148.697928 459.819781 
C 130.186226 452.866678 113.187553 442.4092 98.634601 429.021131 
C 84.08165 415.633063 72.245544 399.563827 63.775713 381.695119 
C 55.305882 363.82641 50.360121 344.491127 49.209795 324.750167 
C 50.571253 355.331931 57.883494 385.356755 70.736228 413.139936 
C 83.588961 440.923117 101.737215 465.93511 124.162685 486.772486 
C 146.588154 507.609861 172.863413 523.87546 201.514148 534.656615 
C 230.164882 545.43777 260.645013 550.528993 291.24429 549.644614 
C 321.843568 548.760235 351.978772 541.917111 379.959009 529.49921 
C 407.939246 517.08131 433.231214 499.325317 454.415774 477.227527 
C 475.600333 455.129737 492.273709 429.111331 503.500352 400.632209 
C 514.726995 372.153087 520.292927 341.756059 519.885842 311.146711 
C 519.478757 280.537363 513.106414 250.299106 501.126367 222.128619 
C 489.14632 193.958131 471.786907 168.392339 450.02217 146.865748 
C 428.257434 125.339156 402.502208 108.262059 374.201625 96.592658 
C 345.901042 84.923257 315.59451 78.883969 284.982536 78.813662 
C 254.370562 78.743354 224.036607 84.643366 195.68272 96.182646 
C 167.328833 107.721927 141.495436 124.680538 119.632048 146.106927 
C 97.768659 167.533316 80.291994 193.019098 68.182674 221.134259 
C 56.073353 249.249419 49.562179 279.458086 49.014495 310.065241 
" clip-path="url(#p61afe61128)" style="fill: #e74c3c; opacity: 0.6"/>
   </g>
   <g id="patch_3">
    <path d="M 49.371473 304.410966 
C 50.641031 290.086727 54.663324 276.141217 61.217215 263.341135 
C 67.771105 250.541053 76.734244 239.125352 87.613854 229.721646 
C 98.493464 220.317941 111.086443 213.101781 124.700452 208.469897 
C 138.314461 203.838014 152.695351 201.876876 167.052489 202.694303 
C 181.409627 203.51173 195.47499 207.092462 208.475291 213.239637 
C 221.475592 219.386812 233.168139 227.985674 242.910097 238.563473 
C 252.652055 249.141273 260.261561 261.500541 265.320256 274.961788 
C 270.378952 288.423036 272.792402 302.734966 272.427918 317.110735 
C 272.063434 331.486504 268.927822 345.657743 263.193471 358.845344 
C 257.459119 372.032944 249.233079 383.990718 238.967602 394.061248 
C 228.702126 404.131778 216.58885 412.127066 203.293742 417.607547 
C 189.998633 423.088028 175.769886 425.951391 161.389771 426.040213 
C 147.009657 426.129034 132.746624 423.441657 119.38483 418.125829 
C 106.023035 412.81 93.811919 404.964956 83.422824 395.022004 
C 73.03373 385.079051 64.660604 373.223806 58.763784 360.108048 
C 52.866964 346.99229 49.556534 332.860866 49.014495 318.490697 
C 49.03317 319.534317 49.058783 320.577801 49.091334 321.621081 
C 49.123886 322.664361 49.163373 323.707412 49.209795 324.750167 
C 50.360121 344.491127 55.305882 363.82641 63.775713 381.695119 
C 72.245544 399.563827 84.08165 415.633063 98.634601 429.021131 
C 113.187553 442.4092 130.186226 452.866678 148.697928 459.819781 
C 167.209631 466.772884 186.889486 470.092074 206.657691 469.595231 
C 226.425896 469.098388 245.914164 464.794769 264.053204 456.920507 
C 282.192244 449.046246 298.644122 437.74804 312.506148 423.645806 
C 326.368174 409.543571 337.382095 392.900036 344.943596 374.628405 
C 352.505096 356.356775 356.473303 336.797453 356.630486 317.02363 
C 356.787669 297.249807 353.130901 277.629874 345.860823 259.240346 
C 338.590744 240.850819 327.842799 224.034297 314.20671 209.713478 
C 300.57062 195.39266 284.300431 183.834344 266.288861 175.672719 
C 248.277291 167.511094 228.859901 162.898211 209.102092 162.087174 
C 189.344284 161.276136 169.61415 164.282053 150.994252 170.939995 
C 132.374354 177.597936 115.211586 187.783863 100.447642 200.93889 
C 85.683697 214.093916 73.593633 229.972961 64.840811 247.704766 
C 56.087989 265.43657 50.835478 284.690786 49.371473 304.410966 
" clip-path="url(#p61afe61128)" style="fill: #c2c479; opacity: 0.6"/>
   </g>
   <g id="patch_4">
    <path d="M 48.982898 312.584328 
C 48.975817 313.56874 48.97491 314.553187 48.980176 315.537611 
C 48.985443 316.522035 48.996882 317.506416 49.014495 318.490697 
C 49.556534 332.860866 52.866964 346.99229 58.763784 360.108048 
C 64.660604 373.223806 73.03373 385.079051 83.422824 395.022004 
C 93.811919 404.964956 106.023035 412.81 119.38483 418.125829 
C 132.746624 423.441657 147.009657 426.129034 161.389771 426.040213 
C 175.769886 425.951391 189.998633 423.088028 203.293742 417.607547 
C 216.58885 412.127066 228.702126 404.131778 238.967602 394.061248 
C 249.233079 383.990718 257.459119 372.032944 263.193471 358.845344 
C 268.927822 345.657743 272.063434 331.486504 272.427918 317.110735 
C 272.792402 302.734966 270.378952 288.423036 265.320256 274.961788 
C 260.261561 261.500541 252.652055 249.141273 242.910097 238.563473 
C 233.168139 227.985674 221.475592 219.386812 208.475291 213.239637 
C 195.47499 207.092462 181.409627 203.51173 167.052489 202.694303 
C 152.695351 201.876876 138.314461 203.838014 124.700452 208.469897 
C 111.086443 213.101781 98.493464 220.317941 87.613854 229.721646 
C 76.734244 239.125352 67.771105 250.541053 61.217215 263.341135 
C 54.663324 276.141217 50.641031 290.086727 49.371473 304.410966 
C 49.270493 305.771169 49.187606 307.132655 49.122835 308.495063 
C 49.058064 309.857471 49.011414 311.220679 48.982898 312.584328 
" clip-path="url(#p61afe61128)" style="fill: #84ad9d; opacity: 0.6"/>
   </g>
   <g id="text_1">
    <!-- 145 -->
    <g style="fill: #262626" transform="translate(424.531938 317.683052) scale(0.132 -0.132)">
     <defs>
      <path id="DejaVuSans-31" d="M 794 531 
L 1825 531 
L 1825 4091 
L 703 3866 
L 703 4441 
L 1819 4666 
L 2450 4666 
L 2450 531 
L 3481 531 
L 3481 0 
L 794 0 
L 794 531 
z
" transform="scale(0.015625)"/>
      <path id="DejaVuSans-34" d="M 2419 4116 
L 825 1625 
L 2419 1625 
L 2419 4116 
z
M 2253 4666 
L 3047 4666 
L 3047 1625 
L 3713 1625 
L 3713 1100 
L 3047 1100 
L 3047 0 
L 2419 0 
L 2419 1100 
L 313 1100 
L 313 1709 
L 2253 4666 
z
" transform="scale(0.015625)"/>
      <path id="DejaVuSans-35" d="M 691 4666 
L 3169 4666 
L 3169 4134 
L 1269 4134 
L 1269 2991 
Q 1406 3038 1543 3061 
Q 1681 3084 1819 3084 
Q 2600 3084 3056 2656 
Q 3513 2228 3513 1497 
Q 3513 744 3044 326 
Q 2575 -91 1722 -91 
Q 1428 -91 1123 -41 
Q 819 9 494 109 
L 494 744 
Q 775 591 1075 516 
Q 1375 441 1709 441 
Q 2250 441 2565 725 
Q 2881 1009 2881 1497 
Q 2881 1984 2565 2268 
Q 2250 2553 1709 2553 
Q 1456 2553 1204 2497 
Q 953 2441 691 2322 
L 691 4666 
z
" transform="scale(0.015625)"/>
     </defs>
     <use xlink:href="#DejaVuSans-31"/>
     <use xlink:href="#DejaVuSans-34" transform="translate(63.623047 0)"/>
     <use xlink:href="#DejaVuSans-35" transform="translate(127.246094 0)"/>
    </g>
   </g>
   <g id="text_2">
    <!-- 51 -->
    <g style="fill: #262626" transform="translate(305.537148 320.719399) scale(0.132 -0.132)">
     <use xlink:href="#DejaVuSans-35"/>
     <use xlink:href="#DejaVuSans-31" transform="translate(63.623047 0)"/>
    </g>
   </g>
   <g id="text_3">
    <!-- 57 -->
    <g style="fill: #262626" transform="translate(261.22546 320.673281) scale(0.132 -0.132)">
     <defs>
      <path id="DejaVuSans-37" d="M 525 4666 
L 3525 4666 
L 3525 4397 
L 1831 0 
L 1172 0 
L 2766 4134 
L 525 4134 
L 525 4666 
z
" transform="scale(0.015625)"/>
     </defs>
     <use xlink:href="#DejaVuSans-35"/>
     <use xlink:href="#DejaVuSans-37" transform="translate(63.623047 0)"/>
    </g>
   </g>
   <g id="text_4">
    <!-- Heretic -->
    <g style="fill: #262626" transform="translate(47.93681 202.513593) scale(0.1584 -0.1584)">
     <defs>
      <path id="DejaVuSans-48" d="M 628 4666 
L 1259 4666 
L 1259 2753 
L 3553 2753 
L 3553 4666 
L 4184 4666 
L 4184 0 
L 3553 0 
L 3553 2222 
L 1259 2222 
L 1259 0 
L 628 0 
L 628 4666 
z
" transform="scale(0.015625)"/>
      <path id="DejaVuSans-65" d="M 3597 1894 
L 3597 1613 
L 953 1613 
Q 991 1019 1311 708 
Q 1631 397 2203 397 
Q 2534 397 2845 478 
Q 3156 559 3463 722 
L 3463 178 
Q 3153 47 2828 -22 
Q 2503 -91 2169 -91 
Q 1331 -91 842 396 
Q 353 884 353 1716 
Q 353 2575 817 3079 
Q 1281 3584 2069 3584 
Q 2775 3584 3186 3129 
Q 3597 2675 3597 1894 
z
M 3022 2063 
Q 3016 2534 2758 2815 
Q 2500 3097 2075 3097 
Q 1594 3097 1305 2825 
Q 1016 2553 972 2059 
L 3022 2063 
z
" transform="scale(0.015625)"/>
      <path id="DejaVuSans-72" d="M 2631 2963 
Q 2534 3019 2420 3045 
Q 2306 3072 2169 3072 
Q 1681 3072 1420 2755 
Q 1159 2438 1159 1844 
L 1159 0 
L 581 0 
L 581 3500 
L 1159 3500 
L 1159 2956 
Q 1341 3275 1631 3429 
Q 1922 3584 2338 3584 
Q 2397 3584 2469 3576 
Q 2541 3569 2628 3553 
L 2631 2963 
z
" transform="scale(0.015625)"/>
      <path id="DejaVuSans-74" d="M 1172 4494 
L 1172 3500 
L 2356 3500 
L 2356 3053 
L 1172 3053 
L 1172 1153 
Q 1172 725 1289 603 
Q 1406 481 1766 481 
L 2356 481 
L 2356 0 
L 1766 0 
Q 1100 0 847 248 
Q 594 497 594 1153 
L 594 3053 
L 172 3053 
L 172 3500 
L 594 3500 
L 594 4494 
L 1172 4494 
z
" transform="scale(0.015625)"/>
      <path id="DejaVuSans-69" d="M 603 3500 
L 1178 3500 
L 1178 0 
L 603 0 
L 603 3500 
z
M 603 4863 
L 1178 4863 
L 1178 4134 
L 603 4134 
L 603 4863 
z
" transform="scale(0.015625)"/>
      <path id="DejaVuSans-63" d="M 3122 3366 
L 3122 2828 
Q 2878 2963 2633 3030 
Q 2388 3097 2138 3097 
Q 1578 3097 1268 2742 
Q 959 2388 959 1747 
Q 959 1106 1268 751 
Q 1578 397 2138 397 
Q 2388 397 2633 464 
Q 2878 531 3122 666 
L 3122 134 
Q 2881 22 2623 -34 
Q 2366 -91 2075 -91 
Q 1284 -91 818 406 
Q 353 903 353 1747 
Q 353 2603 823 3093 
Q 1294 3584 2113 3584 
Q 2378 3584 2631 3529 
Q 2884 3475 3122 3366 
z
" transform="scale(0.015625)"/>
     </defs>
     <use xlink:href="#DejaVuSans-48"/>
     <use xlink:href="#DejaVuSans-65" transform="translate(75.195312 0)"/>
     <use xlink:href="#DejaVuSans-72" transform="translate(136.71875 0)"/>
     <use xlink:href="#DejaVuSans-65" transform="translate(175.582031 0)"/>
     <use xlink:href="#DejaVuSans-74" transform="translate(237.105469 0)"/>
     <use xlink:href="#DejaVuSans-69" transform="translate(276.314453 0)"/>
     <use xlink:href="#DejaVuSans-63" transform="translate(304.097656 0)"/>
    </g>
   </g>
   <g id="text_5">
    <!-- HauhauCS -->
    <g style="fill: #262626" transform="translate(402.174199 78.813041) scale(0.1584 -0.1584)">
     <defs>
      <path id="DejaVuSans-61" d="M 2194 1759 
Q 1497 1759 1228 1600 
Q 959 1441 959 1056 
Q 959 750 1161 570 
Q 1363 391 1709 391 
Q 2188 391 2477 730 
Q 2766 1069 2766 1631 
L 2766 1759 
L 2194 1759 
z
M 3341 1997 
L 3341 0 
L 2766 0 
L 2766 531 
Q 2569 213 2275 61 
Q 1981 -91 1556 -91 
Q 1019 -91 701 211 
Q 384 513 384 1019 
Q 384 1609 779 1909 
Q 1175 2209 1959 2209 
L 2766 2209 
L 2766 2266 
Q 2766 2663 2505 2880 
Q 2244 3097 1772 3097 
Q 1472 3097 1187 3025 
Q 903 2953 641 2809 
L 641 3341 
Q 956 3463 1253 3523 
Q 1550 3584 1831 3584 
Q 2591 3584 2966 3190 
Q 3341 2797 3341 1997 
z
" transform="scale(0.015625)"/>
      <path id="DejaVuSans-75" d="M 544 1381 
L 544 3500 
L 1119 3500 
L 1119 1403 
Q 1119 906 1312 657 
Q 1506 409 1894 409 
Q 2359 409 2629 706 
Q 2900 1003 2900 1516 
L 2900 3500 
L 3475 3500 
L 3475 0 
L 2900 0 
L 2900 538 
Q 2691 219 2414 64 
Q 2138 -91 1772 -91 
Q 1169 -91 856 284 
Q 544 659 544 1381 
z
M 1991 3584 
L 1991 3584 
z
" transform="scale(0.015625)"/>
      <path id="DejaVuSans-68" d="M 3513 2113 
L 3513 0 
L 2938 0 
L 2938 2094 
Q 2938 2591 2744 2837 
Q 2550 3084 2163 3084 
Q 1697 3084 1428 2787 
Q 1159 2491 1159 1978 
L 1159 0 
L 581 0 
L 581 4863 
L 1159 4863 
L 1159 2956 
Q 1366 3272 1645 3428 
Q 1925 3584 2291 3584 
Q 2894 3584 3203 3211 
Q 3513 2838 3513 2113 
z
" transform="scale(0.015625)"/>
      <path id="DejaVuSans-43" d="M 4122 4306 
L 4122 3641 
Q 3803 3938 3442 4084 
Q 3081 4231 2675 4231 
Q 1875 4231 1450 3742 
Q 1025 3253 1025 2328 
Q 1025 1406 1450 917 
Q 1875 428 2675 428 
Q 3081 428 3442 575 
Q 3803 722 4122 1019 
L 4122 359 
Q 3791 134 3420 21 
Q 3050 -91 2638 -91 
Q 1578 -91 968 557 
Q 359 1206 359 2328 
Q 359 3453 968 4101 
Q 1578 4750 2638 4750 
Q 3056 4750 3426 4639 
Q 3797 4528 4122 4306 
z
" transform="scale(0.015625)"/>
      <path id="DejaVuSans-53" d="M 3425 4513 
L 3425 3897 
Q 3066 4069 2747 4153 
Q 2428 4238 2131 4238 
Q 1616 4238 1336 4038 
Q 1056 3838 1056 3469 
Q 1056 3159 1242 3001 
Q 1428 2844 1947 2747 
L 2328 2669 
Q 3034 2534 3370 2195 
Q 3706 1856 3706 1288 
Q 3706 609 3251 259 
Q 2797 -91 1919 -91 
Q 1588 -91 1214 -16 
Q 841 59 441 206 
L 441 856 
Q 825 641 1194 531 
Q 1563 422 1919 422 
Q 2459 422 2753 634 
Q 3047 847 3047 1241 
Q 3047 1584 2836 1778 
Q 2625 1972 2144 2069 
L 1759 2144 
Q 1053 2284 737 2584 
Q 422 2884 422 3419 
Q 422 4038 858 4394 
Q 1294 4750 2059 4750 
Q 2388 4750 2728 4690 
Q 3069 4631 3425 4513 
z
" transform="scale(0.015625)"/>
     </defs>
     <use xlink:href="#DejaVuSans-48"/>
     <use xlink:href="#DejaVuSans-61" transform="translate(75.195312 0)"/>
     <use xlink:href="#DejaVuSans-75" transform="translate(136.474609 0)"/>
     <use xlink:href="#DejaVuSans-68" transform="translate(199.853516 0)"/>
     <use xlink:href="#DejaVuSans-61" transform="translate(263.232422 0)"/>
     <use xlink:href="#DejaVuSans-75" transform="translate(324.511719 0)"/>
     <use xlink:href="#DejaVuSans-43" transform="translate(387.890625 0)"/>
     <use xlink:href="#DejaVuSans-53" transform="translate(457.714844 0)"/>
    </g>
   </g>
   <g id="text_6">
    <!-- Huihui -->
    <g style="fill: #262626" transform="translate(177.377771 497.064027) scale(0.1584 -0.1584)">
     <use xlink:href="#DejaVuSans-48"/>
     <use xlink:href="#DejaVuSans-75" transform="translate(75.195312 0)"/>
     <use xlink:href="#DejaVuSans-69" transform="translate(138.574219 0)"/>
     <use xlink:href="#DejaVuSans-68" transform="translate(166.357422 0)"/>
     <use xlink:href="#DejaVuSans-75" transform="translate(229.736328 0)"/>
     <use xlink:href="#DejaVuSans-69" transform="translate(293.115234 0)"/>
    </g>
   </g>
   <g id="text_7">
    <!-- Qwen3-4B Tensor Edit Overlap -->
    <g style="fill: #262626" transform="translate(173.146961 17.077969) scale(0.13 -0.13)">
     <defs>
      <path id="DejaVuSans-Bold-51" d="M 2847 -84 
L 2753 -84 
Q 1600 -84 959 553 
Q 319 1191 319 2328 
Q 319 3463 958 4106 
Q 1597 4750 2719 4750 
Q 3853 4750 4486 4112 
Q 5119 3475 5119 2328 
Q 5119 1541 4783 972 
Q 4447 403 3816 116 
L 4756 -934 
L 3609 -934 
L 2847 -84 
z
M 2719 3878 
Q 2169 3878 1866 3472 
Q 1563 3066 1563 2328 
Q 1563 1578 1859 1179 
Q 2156 781 2719 781 
Q 3272 781 3575 1187 
Q 3878 1594 3878 2328 
Q 3878 3066 3575 3472 
Q 3272 3878 2719 3878 
z
" transform="scale(0.015625)"/>
      <path id="DejaVuSans-Bold-77" d="M 225 3500 
L 1313 3500 
L 1900 1088 
L 2491 3500 
L 3425 3500 
L 4013 1113 
L 4603 3500 
L 5691 3500 
L 4769 0 
L 3547 0 
L 2956 2406 
L 2369 0 
L 1147 0 
L 225 3500 
z
" transform="scale(0.015625)"/>
      <path id="DejaVuSans-Bold-65" d="M 4031 1759 
L 4031 1441 
L 1416 1441 
Q 1456 1047 1700 850 
Q 1944 653 2381 653 
Q 2734 653 3104 758 
Q 3475 863 3866 1075 
L 3866 213 
Q 3469 63 3072 -14 
Q 2675 -91 2278 -91 
Q 1328 -91 801 392 
Q 275 875 275 1747 
Q 275 2603 792 3093 
Q 1309 3584 2216 3584 
Q 3041 3584 3536 3087 
Q 4031 2591 4031 1759 
z
M 2881 2131 
Q 2881 2450 2695 2645 
Q 2509 2841 2209 2841 
Q 1884 2841 1681 2658 
Q 1478 2475 1428 2131 
L 2881 2131 
z
" transform="scale(0.015625)"/>
      <path id="DejaVuSans-Bold-6e" d="M 4056 2131 
L 4056 0 
L 2931 0 
L 2931 347 
L 2931 1631 
Q 2931 2084 2911 2256 
Q 2891 2428 2841 2509 
Q 2775 2619 2662 2680 
Q 2550 2741 2406 2741 
Q 2056 2741 1856 2470 
Q 1656 2200 1656 1722 
L 1656 0 
L 538 0 
L 538 3500 
L 1656 3500 
L 1656 2988 
Q 1909 3294 2193 3439 
Q 2478 3584 2822 3584 
Q 3428 3584 3742 3212 
Q 4056 2841 4056 2131 
z
" transform="scale(0.015625)"/>
      <path id="DejaVuSans-Bold-33" d="M 2981 2516 
Q 3453 2394 3698 2092 
Q 3944 1791 3944 1325 
Q 3944 631 3412 270 
Q 2881 -91 1863 -91 
Q 1503 -91 1142 -33 
Q 781 25 428 141 
L 428 1069 
Q 766 900 1098 814 
Q 1431 728 1753 728 
Q 2231 728 2486 893 
Q 2741 1059 2741 1369 
Q 2741 1688 2480 1852 
Q 2219 2016 1709 2016 
L 1228 2016 
L 1228 2791 
L 1734 2791 
Q 2188 2791 2409 2933 
Q 2631 3075 2631 3366 
Q 2631 3634 2415 3781 
Q 2200 3928 1806 3928 
Q 1516 3928 1219 3862 
Q 922 3797 628 3669 
L 628 4550 
Q 984 4650 1334 4700 
Q 1684 4750 2022 4750 
Q 2931 4750 3382 4451 
Q 3834 4153 3834 3553 
Q 3834 3144 3618 2883 
Q 3403 2622 2981 2516 
z
" transform="scale(0.015625)"/>
      <path id="DejaVuSans-Bold-2d" d="M 347 2297 
L 2309 2297 
L 2309 1388 
L 347 1388 
L 347 2297 
z
" transform="scale(0.015625)"/>
      <path id="DejaVuSans-Bold-34" d="M 2356 3675 
L 1038 1722 
L 2356 1722 
L 2356 3675 
z
M 2156 4666 
L 3494 4666 
L 3494 1722 
L 4159 1722 
L 4159 850 
L 3494 850 
L 3494 0 
L 2356 0 
L 2356 850 
L 288 850 
L 288 1881 
L 2156 4666 
z
" transform="scale(0.015625)"/>
      <path id="DejaVuSans-Bold-42" d="M 2456 2859 
Q 2741 2859 2887 2984 
Q 3034 3109 3034 3353 
Q 3034 3594 2887 3720 
Q 2741 3847 2456 3847 
L 1791 3847 
L 1791 2859 
L 2456 2859 
z
M 2497 819 
Q 2859 819 3042 972 
Q 3225 1125 3225 1434 
Q 3225 1738 3044 1889 
Q 2863 2041 2497 2041 
L 1791 2041 
L 1791 819 
L 2497 819 
z
M 3616 2497 
Q 4003 2384 4215 2081 
Q 4428 1778 4428 1338 
Q 4428 663 3972 331 
Q 3516 0 2584 0 
L 588 0 
L 588 4666 
L 2394 4666 
Q 3366 4666 3802 4372 
Q 4238 4078 4238 3431 
Q 4238 3091 4078 2852 
Q 3919 2613 3616 2497 
z
" transform="scale(0.015625)"/>
      <path id="DejaVuSans-Bold-20" transform="scale(0.015625)"/>
      <path id="DejaVuSans-Bold-54" d="M 31 4666 
L 4331 4666 
L 4331 3756 
L 2784 3756 
L 2784 0 
L 1581 0 
L 1581 3756 
L 31 3756 
L 31 4666 
z
" transform="scale(0.015625)"/>
      <path id="DejaVuSans-Bold-73" d="M 3272 3391 
L 3272 2541 
Q 2913 2691 2578 2766 
Q 2244 2841 1947 2841 
Q 1628 2841 1473 2761 
Q 1319 2681 1319 2516 
Q 1319 2381 1436 2309 
Q 1553 2238 1856 2203 
L 2053 2175 
Q 2913 2066 3209 1816 
Q 3506 1566 3506 1031 
Q 3506 472 3093 190 
Q 2681 -91 1863 -91 
Q 1516 -91 1145 -36 
Q 775 19 384 128 
L 384 978 
Q 719 816 1070 734 
Q 1422 653 1784 653 
Q 2113 653 2278 743 
Q 2444 834 2444 1013 
Q 2444 1163 2330 1236 
Q 2216 1309 1875 1350 
L 1678 1375 
Q 931 1469 631 1722 
Q 331 1975 331 2491 
Q 331 3047 712 3315 
Q 1094 3584 1881 3584 
Q 2191 3584 2531 3537 
Q 2872 3491 3272 3391 
z
" transform="scale(0.015625)"/>
      <path id="DejaVuSans-Bold-6f" d="M 2203 2784 
Q 1831 2784 1636 2517 
Q 1441 2250 1441 1747 
Q 1441 1244 1636 976 
Q 1831 709 2203 709 
Q 2569 709 2762 976 
Q 2956 1244 2956 1747 
Q 2956 2250 2762 2517 
Q 2569 2784 2203 2784 
z
M 2203 3584 
Q 3106 3584 3614 3096 
Q 4122 2609 4122 1747 
Q 4122 884 3614 396 
Q 3106 -91 2203 -91 
Q 1297 -91 786 396 
Q 275 884 275 1747 
Q 275 2609 786 3096 
Q 1297 3584 2203 3584 
z
" transform="scale(0.015625)"/>
      <path id="DejaVuSans-Bold-72" d="M 3138 2547 
Q 2991 2616 2845 2648 
Q 2700 2681 2553 2681 
Q 2122 2681 1889 2404 
Q 1656 2128 1656 1613 
L 1656 0 
L 538 0 
L 538 3500 
L 1656 3500 
L 1656 2925 
Q 1872 3269 2151 3426 
Q 2431 3584 2822 3584 
Q 2878 3584 2943 3579 
Q 3009 3575 3134 3559 
L 3138 2547 
z
" transform="scale(0.015625)"/>
      <path id="DejaVuSans-Bold-45" d="M 588 4666 
L 3834 4666 
L 3834 3756 
L 1791 3756 
L 1791 2888 
L 3713 2888 
L 3713 1978 
L 1791 1978 
L 1791 909 
L 3903 909 
L 3903 0 
L 588 0 
L 588 4666 
z
" transform="scale(0.015625)"/>
      <path id="DejaVuSans-Bold-64" d="M 2919 2988 
L 2919 4863 
L 4044 4863 
L 4044 0 
L 2919 0 
L 2919 506 
Q 2688 197 2409 53 
Q 2131 -91 1766 -91 
Q 1119 -91 703 423 
Q 288 938 288 1747 
Q 288 2556 703 3070 
Q 1119 3584 1766 3584 
Q 2128 3584 2408 3439 
Q 2688 3294 2919 2988 
z
M 2181 722 
Q 2541 722 2730 984 
Q 2919 1247 2919 1747 
Q 2919 2247 2730 2509 
Q 2541 2772 2181 2772 
Q 1825 2772 1636 2509 
Q 1447 2247 1447 1747 
Q 1447 1247 1636 984 
Q 1825 722 2181 722 
z
" transform="scale(0.015625)"/>
      <path id="DejaVuSans-Bold-69" d="M 538 3500 
L 1656 3500 
L 1656 0 
L 538 0 
L 538 3500 
z
M 538 4863 
L 1656 4863 
L 1656 3950 
L 538 3950 
L 538 4863 
z
" transform="scale(0.015625)"/>
      <path id="DejaVuSans-Bold-74" d="M 1759 4494 
L 1759 3500 
L 2913 3500 
L 2913 2700 
L 1759 2700 
L 1759 1216 
Q 1759 972 1856 886 
Q 1953 800 2241 800 
L 2816 800 
L 2816 0 
L 1856 0 
Q 1194 0 917 276 
Q 641 553 641 1216 
L 641 2700 
L 84 2700 
L 84 3500 
L 641 3500 
L 641 4494 
L 1759 4494 
z
" transform="scale(0.015625)"/>
      <path id="DejaVuSans-Bold-4f" d="M 2719 3878 
Q 2169 3878 1866 3472 
Q 1563 3066 1563 2328 
Q 1563 1594 1866 1187 
Q 2169 781 2719 781 
Q 3272 781 3575 1187 
Q 3878 1594 3878 2328 
Q 3878 3066 3575 3472 
Q 3272 3878 2719 3878 
z
M 2719 4750 
Q 3844 4750 4481 4106 
Q 5119 3463 5119 2328 
Q 5119 1197 4481 553 
Q 3844 -91 2719 -91 
Q 1597 -91 958 553 
Q 319 1197 319 2328 
Q 319 3463 958 4106 
Q 1597 4750 2719 4750 
z
" transform="scale(0.015625)"/>
      <path id="DejaVuSans-Bold-76" d="M 97 3500 
L 1216 3500 
L 2088 1081 
L 2956 3500 
L 4078 3500 
L 2700 0 
L 1472 0 
L 97 3500 
z
" transform="scale(0.015625)"/>
      <path id="DejaVuSans-Bold-6c" d="M 538 4863 
L 1656 4863 
L 1656 0 
L 538 0 
L 538 4863 
z
" transform="scale(0.015625)"/>
      <path id="DejaVuSans-Bold-61" d="M 2106 1575 
Q 1756 1575 1579 1456 
Q 1403 1338 1403 1106 
Q 1403 894 1545 773 
Q 1688 653 1941 653 
Q 2256 653 2472 879 
Q 2688 1106 2688 1447 
L 2688 1575 
L 2106 1575 
z
M 3816 1997 
L 3816 0 
L 2688 0 
L 2688 519 
Q 2463 200 2181 54 
Q 1900 -91 1497 -91 
Q 953 -91 614 226 
Q 275 544 275 1050 
Q 275 1666 698 1953 
Q 1122 2241 2028 2241 
L 2688 2241 
L 2688 2328 
Q 2688 2594 2478 2717 
Q 2269 2841 1825 2841 
Q 1466 2841 1156 2769 
Q 847 2697 581 2553 
L 581 3406 
Q 941 3494 1303 3539 
Q 1666 3584 2028 3584 
Q 2975 3584 3395 3211 
Q 3816 2838 3816 1997 
z
" transform="scale(0.015625)"/>
      <path id="DejaVuSans-Bold-70" d="M 1656 506 
L 1656 -1331 
L 538 -1331 
L 538 3500 
L 1656 3500 
L 1656 2988 
Q 1888 3294 2169 3439 
Q 2450 3584 2816 3584 
Q 3463 3584 3878 3070 
Q 4294 2556 4294 1747 
Q 4294 938 3878 423 
Q 3463 -91 2816 -91 
Q 2450 -91 2169 54 
Q 1888 200 1656 506 
z
M 2400 2772 
Q 2041 2772 1848 2508 
Q 1656 2244 1656 1747 
Q 1656 1250 1848 986 
Q 2041 722 2400 722 
Q 2759 722 2948 984 
Q 3138 1247 3138 1747 
Q 3138 2247 2948 2509 
Q 2759 2772 2400 2772 
z
" transform="scale(0.015625)"/>
     </defs>
     <use xlink:href="#DejaVuSans-Bold-51"/>
     <use xlink:href="#DejaVuSans-Bold-77" transform="translate(85.009766 0)"/>
     <use xlink:href="#DejaVuSans-Bold-65" transform="translate(177.392578 0)"/>
     <use xlink:href="#DejaVuSans-Bold-6e" transform="translate(245.214844 0)"/>
     <use xlink:href="#DejaVuSans-Bold-33" transform="translate(316.40625 0)"/>
     <use xlink:href="#DejaVuSans-Bold-2d" transform="translate(385.986328 0)"/>
     <use xlink:href="#DejaVuSans-Bold-34" transform="translate(427.490234 0)"/>
     <use xlink:href="#DejaVuSans-Bold-42" transform="translate(497.070312 0)"/>
     <use xlink:href="#DejaVuSans-Bold-20" transform="translate(573.291016 0)"/>
     <use xlink:href="#DejaVuSans-Bold-54" transform="translate(608.105469 0)"/>
     <use xlink:href="#DejaVuSans-Bold-65" transform="translate(663.068359 0)"/>
     <use xlink:href="#DejaVuSans-Bold-6e" transform="translate(730.890625 0)"/>
     <use xlink:href="#DejaVuSans-Bold-73" transform="translate(802.082031 0)"/>
     <use xlink:href="#DejaVuSans-Bold-6f" transform="translate(861.603516 0)"/>
     <use xlink:href="#DejaVuSans-Bold-72" transform="translate(930.304688 0)"/>
     <use xlink:href="#DejaVuSans-Bold-20" transform="translate(979.621094 0)"/>
     <use xlink:href="#DejaVuSans-Bold-45" transform="translate(1014.435547 0)"/>
     <use xlink:href="#DejaVuSans-Bold-64" transform="translate(1082.746094 0)"/>
     <use xlink:href="#DejaVuSans-Bold-69" transform="translate(1154.328125 0)"/>
     <use xlink:href="#DejaVuSans-Bold-74" transform="translate(1188.605469 0)"/>
     <use xlink:href="#DejaVuSans-Bold-20" transform="translate(1236.408203 0)"/>
     <use xlink:href="#DejaVuSans-Bold-4f" transform="translate(1271.222656 0)"/>
     <use xlink:href="#DejaVuSans-Bold-76" transform="translate(1356.232422 0)"/>
     <use xlink:href="#DejaVuSans-Bold-65" transform="translate(1421.417969 0)"/>
     <use xlink:href="#DejaVuSans-Bold-72" transform="translate(1489.240234 0)"/>
     <use xlink:href="#DejaVuSans-Bold-6c" transform="translate(1538.556641 0)"/>
     <use xlink:href="#DejaVuSans-Bold-61" transform="translate(1572.833984 0)"/>
     <use xlink:href="#DejaVuSans-Bold-70" transform="translate(1640.314453 0)"/>
    </g>
   </g>
  </g>
 </g>
 <defs>
  <clipPath id="p61afe61128">
   <rect x="7.2" y="37.077969" width="554.441735" height="554.4"/>
  </clipPath>
 </defs>
</svg>
