<?xml version="1.0" encoding="utf-8" standalone="no"?>
<!DOCTYPE svg PUBLIC "-//W3C//DTD SVG 1.1//EN"
  "http://www.w3.org/Graphics/SVG/1.1/DTD/svg11.dtd">
<svg xmlns:xlink="http://www.w3.org/1999/xlink" width="605.212375pt" height="384.791562pt" viewBox="0 0 605.212375 384.791562" xmlns="http://www.w3.org/2000/svg" version="1.1">
 <metadata>
  <rdf:RDF xmlns:dc="http://purl.org/dc/elements/1.1/" xmlns:cc="http://creativecommons.org/ns#" xmlns:rdf="http://www.w3.org/1999/02/22-rdf-syntax-ns#">
   <cc:Work>
    <dc:type rdf:resource="http://purl.org/dc/dcmitype/StillImage"/>
    <dc:date>2026-04-24T22:09:21.997931</dc:date>
    <dc:format>image/svg+xml</dc:format>
    <dc:creator>
     <cc:Agent>
      <dc:title>Matplotlib v3.10.8, https://matplotlib.org/</dc:title>
     </cc:Agent>
    </dc:creator>
   </cc:Work>
  </rdf:RDF>
 </metadata>
 <defs>
  <style type="text/css">*{stroke-linejoin: round; stroke-linecap: butt}</style>
 </defs>
 <g id="figure_1">
  <g id="patch_1">
   <path d="M 0 384.791562 
L 605.212375 384.791562 
L 605.212375 0 
L 0 0 
z
" style="fill: #ffffff"/>
  </g>
  <g id="axes_1">
   <g id="patch_2">
    <path d="M 40.012375 356.477812 
L 598.012375 356.477812 
L 598.012375 23.837812 
L 40.012375 23.837812 
z
" style="fill: #ffffff"/>
   </g>
   <g id="matplotlib.axis_1">
    <g id="xtick_1">
     <g id="line2d_1">
      <path d="M 116.103284 356.477812 
L 116.103284 23.837812 
" clip-path="url(#p41324563b8)" style="fill: none; stroke: #cccccc; stroke-linecap: round"/>
     </g>
     <g id="text_1">
      <!-- Heretic -->
      <g style="fill: #262626" transform="translate(94.557659 375.095937) scale(0.12 -0.12)">
       <defs>
        <path id="DejaVuSans-48" d="M 628 4666 
L 1259 4666 
L 1259 2753 
L 3553 2753 
L 3553 4666 
L 4184 4666 
L 4184 0 
L 3553 0 
L 3553 2222 
L 1259 2222 
L 1259 0 
L 628 0 
L 628 4666 
z
" transform="scale(0.015625)"/>
        <path id="DejaVuSans-65" d="M 3597 1894 
L 3597 1613 
L 953 1613 
Q 991 1019 1311 708 
Q 1631 397 2203 397 
Q 2534 397 2845 478 
Q 3156 559 3463 722 
L 3463 178 
Q 3153 47 2828 -22 
Q 2503 -91 2169 -91 
Q 1331 -91 842 396 
Q 353 884 353 1716 
Q 353 2575 817 3079 
Q 1281 3584 2069 3584 
Q 2775 3584 3186 3129 
Q 3597 2675 3597 1894 
z
M 3022 2063 
Q 3016 2534 2758 2815 
Q 2500 3097 2075 3097 
Q 1594 3097 1305 2825 
Q 1016 2553 972 2059 
L 3022 2063 
z
" transform="scale(0.015625)"/>
        <path id="DejaVuSans-72" d="M 2631 2963 
Q 2534 3019 2420 3045 
Q 2306 3072 2169 3072 
Q 1681 3072 1420 2755 
Q 1159 2438 1159 1844 
L 1159 0 
L 581 0 
L 581 3500 
L 1159 3500 
L 1159 2956 
Q 1341 3275 1631 3429 
Q 1922 3584 2338 3584 
Q 2397 3584 2469 3576 
Q 2541 3569 2628 3553 
L 2631 2963 
z
" transform="scale(0.015625)"/>
        <path id="DejaVuSans-74" d="M 1172 4494 
L 1172 3500 
L 2356 3500 
L 2356 3053 
L 1172 3053 
L 1172 1153 
Q 1172 725 1289 603 
Q 1406 481 1766 481 
L 2356 481 
L 2356 0 
L 1766 0 
Q 1100 0 847 248 
Q 594 497 594 1153 
L 594 3053 
L 172 3053 
L 172 3500 
L 594 3500 
L 594 4494 
L 1172 4494 
z
" transform="scale(0.015625)"/>
        <path id="DejaVuSans-69" d="M 603 3500 
L 1178 3500 
L 1178 0 
L 603 0 
L 603 3500 
z
M 603 4863 
L 1178 4863 
L 1178 4134 
L 603 4134 
L 603 4863 
z
" transform="scale(0.015625)"/>
        <path id="DejaVuSans-63" d="M 3122 3366 
L 3122 2828 
Q 2878 2963 2633 3030 
Q 2388 3097 2138 3097 
Q 1578 3097 1268 2742 
Q 959 2388 959 1747 
Q 959 1106 1268 751 
Q 1578 397 2138 397 
Q 2388 397 2633 464 
Q 2878 531 3122 666 
L 3122 134 
Q 2881 22 2623 -34 
Q 2366 -91 2075 -91 
Q 1284 -91 818 406 
Q 353 903 353 1747 
Q 353 2603 823 3093 
Q 1294 3584 2113 3584 
Q 2378 3584 2631 3529 
Q 2884 3475 3122 3366 
z
" transform="scale(0.015625)"/>
       </defs>
       <use xlink:href="#DejaVuSans-48"/>
       <use xlink:href="#DejaVuSans-65" transform="translate(75.195312 0)"/>
       <use xlink:href="#DejaVuSans-72" transform="translate(136.71875 0)"/>
       <use xlink:href="#DejaVuSans-65" transform="translate(175.582031 0)"/>
       <use xlink:href="#DejaVuSans-74" transform="translate(237.105469 0)"/>
       <use xlink:href="#DejaVuSans-69" transform="translate(276.314453 0)"/>
       <use xlink:href="#DejaVuSans-63" transform="translate(304.097656 0)"/>
      </g>
     </g>
    </g>
    <g id="xtick_2">
     <g id="line2d_2">
      <path d="M 319.012375 356.477812 
L 319.012375 23.837812 
" clip-path="url(#p41324563b8)" style="fill: none; stroke: #cccccc; stroke-linecap: round"/>
     </g>
     <g id="text_2">
      <!-- HauhauCS -->
      <g style="fill: #262626" transform="translate(287.740188 375.095937) scale(0.12 -0.12)">
       <defs>
        <path id="DejaVuSans-61" d="M 2194 1759 
Q 1497 1759 1228 1600 
Q 959 1441 959 1056 
Q 959 750 1161 570 
Q 1363 391 1709 391 
Q 2188 391 2477 730 
Q 2766 1069 2766 1631 
L 2766 1759 
L 2194 1759 
z
M 3341 1997 
L 3341 0 
L 2766 0 
L 2766 531 
Q 2569 213 2275 61 
Q 1981 -91 1556 -91 
Q 1019 -91 701 211 
Q 384 513 384 1019 
Q 384 1609 779 1909 
Q 1175 2209 1959 2209 
L 2766 2209 
L 2766 2266 
Q 2766 2663 2505 2880 
Q 2244 3097 1772 3097 
Q 1472 3097 1187 3025 
Q 903 2953 641 2809 
L 641 3341 
Q 956 3463 1253 3523 
Q 1550 3584 1831 3584 
Q 2591 3584 2966 3190 
Q 3341 2797 3341 1997 
z
" transform="scale(0.015625)"/>
        <path id="DejaVuSans-75" d="M 544 1381 
L 544 3500 
L 1119 3500 
L 1119 1403 
Q 1119 906 1312 657 
Q 1506 409 1894 409 
Q 2359 409 2629 706 
Q 2900 1003 2900 1516 
L 2900 3500 
L 3475 3500 
L 3475 0 
L 2900 0 
L 2900 538 
Q 2691 219 2414 64 
Q 2138 -91 1772 -91 
Q 1169 -91 856 284 
Q 544 659 544 1381 
z
M 1991 3584 
L 1991 3584 
z
" transform="scale(0.015625)"/>
        <path id="DejaVuSans-68" d="M 3513 2113 
L 3513 0 
L 2938 0 
L 2938 2094 
Q 2938 2591 2744 2837 
Q 2550 3084 2163 3084 
Q 1697 3084 1428 2787 
Q 1159 2491 1159 1978 
L 1159 0 
L 581 0 
L 581 4863 
L 1159 4863 
L 1159 2956 
Q 1366 3272 1645 3428 
Q 1925 3584 2291 3584 
Q 2894 3584 3203 3211 
Q 3513 2838 3513 2113 
z
" transform="scale(0.015625)"/>
        <path id="DejaVuSans-43" d="M 4122 4306 
L 4122 3641 
Q 3803 3938 3442 4084 
Q 3081 4231 2675 4231 
Q 1875 4231 1450 3742 
Q 1025 3253 1025 2328 
Q 1025 1406 1450 917 
Q 1875 428 2675 428 
Q 3081 428 3442 575 
Q 3803 722 4122 1019 
L 4122 359 
Q 3791 134 3420 21 
Q 3050 -91 2638 -91 
Q 1578 -91 968 557 
Q 359 1206 359 2328 
Q 359 3453 968 4101 
Q 1578 4750 2638 4750 
Q 3056 4750 3426 4639 
Q 3797 4528 4122 4306 
z
" transform="scale(0.015625)"/>
        <path id="DejaVuSans-53" d="M 3425 4513 
L 3425 3897 
Q 3066 4069 2747 4153 
Q 2428 4238 2131 4238 
Q 1616 4238 1336 4038 
Q 1056 3838 1056 3469 
Q 1056 3159 1242 3001 
Q 1428 2844 1947 2747 
L 2328 2669 
Q 3034 2534 3370 2195 
Q 3706 1856 3706 1288 
Q 3706 609 3251 259 
Q 2797 -91 1919 -91 
Q 1588 -91 1214 -16 
Q 841 59 441 206 
L 441 856 
Q 825 641 1194 531 
Q 1563 422 1919 422 
Q 2459 422 2753 634 
Q 3047 847 3047 1241 
Q 3047 1584 2836 1778 
Q 2625 1972 2144 2069 
L 1759 2144 
Q 1053 2284 737 2584 
Q 422 2884 422 3419 
Q 422 4038 858 4394 
Q 1294 4750 2059 4750 
Q 2388 4750 2728 4690 
Q 3069 4631 3425 4513 
z
" transform="scale(0.015625)"/>
       </defs>
       <use xlink:href="#DejaVuSans-48"/>
       <use xlink:href="#DejaVuSans-61" transform="translate(75.195312 0)"/>
       <use xlink:href="#DejaVuSans-75" transform="translate(136.474609 0)"/>
       <use xlink:href="#DejaVuSans-68" transform="translate(199.853516 0)"/>
       <use xlink:href="#DejaVuSans-61" transform="translate(263.232422 0)"/>
       <use xlink:href="#DejaVuSans-75" transform="translate(324.511719 0)"/>
       <use xlink:href="#DejaVuSans-43" transform="translate(387.890625 0)"/>
       <use xlink:href="#DejaVuSans-53" transform="translate(457.714844 0)"/>
      </g>
     </g>
    </g>
    <g id="xtick_3">
     <g id="line2d_3">
      <path d="M 521.921466 356.477812 
L 521.921466 23.837812 
" clip-path="url(#p41324563b8)" style="fill: none; stroke: #cccccc; stroke-linecap: round"/>
     </g>
     <g id="text_3">
      <!-- Huihui -->
      <g style="fill: #262626" transform="translate(502.668028 375.095937) scale(0.12 -0.12)">
       <use xlink:href="#DejaVuSans-48"/>
       <use xlink:href="#DejaVuSans-75" transform="translate(75.195312 0)"/>
       <use xlink:href="#DejaVuSans-69" transform="translate(138.574219 0)"/>
       <use xlink:href="#DejaVuSans-68" transform="translate(166.357422 0)"/>
       <use xlink:href="#DejaVuSans-75" transform="translate(229.736328 0)"/>
       <use xlink:href="#DejaVuSans-69" transform="translate(293.115234 0)"/>
      </g>
     </g>
    </g>
   </g>
   <g id="matplotlib.axis_2">
    <g id="ytick_1">
     <g id="line2d_4">
      <path d="M 40.012375 342.011792 
L 598.012375 342.011792 
" clip-path="url(#p41324563b8)" style="fill: none; stroke: #cccccc; stroke-linecap: round"/>
     </g>
     <g id="text_4">
      <!-- 0 -->
      <g style="fill: #262626" transform="translate(22.81375 346.608847) scale(0.121 -0.121)">
       <defs>
        <path id="DejaVuSans-30" d="M 2034 4250 
Q 1547 4250 1301 3770 
Q 1056 3291 1056 2328 
Q 1056 1369 1301 889 
Q 1547 409 2034 409 
Q 2525 409 2770 889 
Q 3016 1369 3016 2328 
Q 3016 3291 2770 3770 
Q 2525 4250 2034 4250 
z
M 2034 4750 
Q 2819 4750 3233 4129 
Q 3647 3509 3647 2328 
Q 3647 1150 3233 529 
Q 2819 -91 2034 -91 
Q 1250 -91 836 529 
Q 422 1150 422 2328 
Q 422 3509 836 4129 
Q 1250 4750 2034 4750 
z
" transform="scale(0.015625)"/>
       </defs>
       <use xlink:href="#DejaVuSans-30"/>
      </g>
     </g>
    </g>
    <g id="ytick_2">
     <g id="line2d_5">
      <path d="M 40.012375 292.89623 
L 598.012375 292.89623 
" clip-path="url(#p41324563b8)" style="fill: none; stroke: #cccccc; stroke-linecap: round"/>
     </g>
     <g id="text_5">
      <!-- 1 -->
      <g style="fill: #262626" transform="translate(22.81375 297.493285) scale(0.121 -0.121)">
       <defs>
        <path id="DejaVuSans-31" d="M 794 531 
L 1825 531 
L 1825 4091 
L 703 3866 
L 703 4441 
L 1819 4666 
L 2450 4666 
L 2450 531 
L 3481 531 
L 3481 0 
L 794 0 
L 794 531 
z
" transform="scale(0.015625)"/>
       </defs>
       <use xlink:href="#DejaVuSans-31"/>
      </g>
     </g>
    </g>
    <g id="ytick_3">
     <g id="line2d_6">
      <path d="M 40.012375 243.780669 
L 598.012375 243.780669 
" clip-path="url(#p41324563b8)" style="fill: none; stroke: #cccccc; stroke-linecap: round"/>
     </g>
     <g id="text_6">
      <!-- 2 -->
      <g style="fill: #262626" transform="translate(22.81375 248.377723) scale(0.121 -0.121)">
       <defs>
        <path id="DejaVuSans-32" d="M 1228 531 
L 3431 531 
L 3431 0 
L 469 0 
L 469 531 
Q 828 903 1448 1529 
Q 2069 2156 2228 2338 
Q 2531 2678 2651 2914 
Q 2772 3150 2772 3378 
Q 2772 3750 2511 3984 
Q 2250 4219 1831 4219 
Q 1534 4219 1204 4116 
Q 875 4013 500 3803 
L 500 4441 
Q 881 4594 1212 4672 
Q 1544 4750 1819 4750 
Q 2544 4750 2975 4387 
Q 3406 4025 3406 3419 
Q 3406 3131 3298 2873 
Q 3191 2616 2906 2266 
Q 2828 2175 2409 1742 
Q 1991 1309 1228 531 
z
" transform="scale(0.015625)"/>
       </defs>
       <use xlink:href="#DejaVuSans-32"/>
      </g>
     </g>
    </g>
    <g id="ytick_4">
     <g id="line2d_7">
      <path d="M 40.012375 194.665107 
L 598.012375 194.665107 
" clip-path="url(#p41324563b8)" style="fill: none; stroke: #cccccc; stroke-linecap: round"/>
     </g>
     <g id="text_7">
      <!-- 3 -->
      <g style="fill: #262626" transform="translate(22.81375 199.262162) scale(0.121 -0.121)">
       <defs>
        <path id="DejaVuSans-33" d="M 2597 2516 
Q 3050 2419 3304 2112 
Q 3559 1806 3559 1356 
Q 3559 666 3084 287 
Q 2609 -91 1734 -91 
Q 1441 -91 1130 -33 
Q 819 25 488 141 
L 488 750 
Q 750 597 1062 519 
Q 1375 441 1716 441 
Q 2309 441 2620 675 
Q 2931 909 2931 1356 
Q 2931 1769 2642 2001 
Q 2353 2234 1838 2234 
L 1294 2234 
L 1294 2753 
L 1863 2753 
Q 2328 2753 2575 2939 
Q 2822 3125 2822 3475 
Q 2822 3834 2567 4026 
Q 2313 4219 1838 4219 
Q 1578 4219 1281 4162 
Q 984 4106 628 3988 
L 628 4550 
Q 988 4650 1302 4700 
Q 1616 4750 1894 4750 
Q 2613 4750 3031 4423 
Q 3450 4097 3450 3541 
Q 3450 3153 3228 2886 
Q 3006 2619 2597 2516 
z
" transform="scale(0.015625)"/>
       </defs>
       <use xlink:href="#DejaVuSans-33"/>
      </g>
     </g>
    </g>
    <g id="ytick_5">
     <g id="line2d_8">
      <path d="M 40.012375 145.549546 
L 598.012375 145.549546 
" clip-path="url(#p41324563b8)" style="fill: none; stroke: #cccccc; stroke-linecap: round"/>
     </g>
     <g id="text_8">
      <!-- 4 -->
      <g style="fill: #262626" transform="translate(22.81375 150.1466) scale(0.121 -0.121)">
       <defs>
        <path id="DejaVuSans-34" d="M 2419 4116 
L 825 1625 
L 2419 1625 
L 2419 4116 
z
M 2253 4666 
L 3047 4666 
L 3047 1625 
L 3713 1625 
L 3713 1100 
L 3047 1100 
L 3047 0 
L 2419 0 
L 2419 1100 
L 313 1100 
L 313 1709 
L 2253 4666 
z
" transform="scale(0.015625)"/>
       </defs>
       <use xlink:href="#DejaVuSans-34"/>
      </g>
     </g>
    </g>
    <g id="ytick_6">
     <g id="line2d_9">
      <path d="M 40.012375 96.433984 
L 598.012375 96.433984 
" clip-path="url(#p41324563b8)" style="fill: none; stroke: #cccccc; stroke-linecap: round"/>
     </g>
     <g id="text_9">
      <!-- 5 -->
      <g style="fill: #262626" transform="translate(22.81375 101.031039) scale(0.121 -0.121)">
       <defs>
        <path id="DejaVuSans-35" d="M 691 4666 
L 3169 4666 
L 3169 4134 
L 1269 4134 
L 1269 2991 
Q 1406 3038 1543 3061 
Q 1681 3084 1819 3084 
Q 2600 3084 3056 2656 
Q 3513 2228 3513 1497 
Q 3513 744 3044 326 
Q 2575 -91 1722 -91 
Q 1428 -91 1123 -41 
Q 819 9 494 109 
L 494 744 
Q 775 591 1075 516 
Q 1375 441 1709 441 
Q 2250 441 2565 725 
Q 2881 1009 2881 1497 
Q 2881 1984 2565 2268 
Q 2250 2553 1709 2553 
Q 1456 2553 1204 2497 
Q 953 2441 691 2322 
L 691 4666 
z
" transform="scale(0.015625)"/>
       </defs>
       <use xlink:href="#DejaVuSans-35"/>
      </g>
     </g>
    </g>
    <g id="ytick_7">
     <g id="line2d_10">
      <path d="M 40.012375 47.318422 
L 598.012375 47.318422 
" clip-path="url(#p41324563b8)" style="fill: none; stroke: #cccccc; stroke-linecap: round"/>
     </g>
     <g id="text_10">
      <!-- 6 -->
      <g style="fill: #262626" transform="translate(22.81375 51.915477) scale(0.121 -0.121)">
       <defs>
        <path id="DejaVuSans-36" d="M 2113 2584 
Q 1688 2584 1439 2293 
Q 1191 2003 1191 1497 
Q 1191 994 1439 701 
Q 1688 409 2113 409 
Q 2538 409 2786 701 
Q 3034 994 3034 1497 
Q 3034 2003 2786 2293 
Q 2538 2584 2113 2584 
z
M 3366 4563 
L 3366 3988 
Q 3128 4100 2886 4159 
Q 2644 4219 2406 4219 
Q 1781 4219 1451 3797 
Q 1122 3375 1075 2522 
Q 1259 2794 1537 2939 
Q 1816 3084 2150 3084 
Q 2853 3084 3261 2657 
Q 3669 2231 3669 1497 
Q 3669 778 3244 343 
Q 2819 -91 2113 -91 
Q 1303 -91 875 529 
Q 447 1150 447 2328 
Q 447 3434 972 4092 
Q 1497 4750 2381 4750 
Q 2619 4750 2861 4703 
Q 3103 4656 3366 4563 
z
" transform="scale(0.015625)"/>
       </defs>
       <use xlink:href="#DejaVuSans-36"/>
      </g>
     </g>
    </g>
    <g id="text_11">
     <!-- Edit Norm -->
     <g style="fill: #262626" transform="translate(16.318125 220.05) rotate(-90) scale(0.12 -0.12)">
      <defs>
       <path id="DejaVuSans-45" d="M 628 4666 
L 3578 4666 
L 3578 4134 
L 1259 4134 
L 1259 2753 
L 3481 2753 
L 3481 2222 
L 1259 2222 
L 1259 531 
L 3634 531 
L 3634 0 
L 628 0 
L 628 4666 
z
" transform="scale(0.015625)"/>
       <path id="DejaVuSans-64" d="M 2906 2969 
L 2906 4863 
L 3481 4863 
L 3481 0 
L 2906 0 
L 2906 525 
Q 2725 213 2448 61 
Q 2172 -91 1784 -91 
Q 1150 -91 751 415 
Q 353 922 353 1747 
Q 353 2572 751 3078 
Q 1150 3584 1784 3584 
Q 2172 3584 2448 3432 
Q 2725 3281 2906 2969 
z
M 947 1747 
Q 947 1113 1208 752 
Q 1469 391 1925 391 
Q 2381 391 2643 752 
Q 2906 1113 2906 1747 
Q 2906 2381 2643 2742 
Q 2381 3103 1925 3103 
Q 1469 3103 1208 2742 
Q 947 2381 947 1747 
z
" transform="scale(0.015625)"/>
       <path id="DejaVuSans-20" transform="scale(0.015625)"/>
       <path id="DejaVuSans-4e" d="M 628 4666 
L 1478 4666 
L 3547 763 
L 3547 4666 
L 4159 4666 
L 4159 0 
L 3309 0 
L 1241 3903 
L 1241 0 
L 628 0 
L 628 4666 
z
" transform="scale(0.015625)"/>
       <path id="DejaVuSans-6f" d="M 1959 3097 
Q 1497 3097 1228 2736 
Q 959 2375 959 1747 
Q 959 1119 1226 758 
Q 1494 397 1959 397 
Q 2419 397 2687 759 
Q 2956 1122 2956 1747 
Q 2956 2369 2687 2733 
Q 2419 3097 1959 3097 
z
M 1959 3584 
Q 2709 3584 3137 3096 
Q 3566 2609 3566 1747 
Q 3566 888 3137 398 
Q 2709 -91 1959 -91 
Q 1206 -91 779 398 
Q 353 888 353 1747 
Q 353 2609 779 3096 
Q 1206 3584 1959 3584 
z
" transform="scale(0.015625)"/>
       <path id="DejaVuSans-6d" d="M 3328 2828 
Q 3544 3216 3844 3400 
Q 4144 3584 4550 3584 
Q 5097 3584 5394 3201 
Q 5691 2819 5691 2113 
L 5691 0 
L 5113 0 
L 5113 2094 
Q 5113 2597 4934 2840 
Q 4756 3084 4391 3084 
Q 3944 3084 3684 2787 
Q 3425 2491 3425 1978 
L 3425 0 
L 2847 0 
L 2847 2094 
Q 2847 2600 2669 2842 
Q 2491 3084 2119 3084 
Q 1678 3084 1418 2786 
Q 1159 2488 1159 1978 
L 1159 0 
L 581 0 
L 581 3500 
L 1159 3500 
L 1159 2956 
Q 1356 3278 1631 3431 
Q 1906 3584 2284 3584 
Q 2666 3584 2933 3390 
Q 3200 3197 3328 2828 
z
" transform="scale(0.015625)"/>
      </defs>
      <use xlink:href="#DejaVuSans-45"/>
      <use xlink:href="#DejaVuSans-64" transform="translate(63.183594 0)"/>
      <use xlink:href="#DejaVuSans-69" transform="translate(126.660156 0)"/>
      <use xlink:href="#DejaVuSans-74" transform="translate(154.443359 0)"/>
      <use xlink:href="#DejaVuSans-20" transform="translate(193.652344 0)"/>
      <use xlink:href="#DejaVuSans-4e" transform="translate(225.439453 0)"/>
      <use xlink:href="#DejaVuSans-6f" transform="translate(300.244141 0)"/>
      <use xlink:href="#DejaVuSans-72" transform="translate(361.425781 0)"/>
      <use xlink:href="#DejaVuSans-6d" transform="translate(400.789062 0)"/>
     </g>
    </g>
   </g>
   <g id="FillBetweenPolyCollection_1">
    <defs>
     <path id="m0ca8f556f4" d="M 152.215447 -43.43375 
L 79.991121 -43.43375 
L 80.026466 -44.747658 
L 80.191676 -46.061565 
L 80.484466 -47.375473 
L 80.901094 -48.689381 
L 81.436423 -50.003289 
L 82.083999 -51.317196 
L 82.836151 -52.631104 
L 83.684123 -53.945012 
L 84.618199 -55.258919 
L 85.627867 -56.572827 
L 86.701971 -57.886735 
L 87.828877 -59.200643 
L 88.996647 -60.51455 
L 90.193196 -61.828458 
L 91.406457 -63.142366 
L 92.624532 -64.456274 
L 93.835831 -65.770181 
L 95.029199 -67.084089 
L 96.194028 -68.397997 
L 97.320353 -69.711904 
L 98.398926 -71.025812 
L 99.421278 -72.33972 
L 100.379758 -73.653628 
L 101.267562 -74.967535 
L 102.078738 -76.281443 
L 102.808184 -77.595351 
L 103.451622 -78.909258 
L 104.005578 -80.223166 
L 104.467335 -81.537074 
L 104.83489 -82.850982 
L 105.106903 -84.164889 
L 105.282643 -85.478797 
L 105.36193 -86.792705 
L 105.345085 -88.106613 
L 105.232872 -89.42052 
L 105.026454 -90.734428 
L 104.727345 -92.048336 
L 104.337375 -93.362243 
L 103.858654 -94.676151 
L 103.293549 -95.990059 
L 102.644662 -97.303967 
L 101.914821 -98.617874 
L 101.10707 -99.931782 
L 100.224672 -101.24569 
L 99.271112 -102.559597 
L 98.250108 -103.873505 
L 97.165619 -105.187413 
L 96.021867 -106.501321 
L 94.823346 -107.815228 
L 93.574844 -109.129136 
L 92.281455 -110.443044 
L 90.948593 -111.756952 
L 89.582 -113.070859 
L 88.187753 -114.384767 
L 86.772262 -115.698675 
L 85.342265 -117.012582 
L 83.904814 -118.32649 
L 82.467252 -119.640398 
L 81.037185 -120.954306 
L 79.622449 -122.268213 
L 78.231058 -123.582121 
L 76.871158 -124.896029 
L 75.550964 -126.209936 
L 74.278695 -127.523844 
L 73.062502 -128.837752 
L 71.910393 -130.15166 
L 70.830154 -131.465567 
L 69.829265 -132.779475 
L 68.914823 -134.093383 
L 68.093458 -135.407291 
L 67.37126 -136.721198 
L 66.7537 -138.035106 
L 66.245566 -139.349014 
L 65.850904 -140.662921 
L 65.572963 -141.976829 
L 65.414152 -143.290737 
L 65.376011 -144.604645 
L 65.459189 -145.918552 
L 65.66343 -147.23246 
L 65.987582 -148.546368 
L 66.429603 -149.860275 
L 66.986592 -151.174183 
L 67.65482 -152.488091 
L 68.429781 -153.801999 
L 69.306242 -155.115906 
L 70.278309 -156.429814 
L 71.339498 -157.743722 
L 72.482808 -159.05763 
L 73.700806 -160.371537 
L 74.985708 -161.685445 
L 76.329464 -162.999353 
L 77.723845 -164.31326 
L 79.160529 -165.627168 
L 80.631181 -166.941076 
L 82.127534 -168.254984 
L 83.641465 -169.568891 
L 85.165065 -170.882799 
L 86.690704 -172.196707 
L 88.211086 -173.510614 
L 143.995482 -173.510614 
L 143.995482 -173.510614 
L 145.515865 -172.196707 
L 147.041503 -170.882799 
L 148.565103 -169.568891 
L 150.079034 -168.254984 
L 151.575387 -166.941076 
L 153.046039 -165.627168 
L 154.482723 -164.31326 
L 155.877104 -162.999353 
L 157.22086 -161.685445 
L 158.505762 -160.371537 
L 159.72376 -159.05763 
L 160.86707 -157.743722 
L 161.928259 -156.429814 
L 162.900326 -155.115906 
L 163.776787 -153.801999 
L 164.551748 -152.488091 
L 165.219977 -151.174183 
L 165.776965 -149.860275 
L 166.218986 -148.546368 
L 166.543138 -147.23246 
L 166.747379 -145.918552 
L 166.830557 -144.604645 
L 166.792416 -143.290737 
L 166.633606 -141.976829 
L 166.355664 -140.662921 
L 165.961002 -139.349014 
L 165.452869 -138.035106 
L 164.835308 -136.721198 
L 164.11311 -135.407291 
L 163.291746 -134.093383 
L 162.377304 -132.779475 
L 161.376415 -131.465567 
L 160.296175 -130.15166 
L 159.144066 -128.837752 
L 157.927873 -127.523844 
L 156.655604 -126.209936 
L 155.33541 -124.896029 
L 153.97551 -123.582121 
L 152.584119 -122.268213 
L 151.169383 -120.954306 
L 149.739317 -119.640398 
L 148.301754 -118.32649 
L 146.864303 -117.012582 
L 145.434306 -115.698675 
L 144.018815 -114.384767 
L 142.624568 -113.070859 
L 141.257975 -111.756952 
L 139.925113 -110.443044 
L 138.631724 -109.129136 
L 137.383222 -107.815228 
L 136.184702 -106.501321 
L 135.040949 -105.187413 
L 133.95646 -103.873505 
L 132.935456 -102.559597 
L 131.981896 -101.24569 
L 131.099498 -99.931782 
L 130.291747 -98.617874 
L 129.561906 -97.303967 
L 128.913019 -95.990059 
L 128.347914 -94.676151 
L 127.869193 -93.362243 
L 127.479223 -92.048336 
L 127.180114 -90.734428 
L 126.973696 -89.42052 
L 126.861483 -88.106613 
L 126.844638 -86.792705 
L 126.923925 -85.478797 
L 127.099665 -84.164889 
L 127.371678 -82.850982 
L 127.739234 -81.537074 
L 128.20099 -80.223166 
L 128.754946 -78.909258 
L 129.398385 -77.595351 
L 130.12783 -76.281443 
L 130.939006 -74.967535 
L 131.82681 -73.653628 
L 132.785291 -72.33972 
L 133.807642 -71.025812 
L 134.886215 -69.711904 
L 136.01254 -68.397997 
L 137.177369 -67.084089 
L 138.370737 -65.770181 
L 139.582036 -64.456274 
L 140.800111 -63.142366 
L 142.013372 -61.828458 
L 143.209921 -60.51455 
L 144.377691 -59.200643 
L 145.504598 -57.886735 
L 146.578701 -56.572827 
L 147.588369 -55.258919 
L 148.522446 -53.945012 
L 149.370417 -52.631104 
L 150.12257 -51.317196 
L 150.770145 -50.003289 
L 151.305474 -48.689381 
L 151.722102 -47.375473 
L 152.014892 -46.061565 
L 152.180102 -44.747658 
L 152.215447 -43.43375 
z
" style="stroke: #ffffff; stroke-opacity: 0.7"/>
    </defs>
    <g clip-path="url(#p41324563b8)">
     <use xlink:href="#m0ca8f556f4" x="0" y="384.791562" style="fill: #3498db; fill-opacity: 0.7; stroke: #ffffff; stroke-opacity: 0.7"/>
    </g>
   </g>
   <g id="FillBetweenPolyCollection_2">
    <defs>
     <path id="m18898bd58e" d="M 362.812381 -43.43375 
L 275.212369 -43.43375 
L 274.586921 -46.488295 
L 274.128508 -49.542841 
L 273.83603 -52.597386 
L 273.705763 -55.651932 
L 273.731513 -58.706477 
L 273.904822 -61.761023 
L 274.215242 -64.815568 
L 274.650649 -67.870114 
L 275.197591 -70.924659 
L 275.841659 -73.979205 
L 276.567866 -77.03375 
L 277.36102 -80.088295 
L 278.206085 -83.142841 
L 279.088506 -86.197386 
L 279.994507 -89.251932 
L 280.911342 -92.306477 
L 281.827489 -95.361023 
L 282.732803 -98.415568 
L 283.618605 -101.470114 
L 284.477721 -104.524659 
L 285.304473 -107.579205 
L 286.094612 -110.63375 
L 286.845222 -113.688295 
L 287.554579 -116.742841 
L 288.221984 -119.797386 
L 288.847571 -122.851932 
L 289.43211 -125.906477 
L 289.976791 -128.961023 
L 290.483018 -132.015568 
L 290.952205 -135.070114 
L 291.385588 -138.124659 
L 291.784056 -141.179205 
L 292.148005 -144.23375 
L 292.477219 -147.288295 
L 292.770786 -150.342841 
L 293.02705 -153.397386 
L 293.243586 -156.451932 
L 293.417228 -159.506477 
L 293.54412 -162.561023 
L 293.61981 -165.615568 
L 293.63937 -168.670114 
L 293.597548 -171.724659 
L 293.488947 -174.779205 
L 293.308221 -177.83375 
L 293.050283 -180.888295 
L 292.710528 -183.942841 
L 292.285049 -186.997386 
L 291.770854 -190.051932 
L 291.166059 -193.106477 
L 290.470074 -196.161023 
L 289.683751 -199.215568 
L 288.809502 -202.270114 
L 287.85138 -205.324659 
L 286.815122 -208.379205 
L 285.708139 -211.43375 
L 284.539467 -214.488295 
L 283.319678 -217.542841 
L 282.060737 -220.597386 
L 280.775834 -223.651932 
L 279.479171 -226.706477 
L 278.185728 -229.761023 
L 276.911008 -232.815568 
L 275.670766 -235.870114 
L 274.480733 -238.924659 
L 273.356342 -241.979205 
L 272.312466 -245.03375 
L 271.363165 -248.088295 
L 270.521464 -251.142841 
L 269.799146 -254.197386 
L 269.206584 -257.251932 
L 268.7526 -260.306477 
L 268.444361 -263.361023 
L 268.287305 -266.415568 
L 268.285102 -269.470114 
L 268.439645 -272.524659 
L 268.751069 -275.579205 
L 269.217803 -278.63375 
L 269.836633 -281.688295 
L 270.602797 -284.742841 
L 271.510089 -287.797386 
L 272.550983 -290.851932 
L 273.716765 -293.906477 
L 274.997675 -296.961023 
L 276.383058 -300.015568 
L 277.861517 -303.070114 
L 279.421075 -306.124659 
L 281.04933 -309.179205 
L 282.733622 -312.23375 
L 284.461183 -315.288295 
L 286.219303 -318.342841 
L 287.995473 -321.397386 
L 289.77753 -324.451932 
L 291.553797 -327.506477 
L 293.3132 -330.561023 
L 295.045388 -333.615568 
L 296.740823 -336.670114 
L 298.390866 -339.724659 
L 299.987841 -342.779205 
L 301.525081 -345.83375 
L 336.499669 -345.83375 
L 336.499669 -345.83375 
L 338.036909 -342.779205 
L 339.633884 -339.724659 
L 341.283927 -336.670114 
L 342.979362 -333.615568 
L 344.71155 -330.561023 
L 346.470953 -327.506477 
L 348.24722 -324.451932 
L 350.029277 -321.397386 
L 351.805447 -318.342841 
L 353.563567 -315.288295 
L 355.291128 -312.23375 
L 356.97542 -309.179205 
L 358.603675 -306.124659 
L 360.163233 -303.070114 
L 361.641692 -300.015568 
L 363.027075 -296.961023 
L 364.307985 -293.906477 
L 365.473767 -290.851932 
L 366.514661 -287.797386 
L 367.421953 -284.742841 
L 368.188117 -281.688295 
L 368.806947 -278.63375 
L 369.273681 -275.579205 
L 369.585105 -272.524659 
L 369.739648 -269.470114 
L 369.737445 -266.415568 
L 369.580389 -263.361023 
L 369.27215 -260.306477 
L 368.818166 -257.251932 
L 368.225604 -254.197386 
L 367.503286 -251.142841 
L 366.661585 -248.088295 
L 365.712284 -245.03375 
L 364.668408 -241.979205 
L 363.544017 -238.924659 
L 362.353984 -235.870114 
L 361.113742 -232.815568 
L 359.839022 -229.761023 
L 358.545579 -226.706477 
L 357.248916 -223.651932 
L 355.964013 -220.597386 
L 354.705072 -217.542841 
L 353.485283 -214.488295 
L 352.316611 -211.43375 
L 351.209628 -208.379205 
L 350.17337 -205.324659 
L 349.215248 -202.270114 
L 348.340999 -199.215568 
L 347.554676 -196.161023 
L 346.858691 -193.106477 
L 346.253896 -190.051932 
L 345.739701 -186.997386 
L 345.314222 -183.942841 
L 344.974467 -180.888295 
L 344.716529 -177.83375 
L 344.535803 -174.779205 
L 344.427202 -171.724659 
L 344.38538 -168.670114 
L 344.40494 -165.615568 
L 344.48063 -162.561023 
L 344.607522 -159.506477 
L 344.781164 -156.451932 
L 344.9977 -153.397386 
L 345.253964 -150.342841 
L 345.547531 -147.288295 
L 345.876745 -144.23375 
L 346.240694 -141.179205 
L 346.639162 -138.124659 
L 347.072545 -135.070114 
L 347.541732 -132.015568 
L 348.047959 -128.961023 
L 348.59264 -125.906477 
L 349.177179 -122.851932 
L 349.802766 -119.797386 
L 350.470171 -116.742841 
L 351.179528 -113.688295 
L 351.930138 -110.63375 
L 352.720277 -107.579205 
L 353.547029 -104.524659 
L 354.406145 -101.470114 
L 355.291947 -98.415568 
L 356.197261 -95.361023 
L 357.113408 -92.306477 
L 358.030243 -89.251932 
L 358.936244 -86.197386 
L 359.818665 -83.142841 
L 360.66373 -80.088295 
L 361.456884 -77.03375 
L 362.183091 -73.979205 
L 362.827159 -70.924659 
L 363.374101 -67.870114 
L 363.809508 -64.815568 
L 364.119928 -61.761023 
L 364.293237 -58.706477 
L 364.318987 -55.651932 
L 364.18872 -52.597386 
L 363.896242 -49.542841 
L 363.437829 -46.488295 
L 362.812381 -43.43375 
z
" style="stroke: #ffffff; stroke-opacity: 0.7"/>
    </defs>
    <g clip-path="url(#p41324563b8)">
     <use xlink:href="#m18898bd58e" x="0" y="384.791562" style="fill: #e74c3c; fill-opacity: 0.7; stroke: #ffffff; stroke-opacity: 0.7"/>
    </g>
   </g>
   <g id="FillBetweenPolyCollection_3">
    <defs>
     <path id="mb1f2fb8ae7" d="M 545.147848 -97.956121 
L 498.695084 -97.956121 
L 497.644754 -98.74942 
L 496.680156 -99.542719 
L 495.814215 -100.336019 
L 495.058535 -101.129318 
L 494.423088 -101.922617 
L 493.915939 -102.715916 
L 493.543019 -103.509215 
L 493.307946 -104.302515 
L 493.211913 -105.095814 
L 493.253631 -105.889113 
L 493.429343 -106.682412 
L 493.7329 -107.475712 
L 494.155897 -108.269011 
L 494.687859 -109.06231 
L 495.316485 -109.855609 
L 496.027914 -110.648909 
L 496.807037 -111.442208 
L 497.63781 -112.235507 
L 498.503583 -113.028806 
L 499.387426 -113.822106 
L 500.272438 -114.615405 
L 501.142042 -115.408704 
L 501.980249 -116.202003 
L 502.771897 -116.995303 
L 503.502849 -117.788602 
L 504.160162 -118.581901 
L 504.732219 -119.3752 
L 505.208826 -120.1685 
L 505.581276 -120.961799 
L 505.84239 -121.755098 
L 505.986526 -122.548397 
L 506.009568 -123.341697 
L 505.908901 -124.134996 
L 505.683362 -124.928295 
L 505.333189 -125.721594 
L 504.859953 -126.514894 
L 504.266486 -127.308193 
L 503.556799 -128.101492 
L 502.736005 -128.894791 
L 501.810224 -129.68809 
L 500.7865 -130.48139 
L 499.672707 -131.274689 
L 498.477451 -132.067988 
L 497.209984 -132.861287 
L 495.880096 -133.654587 
L 494.498028 -134.447886 
L 493.074372 -135.241185 
L 491.619969 -136.034484 
L 490.145821 -136.827784 
L 488.662989 -137.621083 
L 487.182503 -138.414382 
L 485.715268 -139.207681 
L 484.271976 -140.000981 
L 482.863018 -140.79428 
L 481.498403 -141.587579 
L 480.187676 -142.380878 
L 478.93985 -143.174178 
L 477.763332 -143.967477 
L 476.665868 -144.760776 
L 475.654487 -145.554075 
L 474.735459 -146.347375 
L 473.914263 -147.140674 
L 473.195562 -147.933973 
L 472.583196 -148.727272 
L 472.080181 -149.520572 
L 471.688724 -150.313871 
L 471.410245 -151.10717 
L 471.245413 -151.900469 
L 471.194193 -152.693769 
L 471.255891 -153.487068 
L 471.42921 -154.280367 
L 471.712312 -155.073666 
L 472.10287 -155.866966 
L 472.598122 -156.660265 
L 473.194921 -157.453564 
L 473.88978 -158.246863 
L 474.678898 -159.040162 
L 475.55819 -159.833462 
L 476.5233 -160.626761 
L 477.56961 -161.42006 
L 478.692234 -162.213359 
L 479.88602 -163.006659 
L 481.145534 -163.799958 
L 482.465057 -164.593257 
L 483.838575 -165.386556 
L 485.259783 -166.179856 
L 486.722088 -166.973155 
L 488.218625 -167.766454 
L 489.742291 -168.559753 
L 491.285781 -169.353053 
L 492.841639 -170.146352 
L 494.402328 -170.939651 
L 495.960296 -171.73295 
L 497.508064 -172.52625 
L 499.038311 -173.319549 
L 500.543963 -174.112848 
L 502.018284 -174.906147 
L 503.454963 -175.699447 
L 504.848189 -176.492746 
L 538.994743 -176.492746 
L 538.994743 -176.492746 
L 540.387969 -175.699447 
L 541.824648 -174.906147 
L 543.298969 -174.112848 
L 544.804621 -173.319549 
L 546.334868 -172.52625 
L 547.882636 -171.73295 
L 549.440604 -170.939651 
L 551.001293 -170.146352 
L 552.557151 -169.353053 
L 554.100641 -168.559753 
L 555.624307 -167.766454 
L 557.120844 -166.973155 
L 558.583148 -166.179856 
L 560.004357 -165.386556 
L 561.377875 -164.593257 
L 562.697398 -163.799958 
L 563.956912 -163.006659 
L 565.150697 -162.213359 
L 566.273322 -161.42006 
L 567.319632 -160.626761 
L 568.284742 -159.833462 
L 569.164034 -159.040162 
L 569.953152 -158.246863 
L 570.648011 -157.453564 
L 571.24481 -156.660265 
L 571.740062 -155.866966 
L 572.130619 -155.073666 
L 572.413722 -154.280367 
L 572.587041 -153.487068 
L 572.648739 -152.693769 
L 572.597519 -151.900469 
L 572.432687 -151.10717 
L 572.154208 -150.313871 
L 571.76275 -149.520572 
L 571.259736 -148.727272 
L 570.64737 -147.933973 
L 569.928669 -147.140674 
L 569.107473 -146.347375 
L 568.188445 -145.554075 
L 567.177064 -144.760776 
L 566.0796 -143.967477 
L 564.903082 -143.174178 
L 563.655256 -142.380878 
L 562.344529 -141.587579 
L 560.979914 -140.79428 
L 559.570956 -140.000981 
L 558.127664 -139.207681 
L 556.660429 -138.414382 
L 555.179943 -137.621083 
L 553.697111 -136.827784 
L 552.222963 -136.034484 
L 550.76856 -135.241185 
L 549.344903 -134.447886 
L 547.962836 -133.654587 
L 546.632948 -132.861287 
L 545.36548 -132.067988 
L 544.170225 -131.274689 
L 543.056432 -130.48139 
L 542.032708 -129.68809 
L 541.106927 -128.894791 
L 540.286132 -128.101492 
L 539.576446 -127.308193 
L 538.982978 -126.514894 
L 538.509743 -125.721594 
L 538.15957 -124.928295 
L 537.934031 -124.134996 
L 537.833364 -123.341697 
L 537.856406 -122.548397 
L 538.000542 -121.755098 
L 538.261656 -120.961799 
L 538.634106 -120.1685 
L 539.110713 -119.3752 
L 539.68277 -118.581901 
L 540.340083 -117.788602 
L 541.071035 -116.995303 
L 541.862683 -116.202003 
L 542.70089 -115.408704 
L 543.570494 -114.615405 
L 544.455506 -113.822106 
L 545.339348 -113.028806 
L 546.205122 -112.235507 
L 547.035894 -111.442208 
L 547.815018 -110.648909 
L 548.526447 -109.855609 
L 549.155073 -109.06231 
L 549.687035 -108.269011 
L 550.110031 -107.475712 
L 550.413589 -106.682412 
L 550.589301 -105.889113 
L 550.631019 -105.095814 
L 550.534985 -104.302515 
L 550.299913 -103.509215 
L 549.926993 -102.715916 
L 549.419844 -101.922617 
L 548.784396 -101.129318 
L 548.028716 -100.336019 
L 547.162776 -99.542719 
L 546.198177 -98.74942 
L 545.147848 -97.956121 
z
" style="stroke: #ffffff; stroke-opacity: 0.7"/>
    </defs>
    <g clip-path="url(#p41324563b8)">
     <use xlink:href="#mb1f2fb8ae7" x="0" y="384.791562" style="fill: #2ecc71; fill-opacity: 0.7; stroke: #ffffff; stroke-opacity: 0.7"/>
    </g>
   </g>
   <g id="LineCollection_1">
    <path d="M 90.739648 277.58731 
L 141.46692 277.58731 
" clip-path="url(#p41324563b8)" style="fill: none; stroke: #4878d0; stroke-width: 1.5"/>
    <path d="M 293.648739 212.048238 
L 344.376011 212.048238 
" clip-path="url(#p41324563b8)" style="fill: none; stroke: #4878d0; stroke-width: 1.5"/>
    <path d="M 496.55783 245.303602 
L 547.285102 245.303602 
" clip-path="url(#p41324563b8)" style="fill: none; stroke: #4878d0; stroke-width: 1.5"/>
   </g>
   <g id="LineCollection_2">
    <path d="M 90.739648 211.280948 
L 141.46692 211.280948 
" clip-path="url(#p41324563b8)" style="fill: none; stroke: #4878d0; stroke-width: 1.5"/>
    <path d="M 293.648739 38.957813 
L 344.376011 38.957813 
" clip-path="url(#p41324563b8)" style="fill: none; stroke: #4878d0; stroke-width: 1.5"/>
    <path d="M 496.55783 208.298817 
L 547.285102 208.298817 
" clip-path="url(#p41324563b8)" style="fill: none; stroke: #4878d0; stroke-width: 1.5"/>
   </g>
   <g id="LineCollection_3">
    <path d="M 90.739648 341.357812 
L 141.46692 341.357812 
" clip-path="url(#p41324563b8)" style="fill: none; stroke: #4878d0; stroke-width: 1.5"/>
    <path d="M 293.648739 341.357812 
L 344.376011 341.357812 
" clip-path="url(#p41324563b8)" style="fill: none; stroke: #4878d0; stroke-width: 1.5"/>
    <path d="M 496.55783 286.835442 
L 547.285102 286.835442 
" clip-path="url(#p41324563b8)" style="fill: none; stroke: #4878d0; stroke-width: 1.5"/>
   </g>
   <g id="LineCollection_4">
    <path d="M 116.103284 341.357812 
L 116.103284 211.280948 
" clip-path="url(#p41324563b8)" style="fill: none; stroke: #4878d0; stroke-width: 1.5"/>
    <path d="M 319.012375 341.357812 
L 319.012375 38.957813 
" clip-path="url(#p41324563b8)" style="fill: none; stroke: #4878d0; stroke-width: 1.5"/>
    <path d="M 521.921466 286.835442 
L 521.921466 208.298817 
" clip-path="url(#p41324563b8)" style="fill: none; stroke: #4878d0; stroke-width: 1.5"/>
   </g>
   <g id="LineCollection_5">
    <path d="M 90.739648 251.737852 
L 141.46692 251.737852 
" clip-path="url(#p41324563b8)" style="fill: none; stroke: #4878d0; stroke-width: 1.5"/>
    <path d="M 293.648739 210.775284 
L 344.376011 210.775284 
" clip-path="url(#p41324563b8)" style="fill: none; stroke: #4878d0; stroke-width: 1.5"/>
    <path d="M 496.55783 237.744752 
L 547.285102 237.744752 
" clip-path="url(#p41324563b8)" style="fill: none; stroke: #4878d0; stroke-width: 1.5"/>
   </g>
   <g id="patch_3">
    <path d="M 40.012375 356.477812 
L 40.012375 23.837813 
" style="fill: none; stroke: #cccccc; stroke-width: 1.25; stroke-linejoin: miter; stroke-linecap: square"/>
   </g>
   <g id="patch_4">
    <path d="M 598.012375 356.477812 
L 598.012375 23.837813 
" style="fill: none; stroke: #cccccc; stroke-width: 1.25; stroke-linejoin: miter; stroke-linecap: square"/>
   </g>
   <g id="patch_5">
    <path d="M 40.012375 356.477812 
L 598.012375 356.477812 
" style="fill: none; stroke: #cccccc; stroke-width: 1.25; stroke-linejoin: miter; stroke-linecap: square"/>
   </g>
   <g id="patch_6">
    <path d="M 40.012375 23.837812 
L 598.012375 23.837812 
" style="fill: none; stroke: #cccccc; stroke-width: 1.25; stroke-linejoin: miter; stroke-linecap: square"/>
   </g>
   <g id="text_12">
    <!-- Qwen3.5-9B Distribution of Per-Tensor Edit Magnitudes -->
    <g style="fill: #262626" transform="translate(101.12425 17.837812) scale(0.14 -0.14)">
     <defs>
      <path id="DejaVuSans-Bold-51" d="M 2847 -84 
L 2753 -84 
Q 1600 -84 959 553 
Q 319 1191 319 2328 
Q 319 3463 958 4106 
Q 1597 4750 2719 4750 
Q 3853 4750 4486 4112 
Q 5119 3475 5119 2328 
Q 5119 1541 4783 972 
Q 4447 403 3816 116 
L 4756 -934 
L 3609 -934 
L 2847 -84 
z
M 2719 3878 
Q 2169 3878 1866 3472 
Q 1563 3066 1563 2328 
Q 1563 1578 1859 1179 
Q 2156 781 2719 781 
Q 3272 781 3575 1187 
Q 3878 1594 3878 2328 
Q 3878 3066 3575 3472 
Q 3272 3878 2719 3878 
z
" transform="scale(0.015625)"/>
      <path id="DejaVuSans-Bold-77" d="M 225 3500 
L 1313 3500 
L 1900 1088 
L 2491 3500 
L 3425 3500 
L 4013 1113 
L 4603 3500 
L 5691 3500 
L 4769 0 
L 3547 0 
L 2956 2406 
L 2369 0 
L 1147 0 
L 225 3500 
z
" transform="scale(0.015625)"/>
      <path id="DejaVuSans-Bold-65" d="M 4031 1759 
L 4031 1441 
L 1416 1441 
Q 1456 1047 1700 850 
Q 1944 653 2381 653 
Q 2734 653 3104 758 
Q 3475 863 3866 1075 
L 3866 213 
Q 3469 63 3072 -14 
Q 2675 -91 2278 -91 
Q 1328 -91 801 392 
Q 275 875 275 1747 
Q 275 2603 792 3093 
Q 1309 3584 2216 3584 
Q 3041 3584 3536 3087 
Q 4031 2591 4031 1759 
z
M 2881 2131 
Q 2881 2450 2695 2645 
Q 2509 2841 2209 2841 
Q 1884 2841 1681 2658 
Q 1478 2475 1428 2131 
L 2881 2131 
z
" transform="scale(0.015625)"/>
      <path id="DejaVuSans-Bold-6e" d="M 4056 2131 
L 4056 0 
L 2931 0 
L 2931 347 
L 2931 1631 
Q 2931 2084 2911 2256 
Q 2891 2428 2841 2509 
Q 2775 2619 2662 2680 
Q 2550 2741 2406 2741 
Q 2056 2741 1856 2470 
Q 1656 2200 1656 1722 
L 1656 0 
L 538 0 
L 538 3500 
L 1656 3500 
L 1656 2988 
Q 1909 3294 2193 3439 
Q 2478 3584 2822 3584 
Q 3428 3584 3742 3212 
Q 4056 2841 4056 2131 
z
" transform="scale(0.015625)"/>
      <path id="DejaVuSans-Bold-33" d="M 2981 2516 
Q 3453 2394 3698 2092 
Q 3944 1791 3944 1325 
Q 3944 631 3412 270 
Q 2881 -91 1863 -91 
Q 1503 -91 1142 -33 
Q 781 25 428 141 
L 428 1069 
Q 766 900 1098 814 
Q 1431 728 1753 728 
Q 2231 728 2486 893 
Q 2741 1059 2741 1369 
Q 2741 1688 2480 1852 
Q 2219 2016 1709 2016 
L 1228 2016 
L 1228 2791 
L 1734 2791 
Q 2188 2791 2409 2933 
Q 2631 3075 2631 3366 
Q 2631 3634 2415 3781 
Q 2200 3928 1806 3928 
Q 1516 3928 1219 3862 
Q 922 3797 628 3669 
L 628 4550 
Q 984 4650 1334 4700 
Q 1684 4750 2022 4750 
Q 2931 4750 3382 4451 
Q 3834 4153 3834 3553 
Q 3834 3144 3618 2883 
Q 3403 2622 2981 2516 
z
" transform="scale(0.015625)"/>
      <path id="DejaVuSans-Bold-2e" d="M 653 1209 
L 1778 1209 
L 1778 0 
L 653 0 
L 653 1209 
z
" transform="scale(0.015625)"/>
      <path id="DejaVuSans-Bold-35" d="M 678 4666 
L 3669 4666 
L 3669 3781 
L 1638 3781 
L 1638 3059 
Q 1775 3097 1914 3117 
Q 2053 3138 2203 3138 
Q 3056 3138 3531 2711 
Q 4006 2284 4006 1522 
Q 4006 766 3489 337 
Q 2972 -91 2053 -91 
Q 1656 -91 1267 -14 
Q 878 63 494 219 
L 494 1166 
Q 875 947 1217 837 
Q 1559 728 1863 728 
Q 2300 728 2551 942 
Q 2803 1156 2803 1522 
Q 2803 1891 2551 2103 
Q 2300 2316 1863 2316 
Q 1603 2316 1309 2248 
Q 1016 2181 678 2041 
L 678 4666 
z
" transform="scale(0.015625)"/>
      <path id="DejaVuSans-Bold-2d" d="M 347 2297 
L 2309 2297 
L 2309 1388 
L 347 1388 
L 347 2297 
z
" transform="scale(0.015625)"/>
      <path id="DejaVuSans-Bold-39" d="M 641 103 
L 641 966 
Q 928 831 1190 764 
Q 1453 697 1709 697 
Q 2247 697 2547 995 
Q 2847 1294 2900 1881 
Q 2688 1725 2447 1647 
Q 2206 1569 1925 1569 
Q 1209 1569 770 1986 
Q 331 2403 331 3084 
Q 331 3838 820 4291 
Q 1309 4744 2131 4744 
Q 3044 4744 3544 4128 
Q 4044 3513 4044 2388 
Q 4044 1231 3459 570 
Q 2875 -91 1856 -91 
Q 1528 -91 1228 -42 
Q 928 6 641 103 
z
M 2125 2350 
Q 2441 2350 2600 2554 
Q 2759 2759 2759 3169 
Q 2759 3575 2600 3781 
Q 2441 3988 2125 3988 
Q 1809 3988 1650 3781 
Q 1491 3575 1491 3169 
Q 1491 2759 1650 2554 
Q 1809 2350 2125 2350 
z
" transform="scale(0.015625)"/>
      <path id="DejaVuSans-Bold-42" d="M 2456 2859 
Q 2741 2859 2887 2984 
Q 3034 3109 3034 3353 
Q 3034 3594 2887 3720 
Q 2741 3847 2456 3847 
L 1791 3847 
L 1791 2859 
L 2456 2859 
z
M 2497 819 
Q 2859 819 3042 972 
Q 3225 1125 3225 1434 
Q 3225 1738 3044 1889 
Q 2863 2041 2497 2041 
L 1791 2041 
L 1791 819 
L 2497 819 
z
M 3616 2497 
Q 4003 2384 4215 2081 
Q 4428 1778 4428 1338 
Q 4428 663 3972 331 
Q 3516 0 2584 0 
L 588 0 
L 588 4666 
L 2394 4666 
Q 3366 4666 3802 4372 
Q 4238 4078 4238 3431 
Q 4238 3091 4078 2852 
Q 3919 2613 3616 2497 
z
" transform="scale(0.015625)"/>
      <path id="DejaVuSans-Bold-20" transform="scale(0.015625)"/>
      <path id="DejaVuSans-Bold-44" d="M 1791 3756 
L 1791 909 
L 2222 909 
Q 2959 909 3348 1275 
Q 3738 1641 3738 2338 
Q 3738 3031 3350 3393 
Q 2963 3756 2222 3756 
L 1791 3756 
z
M 588 4666 
L 1856 4666 
Q 2919 4666 3439 4514 
Q 3959 4363 4331 4000 
Q 4659 3684 4818 3271 
Q 4978 2859 4978 2338 
Q 4978 1809 4818 1395 
Q 4659 981 4331 666 
Q 3956 303 3431 151 
Q 2906 0 1856 0 
L 588 0 
L 588 4666 
z
" transform="scale(0.015625)"/>
      <path id="DejaVuSans-Bold-69" d="M 538 3500 
L 1656 3500 
L 1656 0 
L 538 0 
L 538 3500 
z
M 538 4863 
L 1656 4863 
L 1656 3950 
L 538 3950 
L 538 4863 
z
" transform="scale(0.015625)"/>
      <path id="DejaVuSans-Bold-73" d="M 3272 3391 
L 3272 2541 
Q 2913 2691 2578 2766 
Q 2244 2841 1947 2841 
Q 1628 2841 1473 2761 
Q 1319 2681 1319 2516 
Q 1319 2381 1436 2309 
Q 1553 2238 1856 2203 
L 2053 2175 
Q 2913 2066 3209 1816 
Q 3506 1566 3506 1031 
Q 3506 472 3093 190 
Q 2681 -91 1863 -91 
Q 1516 -91 1145 -36 
Q 775 19 384 128 
L 384 978 
Q 719 816 1070 734 
Q 1422 653 1784 653 
Q 2113 653 2278 743 
Q 2444 834 2444 1013 
Q 2444 1163 2330 1236 
Q 2216 1309 1875 1350 
L 1678 1375 
Q 931 1469 631 1722 
Q 331 1975 331 2491 
Q 331 3047 712 3315 
Q 1094 3584 1881 3584 
Q 2191 3584 2531 3537 
Q 2872 3491 3272 3391 
z
" transform="scale(0.015625)"/>
      <path id="DejaVuSans-Bold-74" d="M 1759 4494 
L 1759 3500 
L 2913 3500 
L 2913 2700 
L 1759 2700 
L 1759 1216 
Q 1759 972 1856 886 
Q 1953 800 2241 800 
L 2816 800 
L 2816 0 
L 1856 0 
Q 1194 0 917 276 
Q 641 553 641 1216 
L 641 2700 
L 84 2700 
L 84 3500 
L 641 3500 
L 641 4494 
L 1759 4494 
z
" transform="scale(0.015625)"/>
      <path id="DejaVuSans-Bold-72" d="M 3138 2547 
Q 2991 2616 2845 2648 
Q 2700 2681 2553 2681 
Q 2122 2681 1889 2404 
Q 1656 2128 1656 1613 
L 1656 0 
L 538 0 
L 538 3500 
L 1656 3500 
L 1656 2925 
Q 1872 3269 2151 3426 
Q 2431 3584 2822 3584 
Q 2878 3584 2943 3579 
Q 3009 3575 3134 3559 
L 3138 2547 
z
" transform="scale(0.015625)"/>
      <path id="DejaVuSans-Bold-62" d="M 2400 722 
Q 2759 722 2948 984 
Q 3138 1247 3138 1747 
Q 3138 2247 2948 2509 
Q 2759 2772 2400 2772 
Q 2041 2772 1848 2508 
Q 1656 2244 1656 1747 
Q 1656 1250 1848 986 
Q 2041 722 2400 722 
z
M 1656 2988 
Q 1888 3294 2169 3439 
Q 2450 3584 2816 3584 
Q 3463 3584 3878 3070 
Q 4294 2556 4294 1747 
Q 4294 938 3878 423 
Q 3463 -91 2816 -91 
Q 2450 -91 2169 54 
Q 1888 200 1656 506 
L 1656 0 
L 538 0 
L 538 4863 
L 1656 4863 
L 1656 2988 
z
" transform="scale(0.015625)"/>
      <path id="DejaVuSans-Bold-75" d="M 500 1363 
L 500 3500 
L 1625 3500 
L 1625 3150 
Q 1625 2866 1622 2436 
Q 1619 2006 1619 1863 
Q 1619 1441 1641 1255 
Q 1663 1069 1716 984 
Q 1784 875 1895 815 
Q 2006 756 2150 756 
Q 2500 756 2700 1025 
Q 2900 1294 2900 1772 
L 2900 3500 
L 4019 3500 
L 4019 0 
L 2900 0 
L 2900 506 
Q 2647 200 2364 54 
Q 2081 -91 1741 -91 
Q 1134 -91 817 281 
Q 500 653 500 1363 
z
" transform="scale(0.015625)"/>
      <path id="DejaVuSans-Bold-6f" d="M 2203 2784 
Q 1831 2784 1636 2517 
Q 1441 2250 1441 1747 
Q 1441 1244 1636 976 
Q 1831 709 2203 709 
Q 2569 709 2762 976 
Q 2956 1244 2956 1747 
Q 2956 2250 2762 2517 
Q 2569 2784 2203 2784 
z
M 2203 3584 
Q 3106 3584 3614 3096 
Q 4122 2609 4122 1747 
Q 4122 884 3614 396 
Q 3106 -91 2203 -91 
Q 1297 -91 786 396 
Q 275 884 275 1747 
Q 275 2609 786 3096 
Q 1297 3584 2203 3584 
z
" transform="scale(0.015625)"/>
      <path id="DejaVuSans-Bold-66" d="M 2841 4863 
L 2841 4128 
L 2222 4128 
Q 1984 4128 1890 4042 
Q 1797 3956 1797 3744 
L 1797 3500 
L 2753 3500 
L 2753 2700 
L 1797 2700 
L 1797 0 
L 678 0 
L 678 2700 
L 122 2700 
L 122 3500 
L 678 3500 
L 678 3744 
Q 678 4316 997 4589 
Q 1316 4863 1984 4863 
L 2841 4863 
z
" transform="scale(0.015625)"/>
      <path id="DejaVuSans-Bold-50" d="M 588 4666 
L 2584 4666 
Q 3475 4666 3951 4270 
Q 4428 3875 4428 3144 
Q 4428 2409 3951 2014 
Q 3475 1619 2584 1619 
L 1791 1619 
L 1791 0 
L 588 0 
L 588 4666 
z
M 1791 3794 
L 1791 2491 
L 2456 2491 
Q 2806 2491 2997 2661 
Q 3188 2831 3188 3144 
Q 3188 3456 2997 3625 
Q 2806 3794 2456 3794 
L 1791 3794 
z
" transform="scale(0.015625)"/>
      <path id="DejaVuSans-Bold-54" d="M 31 4666 
L 4331 4666 
L 4331 3756 
L 2784 3756 
L 2784 0 
L 1581 0 
L 1581 3756 
L 31 3756 
L 31 4666 
z
" transform="scale(0.015625)"/>
      <path id="DejaVuSans-Bold-45" d="M 588 4666 
L 3834 4666 
L 3834 3756 
L 1791 3756 
L 1791 2888 
L 3713 2888 
L 3713 1978 
L 1791 1978 
L 1791 909 
L 3903 909 
L 3903 0 
L 588 0 
L 588 4666 
z
" transform="scale(0.015625)"/>
      <path id="DejaVuSans-Bold-64" d="M 2919 2988 
L 2919 4863 
L 4044 4863 
L 4044 0 
L 2919 0 
L 2919 506 
Q 2688 197 2409 53 
Q 2131 -91 1766 -91 
Q 1119 -91 703 423 
Q 288 938 288 1747 
Q 288 2556 703 3070 
Q 1119 3584 1766 3584 
Q 2128 3584 2408 3439 
Q 2688 3294 2919 2988 
z
M 2181 722 
Q 2541 722 2730 984 
Q 2919 1247 2919 1747 
Q 2919 2247 2730 2509 
Q 2541 2772 2181 2772 
Q 1825 2772 1636 2509 
Q 1447 2247 1447 1747 
Q 1447 1247 1636 984 
Q 1825 722 2181 722 
z
" transform="scale(0.015625)"/>
      <path id="DejaVuSans-Bold-4d" d="M 588 4666 
L 2119 4666 
L 3181 2169 
L 4250 4666 
L 5778 4666 
L 5778 0 
L 4641 0 
L 4641 3413 
L 3566 897 
L 2803 897 
L 1728 3413 
L 1728 0 
L 588 0 
L 588 4666 
z
" transform="scale(0.015625)"/>
      <path id="DejaVuSans-Bold-61" d="M 2106 1575 
Q 1756 1575 1579 1456 
Q 1403 1338 1403 1106 
Q 1403 894 1545 773 
Q 1688 653 1941 653 
Q 2256 653 2472 879 
Q 2688 1106 2688 1447 
L 2688 1575 
L 2106 1575 
z
M 3816 1997 
L 3816 0 
L 2688 0 
L 2688 519 
Q 2463 200 2181 54 
Q 1900 -91 1497 -91 
Q 953 -91 614 226 
Q 275 544 275 1050 
Q 275 1666 698 1953 
Q 1122 2241 2028 2241 
L 2688 2241 
L 2688 2328 
Q 2688 2594 2478 2717 
Q 2269 2841 1825 2841 
Q 1466 2841 1156 2769 
Q 847 2697 581 2553 
L 581 3406 
Q 941 3494 1303 3539 
Q 1666 3584 2028 3584 
Q 2975 3584 3395 3211 
Q 3816 2838 3816 1997 
z
" transform="scale(0.015625)"/>
      <path id="DejaVuSans-Bold-67" d="M 2919 594 
Q 2688 288 2409 144 
Q 2131 0 1766 0 
Q 1125 0 706 504 
Q 288 1009 288 1791 
Q 288 2575 706 3076 
Q 1125 3578 1766 3578 
Q 2131 3578 2409 3434 
Q 2688 3291 2919 2981 
L 2919 3500 
L 4044 3500 
L 4044 353 
Q 4044 -491 3511 -936 
Q 2978 -1381 1966 -1381 
Q 1638 -1381 1331 -1331 
Q 1025 -1281 716 -1178 
L 716 -306 
Q 1009 -475 1290 -558 
Q 1572 -641 1856 -641 
Q 2406 -641 2662 -400 
Q 2919 -159 2919 353 
L 2919 594 
z
M 2181 2772 
Q 1834 2772 1640 2515 
Q 1447 2259 1447 1791 
Q 1447 1309 1634 1061 
Q 1822 813 2181 813 
Q 2531 813 2725 1069 
Q 2919 1325 2919 1791 
Q 2919 2259 2725 2515 
Q 2531 2772 2181 2772 
z
" transform="scale(0.015625)"/>
     </defs>
     <use xlink:href="#DejaVuSans-Bold-51"/>
     <use xlink:href="#DejaVuSans-Bold-77" transform="translate(85.009766 0)"/>
     <use xlink:href="#DejaVuSans-Bold-65" transform="translate(177.392578 0)"/>
     <use xlink:href="#DejaVuSans-Bold-6e" transform="translate(245.214844 0)"/>
     <use xlink:href="#DejaVuSans-Bold-33" transform="translate(316.40625 0)"/>
     <use xlink:href="#DejaVuSans-Bold-2e" transform="translate(385.986328 0)"/>
     <use xlink:href="#DejaVuSans-Bold-35" transform="translate(423.974609 0)"/>
     <use xlink:href="#DejaVuSans-Bold-2d" transform="translate(493.554688 0)"/>
     <use xlink:href="#DejaVuSans-Bold-39" transform="translate(535.058594 0)"/>
     <use xlink:href="#DejaVuSans-Bold-42" transform="translate(604.638672 0)"/>
     <use xlink:href="#DejaVuSans-Bold-20" transform="translate(680.859375 0)"/>
     <use xlink:href="#DejaVuSans-Bold-44" transform="translate(715.673828 0)"/>
     <use xlink:href="#DejaVuSans-Bold-69" transform="translate(798.681641 0)"/>
     <use xlink:href="#DejaVuSans-Bold-73" transform="translate(832.958984 0)"/>
     <use xlink:href="#DejaVuSans-Bold-74" transform="translate(892.480469 0)"/>
     <use xlink:href="#DejaVuSans-Bold-72" transform="translate(940.283203 0)"/>
     <use xlink:href="#DejaVuSans-Bold-69" transform="translate(989.599609 0)"/>
     <use xlink:href="#DejaVuSans-Bold-62" transform="translate(1023.876953 0)"/>
     <use xlink:href="#DejaVuSans-Bold-75" transform="translate(1095.458984 0)"/>
     <use xlink:href="#DejaVuSans-Bold-74" transform="translate(1166.650391 0)"/>
     <use xlink:href="#DejaVuSans-Bold-69" transform="translate(1214.453125 0)"/>
     <use xlink:href="#DejaVuSans-Bold-6f" transform="translate(1248.730469 0)"/>
     <use xlink:href="#DejaVuSans-Bold-6e" transform="translate(1317.431641 0)"/>
     <use xlink:href="#DejaVuSans-Bold-20" transform="translate(1388.623047 0)"/>
     <use xlink:href="#DejaVuSans-Bold-6f" transform="translate(1423.4375 0)"/>
     <use xlink:href="#DejaVuSans-Bold-66" transform="translate(1492.138672 0)"/>
     <use xlink:href="#DejaVuSans-Bold-20" transform="translate(1535.644531 0)"/>
     <use xlink:href="#DejaVuSans-Bold-50" transform="translate(1570.458984 0)"/>
     <use xlink:href="#DejaVuSans-Bold-65" transform="translate(1643.75 0)"/>
     <use xlink:href="#DejaVuSans-Bold-72" transform="translate(1711.572266 0)"/>
     <use xlink:href="#DejaVuSans-Bold-2d" transform="translate(1760.888672 0)"/>
     <use xlink:href="#DejaVuSans-Bold-54" transform="translate(1787.642578 0)"/>
     <use xlink:href="#DejaVuSans-Bold-65" transform="translate(1842.605469 0)"/>
     <use xlink:href="#DejaVuSans-Bold-6e" transform="translate(1910.427734 0)"/>
     <use xlink:href="#DejaVuSans-Bold-73" transform="translate(1981.619141 0)"/>
     <use xlink:href="#DejaVuSans-Bold-6f" transform="translate(2041.140625 0)"/>
     <use xlink:href="#DejaVuSans-Bold-72" transform="translate(2109.841797 0)"/>
     <use xlink:href="#DejaVuSans-Bold-20" transform="translate(2159.158203 0)"/>
     <use xlink:href="#DejaVuSans-Bold-45" transform="translate(2193.972656 0)"/>
     <use xlink:href="#DejaVuSans-Bold-64" transform="translate(2262.283203 0)"/>
     <use xlink:href="#DejaVuSans-Bold-69" transform="translate(2333.865234 0)"/>
     <use xlink:href="#DejaVuSans-Bold-74" transform="translate(2368.142578 0)"/>
     <use xlink:href="#DejaVuSans-Bold-20" transform="translate(2415.945312 0)"/>
     <use xlink:href="#DejaVuSans-Bold-4d" transform="translate(2450.759766 0)"/>
     <use xlink:href="#DejaVuSans-Bold-61" transform="translate(2550.271484 0)"/>
     <use xlink:href="#DejaVuSans-Bold-67" transform="translate(2617.751953 0)"/>
     <use xlink:href="#DejaVuSans-Bold-6e" transform="translate(2689.333984 0)"/>
     <use xlink:href="#DejaVuSans-Bold-69" transform="translate(2760.525391 0)"/>
     <use xlink:href="#DejaVuSans-Bold-74" transform="translate(2794.802734 0)"/>
     <use xlink:href="#DejaVuSans-Bold-75" transform="translate(2842.605469 0)"/>
     <use xlink:href="#DejaVuSans-Bold-64" transform="translate(2913.796875 0)"/>
     <use xlink:href="#DejaVuSans-Bold-65" transform="translate(2985.378906 0)"/>
     <use xlink:href="#DejaVuSans-Bold-73" transform="translate(3053.201172 0)"/>
    </g>
   </g>
  </g>
 </g>
 <defs>
  <clipPath id="p41324563b8">
   <rect x="40.012375" y="23.837812" width="558" height="332.64"/>
  </clipPath>
 </defs>
</svg>
