<?xml version="1.0" encoding="utf-8" standalone="no"?>
<!DOCTYPE svg PUBLIC "-//W3C//DTD SVG 1.1//EN"
  "http://www.w3.org/Graphics/SVG/1.1/DTD/svg11.dtd">
<svg xmlns:xlink="http://www.w3.org/1999/xlink" width="605.212375pt" height="384.791562pt" viewBox="0 0 605.212375 384.791562" xmlns="http://www.w3.org/2000/svg" version="1.1">
 <metadata>
  <rdf:RDF xmlns:dc="http://purl.org/dc/elements/1.1/" xmlns:cc="http://creativecommons.org/ns#" xmlns:rdf="http://www.w3.org/1999/02/22-rdf-syntax-ns#">
   <cc:Work>
    <dc:type rdf:resource="http://purl.org/dc/dcmitype/StillImage"/>
    <dc:date>2026-04-24T22:09:22.525155</dc:date>
    <dc:format>image/svg+xml</dc:format>
    <dc:creator>
     <cc:Agent>
      <dc:title>Matplotlib v3.10.8, https://matplotlib.org/</dc:title>
     </cc:Agent>
    </dc:creator>
   </cc:Work>
  </rdf:RDF>
 </metadata>
 <defs>
  <style type="text/css">*{stroke-linejoin: round; stroke-linecap: butt}</style>
 </defs>
 <g id="figure_1">
  <g id="patch_1">
   <path d="M 0 384.791562 
L 605.212375 384.791562 
L 605.212375 0 
L 0 0 
z
" style="fill: #ffffff"/>
  </g>
  <g id="axes_1">
   <g id="patch_2">
    <path d="M 40.012375 356.477812 
L 598.012375 356.477812 
L 598.012375 23.837812 
L 40.012375 23.837812 
z
" style="fill: #ffffff"/>
   </g>
   <g id="matplotlib.axis_1">
    <g id="xtick_1">
     <g id="line2d_1">
      <path d="M 116.103284 356.477812 
L 116.103284 23.837812 
" clip-path="url(#pfac664cffa)" style="fill: none; stroke: #cccccc; stroke-linecap: round"/>
     </g>
     <g id="text_1">
      <!-- Heretic -->
      <g style="fill: #262626" transform="translate(94.557659 375.095937) scale(0.12 -0.12)">
       <defs>
        <path id="DejaVuSans-48" d="M 628 4666 
L 1259 4666 
L 1259 2753 
L 3553 2753 
L 3553 4666 
L 4184 4666 
L 4184 0 
L 3553 0 
L 3553 2222 
L 1259 2222 
L 1259 0 
L 628 0 
L 628 4666 
z
" transform="scale(0.015625)"/>
        <path id="DejaVuSans-65" d="M 3597 1894 
L 3597 1613 
L 953 1613 
Q 991 1019 1311 708 
Q 1631 397 2203 397 
Q 2534 397 2845 478 
Q 3156 559 3463 722 
L 3463 178 
Q 3153 47 2828 -22 
Q 2503 -91 2169 -91 
Q 1331 -91 842 396 
Q 353 884 353 1716 
Q 353 2575 817 3079 
Q 1281 3584 2069 3584 
Q 2775 3584 3186 3129 
Q 3597 2675 3597 1894 
z
M 3022 2063 
Q 3016 2534 2758 2815 
Q 2500 3097 2075 3097 
Q 1594 3097 1305 2825 
Q 1016 2553 972 2059 
L 3022 2063 
z
" transform="scale(0.015625)"/>
        <path id="DejaVuSans-72" d="M 2631 2963 
Q 2534 3019 2420 3045 
Q 2306 3072 2169 3072 
Q 1681 3072 1420 2755 
Q 1159 2438 1159 1844 
L 1159 0 
L 581 0 
L 581 3500 
L 1159 3500 
L 1159 2956 
Q 1341 3275 1631 3429 
Q 1922 3584 2338 3584 
Q 2397 3584 2469 3576 
Q 2541 3569 2628 3553 
L 2631 2963 
z
" transform="scale(0.015625)"/>
        <path id="DejaVuSans-74" d="M 1172 4494 
L 1172 3500 
L 2356 3500 
L 2356 3053 
L 1172 3053 
L 1172 1153 
Q 1172 725 1289 603 
Q 1406 481 1766 481 
L 2356 481 
L 2356 0 
L 1766 0 
Q 1100 0 847 248 
Q 594 497 594 1153 
L 594 3053 
L 172 3053 
L 172 3500 
L 594 3500 
L 594 4494 
L 1172 4494 
z
" transform="scale(0.015625)"/>
        <path id="DejaVuSans-69" d="M 603 3500 
L 1178 3500 
L 1178 0 
L 603 0 
L 603 3500 
z
M 603 4863 
L 1178 4863 
L 1178 4134 
L 603 4134 
L 603 4863 
z
" transform="scale(0.015625)"/>
        <path id="DejaVuSans-63" d="M 3122 3366 
L 3122 2828 
Q 2878 2963 2633 3030 
Q 2388 3097 2138 3097 
Q 1578 3097 1268 2742 
Q 959 2388 959 1747 
Q 959 1106 1268 751 
Q 1578 397 2138 397 
Q 2388 397 2633 464 
Q 2878 531 3122 666 
L 3122 134 
Q 2881 22 2623 -34 
Q 2366 -91 2075 -91 
Q 1284 -91 818 406 
Q 353 903 353 1747 
Q 353 2603 823 3093 
Q 1294 3584 2113 3584 
Q 2378 3584 2631 3529 
Q 2884 3475 3122 3366 
z
" transform="scale(0.015625)"/>
       </defs>
       <use xlink:href="#DejaVuSans-48"/>
       <use xlink:href="#DejaVuSans-65" transform="translate(75.195312 0)"/>
       <use xlink:href="#DejaVuSans-72" transform="translate(136.71875 0)"/>
       <use xlink:href="#DejaVuSans-65" transform="translate(175.582031 0)"/>
       <use xlink:href="#DejaVuSans-74" transform="translate(237.105469 0)"/>
       <use xlink:href="#DejaVuSans-69" transform="translate(276.314453 0)"/>
       <use xlink:href="#DejaVuSans-63" transform="translate(304.097656 0)"/>
      </g>
     </g>
    </g>
    <g id="xtick_2">
     <g id="line2d_2">
      <path d="M 319.012375 356.477812 
L 319.012375 23.837812 
" clip-path="url(#pfac664cffa)" style="fill: none; stroke: #cccccc; stroke-linecap: round"/>
     </g>
     <g id="text_2">
      <!-- HauhauCS -->
      <g style="fill: #262626" transform="translate(287.740188 375.095937) scale(0.12 -0.12)">
       <defs>
        <path id="DejaVuSans-61" d="M 2194 1759 
Q 1497 1759 1228 1600 
Q 959 1441 959 1056 
Q 959 750 1161 570 
Q 1363 391 1709 391 
Q 2188 391 2477 730 
Q 2766 1069 2766 1631 
L 2766 1759 
L 2194 1759 
z
M 3341 1997 
L 3341 0 
L 2766 0 
L 2766 531 
Q 2569 213 2275 61 
Q 1981 -91 1556 -91 
Q 1019 -91 701 211 
Q 384 513 384 1019 
Q 384 1609 779 1909 
Q 1175 2209 1959 2209 
L 2766 2209 
L 2766 2266 
Q 2766 2663 2505 2880 
Q 2244 3097 1772 3097 
Q 1472 3097 1187 3025 
Q 903 2953 641 2809 
L 641 3341 
Q 956 3463 1253 3523 
Q 1550 3584 1831 3584 
Q 2591 3584 2966 3190 
Q 3341 2797 3341 1997 
z
" transform="scale(0.015625)"/>
        <path id="DejaVuSans-75" d="M 544 1381 
L 544 3500 
L 1119 3500 
L 1119 1403 
Q 1119 906 1312 657 
Q 1506 409 1894 409 
Q 2359 409 2629 706 
Q 2900 1003 2900 1516 
L 2900 3500 
L 3475 3500 
L 3475 0 
L 2900 0 
L 2900 538 
Q 2691 219 2414 64 
Q 2138 -91 1772 -91 
Q 1169 -91 856 284 
Q 544 659 544 1381 
z
M 1991 3584 
L 1991 3584 
z
" transform="scale(0.015625)"/>
        <path id="DejaVuSans-68" d="M 3513 2113 
L 3513 0 
L 2938 0 
L 2938 2094 
Q 2938 2591 2744 2837 
Q 2550 3084 2163 3084 
Q 1697 3084 1428 2787 
Q 1159 2491 1159 1978 
L 1159 0 
L 581 0 
L 581 4863 
L 1159 4863 
L 1159 2956 
Q 1366 3272 1645 3428 
Q 1925 3584 2291 3584 
Q 2894 3584 3203 3211 
Q 3513 2838 3513 2113 
z
" transform="scale(0.015625)"/>
        <path id="DejaVuSans-43" d="M 4122 4306 
L 4122 3641 
Q 3803 3938 3442 4084 
Q 3081 4231 2675 4231 
Q 1875 4231 1450 3742 
Q 1025 3253 1025 2328 
Q 1025 1406 1450 917 
Q 1875 428 2675 428 
Q 3081 428 3442 575 
Q 3803 722 4122 1019 
L 4122 359 
Q 3791 134 3420 21 
Q 3050 -91 2638 -91 
Q 1578 -91 968 557 
Q 359 1206 359 2328 
Q 359 3453 968 4101 
Q 1578 4750 2638 4750 
Q 3056 4750 3426 4639 
Q 3797 4528 4122 4306 
z
" transform="scale(0.015625)"/>
        <path id="DejaVuSans-53" d="M 3425 4513 
L 3425 3897 
Q 3066 4069 2747 4153 
Q 2428 4238 2131 4238 
Q 1616 4238 1336 4038 
Q 1056 3838 1056 3469 
Q 1056 3159 1242 3001 
Q 1428 2844 1947 2747 
L 2328 2669 
Q 3034 2534 3370 2195 
Q 3706 1856 3706 1288 
Q 3706 609 3251 259 
Q 2797 -91 1919 -91 
Q 1588 -91 1214 -16 
Q 841 59 441 206 
L 441 856 
Q 825 641 1194 531 
Q 1563 422 1919 422 
Q 2459 422 2753 634 
Q 3047 847 3047 1241 
Q 3047 1584 2836 1778 
Q 2625 1972 2144 2069 
L 1759 2144 
Q 1053 2284 737 2584 
Q 422 2884 422 3419 
Q 422 4038 858 4394 
Q 1294 4750 2059 4750 
Q 2388 4750 2728 4690 
Q 3069 4631 3425 4513 
z
" transform="scale(0.015625)"/>
       </defs>
       <use xlink:href="#DejaVuSans-48"/>
       <use xlink:href="#DejaVuSans-61" transform="translate(75.195312 0)"/>
       <use xlink:href="#DejaVuSans-75" transform="translate(136.474609 0)"/>
       <use xlink:href="#DejaVuSans-68" transform="translate(199.853516 0)"/>
       <use xlink:href="#DejaVuSans-61" transform="translate(263.232422 0)"/>
       <use xlink:href="#DejaVuSans-75" transform="translate(324.511719 0)"/>
       <use xlink:href="#DejaVuSans-43" transform="translate(387.890625 0)"/>
       <use xlink:href="#DejaVuSans-53" transform="translate(457.714844 0)"/>
      </g>
     </g>
    </g>
    <g id="xtick_3">
     <g id="line2d_3">
      <path d="M 521.921466 356.477812 
L 521.921466 23.837812 
" clip-path="url(#pfac664cffa)" style="fill: none; stroke: #cccccc; stroke-linecap: round"/>
     </g>
     <g id="text_3">
      <!-- Huihui -->
      <g style="fill: #262626" transform="translate(502.668028 375.095937) scale(0.12 -0.12)">
       <use xlink:href="#DejaVuSans-48"/>
       <use xlink:href="#DejaVuSans-75" transform="translate(75.195312 0)"/>
       <use xlink:href="#DejaVuSans-69" transform="translate(138.574219 0)"/>
       <use xlink:href="#DejaVuSans-68" transform="translate(166.357422 0)"/>
       <use xlink:href="#DejaVuSans-75" transform="translate(229.736328 0)"/>
       <use xlink:href="#DejaVuSans-69" transform="translate(293.115234 0)"/>
      </g>
     </g>
    </g>
   </g>
   <g id="matplotlib.axis_2">
    <g id="ytick_1">
     <g id="line2d_4">
      <path d="M 40.012375 341.947857 
L 598.012375 341.947857 
" clip-path="url(#pfac664cffa)" style="fill: none; stroke: #cccccc; stroke-linecap: round"/>
     </g>
     <g id="text_4">
      <!-- 0 -->
      <g style="fill: #262626" transform="translate(22.81375 346.544912) scale(0.121 -0.121)">
       <defs>
        <path id="DejaVuSans-30" d="M 2034 4250 
Q 1547 4250 1301 3770 
Q 1056 3291 1056 2328 
Q 1056 1369 1301 889 
Q 1547 409 2034 409 
Q 2525 409 2770 889 
Q 3016 1369 3016 2328 
Q 3016 3291 2770 3770 
Q 2525 4250 2034 4250 
z
M 2034 4750 
Q 2819 4750 3233 4129 
Q 3647 3509 3647 2328 
Q 3647 1150 3233 529 
Q 2819 -91 2034 -91 
Q 1250 -91 836 529 
Q 422 1150 422 2328 
Q 422 3509 836 4129 
Q 1250 4750 2034 4750 
z
" transform="scale(0.015625)"/>
       </defs>
       <use xlink:href="#DejaVuSans-30"/>
      </g>
     </g>
    </g>
    <g id="ytick_2">
     <g id="line2d_5">
      <path d="M 40.012375 294.522691 
L 598.012375 294.522691 
" clip-path="url(#pfac664cffa)" style="fill: none; stroke: #cccccc; stroke-linecap: round"/>
     </g>
     <g id="text_5">
      <!-- 1 -->
      <g style="fill: #262626" transform="translate(22.81375 299.119746) scale(0.121 -0.121)">
       <defs>
        <path id="DejaVuSans-31" d="M 794 531 
L 1825 531 
L 1825 4091 
L 703 3866 
L 703 4441 
L 1819 4666 
L 2450 4666 
L 2450 531 
L 3481 531 
L 3481 0 
L 794 0 
L 794 531 
z
" transform="scale(0.015625)"/>
       </defs>
       <use xlink:href="#DejaVuSans-31"/>
      </g>
     </g>
    </g>
    <g id="ytick_3">
     <g id="line2d_6">
      <path d="M 40.012375 247.097525 
L 598.012375 247.097525 
" clip-path="url(#pfac664cffa)" style="fill: none; stroke: #cccccc; stroke-linecap: round"/>
     </g>
     <g id="text_6">
      <!-- 2 -->
      <g style="fill: #262626" transform="translate(22.81375 251.694579) scale(0.121 -0.121)">
       <defs>
        <path id="DejaVuSans-32" d="M 1228 531 
L 3431 531 
L 3431 0 
L 469 0 
L 469 531 
Q 828 903 1448 1529 
Q 2069 2156 2228 2338 
Q 2531 2678 2651 2914 
Q 2772 3150 2772 3378 
Q 2772 3750 2511 3984 
Q 2250 4219 1831 4219 
Q 1534 4219 1204 4116 
Q 875 4013 500 3803 
L 500 4441 
Q 881 4594 1212 4672 
Q 1544 4750 1819 4750 
Q 2544 4750 2975 4387 
Q 3406 4025 3406 3419 
Q 3406 3131 3298 2873 
Q 3191 2616 2906 2266 
Q 2828 2175 2409 1742 
Q 1991 1309 1228 531 
z
" transform="scale(0.015625)"/>
       </defs>
       <use xlink:href="#DejaVuSans-32"/>
      </g>
     </g>
    </g>
    <g id="ytick_4">
     <g id="line2d_7">
      <path d="M 40.012375 199.672358 
L 598.012375 199.672358 
" clip-path="url(#pfac664cffa)" style="fill: none; stroke: #cccccc; stroke-linecap: round"/>
     </g>
     <g id="text_7">
      <!-- 3 -->
      <g style="fill: #262626" transform="translate(22.81375 204.269413) scale(0.121 -0.121)">
       <defs>
        <path id="DejaVuSans-33" d="M 2597 2516 
Q 3050 2419 3304 2112 
Q 3559 1806 3559 1356 
Q 3559 666 3084 287 
Q 2609 -91 1734 -91 
Q 1441 -91 1130 -33 
Q 819 25 488 141 
L 488 750 
Q 750 597 1062 519 
Q 1375 441 1716 441 
Q 2309 441 2620 675 
Q 2931 909 2931 1356 
Q 2931 1769 2642 2001 
Q 2353 2234 1838 2234 
L 1294 2234 
L 1294 2753 
L 1863 2753 
Q 2328 2753 2575 2939 
Q 2822 3125 2822 3475 
Q 2822 3834 2567 4026 
Q 2313 4219 1838 4219 
Q 1578 4219 1281 4162 
Q 984 4106 628 3988 
L 628 4550 
Q 988 4650 1302 4700 
Q 1616 4750 1894 4750 
Q 2613 4750 3031 4423 
Q 3450 4097 3450 3541 
Q 3450 3153 3228 2886 
Q 3006 2619 2597 2516 
z
" transform="scale(0.015625)"/>
       </defs>
       <use xlink:href="#DejaVuSans-33"/>
      </g>
     </g>
    </g>
    <g id="ytick_5">
     <g id="line2d_8">
      <path d="M 40.012375 152.247192 
L 598.012375 152.247192 
" clip-path="url(#pfac664cffa)" style="fill: none; stroke: #cccccc; stroke-linecap: round"/>
     </g>
     <g id="text_8">
      <!-- 4 -->
      <g style="fill: #262626" transform="translate(22.81375 156.844247) scale(0.121 -0.121)">
       <defs>
        <path id="DejaVuSans-34" d="M 2419 4116 
L 825 1625 
L 2419 1625 
L 2419 4116 
z
M 2253 4666 
L 3047 4666 
L 3047 1625 
L 3713 1625 
L 3713 1100 
L 3047 1100 
L 3047 0 
L 2419 0 
L 2419 1100 
L 313 1100 
L 313 1709 
L 2253 4666 
z
" transform="scale(0.015625)"/>
       </defs>
       <use xlink:href="#DejaVuSans-34"/>
      </g>
     </g>
    </g>
    <g id="ytick_6">
     <g id="line2d_9">
      <path d="M 40.012375 104.822026 
L 598.012375 104.822026 
" clip-path="url(#pfac664cffa)" style="fill: none; stroke: #cccccc; stroke-linecap: round"/>
     </g>
     <g id="text_9">
      <!-- 5 -->
      <g style="fill: #262626" transform="translate(22.81375 109.419081) scale(0.121 -0.121)">
       <defs>
        <path id="DejaVuSans-35" d="M 691 4666 
L 3169 4666 
L 3169 4134 
L 1269 4134 
L 1269 2991 
Q 1406 3038 1543 3061 
Q 1681 3084 1819 3084 
Q 2600 3084 3056 2656 
Q 3513 2228 3513 1497 
Q 3513 744 3044 326 
Q 2575 -91 1722 -91 
Q 1428 -91 1123 -41 
Q 819 9 494 109 
L 494 744 
Q 775 591 1075 516 
Q 1375 441 1709 441 
Q 2250 441 2565 725 
Q 2881 1009 2881 1497 
Q 2881 1984 2565 2268 
Q 2250 2553 1709 2553 
Q 1456 2553 1204 2497 
Q 953 2441 691 2322 
L 691 4666 
z
" transform="scale(0.015625)"/>
       </defs>
       <use xlink:href="#DejaVuSans-35"/>
      </g>
     </g>
    </g>
    <g id="ytick_7">
     <g id="line2d_10">
      <path d="M 40.012375 57.39686 
L 598.012375 57.39686 
" clip-path="url(#pfac664cffa)" style="fill: none; stroke: #cccccc; stroke-linecap: round"/>
     </g>
     <g id="text_10">
      <!-- 6 -->
      <g style="fill: #262626" transform="translate(22.81375 61.993914) scale(0.121 -0.121)">
       <defs>
        <path id="DejaVuSans-36" d="M 2113 2584 
Q 1688 2584 1439 2293 
Q 1191 2003 1191 1497 
Q 1191 994 1439 701 
Q 1688 409 2113 409 
Q 2538 409 2786 701 
Q 3034 994 3034 1497 
Q 3034 2003 2786 2293 
Q 2538 2584 2113 2584 
z
M 3366 4563 
L 3366 3988 
Q 3128 4100 2886 4159 
Q 2644 4219 2406 4219 
Q 1781 4219 1451 3797 
Q 1122 3375 1075 2522 
Q 1259 2794 1537 2939 
Q 1816 3084 2150 3084 
Q 2853 3084 3261 2657 
Q 3669 2231 3669 1497 
Q 3669 778 3244 343 
Q 2819 -91 2113 -91 
Q 1303 -91 875 529 
Q 447 1150 447 2328 
Q 447 3434 972 4092 
Q 1497 4750 2381 4750 
Q 2619 4750 2861 4703 
Q 3103 4656 3366 4563 
z
" transform="scale(0.015625)"/>
       </defs>
       <use xlink:href="#DejaVuSans-36"/>
      </g>
     </g>
    </g>
    <g id="text_11">
     <!-- Edit Norm -->
     <g style="fill: #262626" transform="translate(16.318125 220.05) rotate(-90) scale(0.12 -0.12)">
      <defs>
       <path id="DejaVuSans-45" d="M 628 4666 
L 3578 4666 
L 3578 4134 
L 1259 4134 
L 1259 2753 
L 3481 2753 
L 3481 2222 
L 1259 2222 
L 1259 531 
L 3634 531 
L 3634 0 
L 628 0 
L 628 4666 
z
" transform="scale(0.015625)"/>
       <path id="DejaVuSans-64" d="M 2906 2969 
L 2906 4863 
L 3481 4863 
L 3481 0 
L 2906 0 
L 2906 525 
Q 2725 213 2448 61 
Q 2172 -91 1784 -91 
Q 1150 -91 751 415 
Q 353 922 353 1747 
Q 353 2572 751 3078 
Q 1150 3584 1784 3584 
Q 2172 3584 2448 3432 
Q 2725 3281 2906 2969 
z
M 947 1747 
Q 947 1113 1208 752 
Q 1469 391 1925 391 
Q 2381 391 2643 752 
Q 2906 1113 2906 1747 
Q 2906 2381 2643 2742 
Q 2381 3103 1925 3103 
Q 1469 3103 1208 2742 
Q 947 2381 947 1747 
z
" transform="scale(0.015625)"/>
       <path id="DejaVuSans-20" transform="scale(0.015625)"/>
       <path id="DejaVuSans-4e" d="M 628 4666 
L 1478 4666 
L 3547 763 
L 3547 4666 
L 4159 4666 
L 4159 0 
L 3309 0 
L 1241 3903 
L 1241 0 
L 628 0 
L 628 4666 
z
" transform="scale(0.015625)"/>
       <path id="DejaVuSans-6f" d="M 1959 3097 
Q 1497 3097 1228 2736 
Q 959 2375 959 1747 
Q 959 1119 1226 758 
Q 1494 397 1959 397 
Q 2419 397 2687 759 
Q 2956 1122 2956 1747 
Q 2956 2369 2687 2733 
Q 2419 3097 1959 3097 
z
M 1959 3584 
Q 2709 3584 3137 3096 
Q 3566 2609 3566 1747 
Q 3566 888 3137 398 
Q 2709 -91 1959 -91 
Q 1206 -91 779 398 
Q 353 888 353 1747 
Q 353 2609 779 3096 
Q 1206 3584 1959 3584 
z
" transform="scale(0.015625)"/>
       <path id="DejaVuSans-6d" d="M 3328 2828 
Q 3544 3216 3844 3400 
Q 4144 3584 4550 3584 
Q 5097 3584 5394 3201 
Q 5691 2819 5691 2113 
L 5691 0 
L 5113 0 
L 5113 2094 
Q 5113 2597 4934 2840 
Q 4756 3084 4391 3084 
Q 3944 3084 3684 2787 
Q 3425 2491 3425 1978 
L 3425 0 
L 2847 0 
L 2847 2094 
Q 2847 2600 2669 2842 
Q 2491 3084 2119 3084 
Q 1678 3084 1418 2786 
Q 1159 2488 1159 1978 
L 1159 0 
L 581 0 
L 581 3500 
L 1159 3500 
L 1159 2956 
Q 1356 3278 1631 3431 
Q 1906 3584 2284 3584 
Q 2666 3584 2933 3390 
Q 3200 3197 3328 2828 
z
" transform="scale(0.015625)"/>
      </defs>
      <use xlink:href="#DejaVuSans-45"/>
      <use xlink:href="#DejaVuSans-64" transform="translate(63.183594 0)"/>
      <use xlink:href="#DejaVuSans-69" transform="translate(126.660156 0)"/>
      <use xlink:href="#DejaVuSans-74" transform="translate(154.443359 0)"/>
      <use xlink:href="#DejaVuSans-20" transform="translate(193.652344 0)"/>
      <use xlink:href="#DejaVuSans-4e" transform="translate(225.439453 0)"/>
      <use xlink:href="#DejaVuSans-6f" transform="translate(300.244141 0)"/>
      <use xlink:href="#DejaVuSans-72" transform="translate(361.425781 0)"/>
      <use xlink:href="#DejaVuSans-6d" transform="translate(400.789062 0)"/>
     </g>
    </g>
   </g>
   <g id="FillBetweenPolyCollection_1">
    <defs>
     <path id="m16f640f0c4" d="M 150.566512 -43.43375 
L 81.640056 -43.43375 
L 81.681303 -44.510713 
L 81.89451 -45.587676 
L 82.276268 -46.664639 
L 82.820626 -47.741602 
L 83.519231 -48.818565 
L 84.361526 -49.895528 
L 85.334993 -50.972491 
L 86.425446 -52.049454 
L 87.617347 -53.126417 
L 88.894144 -54.20338 
L 90.238629 -55.280343 
L 91.633282 -56.357306 
L 93.060615 -57.434269 
L 94.503489 -58.511232 
L 95.945407 -59.588195 
L 97.370769 -60.665158 
L 98.765089 -61.742121 
L 100.115168 -62.819084 
L 101.409219 -63.896047 
L 102.63695 -64.97301 
L 103.789604 -66.049973 
L 104.859954 -67.126936 
L 105.842267 -68.203899 
L 106.732228 -69.280862 
L 107.52685 -70.357825 
L 108.224348 -71.434788 
L 108.824009 -72.511751 
L 109.32605 -73.588714 
L 109.73147 -74.665677 
L 110.041903 -75.74264 
L 110.259475 -76.819603 
L 110.386671 -77.896566 
L 110.426213 -78.973529 
L 110.380943 -80.050492 
L 110.253731 -81.127455 
L 110.047391 -82.204418 
L 109.76461 -83.28138 
L 109.407897 -84.358343 
L 108.979548 -85.435306 
L 108.481615 -86.512269 
L 107.915899 -87.589232 
L 107.283947 -88.666195 
L 106.587073 -89.743158 
L 105.826372 -90.820121 
L 105.002763 -91.897084 
L 104.117033 -92.974047 
L 103.169885 -94.05101 
L 102.16201 -95.127973 
L 101.094151 -96.204936 
L 99.967186 -97.281899 
L 98.782207 -98.358862 
L 97.540613 -99.435825 
L 96.244198 -100.512788 
L 94.895245 -101.589751 
L 93.496611 -102.666714 
L 92.051821 -103.743677 
L 90.565139 -104.82064 
L 89.041641 -105.897603 
L 87.487269 -106.974566 
L 85.90887 -108.051529 
L 84.314217 -109.128492 
L 82.712006 -110.205455 
L 81.111833 -111.282418 
L 79.524139 -112.359381 
L 77.960136 -113.436344 
L 76.431704 -114.513307 
L 74.951257 -115.59027 
L 73.531593 -116.667233 
L 72.185719 -117.744196 
L 70.926652 -118.821159 
L 69.767215 -119.898122 
L 68.719819 -120.975085 
L 67.796235 -122.052048 
L 67.007381 -123.129011 
L 66.3631 -124.205974 
L 65.871967 -125.282937 
L 65.541102 -126.3599 
L 65.376011 -127.436863 
L 65.380465 -128.513826 
L 65.556395 -129.590789 
L 65.903834 -130.667752 
L 66.420898 -131.744715 
L 67.103793 -132.821678 
L 67.946878 -133.898641 
L 68.942744 -134.975604 
L 70.082351 -136.052567 
L 71.355173 -137.12953 
L 72.749385 -138.206493 
L 74.252069 -139.283456 
L 75.849432 -140.360419 
L 77.52704 -141.437382 
L 79.270056 -142.514345 
L 81.063473 -143.591308 
L 82.892351 -144.668271 
L 84.742032 -145.745234 
L 86.598347 -146.822197 
L 88.447797 -147.89916 
L 90.277722 -148.976123 
L 92.076431 -150.053086 
L 140.130138 -150.053086 
L 140.130138 -150.053086 
L 141.928846 -148.976123 
L 143.758771 -147.89916 
L 145.608222 -146.822197 
L 147.464536 -145.745234 
L 149.314217 -144.668271 
L 151.143095 -143.591308 
L 152.936512 -142.514345 
L 154.679528 -141.437382 
L 156.357136 -140.360419 
L 157.954499 -139.283456 
L 159.457183 -138.206493 
L 160.851396 -137.12953 
L 162.124217 -136.052567 
L 163.263824 -134.975604 
L 164.259691 -133.898641 
L 165.102775 -132.821678 
L 165.78567 -131.744715 
L 166.302734 -130.667752 
L 166.650173 -129.590789 
L 166.826103 -128.513826 
L 166.830557 -127.436863 
L 166.665467 -126.3599 
L 166.334601 -125.282937 
L 165.843468 -124.205974 
L 165.199187 -123.129011 
L 164.410333 -122.052048 
L 163.486749 -120.975085 
L 162.439353 -119.898122 
L 161.279916 -118.821159 
L 160.020849 -117.744196 
L 158.674975 -116.667233 
L 157.255312 -115.59027 
L 155.774864 -114.513307 
L 154.246432 -113.436344 
L 152.682429 -112.359381 
L 151.094735 -111.282418 
L 149.494562 -110.205455 
L 147.892351 -109.128492 
L 146.297698 -108.051529 
L 144.719299 -106.974566 
L 143.164927 -105.897603 
L 141.641429 -104.82064 
L 140.154747 -103.743677 
L 138.709957 -102.666714 
L 137.311324 -101.589751 
L 135.96237 -100.512788 
L 134.665955 -99.435825 
L 133.424361 -98.358862 
L 132.239383 -97.281899 
L 131.112417 -96.204936 
L 130.044559 -95.127973 
L 129.036683 -94.05101 
L 128.089536 -92.974047 
L 127.203805 -91.897084 
L 126.380197 -90.820121 
L 125.619496 -89.743158 
L 124.922621 -88.666195 
L 124.290669 -87.589232 
L 123.724953 -86.512269 
L 123.22702 -85.435306 
L 122.798671 -84.358343 
L 122.441959 -83.28138 
L 122.159177 -82.204418 
L 121.952837 -81.127455 
L 121.825625 -80.050492 
L 121.780355 -78.973529 
L 121.819897 -77.896566 
L 121.947094 -76.819603 
L 122.164666 -75.74264 
L 122.475098 -74.665677 
L 122.880518 -73.588714 
L 123.382559 -72.511751 
L 123.98222 -71.434788 
L 124.679718 -70.357825 
L 125.47434 -69.280862 
L 126.364302 -68.203899 
L 127.346614 -67.126936 
L 128.416964 -66.049973 
L 129.569618 -64.97301 
L 130.797349 -63.896047 
L 132.0914 -62.819084 
L 133.441479 -61.742121 
L 134.835799 -60.665158 
L 136.261162 -59.588195 
L 137.703079 -58.511232 
L 139.145953 -57.434269 
L 140.573286 -56.357306 
L 141.96794 -55.280343 
L 143.312424 -54.20338 
L 144.589222 -53.126417 
L 145.781122 -52.049454 
L 146.871575 -50.972491 
L 147.845042 -49.895528 
L 148.687337 -48.818565 
L 149.385942 -47.741602 
L 149.9303 -46.664639 
L 150.312058 -45.587676 
L 150.525266 -44.510713 
L 150.566512 -43.43375 
z
" style="stroke: #ffffff; stroke-opacity: 0.7"/>
    </defs>
    <g clip-path="url(#pfac664cffa)">
     <use xlink:href="#m16f640f0c4" x="0" y="384.791562" style="fill: #3498db; fill-opacity: 0.7; stroke: #ffffff; stroke-opacity: 0.7"/>
    </g>
   </g>
   <g id="FillBetweenPolyCollection_2">
    <defs>
     <path id="m98e4f1de7c" d="M 368.27151 -43.43375 
L 269.75324 -43.43375 
L 268.955336 -46.488295 
L 268.469308 -49.542841 
L 268.285102 -52.597386 
L 268.384471 -55.651932 
L 268.741975 -58.706477 
L 269.326285 -61.761023 
L 270.101698 -64.815568 
L 271.029762 -67.870114 
L 272.070932 -70.924659 
L 273.186136 -73.979205 
L 274.33819 -77.03375 
L 275.492982 -80.088295 
L 276.620397 -83.142841 
L 277.694933 -86.197386 
L 278.696034 -89.251932 
L 279.608134 -92.306477 
L 280.420465 -95.361023 
L 281.126663 -98.415568 
L 281.724226 -101.470114 
L 282.213889 -104.524659 
L 282.598952 -107.579205 
L 282.884628 -110.63375 
L 283.077435 -113.688295 
L 283.184668 -116.742841 
L 283.213975 -119.797386 
L 283.173032 -122.851932 
L 283.069331 -125.906477 
L 282.910068 -128.961023 
L 282.702114 -132.015568 
L 282.452058 -135.070114 
L 282.166291 -138.124659 
L 281.851128 -141.179205 
L 281.512929 -144.23375 
L 281.158219 -147.288295 
L 280.793773 -150.342841 
L 280.426678 -153.397386 
L 280.064345 -156.451932 
L 279.714471 -159.506477 
L 279.384961 -162.561023 
L 279.083802 -165.615568 
L 278.818897 -168.670114 
L 278.597869 -171.724659 
L 278.427848 -174.779205 
L 278.315244 -177.83375 
L 278.265523 -180.888295 
L 278.282997 -183.942841 
L 278.370642 -186.997386 
L 278.529941 -190.051932 
L 278.760782 -193.106477 
L 279.0614 -196.161023 
L 279.428375 -199.215568 
L 279.856695 -202.270114 
L 280.339877 -205.324659 
L 280.870145 -208.379205 
L 281.438672 -211.43375 
L 282.035864 -214.488295 
L 282.651694 -217.542841 
L 283.276059 -220.597386 
L 283.899159 -223.651932 
L 284.511878 -226.706477 
L 285.106146 -229.761023 
L 285.675272 -232.815568 
L 286.214233 -235.870114 
L 286.719893 -238.924659 
L 287.191147 -241.979205 
L 287.628984 -245.03375 
L 288.036449 -248.088295 
L 288.418524 -251.142841 
L 288.781904 -254.197386 
L 289.134712 -257.251932 
L 289.486128 -260.306477 
L 289.845982 -263.361023 
L 290.224309 -266.415568 
L 290.630904 -269.470114 
L 291.07489 -272.524659 
L 291.564318 -275.579205 
L 292.105828 -278.63375 
L 292.704388 -281.688295 
L 293.363102 -284.742841 
L 294.08312 -287.797386 
L 294.863637 -290.851932 
L 295.70197 -293.906477 
L 296.593721 -296.961023 
L 297.533003 -300.015568 
L 298.512711 -303.070114 
L 299.524822 -306.124659 
L 300.560718 -309.179205 
L 301.611494 -312.23375 
L 302.668254 -315.288295 
L 303.722368 -318.342841 
L 304.765701 -321.397386 
L 305.790779 -324.451932 
L 306.790922 -327.506477 
L 307.760318 -330.561023 
L 308.694062 -333.615568 
L 309.588153 -336.670114 
L 310.43946 -339.724659 
L 311.245668 -342.779205 
L 312.005207 -345.83375 
L 326.019543 -345.83375 
L 326.019543 -345.83375 
L 326.779082 -342.779205 
L 327.58529 -339.724659 
L 328.436597 -336.670114 
L 329.330688 -333.615568 
L 330.264432 -330.561023 
L 331.233828 -327.506477 
L 332.233971 -324.451932 
L 333.259049 -321.397386 
L 334.302382 -318.342841 
L 335.356496 -315.288295 
L 336.413256 -312.23375 
L 337.464032 -309.179205 
L 338.499928 -306.124659 
L 339.512039 -303.070114 
L 340.491747 -300.015568 
L 341.431029 -296.961023 
L 342.32278 -293.906477 
L 343.161113 -290.851932 
L 343.94163 -287.797386 
L 344.661648 -284.742841 
L 345.320362 -281.688295 
L 345.918922 -278.63375 
L 346.460432 -275.579205 
L 346.94986 -272.524659 
L 347.393846 -269.470114 
L 347.800441 -266.415568 
L 348.178768 -263.361023 
L 348.538622 -260.306477 
L 348.890038 -257.251932 
L 349.242846 -254.197386 
L 349.606226 -251.142841 
L 349.988301 -248.088295 
L 350.395766 -245.03375 
L 350.833603 -241.979205 
L 351.304857 -238.924659 
L 351.810517 -235.870114 
L 352.349478 -232.815568 
L 352.918604 -229.761023 
L 353.512872 -226.706477 
L 354.125591 -223.651932 
L 354.748691 -220.597386 
L 355.373056 -217.542841 
L 355.988886 -214.488295 
L 356.586078 -211.43375 
L 357.154605 -208.379205 
L 357.684873 -205.324659 
L 358.168055 -202.270114 
L 358.596375 -199.215568 
L 358.96335 -196.161023 
L 359.263968 -193.106477 
L 359.494809 -190.051932 
L 359.654108 -186.997386 
L 359.741753 -183.942841 
L 359.759227 -180.888295 
L 359.709506 -177.83375 
L 359.596902 -174.779205 
L 359.426881 -171.724659 
L 359.205853 -168.670114 
L 358.940948 -165.615568 
L 358.639789 -162.561023 
L 358.310279 -159.506477 
L 357.960405 -156.451932 
L 357.598072 -153.397386 
L 357.230977 -150.342841 
L 356.866531 -147.288295 
L 356.511821 -144.23375 
L 356.173622 -141.179205 
L 355.858459 -138.124659 
L 355.572692 -135.070114 
L 355.322636 -132.015568 
L 355.114682 -128.961023 
L 354.955419 -125.906477 
L 354.851718 -122.851932 
L 354.810775 -119.797386 
L 354.840082 -116.742841 
L 354.947315 -113.688295 
L 355.140122 -110.63375 
L 355.425798 -107.579205 
L 355.810861 -104.524659 
L 356.300524 -101.470114 
L 356.898087 -98.415568 
L 357.604285 -95.361023 
L 358.416616 -92.306477 
L 359.328716 -89.251932 
L 360.329817 -86.197386 
L 361.404353 -83.142841 
L 362.531768 -80.088295 
L 363.68656 -77.03375 
L 364.838614 -73.979205 
L 365.953818 -70.924659 
L 366.994988 -67.870114 
L 367.923052 -64.815568 
L 368.698465 -61.761023 
L 369.282775 -58.706477 
L 369.640279 -55.651932 
L 369.739648 -52.597386 
L 369.555442 -49.542841 
L 369.069414 -46.488295 
L 368.27151 -43.43375 
z
" style="stroke: #ffffff; stroke-opacity: 0.7"/>
    </defs>
    <g clip-path="url(#pfac664cffa)">
     <use xlink:href="#m98e4f1de7c" x="0" y="384.791562" style="fill: #e74c3c; fill-opacity: 0.7; stroke: #ffffff; stroke-opacity: 0.7"/>
    </g>
   </g>
   <g id="FillBetweenPolyCollection_3">
    <defs>
     <path id="mb1a4f8bb6f" d="M 536.157021 -97.889659 
L 507.685911 -97.889659 
L 506.406626 -98.307079 
L 505.227834 -98.724499 
L 504.181561 -99.141919 
L 503.294278 -99.559339 
L 502.584994 -99.976759 
L 502.0638 -100.394179 
L 501.731008 -100.811599 
L 501.576975 -101.229018 
L 501.582611 -101.646438 
L 501.720534 -102.063858 
L 501.956745 -102.481278 
L 502.25268 -102.898698 
L 502.567424 -103.316118 
L 502.859911 -103.733538 
L 503.090913 -104.150958 
L 503.224682 -104.568378 
L 503.230151 -104.985798 
L 503.08166 -105.403218 
L 502.759244 -105.820638 
L 502.248568 -106.238058 
L 501.540628 -106.655478 
L 500.631363 -107.072898 
L 499.5213 -107.490318 
L 498.215343 -107.907738 
L 496.722744 -108.325158 
L 495.057264 -108.742578 
L 493.237448 -109.159998 
L 491.286928 -109.577418 
L 489.234589 -109.994838 
L 487.114506 -110.412258 
L 484.965501 -110.829678 
L 482.830292 -111.247098 
L 480.754213 -111.664518 
L 478.783572 -112.081938 
L 476.963784 -112.499358 
L 475.337417 -112.916778 
L 473.94236 -113.334198 
L 472.810261 -113.751618 
L 471.965391 -114.169037 
L 471.423999 -114.586457 
L 471.194193 -115.003877 
L 471.276295 -115.421297 
L 471.663568 -115.838717 
L 472.3432 -116.256137 
L 473.297389 -116.673557 
L 474.504407 -117.090977 
L 475.939549 -117.508397 
L 477.575904 -117.925817 
L 479.384945 -118.343237 
L 481.336964 -118.760657 
L 483.401428 -119.178077 
L 485.547299 -119.595497 
L 487.743411 -120.012917 
L 489.958942 -120.430337 
L 492.16399 -120.847757 
L 494.33026 -121.265177 
L 496.43181 -121.682597 
L 498.4458 -122.100017 
L 500.35318 -122.517437 
L 502.139239 -122.934857 
L 503.793973 -123.352277 
L 505.312216 -123.769697 
L 506.693526 -124.187117 
L 507.941826 -124.604537 
L 509.064817 -125.021957 
L 510.073214 -125.439377 
L 510.979853 -125.856797 
L 511.798729 -126.274217 
L 512.544033 -126.691637 
L 513.229264 -127.109056 
L 513.866451 -127.526476 
L 514.46555 -127.943896 
L 515.03405 -128.361316 
L 515.576785 -128.778736 
L 516.095968 -129.196156 
L 516.591417 -129.613576 
L 517.060942 -130.030996 
L 517.50086 -130.448416 
L 517.906569 -130.865836 
L 518.273163 -131.283256 
L 518.596024 -131.700676 
L 518.871357 -132.118096 
L 519.096653 -132.535516 
L 519.27103 -132.952936 
L 519.395464 -133.370356 
L 519.472879 -133.787776 
L 519.508106 -134.205196 
L 519.507703 -134.622616 
L 519.479654 -135.040036 
L 519.432964 -135.457456 
L 519.377164 -135.874876 
L 519.321781 -136.292296 
L 519.275785 -136.709716 
L 519.247087 -137.127136 
L 519.24209 -137.544556 
L 519.265369 -137.961976 
L 519.319469 -138.379396 
L 519.404867 -138.796816 
L 519.520072 -139.214236 
L 524.32286 -139.214236 
L 524.32286 -139.214236 
L 524.438065 -138.796816 
L 524.523463 -138.379396 
L 524.577563 -137.961976 
L 524.600841 -137.544556 
L 524.595845 -137.127136 
L 524.567146 -136.709716 
L 524.521151 -136.292296 
L 524.465767 -135.874876 
L 524.409968 -135.457456 
L 524.363278 -135.040036 
L 524.335229 -134.622616 
L 524.334826 -134.205196 
L 524.370053 -133.787776 
L 524.447468 -133.370356 
L 524.571901 -132.952936 
L 524.746279 -132.535516 
L 524.971574 -132.118096 
L 525.246908 -131.700676 
L 525.569769 -131.283256 
L 525.936363 -130.865836 
L 526.342072 -130.448416 
L 526.781989 -130.030996 
L 527.251515 -129.613576 
L 527.746964 -129.196156 
L 528.266147 -128.778736 
L 528.808882 -128.361316 
L 529.377382 -127.943896 
L 529.976481 -127.526476 
L 530.613667 -127.109056 
L 531.298899 -126.691637 
L 532.044203 -126.274217 
L 532.863078 -125.856797 
L 533.769718 -125.439377 
L 534.778115 -125.021957 
L 535.901106 -124.604537 
L 537.149406 -124.187117 
L 538.530716 -123.769697 
L 540.048959 -123.352277 
L 541.703693 -122.934857 
L 543.489752 -122.517437 
L 545.397132 -122.100017 
L 547.411122 -121.682597 
L 549.512672 -121.265177 
L 551.678942 -120.847757 
L 553.88399 -120.430337 
L 556.09952 -120.012917 
L 558.295633 -119.595497 
L 560.441504 -119.178077 
L 562.505968 -118.760657 
L 564.457987 -118.343237 
L 566.267027 -117.925817 
L 567.903383 -117.508397 
L 569.338525 -117.090977 
L 570.545543 -116.673557 
L 571.499732 -116.256137 
L 572.179364 -115.838717 
L 572.566637 -115.421297 
L 572.648739 -115.003877 
L 572.418933 -114.586457 
L 571.877541 -114.169037 
L 571.032671 -113.751618 
L 569.900572 -113.334198 
L 568.505515 -112.916778 
L 566.879148 -112.499358 
L 565.059359 -112.081938 
L 563.088719 -111.664518 
L 561.012639 -111.247098 
L 558.877431 -110.829678 
L 556.728426 -110.412258 
L 554.608343 -109.994838 
L 552.556004 -109.577418 
L 550.605483 -109.159998 
L 548.785668 -108.742578 
L 547.120188 -108.325158 
L 545.627589 -107.907738 
L 544.321632 -107.490318 
L 543.211569 -107.072898 
L 542.302304 -106.655478 
L 541.594364 -106.238058 
L 541.083687 -105.820638 
L 540.761271 -105.403218 
L 540.61278 -104.985798 
L 540.61825 -104.568378 
L 540.752019 -104.150958 
L 540.983021 -103.733538 
L 541.275508 -103.316118 
L 541.590252 -102.898698 
L 541.886187 -102.481278 
L 542.122398 -102.063858 
L 542.26032 -101.646438 
L 542.265957 -101.229018 
L 542.111924 -100.811599 
L 541.779132 -100.394179 
L 541.257937 -99.976759 
L 540.548654 -99.559339 
L 539.661371 -99.141919 
L 538.615098 -98.724499 
L 537.436306 -98.307079 
L 536.157021 -97.889659 
z
" style="stroke: #ffffff; stroke-opacity: 0.7"/>
    </defs>
    <g clip-path="url(#pfac664cffa)">
     <use xlink:href="#mb1a4f8bb6f" x="0" y="384.791562" style="fill: #2ecc71; fill-opacity: 0.7; stroke: #ffffff; stroke-opacity: 0.7"/>
    </g>
   </g>
   <g id="LineCollection_1">
    <path d="M 90.739648 287.663915 
L 141.46692 287.663915 
" clip-path="url(#pfac664cffa)" style="fill: none; stroke: #4878d0; stroke-width: 1.5"/>
    <path d="M 293.648739 234.834445 
L 344.376011 234.834445 
" clip-path="url(#pfac664cffa)" style="fill: none; stroke: #4878d0; stroke-width: 1.5"/>
    <path d="M 496.55783 271.261009 
L 547.285102 271.261009 
" clip-path="url(#pfac664cffa)" style="fill: none; stroke: #4878d0; stroke-width: 1.5"/>
   </g>
   <g id="LineCollection_2">
    <path d="M 90.739648 234.738477 
L 141.46692 234.738477 
" clip-path="url(#pfac664cffa)" style="fill: none; stroke: #4878d0; stroke-width: 1.5"/>
    <path d="M 293.648739 38.957812 
L 344.376011 38.957812 
" clip-path="url(#pfac664cffa)" style="fill: none; stroke: #4878d0; stroke-width: 1.5"/>
    <path d="M 496.55783 245.577327 
L 547.285102 245.577327 
" clip-path="url(#pfac664cffa)" style="fill: none; stroke: #4878d0; stroke-width: 1.5"/>
   </g>
   <g id="LineCollection_3">
    <path d="M 90.739648 341.357812 
L 141.46692 341.357812 
" clip-path="url(#pfac664cffa)" style="fill: none; stroke: #4878d0; stroke-width: 1.5"/>
    <path d="M 293.648739 341.357812 
L 344.376011 341.357812 
" clip-path="url(#pfac664cffa)" style="fill: none; stroke: #4878d0; stroke-width: 1.5"/>
    <path d="M 496.55783 286.901904 
L 547.285102 286.901904 
" clip-path="url(#pfac664cffa)" style="fill: none; stroke: #4878d0; stroke-width: 1.5"/>
   </g>
   <g id="LineCollection_4">
    <path d="M 116.103284 341.357812 
L 116.103284 234.738477 
" clip-path="url(#pfac664cffa)" style="fill: none; stroke: #4878d0; stroke-width: 1.5"/>
    <path d="M 319.012375 341.357812 
L 319.012375 38.957812 
" clip-path="url(#pfac664cffa)" style="fill: none; stroke: #4878d0; stroke-width: 1.5"/>
    <path d="M 521.921466 286.901904 
L 521.921466 245.577327 
" clip-path="url(#pfac664cffa)" style="fill: none; stroke: #4878d0; stroke-width: 1.5"/>
   </g>
   <g id="LineCollection_5">
    <path d="M 90.739648 265.471562 
L 141.46692 265.471562 
" clip-path="url(#pfac664cffa)" style="fill: none; stroke: #4878d0; stroke-width: 1.5"/>
    <path d="M 293.648739 242.4354 
L 344.376011 242.4354 
" clip-path="url(#pfac664cffa)" style="fill: none; stroke: #4878d0; stroke-width: 1.5"/>
    <path d="M 496.55783 270.506689 
L 547.285102 270.506689 
" clip-path="url(#pfac664cffa)" style="fill: none; stroke: #4878d0; stroke-width: 1.5"/>
   </g>
   <g id="patch_3">
    <path d="M 40.012375 356.477812 
L 40.012375 23.837812 
" style="fill: none; stroke: #cccccc; stroke-width: 1.25; stroke-linejoin: miter; stroke-linecap: square"/>
   </g>
   <g id="patch_4">
    <path d="M 598.012375 356.477812 
L 598.012375 23.837812 
" style="fill: none; stroke: #cccccc; stroke-width: 1.25; stroke-linejoin: miter; stroke-linecap: square"/>
   </g>
   <g id="patch_5">
    <path d="M 40.012375 356.477812 
L 598.012375 356.477812 
" style="fill: none; stroke: #cccccc; stroke-width: 1.25; stroke-linejoin: miter; stroke-linecap: square"/>
   </g>
   <g id="patch_6">
    <path d="M 40.012375 23.837812 
L 598.012375 23.837812 
" style="fill: none; stroke: #cccccc; stroke-width: 1.25; stroke-linejoin: miter; stroke-linecap: square"/>
   </g>
   <g id="text_12">
    <!-- Qwen3.5-27B Distribution of Per-Tensor Edit Magnitudes -->
    <g style="fill: #262626" transform="translate(96.253781 17.837812) scale(0.14 -0.14)">
     <defs>
      <path id="DejaVuSans-Bold-51" d="M 2847 -84 
L 2753 -84 
Q 1600 -84 959 553 
Q 319 1191 319 2328 
Q 319 3463 958 4106 
Q 1597 4750 2719 4750 
Q 3853 4750 4486 4112 
Q 5119 3475 5119 2328 
Q 5119 1541 4783 972 
Q 4447 403 3816 116 
L 4756 -934 
L 3609 -934 
L 2847 -84 
z
M 2719 3878 
Q 2169 3878 1866 3472 
Q 1563 3066 1563 2328 
Q 1563 1578 1859 1179 
Q 2156 781 2719 781 
Q 3272 781 3575 1187 
Q 3878 1594 3878 2328 
Q 3878 3066 3575 3472 
Q 3272 3878 2719 3878 
z
" transform="scale(0.015625)"/>
      <path id="DejaVuSans-Bold-77" d="M 225 3500 
L 1313 3500 
L 1900 1088 
L 2491 3500 
L 3425 3500 
L 4013 1113 
L 4603 3500 
L 5691 3500 
L 4769 0 
L 3547 0 
L 2956 2406 
L 2369 0 
L 1147 0 
L 225 3500 
z
" transform="scale(0.015625)"/>
      <path id="DejaVuSans-Bold-65" d="M 4031 1759 
L 4031 1441 
L 1416 1441 
Q 1456 1047 1700 850 
Q 1944 653 2381 653 
Q 2734 653 3104 758 
Q 3475 863 3866 1075 
L 3866 213 
Q 3469 63 3072 -14 
Q 2675 -91 2278 -91 
Q 1328 -91 801 392 
Q 275 875 275 1747 
Q 275 2603 792 3093 
Q 1309 3584 2216 3584 
Q 3041 3584 3536 3087 
Q 4031 2591 4031 1759 
z
M 2881 2131 
Q 2881 2450 2695 2645 
Q 2509 2841 2209 2841 
Q 1884 2841 1681 2658 
Q 1478 2475 1428 2131 
L 2881 2131 
z
" transform="scale(0.015625)"/>
      <path id="DejaVuSans-Bold-6e" d="M 4056 2131 
L 4056 0 
L 2931 0 
L 2931 347 
L 2931 1631 
Q 2931 2084 2911 2256 
Q 2891 2428 2841 2509 
Q 2775 2619 2662 2680 
Q 2550 2741 2406 2741 
Q 2056 2741 1856 2470 
Q 1656 2200 1656 1722 
L 1656 0 
L 538 0 
L 538 3500 
L 1656 3500 
L 1656 2988 
Q 1909 3294 2193 3439 
Q 2478 3584 2822 3584 
Q 3428 3584 3742 3212 
Q 4056 2841 4056 2131 
z
" transform="scale(0.015625)"/>
      <path id="DejaVuSans-Bold-33" d="M 2981 2516 
Q 3453 2394 3698 2092 
Q 3944 1791 3944 1325 
Q 3944 631 3412 270 
Q 2881 -91 1863 -91 
Q 1503 -91 1142 -33 
Q 781 25 428 141 
L 428 1069 
Q 766 900 1098 814 
Q 1431 728 1753 728 
Q 2231 728 2486 893 
Q 2741 1059 2741 1369 
Q 2741 1688 2480 1852 
Q 2219 2016 1709 2016 
L 1228 2016 
L 1228 2791 
L 1734 2791 
Q 2188 2791 2409 2933 
Q 2631 3075 2631 3366 
Q 2631 3634 2415 3781 
Q 2200 3928 1806 3928 
Q 1516 3928 1219 3862 
Q 922 3797 628 3669 
L 628 4550 
Q 984 4650 1334 4700 
Q 1684 4750 2022 4750 
Q 2931 4750 3382 4451 
Q 3834 4153 3834 3553 
Q 3834 3144 3618 2883 
Q 3403 2622 2981 2516 
z
" transform="scale(0.015625)"/>
      <path id="DejaVuSans-Bold-2e" d="M 653 1209 
L 1778 1209 
L 1778 0 
L 653 0 
L 653 1209 
z
" transform="scale(0.015625)"/>
      <path id="DejaVuSans-Bold-35" d="M 678 4666 
L 3669 4666 
L 3669 3781 
L 1638 3781 
L 1638 3059 
Q 1775 3097 1914 3117 
Q 2053 3138 2203 3138 
Q 3056 3138 3531 2711 
Q 4006 2284 4006 1522 
Q 4006 766 3489 337 
Q 2972 -91 2053 -91 
Q 1656 -91 1267 -14 
Q 878 63 494 219 
L 494 1166 
Q 875 947 1217 837 
Q 1559 728 1863 728 
Q 2300 728 2551 942 
Q 2803 1156 2803 1522 
Q 2803 1891 2551 2103 
Q 2300 2316 1863 2316 
Q 1603 2316 1309 2248 
Q 1016 2181 678 2041 
L 678 4666 
z
" transform="scale(0.015625)"/>
      <path id="DejaVuSans-Bold-2d" d="M 347 2297 
L 2309 2297 
L 2309 1388 
L 347 1388 
L 347 2297 
z
" transform="scale(0.015625)"/>
      <path id="DejaVuSans-Bold-32" d="M 1844 884 
L 3897 884 
L 3897 0 
L 506 0 
L 506 884 
L 2209 2388 
Q 2438 2594 2547 2791 
Q 2656 2988 2656 3200 
Q 2656 3528 2436 3728 
Q 2216 3928 1850 3928 
Q 1569 3928 1234 3808 
Q 900 3688 519 3450 
L 519 4475 
Q 925 4609 1322 4679 
Q 1719 4750 2100 4750 
Q 2938 4750 3402 4381 
Q 3866 4013 3866 3353 
Q 3866 2972 3669 2642 
Q 3472 2313 2841 1759 
L 1844 884 
z
" transform="scale(0.015625)"/>
      <path id="DejaVuSans-Bold-37" d="M 428 4666 
L 3944 4666 
L 3944 3988 
L 2125 0 
L 953 0 
L 2675 3781 
L 428 3781 
L 428 4666 
z
" transform="scale(0.015625)"/>
      <path id="DejaVuSans-Bold-42" d="M 2456 2859 
Q 2741 2859 2887 2984 
Q 3034 3109 3034 3353 
Q 3034 3594 2887 3720 
Q 2741 3847 2456 3847 
L 1791 3847 
L 1791 2859 
L 2456 2859 
z
M 2497 819 
Q 2859 819 3042 972 
Q 3225 1125 3225 1434 
Q 3225 1738 3044 1889 
Q 2863 2041 2497 2041 
L 1791 2041 
L 1791 819 
L 2497 819 
z
M 3616 2497 
Q 4003 2384 4215 2081 
Q 4428 1778 4428 1338 
Q 4428 663 3972 331 
Q 3516 0 2584 0 
L 588 0 
L 588 4666 
L 2394 4666 
Q 3366 4666 3802 4372 
Q 4238 4078 4238 3431 
Q 4238 3091 4078 2852 
Q 3919 2613 3616 2497 
z
" transform="scale(0.015625)"/>
      <path id="DejaVuSans-Bold-20" transform="scale(0.015625)"/>
      <path id="DejaVuSans-Bold-44" d="M 1791 3756 
L 1791 909 
L 2222 909 
Q 2959 909 3348 1275 
Q 3738 1641 3738 2338 
Q 3738 3031 3350 3393 
Q 2963 3756 2222 3756 
L 1791 3756 
z
M 588 4666 
L 1856 4666 
Q 2919 4666 3439 4514 
Q 3959 4363 4331 4000 
Q 4659 3684 4818 3271 
Q 4978 2859 4978 2338 
Q 4978 1809 4818 1395 
Q 4659 981 4331 666 
Q 3956 303 3431 151 
Q 2906 0 1856 0 
L 588 0 
L 588 4666 
z
" transform="scale(0.015625)"/>
      <path id="DejaVuSans-Bold-69" d="M 538 3500 
L 1656 3500 
L 1656 0 
L 538 0 
L 538 3500 
z
M 538 4863 
L 1656 4863 
L 1656 3950 
L 538 3950 
L 538 4863 
z
" transform="scale(0.015625)"/>
      <path id="DejaVuSans-Bold-73" d="M 3272 3391 
L 3272 2541 
Q 2913 2691 2578 2766 
Q 2244 2841 1947 2841 
Q 1628 2841 1473 2761 
Q 1319 2681 1319 2516 
Q 1319 2381 1436 2309 
Q 1553 2238 1856 2203 
L 2053 2175 
Q 2913 2066 3209 1816 
Q 3506 1566 3506 1031 
Q 3506 472 3093 190 
Q 2681 -91 1863 -91 
Q 1516 -91 1145 -36 
Q 775 19 384 128 
L 384 978 
Q 719 816 1070 734 
Q 1422 653 1784 653 
Q 2113 653 2278 743 
Q 2444 834 2444 1013 
Q 2444 1163 2330 1236 
Q 2216 1309 1875 1350 
L 1678 1375 
Q 931 1469 631 1722 
Q 331 1975 331 2491 
Q 331 3047 712 3315 
Q 1094 3584 1881 3584 
Q 2191 3584 2531 3537 
Q 2872 3491 3272 3391 
z
" transform="scale(0.015625)"/>
      <path id="DejaVuSans-Bold-74" d="M 1759 4494 
L 1759 3500 
L 2913 3500 
L 2913 2700 
L 1759 2700 
L 1759 1216 
Q 1759 972 1856 886 
Q 1953 800 2241 800 
L 2816 800 
L 2816 0 
L 1856 0 
Q 1194 0 917 276 
Q 641 553 641 1216 
L 641 2700 
L 84 2700 
L 84 3500 
L 641 3500 
L 641 4494 
L 1759 4494 
z
" transform="scale(0.015625)"/>
      <path id="DejaVuSans-Bold-72" d="M 3138 2547 
Q 2991 2616 2845 2648 
Q 2700 2681 2553 2681 
Q 2122 2681 1889 2404 
Q 1656 2128 1656 1613 
L 1656 0 
L 538 0 
L 538 3500 
L 1656 3500 
L 1656 2925 
Q 1872 3269 2151 3426 
Q 2431 3584 2822 3584 
Q 2878 3584 2943 3579 
Q 3009 3575 3134 3559 
L 3138 2547 
z
" transform="scale(0.015625)"/>
      <path id="DejaVuSans-Bold-62" d="M 2400 722 
Q 2759 722 2948 984 
Q 3138 1247 3138 1747 
Q 3138 2247 2948 2509 
Q 2759 2772 2400 2772 
Q 2041 2772 1848 2508 
Q 1656 2244 1656 1747 
Q 1656 1250 1848 986 
Q 2041 722 2400 722 
z
M 1656 2988 
Q 1888 3294 2169 3439 
Q 2450 3584 2816 3584 
Q 3463 3584 3878 3070 
Q 4294 2556 4294 1747 
Q 4294 938 3878 423 
Q 3463 -91 2816 -91 
Q 2450 -91 2169 54 
Q 1888 200 1656 506 
L 1656 0 
L 538 0 
L 538 4863 
L 1656 4863 
L 1656 2988 
z
" transform="scale(0.015625)"/>
      <path id="DejaVuSans-Bold-75" d="M 500 1363 
L 500 3500 
L 1625 3500 
L 1625 3150 
Q 1625 2866 1622 2436 
Q 1619 2006 1619 1863 
Q 1619 1441 1641 1255 
Q 1663 1069 1716 984 
Q 1784 875 1895 815 
Q 2006 756 2150 756 
Q 2500 756 2700 1025 
Q 2900 1294 2900 1772 
L 2900 3500 
L 4019 3500 
L 4019 0 
L 2900 0 
L 2900 506 
Q 2647 200 2364 54 
Q 2081 -91 1741 -91 
Q 1134 -91 817 281 
Q 500 653 500 1363 
z
" transform="scale(0.015625)"/>
      <path id="DejaVuSans-Bold-6f" d="M 2203 2784 
Q 1831 2784 1636 2517 
Q 1441 2250 1441 1747 
Q 1441 1244 1636 976 
Q 1831 709 2203 709 
Q 2569 709 2762 976 
Q 2956 1244 2956 1747 
Q 2956 2250 2762 2517 
Q 2569 2784 2203 2784 
z
M 2203 3584 
Q 3106 3584 3614 3096 
Q 4122 2609 4122 1747 
Q 4122 884 3614 396 
Q 3106 -91 2203 -91 
Q 1297 -91 786 396 
Q 275 884 275 1747 
Q 275 2609 786 3096 
Q 1297 3584 2203 3584 
z
" transform="scale(0.015625)"/>
      <path id="DejaVuSans-Bold-66" d="M 2841 4863 
L 2841 4128 
L 2222 4128 
Q 1984 4128 1890 4042 
Q 1797 3956 1797 3744 
L 1797 3500 
L 2753 3500 
L 2753 2700 
L 1797 2700 
L 1797 0 
L 678 0 
L 678 2700 
L 122 2700 
L 122 3500 
L 678 3500 
L 678 3744 
Q 678 4316 997 4589 
Q 1316 4863 1984 4863 
L 2841 4863 
z
" transform="scale(0.015625)"/>
      <path id="DejaVuSans-Bold-50" d="M 588 4666 
L 2584 4666 
Q 3475 4666 3951 4270 
Q 4428 3875 4428 3144 
Q 4428 2409 3951 2014 
Q 3475 1619 2584 1619 
L 1791 1619 
L 1791 0 
L 588 0 
L 588 4666 
z
M 1791 3794 
L 1791 2491 
L 2456 2491 
Q 2806 2491 2997 2661 
Q 3188 2831 3188 3144 
Q 3188 3456 2997 3625 
Q 2806 3794 2456 3794 
L 1791 3794 
z
" transform="scale(0.015625)"/>
      <path id="DejaVuSans-Bold-54" d="M 31 4666 
L 4331 4666 
L 4331 3756 
L 2784 3756 
L 2784 0 
L 1581 0 
L 1581 3756 
L 31 3756 
L 31 4666 
z
" transform="scale(0.015625)"/>
      <path id="DejaVuSans-Bold-45" d="M 588 4666 
L 3834 4666 
L 3834 3756 
L 1791 3756 
L 1791 2888 
L 3713 2888 
L 3713 1978 
L 1791 1978 
L 1791 909 
L 3903 909 
L 3903 0 
L 588 0 
L 588 4666 
z
" transform="scale(0.015625)"/>
      <path id="DejaVuSans-Bold-64" d="M 2919 2988 
L 2919 4863 
L 4044 4863 
L 4044 0 
L 2919 0 
L 2919 506 
Q 2688 197 2409 53 
Q 2131 -91 1766 -91 
Q 1119 -91 703 423 
Q 288 938 288 1747 
Q 288 2556 703 3070 
Q 1119 3584 1766 3584 
Q 2128 3584 2408 3439 
Q 2688 3294 2919 2988 
z
M 2181 722 
Q 2541 722 2730 984 
Q 2919 1247 2919 1747 
Q 2919 2247 2730 2509 
Q 2541 2772 2181 2772 
Q 1825 2772 1636 2509 
Q 1447 2247 1447 1747 
Q 1447 1247 1636 984 
Q 1825 722 2181 722 
z
" transform="scale(0.015625)"/>
      <path id="DejaVuSans-Bold-4d" d="M 588 4666 
L 2119 4666 
L 3181 2169 
L 4250 4666 
L 5778 4666 
L 5778 0 
L 4641 0 
L 4641 3413 
L 3566 897 
L 2803 897 
L 1728 3413 
L 1728 0 
L 588 0 
L 588 4666 
z
" transform="scale(0.015625)"/>
      <path id="DejaVuSans-Bold-61" d="M 2106 1575 
Q 1756 1575 1579 1456 
Q 1403 1338 1403 1106 
Q 1403 894 1545 773 
Q 1688 653 1941 653 
Q 2256 653 2472 879 
Q 2688 1106 2688 1447 
L 2688 1575 
L 2106 1575 
z
M 3816 1997 
L 3816 0 
L 2688 0 
L 2688 519 
Q 2463 200 2181 54 
Q 1900 -91 1497 -91 
Q 953 -91 614 226 
Q 275 544 275 1050 
Q 275 1666 698 1953 
Q 1122 2241 2028 2241 
L 2688 2241 
L 2688 2328 
Q 2688 2594 2478 2717 
Q 2269 2841 1825 2841 
Q 1466 2841 1156 2769 
Q 847 2697 581 2553 
L 581 3406 
Q 941 3494 1303 3539 
Q 1666 3584 2028 3584 
Q 2975 3584 3395 3211 
Q 3816 2838 3816 1997 
z
" transform="scale(0.015625)"/>
      <path id="DejaVuSans-Bold-67" d="M 2919 594 
Q 2688 288 2409 144 
Q 2131 0 1766 0 
Q 1125 0 706 504 
Q 288 1009 288 1791 
Q 288 2575 706 3076 
Q 1125 3578 1766 3578 
Q 2131 3578 2409 3434 
Q 2688 3291 2919 2981 
L 2919 3500 
L 4044 3500 
L 4044 353 
Q 4044 -491 3511 -936 
Q 2978 -1381 1966 -1381 
Q 1638 -1381 1331 -1331 
Q 1025 -1281 716 -1178 
L 716 -306 
Q 1009 -475 1290 -558 
Q 1572 -641 1856 -641 
Q 2406 -641 2662 -400 
Q 2919 -159 2919 353 
L 2919 594 
z
M 2181 2772 
Q 1834 2772 1640 2515 
Q 1447 2259 1447 1791 
Q 1447 1309 1634 1061 
Q 1822 813 2181 813 
Q 2531 813 2725 1069 
Q 2919 1325 2919 1791 
Q 2919 2259 2725 2515 
Q 2531 2772 2181 2772 
z
" transform="scale(0.015625)"/>
     </defs>
     <use xlink:href="#DejaVuSans-Bold-51"/>
     <use xlink:href="#DejaVuSans-Bold-77" transform="translate(85.009766 0)"/>
     <use xlink:href="#DejaVuSans-Bold-65" transform="translate(177.392578 0)"/>
     <use xlink:href="#DejaVuSans-Bold-6e" transform="translate(245.214844 0)"/>
     <use xlink:href="#DejaVuSans-Bold-33" transform="translate(316.40625 0)"/>
     <use xlink:href="#DejaVuSans-Bold-2e" transform="translate(385.986328 0)"/>
     <use xlink:href="#DejaVuSans-Bold-35" transform="translate(423.974609 0)"/>
     <use xlink:href="#DejaVuSans-Bold-2d" transform="translate(493.554688 0)"/>
     <use xlink:href="#DejaVuSans-Bold-32" transform="translate(535.058594 0)"/>
     <use xlink:href="#DejaVuSans-Bold-37" transform="translate(604.638672 0)"/>
     <use xlink:href="#DejaVuSans-Bold-42" transform="translate(674.21875 0)"/>
     <use xlink:href="#DejaVuSans-Bold-20" transform="translate(750.439453 0)"/>
     <use xlink:href="#DejaVuSans-Bold-44" transform="translate(785.253906 0)"/>
     <use xlink:href="#DejaVuSans-Bold-69" transform="translate(868.261719 0)"/>
     <use xlink:href="#DejaVuSans-Bold-73" transform="translate(902.539062 0)"/>
     <use xlink:href="#DejaVuSans-Bold-74" transform="translate(962.060547 0)"/>
     <use xlink:href="#DejaVuSans-Bold-72" transform="translate(1009.863281 0)"/>
     <use xlink:href="#DejaVuSans-Bold-69" transform="translate(1059.179688 0)"/>
     <use xlink:href="#DejaVuSans-Bold-62" transform="translate(1093.457031 0)"/>
     <use xlink:href="#DejaVuSans-Bold-75" transform="translate(1165.039062 0)"/>
     <use xlink:href="#DejaVuSans-Bold-74" transform="translate(1236.230469 0)"/>
     <use xlink:href="#DejaVuSans-Bold-69" transform="translate(1284.033203 0)"/>
     <use xlink:href="#DejaVuSans-Bold-6f" transform="translate(1318.310547 0)"/>
     <use xlink:href="#DejaVuSans-Bold-6e" transform="translate(1387.011719 0)"/>
     <use xlink:href="#DejaVuSans-Bold-20" transform="translate(1458.203125 0)"/>
     <use xlink:href="#DejaVuSans-Bold-6f" transform="translate(1493.017578 0)"/>
     <use xlink:href="#DejaVuSans-Bold-66" transform="translate(1561.71875 0)"/>
     <use xlink:href="#DejaVuSans-Bold-20" transform="translate(1605.224609 0)"/>
     <use xlink:href="#DejaVuSans-Bold-50" transform="translate(1640.039062 0)"/>
     <use xlink:href="#DejaVuSans-Bold-65" transform="translate(1713.330078 0)"/>
     <use xlink:href="#DejaVuSans-Bold-72" transform="translate(1781.152344 0)"/>
     <use xlink:href="#DejaVuSans-Bold-2d" transform="translate(1830.46875 0)"/>
     <use xlink:href="#DejaVuSans-Bold-54" transform="translate(1857.222656 0)"/>
     <use xlink:href="#DejaVuSans-Bold-65" transform="translate(1912.185547 0)"/>
     <use xlink:href="#DejaVuSans-Bold-6e" transform="translate(1980.007812 0)"/>
     <use xlink:href="#DejaVuSans-Bold-73" transform="translate(2051.199219 0)"/>
     <use xlink:href="#DejaVuSans-Bold-6f" transform="translate(2110.720703 0)"/>
     <use xlink:href="#DejaVuSans-Bold-72" transform="translate(2179.421875 0)"/>
     <use xlink:href="#DejaVuSans-Bold-20" transform="translate(2228.738281 0)"/>
     <use xlink:href="#DejaVuSans-Bold-45" transform="translate(2263.552734 0)"/>
     <use xlink:href="#DejaVuSans-Bold-64" transform="translate(2331.863281 0)"/>
     <use xlink:href="#DejaVuSans-Bold-69" transform="translate(2403.445312 0)"/>
     <use xlink:href="#DejaVuSans-Bold-74" transform="translate(2437.722656 0)"/>
     <use xlink:href="#DejaVuSans-Bold-20" transform="translate(2485.525391 0)"/>
     <use xlink:href="#DejaVuSans-Bold-4d" transform="translate(2520.339844 0)"/>
     <use xlink:href="#DejaVuSans-Bold-61" transform="translate(2619.851562 0)"/>
     <use xlink:href="#DejaVuSans-Bold-67" transform="translate(2687.332031 0)"/>
     <use xlink:href="#DejaVuSans-Bold-6e" transform="translate(2758.914062 0)"/>
     <use xlink:href="#DejaVuSans-Bold-69" transform="translate(2830.105469 0)"/>
     <use xlink:href="#DejaVuSans-Bold-74" transform="translate(2864.382812 0)"/>
     <use xlink:href="#DejaVuSans-Bold-75" transform="translate(2912.185547 0)"/>
     <use xlink:href="#DejaVuSans-Bold-64" transform="translate(2983.376953 0)"/>
     <use xlink:href="#DejaVuSans-Bold-65" transform="translate(3054.958984 0)"/>
     <use xlink:href="#DejaVuSans-Bold-73" transform="translate(3122.78125 0)"/>
    </g>
   </g>
  </g>
 </g>
 <defs>
  <clipPath id="pfac664cffa">
   <rect x="40.012375" y="23.837812" width="558" height="332.64"/>
  </clipPath>
 </defs>
</svg>
