<?xml version="1.0" encoding="utf-8" standalone="no"?>
<!DOCTYPE svg PUBLIC "-//W3C//DTD SVG 1.1//EN"
  "http://www.w3.org/Graphics/SVG/1.1/DTD/svg11.dtd">
<svg xmlns:xlink="http://www.w3.org/1999/xlink" width="1136.704531pt" height="703.130094pt" viewBox="0 0 1136.704531 703.130094" xmlns="http://www.w3.org/2000/svg" version="1.1">
 <metadata>
  <rdf:RDF xmlns:dc="http://purl.org/dc/elements/1.1/" xmlns:cc="http://creativecommons.org/ns#" xmlns:rdf="http://www.w3.org/1999/02/22-rdf-syntax-ns#">
   <cc:Work>
    <dc:type rdf:resource="http://purl.org/dc/dcmitype/StillImage"/>
    <dc:date>2026-04-24T22:09:22.439892</dc:date>
    <dc:format>image/svg+xml</dc:format>
    <dc:creator>
     <cc:Agent>
      <dc:title>Matplotlib v3.10.8, https://matplotlib.org/</dc:title>
     </cc:Agent>
    </dc:creator>
   </cc:Work>
  </rdf:RDF>
 </metadata>
 <defs>
  <style type="text/css">*{stroke-linejoin: round; stroke-linecap: butt}</style>
 </defs>
 <g id="figure_1">
  <g id="patch_1">
   <path d="M 0 703.130094 
L 1136.704531 703.130094 
L 1136.704531 0 
L 0 0 
z
" style="fill: #ffffff"/>
  </g>
  <g id="axes_1">
   <g id="patch_2">
    <path d="M 51.556531 325.943812 
L 1129.504531 325.943812 
L 1129.504531 23.837812 
L 51.556531 23.837812 
z
" style="fill: #ffffff"/>
   </g>
   <g id="matplotlib.axis_1">
    <g id="xtick_1">
     <g id="line2d_1">
      <path d="M 100.554168 325.943812 
L 100.554168 23.837812 
" clip-path="url(#p6e0578e056)" style="fill: none; stroke: #cccccc; stroke-linecap: round"/>
     </g>
    </g>
    <g id="xtick_2">
     <g id="line2d_2">
      <path d="M 162.773388 325.943812 
L 162.773388 23.837812 
" clip-path="url(#p6e0578e056)" style="fill: none; stroke: #cccccc; stroke-linecap: round"/>
     </g>
    </g>
    <g id="xtick_3">
     <g id="line2d_3">
      <path d="M 224.992609 325.943812 
L 224.992609 23.837812 
" clip-path="url(#p6e0578e056)" style="fill: none; stroke: #cccccc; stroke-linecap: round"/>
     </g>
    </g>
    <g id="xtick_4">
     <g id="line2d_4">
      <path d="M 287.21183 325.943812 
L 287.21183 23.837812 
" clip-path="url(#p6e0578e056)" style="fill: none; stroke: #cccccc; stroke-linecap: round"/>
     </g>
    </g>
    <g id="xtick_5">
     <g id="line2d_5">
      <path d="M 349.431051 325.943812 
L 349.431051 23.837812 
" clip-path="url(#p6e0578e056)" style="fill: none; stroke: #cccccc; stroke-linecap: round"/>
     </g>
    </g>
    <g id="xtick_6">
     <g id="line2d_6">
      <path d="M 411.650272 325.943812 
L 411.650272 23.837812 
" clip-path="url(#p6e0578e056)" style="fill: none; stroke: #cccccc; stroke-linecap: round"/>
     </g>
    </g>
    <g id="xtick_7">
     <g id="line2d_7">
      <path d="M 473.869492 325.943812 
L 473.869492 23.837812 
" clip-path="url(#p6e0578e056)" style="fill: none; stroke: #cccccc; stroke-linecap: round"/>
     </g>
    </g>
    <g id="xtick_8">
     <g id="line2d_8">
      <path d="M 536.088713 325.943812 
L 536.088713 23.837812 
" clip-path="url(#p6e0578e056)" style="fill: none; stroke: #cccccc; stroke-linecap: round"/>
     </g>
    </g>
    <g id="xtick_9">
     <g id="line2d_9">
      <path d="M 598.307934 325.943812 
L 598.307934 23.837812 
" clip-path="url(#p6e0578e056)" style="fill: none; stroke: #cccccc; stroke-linecap: round"/>
     </g>
    </g>
    <g id="xtick_10">
     <g id="line2d_10">
      <path d="M 660.527155 325.943812 
L 660.527155 23.837812 
" clip-path="url(#p6e0578e056)" style="fill: none; stroke: #cccccc; stroke-linecap: round"/>
     </g>
    </g>
    <g id="xtick_11">
     <g id="line2d_11">
      <path d="M 722.746375 325.943812 
L 722.746375 23.837812 
" clip-path="url(#p6e0578e056)" style="fill: none; stroke: #cccccc; stroke-linecap: round"/>
     </g>
    </g>
    <g id="xtick_12">
     <g id="line2d_12">
      <path d="M 784.965596 325.943812 
L 784.965596 23.837812 
" clip-path="url(#p6e0578e056)" style="fill: none; stroke: #cccccc; stroke-linecap: round"/>
     </g>
    </g>
    <g id="xtick_13">
     <g id="line2d_13">
      <path d="M 847.184817 325.943812 
L 847.184817 23.837812 
" clip-path="url(#p6e0578e056)" style="fill: none; stroke: #cccccc; stroke-linecap: round"/>
     </g>
    </g>
    <g id="xtick_14">
     <g id="line2d_14">
      <path d="M 909.404038 325.943812 
L 909.404038 23.837812 
" clip-path="url(#p6e0578e056)" style="fill: none; stroke: #cccccc; stroke-linecap: round"/>
     </g>
    </g>
    <g id="xtick_15">
     <g id="line2d_15">
      <path d="M 971.623259 325.943812 
L 971.623259 23.837812 
" clip-path="url(#p6e0578e056)" style="fill: none; stroke: #cccccc; stroke-linecap: round"/>
     </g>
    </g>
    <g id="xtick_16">
     <g id="line2d_16">
      <path d="M 1033.842479 325.943812 
L 1033.842479 23.837812 
" clip-path="url(#p6e0578e056)" style="fill: none; stroke: #cccccc; stroke-linecap: round"/>
     </g>
    </g>
   </g>
   <g id="matplotlib.axis_2">
    <g id="ytick_1">
     <g id="line2d_17">
      <path d="M 51.556531 312.211722 
L 1129.504531 312.211722 
" clip-path="url(#p6e0578e056)" style="fill: none; stroke: #cccccc; stroke-linecap: round"/>
     </g>
     <g id="text_1">
      <!-- 0.0 -->
      <g style="fill: #262626" transform="translate(22.81375 316.808776) scale(0.121 -0.121)">
       <defs>
        <path id="DejaVuSans-30" d="M 2034 4250 
Q 1547 4250 1301 3770 
Q 1056 3291 1056 2328 
Q 1056 1369 1301 889 
Q 1547 409 2034 409 
Q 2525 409 2770 889 
Q 3016 1369 3016 2328 
Q 3016 3291 2770 3770 
Q 2525 4250 2034 4250 
z
M 2034 4750 
Q 2819 4750 3233 4129 
Q 3647 3509 3647 2328 
Q 3647 1150 3233 529 
Q 2819 -91 2034 -91 
Q 1250 -91 836 529 
Q 422 1150 422 2328 
Q 422 3509 836 4129 
Q 1250 4750 2034 4750 
z
" transform="scale(0.015625)"/>
        <path id="DejaVuSans-2e" d="M 684 794 
L 1344 794 
L 1344 0 
L 684 0 
L 684 794 
z
" transform="scale(0.015625)"/>
       </defs>
       <use xlink:href="#DejaVuSans-30"/>
       <use xlink:href="#DejaVuSans-2e" transform="translate(63.623047 0)"/>
       <use xlink:href="#DejaVuSans-30" transform="translate(95.410156 0)"/>
      </g>
     </g>
    </g>
    <g id="ytick_2">
     <g id="line2d_18">
      <path d="M 51.556531 262.60061 
L 1129.504531 262.60061 
" clip-path="url(#p6e0578e056)" style="fill: none; stroke: #cccccc; stroke-linecap: round"/>
     </g>
     <g id="text_2">
      <!-- 0.2 -->
      <g style="fill: #262626" transform="translate(22.81375 267.197665) scale(0.121 -0.121)">
       <defs>
        <path id="DejaVuSans-32" d="M 1228 531 
L 3431 531 
L 3431 0 
L 469 0 
L 469 531 
Q 828 903 1448 1529 
Q 2069 2156 2228 2338 
Q 2531 2678 2651 2914 
Q 2772 3150 2772 3378 
Q 2772 3750 2511 3984 
Q 2250 4219 1831 4219 
Q 1534 4219 1204 4116 
Q 875 4013 500 3803 
L 500 4441 
Q 881 4594 1212 4672 
Q 1544 4750 1819 4750 
Q 2544 4750 2975 4387 
Q 3406 4025 3406 3419 
Q 3406 3131 3298 2873 
Q 3191 2616 2906 2266 
Q 2828 2175 2409 1742 
Q 1991 1309 1228 531 
z
" transform="scale(0.015625)"/>
       </defs>
       <use xlink:href="#DejaVuSans-30"/>
       <use xlink:href="#DejaVuSans-2e" transform="translate(63.623047 0)"/>
       <use xlink:href="#DejaVuSans-32" transform="translate(95.410156 0)"/>
      </g>
     </g>
    </g>
    <g id="ytick_3">
     <g id="line2d_19">
      <path d="M 51.556531 212.989499 
L 1129.504531 212.989499 
" clip-path="url(#p6e0578e056)" style="fill: none; stroke: #cccccc; stroke-linecap: round"/>
     </g>
     <g id="text_3">
      <!-- 0.4 -->
      <g style="fill: #262626" transform="translate(22.81375 217.586553) scale(0.121 -0.121)">
       <defs>
        <path id="DejaVuSans-34" d="M 2419 4116 
L 825 1625 
L 2419 1625 
L 2419 4116 
z
M 2253 4666 
L 3047 4666 
L 3047 1625 
L 3713 1625 
L 3713 1100 
L 3047 1100 
L 3047 0 
L 2419 0 
L 2419 1100 
L 313 1100 
L 313 1709 
L 2253 4666 
z
" transform="scale(0.015625)"/>
       </defs>
       <use xlink:href="#DejaVuSans-30"/>
       <use xlink:href="#DejaVuSans-2e" transform="translate(63.623047 0)"/>
       <use xlink:href="#DejaVuSans-34" transform="translate(95.410156 0)"/>
      </g>
     </g>
    </g>
    <g id="ytick_4">
     <g id="line2d_20">
      <path d="M 51.556531 163.378387 
L 1129.504531 163.378387 
" clip-path="url(#p6e0578e056)" style="fill: none; stroke: #cccccc; stroke-linecap: round"/>
     </g>
     <g id="text_4">
      <!-- 0.6 -->
      <g style="fill: #262626" transform="translate(22.81375 167.975442) scale(0.121 -0.121)">
       <defs>
        <path id="DejaVuSans-36" d="M 2113 2584 
Q 1688 2584 1439 2293 
Q 1191 2003 1191 1497 
Q 1191 994 1439 701 
Q 1688 409 2113 409 
Q 2538 409 2786 701 
Q 3034 994 3034 1497 
Q 3034 2003 2786 2293 
Q 2538 2584 2113 2584 
z
M 3366 4563 
L 3366 3988 
Q 3128 4100 2886 4159 
Q 2644 4219 2406 4219 
Q 1781 4219 1451 3797 
Q 1122 3375 1075 2522 
Q 1259 2794 1537 2939 
Q 1816 3084 2150 3084 
Q 2853 3084 3261 2657 
Q 3669 2231 3669 1497 
Q 3669 778 3244 343 
Q 2819 -91 2113 -91 
Q 1303 -91 875 529 
Q 447 1150 447 2328 
Q 447 3434 972 4092 
Q 1497 4750 2381 4750 
Q 2619 4750 2861 4703 
Q 3103 4656 3366 4563 
z
" transform="scale(0.015625)"/>
       </defs>
       <use xlink:href="#DejaVuSans-30"/>
       <use xlink:href="#DejaVuSans-2e" transform="translate(63.623047 0)"/>
       <use xlink:href="#DejaVuSans-36" transform="translate(95.410156 0)"/>
      </g>
     </g>
    </g>
    <g id="ytick_5">
     <g id="line2d_21">
      <path d="M 51.556531 113.767276 
L 1129.504531 113.767276 
" clip-path="url(#p6e0578e056)" style="fill: none; stroke: #cccccc; stroke-linecap: round"/>
     </g>
     <g id="text_5">
      <!-- 0.8 -->
      <g style="fill: #262626" transform="translate(22.81375 118.364331) scale(0.121 -0.121)">
       <defs>
        <path id="DejaVuSans-38" d="M 2034 2216 
Q 1584 2216 1326 1975 
Q 1069 1734 1069 1313 
Q 1069 891 1326 650 
Q 1584 409 2034 409 
Q 2484 409 2743 651 
Q 3003 894 3003 1313 
Q 3003 1734 2745 1975 
Q 2488 2216 2034 2216 
z
M 1403 2484 
Q 997 2584 770 2862 
Q 544 3141 544 3541 
Q 544 4100 942 4425 
Q 1341 4750 2034 4750 
Q 2731 4750 3128 4425 
Q 3525 4100 3525 3541 
Q 3525 3141 3298 2862 
Q 3072 2584 2669 2484 
Q 3125 2378 3379 2068 
Q 3634 1759 3634 1313 
Q 3634 634 3220 271 
Q 2806 -91 2034 -91 
Q 1263 -91 848 271 
Q 434 634 434 1313 
Q 434 1759 690 2068 
Q 947 2378 1403 2484 
z
M 1172 3481 
Q 1172 3119 1398 2916 
Q 1625 2713 2034 2713 
Q 2441 2713 2670 2916 
Q 2900 3119 2900 3481 
Q 2900 3844 2670 4047 
Q 2441 4250 2034 4250 
Q 1625 4250 1398 4047 
Q 1172 3844 1172 3481 
z
" transform="scale(0.015625)"/>
       </defs>
       <use xlink:href="#DejaVuSans-30"/>
       <use xlink:href="#DejaVuSans-2e" transform="translate(63.623047 0)"/>
       <use xlink:href="#DejaVuSans-38" transform="translate(95.410156 0)"/>
      </g>
     </g>
    </g>
    <g id="ytick_6">
     <g id="line2d_22">
      <path d="M 51.556531 64.156165 
L 1129.504531 64.156165 
" clip-path="url(#p6e0578e056)" style="fill: none; stroke: #cccccc; stroke-linecap: round"/>
     </g>
     <g id="text_6">
      <!-- 1.0 -->
      <g style="fill: #262626" transform="translate(22.81375 68.753219) scale(0.121 -0.121)">
       <defs>
        <path id="DejaVuSans-31" d="M 794 531 
L 1825 531 
L 1825 4091 
L 703 3866 
L 703 4441 
L 1819 4666 
L 2450 4666 
L 2450 531 
L 3481 531 
L 3481 0 
L 794 0 
L 794 531 
z
" transform="scale(0.015625)"/>
       </defs>
       <use xlink:href="#DejaVuSans-31"/>
       <use xlink:href="#DejaVuSans-2e" transform="translate(63.623047 0)"/>
       <use xlink:href="#DejaVuSans-30" transform="translate(95.410156 0)"/>
      </g>
     </g>
    </g>
    <g id="text_7">
     <!-- Mean Edit Norm -->
     <g style="fill: #262626" transform="translate(16.318125 223.038) rotate(-90) scale(0.12 -0.12)">
      <defs>
       <path id="DejaVuSans-4d" d="M 628 4666 
L 1569 4666 
L 2759 1491 
L 3956 4666 
L 4897 4666 
L 4897 0 
L 4281 0 
L 4281 4097 
L 3078 897 
L 2444 897 
L 1241 4097 
L 1241 0 
L 628 0 
L 628 4666 
z
" transform="scale(0.015625)"/>
       <path id="DejaVuSans-65" d="M 3597 1894 
L 3597 1613 
L 953 1613 
Q 991 1019 1311 708 
Q 1631 397 2203 397 
Q 2534 397 2845 478 
Q 3156 559 3463 722 
L 3463 178 
Q 3153 47 2828 -22 
Q 2503 -91 2169 -91 
Q 1331 -91 842 396 
Q 353 884 353 1716 
Q 353 2575 817 3079 
Q 1281 3584 2069 3584 
Q 2775 3584 3186 3129 
Q 3597 2675 3597 1894 
z
M 3022 2063 
Q 3016 2534 2758 2815 
Q 2500 3097 2075 3097 
Q 1594 3097 1305 2825 
Q 1016 2553 972 2059 
L 3022 2063 
z
" transform="scale(0.015625)"/>
       <path id="DejaVuSans-61" d="M 2194 1759 
Q 1497 1759 1228 1600 
Q 959 1441 959 1056 
Q 959 750 1161 570 
Q 1363 391 1709 391 
Q 2188 391 2477 730 
Q 2766 1069 2766 1631 
L 2766 1759 
L 2194 1759 
z
M 3341 1997 
L 3341 0 
L 2766 0 
L 2766 531 
Q 2569 213 2275 61 
Q 1981 -91 1556 -91 
Q 1019 -91 701 211 
Q 384 513 384 1019 
Q 384 1609 779 1909 
Q 1175 2209 1959 2209 
L 2766 2209 
L 2766 2266 
Q 2766 2663 2505 2880 
Q 2244 3097 1772 3097 
Q 1472 3097 1187 3025 
Q 903 2953 641 2809 
L 641 3341 
Q 956 3463 1253 3523 
Q 1550 3584 1831 3584 
Q 2591 3584 2966 3190 
Q 3341 2797 3341 1997 
z
" transform="scale(0.015625)"/>
       <path id="DejaVuSans-6e" d="M 3513 2113 
L 3513 0 
L 2938 0 
L 2938 2094 
Q 2938 2591 2744 2837 
Q 2550 3084 2163 3084 
Q 1697 3084 1428 2787 
Q 1159 2491 1159 1978 
L 1159 0 
L 581 0 
L 581 3500 
L 1159 3500 
L 1159 2956 
Q 1366 3272 1645 3428 
Q 1925 3584 2291 3584 
Q 2894 3584 3203 3211 
Q 3513 2838 3513 2113 
z
" transform="scale(0.015625)"/>
       <path id="DejaVuSans-20" transform="scale(0.015625)"/>
       <path id="DejaVuSans-45" d="M 628 4666 
L 3578 4666 
L 3578 4134 
L 1259 4134 
L 1259 2753 
L 3481 2753 
L 3481 2222 
L 1259 2222 
L 1259 531 
L 3634 531 
L 3634 0 
L 628 0 
L 628 4666 
z
" transform="scale(0.015625)"/>
       <path id="DejaVuSans-64" d="M 2906 2969 
L 2906 4863 
L 3481 4863 
L 3481 0 
L 2906 0 
L 2906 525 
Q 2725 213 2448 61 
Q 2172 -91 1784 -91 
Q 1150 -91 751 415 
Q 353 922 353 1747 
Q 353 2572 751 3078 
Q 1150 3584 1784 3584 
Q 2172 3584 2448 3432 
Q 2725 3281 2906 2969 
z
M 947 1747 
Q 947 1113 1208 752 
Q 1469 391 1925 391 
Q 2381 391 2643 752 
Q 2906 1113 2906 1747 
Q 2906 2381 2643 2742 
Q 2381 3103 1925 3103 
Q 1469 3103 1208 2742 
Q 947 2381 947 1747 
z
" transform="scale(0.015625)"/>
       <path id="DejaVuSans-69" d="M 603 3500 
L 1178 3500 
L 1178 0 
L 603 0 
L 603 3500 
z
M 603 4863 
L 1178 4863 
L 1178 4134 
L 603 4134 
L 603 4863 
z
" transform="scale(0.015625)"/>
       <path id="DejaVuSans-74" d="M 1172 4494 
L 1172 3500 
L 2356 3500 
L 2356 3053 
L 1172 3053 
L 1172 1153 
Q 1172 725 1289 603 
Q 1406 481 1766 481 
L 2356 481 
L 2356 0 
L 1766 0 
Q 1100 0 847 248 
Q 594 497 594 1153 
L 594 3053 
L 172 3053 
L 172 3500 
L 594 3500 
L 594 4494 
L 1172 4494 
z
" transform="scale(0.015625)"/>
       <path id="DejaVuSans-4e" d="M 628 4666 
L 1478 4666 
L 3547 763 
L 3547 4666 
L 4159 4666 
L 4159 0 
L 3309 0 
L 1241 3903 
L 1241 0 
L 628 0 
L 628 4666 
z
" transform="scale(0.015625)"/>
       <path id="DejaVuSans-6f" d="M 1959 3097 
Q 1497 3097 1228 2736 
Q 959 2375 959 1747 
Q 959 1119 1226 758 
Q 1494 397 1959 397 
Q 2419 397 2687 759 
Q 2956 1122 2956 1747 
Q 2956 2369 2687 2733 
Q 2419 3097 1959 3097 
z
M 1959 3584 
Q 2709 3584 3137 3096 
Q 3566 2609 3566 1747 
Q 3566 888 3137 398 
Q 2709 -91 1959 -91 
Q 1206 -91 779 398 
Q 353 888 353 1747 
Q 353 2609 779 3096 
Q 1206 3584 1959 3584 
z
" transform="scale(0.015625)"/>
       <path id="DejaVuSans-72" d="M 2631 2963 
Q 2534 3019 2420 3045 
Q 2306 3072 2169 3072 
Q 1681 3072 1420 2755 
Q 1159 2438 1159 1844 
L 1159 0 
L 581 0 
L 581 3500 
L 1159 3500 
L 1159 2956 
Q 1341 3275 1631 3429 
Q 1922 3584 2338 3584 
Q 2397 3584 2469 3576 
Q 2541 3569 2628 3553 
L 2631 2963 
z
" transform="scale(0.015625)"/>
       <path id="DejaVuSans-6d" d="M 3328 2828 
Q 3544 3216 3844 3400 
Q 4144 3584 4550 3584 
Q 5097 3584 5394 3201 
Q 5691 2819 5691 2113 
L 5691 0 
L 5113 0 
L 5113 2094 
Q 5113 2597 4934 2840 
Q 4756 3084 4391 3084 
Q 3944 3084 3684 2787 
Q 3425 2491 3425 1978 
L 3425 0 
L 2847 0 
L 2847 2094 
Q 2847 2600 2669 2842 
Q 2491 3084 2119 3084 
Q 1678 3084 1418 2786 
Q 1159 2488 1159 1978 
L 1159 0 
L 581 0 
L 581 3500 
L 1159 3500 
L 1159 2956 
Q 1356 3278 1631 3431 
Q 1906 3584 2284 3584 
Q 2666 3584 2933 3390 
Q 3200 3197 3328 2828 
z
" transform="scale(0.015625)"/>
      </defs>
      <use xlink:href="#DejaVuSans-4d"/>
      <use xlink:href="#DejaVuSans-65" transform="translate(86.279297 0)"/>
      <use xlink:href="#DejaVuSans-61" transform="translate(147.802734 0)"/>
      <use xlink:href="#DejaVuSans-6e" transform="translate(209.082031 0)"/>
      <use xlink:href="#DejaVuSans-20" transform="translate(272.460938 0)"/>
      <use xlink:href="#DejaVuSans-45" transform="translate(304.248047 0)"/>
      <use xlink:href="#DejaVuSans-64" transform="translate(367.431641 0)"/>
      <use xlink:href="#DejaVuSans-69" transform="translate(430.908203 0)"/>
      <use xlink:href="#DejaVuSans-74" transform="translate(458.691406 0)"/>
      <use xlink:href="#DejaVuSans-20" transform="translate(497.900391 0)"/>
      <use xlink:href="#DejaVuSans-4e" transform="translate(529.6875 0)"/>
      <use xlink:href="#DejaVuSans-6f" transform="translate(604.492188 0)"/>
      <use xlink:href="#DejaVuSans-72" transform="translate(665.673828 0)"/>
      <use xlink:href="#DejaVuSans-6d" transform="translate(705.037109 0)"/>
     </g>
    </g>
   </g>
   <g id="line2d_23">
    <path d="M 100.554168 311.972707 
L 116.108973 311.991278 
L 131.663778 311.979517 
L 147.218583 312.211722 
L 162.773388 311.910256 
L 178.328194 311.957401 
L 193.882999 311.97515 
L 209.437804 312.211722 
L 224.992609 311.984195 
L 240.547414 311.967853 
L 256.10222 311.975305 
L 271.657025 312.211722 
L 287.21183 311.973097 
L 302.766635 311.970015 
L 318.32144 293.95707 
L 333.876246 287.454451 
L 349.431051 291.758815 
L 364.985856 291.128839 
L 380.540661 290.204235 
L 396.095466 283.58539 
L 411.650272 289.159451 
L 427.205077 288.83819 
L 442.759882 288.328866 
L 458.314687 280.210172 
L 473.869492 285.370621 
L 489.424297 251.409417 
L 504.979103 249.851994 
L 520.533908 231.390155 
L 536.088713 248.6222 
L 551.643518 249.229414 
L 567.198323 250.211005 
L 582.753129 227.768935 
L 598.307934 244.511669 
L 613.862739 240.300496 
L 629.417544 243.626951 
L 644.972349 216.242432 
L 660.527155 244.495885 
L 676.08196 246.668984 
L 691.636765 248.237715 
L 707.19157 225.761217 
L 722.746375 246.62834 
L 738.301181 243.559089 
L 753.855986 242.305026 
L 769.410791 218.864477 
L 784.965596 244.194625 
L 800.520401 244.009445 
L 816.075207 246.217649 
L 831.630012 224.477861 
L 847.184817 247.280329 
L 862.739622 245.556546 
L 878.294427 248.731757 
L 893.849233 229.891886 
L 909.404038 251.733713 
L 924.958843 252.598508 
L 940.513648 252.065056 
L 956.068453 231.788642 
L 971.623259 254.686312 
L 987.178064 253.380632 
L 1002.732869 254.332187 
L 1018.287674 232.5885 
L 1033.842479 256.148685 
L 1049.397284 255.615946 
L 1064.95209 255.199525 
L 1080.506895 238.877329 
" clip-path="url(#p6e0578e056)" style="fill: none; stroke: #3498db; stroke-opacity: 0.8; stroke-width: 1.5; stroke-linecap: round"/>
   </g>
   <g id="line2d_24">
    <path d="M 100.554168 311.972707 
L 116.108973 311.991275 
L 131.663778 311.979515 
L 147.218583 312.211722 
L 162.773388 311.910254 
L 178.328194 311.957399 
L 193.882999 311.975147 
L 209.437804 312.211721 
L 224.992609 311.984192 
L 240.547414 311.96785 
L 256.10222 311.975302 
L 271.657025 302.145792 
L 287.21183 311.973095 
L 302.766635 264.284973 
L 318.32144 262.58388 
L 333.876246 232.470098 
L 349.431051 259.373167 
L 364.985856 256.485207 
L 380.540661 254.419876 
L 396.095466 216.195473 
L 411.650272 250.882431 
L 427.205077 249.491073 
L 442.759882 246.016098 
L 458.314687 198.61144 
L 473.869492 236.604602 
L 489.424297 231.940038 
L 504.979103 223.880316 
L 520.533908 177.120536 
L 536.088713 225.237976 
L 551.643518 229.112942 
L 567.198323 224.9194 
L 582.753129 174.453987 
L 598.307934 224.562676 
L 613.862739 223.649963 
L 629.417544 221.803643 
L 644.972349 110.380591 
L 660.527155 185.060445 
L 676.08196 184.194544 
L 691.636765 173.637801 
L 707.19157 103.291311 
L 722.746375 160.074611 
L 738.301181 148.038296 
L 753.855986 138.486199 
L 769.410791 73.931217 
L 784.965596 123.092888 
L 800.520401 123.970069 
L 816.075207 128.952879 
L 831.630012 60.321096 
L 847.184817 132.528409 
L 862.739622 130.946335 
L 878.294427 133.499395 
L 893.849233 47.8605 
L 909.404038 137.203675 
L 924.958843 136.877944 
L 940.513648 135.230814 
L 956.068453 42.795104 
L 971.623259 127.124549 
L 987.178064 123.319794 
L 1002.732869 122.172239 
L 1018.287674 37.569903 
L 1033.842479 127.339046 
L 1049.397284 131.415383 
L 1064.95209 137.269207 
L 1080.506895 66.388599 
" clip-path="url(#p6e0578e056)" style="fill: none; stroke: #e74c3c; stroke-opacity: 0.8; stroke-width: 1.5; stroke-linecap: round"/>
   </g>
   <g id="line2d_25">
    <path d="M 100.554168 245.521173 
L 116.108973 254.271829 
L 131.663778 259.204888 
L 147.218583 234.18108 
L 162.773388 260.045004 
L 178.328194 260.879898 
L 193.882999 260.302316 
L 209.437804 241.901345 
L 224.992609 257.058835 
L 240.547414 255.115185 
L 256.10222 254.047864 
L 271.657025 234.17108 
L 287.21183 254.732236 
L 302.766635 257.379284 
L 318.32144 257.436076 
L 333.876246 240.473704 
L 349.431051 257.8041 
L 364.985856 257.079827 
L 380.540661 256.697911 
L 396.095466 241.769727 
L 411.650272 259.537104 
L 427.205077 260.306572 
L 442.759882 260.212168 
L 458.314687 240.578156 
L 473.869492 255.35584 
L 489.424297 253.944511 
L 504.979103 250.890182 
L 520.533908 239.938913 
L 536.088713 256.953677 
L 551.643518 259.177992 
L 567.198323 258.309345 
L 582.753129 245.527891 
L 598.307934 260.906585 
L 613.862739 261.166861 
L 629.417544 262.077551 
L 644.972349 244.692456 
L 660.527155 263.445407 
L 676.08196 264.869431 
L 691.636765 265.155021 
L 707.19157 249.363822 
L 722.746375 263.951974 
L 738.301181 262.000771 
L 753.855986 261.213145 
L 769.410791 245.899111 
L 784.965596 263.942044 
L 800.520401 264.290645 
L 816.075207 265.19936 
L 831.630012 251.418584 
L 847.184817 266.34301 
L 862.739622 264.47774 
L 878.294427 265.87014 
L 893.849233 247.878823 
L 909.404038 265.015315 
L 924.958843 265.697382 
L 940.513648 264.673665 
L 956.068453 247.714376 
L 971.623259 264.559876 
L 987.178064 264.497396 
L 1002.732869 264.107859 
L 1018.287674 244.236118 
L 1033.842479 263.412451 
L 1049.397284 263.209405 
L 1064.95209 262.693378 
L 1080.506895 247.462161 
" clip-path="url(#p6e0578e056)" style="fill: none; stroke: #2ecc71; stroke-opacity: 0.8; stroke-width: 1.5; stroke-linecap: round"/>
   </g>
   <g id="patch_3">
    <path d="M 51.556531 325.943812 
L 51.556531 23.837812 
" style="fill: none; stroke: #cccccc; stroke-width: 1.25; stroke-linejoin: miter; stroke-linecap: square"/>
   </g>
   <g id="patch_4">
    <path d="M 1129.504531 325.943812 
L 1129.504531 23.837812 
" style="fill: none; stroke: #cccccc; stroke-width: 1.25; stroke-linejoin: miter; stroke-linecap: square"/>
   </g>
   <g id="patch_5">
    <path d="M 51.556531 325.943812 
L 1129.504531 325.943812 
" style="fill: none; stroke: #cccccc; stroke-width: 1.25; stroke-linejoin: miter; stroke-linecap: square"/>
   </g>
   <g id="patch_6">
    <path d="M 51.556531 23.837812 
L 1129.504531 23.837812 
" style="fill: none; stroke: #cccccc; stroke-width: 1.25; stroke-linejoin: miter; stroke-linecap: square"/>
   </g>
   <g id="text_8">
    <!-- Qwen3.5-27B Layer-wise Edit Magnitude -->
    <g style="fill: #262626" transform="translate(430.566312 17.837812) scale(0.14 -0.14)">
     <defs>
      <path id="DejaVuSans-Bold-51" d="M 2847 -84 
L 2753 -84 
Q 1600 -84 959 553 
Q 319 1191 319 2328 
Q 319 3463 958 4106 
Q 1597 4750 2719 4750 
Q 3853 4750 4486 4112 
Q 5119 3475 5119 2328 
Q 5119 1541 4783 972 
Q 4447 403 3816 116 
L 4756 -934 
L 3609 -934 
L 2847 -84 
z
M 2719 3878 
Q 2169 3878 1866 3472 
Q 1563 3066 1563 2328 
Q 1563 1578 1859 1179 
Q 2156 781 2719 781 
Q 3272 781 3575 1187 
Q 3878 1594 3878 2328 
Q 3878 3066 3575 3472 
Q 3272 3878 2719 3878 
z
" transform="scale(0.015625)"/>
      <path id="DejaVuSans-Bold-77" d="M 225 3500 
L 1313 3500 
L 1900 1088 
L 2491 3500 
L 3425 3500 
L 4013 1113 
L 4603 3500 
L 5691 3500 
L 4769 0 
L 3547 0 
L 2956 2406 
L 2369 0 
L 1147 0 
L 225 3500 
z
" transform="scale(0.015625)"/>
      <path id="DejaVuSans-Bold-65" d="M 4031 1759 
L 4031 1441 
L 1416 1441 
Q 1456 1047 1700 850 
Q 1944 653 2381 653 
Q 2734 653 3104 758 
Q 3475 863 3866 1075 
L 3866 213 
Q 3469 63 3072 -14 
Q 2675 -91 2278 -91 
Q 1328 -91 801 392 
Q 275 875 275 1747 
Q 275 2603 792 3093 
Q 1309 3584 2216 3584 
Q 3041 3584 3536 3087 
Q 4031 2591 4031 1759 
z
M 2881 2131 
Q 2881 2450 2695 2645 
Q 2509 2841 2209 2841 
Q 1884 2841 1681 2658 
Q 1478 2475 1428 2131 
L 2881 2131 
z
" transform="scale(0.015625)"/>
      <path id="DejaVuSans-Bold-6e" d="M 4056 2131 
L 4056 0 
L 2931 0 
L 2931 347 
L 2931 1631 
Q 2931 2084 2911 2256 
Q 2891 2428 2841 2509 
Q 2775 2619 2662 2680 
Q 2550 2741 2406 2741 
Q 2056 2741 1856 2470 
Q 1656 2200 1656 1722 
L 1656 0 
L 538 0 
L 538 3500 
L 1656 3500 
L 1656 2988 
Q 1909 3294 2193 3439 
Q 2478 3584 2822 3584 
Q 3428 3584 3742 3212 
Q 4056 2841 4056 2131 
z
" transform="scale(0.015625)"/>
      <path id="DejaVuSans-Bold-33" d="M 2981 2516 
Q 3453 2394 3698 2092 
Q 3944 1791 3944 1325 
Q 3944 631 3412 270 
Q 2881 -91 1863 -91 
Q 1503 -91 1142 -33 
Q 781 25 428 141 
L 428 1069 
Q 766 900 1098 814 
Q 1431 728 1753 728 
Q 2231 728 2486 893 
Q 2741 1059 2741 1369 
Q 2741 1688 2480 1852 
Q 2219 2016 1709 2016 
L 1228 2016 
L 1228 2791 
L 1734 2791 
Q 2188 2791 2409 2933 
Q 2631 3075 2631 3366 
Q 2631 3634 2415 3781 
Q 2200 3928 1806 3928 
Q 1516 3928 1219 3862 
Q 922 3797 628 3669 
L 628 4550 
Q 984 4650 1334 4700 
Q 1684 4750 2022 4750 
Q 2931 4750 3382 4451 
Q 3834 4153 3834 3553 
Q 3834 3144 3618 2883 
Q 3403 2622 2981 2516 
z
" transform="scale(0.015625)"/>
      <path id="DejaVuSans-Bold-2e" d="M 653 1209 
L 1778 1209 
L 1778 0 
L 653 0 
L 653 1209 
z
" transform="scale(0.015625)"/>
      <path id="DejaVuSans-Bold-35" d="M 678 4666 
L 3669 4666 
L 3669 3781 
L 1638 3781 
L 1638 3059 
Q 1775 3097 1914 3117 
Q 2053 3138 2203 3138 
Q 3056 3138 3531 2711 
Q 4006 2284 4006 1522 
Q 4006 766 3489 337 
Q 2972 -91 2053 -91 
Q 1656 -91 1267 -14 
Q 878 63 494 219 
L 494 1166 
Q 875 947 1217 837 
Q 1559 728 1863 728 
Q 2300 728 2551 942 
Q 2803 1156 2803 1522 
Q 2803 1891 2551 2103 
Q 2300 2316 1863 2316 
Q 1603 2316 1309 2248 
Q 1016 2181 678 2041 
L 678 4666 
z
" transform="scale(0.015625)"/>
      <path id="DejaVuSans-Bold-2d" d="M 347 2297 
L 2309 2297 
L 2309 1388 
L 347 1388 
L 347 2297 
z
" transform="scale(0.015625)"/>
      <path id="DejaVuSans-Bold-32" d="M 1844 884 
L 3897 884 
L 3897 0 
L 506 0 
L 506 884 
L 2209 2388 
Q 2438 2594 2547 2791 
Q 2656 2988 2656 3200 
Q 2656 3528 2436 3728 
Q 2216 3928 1850 3928 
Q 1569 3928 1234 3808 
Q 900 3688 519 3450 
L 519 4475 
Q 925 4609 1322 4679 
Q 1719 4750 2100 4750 
Q 2938 4750 3402 4381 
Q 3866 4013 3866 3353 
Q 3866 2972 3669 2642 
Q 3472 2313 2841 1759 
L 1844 884 
z
" transform="scale(0.015625)"/>
      <path id="DejaVuSans-Bold-37" d="M 428 4666 
L 3944 4666 
L 3944 3988 
L 2125 0 
L 953 0 
L 2675 3781 
L 428 3781 
L 428 4666 
z
" transform="scale(0.015625)"/>
      <path id="DejaVuSans-Bold-42" d="M 2456 2859 
Q 2741 2859 2887 2984 
Q 3034 3109 3034 3353 
Q 3034 3594 2887 3720 
Q 2741 3847 2456 3847 
L 1791 3847 
L 1791 2859 
L 2456 2859 
z
M 2497 819 
Q 2859 819 3042 972 
Q 3225 1125 3225 1434 
Q 3225 1738 3044 1889 
Q 2863 2041 2497 2041 
L 1791 2041 
L 1791 819 
L 2497 819 
z
M 3616 2497 
Q 4003 2384 4215 2081 
Q 4428 1778 4428 1338 
Q 4428 663 3972 331 
Q 3516 0 2584 0 
L 588 0 
L 588 4666 
L 2394 4666 
Q 3366 4666 3802 4372 
Q 4238 4078 4238 3431 
Q 4238 3091 4078 2852 
Q 3919 2613 3616 2497 
z
" transform="scale(0.015625)"/>
      <path id="DejaVuSans-Bold-20" transform="scale(0.015625)"/>
      <path id="DejaVuSans-Bold-4c" d="M 588 4666 
L 1791 4666 
L 1791 909 
L 3903 909 
L 3903 0 
L 588 0 
L 588 4666 
z
" transform="scale(0.015625)"/>
      <path id="DejaVuSans-Bold-61" d="M 2106 1575 
Q 1756 1575 1579 1456 
Q 1403 1338 1403 1106 
Q 1403 894 1545 773 
Q 1688 653 1941 653 
Q 2256 653 2472 879 
Q 2688 1106 2688 1447 
L 2688 1575 
L 2106 1575 
z
M 3816 1997 
L 3816 0 
L 2688 0 
L 2688 519 
Q 2463 200 2181 54 
Q 1900 -91 1497 -91 
Q 953 -91 614 226 
Q 275 544 275 1050 
Q 275 1666 698 1953 
Q 1122 2241 2028 2241 
L 2688 2241 
L 2688 2328 
Q 2688 2594 2478 2717 
Q 2269 2841 1825 2841 
Q 1466 2841 1156 2769 
Q 847 2697 581 2553 
L 581 3406 
Q 941 3494 1303 3539 
Q 1666 3584 2028 3584 
Q 2975 3584 3395 3211 
Q 3816 2838 3816 1997 
z
" transform="scale(0.015625)"/>
      <path id="DejaVuSans-Bold-79" d="M 78 3500 
L 1197 3500 
L 2138 1125 
L 2938 3500 
L 4056 3500 
L 2584 -331 
Q 2363 -916 2067 -1148 
Q 1772 -1381 1288 -1381 
L 641 -1381 
L 641 -647 
L 991 -647 
Q 1275 -647 1404 -556 
Q 1534 -466 1606 -231 
L 1638 -134 
L 78 3500 
z
" transform="scale(0.015625)"/>
      <path id="DejaVuSans-Bold-72" d="M 3138 2547 
Q 2991 2616 2845 2648 
Q 2700 2681 2553 2681 
Q 2122 2681 1889 2404 
Q 1656 2128 1656 1613 
L 1656 0 
L 538 0 
L 538 3500 
L 1656 3500 
L 1656 2925 
Q 1872 3269 2151 3426 
Q 2431 3584 2822 3584 
Q 2878 3584 2943 3579 
Q 3009 3575 3134 3559 
L 3138 2547 
z
" transform="scale(0.015625)"/>
      <path id="DejaVuSans-Bold-69" d="M 538 3500 
L 1656 3500 
L 1656 0 
L 538 0 
L 538 3500 
z
M 538 4863 
L 1656 4863 
L 1656 3950 
L 538 3950 
L 538 4863 
z
" transform="scale(0.015625)"/>
      <path id="DejaVuSans-Bold-73" d="M 3272 3391 
L 3272 2541 
Q 2913 2691 2578 2766 
Q 2244 2841 1947 2841 
Q 1628 2841 1473 2761 
Q 1319 2681 1319 2516 
Q 1319 2381 1436 2309 
Q 1553 2238 1856 2203 
L 2053 2175 
Q 2913 2066 3209 1816 
Q 3506 1566 3506 1031 
Q 3506 472 3093 190 
Q 2681 -91 1863 -91 
Q 1516 -91 1145 -36 
Q 775 19 384 128 
L 384 978 
Q 719 816 1070 734 
Q 1422 653 1784 653 
Q 2113 653 2278 743 
Q 2444 834 2444 1013 
Q 2444 1163 2330 1236 
Q 2216 1309 1875 1350 
L 1678 1375 
Q 931 1469 631 1722 
Q 331 1975 331 2491 
Q 331 3047 712 3315 
Q 1094 3584 1881 3584 
Q 2191 3584 2531 3537 
Q 2872 3491 3272 3391 
z
" transform="scale(0.015625)"/>
      <path id="DejaVuSans-Bold-45" d="M 588 4666 
L 3834 4666 
L 3834 3756 
L 1791 3756 
L 1791 2888 
L 3713 2888 
L 3713 1978 
L 1791 1978 
L 1791 909 
L 3903 909 
L 3903 0 
L 588 0 
L 588 4666 
z
" transform="scale(0.015625)"/>
      <path id="DejaVuSans-Bold-64" d="M 2919 2988 
L 2919 4863 
L 4044 4863 
L 4044 0 
L 2919 0 
L 2919 506 
Q 2688 197 2409 53 
Q 2131 -91 1766 -91 
Q 1119 -91 703 423 
Q 288 938 288 1747 
Q 288 2556 703 3070 
Q 1119 3584 1766 3584 
Q 2128 3584 2408 3439 
Q 2688 3294 2919 2988 
z
M 2181 722 
Q 2541 722 2730 984 
Q 2919 1247 2919 1747 
Q 2919 2247 2730 2509 
Q 2541 2772 2181 2772 
Q 1825 2772 1636 2509 
Q 1447 2247 1447 1747 
Q 1447 1247 1636 984 
Q 1825 722 2181 722 
z
" transform="scale(0.015625)"/>
      <path id="DejaVuSans-Bold-74" d="M 1759 4494 
L 1759 3500 
L 2913 3500 
L 2913 2700 
L 1759 2700 
L 1759 1216 
Q 1759 972 1856 886 
Q 1953 800 2241 800 
L 2816 800 
L 2816 0 
L 1856 0 
Q 1194 0 917 276 
Q 641 553 641 1216 
L 641 2700 
L 84 2700 
L 84 3500 
L 641 3500 
L 641 4494 
L 1759 4494 
z
" transform="scale(0.015625)"/>
      <path id="DejaVuSans-Bold-4d" d="M 588 4666 
L 2119 4666 
L 3181 2169 
L 4250 4666 
L 5778 4666 
L 5778 0 
L 4641 0 
L 4641 3413 
L 3566 897 
L 2803 897 
L 1728 3413 
L 1728 0 
L 588 0 
L 588 4666 
z
" transform="scale(0.015625)"/>
      <path id="DejaVuSans-Bold-67" d="M 2919 594 
Q 2688 288 2409 144 
Q 2131 0 1766 0 
Q 1125 0 706 504 
Q 288 1009 288 1791 
Q 288 2575 706 3076 
Q 1125 3578 1766 3578 
Q 2131 3578 2409 3434 
Q 2688 3291 2919 2981 
L 2919 3500 
L 4044 3500 
L 4044 353 
Q 4044 -491 3511 -936 
Q 2978 -1381 1966 -1381 
Q 1638 -1381 1331 -1331 
Q 1025 -1281 716 -1178 
L 716 -306 
Q 1009 -475 1290 -558 
Q 1572 -641 1856 -641 
Q 2406 -641 2662 -400 
Q 2919 -159 2919 353 
L 2919 594 
z
M 2181 2772 
Q 1834 2772 1640 2515 
Q 1447 2259 1447 1791 
Q 1447 1309 1634 1061 
Q 1822 813 2181 813 
Q 2531 813 2725 1069 
Q 2919 1325 2919 1791 
Q 2919 2259 2725 2515 
Q 2531 2772 2181 2772 
z
" transform="scale(0.015625)"/>
      <path id="DejaVuSans-Bold-75" d="M 500 1363 
L 500 3500 
L 1625 3500 
L 1625 3150 
Q 1625 2866 1622 2436 
Q 1619 2006 1619 1863 
Q 1619 1441 1641 1255 
Q 1663 1069 1716 984 
Q 1784 875 1895 815 
Q 2006 756 2150 756 
Q 2500 756 2700 1025 
Q 2900 1294 2900 1772 
L 2900 3500 
L 4019 3500 
L 4019 0 
L 2900 0 
L 2900 506 
Q 2647 200 2364 54 
Q 2081 -91 1741 -91 
Q 1134 -91 817 281 
Q 500 653 500 1363 
z
" transform="scale(0.015625)"/>
     </defs>
     <use xlink:href="#DejaVuSans-Bold-51"/>
     <use xlink:href="#DejaVuSans-Bold-77" transform="translate(85.009766 0)"/>
     <use xlink:href="#DejaVuSans-Bold-65" transform="translate(177.392578 0)"/>
     <use xlink:href="#DejaVuSans-Bold-6e" transform="translate(245.214844 0)"/>
     <use xlink:href="#DejaVuSans-Bold-33" transform="translate(316.40625 0)"/>
     <use xlink:href="#DejaVuSans-Bold-2e" transform="translate(385.986328 0)"/>
     <use xlink:href="#DejaVuSans-Bold-35" transform="translate(423.974609 0)"/>
     <use xlink:href="#DejaVuSans-Bold-2d" transform="translate(493.554688 0)"/>
     <use xlink:href="#DejaVuSans-Bold-32" transform="translate(535.058594 0)"/>
     <use xlink:href="#DejaVuSans-Bold-37" transform="translate(604.638672 0)"/>
     <use xlink:href="#DejaVuSans-Bold-42" transform="translate(674.21875 0)"/>
     <use xlink:href="#DejaVuSans-Bold-20" transform="translate(750.439453 0)"/>
     <use xlink:href="#DejaVuSans-Bold-4c" transform="translate(785.253906 0)"/>
     <use xlink:href="#DejaVuSans-Bold-61" transform="translate(848.974609 0)"/>
     <use xlink:href="#DejaVuSans-Bold-79" transform="translate(913.330078 0)"/>
     <use xlink:href="#DejaVuSans-Bold-65" transform="translate(978.515625 0)"/>
     <use xlink:href="#DejaVuSans-Bold-72" transform="translate(1046.337891 0)"/>
     <use xlink:href="#DejaVuSans-Bold-2d" transform="translate(1095.654297 0)"/>
     <use xlink:href="#DejaVuSans-Bold-77" transform="translate(1137.158203 0)"/>
     <use xlink:href="#DejaVuSans-Bold-69" transform="translate(1229.541016 0)"/>
     <use xlink:href="#DejaVuSans-Bold-73" transform="translate(1263.818359 0)"/>
     <use xlink:href="#DejaVuSans-Bold-65" transform="translate(1323.339844 0)"/>
     <use xlink:href="#DejaVuSans-Bold-20" transform="translate(1391.162109 0)"/>
     <use xlink:href="#DejaVuSans-Bold-45" transform="translate(1425.976562 0)"/>
     <use xlink:href="#DejaVuSans-Bold-64" transform="translate(1494.287109 0)"/>
     <use xlink:href="#DejaVuSans-Bold-69" transform="translate(1565.869141 0)"/>
     <use xlink:href="#DejaVuSans-Bold-74" transform="translate(1600.146484 0)"/>
     <use xlink:href="#DejaVuSans-Bold-20" transform="translate(1647.949219 0)"/>
     <use xlink:href="#DejaVuSans-Bold-4d" transform="translate(1682.763672 0)"/>
     <use xlink:href="#DejaVuSans-Bold-61" transform="translate(1782.275391 0)"/>
     <use xlink:href="#DejaVuSans-Bold-67" transform="translate(1849.755859 0)"/>
     <use xlink:href="#DejaVuSans-Bold-6e" transform="translate(1921.337891 0)"/>
     <use xlink:href="#DejaVuSans-Bold-69" transform="translate(1992.529297 0)"/>
     <use xlink:href="#DejaVuSans-Bold-74" transform="translate(2026.806641 0)"/>
     <use xlink:href="#DejaVuSans-Bold-75" transform="translate(2074.609375 0)"/>
     <use xlink:href="#DejaVuSans-Bold-64" transform="translate(2145.800781 0)"/>
     <use xlink:href="#DejaVuSans-Bold-65" transform="translate(2217.382812 0)"/>
    </g>
   </g>
   <g id="legend_1">
    <g id="patch_7">
     <path d="M 58.556531 75.872187 
L 142.676844 75.872187 
Q 144.676844 75.872187 144.676844 73.872187 
L 144.676844 30.837812 
Q 144.676844 28.837812 142.676844 28.837812 
L 58.556531 28.837812 
Q 56.556531 28.837812 56.556531 30.837812 
L 56.556531 73.872187 
Q 56.556531 75.872187 58.556531 75.872187 
z
" style="fill: #ffffff; opacity: 0.8; stroke: #cccccc; stroke-linejoin: miter"/>
    </g>
    <g id="line2d_26">
     <path d="M 60.556531 36.93625 
L 70.556531 36.93625 
L 80.556531 36.93625 
" style="fill: none; stroke: #3498db; stroke-opacity: 0.8; stroke-width: 1.5; stroke-linecap: round"/>
    </g>
    <g id="text_9">
     <!-- Heretic -->
     <g style="fill: #262626" transform="translate(88.556531 40.43625) scale(0.1 -0.1)">
      <defs>
       <path id="DejaVuSans-48" d="M 628 4666 
L 1259 4666 
L 1259 2753 
L 3553 2753 
L 3553 4666 
L 4184 4666 
L 4184 0 
L 3553 0 
L 3553 2222 
L 1259 2222 
L 1259 0 
L 628 0 
L 628 4666 
z
" transform="scale(0.015625)"/>
       <path id="DejaVuSans-63" d="M 3122 3366 
L 3122 2828 
Q 2878 2963 2633 3030 
Q 2388 3097 2138 3097 
Q 1578 3097 1268 2742 
Q 959 2388 959 1747 
Q 959 1106 1268 751 
Q 1578 397 2138 397 
Q 2388 397 2633 464 
Q 2878 531 3122 666 
L 3122 134 
Q 2881 22 2623 -34 
Q 2366 -91 2075 -91 
Q 1284 -91 818 406 
Q 353 903 353 1747 
Q 353 2603 823 3093 
Q 1294 3584 2113 3584 
Q 2378 3584 2631 3529 
Q 2884 3475 3122 3366 
z
" transform="scale(0.015625)"/>
      </defs>
      <use xlink:href="#DejaVuSans-48"/>
      <use xlink:href="#DejaVuSans-65" transform="translate(75.195312 0)"/>
      <use xlink:href="#DejaVuSans-72" transform="translate(136.71875 0)"/>
      <use xlink:href="#DejaVuSans-65" transform="translate(175.582031 0)"/>
      <use xlink:href="#DejaVuSans-74" transform="translate(237.105469 0)"/>
      <use xlink:href="#DejaVuSans-69" transform="translate(276.314453 0)"/>
      <use xlink:href="#DejaVuSans-63" transform="translate(304.097656 0)"/>
     </g>
    </g>
    <g id="line2d_27">
     <path d="M 60.556531 51.614375 
L 70.556531 51.614375 
L 80.556531 51.614375 
" style="fill: none; stroke: #e74c3c; stroke-opacity: 0.8; stroke-width: 1.5; stroke-linecap: round"/>
    </g>
    <g id="text_10">
     <!-- HauhauCS -->
     <g style="fill: #262626" transform="translate(88.556531 55.114375) scale(0.1 -0.1)">
      <defs>
       <path id="DejaVuSans-75" d="M 544 1381 
L 544 3500 
L 1119 3500 
L 1119 1403 
Q 1119 906 1312 657 
Q 1506 409 1894 409 
Q 2359 409 2629 706 
Q 2900 1003 2900 1516 
L 2900 3500 
L 3475 3500 
L 3475 0 
L 2900 0 
L 2900 538 
Q 2691 219 2414 64 
Q 2138 -91 1772 -91 
Q 1169 -91 856 284 
Q 544 659 544 1381 
z
M 1991 3584 
L 1991 3584 
z
" transform="scale(0.015625)"/>
       <path id="DejaVuSans-68" d="M 3513 2113 
L 3513 0 
L 2938 0 
L 2938 2094 
Q 2938 2591 2744 2837 
Q 2550 3084 2163 3084 
Q 1697 3084 1428 2787 
Q 1159 2491 1159 1978 
L 1159 0 
L 581 0 
L 581 4863 
L 1159 4863 
L 1159 2956 
Q 1366 3272 1645 3428 
Q 1925 3584 2291 3584 
Q 2894 3584 3203 3211 
Q 3513 2838 3513 2113 
z
" transform="scale(0.015625)"/>
       <path id="DejaVuSans-43" d="M 4122 4306 
L 4122 3641 
Q 3803 3938 3442 4084 
Q 3081 4231 2675 4231 
Q 1875 4231 1450 3742 
Q 1025 3253 1025 2328 
Q 1025 1406 1450 917 
Q 1875 428 2675 428 
Q 3081 428 3442 575 
Q 3803 722 4122 1019 
L 4122 359 
Q 3791 134 3420 21 
Q 3050 -91 2638 -91 
Q 1578 -91 968 557 
Q 359 1206 359 2328 
Q 359 3453 968 4101 
Q 1578 4750 2638 4750 
Q 3056 4750 3426 4639 
Q 3797 4528 4122 4306 
z
" transform="scale(0.015625)"/>
       <path id="DejaVuSans-53" d="M 3425 4513 
L 3425 3897 
Q 3066 4069 2747 4153 
Q 2428 4238 2131 4238 
Q 1616 4238 1336 4038 
Q 1056 3838 1056 3469 
Q 1056 3159 1242 3001 
Q 1428 2844 1947 2747 
L 2328 2669 
Q 3034 2534 3370 2195 
Q 3706 1856 3706 1288 
Q 3706 609 3251 259 
Q 2797 -91 1919 -91 
Q 1588 -91 1214 -16 
Q 841 59 441 206 
L 441 856 
Q 825 641 1194 531 
Q 1563 422 1919 422 
Q 2459 422 2753 634 
Q 3047 847 3047 1241 
Q 3047 1584 2836 1778 
Q 2625 1972 2144 2069 
L 1759 2144 
Q 1053 2284 737 2584 
Q 422 2884 422 3419 
Q 422 4038 858 4394 
Q 1294 4750 2059 4750 
Q 2388 4750 2728 4690 
Q 3069 4631 3425 4513 
z
" transform="scale(0.015625)"/>
      </defs>
      <use xlink:href="#DejaVuSans-48"/>
      <use xlink:href="#DejaVuSans-61" transform="translate(75.195312 0)"/>
      <use xlink:href="#DejaVuSans-75" transform="translate(136.474609 0)"/>
      <use xlink:href="#DejaVuSans-68" transform="translate(199.853516 0)"/>
      <use xlink:href="#DejaVuSans-61" transform="translate(263.232422 0)"/>
      <use xlink:href="#DejaVuSans-75" transform="translate(324.511719 0)"/>
      <use xlink:href="#DejaVuSans-43" transform="translate(387.890625 0)"/>
      <use xlink:href="#DejaVuSans-53" transform="translate(457.714844 0)"/>
     </g>
    </g>
    <g id="line2d_28">
     <path d="M 60.556531 66.2925 
L 70.556531 66.2925 
L 80.556531 66.2925 
" style="fill: none; stroke: #2ecc71; stroke-opacity: 0.8; stroke-width: 1.5; stroke-linecap: round"/>
    </g>
    <g id="text_11">
     <!-- Huihui -->
     <g style="fill: #262626" transform="translate(88.556531 69.7925) scale(0.1 -0.1)">
      <use xlink:href="#DejaVuSans-48"/>
      <use xlink:href="#DejaVuSans-75" transform="translate(75.195312 0)"/>
      <use xlink:href="#DejaVuSans-69" transform="translate(138.574219 0)"/>
      <use xlink:href="#DejaVuSans-68" transform="translate(166.357422 0)"/>
      <use xlink:href="#DejaVuSans-75" transform="translate(229.736328 0)"/>
      <use xlink:href="#DejaVuSans-69" transform="translate(293.115234 0)"/>
     </g>
    </g>
   </g>
  </g>
  <g id="axes_2">
   <g id="patch_8">
    <path d="M 51.556531 659.105812 
L 1129.504531 659.105812 
L 1129.504531 356.999812 
L 51.556531 356.999812 
z
" style="fill: #ffffff"/>
   </g>
   <g id="matplotlib.axis_3">
    <g id="xtick_17">
     <g id="line2d_29">
      <path d="M 100.554168 659.105812 
L 100.554168 356.999812 
" clip-path="url(#pfa21fdf547)" style="fill: none; stroke: #cccccc; stroke-linecap: round"/>
     </g>
     <g id="text_12">
      <!-- 0 -->
      <g style="fill: #262626" transform="translate(96.704855 677.799922) scale(0.121 -0.121)">
       <use xlink:href="#DejaVuSans-30"/>
      </g>
     </g>
    </g>
    <g id="xtick_18">
     <g id="line2d_30">
      <path d="M 162.773388 659.105812 
L 162.773388 356.999812 
" clip-path="url(#pfa21fdf547)" style="fill: none; stroke: #cccccc; stroke-linecap: round"/>
     </g>
     <g id="text_13">
      <!-- 4 -->
      <g style="fill: #262626" transform="translate(158.924076 677.799922) scale(0.121 -0.121)">
       <use xlink:href="#DejaVuSans-34"/>
      </g>
     </g>
    </g>
    <g id="xtick_19">
     <g id="line2d_31">
      <path d="M 224.992609 659.105812 
L 224.992609 356.999812 
" clip-path="url(#pfa21fdf547)" style="fill: none; stroke: #cccccc; stroke-linecap: round"/>
     </g>
     <g id="text_14">
      <!-- 8 -->
      <g style="fill: #262626" transform="translate(221.143297 677.799922) scale(0.121 -0.121)">
       <use xlink:href="#DejaVuSans-38"/>
      </g>
     </g>
    </g>
    <g id="xtick_20">
     <g id="line2d_32">
      <path d="M 287.21183 659.105812 
L 287.21183 356.999812 
" clip-path="url(#pfa21fdf547)" style="fill: none; stroke: #cccccc; stroke-linecap: round"/>
     </g>
     <g id="text_15">
      <!-- 12 -->
      <g style="fill: #262626" transform="translate(279.513205 677.799922) scale(0.121 -0.121)">
       <use xlink:href="#DejaVuSans-31"/>
       <use xlink:href="#DejaVuSans-32" transform="translate(63.623047 0)"/>
      </g>
     </g>
    </g>
    <g id="xtick_21">
     <g id="line2d_33">
      <path d="M 349.431051 659.105812 
L 349.431051 356.999812 
" clip-path="url(#pfa21fdf547)" style="fill: none; stroke: #cccccc; stroke-linecap: round"/>
     </g>
     <g id="text_16">
      <!-- 16 -->
      <g style="fill: #262626" transform="translate(341.732426 677.799922) scale(0.121 -0.121)">
       <use xlink:href="#DejaVuSans-31"/>
       <use xlink:href="#DejaVuSans-36" transform="translate(63.623047 0)"/>
      </g>
     </g>
    </g>
    <g id="xtick_22">
     <g id="line2d_34">
      <path d="M 411.650272 659.105812 
L 411.650272 356.999812 
" clip-path="url(#pfa21fdf547)" style="fill: none; stroke: #cccccc; stroke-linecap: round"/>
     </g>
     <g id="text_17">
      <!-- 20 -->
      <g style="fill: #262626" transform="translate(403.951647 677.799922) scale(0.121 -0.121)">
       <use xlink:href="#DejaVuSans-32"/>
       <use xlink:href="#DejaVuSans-30" transform="translate(63.623047 0)"/>
      </g>
     </g>
    </g>
    <g id="xtick_23">
     <g id="line2d_35">
      <path d="M 473.869492 659.105812 
L 473.869492 356.999812 
" clip-path="url(#pfa21fdf547)" style="fill: none; stroke: #cccccc; stroke-linecap: round"/>
     </g>
     <g id="text_18">
      <!-- 24 -->
      <g style="fill: #262626" transform="translate(466.170867 677.799922) scale(0.121 -0.121)">
       <use xlink:href="#DejaVuSans-32"/>
       <use xlink:href="#DejaVuSans-34" transform="translate(63.623047 0)"/>
      </g>
     </g>
    </g>
    <g id="xtick_24">
     <g id="line2d_36">
      <path d="M 536.088713 659.105812 
L 536.088713 356.999812 
" clip-path="url(#pfa21fdf547)" style="fill: none; stroke: #cccccc; stroke-linecap: round"/>
     </g>
     <g id="text_19">
      <!-- 28 -->
      <g style="fill: #262626" transform="translate(528.390088 677.799922) scale(0.121 -0.121)">
       <use xlink:href="#DejaVuSans-32"/>
       <use xlink:href="#DejaVuSans-38" transform="translate(63.623047 0)"/>
      </g>
     </g>
    </g>
    <g id="xtick_25">
     <g id="line2d_37">
      <path d="M 598.307934 659.105812 
L 598.307934 356.999812 
" clip-path="url(#pfa21fdf547)" style="fill: none; stroke: #cccccc; stroke-linecap: round"/>
     </g>
     <g id="text_20">
      <!-- 32 -->
      <g style="fill: #262626" transform="translate(590.609309 677.799922) scale(0.121 -0.121)">
       <defs>
        <path id="DejaVuSans-33" d="M 2597 2516 
Q 3050 2419 3304 2112 
Q 3559 1806 3559 1356 
Q 3559 666 3084 287 
Q 2609 -91 1734 -91 
Q 1441 -91 1130 -33 
Q 819 25 488 141 
L 488 750 
Q 750 597 1062 519 
Q 1375 441 1716 441 
Q 2309 441 2620 675 
Q 2931 909 2931 1356 
Q 2931 1769 2642 2001 
Q 2353 2234 1838 2234 
L 1294 2234 
L 1294 2753 
L 1863 2753 
Q 2328 2753 2575 2939 
Q 2822 3125 2822 3475 
Q 2822 3834 2567 4026 
Q 2313 4219 1838 4219 
Q 1578 4219 1281 4162 
Q 984 4106 628 3988 
L 628 4550 
Q 988 4650 1302 4700 
Q 1616 4750 1894 4750 
Q 2613 4750 3031 4423 
Q 3450 4097 3450 3541 
Q 3450 3153 3228 2886 
Q 3006 2619 2597 2516 
z
" transform="scale(0.015625)"/>
       </defs>
       <use xlink:href="#DejaVuSans-33"/>
       <use xlink:href="#DejaVuSans-32" transform="translate(63.623047 0)"/>
      </g>
     </g>
    </g>
    <g id="xtick_26">
     <g id="line2d_38">
      <path d="M 660.527155 659.105812 
L 660.527155 356.999812 
" clip-path="url(#pfa21fdf547)" style="fill: none; stroke: #cccccc; stroke-linecap: round"/>
     </g>
     <g id="text_21">
      <!-- 36 -->
      <g style="fill: #262626" transform="translate(652.82853 677.799922) scale(0.121 -0.121)">
       <use xlink:href="#DejaVuSans-33"/>
       <use xlink:href="#DejaVuSans-36" transform="translate(63.623047 0)"/>
      </g>
     </g>
    </g>
    <g id="xtick_27">
     <g id="line2d_39">
      <path d="M 722.746375 659.105812 
L 722.746375 356.999812 
" clip-path="url(#pfa21fdf547)" style="fill: none; stroke: #cccccc; stroke-linecap: round"/>
     </g>
     <g id="text_22">
      <!-- 40 -->
      <g style="fill: #262626" transform="translate(715.04775 677.799922) scale(0.121 -0.121)">
       <use xlink:href="#DejaVuSans-34"/>
       <use xlink:href="#DejaVuSans-30" transform="translate(63.623047 0)"/>
      </g>
     </g>
    </g>
    <g id="xtick_28">
     <g id="line2d_40">
      <path d="M 784.965596 659.105812 
L 784.965596 356.999812 
" clip-path="url(#pfa21fdf547)" style="fill: none; stroke: #cccccc; stroke-linecap: round"/>
     </g>
     <g id="text_23">
      <!-- 44 -->
      <g style="fill: #262626" transform="translate(777.266971 677.799922) scale(0.121 -0.121)">
       <use xlink:href="#DejaVuSans-34"/>
       <use xlink:href="#DejaVuSans-34" transform="translate(63.623047 0)"/>
      </g>
     </g>
    </g>
    <g id="xtick_29">
     <g id="line2d_41">
      <path d="M 847.184817 659.105812 
L 847.184817 356.999812 
" clip-path="url(#pfa21fdf547)" style="fill: none; stroke: #cccccc; stroke-linecap: round"/>
     </g>
     <g id="text_24">
      <!-- 48 -->
      <g style="fill: #262626" transform="translate(839.486192 677.799922) scale(0.121 -0.121)">
       <use xlink:href="#DejaVuSans-34"/>
       <use xlink:href="#DejaVuSans-38" transform="translate(63.623047 0)"/>
      </g>
     </g>
    </g>
    <g id="xtick_30">
     <g id="line2d_42">
      <path d="M 909.404038 659.105812 
L 909.404038 356.999812 
" clip-path="url(#pfa21fdf547)" style="fill: none; stroke: #cccccc; stroke-linecap: round"/>
     </g>
     <g id="text_25">
      <!-- 52 -->
      <g style="fill: #262626" transform="translate(901.705413 677.799922) scale(0.121 -0.121)">
       <defs>
        <path id="DejaVuSans-35" d="M 691 4666 
L 3169 4666 
L 3169 4134 
L 1269 4134 
L 1269 2991 
Q 1406 3038 1543 3061 
Q 1681 3084 1819 3084 
Q 2600 3084 3056 2656 
Q 3513 2228 3513 1497 
Q 3513 744 3044 326 
Q 2575 -91 1722 -91 
Q 1428 -91 1123 -41 
Q 819 9 494 109 
L 494 744 
Q 775 591 1075 516 
Q 1375 441 1709 441 
Q 2250 441 2565 725 
Q 2881 1009 2881 1497 
Q 2881 1984 2565 2268 
Q 2250 2553 1709 2553 
Q 1456 2553 1204 2497 
Q 953 2441 691 2322 
L 691 4666 
z
" transform="scale(0.015625)"/>
       </defs>
       <use xlink:href="#DejaVuSans-35"/>
       <use xlink:href="#DejaVuSans-32" transform="translate(63.623047 0)"/>
      </g>
     </g>
    </g>
    <g id="xtick_31">
     <g id="line2d_43">
      <path d="M 971.623259 659.105812 
L 971.623259 356.999812 
" clip-path="url(#pfa21fdf547)" style="fill: none; stroke: #cccccc; stroke-linecap: round"/>
     </g>
     <g id="text_26">
      <!-- 56 -->
      <g style="fill: #262626" transform="translate(963.924634 677.799922) scale(0.121 -0.121)">
       <use xlink:href="#DejaVuSans-35"/>
       <use xlink:href="#DejaVuSans-36" transform="translate(63.623047 0)"/>
      </g>
     </g>
    </g>
    <g id="xtick_32">
     <g id="line2d_44">
      <path d="M 1033.842479 659.105812 
L 1033.842479 356.999812 
" clip-path="url(#pfa21fdf547)" style="fill: none; stroke: #cccccc; stroke-linecap: round"/>
     </g>
     <g id="text_27">
      <!-- 60 -->
      <g style="fill: #262626" transform="translate(1026.143854 677.799922) scale(0.121 -0.121)">
       <use xlink:href="#DejaVuSans-36"/>
       <use xlink:href="#DejaVuSans-30" transform="translate(63.623047 0)"/>
      </g>
     </g>
    </g>
    <g id="text_28">
     <!-- Layer -->
     <g style="fill: #262626" transform="translate(573.800844 693.434469) scale(0.12 -0.12)">
      <defs>
       <path id="DejaVuSans-4c" d="M 628 4666 
L 1259 4666 
L 1259 531 
L 3531 531 
L 3531 0 
L 628 0 
L 628 4666 
z
" transform="scale(0.015625)"/>
       <path id="DejaVuSans-79" d="M 2059 -325 
Q 1816 -950 1584 -1140 
Q 1353 -1331 966 -1331 
L 506 -1331 
L 506 -850 
L 844 -850 
Q 1081 -850 1212 -737 
Q 1344 -625 1503 -206 
L 1606 56 
L 191 3500 
L 800 3500 
L 1894 763 
L 2988 3500 
L 3597 3500 
L 2059 -325 
z
" transform="scale(0.015625)"/>
      </defs>
      <use xlink:href="#DejaVuSans-4c"/>
      <use xlink:href="#DejaVuSans-61" transform="translate(55.712891 0)"/>
      <use xlink:href="#DejaVuSans-79" transform="translate(116.992188 0)"/>
      <use xlink:href="#DejaVuSans-65" transform="translate(176.171875 0)"/>
      <use xlink:href="#DejaVuSans-72" transform="translate(237.695312 0)"/>
     </g>
    </g>
   </g>
   <g id="matplotlib.axis_4">
    <g id="ytick_7">
     <g id="line2d_45">
      <path d="M 51.556531 645.373722 
L 1129.504531 645.373722 
" clip-path="url(#pfa21fdf547)" style="fill: none; stroke: #cccccc; stroke-linecap: round"/>
     </g>
     <g id="text_29">
      <!-- 0.0 -->
      <g style="fill: #262626" transform="translate(22.81375 649.970776) scale(0.121 -0.121)">
       <use xlink:href="#DejaVuSans-30"/>
       <use xlink:href="#DejaVuSans-2e" transform="translate(63.623047 0)"/>
       <use xlink:href="#DejaVuSans-30" transform="translate(95.410156 0)"/>
      </g>
     </g>
    </g>
    <g id="ytick_8">
     <g id="line2d_46">
      <path d="M 51.556531 591.167903 
L 1129.504531 591.167903 
" clip-path="url(#pfa21fdf547)" style="fill: none; stroke: #cccccc; stroke-linecap: round"/>
     </g>
     <g id="text_30">
      <!-- 0.2 -->
      <g style="fill: #262626" transform="translate(22.81375 595.764957) scale(0.121 -0.121)">
       <use xlink:href="#DejaVuSans-30"/>
       <use xlink:href="#DejaVuSans-2e" transform="translate(63.623047 0)"/>
       <use xlink:href="#DejaVuSans-32" transform="translate(95.410156 0)"/>
      </g>
     </g>
    </g>
    <g id="ytick_9">
     <g id="line2d_47">
      <path d="M 51.556531 536.962083 
L 1129.504531 536.962083 
" clip-path="url(#pfa21fdf547)" style="fill: none; stroke: #cccccc; stroke-linecap: round"/>
     </g>
     <g id="text_31">
      <!-- 0.4 -->
      <g style="fill: #262626" transform="translate(22.81375 541.559138) scale(0.121 -0.121)">
       <use xlink:href="#DejaVuSans-30"/>
       <use xlink:href="#DejaVuSans-2e" transform="translate(63.623047 0)"/>
       <use xlink:href="#DejaVuSans-34" transform="translate(95.410156 0)"/>
      </g>
     </g>
    </g>
    <g id="ytick_10">
     <g id="line2d_48">
      <path d="M 51.556531 482.756264 
L 1129.504531 482.756264 
" clip-path="url(#pfa21fdf547)" style="fill: none; stroke: #cccccc; stroke-linecap: round"/>
     </g>
     <g id="text_32">
      <!-- 0.6 -->
      <g style="fill: #262626" transform="translate(22.81375 487.353319) scale(0.121 -0.121)">
       <use xlink:href="#DejaVuSans-30"/>
       <use xlink:href="#DejaVuSans-2e" transform="translate(63.623047 0)"/>
       <use xlink:href="#DejaVuSans-36" transform="translate(95.410156 0)"/>
      </g>
     </g>
    </g>
    <g id="ytick_11">
     <g id="line2d_49">
      <path d="M 51.556531 428.550445 
L 1129.504531 428.550445 
" clip-path="url(#pfa21fdf547)" style="fill: none; stroke: #cccccc; stroke-linecap: round"/>
     </g>
     <g id="text_33">
      <!-- 0.8 -->
      <g style="fill: #262626" transform="translate(22.81375 433.1475) scale(0.121 -0.121)">
       <use xlink:href="#DejaVuSans-30"/>
       <use xlink:href="#DejaVuSans-2e" transform="translate(63.623047 0)"/>
       <use xlink:href="#DejaVuSans-38" transform="translate(95.410156 0)"/>
      </g>
     </g>
    </g>
    <g id="ytick_12">
     <g id="line2d_50">
      <path d="M 51.556531 374.344626 
L 1129.504531 374.344626 
" clip-path="url(#pfa21fdf547)" style="fill: none; stroke: #cccccc; stroke-linecap: round"/>
     </g>
     <g id="text_34">
      <!-- 1.0 -->
      <g style="fill: #262626" transform="translate(22.81375 378.941681) scale(0.121 -0.121)">
       <use xlink:href="#DejaVuSans-31"/>
       <use xlink:href="#DejaVuSans-2e" transform="translate(63.623047 0)"/>
       <use xlink:href="#DejaVuSans-30" transform="translate(95.410156 0)"/>
      </g>
     </g>
    </g>
    <g id="text_35">
     <!-- Mean Relative Edit (%) -->
     <g style="fill: #262626" transform="translate(16.318125 576.320625) rotate(-90) scale(0.12 -0.12)">
      <defs>
       <path id="DejaVuSans-52" d="M 2841 2188 
Q 3044 2119 3236 1894 
Q 3428 1669 3622 1275 
L 4263 0 
L 3584 0 
L 2988 1197 
Q 2756 1666 2539 1819 
Q 2322 1972 1947 1972 
L 1259 1972 
L 1259 0 
L 628 0 
L 628 4666 
L 2053 4666 
Q 2853 4666 3247 4331 
Q 3641 3997 3641 3322 
Q 3641 2881 3436 2590 
Q 3231 2300 2841 2188 
z
M 1259 4147 
L 1259 2491 
L 2053 2491 
Q 2509 2491 2742 2702 
Q 2975 2913 2975 3322 
Q 2975 3731 2742 3939 
Q 2509 4147 2053 4147 
L 1259 4147 
z
" transform="scale(0.015625)"/>
       <path id="DejaVuSans-6c" d="M 603 4863 
L 1178 4863 
L 1178 0 
L 603 0 
L 603 4863 
z
" transform="scale(0.015625)"/>
       <path id="DejaVuSans-76" d="M 191 3500 
L 800 3500 
L 1894 563 
L 2988 3500 
L 3597 3500 
L 2284 0 
L 1503 0 
L 191 3500 
z
" transform="scale(0.015625)"/>
       <path id="DejaVuSans-28" d="M 1984 4856 
Q 1566 4138 1362 3434 
Q 1159 2731 1159 2009 
Q 1159 1288 1364 580 
Q 1569 -128 1984 -844 
L 1484 -844 
Q 1016 -109 783 600 
Q 550 1309 550 2009 
Q 550 2706 781 3412 
Q 1013 4119 1484 4856 
L 1984 4856 
z
" transform="scale(0.015625)"/>
       <path id="DejaVuSans-25" d="M 4653 2053 
Q 4381 2053 4226 1822 
Q 4072 1591 4072 1178 
Q 4072 772 4226 539 
Q 4381 306 4653 306 
Q 4919 306 5073 539 
Q 5228 772 5228 1178 
Q 5228 1588 5073 1820 
Q 4919 2053 4653 2053 
z
M 4653 2450 
Q 5147 2450 5437 2106 
Q 5728 1763 5728 1178 
Q 5728 594 5436 251 
Q 5144 -91 4653 -91 
Q 4153 -91 3862 251 
Q 3572 594 3572 1178 
Q 3572 1766 3864 2108 
Q 4156 2450 4653 2450 
z
M 1428 4353 
Q 1159 4353 1004 4120 
Q 850 3888 850 3481 
Q 850 3069 1003 2837 
Q 1156 2606 1428 2606 
Q 1700 2606 1854 2837 
Q 2009 3069 2009 3481 
Q 2009 3884 1853 4118 
Q 1697 4353 1428 4353 
z
M 4250 4750 
L 4750 4750 
L 1831 -91 
L 1331 -91 
L 4250 4750 
z
M 1428 4750 
Q 1922 4750 2215 4408 
Q 2509 4066 2509 3481 
Q 2509 2891 2217 2550 
Q 1925 2209 1428 2209 
Q 931 2209 642 2551 
Q 353 2894 353 3481 
Q 353 4063 643 4406 
Q 934 4750 1428 4750 
z
" transform="scale(0.015625)"/>
       <path id="DejaVuSans-29" d="M 513 4856 
L 1013 4856 
Q 1481 4119 1714 3412 
Q 1947 2706 1947 2009 
Q 1947 1309 1714 600 
Q 1481 -109 1013 -844 
L 513 -844 
Q 928 -128 1133 580 
Q 1338 1288 1338 2009 
Q 1338 2731 1133 3434 
Q 928 4138 513 4856 
z
" transform="scale(0.015625)"/>
      </defs>
      <use xlink:href="#DejaVuSans-4d"/>
      <use xlink:href="#DejaVuSans-65" transform="translate(86.279297 0)"/>
      <use xlink:href="#DejaVuSans-61" transform="translate(147.802734 0)"/>
      <use xlink:href="#DejaVuSans-6e" transform="translate(209.082031 0)"/>
      <use xlink:href="#DejaVuSans-20" transform="translate(272.460938 0)"/>
      <use xlink:href="#DejaVuSans-52" transform="translate(304.248047 0)"/>
      <use xlink:href="#DejaVuSans-65" transform="translate(369.230469 0)"/>
      <use xlink:href="#DejaVuSans-6c" transform="translate(430.753906 0)"/>
      <use xlink:href="#DejaVuSans-61" transform="translate(458.537109 0)"/>
      <use xlink:href="#DejaVuSans-74" transform="translate(519.816406 0)"/>
      <use xlink:href="#DejaVuSans-69" transform="translate(559.025391 0)"/>
      <use xlink:href="#DejaVuSans-76" transform="translate(586.808594 0)"/>
      <use xlink:href="#DejaVuSans-65" transform="translate(645.988281 0)"/>
      <use xlink:href="#DejaVuSans-20" transform="translate(707.511719 0)"/>
      <use xlink:href="#DejaVuSans-45" transform="translate(739.298828 0)"/>
      <use xlink:href="#DejaVuSans-64" transform="translate(802.482422 0)"/>
      <use xlink:href="#DejaVuSans-69" transform="translate(865.958984 0)"/>
      <use xlink:href="#DejaVuSans-74" transform="translate(893.742188 0)"/>
      <use xlink:href="#DejaVuSans-20" transform="translate(932.951172 0)"/>
      <use xlink:href="#DejaVuSans-28" transform="translate(964.738281 0)"/>
      <use xlink:href="#DejaVuSans-25" transform="translate(1003.751953 0)"/>
      <use xlink:href="#DejaVuSans-29" transform="translate(1098.771484 0)"/>
     </g>
    </g>
   </g>
   <g id="line2d_51">
    <path d="M 100.554168 642.729393 
L 116.108973 642.901314 
L 131.663778 642.955845 
L 147.218583 645.373722 
L 162.773388 642.36769 
L 178.328194 642.738939 
L 193.882999 642.852748 
L 209.437804 645.373722 
L 224.992609 642.985137 
L 240.547414 642.815368 
L 256.10222 642.85597 
L 271.657025 645.373722 
L 287.21183 642.836532 
L 302.766635 642.894401 
L 318.32144 622.851197 
L 333.876246 618.087217 
L 349.431051 620.477958 
L 364.985856 620.07989 
L 380.540661 618.896222 
L 396.095466 614.417781 
L 411.650272 618.203164 
L 427.205077 617.792231 
L 442.759882 616.852448 
L 458.314687 610.999827 
L 473.869492 614.063525 
L 489.424297 571.668612 
L 504.979103 569.979337 
L 520.533908 550.537554 
L 536.088713 568.119401 
L 551.643518 568.078948 
L 567.198323 569.570699 
L 582.753129 546.541468 
L 598.307934 562.663969 
L 613.862739 557.695809 
L 629.417544 561.865231 
L 644.972349 536.473154 
L 660.527155 564.053456 
L 676.08196 566.271026 
L 691.636765 566.660864 
L 707.19157 544.725929 
L 722.746375 564.72936 
L 738.301181 561.601957 
L 753.855986 560.930746 
L 769.410791 537.434449 
L 784.965596 563.020332 
L 800.520401 563.067222 
L 816.075207 565.35051 
L 831.630012 546.072193 
L 847.184817 566.175827 
L 862.739622 564.475399 
L 878.294427 567.554538 
L 893.849233 556.187131 
L 909.404038 572.50381 
L 924.958843 573.856523 
L 940.513648 572.974437 
L 956.068453 559.354309 
L 971.623259 576.881345 
L 987.178064 576.091337 
L 1002.732869 576.716043 
L 1018.287674 565.580078 
L 1033.842479 578.662478 
L 1049.397284 578.975864 
L 1064.95209 579.143313 
L 1080.506895 565.895129 
" clip-path="url(#pfa21fdf547)" style="fill: none; stroke: #3498db; stroke-opacity: 0.8; stroke-width: 1.5; stroke-linecap: round"/>
   </g>
   <g id="line2d_52">
    <path d="M 100.554168 642.729385 
L 116.108973 642.901272 
L 131.663778 642.955832 
L 147.218583 645.373722 
L 162.773388 642.36767 
L 178.328194 642.738911 
L 193.882999 642.852711 
L 209.437804 645.373714 
L 224.992609 642.985101 
L 240.547414 642.815327 
L 256.10222 642.855929 
L 271.657025 632.36414 
L 287.21183 642.836507 
L 302.766635 590.232479 
L 318.32144 588.044749 
L 333.876246 554.663671 
L 349.431051 584.762798 
L 364.985856 582.10657 
L 380.540661 579.611773 
L 396.095466 538.277727 
L 411.650272 576.801732 
L 427.205077 575.306867 
L 442.759882 570.877465 
L 458.314687 518.803729 
L 473.869492 561.914956 
L 489.424297 557.531212 
L 504.979103 549.66686 
L 520.533908 496.945452 
L 536.088713 550.790174 
L 551.643518 553.721439 
L 567.198323 549.743374 
L 582.753129 492.945404 
L 598.307934 549.513711 
L 613.862739 548.591079 
L 629.417544 547.331107 
L 644.972349 428.635576 
L 660.527155 507.785576 
L 676.08196 506.246508 
L 691.636765 488.719742 
L 707.19157 412.911488 
L 722.746375 474.204484 
L 738.301181 462.865836 
L 753.855986 454.482257 
L 769.410791 386.699132 
L 784.965596 439.335588 
L 800.520401 440.095593 
L 816.075207 445.825013 
L 831.630012 375.122243 
L 847.184817 450.952727 
L 862.739622 449.862793 
L 878.294427 453.741127 
L 893.849233 370.731903 
L 909.404038 464.875882 
L 924.958843 465.037618 
L 940.513648 465.441689 
L 956.068453 372.500381 
L 971.623259 460.308436 
L 987.178064 459.5274 
L 1002.732869 460.917264 
L 1018.287674 381.750667 
L 1033.842479 466.254278 
L 1049.397284 472.367543 
L 1064.95209 478.339956 
L 1080.506895 409.010512 
" clip-path="url(#pfa21fdf547)" style="fill: none; stroke: #e74c3c; stroke-opacity: 0.8; stroke-width: 1.5; stroke-linecap: round"/>
   </g>
   <g id="line2d_53">
    <path d="M 100.554168 565.534385 
L 116.108973 577.06382 
L 131.663778 584.090489 
L 147.218583 553.078612 
L 162.773388 584.892886 
L 178.328194 585.464973 
L 193.882999 584.467503 
L 209.437804 561.381337 
L 224.992609 580.902696 
L 240.547414 578.523462 
L 256.10222 576.785497 
L 271.657025 551.924128 
L 287.21183 577.95555 
L 302.766635 580.986754 
L 318.32144 580.681639 
L 333.876246 559.363622 
L 349.431051 581.238256 
L 364.985856 580.623799 
L 380.540661 579.848449 
L 396.095466 563.486881 
L 411.650272 583.880685 
L 427.205077 584.619083 
L 442.759882 584.556235 
L 458.314687 561.855832 
L 473.869492 579.116255 
L 489.424297 578.334758 
L 504.979103 575.112496 
L 520.533908 561.882607 
L 536.088713 581.899784 
L 551.643518 584.145213 
L 567.198323 582.983137 
L 582.753129 568.14032 
L 598.307934 585.872491 
L 613.862739 586.263934 
L 629.417544 587.311938 
L 644.972349 569.257413 
L 660.527155 588.895118 
L 676.08196 590.147608 
L 691.636765 589.91103 
L 707.19157 572.400584 
L 722.746375 588.525432 
L 738.301181 586.838306 
L 753.855986 586.266996 
L 769.410791 568.910459 
L 784.965596 589.653804 
L 800.520401 590.251305 
L 816.075207 590.954614 
L 831.630012 576.886785 
L 847.184817 592.196967 
L 862.739622 590.437358 
L 878.294427 591.486714 
L 893.849233 575.997973 
L 909.404038 591.221304 
L 924.958843 592.282771 
L 940.513648 591.188208 
L 956.068453 576.836441 
L 971.623259 591.720961 
L 987.178064 592.468344 
L 1002.732869 592.479577 
L 1018.287674 577.569612 
L 1033.842479 591.967236 
L 1049.397284 592.423995 
L 1064.95209 592.062098 
L 1080.506895 575.90506 
" clip-path="url(#pfa21fdf547)" style="fill: none; stroke: #2ecc71; stroke-opacity: 0.8; stroke-width: 1.5; stroke-linecap: round"/>
   </g>
   <g id="patch_9">
    <path d="M 51.556531 659.105812 
L 51.556531 356.999813 
" style="fill: none; stroke: #cccccc; stroke-width: 1.25; stroke-linejoin: miter; stroke-linecap: square"/>
   </g>
   <g id="patch_10">
    <path d="M 1129.504531 659.105812 
L 1129.504531 356.999813 
" style="fill: none; stroke: #cccccc; stroke-width: 1.25; stroke-linejoin: miter; stroke-linecap: square"/>
   </g>
   <g id="patch_11">
    <path d="M 51.556531 659.105812 
L 1129.504531 659.105812 
" style="fill: none; stroke: #cccccc; stroke-width: 1.25; stroke-linejoin: miter; stroke-linecap: square"/>
   </g>
   <g id="patch_12">
    <path d="M 51.556531 356.999812 
L 1129.504531 356.999812 
" style="fill: none; stroke: #cccccc; stroke-width: 1.25; stroke-linejoin: miter; stroke-linecap: square"/>
   </g>
   <g id="text_36">
    <!-- Layer-wise Relative Edit Magnitude -->
    <g style="fill: #262626" transform="translate(450.778812 350.999813) scale(0.14 -0.14)">
     <defs>
      <path id="DejaVuSans-Bold-52" d="M 2297 2597 
Q 2675 2597 2839 2737 
Q 3003 2878 3003 3200 
Q 3003 3519 2839 3656 
Q 2675 3794 2297 3794 
L 1791 3794 
L 1791 2597 
L 2297 2597 
z
M 1791 1766 
L 1791 0 
L 588 0 
L 588 4666 
L 2425 4666 
Q 3347 4666 3776 4356 
Q 4206 4047 4206 3378 
Q 4206 2916 3982 2619 
Q 3759 2322 3309 2181 
Q 3556 2125 3751 1926 
Q 3947 1728 4147 1325 
L 4800 0 
L 3519 0 
L 2950 1159 
Q 2778 1509 2601 1637 
Q 2425 1766 2131 1766 
L 1791 1766 
z
" transform="scale(0.015625)"/>
      <path id="DejaVuSans-Bold-6c" d="M 538 4863 
L 1656 4863 
L 1656 0 
L 538 0 
L 538 4863 
z
" transform="scale(0.015625)"/>
      <path id="DejaVuSans-Bold-76" d="M 97 3500 
L 1216 3500 
L 2088 1081 
L 2956 3500 
L 4078 3500 
L 2700 0 
L 1472 0 
L 97 3500 
z
" transform="scale(0.015625)"/>
     </defs>
     <use xlink:href="#DejaVuSans-Bold-4c"/>
     <use xlink:href="#DejaVuSans-Bold-61" transform="translate(63.720703 0)"/>
     <use xlink:href="#DejaVuSans-Bold-79" transform="translate(128.076172 0)"/>
     <use xlink:href="#DejaVuSans-Bold-65" transform="translate(193.261719 0)"/>
     <use xlink:href="#DejaVuSans-Bold-72" transform="translate(261.083984 0)"/>
     <use xlink:href="#DejaVuSans-Bold-2d" transform="translate(310.400391 0)"/>
     <use xlink:href="#DejaVuSans-Bold-77" transform="translate(351.904297 0)"/>
     <use xlink:href="#DejaVuSans-Bold-69" transform="translate(444.287109 0)"/>
     <use xlink:href="#DejaVuSans-Bold-73" transform="translate(478.564453 0)"/>
     <use xlink:href="#DejaVuSans-Bold-65" transform="translate(538.085938 0)"/>
     <use xlink:href="#DejaVuSans-Bold-20" transform="translate(605.908203 0)"/>
     <use xlink:href="#DejaVuSans-Bold-52" transform="translate(640.722656 0)"/>
     <use xlink:href="#DejaVuSans-Bold-65" transform="translate(717.724609 0)"/>
     <use xlink:href="#DejaVuSans-Bold-6c" transform="translate(785.546875 0)"/>
     <use xlink:href="#DejaVuSans-Bold-61" transform="translate(819.824219 0)"/>
     <use xlink:href="#DejaVuSans-Bold-74" transform="translate(887.304688 0)"/>
     <use xlink:href="#DejaVuSans-Bold-69" transform="translate(935.107422 0)"/>
     <use xlink:href="#DejaVuSans-Bold-76" transform="translate(969.384766 0)"/>
     <use xlink:href="#DejaVuSans-Bold-65" transform="translate(1034.570312 0)"/>
     <use xlink:href="#DejaVuSans-Bold-20" transform="translate(1102.392578 0)"/>
     <use xlink:href="#DejaVuSans-Bold-45" transform="translate(1137.207031 0)"/>
     <use xlink:href="#DejaVuSans-Bold-64" transform="translate(1205.517578 0)"/>
     <use xlink:href="#DejaVuSans-Bold-69" transform="translate(1277.099609 0)"/>
     <use xlink:href="#DejaVuSans-Bold-74" transform="translate(1311.376953 0)"/>
     <use xlink:href="#DejaVuSans-Bold-20" transform="translate(1359.179688 0)"/>
     <use xlink:href="#DejaVuSans-Bold-4d" transform="translate(1393.994141 0)"/>
     <use xlink:href="#DejaVuSans-Bold-61" transform="translate(1493.505859 0)"/>
     <use xlink:href="#DejaVuSans-Bold-67" transform="translate(1560.986328 0)"/>
     <use xlink:href="#DejaVuSans-Bold-6e" transform="translate(1632.568359 0)"/>
     <use xlink:href="#DejaVuSans-Bold-69" transform="translate(1703.759766 0)"/>
     <use xlink:href="#DejaVuSans-Bold-74" transform="translate(1738.037109 0)"/>
     <use xlink:href="#DejaVuSans-Bold-75" transform="translate(1785.839844 0)"/>
     <use xlink:href="#DejaVuSans-Bold-64" transform="translate(1857.03125 0)"/>
     <use xlink:href="#DejaVuSans-Bold-65" transform="translate(1928.613281 0)"/>
    </g>
   </g>
   <g id="legend_2">
    <g id="patch_13">
     <path d="M 58.556531 409.034188 
L 142.676844 409.034188 
Q 144.676844 409.034188 144.676844 407.034188 
L 144.676844 363.999813 
Q 144.676844 361.999813 142.676844 361.999813 
L 58.556531 361.999813 
Q 56.556531 361.999813 56.556531 363.999813 
L 56.556531 407.034188 
Q 56.556531 409.034188 58.556531 409.034188 
z
" style="fill: #ffffff; opacity: 0.8; stroke: #cccccc; stroke-linejoin: miter"/>
    </g>
    <g id="line2d_54">
     <path d="M 60.556531 370.09825 
L 70.556531 370.09825 
L 80.556531 370.09825 
" style="fill: none; stroke: #3498db; stroke-opacity: 0.8; stroke-width: 1.5; stroke-linecap: round"/>
    </g>
    <g id="text_37">
     <!-- Heretic -->
     <g style="fill: #262626" transform="translate(88.556531 373.59825) scale(0.1 -0.1)">
      <use xlink:href="#DejaVuSans-48"/>
      <use xlink:href="#DejaVuSans-65" transform="translate(75.195312 0)"/>
      <use xlink:href="#DejaVuSans-72" transform="translate(136.71875 0)"/>
      <use xlink:href="#DejaVuSans-65" transform="translate(175.582031 0)"/>
      <use xlink:href="#DejaVuSans-74" transform="translate(237.105469 0)"/>
      <use xlink:href="#DejaVuSans-69" transform="translate(276.314453 0)"/>
      <use xlink:href="#DejaVuSans-63" transform="translate(304.097656 0)"/>
     </g>
    </g>
    <g id="line2d_55">
     <path d="M 60.556531 384.776375 
L 70.556531 384.776375 
L 80.556531 384.776375 
" style="fill: none; stroke: #e74c3c; stroke-opacity: 0.8; stroke-width: 1.5; stroke-linecap: round"/>
    </g>
    <g id="text_38">
     <!-- HauhauCS -->
     <g style="fill: #262626" transform="translate(88.556531 388.276375) scale(0.1 -0.1)">
      <use xlink:href="#DejaVuSans-48"/>
      <use xlink:href="#DejaVuSans-61" transform="translate(75.195312 0)"/>
      <use xlink:href="#DejaVuSans-75" transform="translate(136.474609 0)"/>
      <use xlink:href="#DejaVuSans-68" transform="translate(199.853516 0)"/>
      <use xlink:href="#DejaVuSans-61" transform="translate(263.232422 0)"/>
      <use xlink:href="#DejaVuSans-75" transform="translate(324.511719 0)"/>
      <use xlink:href="#DejaVuSans-43" transform="translate(387.890625 0)"/>
      <use xlink:href="#DejaVuSans-53" transform="translate(457.714844 0)"/>
     </g>
    </g>
    <g id="line2d_56">
     <path d="M 60.556531 399.4545 
L 70.556531 399.4545 
L 80.556531 399.4545 
" style="fill: none; stroke: #2ecc71; stroke-opacity: 0.8; stroke-width: 1.5; stroke-linecap: round"/>
    </g>
    <g id="text_39">
     <!-- Huihui -->
     <g style="fill: #262626" transform="translate(88.556531 402.9545) scale(0.1 -0.1)">
      <use xlink:href="#DejaVuSans-48"/>
      <use xlink:href="#DejaVuSans-75" transform="translate(75.195312 0)"/>
      <use xlink:href="#DejaVuSans-69" transform="translate(138.574219 0)"/>
      <use xlink:href="#DejaVuSans-68" transform="translate(166.357422 0)"/>
      <use xlink:href="#DejaVuSans-75" transform="translate(229.736328 0)"/>
      <use xlink:href="#DejaVuSans-69" transform="translate(293.115234 0)"/>
     </g>
    </g>
   </g>
  </g>
 </g>
 <defs>
  <clipPath id="p6e0578e056">
   <rect x="51.556531" y="23.837812" width="1077.948" height="302.106"/>
  </clipPath>
  <clipPath id="pfa21fdf547">
   <rect x="51.556531" y="356.999813" width="1077.948" height="302.106"/>
  </clipPath>
 </defs>
</svg>
