<?xml version="1.0" encoding="utf-8" standalone="no"?>
<!DOCTYPE svg PUBLIC "-//W3C//DTD SVG 1.1//EN"
  "http://www.w3.org/Graphics/SVG/1.1/DTD/svg11.dtd">
<svg xmlns:xlink="http://www.w3.org/1999/xlink" width="612.911pt" height="384.791562pt" viewBox="0 0 612.911 384.791562" xmlns="http://www.w3.org/2000/svg" version="1.1">
 <metadata>
  <rdf:RDF xmlns:dc="http://purl.org/dc/elements/1.1/" xmlns:cc="http://creativecommons.org/ns#" xmlns:rdf="http://www.w3.org/1999/02/22-rdf-syntax-ns#">
   <cc:Work>
    <dc:type rdf:resource="http://purl.org/dc/dcmitype/StillImage"/>
    <dc:date>2026-04-24T22:09:21.476928</dc:date>
    <dc:format>image/svg+xml</dc:format>
    <dc:creator>
     <cc:Agent>
      <dc:title>Matplotlib v3.10.8, https://matplotlib.org/</dc:title>
     </cc:Agent>
    </dc:creator>
   </cc:Work>
  </rdf:RDF>
 </metadata>
 <defs>
  <style type="text/css">*{stroke-linejoin: round; stroke-linecap: butt}</style>
 </defs>
 <g id="figure_1">
  <g id="patch_1">
   <path d="M 0 384.791562 
L 612.911 384.791562 
L 612.911 0 
L 0 0 
z
" style="fill: #ffffff"/>
  </g>
  <g id="axes_1">
   <g id="patch_2">
    <path d="M 47.711 356.477812 
L 605.711 356.477812 
L 605.711 23.837812 
L 47.711 23.837812 
z
" style="fill: #ffffff"/>
   </g>
   <g id="matplotlib.axis_1">
    <g id="xtick_1">
     <g id="line2d_1">
      <path d="M 123.801909 356.477812 
L 123.801909 23.837812 
" clip-path="url(#p8ec6f30c08)" style="fill: none; stroke: #cccccc; stroke-linecap: round"/>
     </g>
     <g id="text_1">
      <!-- Heretic -->
      <g style="fill: #262626" transform="translate(102.256284 375.095937) scale(0.12 -0.12)">
       <defs>
        <path id="DejaVuSans-48" d="M 628 4666 
L 1259 4666 
L 1259 2753 
L 3553 2753 
L 3553 4666 
L 4184 4666 
L 4184 0 
L 3553 0 
L 3553 2222 
L 1259 2222 
L 1259 0 
L 628 0 
L 628 4666 
z
" transform="scale(0.015625)"/>
        <path id="DejaVuSans-65" d="M 3597 1894 
L 3597 1613 
L 953 1613 
Q 991 1019 1311 708 
Q 1631 397 2203 397 
Q 2534 397 2845 478 
Q 3156 559 3463 722 
L 3463 178 
Q 3153 47 2828 -22 
Q 2503 -91 2169 -91 
Q 1331 -91 842 396 
Q 353 884 353 1716 
Q 353 2575 817 3079 
Q 1281 3584 2069 3584 
Q 2775 3584 3186 3129 
Q 3597 2675 3597 1894 
z
M 3022 2063 
Q 3016 2534 2758 2815 
Q 2500 3097 2075 3097 
Q 1594 3097 1305 2825 
Q 1016 2553 972 2059 
L 3022 2063 
z
" transform="scale(0.015625)"/>
        <path id="DejaVuSans-72" d="M 2631 2963 
Q 2534 3019 2420 3045 
Q 2306 3072 2169 3072 
Q 1681 3072 1420 2755 
Q 1159 2438 1159 1844 
L 1159 0 
L 581 0 
L 581 3500 
L 1159 3500 
L 1159 2956 
Q 1341 3275 1631 3429 
Q 1922 3584 2338 3584 
Q 2397 3584 2469 3576 
Q 2541 3569 2628 3553 
L 2631 2963 
z
" transform="scale(0.015625)"/>
        <path id="DejaVuSans-74" d="M 1172 4494 
L 1172 3500 
L 2356 3500 
L 2356 3053 
L 1172 3053 
L 1172 1153 
Q 1172 725 1289 603 
Q 1406 481 1766 481 
L 2356 481 
L 2356 0 
L 1766 0 
Q 1100 0 847 248 
Q 594 497 594 1153 
L 594 3053 
L 172 3053 
L 172 3500 
L 594 3500 
L 594 4494 
L 1172 4494 
z
" transform="scale(0.015625)"/>
        <path id="DejaVuSans-69" d="M 603 3500 
L 1178 3500 
L 1178 0 
L 603 0 
L 603 3500 
z
M 603 4863 
L 1178 4863 
L 1178 4134 
L 603 4134 
L 603 4863 
z
" transform="scale(0.015625)"/>
        <path id="DejaVuSans-63" d="M 3122 3366 
L 3122 2828 
Q 2878 2963 2633 3030 
Q 2388 3097 2138 3097 
Q 1578 3097 1268 2742 
Q 959 2388 959 1747 
Q 959 1106 1268 751 
Q 1578 397 2138 397 
Q 2388 397 2633 464 
Q 2878 531 3122 666 
L 3122 134 
Q 2881 22 2623 -34 
Q 2366 -91 2075 -91 
Q 1284 -91 818 406 
Q 353 903 353 1747 
Q 353 2603 823 3093 
Q 1294 3584 2113 3584 
Q 2378 3584 2631 3529 
Q 2884 3475 3122 3366 
z
" transform="scale(0.015625)"/>
       </defs>
       <use xlink:href="#DejaVuSans-48"/>
       <use xlink:href="#DejaVuSans-65" transform="translate(75.195312 0)"/>
       <use xlink:href="#DejaVuSans-72" transform="translate(136.71875 0)"/>
       <use xlink:href="#DejaVuSans-65" transform="translate(175.582031 0)"/>
       <use xlink:href="#DejaVuSans-74" transform="translate(237.105469 0)"/>
       <use xlink:href="#DejaVuSans-69" transform="translate(276.314453 0)"/>
       <use xlink:href="#DejaVuSans-63" transform="translate(304.097656 0)"/>
      </g>
     </g>
    </g>
    <g id="xtick_2">
     <g id="line2d_2">
      <path d="M 326.711 356.477812 
L 326.711 23.837812 
" clip-path="url(#p8ec6f30c08)" style="fill: none; stroke: #cccccc; stroke-linecap: round"/>
     </g>
     <g id="text_2">
      <!-- HauhauCS -->
      <g style="fill: #262626" transform="translate(295.438813 375.095937) scale(0.12 -0.12)">
       <defs>
        <path id="DejaVuSans-61" d="M 2194 1759 
Q 1497 1759 1228 1600 
Q 959 1441 959 1056 
Q 959 750 1161 570 
Q 1363 391 1709 391 
Q 2188 391 2477 730 
Q 2766 1069 2766 1631 
L 2766 1759 
L 2194 1759 
z
M 3341 1997 
L 3341 0 
L 2766 0 
L 2766 531 
Q 2569 213 2275 61 
Q 1981 -91 1556 -91 
Q 1019 -91 701 211 
Q 384 513 384 1019 
Q 384 1609 779 1909 
Q 1175 2209 1959 2209 
L 2766 2209 
L 2766 2266 
Q 2766 2663 2505 2880 
Q 2244 3097 1772 3097 
Q 1472 3097 1187 3025 
Q 903 2953 641 2809 
L 641 3341 
Q 956 3463 1253 3523 
Q 1550 3584 1831 3584 
Q 2591 3584 2966 3190 
Q 3341 2797 3341 1997 
z
" transform="scale(0.015625)"/>
        <path id="DejaVuSans-75" d="M 544 1381 
L 544 3500 
L 1119 3500 
L 1119 1403 
Q 1119 906 1312 657 
Q 1506 409 1894 409 
Q 2359 409 2629 706 
Q 2900 1003 2900 1516 
L 2900 3500 
L 3475 3500 
L 3475 0 
L 2900 0 
L 2900 538 
Q 2691 219 2414 64 
Q 2138 -91 1772 -91 
Q 1169 -91 856 284 
Q 544 659 544 1381 
z
M 1991 3584 
L 1991 3584 
z
" transform="scale(0.015625)"/>
        <path id="DejaVuSans-68" d="M 3513 2113 
L 3513 0 
L 2938 0 
L 2938 2094 
Q 2938 2591 2744 2837 
Q 2550 3084 2163 3084 
Q 1697 3084 1428 2787 
Q 1159 2491 1159 1978 
L 1159 0 
L 581 0 
L 581 4863 
L 1159 4863 
L 1159 2956 
Q 1366 3272 1645 3428 
Q 1925 3584 2291 3584 
Q 2894 3584 3203 3211 
Q 3513 2838 3513 2113 
z
" transform="scale(0.015625)"/>
        <path id="DejaVuSans-43" d="M 4122 4306 
L 4122 3641 
Q 3803 3938 3442 4084 
Q 3081 4231 2675 4231 
Q 1875 4231 1450 3742 
Q 1025 3253 1025 2328 
Q 1025 1406 1450 917 
Q 1875 428 2675 428 
Q 3081 428 3442 575 
Q 3803 722 4122 1019 
L 4122 359 
Q 3791 134 3420 21 
Q 3050 -91 2638 -91 
Q 1578 -91 968 557 
Q 359 1206 359 2328 
Q 359 3453 968 4101 
Q 1578 4750 2638 4750 
Q 3056 4750 3426 4639 
Q 3797 4528 4122 4306 
z
" transform="scale(0.015625)"/>
        <path id="DejaVuSans-53" d="M 3425 4513 
L 3425 3897 
Q 3066 4069 2747 4153 
Q 2428 4238 2131 4238 
Q 1616 4238 1336 4038 
Q 1056 3838 1056 3469 
Q 1056 3159 1242 3001 
Q 1428 2844 1947 2747 
L 2328 2669 
Q 3034 2534 3370 2195 
Q 3706 1856 3706 1288 
Q 3706 609 3251 259 
Q 2797 -91 1919 -91 
Q 1588 -91 1214 -16 
Q 841 59 441 206 
L 441 856 
Q 825 641 1194 531 
Q 1563 422 1919 422 
Q 2459 422 2753 634 
Q 3047 847 3047 1241 
Q 3047 1584 2836 1778 
Q 2625 1972 2144 2069 
L 1759 2144 
Q 1053 2284 737 2584 
Q 422 2884 422 3419 
Q 422 4038 858 4394 
Q 1294 4750 2059 4750 
Q 2388 4750 2728 4690 
Q 3069 4631 3425 4513 
z
" transform="scale(0.015625)"/>
       </defs>
       <use xlink:href="#DejaVuSans-48"/>
       <use xlink:href="#DejaVuSans-61" transform="translate(75.195312 0)"/>
       <use xlink:href="#DejaVuSans-75" transform="translate(136.474609 0)"/>
       <use xlink:href="#DejaVuSans-68" transform="translate(199.853516 0)"/>
       <use xlink:href="#DejaVuSans-61" transform="translate(263.232422 0)"/>
       <use xlink:href="#DejaVuSans-75" transform="translate(324.511719 0)"/>
       <use xlink:href="#DejaVuSans-43" transform="translate(387.890625 0)"/>
       <use xlink:href="#DejaVuSans-53" transform="translate(457.714844 0)"/>
      </g>
     </g>
    </g>
    <g id="xtick_3">
     <g id="line2d_3">
      <path d="M 529.620091 356.477812 
L 529.620091 23.837812 
" clip-path="url(#p8ec6f30c08)" style="fill: none; stroke: #cccccc; stroke-linecap: round"/>
     </g>
     <g id="text_3">
      <!-- Huihui -->
      <g style="fill: #262626" transform="translate(510.366653 375.095937) scale(0.12 -0.12)">
       <use xlink:href="#DejaVuSans-48"/>
       <use xlink:href="#DejaVuSans-75" transform="translate(75.195312 0)"/>
       <use xlink:href="#DejaVuSans-69" transform="translate(138.574219 0)"/>
       <use xlink:href="#DejaVuSans-68" transform="translate(166.357422 0)"/>
       <use xlink:href="#DejaVuSans-75" transform="translate(229.736328 0)"/>
       <use xlink:href="#DejaVuSans-69" transform="translate(293.115234 0)"/>
      </g>
     </g>
    </g>
   </g>
   <g id="matplotlib.axis_2">
    <g id="ytick_1">
     <g id="line2d_4">
      <path d="M 47.711 341.743883 
L 605.711 341.743883 
" clip-path="url(#p8ec6f30c08)" style="fill: none; stroke: #cccccc; stroke-linecap: round"/>
     </g>
     <g id="text_4">
      <!-- 0 -->
      <g style="fill: #262626" transform="translate(30.512375 346.340938) scale(0.121 -0.121)">
       <defs>
        <path id="DejaVuSans-30" d="M 2034 4250 
Q 1547 4250 1301 3770 
Q 1056 3291 1056 2328 
Q 1056 1369 1301 889 
Q 1547 409 2034 409 
Q 2525 409 2770 889 
Q 3016 1369 3016 2328 
Q 3016 3291 2770 3770 
Q 2525 4250 2034 4250 
z
M 2034 4750 
Q 2819 4750 3233 4129 
Q 3647 3509 3647 2328 
Q 3647 1150 3233 529 
Q 2819 -91 2034 -91 
Q 1250 -91 836 529 
Q 422 1150 422 2328 
Q 422 3509 836 4129 
Q 1250 4750 2034 4750 
z
" transform="scale(0.015625)"/>
       </defs>
       <use xlink:href="#DejaVuSans-30"/>
      </g>
     </g>
    </g>
    <g id="ytick_2">
     <g id="line2d_5">
      <path d="M 47.711 284.042444 
L 605.711 284.042444 
" clip-path="url(#p8ec6f30c08)" style="fill: none; stroke: #cccccc; stroke-linecap: round"/>
     </g>
     <g id="text_5">
      <!-- 2 -->
      <g style="fill: #262626" transform="translate(30.512375 288.639499) scale(0.121 -0.121)">
       <defs>
        <path id="DejaVuSans-32" d="M 1228 531 
L 3431 531 
L 3431 0 
L 469 0 
L 469 531 
Q 828 903 1448 1529 
Q 2069 2156 2228 2338 
Q 2531 2678 2651 2914 
Q 2772 3150 2772 3378 
Q 2772 3750 2511 3984 
Q 2250 4219 1831 4219 
Q 1534 4219 1204 4116 
Q 875 4013 500 3803 
L 500 4441 
Q 881 4594 1212 4672 
Q 1544 4750 1819 4750 
Q 2544 4750 2975 4387 
Q 3406 4025 3406 3419 
Q 3406 3131 3298 2873 
Q 3191 2616 2906 2266 
Q 2828 2175 2409 1742 
Q 1991 1309 1228 531 
z
" transform="scale(0.015625)"/>
       </defs>
       <use xlink:href="#DejaVuSans-32"/>
      </g>
     </g>
    </g>
    <g id="ytick_3">
     <g id="line2d_6">
      <path d="M 47.711 226.341005 
L 605.711 226.341005 
" clip-path="url(#p8ec6f30c08)" style="fill: none; stroke: #cccccc; stroke-linecap: round"/>
     </g>
     <g id="text_6">
      <!-- 4 -->
      <g style="fill: #262626" transform="translate(30.512375 230.938059) scale(0.121 -0.121)">
       <defs>
        <path id="DejaVuSans-34" d="M 2419 4116 
L 825 1625 
L 2419 1625 
L 2419 4116 
z
M 2253 4666 
L 3047 4666 
L 3047 1625 
L 3713 1625 
L 3713 1100 
L 3047 1100 
L 3047 0 
L 2419 0 
L 2419 1100 
L 313 1100 
L 313 1709 
L 2253 4666 
z
" transform="scale(0.015625)"/>
       </defs>
       <use xlink:href="#DejaVuSans-34"/>
      </g>
     </g>
    </g>
    <g id="ytick_4">
     <g id="line2d_7">
      <path d="M 47.711 168.639565 
L 605.711 168.639565 
" clip-path="url(#p8ec6f30c08)" style="fill: none; stroke: #cccccc; stroke-linecap: round"/>
     </g>
     <g id="text_7">
      <!-- 6 -->
      <g style="fill: #262626" transform="translate(30.512375 173.23662) scale(0.121 -0.121)">
       <defs>
        <path id="DejaVuSans-36" d="M 2113 2584 
Q 1688 2584 1439 2293 
Q 1191 2003 1191 1497 
Q 1191 994 1439 701 
Q 1688 409 2113 409 
Q 2538 409 2786 701 
Q 3034 994 3034 1497 
Q 3034 2003 2786 2293 
Q 2538 2584 2113 2584 
z
M 3366 4563 
L 3366 3988 
Q 3128 4100 2886 4159 
Q 2644 4219 2406 4219 
Q 1781 4219 1451 3797 
Q 1122 3375 1075 2522 
Q 1259 2794 1537 2939 
Q 1816 3084 2150 3084 
Q 2853 3084 3261 2657 
Q 3669 2231 3669 1497 
Q 3669 778 3244 343 
Q 2819 -91 2113 -91 
Q 1303 -91 875 529 
Q 447 1150 447 2328 
Q 447 3434 972 4092 
Q 1497 4750 2381 4750 
Q 2619 4750 2861 4703 
Q 3103 4656 3366 4563 
z
" transform="scale(0.015625)"/>
       </defs>
       <use xlink:href="#DejaVuSans-36"/>
      </g>
     </g>
    </g>
    <g id="ytick_5">
     <g id="line2d_8">
      <path d="M 47.711 110.938126 
L 605.711 110.938126 
" clip-path="url(#p8ec6f30c08)" style="fill: none; stroke: #cccccc; stroke-linecap: round"/>
     </g>
     <g id="text_8">
      <!-- 8 -->
      <g style="fill: #262626" transform="translate(30.512375 115.535181) scale(0.121 -0.121)">
       <defs>
        <path id="DejaVuSans-38" d="M 2034 2216 
Q 1584 2216 1326 1975 
Q 1069 1734 1069 1313 
Q 1069 891 1326 650 
Q 1584 409 2034 409 
Q 2484 409 2743 651 
Q 3003 894 3003 1313 
Q 3003 1734 2745 1975 
Q 2488 2216 2034 2216 
z
M 1403 2484 
Q 997 2584 770 2862 
Q 544 3141 544 3541 
Q 544 4100 942 4425 
Q 1341 4750 2034 4750 
Q 2731 4750 3128 4425 
Q 3525 4100 3525 3541 
Q 3525 3141 3298 2862 
Q 3072 2584 2669 2484 
Q 3125 2378 3379 2068 
Q 3634 1759 3634 1313 
Q 3634 634 3220 271 
Q 2806 -91 2034 -91 
Q 1263 -91 848 271 
Q 434 634 434 1313 
Q 434 1759 690 2068 
Q 947 2378 1403 2484 
z
M 1172 3481 
Q 1172 3119 1398 2916 
Q 1625 2713 2034 2713 
Q 2441 2713 2670 2916 
Q 2900 3119 2900 3481 
Q 2900 3844 2670 4047 
Q 2441 4250 2034 4250 
Q 1625 4250 1398 4047 
Q 1172 3844 1172 3481 
z
" transform="scale(0.015625)"/>
       </defs>
       <use xlink:href="#DejaVuSans-38"/>
      </g>
     </g>
    </g>
    <g id="ytick_6">
     <g id="line2d_9">
      <path d="M 47.711 53.236687 
L 605.711 53.236687 
" clip-path="url(#p8ec6f30c08)" style="fill: none; stroke: #cccccc; stroke-linecap: round"/>
     </g>
     <g id="text_9">
      <!-- 10 -->
      <g style="fill: #262626" transform="translate(22.81375 57.833741) scale(0.121 -0.121)">
       <defs>
        <path id="DejaVuSans-31" d="M 794 531 
L 1825 531 
L 1825 4091 
L 703 3866 
L 703 4441 
L 1819 4666 
L 2450 4666 
L 2450 531 
L 3481 531 
L 3481 0 
L 794 0 
L 794 531 
z
" transform="scale(0.015625)"/>
       </defs>
       <use xlink:href="#DejaVuSans-31"/>
       <use xlink:href="#DejaVuSans-30" transform="translate(63.623047 0)"/>
      </g>
     </g>
    </g>
    <g id="text_10">
     <!-- Edit Norm -->
     <g style="fill: #262626" transform="translate(16.318125 220.05) rotate(-90) scale(0.12 -0.12)">
      <defs>
       <path id="DejaVuSans-45" d="M 628 4666 
L 3578 4666 
L 3578 4134 
L 1259 4134 
L 1259 2753 
L 3481 2753 
L 3481 2222 
L 1259 2222 
L 1259 531 
L 3634 531 
L 3634 0 
L 628 0 
L 628 4666 
z
" transform="scale(0.015625)"/>
       <path id="DejaVuSans-64" d="M 2906 2969 
L 2906 4863 
L 3481 4863 
L 3481 0 
L 2906 0 
L 2906 525 
Q 2725 213 2448 61 
Q 2172 -91 1784 -91 
Q 1150 -91 751 415 
Q 353 922 353 1747 
Q 353 2572 751 3078 
Q 1150 3584 1784 3584 
Q 2172 3584 2448 3432 
Q 2725 3281 2906 2969 
z
M 947 1747 
Q 947 1113 1208 752 
Q 1469 391 1925 391 
Q 2381 391 2643 752 
Q 2906 1113 2906 1747 
Q 2906 2381 2643 2742 
Q 2381 3103 1925 3103 
Q 1469 3103 1208 2742 
Q 947 2381 947 1747 
z
" transform="scale(0.015625)"/>
       <path id="DejaVuSans-20" transform="scale(0.015625)"/>
       <path id="DejaVuSans-4e" d="M 628 4666 
L 1478 4666 
L 3547 763 
L 3547 4666 
L 4159 4666 
L 4159 0 
L 3309 0 
L 1241 3903 
L 1241 0 
L 628 0 
L 628 4666 
z
" transform="scale(0.015625)"/>
       <path id="DejaVuSans-6f" d="M 1959 3097 
Q 1497 3097 1228 2736 
Q 959 2375 959 1747 
Q 959 1119 1226 758 
Q 1494 397 1959 397 
Q 2419 397 2687 759 
Q 2956 1122 2956 1747 
Q 2956 2369 2687 2733 
Q 2419 3097 1959 3097 
z
M 1959 3584 
Q 2709 3584 3137 3096 
Q 3566 2609 3566 1747 
Q 3566 888 3137 398 
Q 2709 -91 1959 -91 
Q 1206 -91 779 398 
Q 353 888 353 1747 
Q 353 2609 779 3096 
Q 1206 3584 1959 3584 
z
" transform="scale(0.015625)"/>
       <path id="DejaVuSans-6d" d="M 3328 2828 
Q 3544 3216 3844 3400 
Q 4144 3584 4550 3584 
Q 5097 3584 5394 3201 
Q 5691 2819 5691 2113 
L 5691 0 
L 5113 0 
L 5113 2094 
Q 5113 2597 4934 2840 
Q 4756 3084 4391 3084 
Q 3944 3084 3684 2787 
Q 3425 2491 3425 1978 
L 3425 0 
L 2847 0 
L 2847 2094 
Q 2847 2600 2669 2842 
Q 2491 3084 2119 3084 
Q 1678 3084 1418 2786 
Q 1159 2488 1159 1978 
L 1159 0 
L 581 0 
L 581 3500 
L 1159 3500 
L 1159 2956 
Q 1356 3278 1631 3431 
Q 1906 3584 2284 3584 
Q 2666 3584 2933 3390 
Q 3200 3197 3328 2828 
z
" transform="scale(0.015625)"/>
      </defs>
      <use xlink:href="#DejaVuSans-45"/>
      <use xlink:href="#DejaVuSans-64" transform="translate(63.183594 0)"/>
      <use xlink:href="#DejaVuSans-69" transform="translate(126.660156 0)"/>
      <use xlink:href="#DejaVuSans-74" transform="translate(154.443359 0)"/>
      <use xlink:href="#DejaVuSans-20" transform="translate(193.652344 0)"/>
      <use xlink:href="#DejaVuSans-4e" transform="translate(225.439453 0)"/>
      <use xlink:href="#DejaVuSans-6f" transform="translate(300.244141 0)"/>
      <use xlink:href="#DejaVuSans-72" transform="translate(361.425781 0)"/>
      <use xlink:href="#DejaVuSans-6d" transform="translate(400.789062 0)"/>
     </g>
    </g>
   </g>
   <g id="FillBetweenPolyCollection_1">
    <defs>
     <path id="m2bf6e32982" d="M 174.360791 -43.43375 
L 73.243027 -43.43375 
L 73.074636 -44.282097 
L 73.079788 -45.130444 
L 73.254728 -45.978792 
L 73.593535 -46.827139 
L 74.088235 -47.675486 
L 74.72896 -48.523833 
L 75.50413 -49.37218 
L 76.400682 -50.220528 
L 77.404312 -51.068875 
L 78.499744 -51.917222 
L 79.671003 -52.765569 
L 80.901703 -53.613916 
L 82.175321 -54.462264 
L 83.475477 -55.310611 
L 84.786183 -56.158958 
L 86.092089 -57.007305 
L 87.378694 -57.855652 
L 88.632529 -58.704 
L 89.84132 -59.552347 
L 90.994105 -60.400694 
L 92.081326 -61.249041 
L 93.094889 -62.097388 
L 94.02819 -62.945736 
L 94.876108 -63.794083 
L 95.63498 -64.64243 
L 96.30254 -65.490777 
L 96.877848 -66.339124 
L 97.361195 -67.187472 
L 97.753993 -68.035819 
L 98.058665 -68.884166 
L 98.278512 -69.732513 
L 98.417596 -70.58086 
L 98.480606 -71.429208 
L 98.472736 -72.277555 
L 98.399567 -73.125902 
L 98.26695 -73.974249 
L 98.080908 -74.822596 
L 97.847531 -75.670944 
L 97.5729 -76.519291 
L 97.263006 -77.367638 
L 96.923687 -78.215985 
L 96.560577 -79.064332 
L 96.179058 -79.91268 
L 95.784229 -80.761027 
L 95.380882 -81.609374 
L 94.973483 -82.457721 
L 94.566164 -83.306068 
L 94.162724 -84.154416 
L 93.76663 -85.002763 
L 93.381029 -85.85111 
L 93.008761 -86.699457 
L 92.652375 -87.547804 
L 92.314151 -88.396152 
L 91.996123 -89.244499 
L 91.700101 -90.092846 
L 91.427693 -90.941193 
L 91.180336 -91.78954 
L 90.959309 -92.637888 
L 90.765763 -93.486235 
L 90.600738 -94.334582 
L 90.465181 -95.182929 
L 90.359959 -96.031276 
L 90.285876 -96.879623 
L 90.243679 -97.727971 
L 90.234064 -98.576318 
L 90.257682 -99.424665 
L 90.315136 -100.273012 
L 90.406981 -101.121359 
L 90.533716 -101.969707 
L 90.695782 -102.818054 
L 90.893545 -103.666401 
L 91.127293 -104.514748 
L 91.39722 -105.363095 
L 91.703415 -106.211443 
L 92.04585 -107.05979 
L 92.42437 -107.908137 
L 92.838677 -108.756484 
L 93.288329 -109.604831 
L 93.772721 -110.453179 
L 94.291087 -111.301526 
L 94.842491 -112.149873 
L 95.425826 -112.99822 
L 96.039812 -113.846567 
L 96.682998 -114.694915 
L 97.353769 -115.543262 
L 98.050347 -116.391609 
L 98.770803 -117.239956 
L 99.513063 -118.088303 
L 100.274923 -118.936651 
L 101.054063 -119.784998 
L 101.848057 -120.633345 
L 102.654393 -121.481692 
L 103.47049 -122.330039 
L 104.293713 -123.178387 
L 105.121394 -124.026734 
L 105.950853 -124.875081 
L 106.779413 -125.723428 
L 107.604424 -126.571775 
L 108.423282 -127.420123 
L 139.180536 -127.420123 
L 139.180536 -127.420123 
L 139.999394 -126.571775 
L 140.824405 -125.723428 
L 141.652966 -124.875081 
L 142.482424 -124.026734 
L 143.310106 -123.178387 
L 144.133328 -122.330039 
L 144.949425 -121.481692 
L 145.755761 -120.633345 
L 146.549755 -119.784998 
L 147.328895 -118.936651 
L 148.090756 -118.088303 
L 148.833015 -117.239956 
L 149.553471 -116.391609 
L 150.250049 -115.543262 
L 150.92082 -114.694915 
L 151.564007 -113.846567 
L 152.177992 -112.99822 
L 152.761327 -112.149873 
L 153.312731 -111.301526 
L 153.831097 -110.453179 
L 154.315489 -109.604831 
L 154.765141 -108.756484 
L 155.179449 -107.908137 
L 155.557968 -107.05979 
L 155.900403 -106.211443 
L 156.206598 -105.363095 
L 156.476525 -104.514748 
L 156.710273 -103.666401 
L 156.908036 -102.818054 
L 157.070102 -101.969707 
L 157.196838 -101.121359 
L 157.288682 -100.273012 
L 157.346136 -99.424665 
L 157.369754 -98.576318 
L 157.360139 -97.727971 
L 157.317942 -96.879623 
L 157.243859 -96.031276 
L 157.138638 -95.182929 
L 157.00308 -94.334582 
L 156.838055 -93.486235 
L 156.64451 -92.637888 
L 156.423483 -91.78954 
L 156.176125 -90.941193 
L 155.903718 -90.092846 
L 155.607695 -89.244499 
L 155.289667 -88.396152 
L 154.951444 -87.547804 
L 154.595057 -86.699457 
L 154.222789 -85.85111 
L 153.837188 -85.002763 
L 153.441095 -84.154416 
L 153.037654 -83.306068 
L 152.630336 -82.457721 
L 152.222936 -81.609374 
L 151.819589 -80.761027 
L 151.42476 -79.91268 
L 151.043241 -79.064332 
L 150.680131 -78.215985 
L 150.340813 -77.367638 
L 150.030918 -76.519291 
L 149.756287 -75.670944 
L 149.52291 -74.822596 
L 149.336868 -73.974249 
L 149.204252 -73.125902 
L 149.131082 -72.277555 
L 149.123212 -71.429208 
L 149.186222 -70.58086 
L 149.325306 -69.732513 
L 149.545154 -68.884166 
L 149.849825 -68.035819 
L 150.242624 -67.187472 
L 150.72597 -66.339124 
L 151.301278 -65.490777 
L 151.968839 -64.64243 
L 152.72771 -63.794083 
L 153.575628 -62.945736 
L 154.508929 -62.097388 
L 155.522492 -61.249041 
L 156.609713 -60.400694 
L 157.762498 -59.552347 
L 158.971289 -58.704 
L 160.225125 -57.855652 
L 161.511729 -57.007305 
L 162.817635 -56.158958 
L 164.128342 -55.310611 
L 165.428497 -54.462264 
L 166.702116 -53.613916 
L 167.932815 -52.765569 
L 169.104074 -51.917222 
L 170.199506 -51.068875 
L 171.203136 -50.220528 
L 172.099688 -49.37218 
L 172.874858 -48.523833 
L 173.515583 -47.675486 
L 174.010284 -46.827139 
L 174.34909 -45.978792 
L 174.52403 -45.130444 
L 174.529182 -44.282097 
L 174.360791 -43.43375 
z
" style="stroke: #ffffff; stroke-opacity: 0.7"/>
    </defs>
    <g clip-path="url(#p8ec6f30c08)">
     <use xlink:href="#m2bf6e32982" x="0" y="384.791562" style="fill: #3498db; fill-opacity: 0.7; stroke: #ffffff; stroke-opacity: 0.7"/>
    </g>
   </g>
   <g id="FillBetweenPolyCollection_2">
    <defs>
     <path id="me3c34bf1df" d="M 372.655122 -43.43375 
L 280.766878 -43.43375 
L 279.447504 -44.03133 
L 278.332688 -44.62891 
L 277.430756 -45.22649 
L 276.746147 -45.824071 
L 276.279439 -46.421651 
L 276.027496 -47.019231 
L 275.983727 -47.616811 
L 276.138438 -48.214391 
L 276.479262 -48.811971 
L 276.991637 -49.409552 
L 277.659321 -50.007132 
L 278.464909 -50.604712 
L 279.390337 -51.202292 
L 280.417355 -51.799872 
L 281.527955 -52.397452 
L 282.704736 -52.995033 
L 283.931203 -53.592613 
L 285.192006 -54.190193 
L 286.473101 -54.787773 
L 287.761849 -55.385353 
L 289.047063 -55.982933 
L 290.319001 -56.580513 
L 291.569319 -57.178094 
L 292.790992 -57.775674 
L 293.978219 -58.373254 
L 295.126314 -58.970834 
L 296.231589 -59.568414 
L 297.29124 -60.165994 
L 298.303241 -60.763575 
L 299.266247 -61.361155 
L 300.179502 -61.958735 
L 301.042766 -62.556315 
L 301.856245 -63.153895 
L 302.620538 -63.751475 
L 303.33659 -64.349056 
L 304.005646 -64.946636 
L 304.629218 -65.544216 
L 305.209052 -66.141796 
L 305.747095 -66.739376 
L 306.245469 -67.336956 
L 306.706445 -67.934536 
L 307.132409 -68.532117 
L 307.525847 -69.129697 
L 307.889311 -69.727277 
L 308.2254 -70.324857 
L 308.536739 -70.922437 
L 308.825956 -71.520017 
L 309.095663 -72.117598 
L 309.348438 -72.715178 
L 309.58681 -73.312758 
L 309.813239 -73.910338 
L 310.0301 -74.507918 
L 310.23967 -75.105498 
L 310.444105 -75.703079 
L 310.645427 -76.300659 
L 310.845504 -76.898239 
L 311.046033 -77.495819 
L 311.248525 -78.093399 
L 311.454282 -78.690979 
L 311.664389 -79.288559 
L 311.879699 -79.88614 
L 312.100825 -80.48372 
L 312.32813 -81.0813 
L 312.561732 -81.67888 
L 312.801502 -82.27646 
L 313.047076 -82.87404 
L 313.297866 -83.471621 
L 313.553078 -84.069201 
L 313.811734 -84.666781 
L 314.072703 -85.264361 
L 314.334731 -85.861941 
L 314.596479 -86.459521 
L 314.856562 -87.057102 
L 315.113591 -87.654682 
L 315.366223 -88.252262 
L 315.613208 -88.849842 
L 315.853433 -89.447422 
L 316.085974 -90.045002 
L 316.310141 -90.642582 
L 316.525512 -91.240163 
L 316.731974 -91.837743 
L 316.929746 -92.435323 
L 317.119389 -93.032903 
L 317.301816 -93.630483 
L 317.478275 -94.228063 
L 317.650325 -94.825644 
L 317.819794 -95.423224 
L 317.988725 -96.020804 
L 318.159311 -96.618384 
L 318.333812 -97.215964 
L 318.514475 -97.813544 
L 318.703442 -98.411125 
L 318.902661 -99.008705 
L 319.113808 -99.606285 
L 319.338203 -100.203865 
L 319.576754 -100.801445 
L 319.829907 -101.399025 
L 320.097616 -101.996605 
L 320.379338 -102.594186 
L 333.042662 -102.594186 
L 333.042662 -102.594186 
L 333.324384 -101.996605 
L 333.592093 -101.399025 
L 333.845246 -100.801445 
L 334.083797 -100.203865 
L 334.308192 -99.606285 
L 334.519339 -99.008705 
L 334.718558 -98.411125 
L 334.907525 -97.813544 
L 335.088188 -97.215964 
L 335.262689 -96.618384 
L 335.433275 -96.020804 
L 335.602206 -95.423224 
L 335.771675 -94.825644 
L 335.943725 -94.228063 
L 336.120184 -93.630483 
L 336.302611 -93.032903 
L 336.492254 -92.435323 
L 336.690026 -91.837743 
L 336.896488 -91.240163 
L 337.111859 -90.642582 
L 337.336026 -90.045002 
L 337.568567 -89.447422 
L 337.808792 -88.849842 
L 338.055777 -88.252262 
L 338.308409 -87.654682 
L 338.565438 -87.057102 
L 338.825521 -86.459521 
L 339.087269 -85.861941 
L 339.349297 -85.264361 
L 339.610266 -84.666781 
L 339.868922 -84.069201 
L 340.124134 -83.471621 
L 340.374924 -82.87404 
L 340.620498 -82.27646 
L 340.860268 -81.67888 
L 341.09387 -81.0813 
L 341.321175 -80.48372 
L 341.542301 -79.88614 
L 341.757611 -79.288559 
L 341.967718 -78.690979 
L 342.173475 -78.093399 
L 342.375967 -77.495819 
L 342.576496 -76.898239 
L 342.776573 -76.300659 
L 342.977895 -75.703079 
L 343.18233 -75.105498 
L 343.3919 -74.507918 
L 343.608761 -73.910338 
L 343.83519 -73.312758 
L 344.073562 -72.715178 
L 344.326337 -72.117598 
L 344.596044 -71.520017 
L 344.885261 -70.922437 
L 345.1966 -70.324857 
L 345.532689 -69.727277 
L 345.896153 -69.129697 
L 346.289591 -68.532117 
L 346.715555 -67.934536 
L 347.176531 -67.336956 
L 347.674905 -66.739376 
L 348.212948 -66.141796 
L 348.792782 -65.544216 
L 349.416354 -64.946636 
L 350.08541 -64.349056 
L 350.801462 -63.751475 
L 351.565755 -63.153895 
L 352.379234 -62.556315 
L 353.242498 -61.958735 
L 354.155753 -61.361155 
L 355.118759 -60.763575 
L 356.13076 -60.165994 
L 357.190411 -59.568414 
L 358.295686 -58.970834 
L 359.443781 -58.373254 
L 360.631008 -57.775674 
L 361.852681 -57.178094 
L 363.102999 -56.580513 
L 364.374937 -55.982933 
L 365.660151 -55.385353 
L 366.948899 -54.787773 
L 368.229994 -54.190193 
L 369.490797 -53.592613 
L 370.717264 -52.995033 
L 371.894045 -52.397452 
L 373.004645 -51.799872 
L 374.031663 -51.202292 
L 374.957091 -50.604712 
L 375.762679 -50.007132 
L 376.430363 -49.409552 
L 376.942738 -48.811971 
L 377.283562 -48.214391 
L 377.438273 -47.616811 
L 377.394504 -47.019231 
L 377.142561 -46.421651 
L 376.675853 -45.824071 
L 375.991244 -45.22649 
L 375.089312 -44.62891 
L 373.974496 -44.03133 
L 372.655122 -43.43375 
z
" style="stroke: #ffffff; stroke-opacity: 0.7"/>
    </defs>
    <g clip-path="url(#p8ec6f30c08)">
     <use xlink:href="#me3c34bf1df" x="0" y="384.791562" style="fill: #e74c3c; fill-opacity: 0.7; stroke: #ffffff; stroke-opacity: 0.7"/>
    </g>
   </g>
   <g id="FillBetweenPolyCollection_3">
    <defs>
     <path id="m538c0fa11d" d="M 558.571629 -43.43375 
L 500.668552 -43.43375 
L 499.97843 -46.488295 
L 499.427348 -49.542841 
L 499.003561 -52.597386 
L 498.690714 -55.651932 
L 498.468751 -58.706477 
L 498.314983 -61.761023 
L 498.205277 -64.815568 
L 498.115249 -67.870114 
L 498.021419 -70.924659 
L 497.902234 -73.979205 
L 497.738919 -77.03375 
L 497.516097 -80.088295 
L 497.222186 -83.142841 
L 496.849542 -86.197386 
L 496.394391 -89.251932 
L 495.856553 -92.306477 
L 495.239037 -95.361023 
L 494.547513 -98.415568 
L 493.789745 -101.470114 
L 492.975004 -104.524659 
L 492.113523 -107.579205 
L 491.216002 -110.63375 
L 490.2932 -113.688295 
L 489.355621 -116.742841 
L 488.413285 -119.797386 
L 487.475597 -122.851932 
L 486.551291 -125.906477 
L 485.648437 -128.961023 
L 484.774504 -132.015568 
L 483.93645 -135.070114 
L 483.140845 -138.124659 
L 482.393992 -141.179205 
L 481.702052 -144.23375 
L 481.071155 -147.288295 
L 480.507478 -150.342841 
L 480.017304 -153.397386 
L 479.607028 -156.451932 
L 479.283113 -159.506477 
L 479.051999 -162.561023 
L 478.919945 -165.615568 
L 478.892818 -168.670114 
L 478.97583 -171.724659 
L 479.173236 -174.779205 
L 479.488006 -177.83375 
L 479.921494 -180.888295 
L 480.473133 -183.942841 
L 481.140166 -186.997386 
L 481.917459 -190.051932 
L 482.797396 -193.106477 
L 483.769901 -196.161023 
L 484.822565 -199.215568 
L 485.94091 -202.270114 
L 487.108767 -205.324659 
L 488.308759 -208.379205 
L 489.522869 -211.43375 
L 490.733053 -214.488295 
L 491.921887 -217.542841 
L 493.073182 -220.597386 
L 494.172565 -223.651932 
L 495.207968 -226.706477 
L 496.170019 -229.761023 
L 497.052292 -232.815568 
L 497.851435 -235.870114 
L 498.567147 -238.924659 
L 499.202021 -241.979205 
L 499.761264 -245.03375 
L 500.252326 -248.088295 
L 500.684435 -251.142841 
L 501.06811 -254.197386 
L 501.414634 -257.251932 
L 501.735558 -260.306477 
L 502.042237 -263.361023 
L 502.34543 -266.415568 
L 502.654976 -269.470114 
L 502.979559 -272.524659 
L 503.326565 -275.579205 
L 503.702023 -278.63375 
L 504.110622 -281.688295 
L 504.555791 -284.742841 
L 505.039826 -287.797386 
L 505.564037 -290.851932 
L 506.12891 -293.906477 
L 506.734255 -296.961023 
L 507.379333 -300.015568 
L 508.062954 -303.070114 
L 508.783541 -306.124659 
L 509.539155 -309.179205 
L 510.327499 -312.23375 
L 511.14589 -315.288295 
L 511.991232 -318.342841 
L 512.859974 -321.397386 
L 513.748094 -324.451932 
L 514.651087 -327.506477 
L 515.563987 -330.561023 
L 516.481418 -333.615568 
L 517.39767 -336.670114 
L 518.30681 -339.724659 
L 519.202808 -342.779205 
L 520.079684 -345.83375 
L 539.160497 -345.83375 
L 539.160497 -345.83375 
L 540.037374 -342.779205 
L 540.933372 -339.724659 
L 541.842512 -336.670114 
L 542.758764 -333.615568 
L 543.676195 -330.561023 
L 544.589095 -327.506477 
L 545.492087 -324.451932 
L 546.380207 -321.397386 
L 547.24895 -318.342841 
L 548.094292 -315.288295 
L 548.912683 -312.23375 
L 549.701027 -309.179205 
L 550.456641 -306.124659 
L 551.177228 -303.070114 
L 551.860849 -300.015568 
L 552.505927 -296.961023 
L 553.111272 -293.906477 
L 553.676145 -290.851932 
L 554.200356 -287.797386 
L 554.68439 -284.742841 
L 555.12956 -281.688295 
L 555.538159 -278.63375 
L 555.913617 -275.579205 
L 556.260623 -272.524659 
L 556.585206 -269.470114 
L 556.894752 -266.415568 
L 557.197945 -263.361023 
L 557.504624 -260.306477 
L 557.825548 -257.251932 
L 558.172072 -254.197386 
L 558.555746 -251.142841 
L 558.987856 -248.088295 
L 559.478917 -245.03375 
L 560.038161 -241.979205 
L 560.673035 -238.924659 
L 561.388747 -235.870114 
L 562.18789 -232.815568 
L 563.070163 -229.761023 
L 564.032213 -226.706477 
L 565.067617 -223.651932 
L 566.167 -220.597386 
L 567.318295 -217.542841 
L 568.507128 -214.488295 
L 569.717313 -211.43375 
L 570.931422 -208.379205 
L 572.131415 -205.324659 
L 573.299272 -202.270114 
L 574.417617 -199.215568 
L 575.47028 -196.161023 
L 576.442785 -193.106477 
L 577.322723 -190.051932 
L 578.100015 -186.997386 
L 578.767049 -183.942841 
L 579.318688 -180.888295 
L 579.752176 -177.83375 
L 580.066946 -174.779205 
L 580.264351 -171.724659 
L 580.347364 -168.670114 
L 580.320237 -165.615568 
L 580.188183 -162.561023 
L 579.957069 -159.506477 
L 579.633154 -156.451932 
L 579.222878 -153.397386 
L 578.732704 -150.342841 
L 578.169027 -147.288295 
L 577.538129 -144.23375 
L 576.84619 -141.179205 
L 576.099337 -138.124659 
L 575.303732 -135.070114 
L 574.465678 -132.015568 
L 573.591745 -128.961023 
L 572.688891 -125.906477 
L 571.764585 -122.851932 
L 570.826897 -119.797386 
L 569.884561 -116.742841 
L 568.946982 -113.688295 
L 568.02418 -110.63375 
L 567.126659 -107.579205 
L 566.265178 -104.524659 
L 565.450437 -101.470114 
L 564.692669 -98.415568 
L 564.001145 -95.361023 
L 563.383629 -92.306477 
L 562.845791 -89.251932 
L 562.390639 -86.197386 
L 562.017996 -83.142841 
L 561.724085 -80.088295 
L 561.501263 -77.03375 
L 561.337947 -73.979205 
L 561.218763 -70.924659 
L 561.124933 -67.870114 
L 561.034905 -64.815568 
L 560.925198 -61.761023 
L 560.771431 -58.706477 
L 560.549467 -55.651932 
L 560.236621 -52.597386 
L 559.812834 -49.542841 
L 559.261752 -46.488295 
L 558.571629 -43.43375 
z
" style="stroke: #ffffff; stroke-opacity: 0.7"/>
    </defs>
    <g clip-path="url(#p8ec6f30c08)">
     <use xlink:href="#m538c0fa11d" x="0" y="384.791562" style="fill: #2ecc71; fill-opacity: 0.7; stroke: #ffffff; stroke-opacity: 0.7"/>
    </g>
   </g>
   <g id="LineCollection_1">
    <path d="M 98.438273 312.071344 
L 149.165545 312.071344 
" clip-path="url(#p8ec6f30c08)" style="fill: none; stroke: #4878d0; stroke-width: 1.5"/>
    <path d="M 301.347364 325.497874 
L 352.074636 325.497874 
" clip-path="url(#p8ec6f30c08)" style="fill: none; stroke: #4878d0; stroke-width: 1.5"/>
    <path d="M 504.256455 217.023842 
L 554.983727 217.023842 
" clip-path="url(#p8ec6f30c08)" style="fill: none; stroke: #4878d0; stroke-width: 1.5"/>
   </g>
   <g id="LineCollection_2">
    <path d="M 98.438273 257.37144 
L 149.165545 257.37144 
" clip-path="url(#p8ec6f30c08)" style="fill: none; stroke: #4878d0; stroke-width: 1.5"/>
    <path d="M 301.347364 282.197377 
L 352.074636 282.197377 
" clip-path="url(#p8ec6f30c08)" style="fill: none; stroke: #4878d0; stroke-width: 1.5"/>
    <path d="M 504.256455 38.957812 
L 554.983727 38.957812 
" clip-path="url(#p8ec6f30c08)" style="fill: none; stroke: #4878d0; stroke-width: 1.5"/>
   </g>
   <g id="LineCollection_3">
    <path d="M 98.438273 341.357812 
L 149.165545 341.357812 
" clip-path="url(#p8ec6f30c08)" style="fill: none; stroke: #4878d0; stroke-width: 1.5"/>
    <path d="M 301.347364 341.357812 
L 352.074636 341.357812 
" clip-path="url(#p8ec6f30c08)" style="fill: none; stroke: #4878d0; stroke-width: 1.5"/>
    <path d="M 504.256455 341.357812 
L 554.983727 341.357812 
" clip-path="url(#p8ec6f30c08)" style="fill: none; stroke: #4878d0; stroke-width: 1.5"/>
   </g>
   <g id="LineCollection_4">
    <path d="M 123.801909 341.357812 
L 123.801909 257.37144 
" clip-path="url(#p8ec6f30c08)" style="fill: none; stroke: #4878d0; stroke-width: 1.5"/>
    <path d="M 326.711 341.357812 
L 326.711 282.197377 
" clip-path="url(#p8ec6f30c08)" style="fill: none; stroke: #4878d0; stroke-width: 1.5"/>
    <path d="M 529.620091 341.357812 
L 529.620091 38.957812 
" clip-path="url(#p8ec6f30c08)" style="fill: none; stroke: #4878d0; stroke-width: 1.5"/>
   </g>
   <g id="LineCollection_5">
    <path d="M 98.438273 316.929241 
L 149.165545 316.929241 
" clip-path="url(#p8ec6f30c08)" style="fill: none; stroke: #4878d0; stroke-width: 1.5"/>
    <path d="M 301.347364 332.461599 
L 352.074636 332.461599 
" clip-path="url(#p8ec6f30c08)" style="fill: none; stroke: #4878d0; stroke-width: 1.5"/>
    <path d="M 504.256455 220.522744 
L 554.983727 220.522744 
" clip-path="url(#p8ec6f30c08)" style="fill: none; stroke: #4878d0; stroke-width: 1.5"/>
   </g>
   <g id="patch_3">
    <path d="M 47.711 356.477812 
L 47.711 23.837812 
" style="fill: none; stroke: #cccccc; stroke-width: 1.25; stroke-linejoin: miter; stroke-linecap: square"/>
   </g>
   <g id="patch_4">
    <path d="M 605.711 356.477812 
L 605.711 23.837812 
" style="fill: none; stroke: #cccccc; stroke-width: 1.25; stroke-linejoin: miter; stroke-linecap: square"/>
   </g>
   <g id="patch_5">
    <path d="M 47.711 356.477812 
L 605.711 356.477812 
" style="fill: none; stroke: #cccccc; stroke-width: 1.25; stroke-linejoin: miter; stroke-linecap: square"/>
   </g>
   <g id="patch_6">
    <path d="M 47.711 23.837812 
L 605.711 23.837812 
" style="fill: none; stroke: #cccccc; stroke-width: 1.25; stroke-linejoin: miter; stroke-linecap: square"/>
   </g>
   <g id="text_11">
    <!-- Qwen3.5-4B Distribution of Per-Tensor Edit Magnitudes -->
    <g style="fill: #262626" transform="translate(108.822875 17.837812) scale(0.14 -0.14)">
     <defs>
      <path id="DejaVuSans-Bold-51" d="M 2847 -84 
L 2753 -84 
Q 1600 -84 959 553 
Q 319 1191 319 2328 
Q 319 3463 958 4106 
Q 1597 4750 2719 4750 
Q 3853 4750 4486 4112 
Q 5119 3475 5119 2328 
Q 5119 1541 4783 972 
Q 4447 403 3816 116 
L 4756 -934 
L 3609 -934 
L 2847 -84 
z
M 2719 3878 
Q 2169 3878 1866 3472 
Q 1563 3066 1563 2328 
Q 1563 1578 1859 1179 
Q 2156 781 2719 781 
Q 3272 781 3575 1187 
Q 3878 1594 3878 2328 
Q 3878 3066 3575 3472 
Q 3272 3878 2719 3878 
z
" transform="scale(0.015625)"/>
      <path id="DejaVuSans-Bold-77" d="M 225 3500 
L 1313 3500 
L 1900 1088 
L 2491 3500 
L 3425 3500 
L 4013 1113 
L 4603 3500 
L 5691 3500 
L 4769 0 
L 3547 0 
L 2956 2406 
L 2369 0 
L 1147 0 
L 225 3500 
z
" transform="scale(0.015625)"/>
      <path id="DejaVuSans-Bold-65" d="M 4031 1759 
L 4031 1441 
L 1416 1441 
Q 1456 1047 1700 850 
Q 1944 653 2381 653 
Q 2734 653 3104 758 
Q 3475 863 3866 1075 
L 3866 213 
Q 3469 63 3072 -14 
Q 2675 -91 2278 -91 
Q 1328 -91 801 392 
Q 275 875 275 1747 
Q 275 2603 792 3093 
Q 1309 3584 2216 3584 
Q 3041 3584 3536 3087 
Q 4031 2591 4031 1759 
z
M 2881 2131 
Q 2881 2450 2695 2645 
Q 2509 2841 2209 2841 
Q 1884 2841 1681 2658 
Q 1478 2475 1428 2131 
L 2881 2131 
z
" transform="scale(0.015625)"/>
      <path id="DejaVuSans-Bold-6e" d="M 4056 2131 
L 4056 0 
L 2931 0 
L 2931 347 
L 2931 1631 
Q 2931 2084 2911 2256 
Q 2891 2428 2841 2509 
Q 2775 2619 2662 2680 
Q 2550 2741 2406 2741 
Q 2056 2741 1856 2470 
Q 1656 2200 1656 1722 
L 1656 0 
L 538 0 
L 538 3500 
L 1656 3500 
L 1656 2988 
Q 1909 3294 2193 3439 
Q 2478 3584 2822 3584 
Q 3428 3584 3742 3212 
Q 4056 2841 4056 2131 
z
" transform="scale(0.015625)"/>
      <path id="DejaVuSans-Bold-33" d="M 2981 2516 
Q 3453 2394 3698 2092 
Q 3944 1791 3944 1325 
Q 3944 631 3412 270 
Q 2881 -91 1863 -91 
Q 1503 -91 1142 -33 
Q 781 25 428 141 
L 428 1069 
Q 766 900 1098 814 
Q 1431 728 1753 728 
Q 2231 728 2486 893 
Q 2741 1059 2741 1369 
Q 2741 1688 2480 1852 
Q 2219 2016 1709 2016 
L 1228 2016 
L 1228 2791 
L 1734 2791 
Q 2188 2791 2409 2933 
Q 2631 3075 2631 3366 
Q 2631 3634 2415 3781 
Q 2200 3928 1806 3928 
Q 1516 3928 1219 3862 
Q 922 3797 628 3669 
L 628 4550 
Q 984 4650 1334 4700 
Q 1684 4750 2022 4750 
Q 2931 4750 3382 4451 
Q 3834 4153 3834 3553 
Q 3834 3144 3618 2883 
Q 3403 2622 2981 2516 
z
" transform="scale(0.015625)"/>
      <path id="DejaVuSans-Bold-2e" d="M 653 1209 
L 1778 1209 
L 1778 0 
L 653 0 
L 653 1209 
z
" transform="scale(0.015625)"/>
      <path id="DejaVuSans-Bold-35" d="M 678 4666 
L 3669 4666 
L 3669 3781 
L 1638 3781 
L 1638 3059 
Q 1775 3097 1914 3117 
Q 2053 3138 2203 3138 
Q 3056 3138 3531 2711 
Q 4006 2284 4006 1522 
Q 4006 766 3489 337 
Q 2972 -91 2053 -91 
Q 1656 -91 1267 -14 
Q 878 63 494 219 
L 494 1166 
Q 875 947 1217 837 
Q 1559 728 1863 728 
Q 2300 728 2551 942 
Q 2803 1156 2803 1522 
Q 2803 1891 2551 2103 
Q 2300 2316 1863 2316 
Q 1603 2316 1309 2248 
Q 1016 2181 678 2041 
L 678 4666 
z
" transform="scale(0.015625)"/>
      <path id="DejaVuSans-Bold-2d" d="M 347 2297 
L 2309 2297 
L 2309 1388 
L 347 1388 
L 347 2297 
z
" transform="scale(0.015625)"/>
      <path id="DejaVuSans-Bold-34" d="M 2356 3675 
L 1038 1722 
L 2356 1722 
L 2356 3675 
z
M 2156 4666 
L 3494 4666 
L 3494 1722 
L 4159 1722 
L 4159 850 
L 3494 850 
L 3494 0 
L 2356 0 
L 2356 850 
L 288 850 
L 288 1881 
L 2156 4666 
z
" transform="scale(0.015625)"/>
      <path id="DejaVuSans-Bold-42" d="M 2456 2859 
Q 2741 2859 2887 2984 
Q 3034 3109 3034 3353 
Q 3034 3594 2887 3720 
Q 2741 3847 2456 3847 
L 1791 3847 
L 1791 2859 
L 2456 2859 
z
M 2497 819 
Q 2859 819 3042 972 
Q 3225 1125 3225 1434 
Q 3225 1738 3044 1889 
Q 2863 2041 2497 2041 
L 1791 2041 
L 1791 819 
L 2497 819 
z
M 3616 2497 
Q 4003 2384 4215 2081 
Q 4428 1778 4428 1338 
Q 4428 663 3972 331 
Q 3516 0 2584 0 
L 588 0 
L 588 4666 
L 2394 4666 
Q 3366 4666 3802 4372 
Q 4238 4078 4238 3431 
Q 4238 3091 4078 2852 
Q 3919 2613 3616 2497 
z
" transform="scale(0.015625)"/>
      <path id="DejaVuSans-Bold-20" transform="scale(0.015625)"/>
      <path id="DejaVuSans-Bold-44" d="M 1791 3756 
L 1791 909 
L 2222 909 
Q 2959 909 3348 1275 
Q 3738 1641 3738 2338 
Q 3738 3031 3350 3393 
Q 2963 3756 2222 3756 
L 1791 3756 
z
M 588 4666 
L 1856 4666 
Q 2919 4666 3439 4514 
Q 3959 4363 4331 4000 
Q 4659 3684 4818 3271 
Q 4978 2859 4978 2338 
Q 4978 1809 4818 1395 
Q 4659 981 4331 666 
Q 3956 303 3431 151 
Q 2906 0 1856 0 
L 588 0 
L 588 4666 
z
" transform="scale(0.015625)"/>
      <path id="DejaVuSans-Bold-69" d="M 538 3500 
L 1656 3500 
L 1656 0 
L 538 0 
L 538 3500 
z
M 538 4863 
L 1656 4863 
L 1656 3950 
L 538 3950 
L 538 4863 
z
" transform="scale(0.015625)"/>
      <path id="DejaVuSans-Bold-73" d="M 3272 3391 
L 3272 2541 
Q 2913 2691 2578 2766 
Q 2244 2841 1947 2841 
Q 1628 2841 1473 2761 
Q 1319 2681 1319 2516 
Q 1319 2381 1436 2309 
Q 1553 2238 1856 2203 
L 2053 2175 
Q 2913 2066 3209 1816 
Q 3506 1566 3506 1031 
Q 3506 472 3093 190 
Q 2681 -91 1863 -91 
Q 1516 -91 1145 -36 
Q 775 19 384 128 
L 384 978 
Q 719 816 1070 734 
Q 1422 653 1784 653 
Q 2113 653 2278 743 
Q 2444 834 2444 1013 
Q 2444 1163 2330 1236 
Q 2216 1309 1875 1350 
L 1678 1375 
Q 931 1469 631 1722 
Q 331 1975 331 2491 
Q 331 3047 712 3315 
Q 1094 3584 1881 3584 
Q 2191 3584 2531 3537 
Q 2872 3491 3272 3391 
z
" transform="scale(0.015625)"/>
      <path id="DejaVuSans-Bold-74" d="M 1759 4494 
L 1759 3500 
L 2913 3500 
L 2913 2700 
L 1759 2700 
L 1759 1216 
Q 1759 972 1856 886 
Q 1953 800 2241 800 
L 2816 800 
L 2816 0 
L 1856 0 
Q 1194 0 917 276 
Q 641 553 641 1216 
L 641 2700 
L 84 2700 
L 84 3500 
L 641 3500 
L 641 4494 
L 1759 4494 
z
" transform="scale(0.015625)"/>
      <path id="DejaVuSans-Bold-72" d="M 3138 2547 
Q 2991 2616 2845 2648 
Q 2700 2681 2553 2681 
Q 2122 2681 1889 2404 
Q 1656 2128 1656 1613 
L 1656 0 
L 538 0 
L 538 3500 
L 1656 3500 
L 1656 2925 
Q 1872 3269 2151 3426 
Q 2431 3584 2822 3584 
Q 2878 3584 2943 3579 
Q 3009 3575 3134 3559 
L 3138 2547 
z
" transform="scale(0.015625)"/>
      <path id="DejaVuSans-Bold-62" d="M 2400 722 
Q 2759 722 2948 984 
Q 3138 1247 3138 1747 
Q 3138 2247 2948 2509 
Q 2759 2772 2400 2772 
Q 2041 2772 1848 2508 
Q 1656 2244 1656 1747 
Q 1656 1250 1848 986 
Q 2041 722 2400 722 
z
M 1656 2988 
Q 1888 3294 2169 3439 
Q 2450 3584 2816 3584 
Q 3463 3584 3878 3070 
Q 4294 2556 4294 1747 
Q 4294 938 3878 423 
Q 3463 -91 2816 -91 
Q 2450 -91 2169 54 
Q 1888 200 1656 506 
L 1656 0 
L 538 0 
L 538 4863 
L 1656 4863 
L 1656 2988 
z
" transform="scale(0.015625)"/>
      <path id="DejaVuSans-Bold-75" d="M 500 1363 
L 500 3500 
L 1625 3500 
L 1625 3150 
Q 1625 2866 1622 2436 
Q 1619 2006 1619 1863 
Q 1619 1441 1641 1255 
Q 1663 1069 1716 984 
Q 1784 875 1895 815 
Q 2006 756 2150 756 
Q 2500 756 2700 1025 
Q 2900 1294 2900 1772 
L 2900 3500 
L 4019 3500 
L 4019 0 
L 2900 0 
L 2900 506 
Q 2647 200 2364 54 
Q 2081 -91 1741 -91 
Q 1134 -91 817 281 
Q 500 653 500 1363 
z
" transform="scale(0.015625)"/>
      <path id="DejaVuSans-Bold-6f" d="M 2203 2784 
Q 1831 2784 1636 2517 
Q 1441 2250 1441 1747 
Q 1441 1244 1636 976 
Q 1831 709 2203 709 
Q 2569 709 2762 976 
Q 2956 1244 2956 1747 
Q 2956 2250 2762 2517 
Q 2569 2784 2203 2784 
z
M 2203 3584 
Q 3106 3584 3614 3096 
Q 4122 2609 4122 1747 
Q 4122 884 3614 396 
Q 3106 -91 2203 -91 
Q 1297 -91 786 396 
Q 275 884 275 1747 
Q 275 2609 786 3096 
Q 1297 3584 2203 3584 
z
" transform="scale(0.015625)"/>
      <path id="DejaVuSans-Bold-66" d="M 2841 4863 
L 2841 4128 
L 2222 4128 
Q 1984 4128 1890 4042 
Q 1797 3956 1797 3744 
L 1797 3500 
L 2753 3500 
L 2753 2700 
L 1797 2700 
L 1797 0 
L 678 0 
L 678 2700 
L 122 2700 
L 122 3500 
L 678 3500 
L 678 3744 
Q 678 4316 997 4589 
Q 1316 4863 1984 4863 
L 2841 4863 
z
" transform="scale(0.015625)"/>
      <path id="DejaVuSans-Bold-50" d="M 588 4666 
L 2584 4666 
Q 3475 4666 3951 4270 
Q 4428 3875 4428 3144 
Q 4428 2409 3951 2014 
Q 3475 1619 2584 1619 
L 1791 1619 
L 1791 0 
L 588 0 
L 588 4666 
z
M 1791 3794 
L 1791 2491 
L 2456 2491 
Q 2806 2491 2997 2661 
Q 3188 2831 3188 3144 
Q 3188 3456 2997 3625 
Q 2806 3794 2456 3794 
L 1791 3794 
z
" transform="scale(0.015625)"/>
      <path id="DejaVuSans-Bold-54" d="M 31 4666 
L 4331 4666 
L 4331 3756 
L 2784 3756 
L 2784 0 
L 1581 0 
L 1581 3756 
L 31 3756 
L 31 4666 
z
" transform="scale(0.015625)"/>
      <path id="DejaVuSans-Bold-45" d="M 588 4666 
L 3834 4666 
L 3834 3756 
L 1791 3756 
L 1791 2888 
L 3713 2888 
L 3713 1978 
L 1791 1978 
L 1791 909 
L 3903 909 
L 3903 0 
L 588 0 
L 588 4666 
z
" transform="scale(0.015625)"/>
      <path id="DejaVuSans-Bold-64" d="M 2919 2988 
L 2919 4863 
L 4044 4863 
L 4044 0 
L 2919 0 
L 2919 506 
Q 2688 197 2409 53 
Q 2131 -91 1766 -91 
Q 1119 -91 703 423 
Q 288 938 288 1747 
Q 288 2556 703 3070 
Q 1119 3584 1766 3584 
Q 2128 3584 2408 3439 
Q 2688 3294 2919 2988 
z
M 2181 722 
Q 2541 722 2730 984 
Q 2919 1247 2919 1747 
Q 2919 2247 2730 2509 
Q 2541 2772 2181 2772 
Q 1825 2772 1636 2509 
Q 1447 2247 1447 1747 
Q 1447 1247 1636 984 
Q 1825 722 2181 722 
z
" transform="scale(0.015625)"/>
      <path id="DejaVuSans-Bold-4d" d="M 588 4666 
L 2119 4666 
L 3181 2169 
L 4250 4666 
L 5778 4666 
L 5778 0 
L 4641 0 
L 4641 3413 
L 3566 897 
L 2803 897 
L 1728 3413 
L 1728 0 
L 588 0 
L 588 4666 
z
" transform="scale(0.015625)"/>
      <path id="DejaVuSans-Bold-61" d="M 2106 1575 
Q 1756 1575 1579 1456 
Q 1403 1338 1403 1106 
Q 1403 894 1545 773 
Q 1688 653 1941 653 
Q 2256 653 2472 879 
Q 2688 1106 2688 1447 
L 2688 1575 
L 2106 1575 
z
M 3816 1997 
L 3816 0 
L 2688 0 
L 2688 519 
Q 2463 200 2181 54 
Q 1900 -91 1497 -91 
Q 953 -91 614 226 
Q 275 544 275 1050 
Q 275 1666 698 1953 
Q 1122 2241 2028 2241 
L 2688 2241 
L 2688 2328 
Q 2688 2594 2478 2717 
Q 2269 2841 1825 2841 
Q 1466 2841 1156 2769 
Q 847 2697 581 2553 
L 581 3406 
Q 941 3494 1303 3539 
Q 1666 3584 2028 3584 
Q 2975 3584 3395 3211 
Q 3816 2838 3816 1997 
z
" transform="scale(0.015625)"/>
      <path id="DejaVuSans-Bold-67" d="M 2919 594 
Q 2688 288 2409 144 
Q 2131 0 1766 0 
Q 1125 0 706 504 
Q 288 1009 288 1791 
Q 288 2575 706 3076 
Q 1125 3578 1766 3578 
Q 2131 3578 2409 3434 
Q 2688 3291 2919 2981 
L 2919 3500 
L 4044 3500 
L 4044 353 
Q 4044 -491 3511 -936 
Q 2978 -1381 1966 -1381 
Q 1638 -1381 1331 -1331 
Q 1025 -1281 716 -1178 
L 716 -306 
Q 1009 -475 1290 -558 
Q 1572 -641 1856 -641 
Q 2406 -641 2662 -400 
Q 2919 -159 2919 353 
L 2919 594 
z
M 2181 2772 
Q 1834 2772 1640 2515 
Q 1447 2259 1447 1791 
Q 1447 1309 1634 1061 
Q 1822 813 2181 813 
Q 2531 813 2725 1069 
Q 2919 1325 2919 1791 
Q 2919 2259 2725 2515 
Q 2531 2772 2181 2772 
z
" transform="scale(0.015625)"/>
     </defs>
     <use xlink:href="#DejaVuSans-Bold-51"/>
     <use xlink:href="#DejaVuSans-Bold-77" transform="translate(85.009766 0)"/>
     <use xlink:href="#DejaVuSans-Bold-65" transform="translate(177.392578 0)"/>
     <use xlink:href="#DejaVuSans-Bold-6e" transform="translate(245.214844 0)"/>
     <use xlink:href="#DejaVuSans-Bold-33" transform="translate(316.40625 0)"/>
     <use xlink:href="#DejaVuSans-Bold-2e" transform="translate(385.986328 0)"/>
     <use xlink:href="#DejaVuSans-Bold-35" transform="translate(423.974609 0)"/>
     <use xlink:href="#DejaVuSans-Bold-2d" transform="translate(493.554688 0)"/>
     <use xlink:href="#DejaVuSans-Bold-34" transform="translate(535.058594 0)"/>
     <use xlink:href="#DejaVuSans-Bold-42" transform="translate(604.638672 0)"/>
     <use xlink:href="#DejaVuSans-Bold-20" transform="translate(680.859375 0)"/>
     <use xlink:href="#DejaVuSans-Bold-44" transform="translate(715.673828 0)"/>
     <use xlink:href="#DejaVuSans-Bold-69" transform="translate(798.681641 0)"/>
     <use xlink:href="#DejaVuSans-Bold-73" transform="translate(832.958984 0)"/>
     <use xlink:href="#DejaVuSans-Bold-74" transform="translate(892.480469 0)"/>
     <use xlink:href="#DejaVuSans-Bold-72" transform="translate(940.283203 0)"/>
     <use xlink:href="#DejaVuSans-Bold-69" transform="translate(989.599609 0)"/>
     <use xlink:href="#DejaVuSans-Bold-62" transform="translate(1023.876953 0)"/>
     <use xlink:href="#DejaVuSans-Bold-75" transform="translate(1095.458984 0)"/>
     <use xlink:href="#DejaVuSans-Bold-74" transform="translate(1166.650391 0)"/>
     <use xlink:href="#DejaVuSans-Bold-69" transform="translate(1214.453125 0)"/>
     <use xlink:href="#DejaVuSans-Bold-6f" transform="translate(1248.730469 0)"/>
     <use xlink:href="#DejaVuSans-Bold-6e" transform="translate(1317.431641 0)"/>
     <use xlink:href="#DejaVuSans-Bold-20" transform="translate(1388.623047 0)"/>
     <use xlink:href="#DejaVuSans-Bold-6f" transform="translate(1423.4375 0)"/>
     <use xlink:href="#DejaVuSans-Bold-66" transform="translate(1492.138672 0)"/>
     <use xlink:href="#DejaVuSans-Bold-20" transform="translate(1535.644531 0)"/>
     <use xlink:href="#DejaVuSans-Bold-50" transform="translate(1570.458984 0)"/>
     <use xlink:href="#DejaVuSans-Bold-65" transform="translate(1643.75 0)"/>
     <use xlink:href="#DejaVuSans-Bold-72" transform="translate(1711.572266 0)"/>
     <use xlink:href="#DejaVuSans-Bold-2d" transform="translate(1760.888672 0)"/>
     <use xlink:href="#DejaVuSans-Bold-54" transform="translate(1787.642578 0)"/>
     <use xlink:href="#DejaVuSans-Bold-65" transform="translate(1842.605469 0)"/>
     <use xlink:href="#DejaVuSans-Bold-6e" transform="translate(1910.427734 0)"/>
     <use xlink:href="#DejaVuSans-Bold-73" transform="translate(1981.619141 0)"/>
     <use xlink:href="#DejaVuSans-Bold-6f" transform="translate(2041.140625 0)"/>
     <use xlink:href="#DejaVuSans-Bold-72" transform="translate(2109.841797 0)"/>
     <use xlink:href="#DejaVuSans-Bold-20" transform="translate(2159.158203 0)"/>
     <use xlink:href="#DejaVuSans-Bold-45" transform="translate(2193.972656 0)"/>
     <use xlink:href="#DejaVuSans-Bold-64" transform="translate(2262.283203 0)"/>
     <use xlink:href="#DejaVuSans-Bold-69" transform="translate(2333.865234 0)"/>
     <use xlink:href="#DejaVuSans-Bold-74" transform="translate(2368.142578 0)"/>
     <use xlink:href="#DejaVuSans-Bold-20" transform="translate(2415.945312 0)"/>
     <use xlink:href="#DejaVuSans-Bold-4d" transform="translate(2450.759766 0)"/>
     <use xlink:href="#DejaVuSans-Bold-61" transform="translate(2550.271484 0)"/>
     <use xlink:href="#DejaVuSans-Bold-67" transform="translate(2617.751953 0)"/>
     <use xlink:href="#DejaVuSans-Bold-6e" transform="translate(2689.333984 0)"/>
     <use xlink:href="#DejaVuSans-Bold-69" transform="translate(2760.525391 0)"/>
     <use xlink:href="#DejaVuSans-Bold-74" transform="translate(2794.802734 0)"/>
     <use xlink:href="#DejaVuSans-Bold-75" transform="translate(2842.605469 0)"/>
     <use xlink:href="#DejaVuSans-Bold-64" transform="translate(2913.796875 0)"/>
     <use xlink:href="#DejaVuSans-Bold-65" transform="translate(2985.378906 0)"/>
     <use xlink:href="#DejaVuSans-Bold-73" transform="translate(3053.201172 0)"/>
    </g>
   </g>
  </g>
 </g>
 <defs>
  <clipPath id="p8ec6f30c08">
   <rect x="47.711" y="23.837812" width="558" height="332.64"/>
  </clipPath>
 </defs>
</svg>
