<?xml version="1.0" encoding="utf-8" standalone="no"?>
<!DOCTYPE svg PUBLIC "-//W3C//DTD SVG 1.1//EN"
  "http://www.w3.org/Graphics/SVG/1.1/DTD/svg11.dtd">
<svg xmlns:xlink="http://www.w3.org/1999/xlink" width="1140.48pt" height="321.961973pt" viewBox="0 0 1140.48 321.961973" xmlns="http://www.w3.org/2000/svg" version="1.1">
 <metadata>
  <rdf:RDF xmlns:dc="http://purl.org/dc/elements/1.1/" xmlns:cc="http://creativecommons.org/ns#" xmlns:rdf="http://www.w3.org/1999/02/22-rdf-syntax-ns#">
   <cc:Work>
    <dc:type rdf:resource="http://purl.org/dc/dcmitype/StillImage"/>
    <dc:date>2026-04-21T21:57:50.983728</dc:date>
    <dc:format>image/svg+xml</dc:format>
    <dc:creator>
     <cc:Agent>
      <dc:title>Matplotlib v3.10.8, https://matplotlib.org/</dc:title>
     </cc:Agent>
    </dc:creator>
   </cc:Work>
  </rdf:RDF>
 </metadata>
 <defs>
  <style type="text/css">*{stroke-linejoin: round; stroke-linecap: butt}</style>
 </defs>
 <g id="figure_1">
  <g id="patch_1">
   <path d="M 0 321.961973 
L 1140.48 321.961973 
L 1140.48 0 
L 0 0 
z
" style="fill: #ffffff"/>
  </g>
  <g id="axes_1">
   <g id="matplotlib.axis_1"/>
   <g id="matplotlib.axis_2"/>
   <g id="patch_2">
    <path d="M 132.961973 88.390422 
C 112.538852 88.390422 92.591886 94.609072 75.787089 106.215219 
C 58.982291 117.821367 46.103254 134.273827 38.871325 153.373646 
L 76.507584 167.624187 
C 80.846741 156.164296 88.574164 146.29282 98.657043 139.329132 
C 108.739921 132.365443 120.7081 128.634253 132.961973 128.634253 
z
" style="fill: #e74c3c; stroke: #ffffff; stroke-linejoin: miter"/>
   </g>
   <g id="patch_3">
    <path d="M 38.871328 153.373637 
C 35.097195 163.341278 32.930828 173.845614 32.453387 184.493148 
C 31.975952 195.140682 33.193476 205.796783 36.060353 216.062207 
C 38.92723 226.327631 43.407198 236.072581 49.332443 244.932005 
C 55.257687 253.791429 62.553272 261.653291 70.945893 268.223059 
C 79.338514 274.792827 88.722049 279.98744 98.744947 283.612277 
C 108.767846 287.237113 119.303348 289.246334 129.956826 289.564686 
C 140.610304 289.883044 151.247028 288.506491 161.468488 285.486612 
C 171.689949 282.466732 181.366923 277.84169 190.136856 271.784779 
C 198.90679 265.727869 206.658785 258.315695 213.10247 249.825884 
C 219.546156 241.336073 224.600018 231.87604 228.074748 221.800117 
C 231.549479 211.724197 233.401134 201.159768 233.560325 190.502724 
C 233.719516 179.845681 232.184258 169.230751 229.012042 159.055537 
C 225.839826 148.880323 221.0708 139.273548 214.883579 130.595054 
C 208.696359 121.916559 201.169154 114.276075 192.584048 107.959917 
C 183.998941 101.643759 174.464476 96.731764 164.337779 93.407919 
C 154.211082 90.084073 143.62022 88.390422 132.961987 88.390422 
L 132.961981 128.634253 
C 139.356921 128.634253 145.711438 129.650444 151.787457 131.644751 
C 157.863475 133.639058 163.584154 136.586256 168.735218 140.37595 
C 173.886282 144.165645 178.402605 148.749936 182.114937 153.957032 
C 185.827269 159.164129 188.688685 164.928194 190.592014 171.033322 
C 192.495344 177.138451 193.416499 183.507408 193.320985 189.901634 
C 193.22547 196.295861 192.114477 202.634518 190.029638 208.68007 
C 187.9448 214.725624 184.912483 220.401644 181.046271 225.49553 
C 177.18006 230.589417 172.528863 235.036722 167.266903 238.670868 
C 162.004943 242.305014 156.198759 245.080039 150.065882 246.891967 
C 143.933006 248.703895 137.550971 249.529827 131.158885 249.338812 
C 124.766798 249.147801 118.445497 247.942268 112.431758 245.767366 
C 106.418018 243.592464 100.787897 240.475696 95.752325 236.533835 
C 90.716752 232.591975 86.339401 227.874857 82.784255 222.559203 
C 79.229108 217.243549 76.541127 211.396579 74.821001 205.237324 
C 73.100875 199.07807 72.37036 192.684409 72.656821 186.295889 
C 72.943286 179.907369 74.243106 173.604767 76.507586 167.624182 
z
" style="fill: #ecf0f1; stroke: #ffffff; stroke-linejoin: miter"/>
   </g>
   <g id="text_1">
    <!-- Modified -->
    <g style="fill: #262626" transform="translate(31.663493 100.420188) scale(0.09 -0.09)">
     <defs>
      <path id="DejaVuSans-4d" d="M 628 4666 
L 1569 4666 
L 2759 1491 
L 3956 4666 
L 4897 4666 
L 4897 0 
L 4281 0 
L 4281 4097 
L 3078 897 
L 2444 897 
L 1241 4097 
L 1241 0 
L 628 0 
L 628 4666 
z
" transform="scale(0.015625)"/>
      <path id="DejaVuSans-6f" d="M 1959 3097 
Q 1497 3097 1228 2736 
Q 959 2375 959 1747 
Q 959 1119 1226 758 
Q 1494 397 1959 397 
Q 2419 397 2687 759 
Q 2956 1122 2956 1747 
Q 2956 2369 2687 2733 
Q 2419 3097 1959 3097 
z
M 1959 3584 
Q 2709 3584 3137 3096 
Q 3566 2609 3566 1747 
Q 3566 888 3137 398 
Q 2709 -91 1959 -91 
Q 1206 -91 779 398 
Q 353 888 353 1747 
Q 353 2609 779 3096 
Q 1206 3584 1959 3584 
z
" transform="scale(0.015625)"/>
      <path id="DejaVuSans-64" d="M 2906 2969 
L 2906 4863 
L 3481 4863 
L 3481 0 
L 2906 0 
L 2906 525 
Q 2725 213 2448 61 
Q 2172 -91 1784 -91 
Q 1150 -91 751 415 
Q 353 922 353 1747 
Q 353 2572 751 3078 
Q 1150 3584 1784 3584 
Q 2172 3584 2448 3432 
Q 2725 3281 2906 2969 
z
M 947 1747 
Q 947 1113 1208 752 
Q 1469 391 1925 391 
Q 2381 391 2643 752 
Q 2906 1113 2906 1747 
Q 2906 2381 2643 2742 
Q 2381 3103 1925 3103 
Q 1469 3103 1208 2742 
Q 947 2381 947 1747 
z
" transform="scale(0.015625)"/>
      <path id="DejaVuSans-69" d="M 603 3500 
L 1178 3500 
L 1178 0 
L 603 0 
L 603 3500 
z
M 603 4863 
L 1178 4863 
L 1178 4134 
L 603 4134 
L 603 4863 
z
" transform="scale(0.015625)"/>
      <path id="DejaVuSans-66" d="M 2375 4863 
L 2375 4384 
L 1825 4384 
Q 1516 4384 1395 4259 
Q 1275 4134 1275 3809 
L 1275 3500 
L 2222 3500 
L 2222 3053 
L 1275 3053 
L 1275 0 
L 697 0 
L 697 3053 
L 147 3053 
L 147 3500 
L 697 3500 
L 697 3744 
Q 697 4328 969 4595 
Q 1241 4863 1831 4863 
L 2375 4863 
z
" transform="scale(0.015625)"/>
      <path id="DejaVuSans-65" d="M 3597 1894 
L 3597 1613 
L 953 1613 
Q 991 1019 1311 708 
Q 1631 397 2203 397 
Q 2534 397 2845 478 
Q 3156 559 3463 722 
L 3463 178 
Q 3153 47 2828 -22 
Q 2503 -91 2169 -91 
Q 1331 -91 842 396 
Q 353 884 353 1716 
Q 353 2575 817 3079 
Q 1281 3584 2069 3584 
Q 2775 3584 3186 3129 
Q 3597 2675 3597 1894 
z
M 3022 2063 
Q 3016 2534 2758 2815 
Q 2500 3097 2075 3097 
Q 1594 3097 1305 2825 
Q 1016 2553 972 2059 
L 3022 2063 
z
" transform="scale(0.015625)"/>
     </defs>
     <use xlink:href="#DejaVuSans-4d"/>
     <use xlink:href="#DejaVuSans-6f" transform="translate(86.279297 0)"/>
     <use xlink:href="#DejaVuSans-64" transform="translate(147.460938 0)"/>
     <use xlink:href="#DejaVuSans-69" transform="translate(210.9375 0)"/>
     <use xlink:href="#DejaVuSans-66" transform="translate(238.720703 0)"/>
     <use xlink:href="#DejaVuSans-69" transform="translate(273.925781 0)"/>
     <use xlink:href="#DejaVuSans-65" transform="translate(301.708984 0)"/>
     <use xlink:href="#DejaVuSans-64" transform="translate(363.232422 0)"/>
    </g>
   </g>
   <g id="text_2">
    <!-- 19.2% -->
    <g style="fill: #262626" transform="translate(71.610571 125.25562) scale(0.09 -0.09)">
     <defs>
      <path id="DejaVuSans-Bold-31" d="M 750 831 
L 1813 831 
L 1813 3847 
L 722 3622 
L 722 4441 
L 1806 4666 
L 2950 4666 
L 2950 831 
L 4013 831 
L 4013 0 
L 750 0 
L 750 831 
z
" transform="scale(0.015625)"/>
      <path id="DejaVuSans-Bold-39" d="M 641 103 
L 641 966 
Q 928 831 1190 764 
Q 1453 697 1709 697 
Q 2247 697 2547 995 
Q 2847 1294 2900 1881 
Q 2688 1725 2447 1647 
Q 2206 1569 1925 1569 
Q 1209 1569 770 1986 
Q 331 2403 331 3084 
Q 331 3838 820 4291 
Q 1309 4744 2131 4744 
Q 3044 4744 3544 4128 
Q 4044 3513 4044 2388 
Q 4044 1231 3459 570 
Q 2875 -91 1856 -91 
Q 1528 -91 1228 -42 
Q 928 6 641 103 
z
M 2125 2350 
Q 2441 2350 2600 2554 
Q 2759 2759 2759 3169 
Q 2759 3575 2600 3781 
Q 2441 3988 2125 3988 
Q 1809 3988 1650 3781 
Q 1491 3575 1491 3169 
Q 1491 2759 1650 2554 
Q 1809 2350 2125 2350 
z
" transform="scale(0.015625)"/>
      <path id="DejaVuSans-Bold-2e" d="M 653 1209 
L 1778 1209 
L 1778 0 
L 653 0 
L 653 1209 
z
" transform="scale(0.015625)"/>
      <path id="DejaVuSans-Bold-32" d="M 1844 884 
L 3897 884 
L 3897 0 
L 506 0 
L 506 884 
L 2209 2388 
Q 2438 2594 2547 2791 
Q 2656 2988 2656 3200 
Q 2656 3528 2436 3728 
Q 2216 3928 1850 3928 
Q 1569 3928 1234 3808 
Q 900 3688 519 3450 
L 519 4475 
Q 925 4609 1322 4679 
Q 1719 4750 2100 4750 
Q 2938 4750 3402 4381 
Q 3866 4013 3866 3353 
Q 3866 2972 3669 2642 
Q 3472 2313 2841 1759 
L 1844 884 
z
" transform="scale(0.015625)"/>
      <path id="DejaVuSans-Bold-25" d="M 4959 1925 
Q 4738 1925 4616 1733 
Q 4494 1541 4494 1184 
Q 4494 825 4614 633 
Q 4734 441 4959 441 
Q 5184 441 5303 633 
Q 5422 825 5422 1184 
Q 5422 1541 5301 1733 
Q 5181 1925 4959 1925 
z
M 4959 2450 
Q 5541 2450 5875 2112 
Q 6209 1775 6209 1184 
Q 6209 594 5875 251 
Q 5541 -91 4959 -91 
Q 4378 -91 4042 251 
Q 3706 594 3706 1184 
Q 3706 1772 4042 2111 
Q 4378 2450 4959 2450 
z
M 2094 -91 
L 1403 -91 
L 4319 4750 
L 5013 4750 
L 2094 -91 
z
M 1453 4750 
Q 2034 4750 2367 4411 
Q 2700 4072 2700 3481 
Q 2700 2891 2367 2550 
Q 2034 2209 1453 2209 
Q 872 2209 539 2550 
Q 206 2891 206 3481 
Q 206 4072 539 4411 
Q 872 4750 1453 4750 
z
M 1453 4225 
Q 1228 4225 1106 4031 
Q 984 3838 984 3481 
Q 984 3122 1106 2926 
Q 1228 2731 1453 2731 
Q 1678 2731 1798 2926 
Q 1919 3122 1919 3481 
Q 1919 3838 1797 4031 
Q 1675 4225 1453 4225 
z
" transform="scale(0.015625)"/>
     </defs>
     <use xlink:href="#DejaVuSans-Bold-31"/>
     <use xlink:href="#DejaVuSans-Bold-39" transform="translate(69.580078 0)"/>
     <use xlink:href="#DejaVuSans-Bold-2e" transform="translate(139.160156 0)"/>
     <use xlink:href="#DejaVuSans-Bold-32" transform="translate(177.148438 0)"/>
     <use xlink:href="#DejaVuSans-Bold-25" transform="translate(246.728516 0)"/>
    </g>
   </g>
   <g id="text_3">
    <!-- Unchanged -->
    <g style="fill: #262626" transform="translate(195.854389 282.546666) scale(0.09 -0.09)">
     <defs>
      <path id="DejaVuSans-55" d="M 556 4666 
L 1191 4666 
L 1191 1831 
Q 1191 1081 1462 751 
Q 1734 422 2344 422 
Q 2950 422 3222 751 
Q 3494 1081 3494 1831 
L 3494 4666 
L 4128 4666 
L 4128 1753 
Q 4128 841 3676 375 
Q 3225 -91 2344 -91 
Q 1459 -91 1007 375 
Q 556 841 556 1753 
L 556 4666 
z
" transform="scale(0.015625)"/>
      <path id="DejaVuSans-6e" d="M 3513 2113 
L 3513 0 
L 2938 0 
L 2938 2094 
Q 2938 2591 2744 2837 
Q 2550 3084 2163 3084 
Q 1697 3084 1428 2787 
Q 1159 2491 1159 1978 
L 1159 0 
L 581 0 
L 581 3500 
L 1159 3500 
L 1159 2956 
Q 1366 3272 1645 3428 
Q 1925 3584 2291 3584 
Q 2894 3584 3203 3211 
Q 3513 2838 3513 2113 
z
" transform="scale(0.015625)"/>
      <path id="DejaVuSans-63" d="M 3122 3366 
L 3122 2828 
Q 2878 2963 2633 3030 
Q 2388 3097 2138 3097 
Q 1578 3097 1268 2742 
Q 959 2388 959 1747 
Q 959 1106 1268 751 
Q 1578 397 2138 397 
Q 2388 397 2633 464 
Q 2878 531 3122 666 
L 3122 134 
Q 2881 22 2623 -34 
Q 2366 -91 2075 -91 
Q 1284 -91 818 406 
Q 353 903 353 1747 
Q 353 2603 823 3093 
Q 1294 3584 2113 3584 
Q 2378 3584 2631 3529 
Q 2884 3475 3122 3366 
z
" transform="scale(0.015625)"/>
      <path id="DejaVuSans-68" d="M 3513 2113 
L 3513 0 
L 2938 0 
L 2938 2094 
Q 2938 2591 2744 2837 
Q 2550 3084 2163 3084 
Q 1697 3084 1428 2787 
Q 1159 2491 1159 1978 
L 1159 0 
L 581 0 
L 581 4863 
L 1159 4863 
L 1159 2956 
Q 1366 3272 1645 3428 
Q 1925 3584 2291 3584 
Q 2894 3584 3203 3211 
Q 3513 2838 3513 2113 
z
" transform="scale(0.015625)"/>
      <path id="DejaVuSans-61" d="M 2194 1759 
Q 1497 1759 1228 1600 
Q 959 1441 959 1056 
Q 959 750 1161 570 
Q 1363 391 1709 391 
Q 2188 391 2477 730 
Q 2766 1069 2766 1631 
L 2766 1759 
L 2194 1759 
z
M 3341 1997 
L 3341 0 
L 2766 0 
L 2766 531 
Q 2569 213 2275 61 
Q 1981 -91 1556 -91 
Q 1019 -91 701 211 
Q 384 513 384 1019 
Q 384 1609 779 1909 
Q 1175 2209 1959 2209 
L 2766 2209 
L 2766 2266 
Q 2766 2663 2505 2880 
Q 2244 3097 1772 3097 
Q 1472 3097 1187 3025 
Q 903 2953 641 2809 
L 641 3341 
Q 956 3463 1253 3523 
Q 1550 3584 1831 3584 
Q 2591 3584 2966 3190 
Q 3341 2797 3341 1997 
z
" transform="scale(0.015625)"/>
      <path id="DejaVuSans-67" d="M 2906 1791 
Q 2906 2416 2648 2759 
Q 2391 3103 1925 3103 
Q 1463 3103 1205 2759 
Q 947 2416 947 1791 
Q 947 1169 1205 825 
Q 1463 481 1925 481 
Q 2391 481 2648 825 
Q 2906 1169 2906 1791 
z
M 3481 434 
Q 3481 -459 3084 -895 
Q 2688 -1331 1869 -1331 
Q 1566 -1331 1297 -1286 
Q 1028 -1241 775 -1147 
L 775 -588 
Q 1028 -725 1275 -790 
Q 1522 -856 1778 -856 
Q 2344 -856 2625 -561 
Q 2906 -266 2906 331 
L 2906 616 
Q 2728 306 2450 153 
Q 2172 0 1784 0 
Q 1141 0 747 490 
Q 353 981 353 1791 
Q 353 2603 747 3093 
Q 1141 3584 1784 3584 
Q 2172 3584 2450 3431 
Q 2728 3278 2906 2969 
L 2906 3500 
L 3481 3500 
L 3481 434 
z
" transform="scale(0.015625)"/>
     </defs>
     <use xlink:href="#DejaVuSans-55"/>
     <use xlink:href="#DejaVuSans-6e" transform="translate(73.193359 0)"/>
     <use xlink:href="#DejaVuSans-63" transform="translate(136.572266 0)"/>
     <use xlink:href="#DejaVuSans-68" transform="translate(191.552734 0)"/>
     <use xlink:href="#DejaVuSans-61" transform="translate(254.931641 0)"/>
     <use xlink:href="#DejaVuSans-6e" transform="translate(316.210938 0)"/>
     <use xlink:href="#DejaVuSans-67" transform="translate(379.589844 0)"/>
     <use xlink:href="#DejaVuSans-65" transform="translate(443.066406 0)"/>
     <use xlink:href="#DejaVuSans-64" transform="translate(504.589844 0)"/>
    </g>
   </g>
   <g id="text_4">
    <!-- 80.8% -->
    <g style="fill: #262626" transform="translate(164.406677 257.71124) scale(0.09 -0.09)">
     <defs>
      <path id="DejaVuSans-38" d="M 2034 2216 
Q 1584 2216 1326 1975 
Q 1069 1734 1069 1313 
Q 1069 891 1326 650 
Q 1584 409 2034 409 
Q 2484 409 2743 651 
Q 3003 894 3003 1313 
Q 3003 1734 2745 1975 
Q 2488 2216 2034 2216 
z
M 1403 2484 
Q 997 2584 770 2862 
Q 544 3141 544 3541 
Q 544 4100 942 4425 
Q 1341 4750 2034 4750 
Q 2731 4750 3128 4425 
Q 3525 4100 3525 3541 
Q 3525 3141 3298 2862 
Q 3072 2584 2669 2484 
Q 3125 2378 3379 2068 
Q 3634 1759 3634 1313 
Q 3634 634 3220 271 
Q 2806 -91 2034 -91 
Q 1263 -91 848 271 
Q 434 634 434 1313 
Q 434 1759 690 2068 
Q 947 2378 1403 2484 
z
M 1172 3481 
Q 1172 3119 1398 2916 
Q 1625 2713 2034 2713 
Q 2441 2713 2670 2916 
Q 2900 3119 2900 3481 
Q 2900 3844 2670 4047 
Q 2441 4250 2034 4250 
Q 1625 4250 1398 4047 
Q 1172 3844 1172 3481 
z
" transform="scale(0.015625)"/>
      <path id="DejaVuSans-30" d="M 2034 4250 
Q 1547 4250 1301 3770 
Q 1056 3291 1056 2328 
Q 1056 1369 1301 889 
Q 1547 409 2034 409 
Q 2525 409 2770 889 
Q 3016 1369 3016 2328 
Q 3016 3291 2770 3770 
Q 2525 4250 2034 4250 
z
M 2034 4750 
Q 2819 4750 3233 4129 
Q 3647 3509 3647 2328 
Q 3647 1150 3233 529 
Q 2819 -91 2034 -91 
Q 1250 -91 836 529 
Q 422 1150 422 2328 
Q 422 3509 836 4129 
Q 1250 4750 2034 4750 
z
" transform="scale(0.015625)"/>
      <path id="DejaVuSans-2e" d="M 684 794 
L 1344 794 
L 1344 0 
L 684 0 
L 684 794 
z
" transform="scale(0.015625)"/>
      <path id="DejaVuSans-25" d="M 4653 2053 
Q 4381 2053 4226 1822 
Q 4072 1591 4072 1178 
Q 4072 772 4226 539 
Q 4381 306 4653 306 
Q 4919 306 5073 539 
Q 5228 772 5228 1178 
Q 5228 1588 5073 1820 
Q 4919 2053 4653 2053 
z
M 4653 2450 
Q 5147 2450 5437 2106 
Q 5728 1763 5728 1178 
Q 5728 594 5436 251 
Q 5144 -91 4653 -91 
Q 4153 -91 3862 251 
Q 3572 594 3572 1178 
Q 3572 1766 3864 2108 
Q 4156 2450 4653 2450 
z
M 1428 4353 
Q 1159 4353 1004 4120 
Q 850 3888 850 3481 
Q 850 3069 1003 2837 
Q 1156 2606 1428 2606 
Q 1700 2606 1854 2837 
Q 2009 3069 2009 3481 
Q 2009 3884 1853 4118 
Q 1697 4353 1428 4353 
z
M 4250 4750 
L 4750 4750 
L 1831 -91 
L 1331 -91 
L 4250 4750 
z
M 1428 4750 
Q 1922 4750 2215 4408 
Q 2509 4066 2509 3481 
Q 2509 2891 2217 2550 
Q 1925 2209 1428 2209 
Q 931 2209 642 2551 
Q 353 2894 353 3481 
Q 353 4063 643 4406 
Q 934 4750 1428 4750 
z
" transform="scale(0.015625)"/>
     </defs>
     <use xlink:href="#DejaVuSans-38"/>
     <use xlink:href="#DejaVuSans-30" transform="translate(63.623047 0)"/>
     <use xlink:href="#DejaVuSans-2e" transform="translate(127.246094 0)"/>
     <use xlink:href="#DejaVuSans-38" transform="translate(159.033203 0)"/>
     <use xlink:href="#DejaVuSans-25" transform="translate(222.65625 0)"/>
    </g>
   </g>
   <g id="text_5">
    <!-- Heretic -->
    <g style="fill: #262626" transform="translate(110.411114 44.920433) scale(0.11 -0.11)">
     <defs>
      <path id="DejaVuSans-Bold-48" d="M 588 4666 
L 1791 4666 
L 1791 2888 
L 3566 2888 
L 3566 4666 
L 4769 4666 
L 4769 0 
L 3566 0 
L 3566 1978 
L 1791 1978 
L 1791 0 
L 588 0 
L 588 4666 
z
" transform="scale(0.015625)"/>
      <path id="DejaVuSans-Bold-65" d="M 4031 1759 
L 4031 1441 
L 1416 1441 
Q 1456 1047 1700 850 
Q 1944 653 2381 653 
Q 2734 653 3104 758 
Q 3475 863 3866 1075 
L 3866 213 
Q 3469 63 3072 -14 
Q 2675 -91 2278 -91 
Q 1328 -91 801 392 
Q 275 875 275 1747 
Q 275 2603 792 3093 
Q 1309 3584 2216 3584 
Q 3041 3584 3536 3087 
Q 4031 2591 4031 1759 
z
M 2881 2131 
Q 2881 2450 2695 2645 
Q 2509 2841 2209 2841 
Q 1884 2841 1681 2658 
Q 1478 2475 1428 2131 
L 2881 2131 
z
" transform="scale(0.015625)"/>
      <path id="DejaVuSans-Bold-72" d="M 3138 2547 
Q 2991 2616 2845 2648 
Q 2700 2681 2553 2681 
Q 2122 2681 1889 2404 
Q 1656 2128 1656 1613 
L 1656 0 
L 538 0 
L 538 3500 
L 1656 3500 
L 1656 2925 
Q 1872 3269 2151 3426 
Q 2431 3584 2822 3584 
Q 2878 3584 2943 3579 
Q 3009 3575 3134 3559 
L 3138 2547 
z
" transform="scale(0.015625)"/>
      <path id="DejaVuSans-Bold-74" d="M 1759 4494 
L 1759 3500 
L 2913 3500 
L 2913 2700 
L 1759 2700 
L 1759 1216 
Q 1759 972 1856 886 
Q 1953 800 2241 800 
L 2816 800 
L 2816 0 
L 1856 0 
Q 1194 0 917 276 
Q 641 553 641 1216 
L 641 2700 
L 84 2700 
L 84 3500 
L 641 3500 
L 641 4494 
L 1759 4494 
z
" transform="scale(0.015625)"/>
      <path id="DejaVuSans-Bold-69" d="M 538 3500 
L 1656 3500 
L 1656 0 
L 538 0 
L 538 3500 
z
M 538 4863 
L 1656 4863 
L 1656 3950 
L 538 3950 
L 538 4863 
z
" transform="scale(0.015625)"/>
      <path id="DejaVuSans-Bold-63" d="M 3366 3391 
L 3366 2478 
Q 3138 2634 2908 2709 
Q 2678 2784 2431 2784 
Q 1963 2784 1702 2511 
Q 1441 2238 1441 1747 
Q 1441 1256 1702 982 
Q 1963 709 2431 709 
Q 2694 709 2930 787 
Q 3166 866 3366 1019 
L 3366 103 
Q 3103 6 2833 -42 
Q 2563 -91 2291 -91 
Q 1344 -91 809 395 
Q 275 881 275 1747 
Q 275 2613 809 3098 
Q 1344 3584 2291 3584 
Q 2566 3584 2833 3536 
Q 3100 3488 3366 3391 
z
" transform="scale(0.015625)"/>
     </defs>
     <use xlink:href="#DejaVuSans-Bold-48"/>
     <use xlink:href="#DejaVuSans-Bold-65" transform="translate(83.691406 0)"/>
     <use xlink:href="#DejaVuSans-Bold-72" transform="translate(151.513672 0)"/>
     <use xlink:href="#DejaVuSans-Bold-65" transform="translate(200.830078 0)"/>
     <use xlink:href="#DejaVuSans-Bold-74" transform="translate(268.652344 0)"/>
     <use xlink:href="#DejaVuSans-Bold-69" transform="translate(316.455078 0)"/>
     <use xlink:href="#DejaVuSans-Bold-63" transform="translate(350.732422 0)"/>
    </g>
    <!-- (1,826 tensors) -->
    <g style="fill: #262626" transform="translate(85.311348 57.238027) scale(0.11 -0.11)">
     <defs>
      <path id="DejaVuSans-Bold-28" d="M 2413 -844 
L 1484 -844 
Q 1006 -72 778 623 
Q 550 1319 550 2003 
Q 550 2688 779 3389 
Q 1009 4091 1484 4856 
L 2413 4856 
Q 2013 4116 1813 3408 
Q 1613 2700 1613 2009 
Q 1613 1319 1811 609 
Q 2009 -100 2413 -844 
z
" transform="scale(0.015625)"/>
      <path id="DejaVuSans-Bold-2c" d="M 653 1209 
L 1778 1209 
L 1778 256 
L 1006 -909 
L 341 -909 
L 653 256 
L 653 1209 
z
" transform="scale(0.015625)"/>
      <path id="DejaVuSans-Bold-38" d="M 2228 2088 
Q 1891 2088 1709 1903 
Q 1528 1719 1528 1375 
Q 1528 1031 1709 848 
Q 1891 666 2228 666 
Q 2563 666 2741 848 
Q 2919 1031 2919 1375 
Q 2919 1722 2741 1905 
Q 2563 2088 2228 2088 
z
M 1350 2484 
Q 925 2613 709 2878 
Q 494 3144 494 3541 
Q 494 4131 934 4440 
Q 1375 4750 2228 4750 
Q 3075 4750 3515 4442 
Q 3956 4134 3956 3541 
Q 3956 3144 3739 2878 
Q 3522 2613 3097 2484 
Q 3572 2353 3814 2058 
Q 4056 1763 4056 1313 
Q 4056 619 3595 264 
Q 3134 -91 2228 -91 
Q 1319 -91 855 264 
Q 391 619 391 1313 
Q 391 1763 633 2058 
Q 875 2353 1350 2484 
z
M 1631 3419 
Q 1631 3141 1786 2991 
Q 1941 2841 2228 2841 
Q 2509 2841 2662 2991 
Q 2816 3141 2816 3419 
Q 2816 3697 2662 3845 
Q 2509 3994 2228 3994 
Q 1941 3994 1786 3844 
Q 1631 3694 1631 3419 
z
" transform="scale(0.015625)"/>
      <path id="DejaVuSans-Bold-36" d="M 2316 2303 
Q 2000 2303 1842 2098 
Q 1684 1894 1684 1484 
Q 1684 1075 1842 870 
Q 2000 666 2316 666 
Q 2634 666 2792 870 
Q 2950 1075 2950 1484 
Q 2950 1894 2792 2098 
Q 2634 2303 2316 2303 
z
M 3803 4544 
L 3803 3681 
Q 3506 3822 3243 3889 
Q 2981 3956 2731 3956 
Q 2194 3956 1894 3657 
Q 1594 3359 1544 2772 
Q 1750 2925 1990 3001 
Q 2231 3078 2516 3078 
Q 3231 3078 3670 2659 
Q 4109 2241 4109 1563 
Q 4109 813 3618 361 
Q 3128 -91 2303 -91 
Q 1394 -91 895 523 
Q 397 1138 397 2266 
Q 397 3422 980 4083 
Q 1563 4744 2578 4744 
Q 2900 4744 3203 4694 
Q 3506 4644 3803 4544 
z
" transform="scale(0.015625)"/>
      <path id="DejaVuSans-Bold-20" transform="scale(0.015625)"/>
      <path id="DejaVuSans-Bold-6e" d="M 4056 2131 
L 4056 0 
L 2931 0 
L 2931 347 
L 2931 1631 
Q 2931 2084 2911 2256 
Q 2891 2428 2841 2509 
Q 2775 2619 2662 2680 
Q 2550 2741 2406 2741 
Q 2056 2741 1856 2470 
Q 1656 2200 1656 1722 
L 1656 0 
L 538 0 
L 538 3500 
L 1656 3500 
L 1656 2988 
Q 1909 3294 2193 3439 
Q 2478 3584 2822 3584 
Q 3428 3584 3742 3212 
Q 4056 2841 4056 2131 
z
" transform="scale(0.015625)"/>
      <path id="DejaVuSans-Bold-73" d="M 3272 3391 
L 3272 2541 
Q 2913 2691 2578 2766 
Q 2244 2841 1947 2841 
Q 1628 2841 1473 2761 
Q 1319 2681 1319 2516 
Q 1319 2381 1436 2309 
Q 1553 2238 1856 2203 
L 2053 2175 
Q 2913 2066 3209 1816 
Q 3506 1566 3506 1031 
Q 3506 472 3093 190 
Q 2681 -91 1863 -91 
Q 1516 -91 1145 -36 
Q 775 19 384 128 
L 384 978 
Q 719 816 1070 734 
Q 1422 653 1784 653 
Q 2113 653 2278 743 
Q 2444 834 2444 1013 
Q 2444 1163 2330 1236 
Q 2216 1309 1875 1350 
L 1678 1375 
Q 931 1469 631 1722 
Q 331 1975 331 2491 
Q 331 3047 712 3315 
Q 1094 3584 1881 3584 
Q 2191 3584 2531 3537 
Q 2872 3491 3272 3391 
z
" transform="scale(0.015625)"/>
      <path id="DejaVuSans-Bold-6f" d="M 2203 2784 
Q 1831 2784 1636 2517 
Q 1441 2250 1441 1747 
Q 1441 1244 1636 976 
Q 1831 709 2203 709 
Q 2569 709 2762 976 
Q 2956 1244 2956 1747 
Q 2956 2250 2762 2517 
Q 2569 2784 2203 2784 
z
M 2203 3584 
Q 3106 3584 3614 3096 
Q 4122 2609 4122 1747 
Q 4122 884 3614 396 
Q 3106 -91 2203 -91 
Q 1297 -91 786 396 
Q 275 884 275 1747 
Q 275 2609 786 3096 
Q 1297 3584 2203 3584 
z
" transform="scale(0.015625)"/>
      <path id="DejaVuSans-Bold-29" d="M 513 -844 
Q 913 -100 1113 609 
Q 1313 1319 1313 2009 
Q 1313 2700 1113 3408 
Q 913 4116 513 4856 
L 1441 4856 
Q 1916 4091 2145 3389 
Q 2375 2688 2375 2003 
Q 2375 1319 2147 623 
Q 1919 -72 1441 -844 
L 513 -844 
z
" transform="scale(0.015625)"/>
     </defs>
     <use xlink:href="#DejaVuSans-Bold-28"/>
     <use xlink:href="#DejaVuSans-Bold-31" transform="translate(45.703125 0)"/>
     <use xlink:href="#DejaVuSans-Bold-2c" transform="translate(115.283203 0)"/>
     <use xlink:href="#DejaVuSans-Bold-38" transform="translate(153.271484 0)"/>
     <use xlink:href="#DejaVuSans-Bold-32" transform="translate(222.851562 0)"/>
     <use xlink:href="#DejaVuSans-Bold-36" transform="translate(292.431641 0)"/>
     <use xlink:href="#DejaVuSans-Bold-20" transform="translate(362.011719 0)"/>
     <use xlink:href="#DejaVuSans-Bold-74" transform="translate(396.826172 0)"/>
     <use xlink:href="#DejaVuSans-Bold-65" transform="translate(444.628906 0)"/>
     <use xlink:href="#DejaVuSans-Bold-6e" transform="translate(512.451172 0)"/>
     <use xlink:href="#DejaVuSans-Bold-73" transform="translate(583.642578 0)"/>
     <use xlink:href="#DejaVuSans-Bold-6f" transform="translate(643.164062 0)"/>
     <use xlink:href="#DejaVuSans-Bold-72" transform="translate(711.865234 0)"/>
     <use xlink:href="#DejaVuSans-Bold-73" transform="translate(761.181641 0)"/>
     <use xlink:href="#DejaVuSans-Bold-29" transform="translate(820.703125 0)"/>
    </g>
   </g>
  </g>
  <g id="axes_2">
   <g id="matplotlib.axis_3"/>
   <g id="matplotlib.axis_4"/>
   <g id="patch_4">
    <path d="M 424.480658 88.390422 
C 411.662274 88.390422 398.961202 90.840153 387.062328 95.607517 
C 375.163455 100.374881 364.284571 107.372618 355.012308 116.223385 
C 345.740044 125.074153 338.244115 135.615949 332.928728 147.280323 
C 327.613341 158.944697 324.575787 171.518148 323.979862 184.322672 
C 323.383937 197.127196 325.240548 209.928423 329.44958 222.036065 
C 333.658613 234.143708 340.143026 245.336152 348.553156 255.009862 
C 356.963287 264.683571 367.145201 272.661482 378.549851 278.513397 
C 389.954501 284.365312 402.373142 287.98412 415.136117 289.174682 
C 427.899091 290.365243 440.772791 289.105767 453.063019 285.464169 
C 465.353248 281.822571 476.83505 275.865504 486.889286 267.914196 
C 496.943522 259.962889 505.386163 250.162877 511.761951 239.042612 
C 518.13774 227.922348 522.329976 215.685372 524.1126 202.991547 
C 525.895223 190.297721 525.235606 177.379388 522.169316 164.933151 
C 519.103027 152.486914 513.686189 140.740583 506.210899 130.327562 
C 498.735609 119.914542 489.33869 111.025428 478.52686 104.139554 
C 467.715029 97.253679 455.686181 92.49708 443.088954 90.126249 
L 435.645636 129.67575 
C 443.203971 131.098248 450.42128 133.952208 456.908379 138.083732 
C 463.395477 142.215257 469.033628 147.548725 473.518802 153.796537 
C 478.003977 160.04435 481.254079 167.092148 483.093853 174.559891 
C 484.933627 182.027633 485.329397 189.778633 484.259823 197.394928 
C 483.190249 205.011223 480.674907 212.353409 476.849434 219.025567 
C 473.023961 225.697726 467.958376 231.577733 461.925835 236.348518 
C 455.893293 241.119303 449.004212 244.693542 441.630075 246.878501 
C 434.255938 249.06346 426.531718 249.819146 418.873933 249.104809 
C 411.216148 248.390472 403.764964 246.219187 396.922173 242.708038 
C 390.079383 239.196889 383.970235 234.410143 378.924157 228.605917 
C 373.878078 222.801691 369.987431 216.086225 367.462011 208.821639 
C 364.936592 201.557054 363.822625 193.876317 364.18018 186.193603 
C 364.537736 178.510889 366.360268 170.966818 369.5495 163.968194 
C 372.738732 156.969569 377.236289 150.644492 382.799648 145.334031 
C 388.363006 140.023571 394.890336 135.824929 402.02966 132.96451 
C 409.168984 130.104092 416.789628 128.634253 424.480658 128.634253 
z
" style="fill: #3498db; stroke: #ffffff; stroke-linejoin: miter"/>
   </g>
   <g id="patch_5">
    <path d="M 443.088965 90.126249 
C 440.022897 89.549207 436.931622 89.115093 433.825212 88.825321 
C 430.718802 88.53555 427.600616 88.390422 424.48072 88.390422 
L 424.480695 128.634253 
C 426.352633 128.634253 428.223544 128.72133 430.08739 128.895193 
C 431.951236 129.069056 433.806001 129.329524 435.645642 129.675749 
z
" style="fill: #ecf0f1; stroke: #ffffff; stroke-linejoin: miter"/>
   </g>
   <g id="text_6">
    <!-- Modified -->
    <g style="fill: #262626" transform="translate(375.795571 301.675587) scale(0.09 -0.09)">
     <use xlink:href="#DejaVuSans-4d"/>
     <use xlink:href="#DejaVuSans-6f" transform="translate(86.279297 0)"/>
     <use xlink:href="#DejaVuSans-64" transform="translate(147.460938 0)"/>
     <use xlink:href="#DejaVuSans-69" transform="translate(210.9375 0)"/>
     <use xlink:href="#DejaVuSans-66" transform="translate(238.720703 0)"/>
     <use xlink:href="#DejaVuSans-69" transform="translate(273.925781 0)"/>
     <use xlink:href="#DejaVuSans-65" transform="translate(301.708984 0)"/>
     <use xlink:href="#DejaVuSans-64" transform="translate(363.232422 0)"/>
    </g>
   </g>
   <g id="text_7">
    <!-- 97.0% -->
    <g style="fill: #262626" transform="translate(401.393542 271.623183) scale(0.09 -0.09)">
     <defs>
      <path id="DejaVuSans-Bold-37" d="M 428 4666 
L 3944 4666 
L 3944 3988 
L 2125 0 
L 953 0 
L 2675 3781 
L 428 3781 
L 428 4666 
z
" transform="scale(0.015625)"/>
      <path id="DejaVuSans-Bold-30" d="M 2944 2338 
Q 2944 3213 2780 3570 
Q 2616 3928 2228 3928 
Q 1841 3928 1675 3570 
Q 1509 3213 1509 2338 
Q 1509 1453 1675 1090 
Q 1841 728 2228 728 
Q 2613 728 2778 1090 
Q 2944 1453 2944 2338 
z
M 4147 2328 
Q 4147 1169 3647 539 
Q 3147 -91 2228 -91 
Q 1306 -91 806 539 
Q 306 1169 306 2328 
Q 306 3491 806 4120 
Q 1306 4750 2228 4750 
Q 3147 4750 3647 4120 
Q 4147 3491 4147 2328 
z
" transform="scale(0.015625)"/>
     </defs>
     <use xlink:href="#DejaVuSans-Bold-39"/>
     <use xlink:href="#DejaVuSans-Bold-37" transform="translate(69.580078 0)"/>
     <use xlink:href="#DejaVuSans-Bold-2e" transform="translate(139.160156 0)"/>
     <use xlink:href="#DejaVuSans-Bold-30" transform="translate(177.148438 0)"/>
     <use xlink:href="#DejaVuSans-Bold-25" transform="translate(246.728516 0)"/>
    </g>
   </g>
   <g id="text_8">
    <!-- Unchanged -->
    <g style="fill: #262626" transform="translate(434.759719 81.291294) scale(0.09 -0.09)">
     <use xlink:href="#DejaVuSans-55"/>
     <use xlink:href="#DejaVuSans-6e" transform="translate(73.193359 0)"/>
     <use xlink:href="#DejaVuSans-63" transform="translate(136.572266 0)"/>
     <use xlink:href="#DejaVuSans-68" transform="translate(191.552734 0)"/>
     <use xlink:href="#DejaVuSans-61" transform="translate(254.931641 0)"/>
     <use xlink:href="#DejaVuSans-6e" transform="translate(316.210938 0)"/>
     <use xlink:href="#DejaVuSans-67" transform="translate(379.589844 0)"/>
     <use xlink:href="#DejaVuSans-65" transform="translate(443.066406 0)"/>
     <use xlink:href="#DejaVuSans-64" transform="translate(504.589844 0)"/>
    </g>
   </g>
   <g id="text_9">
    <!-- 3.0% -->
    <g style="fill: #262626" transform="translate(420.52423 111.343697) scale(0.09 -0.09)">
     <defs>
      <path id="DejaVuSans-33" d="M 2597 2516 
Q 3050 2419 3304 2112 
Q 3559 1806 3559 1356 
Q 3559 666 3084 287 
Q 2609 -91 1734 -91 
Q 1441 -91 1130 -33 
Q 819 25 488 141 
L 488 750 
Q 750 597 1062 519 
Q 1375 441 1716 441 
Q 2309 441 2620 675 
Q 2931 909 2931 1356 
Q 2931 1769 2642 2001 
Q 2353 2234 1838 2234 
L 1294 2234 
L 1294 2753 
L 1863 2753 
Q 2328 2753 2575 2939 
Q 2822 3125 2822 3475 
Q 2822 3834 2567 4026 
Q 2313 4219 1838 4219 
Q 1578 4219 1281 4162 
Q 984 4106 628 3988 
L 628 4550 
Q 988 4650 1302 4700 
Q 1616 4750 1894 4750 
Q 2613 4750 3031 4423 
Q 3450 4097 3450 3541 
Q 3450 3153 3228 2886 
Q 3006 2619 2597 2516 
z
" transform="scale(0.015625)"/>
     </defs>
     <use xlink:href="#DejaVuSans-33"/>
     <use xlink:href="#DejaVuSans-2e" transform="translate(63.623047 0)"/>
     <use xlink:href="#DejaVuSans-30" transform="translate(95.410156 0)"/>
     <use xlink:href="#DejaVuSans-25" transform="translate(159.033203 0)"/>
    </g>
   </g>
   <g id="text_10">
    <!-- HauhauCS -->
    <g style="fill: #262626" transform="translate(392.608158 44.920433) scale(0.11 -0.11)">
     <defs>
      <path id="DejaVuSans-Bold-61" d="M 2106 1575 
Q 1756 1575 1579 1456 
Q 1403 1338 1403 1106 
Q 1403 894 1545 773 
Q 1688 653 1941 653 
Q 2256 653 2472 879 
Q 2688 1106 2688 1447 
L 2688 1575 
L 2106 1575 
z
M 3816 1997 
L 3816 0 
L 2688 0 
L 2688 519 
Q 2463 200 2181 54 
Q 1900 -91 1497 -91 
Q 953 -91 614 226 
Q 275 544 275 1050 
Q 275 1666 698 1953 
Q 1122 2241 2028 2241 
L 2688 2241 
L 2688 2328 
Q 2688 2594 2478 2717 
Q 2269 2841 1825 2841 
Q 1466 2841 1156 2769 
Q 847 2697 581 2553 
L 581 3406 
Q 941 3494 1303 3539 
Q 1666 3584 2028 3584 
Q 2975 3584 3395 3211 
Q 3816 2838 3816 1997 
z
" transform="scale(0.015625)"/>
      <path id="DejaVuSans-Bold-75" d="M 500 1363 
L 500 3500 
L 1625 3500 
L 1625 3150 
Q 1625 2866 1622 2436 
Q 1619 2006 1619 1863 
Q 1619 1441 1641 1255 
Q 1663 1069 1716 984 
Q 1784 875 1895 815 
Q 2006 756 2150 756 
Q 2500 756 2700 1025 
Q 2900 1294 2900 1772 
L 2900 3500 
L 4019 3500 
L 4019 0 
L 2900 0 
L 2900 506 
Q 2647 200 2364 54 
Q 2081 -91 1741 -91 
Q 1134 -91 817 281 
Q 500 653 500 1363 
z
" transform="scale(0.015625)"/>
      <path id="DejaVuSans-Bold-68" d="M 4056 2131 
L 4056 0 
L 2931 0 
L 2931 347 
L 2931 1625 
Q 2931 2084 2911 2256 
Q 2891 2428 2841 2509 
Q 2775 2619 2662 2680 
Q 2550 2741 2406 2741 
Q 2056 2741 1856 2470 
Q 1656 2200 1656 1722 
L 1656 0 
L 538 0 
L 538 4863 
L 1656 4863 
L 1656 2988 
Q 1909 3294 2193 3439 
Q 2478 3584 2822 3584 
Q 3428 3584 3742 3212 
Q 4056 2841 4056 2131 
z
" transform="scale(0.015625)"/>
      <path id="DejaVuSans-Bold-43" d="M 4288 256 
Q 3956 84 3597 -3 
Q 3238 -91 2847 -91 
Q 1681 -91 1000 561 
Q 319 1213 319 2328 
Q 319 3447 1000 4098 
Q 1681 4750 2847 4750 
Q 3238 4750 3597 4662 
Q 3956 4575 4288 4403 
L 4288 3438 
Q 3953 3666 3628 3772 
Q 3303 3878 2944 3878 
Q 2300 3878 1931 3465 
Q 1563 3053 1563 2328 
Q 1563 1606 1931 1193 
Q 2300 781 2944 781 
Q 3303 781 3628 887 
Q 3953 994 4288 1222 
L 4288 256 
z
" transform="scale(0.015625)"/>
      <path id="DejaVuSans-Bold-53" d="M 3834 4519 
L 3834 3531 
Q 3450 3703 3084 3790 
Q 2719 3878 2394 3878 
Q 1963 3878 1756 3759 
Q 1550 3641 1550 3391 
Q 1550 3203 1689 3098 
Q 1828 2994 2194 2919 
L 2706 2816 
Q 3484 2659 3812 2340 
Q 4141 2022 4141 1434 
Q 4141 663 3683 286 
Q 3225 -91 2284 -91 
Q 1841 -91 1394 -6 
Q 947 78 500 244 
L 500 1259 
Q 947 1022 1364 901 
Q 1781 781 2169 781 
Q 2563 781 2772 912 
Q 2981 1044 2981 1288 
Q 2981 1506 2839 1625 
Q 2697 1744 2272 1838 
L 1806 1941 
Q 1106 2091 782 2419 
Q 459 2747 459 3303 
Q 459 4000 909 4375 
Q 1359 4750 2203 4750 
Q 2588 4750 2994 4692 
Q 3400 4634 3834 4519 
z
" transform="scale(0.015625)"/>
     </defs>
     <use xlink:href="#DejaVuSans-Bold-48"/>
     <use xlink:href="#DejaVuSans-Bold-61" transform="translate(83.691406 0)"/>
     <use xlink:href="#DejaVuSans-Bold-75" transform="translate(151.171875 0)"/>
     <use xlink:href="#DejaVuSans-Bold-68" transform="translate(222.363281 0)"/>
     <use xlink:href="#DejaVuSans-Bold-61" transform="translate(293.554688 0)"/>
     <use xlink:href="#DejaVuSans-Bold-75" transform="translate(361.035156 0)"/>
     <use xlink:href="#DejaVuSans-Bold-43" transform="translate(432.226562 0)"/>
     <use xlink:href="#DejaVuSans-Bold-53" transform="translate(507.490234 0)"/>
    </g>
    <!-- (9,210 tensors) -->
    <g style="fill: #262626" transform="translate(376.830033 57.238027) scale(0.11 -0.11)">
     <use xlink:href="#DejaVuSans-Bold-28"/>
     <use xlink:href="#DejaVuSans-Bold-39" transform="translate(45.703125 0)"/>
     <use xlink:href="#DejaVuSans-Bold-2c" transform="translate(115.283203 0)"/>
     <use xlink:href="#DejaVuSans-Bold-32" transform="translate(153.271484 0)"/>
     <use xlink:href="#DejaVuSans-Bold-31" transform="translate(222.851562 0)"/>
     <use xlink:href="#DejaVuSans-Bold-30" transform="translate(292.431641 0)"/>
     <use xlink:href="#DejaVuSans-Bold-20" transform="translate(362.011719 0)"/>
     <use xlink:href="#DejaVuSans-Bold-74" transform="translate(396.826172 0)"/>
     <use xlink:href="#DejaVuSans-Bold-65" transform="translate(444.628906 0)"/>
     <use xlink:href="#DejaVuSans-Bold-6e" transform="translate(512.451172 0)"/>
     <use xlink:href="#DejaVuSans-Bold-73" transform="translate(583.642578 0)"/>
     <use xlink:href="#DejaVuSans-Bold-6f" transform="translate(643.164062 0)"/>
     <use xlink:href="#DejaVuSans-Bold-72" transform="translate(711.865234 0)"/>
     <use xlink:href="#DejaVuSans-Bold-73" transform="translate(761.181641 0)"/>
     <use xlink:href="#DejaVuSans-Bold-29" transform="translate(820.703125 0)"/>
    </g>
   </g>
  </g>
  <g id="axes_3">
   <g id="matplotlib.axis_5"/>
   <g id="matplotlib.axis_6"/>
   <g id="patch_6">
    <path d="M 715.999342 88.390422 
C 698.799894 88.390422 681.884357 92.800852 666.874541 101.198855 
C 651.864725 109.596857 639.256164 121.70518 630.257728 136.362914 
C 621.259292 151.020649 616.168055 167.743884 615.472151 184.929248 
C 614.776246 202.114612 618.498647 219.194747 626.282463 234.532063 
L 662.169214 216.319238 
C 657.498925 207.116848 655.265484 196.868767 655.683027 186.557549 
C 656.10057 176.24633 659.155312 166.212389 664.554374 157.417748 
C 669.953435 148.623108 677.518572 141.358114 686.524461 136.319313 
C 695.530351 131.280511 705.679673 128.634253 715.999342 128.634253 
z
" style="fill: #2ecc71; stroke: #ffffff; stroke-linejoin: miter"/>
   </g>
   <g id="patch_7">
    <path d="M 626.282468 234.532069 
C 634.378553 250.48468 646.58482 263.99296 661.638085 273.658971 
C 676.69135 283.324982 694.053781 288.803363 711.928581 289.527188 
C 729.803381 290.251008 747.551922 286.19442 763.33745 277.7772 
C 779.122977 269.35998 792.381508 256.882874 801.740945 241.637106 
C 811.100382 226.391338 816.226331 208.921617 816.588322 191.035828 
C 816.950318 173.150041 812.535398 155.487169 803.800485 139.875195 
C 795.065573 124.26322 782.322743 111.259877 766.890708 102.210853 
C 751.458677 93.161828 733.888806 88.390422 715.999356 88.390422 
L 715.999351 128.634253 
C 726.733021 128.634253 737.274943 131.497097 746.534162 136.926512 
C 755.793383 142.355926 763.439081 150.157932 768.680028 159.525117 
C 773.920976 168.892302 776.569928 179.490025 776.35273 190.221497 
C 776.135536 200.95297 773.059966 211.434803 767.444304 220.582264 
C 761.828642 229.729724 753.873523 237.215988 744.402207 242.26632 
C 734.93089 247.316652 724.281766 249.750605 713.556886 249.316313 
C 702.832005 248.882018 692.414547 245.594989 683.382588 239.795382 
C 674.350629 233.995776 667.026869 225.890808 662.169218 216.319242 
z
" style="fill: #ecf0f1; stroke: #ffffff; stroke-linejoin: miter"/>
   </g>
   <g id="text_11">
    <!-- Modified -->
    <g style="fill: #262626" transform="translate(583.277465 133.582655) scale(0.09 -0.09)">
     <use xlink:href="#DejaVuSans-4d"/>
     <use xlink:href="#DejaVuSans-6f" transform="translate(86.279297 0)"/>
     <use xlink:href="#DejaVuSans-64" transform="translate(147.460938 0)"/>
     <use xlink:href="#DejaVuSans-69" transform="translate(210.9375 0)"/>
     <use xlink:href="#DejaVuSans-66" transform="translate(238.720703 0)"/>
     <use xlink:href="#DejaVuSans-69" transform="translate(273.925781 0)"/>
     <use xlink:href="#DejaVuSans-65" transform="translate(301.708984 0)"/>
     <use xlink:href="#DejaVuSans-64" transform="translate(363.232422 0)"/>
    </g>
   </g>
   <g id="text_12">
    <!-- 32.5% -->
    <g style="fill: #262626" transform="translate(631.794561 149.373777) scale(0.09 -0.09)">
     <defs>
      <path id="DejaVuSans-Bold-33" d="M 2981 2516 
Q 3453 2394 3698 2092 
Q 3944 1791 3944 1325 
Q 3944 631 3412 270 
Q 2881 -91 1863 -91 
Q 1503 -91 1142 -33 
Q 781 25 428 141 
L 428 1069 
Q 766 900 1098 814 
Q 1431 728 1753 728 
Q 2231 728 2486 893 
Q 2741 1059 2741 1369 
Q 2741 1688 2480 1852 
Q 2219 2016 1709 2016 
L 1228 2016 
L 1228 2791 
L 1734 2791 
Q 2188 2791 2409 2933 
Q 2631 3075 2631 3366 
Q 2631 3634 2415 3781 
Q 2200 3928 1806 3928 
Q 1516 3928 1219 3862 
Q 922 3797 628 3669 
L 628 4550 
Q 984 4650 1334 4700 
Q 1684 4750 2022 4750 
Q 2931 4750 3382 4451 
Q 3834 4153 3834 3553 
Q 3834 3144 3618 2883 
Q 3403 2622 2981 2516 
z
" transform="scale(0.015625)"/>
      <path id="DejaVuSans-Bold-35" d="M 678 4666 
L 3669 4666 
L 3669 3781 
L 1638 3781 
L 1638 3059 
Q 1775 3097 1914 3117 
Q 2053 3138 2203 3138 
Q 3056 3138 3531 2711 
Q 4006 2284 4006 1522 
Q 4006 766 3489 337 
Q 2972 -91 2053 -91 
Q 1656 -91 1267 -14 
Q 878 63 494 219 
L 494 1166 
Q 875 947 1217 837 
Q 1559 728 1863 728 
Q 2300 728 2551 942 
Q 2803 1156 2803 1522 
Q 2803 1891 2551 2103 
Q 2300 2316 1863 2316 
Q 1603 2316 1309 2248 
Q 1016 2181 678 2041 
L 678 4666 
z
" transform="scale(0.015625)"/>
     </defs>
     <use xlink:href="#DejaVuSans-Bold-33"/>
     <use xlink:href="#DejaVuSans-Bold-32" transform="translate(69.580078 0)"/>
     <use xlink:href="#DejaVuSans-Bold-2e" transform="translate(139.160156 0)"/>
     <use xlink:href="#DejaVuSans-Bold-35" transform="translate(177.148438 0)"/>
     <use xlink:href="#DejaVuSans-Bold-25" transform="translate(246.728516 0)"/>
    </g>
   </g>
   <g id="text_13">
    <!-- Unchanged -->
    <g style="fill: #262626" transform="translate(810.31513 249.384212) scale(0.09 -0.09)">
     <use xlink:href="#DejaVuSans-55"/>
     <use xlink:href="#DejaVuSans-6e" transform="translate(73.193359 0)"/>
     <use xlink:href="#DejaVuSans-63" transform="translate(136.572266 0)"/>
     <use xlink:href="#DejaVuSans-68" transform="translate(191.552734 0)"/>
     <use xlink:href="#DejaVuSans-61" transform="translate(254.931641 0)"/>
     <use xlink:href="#DejaVuSans-6e" transform="translate(316.210938 0)"/>
     <use xlink:href="#DejaVuSans-67" transform="translate(379.589844 0)"/>
     <use xlink:href="#DejaVuSans-65" transform="translate(443.066406 0)"/>
     <use xlink:href="#DejaVuSans-64" transform="translate(504.589844 0)"/>
    </g>
   </g>
   <g id="text_14">
    <!-- 67.5% -->
    <g style="fill: #262626" transform="translate(770.297408 233.593092) scale(0.09 -0.09)">
     <defs>
      <path id="DejaVuSans-36" d="M 2113 2584 
Q 1688 2584 1439 2293 
Q 1191 2003 1191 1497 
Q 1191 994 1439 701 
Q 1688 409 2113 409 
Q 2538 409 2786 701 
Q 3034 994 3034 1497 
Q 3034 2003 2786 2293 
Q 2538 2584 2113 2584 
z
M 3366 4563 
L 3366 3988 
Q 3128 4100 2886 4159 
Q 2644 4219 2406 4219 
Q 1781 4219 1451 3797 
Q 1122 3375 1075 2522 
Q 1259 2794 1537 2939 
Q 1816 3084 2150 3084 
Q 2853 3084 3261 2657 
Q 3669 2231 3669 1497 
Q 3669 778 3244 343 
Q 2819 -91 2113 -91 
Q 1303 -91 875 529 
Q 447 1150 447 2328 
Q 447 3434 972 4092 
Q 1497 4750 2381 4750 
Q 2619 4750 2861 4703 
Q 3103 4656 3366 4563 
z
" transform="scale(0.015625)"/>
      <path id="DejaVuSans-37" d="M 525 4666 
L 3525 4666 
L 3525 4397 
L 1831 0 
L 1172 0 
L 2766 4134 
L 525 4134 
L 525 4666 
z
" transform="scale(0.015625)"/>
      <path id="DejaVuSans-35" d="M 691 4666 
L 3169 4666 
L 3169 4134 
L 1269 4134 
L 1269 2991 
Q 1406 3038 1543 3061 
Q 1681 3084 1819 3084 
Q 2600 3084 3056 2656 
Q 3513 2228 3513 1497 
Q 3513 744 3044 326 
Q 2575 -91 1722 -91 
Q 1428 -91 1123 -41 
Q 819 9 494 109 
L 494 744 
Q 775 591 1075 516 
Q 1375 441 1709 441 
Q 2250 441 2565 725 
Q 2881 1009 2881 1497 
Q 2881 1984 2565 2268 
Q 2250 2553 1709 2553 
Q 1456 2553 1204 2497 
Q 953 2441 691 2322 
L 691 4666 
z
" transform="scale(0.015625)"/>
     </defs>
     <use xlink:href="#DejaVuSans-36"/>
     <use xlink:href="#DejaVuSans-37" transform="translate(63.623047 0)"/>
     <use xlink:href="#DejaVuSans-2e" transform="translate(127.246094 0)"/>
     <use xlink:href="#DejaVuSans-35" transform="translate(159.033203 0)"/>
     <use xlink:href="#DejaVuSans-25" transform="translate(222.65625 0)"/>
    </g>
   </g>
   <g id="text_15">
    <!-- Huihui -->
    <g style="fill: #262626" transform="translate(695.879655 44.920433) scale(0.11 -0.11)">
     <use xlink:href="#DejaVuSans-Bold-48"/>
     <use xlink:href="#DejaVuSans-Bold-75" transform="translate(83.691406 0)"/>
     <use xlink:href="#DejaVuSans-Bold-69" transform="translate(154.882812 0)"/>
     <use xlink:href="#DejaVuSans-Bold-68" transform="translate(189.160156 0)"/>
     <use xlink:href="#DejaVuSans-Bold-75" transform="translate(260.351562 0)"/>
     <use xlink:href="#DejaVuSans-Bold-69" transform="translate(331.542969 0)"/>
    </g>
    <!-- (3,151 tensors) -->
    <g style="fill: #262626" transform="translate(668.348717 57.238027) scale(0.11 -0.11)">
     <use xlink:href="#DejaVuSans-Bold-28"/>
     <use xlink:href="#DejaVuSans-Bold-33" transform="translate(45.703125 0)"/>
     <use xlink:href="#DejaVuSans-Bold-2c" transform="translate(115.283203 0)"/>
     <use xlink:href="#DejaVuSans-Bold-31" transform="translate(153.271484 0)"/>
     <use xlink:href="#DejaVuSans-Bold-35" transform="translate(222.851562 0)"/>
     <use xlink:href="#DejaVuSans-Bold-31" transform="translate(292.431641 0)"/>
     <use xlink:href="#DejaVuSans-Bold-20" transform="translate(362.011719 0)"/>
     <use xlink:href="#DejaVuSans-Bold-74" transform="translate(396.826172 0)"/>
     <use xlink:href="#DejaVuSans-Bold-65" transform="translate(444.628906 0)"/>
     <use xlink:href="#DejaVuSans-Bold-6e" transform="translate(512.451172 0)"/>
     <use xlink:href="#DejaVuSans-Bold-73" transform="translate(583.642578 0)"/>
     <use xlink:href="#DejaVuSans-Bold-6f" transform="translate(643.164062 0)"/>
     <use xlink:href="#DejaVuSans-Bold-72" transform="translate(711.865234 0)"/>
     <use xlink:href="#DejaVuSans-Bold-73" transform="translate(761.181641 0)"/>
     <use xlink:href="#DejaVuSans-Bold-29" transform="translate(820.703125 0)"/>
    </g>
   </g>
  </g>
  <g id="axes_4">
   <g id="matplotlib.axis_7"/>
   <g id="matplotlib.axis_8"/>
   <g id="patch_8">
    <path d="M 1007.518027 88.390422 
C 995.407769 88.390422 983.39641 90.576968 972.063039 94.844644 
C 960.729669 99.112319 950.259395 105.39142 941.15701 113.379218 
L 967.701417 143.627531 
C 973.162848 138.834852 979.445012 135.067392 986.245034 132.506786 
C 993.045057 129.946181 1000.251872 128.634253 1007.518027 128.634253 
z
" style="fill: #f39c12; stroke: #ffffff; stroke-linejoin: miter"/>
   </g>
   <g id="patch_9">
    <path d="M 941.157002 113.379224 
C 932.370998 121.089385 924.995547 130.272084 919.362251 140.514474 
C 913.728955 150.756862 909.923531 161.903108 908.117085 173.452016 
C 906.31064 185.000924 906.53065 196.776791 908.767234 208.250161 
C 911.003818 219.723531 915.222931 230.719824 921.234889 240.744638 
C 927.246847 250.769456 934.960163 259.670252 944.028042 267.046841 
C 953.09592 274.423431 963.380387 280.163572 974.419038 284.009181 
C 985.457689 287.854789 997.082563 289.747349 1008.770991 289.601777 
C 1020.459419 289.456198 1032.03355 287.274701 1042.972999 283.155362 
C 1053.912448 279.036024 1064.050761 273.041528 1072.932109 265.441384 
C 1081.813457 257.84124 1089.302708 248.751096 1095.063125 238.579662 
C 1100.823541 228.408226 1104.767491 217.310219 1106.717626 205.784704 
C 1108.667761 194.259188 1108.59442 182.481447 1106.50089 170.981113 
C 1104.407366 159.480779 1100.325519 148.4328 1094.43887 138.333892 
C 1088.552221 128.234984 1080.950344 119.238821 1071.975032 111.749875 
C 1062.99972 104.26093 1052.787539 98.393159 1041.797632 94.410379 
C 1030.807728 90.4276 1019.207375 88.390422 1007.518041 88.390422 
L 1007.518035 128.634253 
C 1014.531636 128.634253 1021.491847 129.85656 1028.08579 132.246228 
C 1034.679734 134.635895 1040.807043 138.156558 1046.19223 142.649925 
C 1051.577417 147.143293 1056.138543 152.54099 1059.670533 158.600335 
C 1063.202522 164.65968 1065.65163 171.288467 1066.907745 178.188668 
C 1068.163863 185.088868 1068.207867 192.155513 1067.037787 199.070822 
C 1065.867706 205.986131 1063.501335 212.644936 1060.045086 218.747797 
C 1056.588836 224.850657 1052.095285 230.304744 1046.766476 234.864831 
C 1041.437667 239.424917 1035.35468 243.021614 1028.79101 245.493217 
C 1022.227341 247.964821 1015.282862 249.273719 1008.269805 249.361066 
C 1001.256749 249.448409 994.281824 248.312874 987.658634 246.005508 
C 981.035443 243.698143 974.864763 240.254058 969.424036 235.828105 
C 963.983309 231.402151 959.355319 226.061674 955.748144 220.046783 
C 952.14097 214.031894 949.609502 207.434119 948.267551 200.550097 
C 946.925601 193.666075 946.793595 186.600555 947.877462 179.67121 
C 948.961329 172.741865 951.244584 166.054117 954.624561 159.908685 
C 958.004539 153.76325 962.429809 148.253631 967.701412 143.627534 
z
" style="fill: #ecf0f1; stroke: #ffffff; stroke-linejoin: miter"/>
   </g>
   <g id="text_16">
    <!-- Modified -->
    <g style="fill: #262626" transform="translate(930.111436 87.912549) scale(0.09 -0.09)">
     <use xlink:href="#DejaVuSans-4d"/>
     <use xlink:href="#DejaVuSans-6f" transform="translate(86.279297 0)"/>
     <use xlink:href="#DejaVuSans-64" transform="translate(147.460938 0)"/>
     <use xlink:href="#DejaVuSans-69" transform="translate(210.9375 0)"/>
     <use xlink:href="#DejaVuSans-66" transform="translate(238.720703 0)"/>
     <use xlink:href="#DejaVuSans-69" transform="translate(273.925781 0)"/>
     <use xlink:href="#DejaVuSans-65" transform="translate(301.708984 0)"/>
     <use xlink:href="#DejaVuSans-64" transform="translate(363.232422 0)"/>
    </g>
   </g>
   <g id="text_17">
    <!-- 11.5% -->
    <g style="fill: #262626" transform="translate(963.542545 116.159155) scale(0.09 -0.09)">
     <use xlink:href="#DejaVuSans-Bold-31"/>
     <use xlink:href="#DejaVuSans-Bold-31" transform="translate(69.580078 0)"/>
     <use xlink:href="#DejaVuSans-Bold-2e" transform="translate(139.160156 0)"/>
     <use xlink:href="#DejaVuSans-Bold-35" transform="translate(177.148438 0)"/>
     <use xlink:href="#DejaVuSans-Bold-25" transform="translate(246.728516 0)"/>
    </g>
   </g>
   <g id="text_18">
    <!-- Unchanged -->
    <g style="fill: #262626" transform="translate(1046.518545 295.054317) scale(0.09 -0.09)">
     <use xlink:href="#DejaVuSans-55"/>
     <use xlink:href="#DejaVuSans-6e" transform="translate(73.193359 0)"/>
     <use xlink:href="#DejaVuSans-63" transform="translate(136.572266 0)"/>
     <use xlink:href="#DejaVuSans-68" transform="translate(191.552734 0)"/>
     <use xlink:href="#DejaVuSans-61" transform="translate(254.931641 0)"/>
     <use xlink:href="#DejaVuSans-6e" transform="translate(316.210938 0)"/>
     <use xlink:href="#DejaVuSans-67" transform="translate(379.589844 0)"/>
     <use xlink:href="#DejaVuSans-65" transform="translate(443.066406 0)"/>
     <use xlink:href="#DejaVuSans-64" transform="translate(504.589844 0)"/>
    </g>
   </g>
   <g id="text_19">
    <!-- 88.5% -->
    <g style="fill: #262626" transform="translate(1021.586806 266.807714) scale(0.09 -0.09)">
     <use xlink:href="#DejaVuSans-38"/>
     <use xlink:href="#DejaVuSans-38" transform="translate(63.623047 0)"/>
     <use xlink:href="#DejaVuSans-2e" transform="translate(127.246094 0)"/>
     <use xlink:href="#DejaVuSans-35" transform="translate(159.033203 0)"/>
     <use xlink:href="#DejaVuSans-25" transform="translate(222.65625 0)"/>
    </g>
   </g>
   <g id="text_20">
    <!-- Abliterix -->
    <g style="fill: #262626" transform="translate(981.049277 44.920433) scale(0.11 -0.11)">
     <defs>
      <path id="DejaVuSans-Bold-41" d="M 3419 850 
L 1538 850 
L 1241 0 
L 31 0 
L 1759 4666 
L 3194 4666 
L 4922 0 
L 3713 0 
L 3419 850 
z
M 1838 1716 
L 3116 1716 
L 2478 3572 
L 1838 1716 
z
" transform="scale(0.015625)"/>
      <path id="DejaVuSans-Bold-62" d="M 2400 722 
Q 2759 722 2948 984 
Q 3138 1247 3138 1747 
Q 3138 2247 2948 2509 
Q 2759 2772 2400 2772 
Q 2041 2772 1848 2508 
Q 1656 2244 1656 1747 
Q 1656 1250 1848 986 
Q 2041 722 2400 722 
z
M 1656 2988 
Q 1888 3294 2169 3439 
Q 2450 3584 2816 3584 
Q 3463 3584 3878 3070 
Q 4294 2556 4294 1747 
Q 4294 938 3878 423 
Q 3463 -91 2816 -91 
Q 2450 -91 2169 54 
Q 1888 200 1656 506 
L 1656 0 
L 538 0 
L 538 4863 
L 1656 4863 
L 1656 2988 
z
" transform="scale(0.015625)"/>
      <path id="DejaVuSans-Bold-6c" d="M 538 4863 
L 1656 4863 
L 1656 0 
L 538 0 
L 538 4863 
z
" transform="scale(0.015625)"/>
      <path id="DejaVuSans-Bold-78" d="M 1422 1791 
L 159 3500 
L 1344 3500 
L 2059 2463 
L 2784 3500 
L 3969 3500 
L 2706 1797 
L 4031 0 
L 2847 0 
L 2059 1106 
L 1281 0 
L 97 0 
L 1422 1791 
z
" transform="scale(0.015625)"/>
     </defs>
     <use xlink:href="#DejaVuSans-Bold-41"/>
     <use xlink:href="#DejaVuSans-Bold-62" transform="translate(77.392578 0)"/>
     <use xlink:href="#DejaVuSans-Bold-6c" transform="translate(148.974609 0)"/>
     <use xlink:href="#DejaVuSans-Bold-69" transform="translate(183.251953 0)"/>
     <use xlink:href="#DejaVuSans-Bold-74" transform="translate(217.529297 0)"/>
     <use xlink:href="#DejaVuSans-Bold-65" transform="translate(265.332031 0)"/>
     <use xlink:href="#DejaVuSans-Bold-72" transform="translate(333.154297 0)"/>
     <use xlink:href="#DejaVuSans-Bold-69" transform="translate(382.470703 0)"/>
     <use xlink:href="#DejaVuSans-Bold-78" transform="translate(416.748047 0)"/>
    </g>
    <!-- (1,088 tensors) -->
    <g style="fill: #262626" transform="translate(959.867402 57.238027) scale(0.11 -0.11)">
     <use xlink:href="#DejaVuSans-Bold-28"/>
     <use xlink:href="#DejaVuSans-Bold-31" transform="translate(45.703125 0)"/>
     <use xlink:href="#DejaVuSans-Bold-2c" transform="translate(115.283203 0)"/>
     <use xlink:href="#DejaVuSans-Bold-30" transform="translate(153.271484 0)"/>
     <use xlink:href="#DejaVuSans-Bold-38" transform="translate(222.851562 0)"/>
     <use xlink:href="#DejaVuSans-Bold-38" transform="translate(292.431641 0)"/>
     <use xlink:href="#DejaVuSans-Bold-20" transform="translate(362.011719 0)"/>
     <use xlink:href="#DejaVuSans-Bold-74" transform="translate(396.826172 0)"/>
     <use xlink:href="#DejaVuSans-Bold-65" transform="translate(444.628906 0)"/>
     <use xlink:href="#DejaVuSans-Bold-6e" transform="translate(512.451172 0)"/>
     <use xlink:href="#DejaVuSans-Bold-73" transform="translate(583.642578 0)"/>
     <use xlink:href="#DejaVuSans-Bold-6f" transform="translate(643.164062 0)"/>
     <use xlink:href="#DejaVuSans-Bold-72" transform="translate(711.865234 0)"/>
     <use xlink:href="#DejaVuSans-Bold-73" transform="translate(761.181641 0)"/>
     <use xlink:href="#DejaVuSans-Bold-29" transform="translate(820.703125 0)"/>
    </g>
   </g>
  </g>
  <g id="text_21">
   <!-- Weight Modification Scope — Percentage of Tensors Changed -->
   <g style="fill: #262626" transform="translate(327.765469 17.837812) scale(0.14 -0.14)">
    <defs>
     <path id="DejaVuSans-Bold-57" d="M 191 4666 
L 1344 4666 
L 2150 1275 
L 2950 4666 
L 4109 4666 
L 4909 1275 
L 5716 4666 
L 6859 4666 
L 5759 0 
L 4372 0 
L 3525 3547 
L 2688 0 
L 1300 0 
L 191 4666 
z
" transform="scale(0.015625)"/>
     <path id="DejaVuSans-Bold-67" d="M 2919 594 
Q 2688 288 2409 144 
Q 2131 0 1766 0 
Q 1125 0 706 504 
Q 288 1009 288 1791 
Q 288 2575 706 3076 
Q 1125 3578 1766 3578 
Q 2131 3578 2409 3434 
Q 2688 3291 2919 2981 
L 2919 3500 
L 4044 3500 
L 4044 353 
Q 4044 -491 3511 -936 
Q 2978 -1381 1966 -1381 
Q 1638 -1381 1331 -1331 
Q 1025 -1281 716 -1178 
L 716 -306 
Q 1009 -475 1290 -558 
Q 1572 -641 1856 -641 
Q 2406 -641 2662 -400 
Q 2919 -159 2919 353 
L 2919 594 
z
M 2181 2772 
Q 1834 2772 1640 2515 
Q 1447 2259 1447 1791 
Q 1447 1309 1634 1061 
Q 1822 813 2181 813 
Q 2531 813 2725 1069 
Q 2919 1325 2919 1791 
Q 2919 2259 2725 2515 
Q 2531 2772 2181 2772 
z
" transform="scale(0.015625)"/>
     <path id="DejaVuSans-Bold-4d" d="M 588 4666 
L 2119 4666 
L 3181 2169 
L 4250 4666 
L 5778 4666 
L 5778 0 
L 4641 0 
L 4641 3413 
L 3566 897 
L 2803 897 
L 1728 3413 
L 1728 0 
L 588 0 
L 588 4666 
z
" transform="scale(0.015625)"/>
     <path id="DejaVuSans-Bold-64" d="M 2919 2988 
L 2919 4863 
L 4044 4863 
L 4044 0 
L 2919 0 
L 2919 506 
Q 2688 197 2409 53 
Q 2131 -91 1766 -91 
Q 1119 -91 703 423 
Q 288 938 288 1747 
Q 288 2556 703 3070 
Q 1119 3584 1766 3584 
Q 2128 3584 2408 3439 
Q 2688 3294 2919 2988 
z
M 2181 722 
Q 2541 722 2730 984 
Q 2919 1247 2919 1747 
Q 2919 2247 2730 2509 
Q 2541 2772 2181 2772 
Q 1825 2772 1636 2509 
Q 1447 2247 1447 1747 
Q 1447 1247 1636 984 
Q 1825 722 2181 722 
z
" transform="scale(0.015625)"/>
     <path id="DejaVuSans-Bold-66" d="M 2841 4863 
L 2841 4128 
L 2222 4128 
Q 1984 4128 1890 4042 
Q 1797 3956 1797 3744 
L 1797 3500 
L 2753 3500 
L 2753 2700 
L 1797 2700 
L 1797 0 
L 678 0 
L 678 2700 
L 122 2700 
L 122 3500 
L 678 3500 
L 678 3744 
Q 678 4316 997 4589 
Q 1316 4863 1984 4863 
L 2841 4863 
z
" transform="scale(0.015625)"/>
     <path id="DejaVuSans-Bold-70" d="M 1656 506 
L 1656 -1331 
L 538 -1331 
L 538 3500 
L 1656 3500 
L 1656 2988 
Q 1888 3294 2169 3439 
Q 2450 3584 2816 3584 
Q 3463 3584 3878 3070 
Q 4294 2556 4294 1747 
Q 4294 938 3878 423 
Q 3463 -91 2816 -91 
Q 2450 -91 2169 54 
Q 1888 200 1656 506 
z
M 2400 2772 
Q 2041 2772 1848 2508 
Q 1656 2244 1656 1747 
Q 1656 1250 1848 986 
Q 2041 722 2400 722 
Q 2759 722 2948 984 
Q 3138 1247 3138 1747 
Q 3138 2247 2948 2509 
Q 2759 2772 2400 2772 
z
" transform="scale(0.015625)"/>
     <path id="DejaVuSans-Bold-2014" d="M 344 2156 
L 6056 2156 
L 6056 1350 
L 344 1350 
L 344 2156 
z
" transform="scale(0.015625)"/>
     <path id="DejaVuSans-Bold-50" d="M 588 4666 
L 2584 4666 
Q 3475 4666 3951 4270 
Q 4428 3875 4428 3144 
Q 4428 2409 3951 2014 
Q 3475 1619 2584 1619 
L 1791 1619 
L 1791 0 
L 588 0 
L 588 4666 
z
M 1791 3794 
L 1791 2491 
L 2456 2491 
Q 2806 2491 2997 2661 
Q 3188 2831 3188 3144 
Q 3188 3456 2997 3625 
Q 2806 3794 2456 3794 
L 1791 3794 
z
" transform="scale(0.015625)"/>
     <path id="DejaVuSans-Bold-54" d="M 31 4666 
L 4331 4666 
L 4331 3756 
L 2784 3756 
L 2784 0 
L 1581 0 
L 1581 3756 
L 31 3756 
L 31 4666 
z
" transform="scale(0.015625)"/>
    </defs>
    <use xlink:href="#DejaVuSans-Bold-57"/>
    <use xlink:href="#DejaVuSans-Bold-65" transform="translate(106.677734 0)"/>
    <use xlink:href="#DejaVuSans-Bold-69" transform="translate(174.5 0)"/>
    <use xlink:href="#DejaVuSans-Bold-67" transform="translate(208.777344 0)"/>
    <use xlink:href="#DejaVuSans-Bold-68" transform="translate(280.359375 0)"/>
    <use xlink:href="#DejaVuSans-Bold-74" transform="translate(351.550781 0)"/>
    <use xlink:href="#DejaVuSans-Bold-20" transform="translate(399.353516 0)"/>
    <use xlink:href="#DejaVuSans-Bold-4d" transform="translate(434.167969 0)"/>
    <use xlink:href="#DejaVuSans-Bold-6f" transform="translate(533.679688 0)"/>
    <use xlink:href="#DejaVuSans-Bold-64" transform="translate(602.380859 0)"/>
    <use xlink:href="#DejaVuSans-Bold-69" transform="translate(673.962891 0)"/>
    <use xlink:href="#DejaVuSans-Bold-66" transform="translate(708.240234 0)"/>
    <use xlink:href="#DejaVuSans-Bold-69" transform="translate(751.746094 0)"/>
    <use xlink:href="#DejaVuSans-Bold-63" transform="translate(786.023438 0)"/>
    <use xlink:href="#DejaVuSans-Bold-61" transform="translate(845.300781 0)"/>
    <use xlink:href="#DejaVuSans-Bold-74" transform="translate(912.78125 0)"/>
    <use xlink:href="#DejaVuSans-Bold-69" transform="translate(960.583984 0)"/>
    <use xlink:href="#DejaVuSans-Bold-6f" transform="translate(994.861328 0)"/>
    <use xlink:href="#DejaVuSans-Bold-6e" transform="translate(1063.5625 0)"/>
    <use xlink:href="#DejaVuSans-Bold-20" transform="translate(1134.753906 0)"/>
    <use xlink:href="#DejaVuSans-Bold-53" transform="translate(1169.568359 0)"/>
    <use xlink:href="#DejaVuSans-Bold-63" transform="translate(1241.589844 0)"/>
    <use xlink:href="#DejaVuSans-Bold-6f" transform="translate(1300.867188 0)"/>
    <use xlink:href="#DejaVuSans-Bold-70" transform="translate(1369.568359 0)"/>
    <use xlink:href="#DejaVuSans-Bold-65" transform="translate(1441.150391 0)"/>
    <use xlink:href="#DejaVuSans-Bold-20" transform="translate(1508.972656 0)"/>
    <use xlink:href="#DejaVuSans-Bold-2014" transform="translate(1543.787109 0)"/>
    <use xlink:href="#DejaVuSans-Bold-20" transform="translate(1643.787109 0)"/>
    <use xlink:href="#DejaVuSans-Bold-50" transform="translate(1678.601562 0)"/>
    <use xlink:href="#DejaVuSans-Bold-65" transform="translate(1751.892578 0)"/>
    <use xlink:href="#DejaVuSans-Bold-72" transform="translate(1819.714844 0)"/>
    <use xlink:href="#DejaVuSans-Bold-63" transform="translate(1869.03125 0)"/>
    <use xlink:href="#DejaVuSans-Bold-65" transform="translate(1928.308594 0)"/>
    <use xlink:href="#DejaVuSans-Bold-6e" transform="translate(1996.130859 0)"/>
    <use xlink:href="#DejaVuSans-Bold-74" transform="translate(2067.322266 0)"/>
    <use xlink:href="#DejaVuSans-Bold-61" transform="translate(2115.125 0)"/>
    <use xlink:href="#DejaVuSans-Bold-67" transform="translate(2182.605469 0)"/>
    <use xlink:href="#DejaVuSans-Bold-65" transform="translate(2254.1875 0)"/>
    <use xlink:href="#DejaVuSans-Bold-20" transform="translate(2322.009766 0)"/>
    <use xlink:href="#DejaVuSans-Bold-6f" transform="translate(2356.824219 0)"/>
    <use xlink:href="#DejaVuSans-Bold-66" transform="translate(2425.525391 0)"/>
    <use xlink:href="#DejaVuSans-Bold-20" transform="translate(2469.03125 0)"/>
    <use xlink:href="#DejaVuSans-Bold-54" transform="translate(2503.845703 0)"/>
    <use xlink:href="#DejaVuSans-Bold-65" transform="translate(2558.808594 0)"/>
    <use xlink:href="#DejaVuSans-Bold-6e" transform="translate(2626.630859 0)"/>
    <use xlink:href="#DejaVuSans-Bold-73" transform="translate(2697.822266 0)"/>
    <use xlink:href="#DejaVuSans-Bold-6f" transform="translate(2757.34375 0)"/>
    <use xlink:href="#DejaVuSans-Bold-72" transform="translate(2826.044922 0)"/>
    <use xlink:href="#DejaVuSans-Bold-73" transform="translate(2875.361328 0)"/>
    <use xlink:href="#DejaVuSans-Bold-20" transform="translate(2934.882812 0)"/>
    <use xlink:href="#DejaVuSans-Bold-43" transform="translate(2969.697266 0)"/>
    <use xlink:href="#DejaVuSans-Bold-68" transform="translate(3043.085938 0)"/>
    <use xlink:href="#DejaVuSans-Bold-61" transform="translate(3114.277344 0)"/>
    <use xlink:href="#DejaVuSans-Bold-6e" transform="translate(3181.757812 0)"/>
    <use xlink:href="#DejaVuSans-Bold-67" transform="translate(3252.949219 0)"/>
    <use xlink:href="#DejaVuSans-Bold-65" transform="translate(3324.53125 0)"/>
    <use xlink:href="#DejaVuSans-Bold-64" transform="translate(3392.353516 0)"/>
   </g>
  </g>
 </g>
</svg>
