<?xml version="1.0" encoding="utf-8" standalone="no"?>
<!DOCTYPE svg PUBLIC "-//W3C//DTD SVG 1.1//EN"
  "http://www.w3.org/Graphics/SVG/1.1/DTD/svg11.dtd">
<svg xmlns:xlink="http://www.w3.org/1999/xlink" width="724.511pt" height="384.791562pt" viewBox="0 0 724.511 384.791562" xmlns="http://www.w3.org/2000/svg" version="1.1">
 <metadata>
  <rdf:RDF xmlns:dc="http://purl.org/dc/elements/1.1/" xmlns:cc="http://creativecommons.org/ns#" xmlns:rdf="http://www.w3.org/1999/02/22-rdf-syntax-ns#">
   <cc:Work>
    <dc:type rdf:resource="http://purl.org/dc/dcmitype/StillImage"/>
    <dc:date>2026-04-24T10:51:57.419228</dc:date>
    <dc:format>image/svg+xml</dc:format>
    <dc:creator>
     <cc:Agent>
      <dc:title>Matplotlib v3.10.8, https://matplotlib.org/</dc:title>
     </cc:Agent>
    </dc:creator>
   </cc:Work>
  </rdf:RDF>
 </metadata>
 <defs>
  <style type="text/css">*{stroke-linejoin: round; stroke-linecap: butt}</style>
 </defs>
 <g id="figure_1">
  <g id="patch_1">
   <path d="M 0 384.791562 
L 724.511 384.791562 
L 724.511 0 
L 0 0 
z
" style="fill: #ffffff"/>
  </g>
  <g id="axes_1">
   <g id="patch_2">
    <path d="M 47.711 356.477812 
L 717.311 356.477812 
L 717.311 23.837812 
L 47.711 23.837812 
z
" style="fill: #ffffff"/>
   </g>
   <g id="matplotlib.axis_1">
    <g id="xtick_1">
     <g id="line2d_1">
      <path d="M 121.627883 356.477812 
L 121.627883 23.837812 
" clip-path="url(#pe44767c973)" style="fill: none; stroke: #cccccc; stroke-linecap: round"/>
     </g>
     <g id="text_1">
      <!-- Heretic -->
      <g style="fill: #262626" transform="translate(100.082258 375.095937) scale(0.12 -0.12)">
       <defs>
        <path id="DejaVuSans-48" d="M 628 4666 
L 1259 4666 
L 1259 2753 
L 3553 2753 
L 3553 4666 
L 4184 4666 
L 4184 0 
L 3553 0 
L 3553 2222 
L 1259 2222 
L 1259 0 
L 628 0 
L 628 4666 
z
" transform="scale(0.015625)"/>
        <path id="DejaVuSans-65" d="M 3597 1894 
L 3597 1613 
L 953 1613 
Q 991 1019 1311 708 
Q 1631 397 2203 397 
Q 2534 397 2845 478 
Q 3156 559 3463 722 
L 3463 178 
Q 3153 47 2828 -22 
Q 2503 -91 2169 -91 
Q 1331 -91 842 396 
Q 353 884 353 1716 
Q 353 2575 817 3079 
Q 1281 3584 2069 3584 
Q 2775 3584 3186 3129 
Q 3597 2675 3597 1894 
z
M 3022 2063 
Q 3016 2534 2758 2815 
Q 2500 3097 2075 3097 
Q 1594 3097 1305 2825 
Q 1016 2553 972 2059 
L 3022 2063 
z
" transform="scale(0.015625)"/>
        <path id="DejaVuSans-72" d="M 2631 2963 
Q 2534 3019 2420 3045 
Q 2306 3072 2169 3072 
Q 1681 3072 1420 2755 
Q 1159 2438 1159 1844 
L 1159 0 
L 581 0 
L 581 3500 
L 1159 3500 
L 1159 2956 
Q 1341 3275 1631 3429 
Q 1922 3584 2338 3584 
Q 2397 3584 2469 3576 
Q 2541 3569 2628 3553 
L 2631 2963 
z
" transform="scale(0.015625)"/>
        <path id="DejaVuSans-74" d="M 1172 4494 
L 1172 3500 
L 2356 3500 
L 2356 3053 
L 1172 3053 
L 1172 1153 
Q 1172 725 1289 603 
Q 1406 481 1766 481 
L 2356 481 
L 2356 0 
L 1766 0 
Q 1100 0 847 248 
Q 594 497 594 1153 
L 594 3053 
L 172 3053 
L 172 3500 
L 594 3500 
L 594 4494 
L 1172 4494 
z
" transform="scale(0.015625)"/>
        <path id="DejaVuSans-69" d="M 603 3500 
L 1178 3500 
L 1178 0 
L 603 0 
L 603 3500 
z
M 603 4863 
L 1178 4863 
L 1178 4134 
L 603 4134 
L 603 4863 
z
" transform="scale(0.015625)"/>
        <path id="DejaVuSans-63" d="M 3122 3366 
L 3122 2828 
Q 2878 2963 2633 3030 
Q 2388 3097 2138 3097 
Q 1578 3097 1268 2742 
Q 959 2388 959 1747 
Q 959 1106 1268 751 
Q 1578 397 2138 397 
Q 2388 397 2633 464 
Q 2878 531 3122 666 
L 3122 134 
Q 2881 22 2623 -34 
Q 2366 -91 2075 -91 
Q 1284 -91 818 406 
Q 353 903 353 1747 
Q 353 2603 823 3093 
Q 1294 3584 2113 3584 
Q 2378 3584 2631 3529 
Q 2884 3475 3122 3366 
z
" transform="scale(0.015625)"/>
       </defs>
       <use xlink:href="#DejaVuSans-48"/>
       <use xlink:href="#DejaVuSans-65" transform="translate(75.195312 0)"/>
       <use xlink:href="#DejaVuSans-72" transform="translate(136.71875 0)"/>
       <use xlink:href="#DejaVuSans-65" transform="translate(175.582031 0)"/>
       <use xlink:href="#DejaVuSans-74" transform="translate(237.105469 0)"/>
       <use xlink:href="#DejaVuSans-69" transform="translate(276.314453 0)"/>
       <use xlink:href="#DejaVuSans-63" transform="translate(304.097656 0)"/>
      </g>
     </g>
    </g>
    <g id="xtick_2">
     <g id="line2d_2">
      <path d="M 295.549961 356.477812 
L 295.549961 23.837812 
" clip-path="url(#pe44767c973)" style="fill: none; stroke: #cccccc; stroke-linecap: round"/>
     </g>
     <g id="text_2">
      <!-- HauhauCS -->
      <g style="fill: #262626" transform="translate(264.277774 375.095937) scale(0.12 -0.12)">
       <defs>
        <path id="DejaVuSans-61" d="M 2194 1759 
Q 1497 1759 1228 1600 
Q 959 1441 959 1056 
Q 959 750 1161 570 
Q 1363 391 1709 391 
Q 2188 391 2477 730 
Q 2766 1069 2766 1631 
L 2766 1759 
L 2194 1759 
z
M 3341 1997 
L 3341 0 
L 2766 0 
L 2766 531 
Q 2569 213 2275 61 
Q 1981 -91 1556 -91 
Q 1019 -91 701 211 
Q 384 513 384 1019 
Q 384 1609 779 1909 
Q 1175 2209 1959 2209 
L 2766 2209 
L 2766 2266 
Q 2766 2663 2505 2880 
Q 2244 3097 1772 3097 
Q 1472 3097 1187 3025 
Q 903 2953 641 2809 
L 641 3341 
Q 956 3463 1253 3523 
Q 1550 3584 1831 3584 
Q 2591 3584 2966 3190 
Q 3341 2797 3341 1997 
z
" transform="scale(0.015625)"/>
        <path id="DejaVuSans-75" d="M 544 1381 
L 544 3500 
L 1119 3500 
L 1119 1403 
Q 1119 906 1312 657 
Q 1506 409 1894 409 
Q 2359 409 2629 706 
Q 2900 1003 2900 1516 
L 2900 3500 
L 3475 3500 
L 3475 0 
L 2900 0 
L 2900 538 
Q 2691 219 2414 64 
Q 2138 -91 1772 -91 
Q 1169 -91 856 284 
Q 544 659 544 1381 
z
M 1991 3584 
L 1991 3584 
z
" transform="scale(0.015625)"/>
        <path id="DejaVuSans-68" d="M 3513 2113 
L 3513 0 
L 2938 0 
L 2938 2094 
Q 2938 2591 2744 2837 
Q 2550 3084 2163 3084 
Q 1697 3084 1428 2787 
Q 1159 2491 1159 1978 
L 1159 0 
L 581 0 
L 581 4863 
L 1159 4863 
L 1159 2956 
Q 1366 3272 1645 3428 
Q 1925 3584 2291 3584 
Q 2894 3584 3203 3211 
Q 3513 2838 3513 2113 
z
" transform="scale(0.015625)"/>
        <path id="DejaVuSans-43" d="M 4122 4306 
L 4122 3641 
Q 3803 3938 3442 4084 
Q 3081 4231 2675 4231 
Q 1875 4231 1450 3742 
Q 1025 3253 1025 2328 
Q 1025 1406 1450 917 
Q 1875 428 2675 428 
Q 3081 428 3442 575 
Q 3803 722 4122 1019 
L 4122 359 
Q 3791 134 3420 21 
Q 3050 -91 2638 -91 
Q 1578 -91 968 557 
Q 359 1206 359 2328 
Q 359 3453 968 4101 
Q 1578 4750 2638 4750 
Q 3056 4750 3426 4639 
Q 3797 4528 4122 4306 
z
" transform="scale(0.015625)"/>
        <path id="DejaVuSans-53" d="M 3425 4513 
L 3425 3897 
Q 3066 4069 2747 4153 
Q 2428 4238 2131 4238 
Q 1616 4238 1336 4038 
Q 1056 3838 1056 3469 
Q 1056 3159 1242 3001 
Q 1428 2844 1947 2747 
L 2328 2669 
Q 3034 2534 3370 2195 
Q 3706 1856 3706 1288 
Q 3706 609 3251 259 
Q 2797 -91 1919 -91 
Q 1588 -91 1214 -16 
Q 841 59 441 206 
L 441 856 
Q 825 641 1194 531 
Q 1563 422 1919 422 
Q 2459 422 2753 634 
Q 3047 847 3047 1241 
Q 3047 1584 2836 1778 
Q 2625 1972 2144 2069 
L 1759 2144 
Q 1053 2284 737 2584 
Q 422 2884 422 3419 
Q 422 4038 858 4394 
Q 1294 4750 2059 4750 
Q 2388 4750 2728 4690 
Q 3069 4631 3425 4513 
z
" transform="scale(0.015625)"/>
       </defs>
       <use xlink:href="#DejaVuSans-48"/>
       <use xlink:href="#DejaVuSans-61" transform="translate(75.195312 0)"/>
       <use xlink:href="#DejaVuSans-75" transform="translate(136.474609 0)"/>
       <use xlink:href="#DejaVuSans-68" transform="translate(199.853516 0)"/>
       <use xlink:href="#DejaVuSans-61" transform="translate(263.232422 0)"/>
       <use xlink:href="#DejaVuSans-75" transform="translate(324.511719 0)"/>
       <use xlink:href="#DejaVuSans-43" transform="translate(387.890625 0)"/>
       <use xlink:href="#DejaVuSans-53" transform="translate(457.714844 0)"/>
      </g>
     </g>
    </g>
    <g id="xtick_3">
     <g id="line2d_3">
      <path d="M 469.472039 356.477812 
L 469.472039 23.837812 
" clip-path="url(#pe44767c973)" style="fill: none; stroke: #cccccc; stroke-linecap: round"/>
     </g>
     <g id="text_3">
      <!-- Huihui -->
      <g style="fill: #262626" transform="translate(450.218601 375.095937) scale(0.12 -0.12)">
       <use xlink:href="#DejaVuSans-48"/>
       <use xlink:href="#DejaVuSans-75" transform="translate(75.195312 0)"/>
       <use xlink:href="#DejaVuSans-69" transform="translate(138.574219 0)"/>
       <use xlink:href="#DejaVuSans-68" transform="translate(166.357422 0)"/>
       <use xlink:href="#DejaVuSans-75" transform="translate(229.736328 0)"/>
       <use xlink:href="#DejaVuSans-69" transform="translate(293.115234 0)"/>
      </g>
     </g>
    </g>
    <g id="xtick_4">
     <g id="line2d_4">
      <path d="M 643.394117 356.477812 
L 643.394117 23.837812 
" clip-path="url(#pe44767c973)" style="fill: none; stroke: #cccccc; stroke-linecap: round"/>
     </g>
     <g id="text_4">
      <!-- Abliterix -->
      <g style="fill: #262626" transform="translate(618.418179 375.095937) scale(0.12 -0.12)">
       <defs>
        <path id="DejaVuSans-41" d="M 2188 4044 
L 1331 1722 
L 3047 1722 
L 2188 4044 
z
M 1831 4666 
L 2547 4666 
L 4325 0 
L 3669 0 
L 3244 1197 
L 1141 1197 
L 716 0 
L 50 0 
L 1831 4666 
z
" transform="scale(0.015625)"/>
        <path id="DejaVuSans-62" d="M 3116 1747 
Q 3116 2381 2855 2742 
Q 2594 3103 2138 3103 
Q 1681 3103 1420 2742 
Q 1159 2381 1159 1747 
Q 1159 1113 1420 752 
Q 1681 391 2138 391 
Q 2594 391 2855 752 
Q 3116 1113 3116 1747 
z
M 1159 2969 
Q 1341 3281 1617 3432 
Q 1894 3584 2278 3584 
Q 2916 3584 3314 3078 
Q 3713 2572 3713 1747 
Q 3713 922 3314 415 
Q 2916 -91 2278 -91 
Q 1894 -91 1617 61 
Q 1341 213 1159 525 
L 1159 0 
L 581 0 
L 581 4863 
L 1159 4863 
L 1159 2969 
z
" transform="scale(0.015625)"/>
        <path id="DejaVuSans-6c" d="M 603 4863 
L 1178 4863 
L 1178 0 
L 603 0 
L 603 4863 
z
" transform="scale(0.015625)"/>
        <path id="DejaVuSans-78" d="M 3513 3500 
L 2247 1797 
L 3578 0 
L 2900 0 
L 1881 1375 
L 863 0 
L 184 0 
L 1544 1831 
L 300 3500 
L 978 3500 
L 1906 2253 
L 2834 3500 
L 3513 3500 
z
" transform="scale(0.015625)"/>
       </defs>
       <use xlink:href="#DejaVuSans-41"/>
       <use xlink:href="#DejaVuSans-62" transform="translate(68.408203 0)"/>
       <use xlink:href="#DejaVuSans-6c" transform="translate(131.884766 0)"/>
       <use xlink:href="#DejaVuSans-69" transform="translate(159.667969 0)"/>
       <use xlink:href="#DejaVuSans-74" transform="translate(187.451172 0)"/>
       <use xlink:href="#DejaVuSans-65" transform="translate(226.660156 0)"/>
       <use xlink:href="#DejaVuSans-72" transform="translate(288.183594 0)"/>
       <use xlink:href="#DejaVuSans-69" transform="translate(329.296875 0)"/>
       <use xlink:href="#DejaVuSans-78" transform="translate(357.080078 0)"/>
      </g>
     </g>
    </g>
   </g>
   <g id="matplotlib.axis_2">
    <g id="ytick_1">
     <g id="line2d_5">
      <path d="M 47.711 346.631712 
L 717.311 346.631712 
" clip-path="url(#pe44767c973)" style="fill: none; stroke: #cccccc; stroke-linecap: round"/>
     </g>
     <g id="text_5">
      <!-- 0 -->
      <g style="fill: #262626" transform="translate(30.512375 351.228767) scale(0.121 -0.121)">
       <defs>
        <path id="DejaVuSans-30" d="M 2034 4250 
Q 1547 4250 1301 3770 
Q 1056 3291 1056 2328 
Q 1056 1369 1301 889 
Q 1547 409 2034 409 
Q 2525 409 2770 889 
Q 3016 1369 3016 2328 
Q 3016 3291 2770 3770 
Q 2525 4250 2034 4250 
z
M 2034 4750 
Q 2819 4750 3233 4129 
Q 3647 3509 3647 2328 
Q 3647 1150 3233 529 
Q 2819 -91 2034 -91 
Q 1250 -91 836 529 
Q 422 1150 422 2328 
Q 422 3509 836 4129 
Q 1250 4750 2034 4750 
z
" transform="scale(0.015625)"/>
       </defs>
       <use xlink:href="#DejaVuSans-30"/>
      </g>
     </g>
    </g>
    <g id="ytick_2">
     <g id="line2d_6">
      <path d="M 47.711 294.948717 
L 717.311 294.948717 
" clip-path="url(#pe44767c973)" style="fill: none; stroke: #cccccc; stroke-linecap: round"/>
     </g>
     <g id="text_6">
      <!-- 2 -->
      <g style="fill: #262626" transform="translate(30.512375 299.545772) scale(0.121 -0.121)">
       <defs>
        <path id="DejaVuSans-32" d="M 1228 531 
L 3431 531 
L 3431 0 
L 469 0 
L 469 531 
Q 828 903 1448 1529 
Q 2069 2156 2228 2338 
Q 2531 2678 2651 2914 
Q 2772 3150 2772 3378 
Q 2772 3750 2511 3984 
Q 2250 4219 1831 4219 
Q 1534 4219 1204 4116 
Q 875 4013 500 3803 
L 500 4441 
Q 881 4594 1212 4672 
Q 1544 4750 1819 4750 
Q 2544 4750 2975 4387 
Q 3406 4025 3406 3419 
Q 3406 3131 3298 2873 
Q 3191 2616 2906 2266 
Q 2828 2175 2409 1742 
Q 1991 1309 1228 531 
z
" transform="scale(0.015625)"/>
       </defs>
       <use xlink:href="#DejaVuSans-32"/>
      </g>
     </g>
    </g>
    <g id="ytick_3">
     <g id="line2d_7">
      <path d="M 47.711 243.265723 
L 717.311 243.265723 
" clip-path="url(#pe44767c973)" style="fill: none; stroke: #cccccc; stroke-linecap: round"/>
     </g>
     <g id="text_7">
      <!-- 4 -->
      <g style="fill: #262626" transform="translate(30.512375 247.862777) scale(0.121 -0.121)">
       <defs>
        <path id="DejaVuSans-34" d="M 2419 4116 
L 825 1625 
L 2419 1625 
L 2419 4116 
z
M 2253 4666 
L 3047 4666 
L 3047 1625 
L 3713 1625 
L 3713 1100 
L 3047 1100 
L 3047 0 
L 2419 0 
L 2419 1100 
L 313 1100 
L 313 1709 
L 2253 4666 
z
" transform="scale(0.015625)"/>
       </defs>
       <use xlink:href="#DejaVuSans-34"/>
      </g>
     </g>
    </g>
    <g id="ytick_4">
     <g id="line2d_8">
      <path d="M 47.711 191.582728 
L 717.311 191.582728 
" clip-path="url(#pe44767c973)" style="fill: none; stroke: #cccccc; stroke-linecap: round"/>
     </g>
     <g id="text_8">
      <!-- 6 -->
      <g style="fill: #262626" transform="translate(30.512375 196.179782) scale(0.121 -0.121)">
       <defs>
        <path id="DejaVuSans-36" d="M 2113 2584 
Q 1688 2584 1439 2293 
Q 1191 2003 1191 1497 
Q 1191 994 1439 701 
Q 1688 409 2113 409 
Q 2538 409 2786 701 
Q 3034 994 3034 1497 
Q 3034 2003 2786 2293 
Q 2538 2584 2113 2584 
z
M 3366 4563 
L 3366 3988 
Q 3128 4100 2886 4159 
Q 2644 4219 2406 4219 
Q 1781 4219 1451 3797 
Q 1122 3375 1075 2522 
Q 1259 2794 1537 2939 
Q 1816 3084 2150 3084 
Q 2853 3084 3261 2657 
Q 3669 2231 3669 1497 
Q 3669 778 3244 343 
Q 2819 -91 2113 -91 
Q 1303 -91 875 529 
Q 447 1150 447 2328 
Q 447 3434 972 4092 
Q 1497 4750 2381 4750 
Q 2619 4750 2861 4703 
Q 3103 4656 3366 4563 
z
" transform="scale(0.015625)"/>
       </defs>
       <use xlink:href="#DejaVuSans-36"/>
      </g>
     </g>
    </g>
    <g id="ytick_5">
     <g id="line2d_9">
      <path d="M 47.711 139.899733 
L 717.311 139.899733 
" clip-path="url(#pe44767c973)" style="fill: none; stroke: #cccccc; stroke-linecap: round"/>
     </g>
     <g id="text_9">
      <!-- 8 -->
      <g style="fill: #262626" transform="translate(30.512375 144.496787) scale(0.121 -0.121)">
       <defs>
        <path id="DejaVuSans-38" d="M 2034 2216 
Q 1584 2216 1326 1975 
Q 1069 1734 1069 1313 
Q 1069 891 1326 650 
Q 1584 409 2034 409 
Q 2484 409 2743 651 
Q 3003 894 3003 1313 
Q 3003 1734 2745 1975 
Q 2488 2216 2034 2216 
z
M 1403 2484 
Q 997 2584 770 2862 
Q 544 3141 544 3541 
Q 544 4100 942 4425 
Q 1341 4750 2034 4750 
Q 2731 4750 3128 4425 
Q 3525 4100 3525 3541 
Q 3525 3141 3298 2862 
Q 3072 2584 2669 2484 
Q 3125 2378 3379 2068 
Q 3634 1759 3634 1313 
Q 3634 634 3220 271 
Q 2806 -91 2034 -91 
Q 1263 -91 848 271 
Q 434 634 434 1313 
Q 434 1759 690 2068 
Q 947 2378 1403 2484 
z
M 1172 3481 
Q 1172 3119 1398 2916 
Q 1625 2713 2034 2713 
Q 2441 2713 2670 2916 
Q 2900 3119 2900 3481 
Q 2900 3844 2670 4047 
Q 2441 4250 2034 4250 
Q 1625 4250 1398 4047 
Q 1172 3844 1172 3481 
z
" transform="scale(0.015625)"/>
       </defs>
       <use xlink:href="#DejaVuSans-38"/>
      </g>
     </g>
    </g>
    <g id="ytick_6">
     <g id="line2d_10">
      <path d="M 47.711 88.216738 
L 717.311 88.216738 
" clip-path="url(#pe44767c973)" style="fill: none; stroke: #cccccc; stroke-linecap: round"/>
     </g>
     <g id="text_10">
      <!-- 10 -->
      <g style="fill: #262626" transform="translate(22.81375 92.813792) scale(0.121 -0.121)">
       <defs>
        <path id="DejaVuSans-31" d="M 794 531 
L 1825 531 
L 1825 4091 
L 703 3866 
L 703 4441 
L 1819 4666 
L 2450 4666 
L 2450 531 
L 3481 531 
L 3481 0 
L 794 0 
L 794 531 
z
" transform="scale(0.015625)"/>
       </defs>
       <use xlink:href="#DejaVuSans-31"/>
       <use xlink:href="#DejaVuSans-30" transform="translate(63.623047 0)"/>
      </g>
     </g>
    </g>
    <g id="ytick_7">
     <g id="line2d_11">
      <path d="M 47.711 36.533743 
L 717.311 36.533743 
" clip-path="url(#pe44767c973)" style="fill: none; stroke: #cccccc; stroke-linecap: round"/>
     </g>
     <g id="text_11">
      <!-- 12 -->
      <g style="fill: #262626" transform="translate(22.81375 41.130797) scale(0.121 -0.121)">
       <use xlink:href="#DejaVuSans-31"/>
       <use xlink:href="#DejaVuSans-32" transform="translate(63.623047 0)"/>
      </g>
     </g>
    </g>
    <g id="text_12">
     <!-- Edit Norm -->
     <g style="fill: #262626" transform="translate(16.318125 220.05) rotate(-90) scale(0.12 -0.12)">
      <defs>
       <path id="DejaVuSans-45" d="M 628 4666 
L 3578 4666 
L 3578 4134 
L 1259 4134 
L 1259 2753 
L 3481 2753 
L 3481 2222 
L 1259 2222 
L 1259 531 
L 3634 531 
L 3634 0 
L 628 0 
L 628 4666 
z
" transform="scale(0.015625)"/>
       <path id="DejaVuSans-64" d="M 2906 2969 
L 2906 4863 
L 3481 4863 
L 3481 0 
L 2906 0 
L 2906 525 
Q 2725 213 2448 61 
Q 2172 -91 1784 -91 
Q 1150 -91 751 415 
Q 353 922 353 1747 
Q 353 2572 751 3078 
Q 1150 3584 1784 3584 
Q 2172 3584 2448 3432 
Q 2725 3281 2906 2969 
z
M 947 1747 
Q 947 1113 1208 752 
Q 1469 391 1925 391 
Q 2381 391 2643 752 
Q 2906 1113 2906 1747 
Q 2906 2381 2643 2742 
Q 2381 3103 1925 3103 
Q 1469 3103 1208 2742 
Q 947 2381 947 1747 
z
" transform="scale(0.015625)"/>
       <path id="DejaVuSans-20" transform="scale(0.015625)"/>
       <path id="DejaVuSans-4e" d="M 628 4666 
L 1478 4666 
L 3547 763 
L 3547 4666 
L 4159 4666 
L 4159 0 
L 3309 0 
L 1241 3903 
L 1241 0 
L 628 0 
L 628 4666 
z
" transform="scale(0.015625)"/>
       <path id="DejaVuSans-6f" d="M 1959 3097 
Q 1497 3097 1228 2736 
Q 959 2375 959 1747 
Q 959 1119 1226 758 
Q 1494 397 1959 397 
Q 2419 397 2687 759 
Q 2956 1122 2956 1747 
Q 2956 2369 2687 2733 
Q 2419 3097 1959 3097 
z
M 1959 3584 
Q 2709 3584 3137 3096 
Q 3566 2609 3566 1747 
Q 3566 888 3137 398 
Q 2709 -91 1959 -91 
Q 1206 -91 779 398 
Q 353 888 353 1747 
Q 353 2609 779 3096 
Q 1206 3584 1959 3584 
z
" transform="scale(0.015625)"/>
       <path id="DejaVuSans-6d" d="M 3328 2828 
Q 3544 3216 3844 3400 
Q 4144 3584 4550 3584 
Q 5097 3584 5394 3201 
Q 5691 2819 5691 2113 
L 5691 0 
L 5113 0 
L 5113 2094 
Q 5113 2597 4934 2840 
Q 4756 3084 4391 3084 
Q 3944 3084 3684 2787 
Q 3425 2491 3425 1978 
L 3425 0 
L 2847 0 
L 2847 2094 
Q 2847 2600 2669 2842 
Q 2491 3084 2119 3084 
Q 1678 3084 1418 2786 
Q 1159 2488 1159 1978 
L 1159 0 
L 581 0 
L 581 3500 
L 1159 3500 
L 1159 2956 
Q 1356 3278 1631 3431 
Q 1906 3584 2284 3584 
Q 2666 3584 2933 3390 
Q 3200 3197 3328 2828 
z
" transform="scale(0.015625)"/>
      </defs>
      <use xlink:href="#DejaVuSans-45"/>
      <use xlink:href="#DejaVuSans-64" transform="translate(63.183594 0)"/>
      <use xlink:href="#DejaVuSans-69" transform="translate(126.660156 0)"/>
      <use xlink:href="#DejaVuSans-74" transform="translate(154.443359 0)"/>
      <use xlink:href="#DejaVuSans-20" transform="translate(193.652344 0)"/>
      <use xlink:href="#DejaVuSans-4e" transform="translate(225.439453 0)"/>
      <use xlink:href="#DejaVuSans-6f" transform="translate(300.244141 0)"/>
      <use xlink:href="#DejaVuSans-72" transform="translate(361.425781 0)"/>
      <use xlink:href="#DejaVuSans-6d" transform="translate(400.789062 0)"/>
     </g>
    </g>
   </g>
   <g id="FillBetweenPolyCollection_1">
    <defs>
     <path id="m7a00e41294" d="M 121.666533 -52.432173 
L 121.589234 -52.432173 
L 121.574082 -53.452373 
L 121.482079 -54.472573 
L 121.066824 -55.492772 
L 119.6757 -56.512972 
L 116.077275 -57.533172 
L 108.899932 -58.553371 
L 98.087905 -59.573571 
L 86.377505 -60.593771 
L 78.563973 -61.61397 
L 78.147364 -62.63417 
L 84.56668 -63.65437 
L 94.064426 -64.67457 
L 102.863318 -65.694769 
L 109.224413 -66.714969 
L 113.276495 -67.735169 
L 115.861943 -68.755368 
L 117.668138 -69.775568 
L 119.008691 -70.795768 
L 119.982412 -71.815967 
L 120.636768 -72.836167 
L 121.027711 -73.856367 
L 121.231957 -74.876566 
L 121.332955 -75.896766 
L 121.392041 -76.916966 
L 121.438885 -77.937166 
L 121.484402 -78.957365 
L 121.530702 -79.977565 
L 121.572498 -80.997765 
L 121.601843 -82.017964 
L 121.615218 -83.038164 
L 121.613913 -84.058364 
L 121.600753 -85.078563 
L 121.581114 -86.098763 
L 121.56514 -87.118963 
L 121.562845 -88.139162 
L 121.574838 -89.159362 
L 121.590804 -90.179562 
L 121.599079 -91.199762 
L 121.597117 -92.219961 
L 121.592502 -93.240161 
L 121.594178 -94.260361 
L 121.603408 -95.28056 
L 121.614156 -96.30076 
L 121.620106 -97.32096 
L 121.61824 -98.341159 
L 121.607814 -99.361359 
L 121.590516 -100.381559 
L 121.571728 -101.401759 
L 121.557984 -102.421958 
L 121.551664 -103.442158 
L 121.549352 -104.462358 
L 121.545849 -105.482557 
L 121.53992 -106.502757 
L 121.536889 -107.522957 
L 121.543244 -108.543156 
L 121.555028 -109.563356 
L 121.555207 -110.583556 
L 121.530011 -111.603755 
L 121.488177 -112.623955 
L 121.457307 -113.644155 
L 121.457421 -114.664355 
L 121.482804 -115.684554 
L 121.51103 -116.704754 
L 121.521801 -117.724954 
L 121.508315 -118.745153 
L 121.480833 -119.765353 
L 121.458851 -120.785553 
L 121.454084 -121.805752 
L 121.462293 -122.825952 
L 121.471288 -123.846152 
L 121.473672 -124.866351 
L 121.472843 -125.886551 
L 121.477911 -126.906751 
L 121.493822 -127.926951 
L 121.516803 -128.94715 
L 121.535975 -129.96735 
L 121.540702 -130.98755 
L 121.532113 -132.007749 
L 121.525173 -133.027949 
L 121.533613 -134.048149 
L 121.554729 -135.068348 
L 121.574116 -136.088548 
L 121.583613 -137.108748 
L 121.588326 -138.128948 
L 121.59605 -139.149147 
L 121.606288 -140.169347 
L 121.611658 -141.189547 
L 121.605448 -142.209746 
L 121.587376 -143.229946 
L 121.566693 -144.250146 
L 121.558066 -145.270345 
L 121.56844 -146.290545 
L 121.58948 -147.310745 
L 121.606228 -148.330944 
L 121.609231 -149.351144 
L 121.597591 -150.371344 
L 121.577895 -151.391544 
L 121.562669 -152.411743 
L 121.563004 -153.431943 
L 121.692762 -153.431943 
L 121.692762 -153.431943 
L 121.693097 -152.411743 
L 121.677871 -151.391544 
L 121.658175 -150.371344 
L 121.646535 -149.351144 
L 121.649539 -148.330944 
L 121.666287 -147.310745 
L 121.687326 -146.290545 
L 121.6977 -145.270345 
L 121.689073 -144.250146 
L 121.66839 -143.229946 
L 121.650318 -142.209746 
L 121.644108 -141.189547 
L 121.649478 -140.169347 
L 121.659716 -139.149147 
L 121.66744 -138.128948 
L 121.672154 -137.108748 
L 121.68165 -136.088548 
L 121.701038 -135.068348 
L 121.722153 -134.048149 
L 121.730594 -133.027949 
L 121.723653 -132.007749 
L 121.715064 -130.98755 
L 121.719791 -129.96735 
L 121.738963 -128.94715 
L 121.761944 -127.926951 
L 121.777855 -126.906751 
L 121.782923 -125.886551 
L 121.782095 -124.866351 
L 121.784479 -123.846152 
L 121.793473 -122.825952 
L 121.801682 -121.805752 
L 121.796915 -120.785553 
L 121.774933 -119.765353 
L 121.747451 -118.745153 
L 121.733965 -117.724954 
L 121.744737 -116.704754 
L 121.772963 -115.684554 
L 121.798346 -114.664355 
L 121.798459 -113.644155 
L 121.767589 -112.623955 
L 121.725755 -111.603755 
L 121.700559 -110.583556 
L 121.700738 -109.563356 
L 121.712522 -108.543156 
L 121.718877 -107.522957 
L 121.715846 -106.502757 
L 121.709917 -105.482557 
L 121.706414 -104.462358 
L 121.704102 -103.442158 
L 121.697783 -102.421958 
L 121.684039 -101.401759 
L 121.66525 -100.381559 
L 121.647953 -99.361359 
L 121.637527 -98.341159 
L 121.63566 -97.32096 
L 121.64161 -96.30076 
L 121.652358 -95.28056 
L 121.661588 -94.260361 
L 121.663264 -93.240161 
L 121.658649 -92.219961 
L 121.656687 -91.199762 
L 121.664963 -90.179562 
L 121.680928 -89.159362 
L 121.692922 -88.139162 
L 121.690626 -87.118963 
L 121.674652 -86.098763 
L 121.655014 -85.078563 
L 121.641853 -84.058364 
L 121.640548 -83.038164 
L 121.653924 -82.017964 
L 121.683268 -80.997765 
L 121.725064 -79.977565 
L 121.771364 -78.957365 
L 121.816881 -77.937166 
L 121.863726 -76.916966 
L 121.922811 -75.896766 
L 122.02381 -74.876566 
L 122.228055 -73.856367 
L 122.618998 -72.836167 
L 123.273355 -71.815967 
L 124.247075 -70.795768 
L 125.587628 -69.775568 
L 127.393823 -68.755368 
L 129.979271 -67.735169 
L 134.031354 -66.714969 
L 140.392449 -65.694769 
L 149.19134 -64.67457 
L 158.689086 -63.65437 
L 165.108403 -62.63417 
L 164.691793 -61.61397 
L 156.878261 -60.593771 
L 145.167861 -59.573571 
L 134.355834 -58.553371 
L 127.178492 -57.533172 
L 123.580067 -56.512972 
L 122.188942 -55.492772 
L 121.773688 -54.472573 
L 121.681685 -53.452373 
L 121.666533 -52.432173 
z
" style="stroke: #ffffff; stroke-opacity: 0.7"/>
    </defs>
    <g clip-path="url(#pe44767c973)">
     <use xlink:href="#m7a00e41294" x="0" y="384.791562" style="fill: #3498db; fill-opacity: 0.7; stroke: #ffffff; stroke-opacity: 0.7"/>
    </g>
   </g>
   <g id="FillBetweenPolyCollection_2">
    <defs>
     <path id="me13adb89a8" d="M 303.808741 -51.827038 
L 287.291181 -51.827038 
L 282.940367 -52.833141 
L 278.293647 -53.839244 
L 273.823071 -54.845347 
L 269.713683 -55.851449 
L 265.902168 -56.857552 
L 262.281649 -57.863655 
L 258.866192 -58.869758 
L 255.829753 -59.875861 
L 253.468598 -60.881963 
L 252.127668 -61.888066 
L 252.069442 -62.894169 
L 253.297042 -63.900272 
L 255.45006 -64.906375 
L 257.914233 -65.912477 
L 260.126887 -66.91858 
L 261.851167 -67.924683 
L 263.216346 -68.930786 
L 264.579094 -69.936888 
L 266.373811 -70.942991 
L 268.968533 -71.949094 
L 272.479306 -72.955197 
L 276.645108 -73.9613 
L 280.907709 -74.967402 
L 284.66353 -75.973505 
L 287.520023 -76.979608 
L 289.426544 -77.985711 
L 290.633856 -78.991814 
L 291.506637 -79.997916 
L 292.305897 -81.004019 
L 293.095475 -82.010122 
L 293.812387 -83.016225 
L 294.389884 -84.022327 
L 294.815267 -85.02843 
L 295.113037 -86.034533 
L 295.312119 -87.040636 
L 295.434543 -88.046739 
L 295.499167 -89.052841 
L 295.523086 -90.058944 
L 295.517808 -91.065047 
L 295.487508 -92.07115 
L 295.433692 -93.077253 
L 295.362781 -94.083355 
L 295.288903 -95.089458 
L 295.227361 -96.095561 
L 295.184069 -97.101664 
L 295.152995 -98.107767 
L 295.125779 -99.113869 
L 295.102124 -100.119972 
L 295.088909 -101.126075 
L 295.09101 -102.132178 
L 295.10426 -103.13828 
L 295.115881 -104.144383 
L 295.112783 -105.150486 
L 295.092149 -106.156589 
L 295.06256 -107.162692 
L 295.033027 -108.168794 
L 295.004117 -109.174897 
L 294.972325 -110.181 
L 294.940288 -111.187103 
L 294.918907 -112.193206 
L 294.917863 -113.199308 
L 294.935502 -114.205411 
L 294.962591 -115.211514 
L 294.996716 -116.217617 
L 295.045336 -117.223719 
L 295.10984 -118.229822 
L 295.173737 -119.235925 
L 295.214682 -120.242028 
L 295.224802 -121.248131 
L 295.213185 -122.254233 
L 295.193182 -123.260336 
L 295.175962 -124.266439 
L 295.173827 -125.272542 
L 295.198045 -126.278645 
L 295.247 -127.284747 
L 295.300189 -128.29085 
L 295.33113 -129.296953 
L 295.330888 -130.303056 
L 295.318603 -131.309158 
L 295.325136 -132.315261 
L 295.364765 -133.321364 
L 295.424523 -134.327467 
L 295.479444 -135.33357 
L 295.512749 -136.339672 
L 295.521699 -137.345775 
L 295.512289 -138.351878 
L 295.494526 -139.357981 
L 295.480254 -140.364084 
L 295.478801 -141.370186 
L 295.491439 -142.376289 
L 295.511184 -143.382392 
L 295.529012 -144.388495 
L 295.539704 -145.394597 
L 295.542161 -146.4007 
L 295.536433 -147.406803 
L 295.522596 -148.412906 
L 295.503096 -149.419009 
L 295.485042 -150.425111 
L 295.477583 -151.431214 
L 295.622339 -151.431214 
L 295.622339 -151.431214 
L 295.61488 -150.425111 
L 295.596826 -149.419009 
L 295.577326 -148.412906 
L 295.563489 -147.406803 
L 295.557761 -146.4007 
L 295.560218 -145.394597 
L 295.57091 -144.388495 
L 295.588738 -143.382392 
L 295.608483 -142.376289 
L 295.621122 -141.370186 
L 295.619668 -140.364084 
L 295.605396 -139.357981 
L 295.587633 -138.351878 
L 295.578223 -137.345775 
L 295.587173 -136.339672 
L 295.620478 -135.33357 
L 295.675399 -134.327467 
L 295.735157 -133.321364 
L 295.774786 -132.315261 
L 295.781319 -131.309158 
L 295.769034 -130.303056 
L 295.768792 -129.296953 
L 295.799733 -128.29085 
L 295.852922 -127.284747 
L 295.901878 -126.278645 
L 295.926095 -125.272542 
L 295.92396 -124.266439 
L 295.90674 -123.260336 
L 295.886737 -122.254233 
L 295.87512 -121.248131 
L 295.88524 -120.242028 
L 295.926185 -119.235925 
L 295.990082 -118.229822 
L 296.054586 -117.223719 
L 296.103206 -116.217617 
L 296.137331 -115.211514 
L 296.16442 -114.205411 
L 296.182059 -113.199308 
L 296.181015 -112.193206 
L 296.159634 -111.187103 
L 296.127597 -110.181 
L 296.095805 -109.174897 
L 296.066895 -108.168794 
L 296.037362 -107.162692 
L 296.007773 -106.156589 
L 295.987139 -105.150486 
L 295.984041 -104.144383 
L 295.995662 -103.13828 
L 296.008912 -102.132178 
L 296.011013 -101.126075 
L 295.997798 -100.119972 
L 295.974143 -99.113869 
L 295.946927 -98.107767 
L 295.915853 -97.101664 
L 295.872561 -96.095561 
L 295.811019 -95.089458 
L 295.737141 -94.083355 
L 295.66623 -93.077253 
L 295.612414 -92.07115 
L 295.582114 -91.065047 
L 295.576836 -90.058944 
L 295.600756 -89.052841 
L 295.665379 -88.046739 
L 295.787803 -87.040636 
L 295.986885 -86.034533 
L 296.284655 -85.02843 
L 296.710038 -84.022327 
L 297.287535 -83.016225 
L 298.004447 -82.010122 
L 298.794025 -81.004019 
L 299.593285 -79.997916 
L 300.466066 -78.991814 
L 301.673378 -77.985711 
L 303.579899 -76.979608 
L 306.436392 -75.973505 
L 310.192214 -74.967402 
L 314.454814 -73.9613 
L 318.620616 -72.955197 
L 322.131389 -71.949094 
L 324.726112 -70.942991 
L 326.520828 -69.936888 
L 327.883576 -68.930786 
L 329.248755 -67.924683 
L 330.973035 -66.91858 
L 333.185689 -65.912477 
L 335.649862 -64.906375 
L 337.80288 -63.900272 
L 339.030481 -62.894169 
L 338.972254 -61.888066 
L 337.631324 -60.881963 
L 335.270169 -59.875861 
L 332.23373 -58.869758 
L 328.818273 -57.863655 
L 325.197754 -56.857552 
L 321.386239 -55.851449 
L 317.276852 -54.845347 
L 312.806275 -53.839244 
L 308.159555 -52.833141 
L 303.808741 -51.827038 
z
" style="stroke: #ffffff; stroke-opacity: 0.7"/>
    </defs>
    <g clip-path="url(#pe44767c973)">
     <use xlink:href="#me13adb89a8" x="0" y="384.791562" style="fill: #e74c3c; fill-opacity: 0.7; stroke: #ffffff; stroke-opacity: 0.7"/>
    </g>
   </g>
   <g id="FillBetweenPolyCollection_3">
    <defs>
     <path id="m7a364e85a3" d="M 469.588814 -43.43375 
L 469.355264 -43.43375 
L 469.29046 -44.170864 
L 469.245065 -44.907977 
L 469.238919 -45.645091 
L 469.275816 -46.382205 
L 469.322399 -47.119318 
L 469.347638 -47.856432 
L 469.349857 -48.593545 
L 469.329532 -49.330659 
L 469.285637 -50.067773 
L 469.230337 -50.804886 
L 469.180461 -51.542 
L 469.161305 -52.279114 
L 469.195737 -53.016227 
L 469.246794 -53.753341 
L 469.261384 -54.490455 
L 469.237195 -55.227568 
L 469.165288 -55.964682 
L 468.982835 -56.701795 
L 468.47785 -57.438909 
L 466.905806 -58.176023 
L 462.614547 -58.913136 
L 453.66354 -59.65025 
L 440.479261 -60.387364 
L 428.716123 -61.124477 
L 425.991519 -61.861591 
L 433.420597 -62.598705 
L 444.643422 -63.335818 
L 453.766395 -64.072932 
L 459.553654 -64.810045 
L 462.944998 -65.547159 
L 464.831229 -66.284273 
L 465.918272 -67.021386 
L 466.667463 -67.7585 
L 467.230589 -68.495614 
L 467.666616 -69.232727 
L 468.055876 -69.969841 
L 468.41567 -70.706954 
L 468.70488 -71.444068 
L 468.916568 -72.181182 
L 469.058605 -72.918295 
L 469.139349 -73.655409 
L 469.202012 -74.392523 
L 469.28105 -75.129636 
L 469.359379 -75.86675 
L 469.403759 -76.603864 
L 469.407516 -77.340977 
L 469.388923 -78.078091 
L 469.37609 -78.815204 
L 469.384871 -79.552318 
L 469.402963 -80.289432 
L 469.413282 -81.026545 
L 469.410383 -81.763659 
L 469.400348 -82.500773 
L 469.391784 -83.237886 
L 469.374833 -83.975 
L 469.336345 -84.712114 
L 469.298105 -85.449227 
L 469.291541 -86.186341 
L 469.308888 -86.923454 
L 469.323786 -87.660568 
L 469.332184 -88.397682 
L 469.3391 -89.134795 
L 469.341332 -89.871909 
L 469.341216 -90.609023 
L 469.352978 -91.346136 
L 469.377114 -92.08325 
L 469.385924 -92.820364 
L 469.363535 -93.557477 
L 469.331732 -94.294591 
L 469.314087 -95.031704 
L 469.312843 -95.768818 
L 469.32282 -96.505932 
L 469.336035 -97.243045 
L 469.352814 -97.980159 
L 469.375176 -98.717273 
L 469.392402 -99.454386 
L 469.397161 -100.1915 
L 469.393563 -100.928614 
L 469.393961 -101.665727 
L 469.400244 -102.402841 
L 469.400011 -103.139954 
L 469.394022 -103.877068 
L 469.395018 -104.614182 
L 469.410925 -105.351295 
L 469.437905 -106.088409 
L 469.460014 -106.825523 
L 469.469517 -107.562636 
L 469.471731 -108.29975 
L 469.472012 -109.036863 
L 469.471952 -109.773977 
L 469.471221 -110.511091 
L 469.467574 -111.248204 
L 469.457801 -111.985318 
L 469.44421 -112.722432 
L 469.435085 -113.459545 
L 469.433674 -114.196659 
L 469.436932 -114.933773 
L 469.439784 -115.670886 
L 469.443054 -116.408 
L 469.501024 -116.408 
L 469.501024 -116.408 
L 469.504294 -115.670886 
L 469.507146 -114.933773 
L 469.510404 -114.196659 
L 469.508993 -113.459545 
L 469.499868 -112.722432 
L 469.486277 -111.985318 
L 469.476504 -111.248204 
L 469.472857 -110.511091 
L 469.472126 -109.773977 
L 469.472066 -109.036863 
L 469.472347 -108.29975 
L 469.474561 -107.562636 
L 469.484064 -106.825523 
L 469.506173 -106.088409 
L 469.533153 -105.351295 
L 469.54906 -104.614182 
L 469.550056 -103.877068 
L 469.544067 -103.139954 
L 469.543834 -102.402841 
L 469.550117 -101.665727 
L 469.550515 -100.928614 
L 469.546917 -100.1915 
L 469.551676 -99.454386 
L 469.568902 -98.717273 
L 469.591264 -97.980159 
L 469.608043 -97.243045 
L 469.621258 -96.505932 
L 469.631235 -95.768818 
L 469.629991 -95.031704 
L 469.612346 -94.294591 
L 469.580543 -93.557477 
L 469.558154 -92.820364 
L 469.566964 -92.08325 
L 469.5911 -91.346136 
L 469.602861 -90.609023 
L 469.602746 -89.871909 
L 469.604978 -89.134795 
L 469.611894 -88.397682 
L 469.620292 -87.660568 
L 469.63519 -86.923454 
L 469.652537 -86.186341 
L 469.645973 -85.449227 
L 469.607733 -84.712114 
L 469.569245 -83.975 
L 469.552294 -83.237886 
L 469.54373 -82.500773 
L 469.533695 -81.763659 
L 469.530796 -81.026545 
L 469.541115 -80.289432 
L 469.559207 -79.552318 
L 469.567988 -78.815204 
L 469.555155 -78.078091 
L 469.536561 -77.340977 
L 469.540319 -76.603864 
L 469.584699 -75.86675 
L 469.663028 -75.129636 
L 469.742066 -74.392523 
L 469.804729 -73.655409 
L 469.885473 -72.918295 
L 470.02751 -72.181182 
L 470.239198 -71.444068 
L 470.528408 -70.706954 
L 470.888201 -69.969841 
L 471.277462 -69.232727 
L 471.713489 -68.495614 
L 472.276615 -67.7585 
L 473.025806 -67.021386 
L 474.112849 -66.284273 
L 475.99908 -65.547159 
L 479.390424 -64.810045 
L 485.177683 -64.072932 
L 494.300656 -63.335818 
L 505.523481 -62.598705 
L 512.952558 -61.861591 
L 510.227955 -61.124477 
L 498.464817 -60.387364 
L 485.280538 -59.65025 
L 476.329531 -58.913136 
L 472.038272 -58.176023 
L 470.466228 -57.438909 
L 469.961243 -56.701795 
L 469.77879 -55.964682 
L 469.706883 -55.227568 
L 469.682694 -54.490455 
L 469.697284 -53.753341 
L 469.748341 -53.016227 
L 469.782773 -52.279114 
L 469.763617 -51.542 
L 469.713741 -50.804886 
L 469.658441 -50.067773 
L 469.614546 -49.330659 
L 469.594221 -48.593545 
L 469.59644 -47.856432 
L 469.621679 -47.119318 
L 469.668262 -46.382205 
L 469.705159 -45.645091 
L 469.699013 -44.907977 
L 469.653618 -44.170864 
L 469.588814 -43.43375 
z
" style="stroke: #ffffff; stroke-opacity: 0.7"/>
    </defs>
    <g clip-path="url(#pe44767c973)">
     <use xlink:href="#m7a364e85a3" x="0" y="384.791562" style="fill: #2ecc71; fill-opacity: 0.7; stroke: #ffffff; stroke-opacity: 0.7"/>
    </g>
   </g>
   <g id="FillBetweenPolyCollection_4">
    <defs>
     <path id="mb8f99941bd" d="M 644.562637 -45.887958 
L 642.225597 -45.887958 
L 641.882604 -48.917713 
L 641.463955 -51.947469 
L 640.833654 -54.977224 
L 639.710265 -58.00698 
L 637.651143 -61.036735 
L 634.1329 -64.066491 
L 628.776017 -67.096246 
L 621.674943 -70.126002 
L 613.661536 -73.155757 
L 606.264554 -76.185513 
L 601.25049 -79.215268 
L 599.913597 -82.245024 
L 602.510496 -85.274779 
L 608.184502 -88.304535 
L 615.406958 -91.33429 
L 622.636469 -94.364046 
L 628.818552 -97.393801 
L 633.533142 -100.423556 
L 636.848528 -103.453312 
L 639.067607 -106.483067 
L 640.522558 -109.512823 
L 641.474716 -112.542578 
L 642.098739 -115.572334 
L 642.50512 -118.602089 
L 642.766319 -121.631845 
L 642.932827 -124.6616 
L 643.040079 -127.691356 
L 643.111702 -130.721111 
L 643.162584 -133.750867 
L 643.202023 -136.780622 
L 643.235884 -139.810378 
L 643.267418 -142.840133 
L 643.297492 -145.869889 
L 643.325131 -148.899644 
L 643.348614 -151.9294 
L 643.366653 -154.959155 
L 643.379053 -157.988911 
L 643.386644 -161.018666 
L 643.390776 -164.048421 
L 643.392774 -167.078177 
L 643.393633 -170.107932 
L 643.39396 -173.137688 
L 643.394067 -176.167443 
L 643.394086 -179.197199 
L 643.394044 -182.226954 
L 643.393889 -185.25671 
L 643.393462 -188.286465 
L 643.392435 -191.316221 
L 643.390269 -194.345976 
L 643.386275 -197.375732 
L 643.379879 -200.405487 
L 643.371074 -203.435243 
L 643.360842 -206.464998 
L 643.351122 -209.494754 
L 643.34406 -212.524509 
L 643.340702 -215.554265 
L 643.339865 -218.58402 
L 643.338019 -221.613775 
L 643.330564 -224.643531 
L 643.314069 -227.673286 
L 643.288406 -230.703042 
L 643.257511 -233.732797 
L 643.228097 -236.762553 
L 643.206684 -239.792308 
L 643.196495 -242.822064 
L 643.195985 -245.851819 
L 643.199762 -248.881575 
L 643.201056 -251.91133 
L 643.194042 -254.941086 
L 643.174931 -257.970841 
L 643.142165 -261.000597 
L 643.096716 -264.030352 
L 643.042707 -267.060108 
L 642.987272 -270.089863 
L 642.938582 -273.119619 
L 642.90264 -276.149374 
L 642.881106 -279.17913 
L 642.872017 -282.208885 
L 642.872822 -285.23864 
L 642.883165 -288.268396 
L 642.905032 -291.298151 
L 642.940232 -294.327907 
L 642.987382 -297.357662 
L 643.040906 -300.387418 
L 643.092873 -303.417173 
L 643.136356 -306.446929 
L 643.167999 -309.476684 
L 643.188362 -312.50644 
L 643.200331 -315.536195 
L 643.207016 -318.565951 
L 643.210439 -321.595706 
L 643.21138 -324.625462 
L 643.210027 -327.655217 
L 643.206837 -330.684973 
L 643.20318 -333.714728 
L 643.201496 -336.744484 
L 643.204847 -339.774239 
L 643.21592 -342.803995 
L 643.235795 -345.83375 
L 643.552439 -345.83375 
L 643.552439 -345.83375 
L 643.572314 -342.803995 
L 643.583387 -339.774239 
L 643.586738 -336.744484 
L 643.585054 -333.714728 
L 643.581397 -330.684973 
L 643.578207 -327.655217 
L 643.576854 -324.625462 
L 643.577795 -321.595706 
L 643.581218 -318.565951 
L 643.587903 -315.536195 
L 643.599871 -312.50644 
L 643.620235 -309.476684 
L 643.651878 -306.446929 
L 643.695361 -303.417173 
L 643.747328 -300.387418 
L 643.800851 -297.357662 
L 643.848002 -294.327907 
L 643.883202 -291.298151 
L 643.905069 -288.268396 
L 643.915412 -285.23864 
L 643.916217 -282.208885 
L 643.907127 -279.17913 
L 643.885594 -276.149374 
L 643.849651 -273.119619 
L 643.800961 -270.089863 
L 643.745527 -267.060108 
L 643.691518 -264.030352 
L 643.646069 -261.000597 
L 643.613303 -257.970841 
L 643.594192 -254.941086 
L 643.587178 -251.91133 
L 643.588472 -248.881575 
L 643.592248 -245.851819 
L 643.591738 -242.822064 
L 643.58155 -239.792308 
L 643.560137 -236.762553 
L 643.530723 -233.732797 
L 643.499828 -230.703042 
L 643.474164 -227.673286 
L 643.45767 -224.643531 
L 643.450214 -221.613775 
L 643.448368 -218.58402 
L 643.447531 -215.554265 
L 643.444173 -212.524509 
L 643.437111 -209.494754 
L 643.427392 -206.464998 
L 643.41716 -203.435243 
L 643.408355 -200.405487 
L 643.401959 -197.375732 
L 643.397965 -194.345976 
L 643.395799 -191.316221 
L 643.394772 -188.286465 
L 643.394345 -185.25671 
L 643.39419 -182.226954 
L 643.394148 -179.197199 
L 643.394167 -176.167443 
L 643.394274 -173.137688 
L 643.394601 -170.107932 
L 643.395459 -167.078177 
L 643.397457 -164.048421 
L 643.401589 -161.018666 
L 643.409181 -157.988911 
L 643.42158 -154.959155 
L 643.43962 -151.9294 
L 643.463103 -148.899644 
L 643.490742 -145.869889 
L 643.520816 -142.840133 
L 643.55235 -139.810378 
L 643.586211 -136.780622 
L 643.62565 -133.750867 
L 643.676532 -130.721111 
L 643.748154 -127.691356 
L 643.855407 -124.6616 
L 644.021915 -121.631845 
L 644.283114 -118.602089 
L 644.689495 -115.572334 
L 645.313518 -112.542578 
L 646.265675 -109.512823 
L 647.720626 -106.483067 
L 649.939705 -103.453312 
L 653.255092 -100.423556 
L 657.969682 -97.393801 
L 664.151765 -94.364046 
L 671.381275 -91.33429 
L 678.603732 -88.304535 
L 684.277738 -85.274779 
L 686.874636 -82.245024 
L 685.537744 -79.215268 
L 680.52368 -76.185513 
L 673.126698 -73.155757 
L 665.113291 -70.126002 
L 658.012217 -67.096246 
L 652.655334 -64.066491 
L 649.137091 -61.036735 
L 647.077968 -58.00698 
L 645.954579 -54.977224 
L 645.324279 -51.947469 
L 644.905629 -48.917713 
L 644.562637 -45.887958 
z
" style="stroke: #ffffff; stroke-opacity: 0.7"/>
    </defs>
    <g clip-path="url(#pe44767c973)">
     <use xlink:href="#mb8f99941bd" x="0" y="384.791562" style="fill: #9b59b6; fill-opacity: 0.7; stroke: #ffffff; stroke-opacity: 0.7"/>
    </g>
   </g>
   <g id="LineCollection_1">
    <path d="M 99.887623 320.783136 
L 143.368143 320.783136 
" clip-path="url(#pe44767c973)" style="fill: none; stroke: #4878d0; stroke-width: 1.5"/>
    <path d="M 273.809701 319.279145 
L 317.290221 319.279145 
" clip-path="url(#pe44767c973)" style="fill: none; stroke: #4878d0; stroke-width: 1.5"/>
    <path d="M 447.731779 322.038178 
L 491.212299 322.038178 
" clip-path="url(#pe44767c973)" style="fill: none; stroke: #4878d0; stroke-width: 1.5"/>
    <path d="M 621.653857 296.473778 
L 665.134377 296.473778 
" clip-path="url(#pe44767c973)" style="fill: none; stroke: #4878d0; stroke-width: 1.5"/>
   </g>
   <g id="LineCollection_2">
    <path d="M 99.887623 231.35962 
L 143.368143 231.35962 
" clip-path="url(#pe44767c973)" style="fill: none; stroke: #4878d0; stroke-width: 1.5"/>
    <path d="M 273.809701 233.360348 
L 317.290221 233.360348 
" clip-path="url(#pe44767c973)" style="fill: none; stroke: #4878d0; stroke-width: 1.5"/>
    <path d="M 447.731779 268.383563 
L 491.212299 268.383563 
" clip-path="url(#pe44767c973)" style="fill: none; stroke: #4878d0; stroke-width: 1.5"/>
    <path d="M 621.653857 38.957813 
L 665.134377 38.957813 
" clip-path="url(#pe44767c973)" style="fill: none; stroke: #4878d0; stroke-width: 1.5"/>
   </g>
   <g id="LineCollection_3">
    <path d="M 99.887623 332.359389 
L 143.368143 332.359389 
" clip-path="url(#pe44767c973)" style="fill: none; stroke: #4878d0; stroke-width: 1.5"/>
    <path d="M 273.809701 332.964524 
L 317.290221 332.964524 
" clip-path="url(#pe44767c973)" style="fill: none; stroke: #4878d0; stroke-width: 1.5"/>
    <path d="M 447.731779 341.357813 
L 491.212299 341.357813 
" clip-path="url(#pe44767c973)" style="fill: none; stroke: #4878d0; stroke-width: 1.5"/>
    <path d="M 621.653857 338.903605 
L 665.134377 338.903605 
" clip-path="url(#pe44767c973)" style="fill: none; stroke: #4878d0; stroke-width: 1.5"/>
   </g>
   <g id="LineCollection_4">
    <path d="M 121.627883 332.359389 
L 121.627883 231.35962 
" clip-path="url(#pe44767c973)" style="fill: none; stroke: #4878d0; stroke-width: 1.5"/>
    <path d="M 295.549961 332.964524 
L 295.549961 233.360348 
" clip-path="url(#pe44767c973)" style="fill: none; stroke: #4878d0; stroke-width: 1.5"/>
    <path d="M 469.472039 341.357813 
L 469.472039 268.383563 
" clip-path="url(#pe44767c973)" style="fill: none; stroke: #4878d0; stroke-width: 1.5"/>
    <path d="M 643.394117 338.903605 
L 643.394117 38.957813 
" clip-path="url(#pe44767c973)" style="fill: none; stroke: #4878d0; stroke-width: 1.5"/>
   </g>
   <g id="LineCollection_5">
    <path d="M 99.887623 322.411539 
L 143.368143 322.411539 
" clip-path="url(#pe44767c973)" style="fill: none; stroke: #4878d0; stroke-width: 1.5"/>
    <path d="M 273.809701 320.737002 
L 317.290221 320.737002 
" clip-path="url(#pe44767c973)" style="fill: none; stroke: #4878d0; stroke-width: 1.5"/>
    <path d="M 447.731779 322.884712 
L 491.212299 322.884712 
" clip-path="url(#pe44767c973)" style="fill: none; stroke: #4878d0; stroke-width: 1.5"/>
    <path d="M 621.653857 303.489821 
L 665.134377 303.489821 
" clip-path="url(#pe44767c973)" style="fill: none; stroke: #4878d0; stroke-width: 1.5"/>
   </g>
   <g id="patch_3">
    <path d="M 47.711 356.477812 
L 47.711 23.837813 
" style="fill: none; stroke: #cccccc; stroke-width: 1.25; stroke-linejoin: miter; stroke-linecap: square"/>
   </g>
   <g id="patch_4">
    <path d="M 717.311 356.477812 
L 717.311 23.837813 
" style="fill: none; stroke: #cccccc; stroke-width: 1.25; stroke-linejoin: miter; stroke-linecap: square"/>
   </g>
   <g id="patch_5">
    <path d="M 47.711 356.477812 
L 717.311 356.477812 
" style="fill: none; stroke: #cccccc; stroke-width: 1.25; stroke-linejoin: miter; stroke-linecap: square"/>
   </g>
   <g id="patch_6">
    <path d="M 47.711 23.837812 
L 717.311 23.837812 
" style="fill: none; stroke: #cccccc; stroke-width: 1.25; stroke-linejoin: miter; stroke-linecap: square"/>
   </g>
   <g id="text_13">
    <!-- GLM-4.7-Flash Distribution of Per-Tensor Edit Magnitudes -->
    <g style="fill: #262626" transform="translate(155.846625 17.837812) scale(0.14 -0.14)">
     <defs>
      <path id="DejaVuSans-Bold-47" d="M 4781 347 
Q 4331 128 3847 18 
Q 3363 -91 2847 -91 
Q 1681 -91 1000 561 
Q 319 1213 319 2328 
Q 319 3456 1012 4103 
Q 1706 4750 2913 4750 
Q 3378 4750 3804 4662 
Q 4231 4575 4609 4403 
L 4609 3438 
Q 4219 3659 3833 3768 
Q 3447 3878 3059 3878 
Q 2341 3878 1952 3476 
Q 1563 3075 1563 2328 
Q 1563 1588 1938 1184 
Q 2313 781 3003 781 
Q 3191 781 3352 804 
Q 3513 828 3641 878 
L 3641 1784 
L 2906 1784 
L 2906 2591 
L 4781 2591 
L 4781 347 
z
" transform="scale(0.015625)"/>
      <path id="DejaVuSans-Bold-4c" d="M 588 4666 
L 1791 4666 
L 1791 909 
L 3903 909 
L 3903 0 
L 588 0 
L 588 4666 
z
" transform="scale(0.015625)"/>
      <path id="DejaVuSans-Bold-4d" d="M 588 4666 
L 2119 4666 
L 3181 2169 
L 4250 4666 
L 5778 4666 
L 5778 0 
L 4641 0 
L 4641 3413 
L 3566 897 
L 2803 897 
L 1728 3413 
L 1728 0 
L 588 0 
L 588 4666 
z
" transform="scale(0.015625)"/>
      <path id="DejaVuSans-Bold-2d" d="M 347 2297 
L 2309 2297 
L 2309 1388 
L 347 1388 
L 347 2297 
z
" transform="scale(0.015625)"/>
      <path id="DejaVuSans-Bold-34" d="M 2356 3675 
L 1038 1722 
L 2356 1722 
L 2356 3675 
z
M 2156 4666 
L 3494 4666 
L 3494 1722 
L 4159 1722 
L 4159 850 
L 3494 850 
L 3494 0 
L 2356 0 
L 2356 850 
L 288 850 
L 288 1881 
L 2156 4666 
z
" transform="scale(0.015625)"/>
      <path id="DejaVuSans-Bold-2e" d="M 653 1209 
L 1778 1209 
L 1778 0 
L 653 0 
L 653 1209 
z
" transform="scale(0.015625)"/>
      <path id="DejaVuSans-Bold-37" d="M 428 4666 
L 3944 4666 
L 3944 3988 
L 2125 0 
L 953 0 
L 2675 3781 
L 428 3781 
L 428 4666 
z
" transform="scale(0.015625)"/>
      <path id="DejaVuSans-Bold-46" d="M 588 4666 
L 3834 4666 
L 3834 3756 
L 1791 3756 
L 1791 2888 
L 3713 2888 
L 3713 1978 
L 1791 1978 
L 1791 0 
L 588 0 
L 588 4666 
z
" transform="scale(0.015625)"/>
      <path id="DejaVuSans-Bold-6c" d="M 538 4863 
L 1656 4863 
L 1656 0 
L 538 0 
L 538 4863 
z
" transform="scale(0.015625)"/>
      <path id="DejaVuSans-Bold-61" d="M 2106 1575 
Q 1756 1575 1579 1456 
Q 1403 1338 1403 1106 
Q 1403 894 1545 773 
Q 1688 653 1941 653 
Q 2256 653 2472 879 
Q 2688 1106 2688 1447 
L 2688 1575 
L 2106 1575 
z
M 3816 1997 
L 3816 0 
L 2688 0 
L 2688 519 
Q 2463 200 2181 54 
Q 1900 -91 1497 -91 
Q 953 -91 614 226 
Q 275 544 275 1050 
Q 275 1666 698 1953 
Q 1122 2241 2028 2241 
L 2688 2241 
L 2688 2328 
Q 2688 2594 2478 2717 
Q 2269 2841 1825 2841 
Q 1466 2841 1156 2769 
Q 847 2697 581 2553 
L 581 3406 
Q 941 3494 1303 3539 
Q 1666 3584 2028 3584 
Q 2975 3584 3395 3211 
Q 3816 2838 3816 1997 
z
" transform="scale(0.015625)"/>
      <path id="DejaVuSans-Bold-73" d="M 3272 3391 
L 3272 2541 
Q 2913 2691 2578 2766 
Q 2244 2841 1947 2841 
Q 1628 2841 1473 2761 
Q 1319 2681 1319 2516 
Q 1319 2381 1436 2309 
Q 1553 2238 1856 2203 
L 2053 2175 
Q 2913 2066 3209 1816 
Q 3506 1566 3506 1031 
Q 3506 472 3093 190 
Q 2681 -91 1863 -91 
Q 1516 -91 1145 -36 
Q 775 19 384 128 
L 384 978 
Q 719 816 1070 734 
Q 1422 653 1784 653 
Q 2113 653 2278 743 
Q 2444 834 2444 1013 
Q 2444 1163 2330 1236 
Q 2216 1309 1875 1350 
L 1678 1375 
Q 931 1469 631 1722 
Q 331 1975 331 2491 
Q 331 3047 712 3315 
Q 1094 3584 1881 3584 
Q 2191 3584 2531 3537 
Q 2872 3491 3272 3391 
z
" transform="scale(0.015625)"/>
      <path id="DejaVuSans-Bold-68" d="M 4056 2131 
L 4056 0 
L 2931 0 
L 2931 347 
L 2931 1625 
Q 2931 2084 2911 2256 
Q 2891 2428 2841 2509 
Q 2775 2619 2662 2680 
Q 2550 2741 2406 2741 
Q 2056 2741 1856 2470 
Q 1656 2200 1656 1722 
L 1656 0 
L 538 0 
L 538 4863 
L 1656 4863 
L 1656 2988 
Q 1909 3294 2193 3439 
Q 2478 3584 2822 3584 
Q 3428 3584 3742 3212 
Q 4056 2841 4056 2131 
z
" transform="scale(0.015625)"/>
      <path id="DejaVuSans-Bold-20" transform="scale(0.015625)"/>
      <path id="DejaVuSans-Bold-44" d="M 1791 3756 
L 1791 909 
L 2222 909 
Q 2959 909 3348 1275 
Q 3738 1641 3738 2338 
Q 3738 3031 3350 3393 
Q 2963 3756 2222 3756 
L 1791 3756 
z
M 588 4666 
L 1856 4666 
Q 2919 4666 3439 4514 
Q 3959 4363 4331 4000 
Q 4659 3684 4818 3271 
Q 4978 2859 4978 2338 
Q 4978 1809 4818 1395 
Q 4659 981 4331 666 
Q 3956 303 3431 151 
Q 2906 0 1856 0 
L 588 0 
L 588 4666 
z
" transform="scale(0.015625)"/>
      <path id="DejaVuSans-Bold-69" d="M 538 3500 
L 1656 3500 
L 1656 0 
L 538 0 
L 538 3500 
z
M 538 4863 
L 1656 4863 
L 1656 3950 
L 538 3950 
L 538 4863 
z
" transform="scale(0.015625)"/>
      <path id="DejaVuSans-Bold-74" d="M 1759 4494 
L 1759 3500 
L 2913 3500 
L 2913 2700 
L 1759 2700 
L 1759 1216 
Q 1759 972 1856 886 
Q 1953 800 2241 800 
L 2816 800 
L 2816 0 
L 1856 0 
Q 1194 0 917 276 
Q 641 553 641 1216 
L 641 2700 
L 84 2700 
L 84 3500 
L 641 3500 
L 641 4494 
L 1759 4494 
z
" transform="scale(0.015625)"/>
      <path id="DejaVuSans-Bold-72" d="M 3138 2547 
Q 2991 2616 2845 2648 
Q 2700 2681 2553 2681 
Q 2122 2681 1889 2404 
Q 1656 2128 1656 1613 
L 1656 0 
L 538 0 
L 538 3500 
L 1656 3500 
L 1656 2925 
Q 1872 3269 2151 3426 
Q 2431 3584 2822 3584 
Q 2878 3584 2943 3579 
Q 3009 3575 3134 3559 
L 3138 2547 
z
" transform="scale(0.015625)"/>
      <path id="DejaVuSans-Bold-62" d="M 2400 722 
Q 2759 722 2948 984 
Q 3138 1247 3138 1747 
Q 3138 2247 2948 2509 
Q 2759 2772 2400 2772 
Q 2041 2772 1848 2508 
Q 1656 2244 1656 1747 
Q 1656 1250 1848 986 
Q 2041 722 2400 722 
z
M 1656 2988 
Q 1888 3294 2169 3439 
Q 2450 3584 2816 3584 
Q 3463 3584 3878 3070 
Q 4294 2556 4294 1747 
Q 4294 938 3878 423 
Q 3463 -91 2816 -91 
Q 2450 -91 2169 54 
Q 1888 200 1656 506 
L 1656 0 
L 538 0 
L 538 4863 
L 1656 4863 
L 1656 2988 
z
" transform="scale(0.015625)"/>
      <path id="DejaVuSans-Bold-75" d="M 500 1363 
L 500 3500 
L 1625 3500 
L 1625 3150 
Q 1625 2866 1622 2436 
Q 1619 2006 1619 1863 
Q 1619 1441 1641 1255 
Q 1663 1069 1716 984 
Q 1784 875 1895 815 
Q 2006 756 2150 756 
Q 2500 756 2700 1025 
Q 2900 1294 2900 1772 
L 2900 3500 
L 4019 3500 
L 4019 0 
L 2900 0 
L 2900 506 
Q 2647 200 2364 54 
Q 2081 -91 1741 -91 
Q 1134 -91 817 281 
Q 500 653 500 1363 
z
" transform="scale(0.015625)"/>
      <path id="DejaVuSans-Bold-6f" d="M 2203 2784 
Q 1831 2784 1636 2517 
Q 1441 2250 1441 1747 
Q 1441 1244 1636 976 
Q 1831 709 2203 709 
Q 2569 709 2762 976 
Q 2956 1244 2956 1747 
Q 2956 2250 2762 2517 
Q 2569 2784 2203 2784 
z
M 2203 3584 
Q 3106 3584 3614 3096 
Q 4122 2609 4122 1747 
Q 4122 884 3614 396 
Q 3106 -91 2203 -91 
Q 1297 -91 786 396 
Q 275 884 275 1747 
Q 275 2609 786 3096 
Q 1297 3584 2203 3584 
z
" transform="scale(0.015625)"/>
      <path id="DejaVuSans-Bold-6e" d="M 4056 2131 
L 4056 0 
L 2931 0 
L 2931 347 
L 2931 1631 
Q 2931 2084 2911 2256 
Q 2891 2428 2841 2509 
Q 2775 2619 2662 2680 
Q 2550 2741 2406 2741 
Q 2056 2741 1856 2470 
Q 1656 2200 1656 1722 
L 1656 0 
L 538 0 
L 538 3500 
L 1656 3500 
L 1656 2988 
Q 1909 3294 2193 3439 
Q 2478 3584 2822 3584 
Q 3428 3584 3742 3212 
Q 4056 2841 4056 2131 
z
" transform="scale(0.015625)"/>
      <path id="DejaVuSans-Bold-66" d="M 2841 4863 
L 2841 4128 
L 2222 4128 
Q 1984 4128 1890 4042 
Q 1797 3956 1797 3744 
L 1797 3500 
L 2753 3500 
L 2753 2700 
L 1797 2700 
L 1797 0 
L 678 0 
L 678 2700 
L 122 2700 
L 122 3500 
L 678 3500 
L 678 3744 
Q 678 4316 997 4589 
Q 1316 4863 1984 4863 
L 2841 4863 
z
" transform="scale(0.015625)"/>
      <path id="DejaVuSans-Bold-50" d="M 588 4666 
L 2584 4666 
Q 3475 4666 3951 4270 
Q 4428 3875 4428 3144 
Q 4428 2409 3951 2014 
Q 3475 1619 2584 1619 
L 1791 1619 
L 1791 0 
L 588 0 
L 588 4666 
z
M 1791 3794 
L 1791 2491 
L 2456 2491 
Q 2806 2491 2997 2661 
Q 3188 2831 3188 3144 
Q 3188 3456 2997 3625 
Q 2806 3794 2456 3794 
L 1791 3794 
z
" transform="scale(0.015625)"/>
      <path id="DejaVuSans-Bold-65" d="M 4031 1759 
L 4031 1441 
L 1416 1441 
Q 1456 1047 1700 850 
Q 1944 653 2381 653 
Q 2734 653 3104 758 
Q 3475 863 3866 1075 
L 3866 213 
Q 3469 63 3072 -14 
Q 2675 -91 2278 -91 
Q 1328 -91 801 392 
Q 275 875 275 1747 
Q 275 2603 792 3093 
Q 1309 3584 2216 3584 
Q 3041 3584 3536 3087 
Q 4031 2591 4031 1759 
z
M 2881 2131 
Q 2881 2450 2695 2645 
Q 2509 2841 2209 2841 
Q 1884 2841 1681 2658 
Q 1478 2475 1428 2131 
L 2881 2131 
z
" transform="scale(0.015625)"/>
      <path id="DejaVuSans-Bold-54" d="M 31 4666 
L 4331 4666 
L 4331 3756 
L 2784 3756 
L 2784 0 
L 1581 0 
L 1581 3756 
L 31 3756 
L 31 4666 
z
" transform="scale(0.015625)"/>
      <path id="DejaVuSans-Bold-45" d="M 588 4666 
L 3834 4666 
L 3834 3756 
L 1791 3756 
L 1791 2888 
L 3713 2888 
L 3713 1978 
L 1791 1978 
L 1791 909 
L 3903 909 
L 3903 0 
L 588 0 
L 588 4666 
z
" transform="scale(0.015625)"/>
      <path id="DejaVuSans-Bold-64" d="M 2919 2988 
L 2919 4863 
L 4044 4863 
L 4044 0 
L 2919 0 
L 2919 506 
Q 2688 197 2409 53 
Q 2131 -91 1766 -91 
Q 1119 -91 703 423 
Q 288 938 288 1747 
Q 288 2556 703 3070 
Q 1119 3584 1766 3584 
Q 2128 3584 2408 3439 
Q 2688 3294 2919 2988 
z
M 2181 722 
Q 2541 722 2730 984 
Q 2919 1247 2919 1747 
Q 2919 2247 2730 2509 
Q 2541 2772 2181 2772 
Q 1825 2772 1636 2509 
Q 1447 2247 1447 1747 
Q 1447 1247 1636 984 
Q 1825 722 2181 722 
z
" transform="scale(0.015625)"/>
      <path id="DejaVuSans-Bold-67" d="M 2919 594 
Q 2688 288 2409 144 
Q 2131 0 1766 0 
Q 1125 0 706 504 
Q 288 1009 288 1791 
Q 288 2575 706 3076 
Q 1125 3578 1766 3578 
Q 2131 3578 2409 3434 
Q 2688 3291 2919 2981 
L 2919 3500 
L 4044 3500 
L 4044 353 
Q 4044 -491 3511 -936 
Q 2978 -1381 1966 -1381 
Q 1638 -1381 1331 -1331 
Q 1025 -1281 716 -1178 
L 716 -306 
Q 1009 -475 1290 -558 
Q 1572 -641 1856 -641 
Q 2406 -641 2662 -400 
Q 2919 -159 2919 353 
L 2919 594 
z
M 2181 2772 
Q 1834 2772 1640 2515 
Q 1447 2259 1447 1791 
Q 1447 1309 1634 1061 
Q 1822 813 2181 813 
Q 2531 813 2725 1069 
Q 2919 1325 2919 1791 
Q 2919 2259 2725 2515 
Q 2531 2772 2181 2772 
z
" transform="scale(0.015625)"/>
     </defs>
     <use xlink:href="#DejaVuSans-Bold-47"/>
     <use xlink:href="#DejaVuSans-Bold-4c" transform="translate(82.080078 0)"/>
     <use xlink:href="#DejaVuSans-Bold-4d" transform="translate(145.800781 0)"/>
     <use xlink:href="#DejaVuSans-Bold-2d" transform="translate(245.3125 0)"/>
     <use xlink:href="#DejaVuSans-Bold-34" transform="translate(286.816406 0)"/>
     <use xlink:href="#DejaVuSans-Bold-2e" transform="translate(356.396484 0)"/>
     <use xlink:href="#DejaVuSans-Bold-37" transform="translate(394.384766 0)"/>
     <use xlink:href="#DejaVuSans-Bold-2d" transform="translate(463.964844 0)"/>
     <use xlink:href="#DejaVuSans-Bold-46" transform="translate(505.46875 0)"/>
     <use xlink:href="#DejaVuSans-Bold-6c" transform="translate(573.779297 0)"/>
     <use xlink:href="#DejaVuSans-Bold-61" transform="translate(608.056641 0)"/>
     <use xlink:href="#DejaVuSans-Bold-73" transform="translate(675.537109 0)"/>
     <use xlink:href="#DejaVuSans-Bold-68" transform="translate(735.058594 0)"/>
     <use xlink:href="#DejaVuSans-Bold-20" transform="translate(806.25 0)"/>
     <use xlink:href="#DejaVuSans-Bold-44" transform="translate(841.064453 0)"/>
     <use xlink:href="#DejaVuSans-Bold-69" transform="translate(924.072266 0)"/>
     <use xlink:href="#DejaVuSans-Bold-73" transform="translate(958.349609 0)"/>
     <use xlink:href="#DejaVuSans-Bold-74" transform="translate(1017.871094 0)"/>
     <use xlink:href="#DejaVuSans-Bold-72" transform="translate(1065.673828 0)"/>
     <use xlink:href="#DejaVuSans-Bold-69" transform="translate(1114.990234 0)"/>
     <use xlink:href="#DejaVuSans-Bold-62" transform="translate(1149.267578 0)"/>
     <use xlink:href="#DejaVuSans-Bold-75" transform="translate(1220.849609 0)"/>
     <use xlink:href="#DejaVuSans-Bold-74" transform="translate(1292.041016 0)"/>
     <use xlink:href="#DejaVuSans-Bold-69" transform="translate(1339.84375 0)"/>
     <use xlink:href="#DejaVuSans-Bold-6f" transform="translate(1374.121094 0)"/>
     <use xlink:href="#DejaVuSans-Bold-6e" transform="translate(1442.822266 0)"/>
     <use xlink:href="#DejaVuSans-Bold-20" transform="translate(1514.013672 0)"/>
     <use xlink:href="#DejaVuSans-Bold-6f" transform="translate(1548.828125 0)"/>
     <use xlink:href="#DejaVuSans-Bold-66" transform="translate(1617.529297 0)"/>
     <use xlink:href="#DejaVuSans-Bold-20" transform="translate(1661.035156 0)"/>
     <use xlink:href="#DejaVuSans-Bold-50" transform="translate(1695.849609 0)"/>
     <use xlink:href="#DejaVuSans-Bold-65" transform="translate(1769.140625 0)"/>
     <use xlink:href="#DejaVuSans-Bold-72" transform="translate(1836.962891 0)"/>
     <use xlink:href="#DejaVuSans-Bold-2d" transform="translate(1886.279297 0)"/>
     <use xlink:href="#DejaVuSans-Bold-54" transform="translate(1913.033203 0)"/>
     <use xlink:href="#DejaVuSans-Bold-65" transform="translate(1967.996094 0)"/>
     <use xlink:href="#DejaVuSans-Bold-6e" transform="translate(2035.818359 0)"/>
     <use xlink:href="#DejaVuSans-Bold-73" transform="translate(2107.009766 0)"/>
     <use xlink:href="#DejaVuSans-Bold-6f" transform="translate(2166.53125 0)"/>
     <use xlink:href="#DejaVuSans-Bold-72" transform="translate(2235.232422 0)"/>
     <use xlink:href="#DejaVuSans-Bold-20" transform="translate(2284.548828 0)"/>
     <use xlink:href="#DejaVuSans-Bold-45" transform="translate(2319.363281 0)"/>
     <use xlink:href="#DejaVuSans-Bold-64" transform="translate(2387.673828 0)"/>
     <use xlink:href="#DejaVuSans-Bold-69" transform="translate(2459.255859 0)"/>
     <use xlink:href="#DejaVuSans-Bold-74" transform="translate(2493.533203 0)"/>
     <use xlink:href="#DejaVuSans-Bold-20" transform="translate(2541.335938 0)"/>
     <use xlink:href="#DejaVuSans-Bold-4d" transform="translate(2576.150391 0)"/>
     <use xlink:href="#DejaVuSans-Bold-61" transform="translate(2675.662109 0)"/>
     <use xlink:href="#DejaVuSans-Bold-67" transform="translate(2743.142578 0)"/>
     <use xlink:href="#DejaVuSans-Bold-6e" transform="translate(2814.724609 0)"/>
     <use xlink:href="#DejaVuSans-Bold-69" transform="translate(2885.916016 0)"/>
     <use xlink:href="#DejaVuSans-Bold-74" transform="translate(2920.193359 0)"/>
     <use xlink:href="#DejaVuSans-Bold-75" transform="translate(2967.996094 0)"/>
     <use xlink:href="#DejaVuSans-Bold-64" transform="translate(3039.1875 0)"/>
     <use xlink:href="#DejaVuSans-Bold-65" transform="translate(3110.769531 0)"/>
     <use xlink:href="#DejaVuSans-Bold-73" transform="translate(3178.591797 0)"/>
    </g>
   </g>
  </g>
 </g>
 <defs>
  <clipPath id="pe44767c973">
   <rect x="47.711" y="23.837812" width="669.6" height="332.64"/>
  </clipPath>
 </defs>
</svg>
