<?xml version="1.0" encoding="utf-8" standalone="no"?>
<!DOCTYPE svg PUBLIC "-//W3C//DTD SVG 1.1//EN"
  "http://www.w3.org/Graphics/SVG/1.1/DTD/svg11.dtd">
<svg xmlns:xlink="http://www.w3.org/1999/xlink" width="1136.704531pt" height="847.130094pt" viewBox="0 0 1136.704531 847.130094" xmlns="http://www.w3.org/2000/svg" version="1.1">
 <metadata>
  <rdf:RDF xmlns:dc="http://purl.org/dc/elements/1.1/" xmlns:cc="http://creativecommons.org/ns#" xmlns:rdf="http://www.w3.org/1999/02/22-rdf-syntax-ns#">
   <cc:Work>
    <dc:type rdf:resource="http://purl.org/dc/dcmitype/StillImage"/>
    <dc:date>2026-04-24T10:51:56.017929</dc:date>
    <dc:format>image/svg+xml</dc:format>
    <dc:creator>
     <cc:Agent>
      <dc:title>Matplotlib v3.10.8, https://matplotlib.org/</dc:title>
     </cc:Agent>
    </dc:creator>
   </cc:Work>
  </rdf:RDF>
 </metadata>
 <defs>
  <style type="text/css">*{stroke-linejoin: round; stroke-linecap: butt}</style>
 </defs>
 <g id="figure_1">
  <g id="patch_1">
   <path d="M 0 847.130094 
L 1136.704531 847.130094 
L 1136.704531 0 
L 0 0 
z
" style="fill: #ffffff"/>
  </g>
  <g id="axes_1">
   <g id="patch_2">
    <path d="M 51.556531 397.943813 
L 1129.504531 397.943813 
L 1129.504531 23.837813 
L 51.556531 23.837813 
z
" style="fill: #ffffff"/>
   </g>
   <g id="matplotlib.axis_1">
    <g id="xtick_1">
     <g id="line2d_1">
      <path d="M 100.554168 397.943813 
L 100.554168 23.837813 
" clip-path="url(#p179513926e)" style="fill: none; stroke: #cccccc; stroke-linecap: round"/>
     </g>
    </g>
    <g id="xtick_2">
     <g id="line2d_2">
      <path d="M 142.254284 397.943813 
L 142.254284 23.837813 
" clip-path="url(#p179513926e)" style="fill: none; stroke: #cccccc; stroke-linecap: round"/>
     </g>
    </g>
    <g id="xtick_3">
     <g id="line2d_3">
      <path d="M 183.9544 397.943813 
L 183.9544 23.837813 
" clip-path="url(#p179513926e)" style="fill: none; stroke: #cccccc; stroke-linecap: round"/>
     </g>
    </g>
    <g id="xtick_4">
     <g id="line2d_4">
      <path d="M 225.654516 397.943813 
L 225.654516 23.837813 
" clip-path="url(#p179513926e)" style="fill: none; stroke: #cccccc; stroke-linecap: round"/>
     </g>
    </g>
    <g id="xtick_5">
     <g id="line2d_5">
      <path d="M 267.354632 397.943813 
L 267.354632 23.837813 
" clip-path="url(#p179513926e)" style="fill: none; stroke: #cccccc; stroke-linecap: round"/>
     </g>
    </g>
    <g id="xtick_6">
     <g id="line2d_6">
      <path d="M 309.054748 397.943813 
L 309.054748 23.837813 
" clip-path="url(#p179513926e)" style="fill: none; stroke: #cccccc; stroke-linecap: round"/>
     </g>
    </g>
    <g id="xtick_7">
     <g id="line2d_7">
      <path d="M 350.754864 397.943813 
L 350.754864 23.837813 
" clip-path="url(#p179513926e)" style="fill: none; stroke: #cccccc; stroke-linecap: round"/>
     </g>
    </g>
    <g id="xtick_8">
     <g id="line2d_8">
      <path d="M 392.45498 397.943813 
L 392.45498 23.837813 
" clip-path="url(#p179513926e)" style="fill: none; stroke: #cccccc; stroke-linecap: round"/>
     </g>
    </g>
    <g id="xtick_9">
     <g id="line2d_9">
      <path d="M 434.155096 397.943813 
L 434.155096 23.837813 
" clip-path="url(#p179513926e)" style="fill: none; stroke: #cccccc; stroke-linecap: round"/>
     </g>
    </g>
    <g id="xtick_10">
     <g id="line2d_10">
      <path d="M 475.855212 397.943813 
L 475.855212 23.837813 
" clip-path="url(#p179513926e)" style="fill: none; stroke: #cccccc; stroke-linecap: round"/>
     </g>
    </g>
    <g id="xtick_11">
     <g id="line2d_11">
      <path d="M 517.555328 397.943813 
L 517.555328 23.837813 
" clip-path="url(#p179513926e)" style="fill: none; stroke: #cccccc; stroke-linecap: round"/>
     </g>
    </g>
    <g id="xtick_12">
     <g id="line2d_12">
      <path d="M 559.255444 397.943813 
L 559.255444 23.837813 
" clip-path="url(#p179513926e)" style="fill: none; stroke: #cccccc; stroke-linecap: round"/>
     </g>
    </g>
    <g id="xtick_13">
     <g id="line2d_13">
      <path d="M 600.95556 397.943813 
L 600.95556 23.837813 
" clip-path="url(#p179513926e)" style="fill: none; stroke: #cccccc; stroke-linecap: round"/>
     </g>
    </g>
    <g id="xtick_14">
     <g id="line2d_14">
      <path d="M 642.655676 397.943813 
L 642.655676 23.837813 
" clip-path="url(#p179513926e)" style="fill: none; stroke: #cccccc; stroke-linecap: round"/>
     </g>
    </g>
    <g id="xtick_15">
     <g id="line2d_15">
      <path d="M 684.355792 397.943813 
L 684.355792 23.837813 
" clip-path="url(#p179513926e)" style="fill: none; stroke: #cccccc; stroke-linecap: round"/>
     </g>
    </g>
    <g id="xtick_16">
     <g id="line2d_16">
      <path d="M 726.055908 397.943813 
L 726.055908 23.837813 
" clip-path="url(#p179513926e)" style="fill: none; stroke: #cccccc; stroke-linecap: round"/>
     </g>
    </g>
    <g id="xtick_17">
     <g id="line2d_17">
      <path d="M 767.756024 397.943813 
L 767.756024 23.837813 
" clip-path="url(#p179513926e)" style="fill: none; stroke: #cccccc; stroke-linecap: round"/>
     </g>
    </g>
    <g id="xtick_18">
     <g id="line2d_18">
      <path d="M 809.456141 397.943813 
L 809.456141 23.837813 
" clip-path="url(#p179513926e)" style="fill: none; stroke: #cccccc; stroke-linecap: round"/>
     </g>
    </g>
    <g id="xtick_19">
     <g id="line2d_19">
      <path d="M 851.156257 397.943813 
L 851.156257 23.837813 
" clip-path="url(#p179513926e)" style="fill: none; stroke: #cccccc; stroke-linecap: round"/>
     </g>
    </g>
    <g id="xtick_20">
     <g id="line2d_20">
      <path d="M 892.856373 397.943813 
L 892.856373 23.837813 
" clip-path="url(#p179513926e)" style="fill: none; stroke: #cccccc; stroke-linecap: round"/>
     </g>
    </g>
    <g id="xtick_21">
     <g id="line2d_21">
      <path d="M 934.556489 397.943813 
L 934.556489 23.837813 
" clip-path="url(#p179513926e)" style="fill: none; stroke: #cccccc; stroke-linecap: round"/>
     </g>
    </g>
    <g id="xtick_22">
     <g id="line2d_22">
      <path d="M 976.256605 397.943813 
L 976.256605 23.837813 
" clip-path="url(#p179513926e)" style="fill: none; stroke: #cccccc; stroke-linecap: round"/>
     </g>
    </g>
    <g id="xtick_23">
     <g id="line2d_23">
      <path d="M 1017.956721 397.943813 
L 1017.956721 23.837813 
" clip-path="url(#p179513926e)" style="fill: none; stroke: #cccccc; stroke-linecap: round"/>
     </g>
    </g>
    <g id="xtick_24">
     <g id="line2d_24">
      <path d="M 1059.656837 397.943813 
L 1059.656837 23.837813 
" clip-path="url(#p179513926e)" style="fill: none; stroke: #cccccc; stroke-linecap: round"/>
     </g>
    </g>
   </g>
   <g id="matplotlib.axis_2">
    <g id="ytick_1">
     <g id="line2d_25">
      <path d="M 51.556531 380.938994 
L 1129.504531 380.938994 
" clip-path="url(#p179513926e)" style="fill: none; stroke: #cccccc; stroke-linecap: round"/>
     </g>
     <g id="text_1">
      <!-- 0.0 -->
      <g style="fill: #262626" transform="translate(22.81375 385.536049) scale(0.121 -0.121)">
       <defs>
        <path id="DejaVuSans-30" d="M 2034 4250 
Q 1547 4250 1301 3770 
Q 1056 3291 1056 2328 
Q 1056 1369 1301 889 
Q 1547 409 2034 409 
Q 2525 409 2770 889 
Q 3016 1369 3016 2328 
Q 3016 3291 2770 3770 
Q 2525 4250 2034 4250 
z
M 2034 4750 
Q 2819 4750 3233 4129 
Q 3647 3509 3647 2328 
Q 3647 1150 3233 529 
Q 2819 -91 2034 -91 
Q 1250 -91 836 529 
Q 422 1150 422 2328 
Q 422 3509 836 4129 
Q 1250 4750 2034 4750 
z
" transform="scale(0.015625)"/>
        <path id="DejaVuSans-2e" d="M 684 794 
L 1344 794 
L 1344 0 
L 684 0 
L 684 794 
z
" transform="scale(0.015625)"/>
       </defs>
       <use xlink:href="#DejaVuSans-30"/>
       <use xlink:href="#DejaVuSans-2e" transform="translate(63.623047 0)"/>
       <use xlink:href="#DejaVuSans-30" transform="translate(95.410156 0)"/>
      </g>
     </g>
    </g>
    <g id="ytick_2">
     <g id="line2d_26">
      <path d="M 51.556531 314.526116 
L 1129.504531 314.526116 
" clip-path="url(#p179513926e)" style="fill: none; stroke: #cccccc; stroke-linecap: round"/>
     </g>
     <g id="text_2">
      <!-- 0.1 -->
      <g style="fill: #262626" transform="translate(22.81375 319.12317) scale(0.121 -0.121)">
       <defs>
        <path id="DejaVuSans-31" d="M 794 531 
L 1825 531 
L 1825 4091 
L 703 3866 
L 703 4441 
L 1819 4666 
L 2450 4666 
L 2450 531 
L 3481 531 
L 3481 0 
L 794 0 
L 794 531 
z
" transform="scale(0.015625)"/>
       </defs>
       <use xlink:href="#DejaVuSans-30"/>
       <use xlink:href="#DejaVuSans-2e" transform="translate(63.623047 0)"/>
       <use xlink:href="#DejaVuSans-31" transform="translate(95.410156 0)"/>
      </g>
     </g>
    </g>
    <g id="ytick_3">
     <g id="line2d_27">
      <path d="M 51.556531 248.113237 
L 1129.504531 248.113237 
" clip-path="url(#p179513926e)" style="fill: none; stroke: #cccccc; stroke-linecap: round"/>
     </g>
     <g id="text_3">
      <!-- 0.2 -->
      <g style="fill: #262626" transform="translate(22.81375 252.710291) scale(0.121 -0.121)">
       <defs>
        <path id="DejaVuSans-32" d="M 1228 531 
L 3431 531 
L 3431 0 
L 469 0 
L 469 531 
Q 828 903 1448 1529 
Q 2069 2156 2228 2338 
Q 2531 2678 2651 2914 
Q 2772 3150 2772 3378 
Q 2772 3750 2511 3984 
Q 2250 4219 1831 4219 
Q 1534 4219 1204 4116 
Q 875 4013 500 3803 
L 500 4441 
Q 881 4594 1212 4672 
Q 1544 4750 1819 4750 
Q 2544 4750 2975 4387 
Q 3406 4025 3406 3419 
Q 3406 3131 3298 2873 
Q 3191 2616 2906 2266 
Q 2828 2175 2409 1742 
Q 1991 1309 1228 531 
z
" transform="scale(0.015625)"/>
       </defs>
       <use xlink:href="#DejaVuSans-30"/>
       <use xlink:href="#DejaVuSans-2e" transform="translate(63.623047 0)"/>
       <use xlink:href="#DejaVuSans-32" transform="translate(95.410156 0)"/>
      </g>
     </g>
    </g>
    <g id="ytick_4">
     <g id="line2d_28">
      <path d="M 51.556531 181.700358 
L 1129.504531 181.700358 
" clip-path="url(#p179513926e)" style="fill: none; stroke: #cccccc; stroke-linecap: round"/>
     </g>
     <g id="text_4">
      <!-- 0.3 -->
      <g style="fill: #262626" transform="translate(22.81375 186.297413) scale(0.121 -0.121)">
       <defs>
        <path id="DejaVuSans-33" d="M 2597 2516 
Q 3050 2419 3304 2112 
Q 3559 1806 3559 1356 
Q 3559 666 3084 287 
Q 2609 -91 1734 -91 
Q 1441 -91 1130 -33 
Q 819 25 488 141 
L 488 750 
Q 750 597 1062 519 
Q 1375 441 1716 441 
Q 2309 441 2620 675 
Q 2931 909 2931 1356 
Q 2931 1769 2642 2001 
Q 2353 2234 1838 2234 
L 1294 2234 
L 1294 2753 
L 1863 2753 
Q 2328 2753 2575 2939 
Q 2822 3125 2822 3475 
Q 2822 3834 2567 4026 
Q 2313 4219 1838 4219 
Q 1578 4219 1281 4162 
Q 984 4106 628 3988 
L 628 4550 
Q 988 4650 1302 4700 
Q 1616 4750 1894 4750 
Q 2613 4750 3031 4423 
Q 3450 4097 3450 3541 
Q 3450 3153 3228 2886 
Q 3006 2619 2597 2516 
z
" transform="scale(0.015625)"/>
       </defs>
       <use xlink:href="#DejaVuSans-30"/>
       <use xlink:href="#DejaVuSans-2e" transform="translate(63.623047 0)"/>
       <use xlink:href="#DejaVuSans-33" transform="translate(95.410156 0)"/>
      </g>
     </g>
    </g>
    <g id="ytick_5">
     <g id="line2d_29">
      <path d="M 51.556531 115.287479 
L 1129.504531 115.287479 
" clip-path="url(#p179513926e)" style="fill: none; stroke: #cccccc; stroke-linecap: round"/>
     </g>
     <g id="text_5">
      <!-- 0.4 -->
      <g style="fill: #262626" transform="translate(22.81375 119.884534) scale(0.121 -0.121)">
       <defs>
        <path id="DejaVuSans-34" d="M 2419 4116 
L 825 1625 
L 2419 1625 
L 2419 4116 
z
M 2253 4666 
L 3047 4666 
L 3047 1625 
L 3713 1625 
L 3713 1100 
L 3047 1100 
L 3047 0 
L 2419 0 
L 2419 1100 
L 313 1100 
L 313 1709 
L 2253 4666 
z
" transform="scale(0.015625)"/>
       </defs>
       <use xlink:href="#DejaVuSans-30"/>
       <use xlink:href="#DejaVuSans-2e" transform="translate(63.623047 0)"/>
       <use xlink:href="#DejaVuSans-34" transform="translate(95.410156 0)"/>
      </g>
     </g>
    </g>
    <g id="ytick_6">
     <g id="line2d_30">
      <path d="M 51.556531 48.8746 
L 1129.504531 48.8746 
" clip-path="url(#p179513926e)" style="fill: none; stroke: #cccccc; stroke-linecap: round"/>
     </g>
     <g id="text_6">
      <!-- 0.5 -->
      <g style="fill: #262626" transform="translate(22.81375 53.471655) scale(0.121 -0.121)">
       <defs>
        <path id="DejaVuSans-35" d="M 691 4666 
L 3169 4666 
L 3169 4134 
L 1269 4134 
L 1269 2991 
Q 1406 3038 1543 3061 
Q 1681 3084 1819 3084 
Q 2600 3084 3056 2656 
Q 3513 2228 3513 1497 
Q 3513 744 3044 326 
Q 2575 -91 1722 -91 
Q 1428 -91 1123 -41 
Q 819 9 494 109 
L 494 744 
Q 775 591 1075 516 
Q 1375 441 1709 441 
Q 2250 441 2565 725 
Q 2881 1009 2881 1497 
Q 2881 1984 2565 2268 
Q 2250 2553 1709 2553 
Q 1456 2553 1204 2497 
Q 953 2441 691 2322 
L 691 4666 
z
" transform="scale(0.015625)"/>
       </defs>
       <use xlink:href="#DejaVuSans-30"/>
       <use xlink:href="#DejaVuSans-2e" transform="translate(63.623047 0)"/>
       <use xlink:href="#DejaVuSans-35" transform="translate(95.410156 0)"/>
      </g>
     </g>
    </g>
    <g id="text_7">
     <!-- Mean Edit Norm -->
     <g style="fill: #262626" transform="translate(16.318125 259.038) rotate(-90) scale(0.12 -0.12)">
      <defs>
       <path id="DejaVuSans-4d" d="M 628 4666 
L 1569 4666 
L 2759 1491 
L 3956 4666 
L 4897 4666 
L 4897 0 
L 4281 0 
L 4281 4097 
L 3078 897 
L 2444 897 
L 1241 4097 
L 1241 0 
L 628 0 
L 628 4666 
z
" transform="scale(0.015625)"/>
       <path id="DejaVuSans-65" d="M 3597 1894 
L 3597 1613 
L 953 1613 
Q 991 1019 1311 708 
Q 1631 397 2203 397 
Q 2534 397 2845 478 
Q 3156 559 3463 722 
L 3463 178 
Q 3153 47 2828 -22 
Q 2503 -91 2169 -91 
Q 1331 -91 842 396 
Q 353 884 353 1716 
Q 353 2575 817 3079 
Q 1281 3584 2069 3584 
Q 2775 3584 3186 3129 
Q 3597 2675 3597 1894 
z
M 3022 2063 
Q 3016 2534 2758 2815 
Q 2500 3097 2075 3097 
Q 1594 3097 1305 2825 
Q 1016 2553 972 2059 
L 3022 2063 
z
" transform="scale(0.015625)"/>
       <path id="DejaVuSans-61" d="M 2194 1759 
Q 1497 1759 1228 1600 
Q 959 1441 959 1056 
Q 959 750 1161 570 
Q 1363 391 1709 391 
Q 2188 391 2477 730 
Q 2766 1069 2766 1631 
L 2766 1759 
L 2194 1759 
z
M 3341 1997 
L 3341 0 
L 2766 0 
L 2766 531 
Q 2569 213 2275 61 
Q 1981 -91 1556 -91 
Q 1019 -91 701 211 
Q 384 513 384 1019 
Q 384 1609 779 1909 
Q 1175 2209 1959 2209 
L 2766 2209 
L 2766 2266 
Q 2766 2663 2505 2880 
Q 2244 3097 1772 3097 
Q 1472 3097 1187 3025 
Q 903 2953 641 2809 
L 641 3341 
Q 956 3463 1253 3523 
Q 1550 3584 1831 3584 
Q 2591 3584 2966 3190 
Q 3341 2797 3341 1997 
z
" transform="scale(0.015625)"/>
       <path id="DejaVuSans-6e" d="M 3513 2113 
L 3513 0 
L 2938 0 
L 2938 2094 
Q 2938 2591 2744 2837 
Q 2550 3084 2163 3084 
Q 1697 3084 1428 2787 
Q 1159 2491 1159 1978 
L 1159 0 
L 581 0 
L 581 3500 
L 1159 3500 
L 1159 2956 
Q 1366 3272 1645 3428 
Q 1925 3584 2291 3584 
Q 2894 3584 3203 3211 
Q 3513 2838 3513 2113 
z
" transform="scale(0.015625)"/>
       <path id="DejaVuSans-20" transform="scale(0.015625)"/>
       <path id="DejaVuSans-45" d="M 628 4666 
L 3578 4666 
L 3578 4134 
L 1259 4134 
L 1259 2753 
L 3481 2753 
L 3481 2222 
L 1259 2222 
L 1259 531 
L 3634 531 
L 3634 0 
L 628 0 
L 628 4666 
z
" transform="scale(0.015625)"/>
       <path id="DejaVuSans-64" d="M 2906 2969 
L 2906 4863 
L 3481 4863 
L 3481 0 
L 2906 0 
L 2906 525 
Q 2725 213 2448 61 
Q 2172 -91 1784 -91 
Q 1150 -91 751 415 
Q 353 922 353 1747 
Q 353 2572 751 3078 
Q 1150 3584 1784 3584 
Q 2172 3584 2448 3432 
Q 2725 3281 2906 2969 
z
M 947 1747 
Q 947 1113 1208 752 
Q 1469 391 1925 391 
Q 2381 391 2643 752 
Q 2906 1113 2906 1747 
Q 2906 2381 2643 2742 
Q 2381 3103 1925 3103 
Q 1469 3103 1208 2742 
Q 947 2381 947 1747 
z
" transform="scale(0.015625)"/>
       <path id="DejaVuSans-69" d="M 603 3500 
L 1178 3500 
L 1178 0 
L 603 0 
L 603 3500 
z
M 603 4863 
L 1178 4863 
L 1178 4134 
L 603 4134 
L 603 4863 
z
" transform="scale(0.015625)"/>
       <path id="DejaVuSans-74" d="M 1172 4494 
L 1172 3500 
L 2356 3500 
L 2356 3053 
L 1172 3053 
L 1172 1153 
Q 1172 725 1289 603 
Q 1406 481 1766 481 
L 2356 481 
L 2356 0 
L 1766 0 
Q 1100 0 847 248 
Q 594 497 594 1153 
L 594 3053 
L 172 3053 
L 172 3500 
L 594 3500 
L 594 4494 
L 1172 4494 
z
" transform="scale(0.015625)"/>
       <path id="DejaVuSans-4e" d="M 628 4666 
L 1478 4666 
L 3547 763 
L 3547 4666 
L 4159 4666 
L 4159 0 
L 3309 0 
L 1241 3903 
L 1241 0 
L 628 0 
L 628 4666 
z
" transform="scale(0.015625)"/>
       <path id="DejaVuSans-6f" d="M 1959 3097 
Q 1497 3097 1228 2736 
Q 959 2375 959 1747 
Q 959 1119 1226 758 
Q 1494 397 1959 397 
Q 2419 397 2687 759 
Q 2956 1122 2956 1747 
Q 2956 2369 2687 2733 
Q 2419 3097 1959 3097 
z
M 1959 3584 
Q 2709 3584 3137 3096 
Q 3566 2609 3566 1747 
Q 3566 888 3137 398 
Q 2709 -91 1959 -91 
Q 1206 -91 779 398 
Q 353 888 353 1747 
Q 353 2609 779 3096 
Q 1206 3584 1959 3584 
z
" transform="scale(0.015625)"/>
       <path id="DejaVuSans-72" d="M 2631 2963 
Q 2534 3019 2420 3045 
Q 2306 3072 2169 3072 
Q 1681 3072 1420 2755 
Q 1159 2438 1159 1844 
L 1159 0 
L 581 0 
L 581 3500 
L 1159 3500 
L 1159 2956 
Q 1341 3275 1631 3429 
Q 1922 3584 2338 3584 
Q 2397 3584 2469 3576 
Q 2541 3569 2628 3553 
L 2631 2963 
z
" transform="scale(0.015625)"/>
       <path id="DejaVuSans-6d" d="M 3328 2828 
Q 3544 3216 3844 3400 
Q 4144 3584 4550 3584 
Q 5097 3584 5394 3201 
Q 5691 2819 5691 2113 
L 5691 0 
L 5113 0 
L 5113 2094 
Q 5113 2597 4934 2840 
Q 4756 3084 4391 3084 
Q 3944 3084 3684 2787 
Q 3425 2491 3425 1978 
L 3425 0 
L 2847 0 
L 2847 2094 
Q 2847 2600 2669 2842 
Q 2491 3084 2119 3084 
Q 1678 3084 1418 2786 
Q 1159 2488 1159 1978 
L 1159 0 
L 581 0 
L 581 3500 
L 1159 3500 
L 1159 2956 
Q 1356 3278 1631 3431 
Q 1906 3584 2284 3584 
Q 2666 3584 2933 3390 
Q 3200 3197 3328 2828 
z
" transform="scale(0.015625)"/>
      </defs>
      <use xlink:href="#DejaVuSans-4d"/>
      <use xlink:href="#DejaVuSans-65" transform="translate(86.279297 0)"/>
      <use xlink:href="#DejaVuSans-61" transform="translate(147.802734 0)"/>
      <use xlink:href="#DejaVuSans-6e" transform="translate(209.082031 0)"/>
      <use xlink:href="#DejaVuSans-20" transform="translate(272.460938 0)"/>
      <use xlink:href="#DejaVuSans-45" transform="translate(304.248047 0)"/>
      <use xlink:href="#DejaVuSans-64" transform="translate(367.431641 0)"/>
      <use xlink:href="#DejaVuSans-69" transform="translate(430.908203 0)"/>
      <use xlink:href="#DejaVuSans-74" transform="translate(458.691406 0)"/>
      <use xlink:href="#DejaVuSans-20" transform="translate(497.900391 0)"/>
      <use xlink:href="#DejaVuSans-4e" transform="translate(529.6875 0)"/>
      <use xlink:href="#DejaVuSans-6f" transform="translate(604.492188 0)"/>
      <use xlink:href="#DejaVuSans-72" transform="translate(665.673828 0)"/>
      <use xlink:href="#DejaVuSans-6d" transform="translate(705.037109 0)"/>
     </g>
    </g>
   </g>
   <g id="line2d_31">
    <path d="M 100.554168 380.938994 
L 121.404226 380.938994 
L 142.254284 380.938994 
L 163.104342 380.938994 
L 183.9544 380.938994 
L 204.804458 380.938994 
L 225.654516 380.938994 
L 246.504574 380.938994 
L 267.354632 380.938994 
L 288.20469 380.938994 
L 309.054748 380.938994 
L 329.904806 380.938994 
L 350.754864 380.938994 
L 371.604922 376.052733 
L 392.45498 374.842708 
L 413.305038 374.680052 
L 434.155096 374.020494 
L 455.005154 372.800217 
L 475.855212 373.02773 
L 496.70527 163.434762 
L 517.555328 161.99428 
L 538.405386 153.361866 
L 559.255444 157.452554 
L 580.105502 159.873787 
L 600.95556 164.07834 
L 621.805618 170.990752 
L 642.655676 160.195102 
L 663.505734 172.42949 
L 684.355792 179.497399 
L 705.20585 174.942255 
L 726.055908 173.278541 
L 746.905966 178.066162 
L 767.756024 175.042621 
L 788.606083 182.461238 
L 809.456141 177.67523 
L 830.306199 180.359813 
L 851.156257 179.311235 
L 872.006315 182.373968 
L 892.856373 180.95687 
L 913.706431 184.998991 
L 934.556489 183.365302 
L 955.406547 182.538993 
L 976.256605 184.028133 
L 997.106663 183.752115 
L 1017.956721 178.271645 
L 1038.806779 165.277682 
L 1059.656837 130.013499 
" clip-path="url(#p179513926e)" style="fill: none; stroke: #3498db; stroke-opacity: 0.8; stroke-width: 1.5; stroke-linecap: round"/>
   </g>
   <g id="line2d_32">
    <path d="M 100.554168 380.938498 
L 121.404226 380.938624 
L 142.254284 373.588377 
L 163.104342 373.900822 
L 183.9544 373.643721 
L 204.804458 373.11354 
L 225.654516 372.668819 
L 246.504574 371.737172 
L 267.354632 371.618417 
L 288.20469 371.625122 
L 309.054748 371.958444 
L 329.904806 373.326406 
L 350.754864 372.897197 
L 371.604922 373.166318 
L 392.45498 371.518263 
L 413.305038 372.324383 
L 434.155096 250.533215 
L 455.005154 237.414527 
L 475.855212 227.196028 
L 496.70527 219.444985 
L 517.555328 214.074182 
L 538.405386 194.943358 
L 559.255444 197.500532 
L 580.105502 197.550279 
L 600.95556 195.374295 
L 621.805618 194.301324 
L 642.655676 180.852857 
L 663.505734 185.163956 
L 684.355792 184.315347 
L 705.20585 179.862756 
L 726.055908 167.514082 
L 746.905966 167.808594 
L 767.756024 161.382601 
L 788.606083 164.418018 
L 809.456141 155.599763 
L 830.306199 151.08287 
L 851.156257 141.604848 
L 872.006315 137.447263 
L 892.856373 128.941632 
L 913.706431 127.589831 
L 934.556489 118.163532 
L 955.406547 111.002124 
L 976.256605 104.231422 
L 997.106663 97.00959 
L 1017.956721 91.723116 
L 1038.806779 78.556446 
L 1059.656837 40.842631 
" clip-path="url(#p179513926e)" style="fill: none; stroke: #e74c3c; stroke-opacity: 0.8; stroke-width: 1.5; stroke-linecap: round"/>
   </g>
   <g id="line2d_33">
    <path d="M 100.554168 150.768921 
L 121.404226 180.338801 
L 142.254284 185.636568 
L 163.104342 185.241474 
L 183.9544 183.066187 
L 204.804458 184.319352 
L 225.654516 184.123322 
L 246.504574 187.3855 
L 267.354632 180.293562 
L 288.20469 183.153333 
L 309.054748 177.539952 
L 329.904806 182.589843 
L 350.754864 181.734854 
L 371.604922 181.194214 
L 392.45498 177.851459 
L 413.305038 179.112264 
L 434.155096 171.159881 
L 455.005154 165.54329 
L 475.855212 163.503551 
L 496.70527 159.778975 
L 517.555328 157.926026 
L 538.405386 146.492408 
L 559.255444 149.627469 
L 580.105502 156.555288 
L 600.95556 159.667003 
L 621.805618 167.408423 
L 642.655676 155.221436 
L 663.505734 169.250035 
L 684.355792 178.04561 
L 705.20585 179.127798 
L 726.055908 175.242249 
L 746.905966 182.138117 
L 767.756024 181.418988 
L 788.606083 188.876423 
L 809.456141 186.830075 
L 830.306199 188.166737 
L 851.156257 185.903208 
L 872.006315 186.858453 
L 892.856373 185.278787 
L 913.706431 188.237212 
L 934.556489 185.279257 
L 955.406547 184.013624 
L 976.256605 184.198252 
L 997.106663 183.009921 
L 1017.956721 177.842801 
L 1038.806779 164.257002 
L 1059.656837 131.875679 
L 1080.506895 185.711308 
" clip-path="url(#p179513926e)" style="fill: none; stroke: #2ecc71; stroke-opacity: 0.8; stroke-width: 1.5; stroke-linecap: round"/>
   </g>
   <g id="line2d_34">
    <path d="M 100.554168 380.938994 
L 121.404226 255.467193 
L 142.254284 260.067964 
L 163.104342 260.514987 
L 183.9544 261.908121 
L 204.804458 263.748174 
L 225.654516 262.438196 
L 246.504574 261.710502 
L 267.354632 260.975335 
L 288.20469 256.567995 
L 309.054748 258.971825 
L 329.904806 260.279221 
L 350.754864 261.05344 
L 371.604922 258.171332 
L 392.45498 258.818357 
L 413.305038 240.153766 
L 434.155096 222.265012 
L 455.005154 210.703063 
L 475.855212 210.597903 
L 496.70527 209.993465 
L 517.555328 197.710987 
L 538.405386 191.498787 
L 559.255444 202.194689 
L 580.105502 209.270208 
L 600.95556 212.531453 
L 621.805618 222.678265 
L 642.655676 206.599306 
L 663.505734 226.343565 
L 684.355792 232.646964 
L 705.20585 229.133226 
L 726.055908 226.943141 
L 746.905966 228.37922 
L 767.756024 212.913969 
L 788.606083 236.267319 
L 809.456141 231.046714 
L 830.306199 223.685421 
L 851.156257 221.92363 
L 872.006315 225.921171 
L 892.856373 224.626436 
L 913.706431 225.338739 
L 934.556489 233.548703 
L 955.406547 236.01041 
L 976.256605 239.670445 
L 997.106663 239.599598 
L 1017.956721 233.652132 
L 1038.806779 226.580787 
L 1059.656837 186.30112 
" clip-path="url(#p179513926e)" style="fill: none; stroke: #9b59b6; stroke-opacity: 0.8; stroke-width: 1.5; stroke-linecap: round"/>
   </g>
   <g id="patch_3">
    <path d="M 51.556531 397.943813 
L 51.556531 23.837813 
" style="fill: none; stroke: #cccccc; stroke-width: 1.25; stroke-linejoin: miter; stroke-linecap: square"/>
   </g>
   <g id="patch_4">
    <path d="M 1129.504531 397.943813 
L 1129.504531 23.837813 
" style="fill: none; stroke: #cccccc; stroke-width: 1.25; stroke-linejoin: miter; stroke-linecap: square"/>
   </g>
   <g id="patch_5">
    <path d="M 51.556531 397.943813 
L 1129.504531 397.943813 
" style="fill: none; stroke: #cccccc; stroke-width: 1.25; stroke-linejoin: miter; stroke-linecap: square"/>
   </g>
   <g id="patch_6">
    <path d="M 51.556531 23.837813 
L 1129.504531 23.837813 
" style="fill: none; stroke: #cccccc; stroke-width: 1.25; stroke-linejoin: miter; stroke-linecap: square"/>
   </g>
   <g id="text_8">
    <!-- GLM-4.7-Flash Layer-wise Edit Magnitude -->
    <g style="fill: #262626" transform="translate(426.660531 17.837813) scale(0.14 -0.14)">
     <defs>
      <path id="DejaVuSans-Bold-47" d="M 4781 347 
Q 4331 128 3847 18 
Q 3363 -91 2847 -91 
Q 1681 -91 1000 561 
Q 319 1213 319 2328 
Q 319 3456 1012 4103 
Q 1706 4750 2913 4750 
Q 3378 4750 3804 4662 
Q 4231 4575 4609 4403 
L 4609 3438 
Q 4219 3659 3833 3768 
Q 3447 3878 3059 3878 
Q 2341 3878 1952 3476 
Q 1563 3075 1563 2328 
Q 1563 1588 1938 1184 
Q 2313 781 3003 781 
Q 3191 781 3352 804 
Q 3513 828 3641 878 
L 3641 1784 
L 2906 1784 
L 2906 2591 
L 4781 2591 
L 4781 347 
z
" transform="scale(0.015625)"/>
      <path id="DejaVuSans-Bold-4c" d="M 588 4666 
L 1791 4666 
L 1791 909 
L 3903 909 
L 3903 0 
L 588 0 
L 588 4666 
z
" transform="scale(0.015625)"/>
      <path id="DejaVuSans-Bold-4d" d="M 588 4666 
L 2119 4666 
L 3181 2169 
L 4250 4666 
L 5778 4666 
L 5778 0 
L 4641 0 
L 4641 3413 
L 3566 897 
L 2803 897 
L 1728 3413 
L 1728 0 
L 588 0 
L 588 4666 
z
" transform="scale(0.015625)"/>
      <path id="DejaVuSans-Bold-2d" d="M 347 2297 
L 2309 2297 
L 2309 1388 
L 347 1388 
L 347 2297 
z
" transform="scale(0.015625)"/>
      <path id="DejaVuSans-Bold-34" d="M 2356 3675 
L 1038 1722 
L 2356 1722 
L 2356 3675 
z
M 2156 4666 
L 3494 4666 
L 3494 1722 
L 4159 1722 
L 4159 850 
L 3494 850 
L 3494 0 
L 2356 0 
L 2356 850 
L 288 850 
L 288 1881 
L 2156 4666 
z
" transform="scale(0.015625)"/>
      <path id="DejaVuSans-Bold-2e" d="M 653 1209 
L 1778 1209 
L 1778 0 
L 653 0 
L 653 1209 
z
" transform="scale(0.015625)"/>
      <path id="DejaVuSans-Bold-37" d="M 428 4666 
L 3944 4666 
L 3944 3988 
L 2125 0 
L 953 0 
L 2675 3781 
L 428 3781 
L 428 4666 
z
" transform="scale(0.015625)"/>
      <path id="DejaVuSans-Bold-46" d="M 588 4666 
L 3834 4666 
L 3834 3756 
L 1791 3756 
L 1791 2888 
L 3713 2888 
L 3713 1978 
L 1791 1978 
L 1791 0 
L 588 0 
L 588 4666 
z
" transform="scale(0.015625)"/>
      <path id="DejaVuSans-Bold-6c" d="M 538 4863 
L 1656 4863 
L 1656 0 
L 538 0 
L 538 4863 
z
" transform="scale(0.015625)"/>
      <path id="DejaVuSans-Bold-61" d="M 2106 1575 
Q 1756 1575 1579 1456 
Q 1403 1338 1403 1106 
Q 1403 894 1545 773 
Q 1688 653 1941 653 
Q 2256 653 2472 879 
Q 2688 1106 2688 1447 
L 2688 1575 
L 2106 1575 
z
M 3816 1997 
L 3816 0 
L 2688 0 
L 2688 519 
Q 2463 200 2181 54 
Q 1900 -91 1497 -91 
Q 953 -91 614 226 
Q 275 544 275 1050 
Q 275 1666 698 1953 
Q 1122 2241 2028 2241 
L 2688 2241 
L 2688 2328 
Q 2688 2594 2478 2717 
Q 2269 2841 1825 2841 
Q 1466 2841 1156 2769 
Q 847 2697 581 2553 
L 581 3406 
Q 941 3494 1303 3539 
Q 1666 3584 2028 3584 
Q 2975 3584 3395 3211 
Q 3816 2838 3816 1997 
z
" transform="scale(0.015625)"/>
      <path id="DejaVuSans-Bold-73" d="M 3272 3391 
L 3272 2541 
Q 2913 2691 2578 2766 
Q 2244 2841 1947 2841 
Q 1628 2841 1473 2761 
Q 1319 2681 1319 2516 
Q 1319 2381 1436 2309 
Q 1553 2238 1856 2203 
L 2053 2175 
Q 2913 2066 3209 1816 
Q 3506 1566 3506 1031 
Q 3506 472 3093 190 
Q 2681 -91 1863 -91 
Q 1516 -91 1145 -36 
Q 775 19 384 128 
L 384 978 
Q 719 816 1070 734 
Q 1422 653 1784 653 
Q 2113 653 2278 743 
Q 2444 834 2444 1013 
Q 2444 1163 2330 1236 
Q 2216 1309 1875 1350 
L 1678 1375 
Q 931 1469 631 1722 
Q 331 1975 331 2491 
Q 331 3047 712 3315 
Q 1094 3584 1881 3584 
Q 2191 3584 2531 3537 
Q 2872 3491 3272 3391 
z
" transform="scale(0.015625)"/>
      <path id="DejaVuSans-Bold-68" d="M 4056 2131 
L 4056 0 
L 2931 0 
L 2931 347 
L 2931 1625 
Q 2931 2084 2911 2256 
Q 2891 2428 2841 2509 
Q 2775 2619 2662 2680 
Q 2550 2741 2406 2741 
Q 2056 2741 1856 2470 
Q 1656 2200 1656 1722 
L 1656 0 
L 538 0 
L 538 4863 
L 1656 4863 
L 1656 2988 
Q 1909 3294 2193 3439 
Q 2478 3584 2822 3584 
Q 3428 3584 3742 3212 
Q 4056 2841 4056 2131 
z
" transform="scale(0.015625)"/>
      <path id="DejaVuSans-Bold-20" transform="scale(0.015625)"/>
      <path id="DejaVuSans-Bold-79" d="M 78 3500 
L 1197 3500 
L 2138 1125 
L 2938 3500 
L 4056 3500 
L 2584 -331 
Q 2363 -916 2067 -1148 
Q 1772 -1381 1288 -1381 
L 641 -1381 
L 641 -647 
L 991 -647 
Q 1275 -647 1404 -556 
Q 1534 -466 1606 -231 
L 1638 -134 
L 78 3500 
z
" transform="scale(0.015625)"/>
      <path id="DejaVuSans-Bold-65" d="M 4031 1759 
L 4031 1441 
L 1416 1441 
Q 1456 1047 1700 850 
Q 1944 653 2381 653 
Q 2734 653 3104 758 
Q 3475 863 3866 1075 
L 3866 213 
Q 3469 63 3072 -14 
Q 2675 -91 2278 -91 
Q 1328 -91 801 392 
Q 275 875 275 1747 
Q 275 2603 792 3093 
Q 1309 3584 2216 3584 
Q 3041 3584 3536 3087 
Q 4031 2591 4031 1759 
z
M 2881 2131 
Q 2881 2450 2695 2645 
Q 2509 2841 2209 2841 
Q 1884 2841 1681 2658 
Q 1478 2475 1428 2131 
L 2881 2131 
z
" transform="scale(0.015625)"/>
      <path id="DejaVuSans-Bold-72" d="M 3138 2547 
Q 2991 2616 2845 2648 
Q 2700 2681 2553 2681 
Q 2122 2681 1889 2404 
Q 1656 2128 1656 1613 
L 1656 0 
L 538 0 
L 538 3500 
L 1656 3500 
L 1656 2925 
Q 1872 3269 2151 3426 
Q 2431 3584 2822 3584 
Q 2878 3584 2943 3579 
Q 3009 3575 3134 3559 
L 3138 2547 
z
" transform="scale(0.015625)"/>
      <path id="DejaVuSans-Bold-77" d="M 225 3500 
L 1313 3500 
L 1900 1088 
L 2491 3500 
L 3425 3500 
L 4013 1113 
L 4603 3500 
L 5691 3500 
L 4769 0 
L 3547 0 
L 2956 2406 
L 2369 0 
L 1147 0 
L 225 3500 
z
" transform="scale(0.015625)"/>
      <path id="DejaVuSans-Bold-69" d="M 538 3500 
L 1656 3500 
L 1656 0 
L 538 0 
L 538 3500 
z
M 538 4863 
L 1656 4863 
L 1656 3950 
L 538 3950 
L 538 4863 
z
" transform="scale(0.015625)"/>
      <path id="DejaVuSans-Bold-45" d="M 588 4666 
L 3834 4666 
L 3834 3756 
L 1791 3756 
L 1791 2888 
L 3713 2888 
L 3713 1978 
L 1791 1978 
L 1791 909 
L 3903 909 
L 3903 0 
L 588 0 
L 588 4666 
z
" transform="scale(0.015625)"/>
      <path id="DejaVuSans-Bold-64" d="M 2919 2988 
L 2919 4863 
L 4044 4863 
L 4044 0 
L 2919 0 
L 2919 506 
Q 2688 197 2409 53 
Q 2131 -91 1766 -91 
Q 1119 -91 703 423 
Q 288 938 288 1747 
Q 288 2556 703 3070 
Q 1119 3584 1766 3584 
Q 2128 3584 2408 3439 
Q 2688 3294 2919 2988 
z
M 2181 722 
Q 2541 722 2730 984 
Q 2919 1247 2919 1747 
Q 2919 2247 2730 2509 
Q 2541 2772 2181 2772 
Q 1825 2772 1636 2509 
Q 1447 2247 1447 1747 
Q 1447 1247 1636 984 
Q 1825 722 2181 722 
z
" transform="scale(0.015625)"/>
      <path id="DejaVuSans-Bold-74" d="M 1759 4494 
L 1759 3500 
L 2913 3500 
L 2913 2700 
L 1759 2700 
L 1759 1216 
Q 1759 972 1856 886 
Q 1953 800 2241 800 
L 2816 800 
L 2816 0 
L 1856 0 
Q 1194 0 917 276 
Q 641 553 641 1216 
L 641 2700 
L 84 2700 
L 84 3500 
L 641 3500 
L 641 4494 
L 1759 4494 
z
" transform="scale(0.015625)"/>
      <path id="DejaVuSans-Bold-67" d="M 2919 594 
Q 2688 288 2409 144 
Q 2131 0 1766 0 
Q 1125 0 706 504 
Q 288 1009 288 1791 
Q 288 2575 706 3076 
Q 1125 3578 1766 3578 
Q 2131 3578 2409 3434 
Q 2688 3291 2919 2981 
L 2919 3500 
L 4044 3500 
L 4044 353 
Q 4044 -491 3511 -936 
Q 2978 -1381 1966 -1381 
Q 1638 -1381 1331 -1331 
Q 1025 -1281 716 -1178 
L 716 -306 
Q 1009 -475 1290 -558 
Q 1572 -641 1856 -641 
Q 2406 -641 2662 -400 
Q 2919 -159 2919 353 
L 2919 594 
z
M 2181 2772 
Q 1834 2772 1640 2515 
Q 1447 2259 1447 1791 
Q 1447 1309 1634 1061 
Q 1822 813 2181 813 
Q 2531 813 2725 1069 
Q 2919 1325 2919 1791 
Q 2919 2259 2725 2515 
Q 2531 2772 2181 2772 
z
" transform="scale(0.015625)"/>
      <path id="DejaVuSans-Bold-6e" d="M 4056 2131 
L 4056 0 
L 2931 0 
L 2931 347 
L 2931 1631 
Q 2931 2084 2911 2256 
Q 2891 2428 2841 2509 
Q 2775 2619 2662 2680 
Q 2550 2741 2406 2741 
Q 2056 2741 1856 2470 
Q 1656 2200 1656 1722 
L 1656 0 
L 538 0 
L 538 3500 
L 1656 3500 
L 1656 2988 
Q 1909 3294 2193 3439 
Q 2478 3584 2822 3584 
Q 3428 3584 3742 3212 
Q 4056 2841 4056 2131 
z
" transform="scale(0.015625)"/>
      <path id="DejaVuSans-Bold-75" d="M 500 1363 
L 500 3500 
L 1625 3500 
L 1625 3150 
Q 1625 2866 1622 2436 
Q 1619 2006 1619 1863 
Q 1619 1441 1641 1255 
Q 1663 1069 1716 984 
Q 1784 875 1895 815 
Q 2006 756 2150 756 
Q 2500 756 2700 1025 
Q 2900 1294 2900 1772 
L 2900 3500 
L 4019 3500 
L 4019 0 
L 2900 0 
L 2900 506 
Q 2647 200 2364 54 
Q 2081 -91 1741 -91 
Q 1134 -91 817 281 
Q 500 653 500 1363 
z
" transform="scale(0.015625)"/>
     </defs>
     <use xlink:href="#DejaVuSans-Bold-47"/>
     <use xlink:href="#DejaVuSans-Bold-4c" transform="translate(82.080078 0)"/>
     <use xlink:href="#DejaVuSans-Bold-4d" transform="translate(145.800781 0)"/>
     <use xlink:href="#DejaVuSans-Bold-2d" transform="translate(245.3125 0)"/>
     <use xlink:href="#DejaVuSans-Bold-34" transform="translate(286.816406 0)"/>
     <use xlink:href="#DejaVuSans-Bold-2e" transform="translate(356.396484 0)"/>
     <use xlink:href="#DejaVuSans-Bold-37" transform="translate(394.384766 0)"/>
     <use xlink:href="#DejaVuSans-Bold-2d" transform="translate(463.964844 0)"/>
     <use xlink:href="#DejaVuSans-Bold-46" transform="translate(505.46875 0)"/>
     <use xlink:href="#DejaVuSans-Bold-6c" transform="translate(573.779297 0)"/>
     <use xlink:href="#DejaVuSans-Bold-61" transform="translate(608.056641 0)"/>
     <use xlink:href="#DejaVuSans-Bold-73" transform="translate(675.537109 0)"/>
     <use xlink:href="#DejaVuSans-Bold-68" transform="translate(735.058594 0)"/>
     <use xlink:href="#DejaVuSans-Bold-20" transform="translate(806.25 0)"/>
     <use xlink:href="#DejaVuSans-Bold-4c" transform="translate(841.064453 0)"/>
     <use xlink:href="#DejaVuSans-Bold-61" transform="translate(904.785156 0)"/>
     <use xlink:href="#DejaVuSans-Bold-79" transform="translate(969.140625 0)"/>
     <use xlink:href="#DejaVuSans-Bold-65" transform="translate(1034.326172 0)"/>
     <use xlink:href="#DejaVuSans-Bold-72" transform="translate(1102.148438 0)"/>
     <use xlink:href="#DejaVuSans-Bold-2d" transform="translate(1151.464844 0)"/>
     <use xlink:href="#DejaVuSans-Bold-77" transform="translate(1192.96875 0)"/>
     <use xlink:href="#DejaVuSans-Bold-69" transform="translate(1285.351562 0)"/>
     <use xlink:href="#DejaVuSans-Bold-73" transform="translate(1319.628906 0)"/>
     <use xlink:href="#DejaVuSans-Bold-65" transform="translate(1379.150391 0)"/>
     <use xlink:href="#DejaVuSans-Bold-20" transform="translate(1446.972656 0)"/>
     <use xlink:href="#DejaVuSans-Bold-45" transform="translate(1481.787109 0)"/>
     <use xlink:href="#DejaVuSans-Bold-64" transform="translate(1550.097656 0)"/>
     <use xlink:href="#DejaVuSans-Bold-69" transform="translate(1621.679688 0)"/>
     <use xlink:href="#DejaVuSans-Bold-74" transform="translate(1655.957031 0)"/>
     <use xlink:href="#DejaVuSans-Bold-20" transform="translate(1703.759766 0)"/>
     <use xlink:href="#DejaVuSans-Bold-4d" transform="translate(1738.574219 0)"/>
     <use xlink:href="#DejaVuSans-Bold-61" transform="translate(1838.085938 0)"/>
     <use xlink:href="#DejaVuSans-Bold-67" transform="translate(1905.566406 0)"/>
     <use xlink:href="#DejaVuSans-Bold-6e" transform="translate(1977.148438 0)"/>
     <use xlink:href="#DejaVuSans-Bold-69" transform="translate(2048.339844 0)"/>
     <use xlink:href="#DejaVuSans-Bold-74" transform="translate(2082.617188 0)"/>
     <use xlink:href="#DejaVuSans-Bold-75" transform="translate(2130.419922 0)"/>
     <use xlink:href="#DejaVuSans-Bold-64" transform="translate(2201.611328 0)"/>
     <use xlink:href="#DejaVuSans-Bold-65" transform="translate(2273.193359 0)"/>
    </g>
   </g>
   <g id="legend_1">
    <g id="patch_7">
     <path d="M 58.556531 90.550313 
L 142.676844 90.550313 
Q 144.676844 90.550313 144.676844 88.550313 
L 144.676844 30.837812 
Q 144.676844 28.837812 142.676844 28.837812 
L 58.556531 28.837812 
Q 56.556531 28.837812 56.556531 30.837812 
L 56.556531 88.550313 
Q 56.556531 90.550313 58.556531 90.550313 
z
" style="fill: #ffffff; opacity: 0.8; stroke: #cccccc; stroke-linejoin: miter"/>
    </g>
    <g id="line2d_35">
     <path d="M 60.556531 36.93625 
L 70.556531 36.93625 
L 80.556531 36.93625 
" style="fill: none; stroke: #3498db; stroke-opacity: 0.8; stroke-width: 1.5; stroke-linecap: round"/>
    </g>
    <g id="text_9">
     <!-- Heretic -->
     <g style="fill: #262626" transform="translate(88.556531 40.43625) scale(0.1 -0.1)">
      <defs>
       <path id="DejaVuSans-48" d="M 628 4666 
L 1259 4666 
L 1259 2753 
L 3553 2753 
L 3553 4666 
L 4184 4666 
L 4184 0 
L 3553 0 
L 3553 2222 
L 1259 2222 
L 1259 0 
L 628 0 
L 628 4666 
z
" transform="scale(0.015625)"/>
       <path id="DejaVuSans-63" d="M 3122 3366 
L 3122 2828 
Q 2878 2963 2633 3030 
Q 2388 3097 2138 3097 
Q 1578 3097 1268 2742 
Q 959 2388 959 1747 
Q 959 1106 1268 751 
Q 1578 397 2138 397 
Q 2388 397 2633 464 
Q 2878 531 3122 666 
L 3122 134 
Q 2881 22 2623 -34 
Q 2366 -91 2075 -91 
Q 1284 -91 818 406 
Q 353 903 353 1747 
Q 353 2603 823 3093 
Q 1294 3584 2113 3584 
Q 2378 3584 2631 3529 
Q 2884 3475 3122 3366 
z
" transform="scale(0.015625)"/>
      </defs>
      <use xlink:href="#DejaVuSans-48"/>
      <use xlink:href="#DejaVuSans-65" transform="translate(75.195312 0)"/>
      <use xlink:href="#DejaVuSans-72" transform="translate(136.71875 0)"/>
      <use xlink:href="#DejaVuSans-65" transform="translate(175.582031 0)"/>
      <use xlink:href="#DejaVuSans-74" transform="translate(237.105469 0)"/>
      <use xlink:href="#DejaVuSans-69" transform="translate(276.314453 0)"/>
      <use xlink:href="#DejaVuSans-63" transform="translate(304.097656 0)"/>
     </g>
    </g>
    <g id="line2d_36">
     <path d="M 60.556531 51.614375 
L 70.556531 51.614375 
L 80.556531 51.614375 
" style="fill: none; stroke: #e74c3c; stroke-opacity: 0.8; stroke-width: 1.5; stroke-linecap: round"/>
    </g>
    <g id="text_10">
     <!-- HauhauCS -->
     <g style="fill: #262626" transform="translate(88.556531 55.114375) scale(0.1 -0.1)">
      <defs>
       <path id="DejaVuSans-75" d="M 544 1381 
L 544 3500 
L 1119 3500 
L 1119 1403 
Q 1119 906 1312 657 
Q 1506 409 1894 409 
Q 2359 409 2629 706 
Q 2900 1003 2900 1516 
L 2900 3500 
L 3475 3500 
L 3475 0 
L 2900 0 
L 2900 538 
Q 2691 219 2414 64 
Q 2138 -91 1772 -91 
Q 1169 -91 856 284 
Q 544 659 544 1381 
z
M 1991 3584 
L 1991 3584 
z
" transform="scale(0.015625)"/>
       <path id="DejaVuSans-68" d="M 3513 2113 
L 3513 0 
L 2938 0 
L 2938 2094 
Q 2938 2591 2744 2837 
Q 2550 3084 2163 3084 
Q 1697 3084 1428 2787 
Q 1159 2491 1159 1978 
L 1159 0 
L 581 0 
L 581 4863 
L 1159 4863 
L 1159 2956 
Q 1366 3272 1645 3428 
Q 1925 3584 2291 3584 
Q 2894 3584 3203 3211 
Q 3513 2838 3513 2113 
z
" transform="scale(0.015625)"/>
       <path id="DejaVuSans-43" d="M 4122 4306 
L 4122 3641 
Q 3803 3938 3442 4084 
Q 3081 4231 2675 4231 
Q 1875 4231 1450 3742 
Q 1025 3253 1025 2328 
Q 1025 1406 1450 917 
Q 1875 428 2675 428 
Q 3081 428 3442 575 
Q 3803 722 4122 1019 
L 4122 359 
Q 3791 134 3420 21 
Q 3050 -91 2638 -91 
Q 1578 -91 968 557 
Q 359 1206 359 2328 
Q 359 3453 968 4101 
Q 1578 4750 2638 4750 
Q 3056 4750 3426 4639 
Q 3797 4528 4122 4306 
z
" transform="scale(0.015625)"/>
       <path id="DejaVuSans-53" d="M 3425 4513 
L 3425 3897 
Q 3066 4069 2747 4153 
Q 2428 4238 2131 4238 
Q 1616 4238 1336 4038 
Q 1056 3838 1056 3469 
Q 1056 3159 1242 3001 
Q 1428 2844 1947 2747 
L 2328 2669 
Q 3034 2534 3370 2195 
Q 3706 1856 3706 1288 
Q 3706 609 3251 259 
Q 2797 -91 1919 -91 
Q 1588 -91 1214 -16 
Q 841 59 441 206 
L 441 856 
Q 825 641 1194 531 
Q 1563 422 1919 422 
Q 2459 422 2753 634 
Q 3047 847 3047 1241 
Q 3047 1584 2836 1778 
Q 2625 1972 2144 2069 
L 1759 2144 
Q 1053 2284 737 2584 
Q 422 2884 422 3419 
Q 422 4038 858 4394 
Q 1294 4750 2059 4750 
Q 2388 4750 2728 4690 
Q 3069 4631 3425 4513 
z
" transform="scale(0.015625)"/>
      </defs>
      <use xlink:href="#DejaVuSans-48"/>
      <use xlink:href="#DejaVuSans-61" transform="translate(75.195312 0)"/>
      <use xlink:href="#DejaVuSans-75" transform="translate(136.474609 0)"/>
      <use xlink:href="#DejaVuSans-68" transform="translate(199.853516 0)"/>
      <use xlink:href="#DejaVuSans-61" transform="translate(263.232422 0)"/>
      <use xlink:href="#DejaVuSans-75" transform="translate(324.511719 0)"/>
      <use xlink:href="#DejaVuSans-43" transform="translate(387.890625 0)"/>
      <use xlink:href="#DejaVuSans-53" transform="translate(457.714844 0)"/>
     </g>
    </g>
    <g id="line2d_37">
     <path d="M 60.556531 66.2925 
L 70.556531 66.2925 
L 80.556531 66.2925 
" style="fill: none; stroke: #2ecc71; stroke-opacity: 0.8; stroke-width: 1.5; stroke-linecap: round"/>
    </g>
    <g id="text_11">
     <!-- Huihui -->
     <g style="fill: #262626" transform="translate(88.556531 69.7925) scale(0.1 -0.1)">
      <use xlink:href="#DejaVuSans-48"/>
      <use xlink:href="#DejaVuSans-75" transform="translate(75.195312 0)"/>
      <use xlink:href="#DejaVuSans-69" transform="translate(138.574219 0)"/>
      <use xlink:href="#DejaVuSans-68" transform="translate(166.357422 0)"/>
      <use xlink:href="#DejaVuSans-75" transform="translate(229.736328 0)"/>
      <use xlink:href="#DejaVuSans-69" transform="translate(293.115234 0)"/>
     </g>
    </g>
    <g id="line2d_38">
     <path d="M 60.556531 80.970625 
L 70.556531 80.970625 
L 80.556531 80.970625 
" style="fill: none; stroke: #9b59b6; stroke-opacity: 0.8; stroke-width: 1.5; stroke-linecap: round"/>
    </g>
    <g id="text_12">
     <!-- Abliterix -->
     <g style="fill: #262626" transform="translate(88.556531 84.470625) scale(0.1 -0.1)">
      <defs>
       <path id="DejaVuSans-41" d="M 2188 4044 
L 1331 1722 
L 3047 1722 
L 2188 4044 
z
M 1831 4666 
L 2547 4666 
L 4325 0 
L 3669 0 
L 3244 1197 
L 1141 1197 
L 716 0 
L 50 0 
L 1831 4666 
z
" transform="scale(0.015625)"/>
       <path id="DejaVuSans-62" d="M 3116 1747 
Q 3116 2381 2855 2742 
Q 2594 3103 2138 3103 
Q 1681 3103 1420 2742 
Q 1159 2381 1159 1747 
Q 1159 1113 1420 752 
Q 1681 391 2138 391 
Q 2594 391 2855 752 
Q 3116 1113 3116 1747 
z
M 1159 2969 
Q 1341 3281 1617 3432 
Q 1894 3584 2278 3584 
Q 2916 3584 3314 3078 
Q 3713 2572 3713 1747 
Q 3713 922 3314 415 
Q 2916 -91 2278 -91 
Q 1894 -91 1617 61 
Q 1341 213 1159 525 
L 1159 0 
L 581 0 
L 581 4863 
L 1159 4863 
L 1159 2969 
z
" transform="scale(0.015625)"/>
       <path id="DejaVuSans-6c" d="M 603 4863 
L 1178 4863 
L 1178 0 
L 603 0 
L 603 4863 
z
" transform="scale(0.015625)"/>
       <path id="DejaVuSans-78" d="M 3513 3500 
L 2247 1797 
L 3578 0 
L 2900 0 
L 1881 1375 
L 863 0 
L 184 0 
L 1544 1831 
L 300 3500 
L 978 3500 
L 1906 2253 
L 2834 3500 
L 3513 3500 
z
" transform="scale(0.015625)"/>
      </defs>
      <use xlink:href="#DejaVuSans-41"/>
      <use xlink:href="#DejaVuSans-62" transform="translate(68.408203 0)"/>
      <use xlink:href="#DejaVuSans-6c" transform="translate(131.884766 0)"/>
      <use xlink:href="#DejaVuSans-69" transform="translate(159.667969 0)"/>
      <use xlink:href="#DejaVuSans-74" transform="translate(187.451172 0)"/>
      <use xlink:href="#DejaVuSans-65" transform="translate(226.660156 0)"/>
      <use xlink:href="#DejaVuSans-72" transform="translate(288.183594 0)"/>
      <use xlink:href="#DejaVuSans-69" transform="translate(329.296875 0)"/>
      <use xlink:href="#DejaVuSans-78" transform="translate(357.080078 0)"/>
     </g>
    </g>
   </g>
  </g>
  <g id="axes_2">
   <g id="patch_8">
    <path d="M 51.556531 803.105812 
L 1129.504531 803.105812 
L 1129.504531 428.999813 
L 51.556531 428.999813 
z
" style="fill: #ffffff"/>
   </g>
   <g id="matplotlib.axis_3">
    <g id="xtick_25">
     <g id="line2d_39">
      <path d="M 100.554168 803.105812 
L 100.554168 428.999813 
" clip-path="url(#p029804a2f1)" style="fill: none; stroke: #cccccc; stroke-linecap: round"/>
     </g>
     <g id="text_13">
      <!-- 0 -->
      <g style="fill: #262626" transform="translate(96.704855 821.799922) scale(0.121 -0.121)">
       <use xlink:href="#DejaVuSans-30"/>
      </g>
     </g>
    </g>
    <g id="xtick_26">
     <g id="line2d_40">
      <path d="M 142.254284 803.105812 
L 142.254284 428.999813 
" clip-path="url(#p029804a2f1)" style="fill: none; stroke: #cccccc; stroke-linecap: round"/>
     </g>
     <g id="text_14">
      <!-- 2 -->
      <g style="fill: #262626" transform="translate(138.404971 821.799922) scale(0.121 -0.121)">
       <use xlink:href="#DejaVuSans-32"/>
      </g>
     </g>
    </g>
    <g id="xtick_27">
     <g id="line2d_41">
      <path d="M 183.9544 803.105812 
L 183.9544 428.999813 
" clip-path="url(#p029804a2f1)" style="fill: none; stroke: #cccccc; stroke-linecap: round"/>
     </g>
     <g id="text_15">
      <!-- 4 -->
      <g style="fill: #262626" transform="translate(180.105087 821.799922) scale(0.121 -0.121)">
       <use xlink:href="#DejaVuSans-34"/>
      </g>
     </g>
    </g>
    <g id="xtick_28">
     <g id="line2d_42">
      <path d="M 225.654516 803.105812 
L 225.654516 428.999813 
" clip-path="url(#p029804a2f1)" style="fill: none; stroke: #cccccc; stroke-linecap: round"/>
     </g>
     <g id="text_16">
      <!-- 6 -->
      <g style="fill: #262626" transform="translate(221.805203 821.799922) scale(0.121 -0.121)">
       <defs>
        <path id="DejaVuSans-36" d="M 2113 2584 
Q 1688 2584 1439 2293 
Q 1191 2003 1191 1497 
Q 1191 994 1439 701 
Q 1688 409 2113 409 
Q 2538 409 2786 701 
Q 3034 994 3034 1497 
Q 3034 2003 2786 2293 
Q 2538 2584 2113 2584 
z
M 3366 4563 
L 3366 3988 
Q 3128 4100 2886 4159 
Q 2644 4219 2406 4219 
Q 1781 4219 1451 3797 
Q 1122 3375 1075 2522 
Q 1259 2794 1537 2939 
Q 1816 3084 2150 3084 
Q 2853 3084 3261 2657 
Q 3669 2231 3669 1497 
Q 3669 778 3244 343 
Q 2819 -91 2113 -91 
Q 1303 -91 875 529 
Q 447 1150 447 2328 
Q 447 3434 972 4092 
Q 1497 4750 2381 4750 
Q 2619 4750 2861 4703 
Q 3103 4656 3366 4563 
z
" transform="scale(0.015625)"/>
       </defs>
       <use xlink:href="#DejaVuSans-36"/>
      </g>
     </g>
    </g>
    <g id="xtick_29">
     <g id="line2d_43">
      <path d="M 267.354632 803.105812 
L 267.354632 428.999813 
" clip-path="url(#p029804a2f1)" style="fill: none; stroke: #cccccc; stroke-linecap: round"/>
     </g>
     <g id="text_17">
      <!-- 8 -->
      <g style="fill: #262626" transform="translate(263.505319 821.799922) scale(0.121 -0.121)">
       <defs>
        <path id="DejaVuSans-38" d="M 2034 2216 
Q 1584 2216 1326 1975 
Q 1069 1734 1069 1313 
Q 1069 891 1326 650 
Q 1584 409 2034 409 
Q 2484 409 2743 651 
Q 3003 894 3003 1313 
Q 3003 1734 2745 1975 
Q 2488 2216 2034 2216 
z
M 1403 2484 
Q 997 2584 770 2862 
Q 544 3141 544 3541 
Q 544 4100 942 4425 
Q 1341 4750 2034 4750 
Q 2731 4750 3128 4425 
Q 3525 4100 3525 3541 
Q 3525 3141 3298 2862 
Q 3072 2584 2669 2484 
Q 3125 2378 3379 2068 
Q 3634 1759 3634 1313 
Q 3634 634 3220 271 
Q 2806 -91 2034 -91 
Q 1263 -91 848 271 
Q 434 634 434 1313 
Q 434 1759 690 2068 
Q 947 2378 1403 2484 
z
M 1172 3481 
Q 1172 3119 1398 2916 
Q 1625 2713 2034 2713 
Q 2441 2713 2670 2916 
Q 2900 3119 2900 3481 
Q 2900 3844 2670 4047 
Q 2441 4250 2034 4250 
Q 1625 4250 1398 4047 
Q 1172 3844 1172 3481 
z
" transform="scale(0.015625)"/>
       </defs>
       <use xlink:href="#DejaVuSans-38"/>
      </g>
     </g>
    </g>
    <g id="xtick_30">
     <g id="line2d_44">
      <path d="M 309.054748 803.105812 
L 309.054748 428.999813 
" clip-path="url(#p029804a2f1)" style="fill: none; stroke: #cccccc; stroke-linecap: round"/>
     </g>
     <g id="text_18">
      <!-- 10 -->
      <g style="fill: #262626" transform="translate(301.356123 821.799922) scale(0.121 -0.121)">
       <use xlink:href="#DejaVuSans-31"/>
       <use xlink:href="#DejaVuSans-30" transform="translate(63.623047 0)"/>
      </g>
     </g>
    </g>
    <g id="xtick_31">
     <g id="line2d_45">
      <path d="M 350.754864 803.105812 
L 350.754864 428.999813 
" clip-path="url(#p029804a2f1)" style="fill: none; stroke: #cccccc; stroke-linecap: round"/>
     </g>
     <g id="text_19">
      <!-- 12 -->
      <g style="fill: #262626" transform="translate(343.056239 821.799922) scale(0.121 -0.121)">
       <use xlink:href="#DejaVuSans-31"/>
       <use xlink:href="#DejaVuSans-32" transform="translate(63.623047 0)"/>
      </g>
     </g>
    </g>
    <g id="xtick_32">
     <g id="line2d_46">
      <path d="M 392.45498 803.105812 
L 392.45498 428.999813 
" clip-path="url(#p029804a2f1)" style="fill: none; stroke: #cccccc; stroke-linecap: round"/>
     </g>
     <g id="text_20">
      <!-- 14 -->
      <g style="fill: #262626" transform="translate(384.756355 821.799922) scale(0.121 -0.121)">
       <use xlink:href="#DejaVuSans-31"/>
       <use xlink:href="#DejaVuSans-34" transform="translate(63.623047 0)"/>
      </g>
     </g>
    </g>
    <g id="xtick_33">
     <g id="line2d_47">
      <path d="M 434.155096 803.105812 
L 434.155096 428.999813 
" clip-path="url(#p029804a2f1)" style="fill: none; stroke: #cccccc; stroke-linecap: round"/>
     </g>
     <g id="text_21">
      <!-- 16 -->
      <g style="fill: #262626" transform="translate(426.456471 821.799922) scale(0.121 -0.121)">
       <use xlink:href="#DejaVuSans-31"/>
       <use xlink:href="#DejaVuSans-36" transform="translate(63.623047 0)"/>
      </g>
     </g>
    </g>
    <g id="xtick_34">
     <g id="line2d_48">
      <path d="M 475.855212 803.105812 
L 475.855212 428.999813 
" clip-path="url(#p029804a2f1)" style="fill: none; stroke: #cccccc; stroke-linecap: round"/>
     </g>
     <g id="text_22">
      <!-- 18 -->
      <g style="fill: #262626" transform="translate(468.156587 821.799922) scale(0.121 -0.121)">
       <use xlink:href="#DejaVuSans-31"/>
       <use xlink:href="#DejaVuSans-38" transform="translate(63.623047 0)"/>
      </g>
     </g>
    </g>
    <g id="xtick_35">
     <g id="line2d_49">
      <path d="M 517.555328 803.105812 
L 517.555328 428.999813 
" clip-path="url(#p029804a2f1)" style="fill: none; stroke: #cccccc; stroke-linecap: round"/>
     </g>
     <g id="text_23">
      <!-- 20 -->
      <g style="fill: #262626" transform="translate(509.856703 821.799922) scale(0.121 -0.121)">
       <use xlink:href="#DejaVuSans-32"/>
       <use xlink:href="#DejaVuSans-30" transform="translate(63.623047 0)"/>
      </g>
     </g>
    </g>
    <g id="xtick_36">
     <g id="line2d_50">
      <path d="M 559.255444 803.105812 
L 559.255444 428.999813 
" clip-path="url(#p029804a2f1)" style="fill: none; stroke: #cccccc; stroke-linecap: round"/>
     </g>
     <g id="text_24">
      <!-- 22 -->
      <g style="fill: #262626" transform="translate(551.556819 821.799922) scale(0.121 -0.121)">
       <use xlink:href="#DejaVuSans-32"/>
       <use xlink:href="#DejaVuSans-32" transform="translate(63.623047 0)"/>
      </g>
     </g>
    </g>
    <g id="xtick_37">
     <g id="line2d_51">
      <path d="M 600.95556 803.105812 
L 600.95556 428.999813 
" clip-path="url(#p029804a2f1)" style="fill: none; stroke: #cccccc; stroke-linecap: round"/>
     </g>
     <g id="text_25">
      <!-- 24 -->
      <g style="fill: #262626" transform="translate(593.256935 821.799922) scale(0.121 -0.121)">
       <use xlink:href="#DejaVuSans-32"/>
       <use xlink:href="#DejaVuSans-34" transform="translate(63.623047 0)"/>
      </g>
     </g>
    </g>
    <g id="xtick_38">
     <g id="line2d_52">
      <path d="M 642.655676 803.105812 
L 642.655676 428.999813 
" clip-path="url(#p029804a2f1)" style="fill: none; stroke: #cccccc; stroke-linecap: round"/>
     </g>
     <g id="text_26">
      <!-- 26 -->
      <g style="fill: #262626" transform="translate(634.957051 821.799922) scale(0.121 -0.121)">
       <use xlink:href="#DejaVuSans-32"/>
       <use xlink:href="#DejaVuSans-36" transform="translate(63.623047 0)"/>
      </g>
     </g>
    </g>
    <g id="xtick_39">
     <g id="line2d_53">
      <path d="M 684.355792 803.105812 
L 684.355792 428.999813 
" clip-path="url(#p029804a2f1)" style="fill: none; stroke: #cccccc; stroke-linecap: round"/>
     </g>
     <g id="text_27">
      <!-- 28 -->
      <g style="fill: #262626" transform="translate(676.657167 821.799922) scale(0.121 -0.121)">
       <use xlink:href="#DejaVuSans-32"/>
       <use xlink:href="#DejaVuSans-38" transform="translate(63.623047 0)"/>
      </g>
     </g>
    </g>
    <g id="xtick_40">
     <g id="line2d_54">
      <path d="M 726.055908 803.105812 
L 726.055908 428.999813 
" clip-path="url(#p029804a2f1)" style="fill: none; stroke: #cccccc; stroke-linecap: round"/>
     </g>
     <g id="text_28">
      <!-- 30 -->
      <g style="fill: #262626" transform="translate(718.357283 821.799922) scale(0.121 -0.121)">
       <use xlink:href="#DejaVuSans-33"/>
       <use xlink:href="#DejaVuSans-30" transform="translate(63.623047 0)"/>
      </g>
     </g>
    </g>
    <g id="xtick_41">
     <g id="line2d_55">
      <path d="M 767.756024 803.105812 
L 767.756024 428.999813 
" clip-path="url(#p029804a2f1)" style="fill: none; stroke: #cccccc; stroke-linecap: round"/>
     </g>
     <g id="text_29">
      <!-- 32 -->
      <g style="fill: #262626" transform="translate(760.057399 821.799922) scale(0.121 -0.121)">
       <use xlink:href="#DejaVuSans-33"/>
       <use xlink:href="#DejaVuSans-32" transform="translate(63.623047 0)"/>
      </g>
     </g>
    </g>
    <g id="xtick_42">
     <g id="line2d_56">
      <path d="M 809.456141 803.105812 
L 809.456141 428.999813 
" clip-path="url(#p029804a2f1)" style="fill: none; stroke: #cccccc; stroke-linecap: round"/>
     </g>
     <g id="text_30">
      <!-- 34 -->
      <g style="fill: #262626" transform="translate(801.757516 821.799922) scale(0.121 -0.121)">
       <use xlink:href="#DejaVuSans-33"/>
       <use xlink:href="#DejaVuSans-34" transform="translate(63.623047 0)"/>
      </g>
     </g>
    </g>
    <g id="xtick_43">
     <g id="line2d_57">
      <path d="M 851.156257 803.105812 
L 851.156257 428.999813 
" clip-path="url(#p029804a2f1)" style="fill: none; stroke: #cccccc; stroke-linecap: round"/>
     </g>
     <g id="text_31">
      <!-- 36 -->
      <g style="fill: #262626" transform="translate(843.457632 821.799922) scale(0.121 -0.121)">
       <use xlink:href="#DejaVuSans-33"/>
       <use xlink:href="#DejaVuSans-36" transform="translate(63.623047 0)"/>
      </g>
     </g>
    </g>
    <g id="xtick_44">
     <g id="line2d_58">
      <path d="M 892.856373 803.105812 
L 892.856373 428.999813 
" clip-path="url(#p029804a2f1)" style="fill: none; stroke: #cccccc; stroke-linecap: round"/>
     </g>
     <g id="text_32">
      <!-- 38 -->
      <g style="fill: #262626" transform="translate(885.157748 821.799922) scale(0.121 -0.121)">
       <use xlink:href="#DejaVuSans-33"/>
       <use xlink:href="#DejaVuSans-38" transform="translate(63.623047 0)"/>
      </g>
     </g>
    </g>
    <g id="xtick_45">
     <g id="line2d_59">
      <path d="M 934.556489 803.105812 
L 934.556489 428.999813 
" clip-path="url(#p029804a2f1)" style="fill: none; stroke: #cccccc; stroke-linecap: round"/>
     </g>
     <g id="text_33">
      <!-- 40 -->
      <g style="fill: #262626" transform="translate(926.857864 821.799922) scale(0.121 -0.121)">
       <use xlink:href="#DejaVuSans-34"/>
       <use xlink:href="#DejaVuSans-30" transform="translate(63.623047 0)"/>
      </g>
     </g>
    </g>
    <g id="xtick_46">
     <g id="line2d_60">
      <path d="M 976.256605 803.105812 
L 976.256605 428.999813 
" clip-path="url(#p029804a2f1)" style="fill: none; stroke: #cccccc; stroke-linecap: round"/>
     </g>
     <g id="text_34">
      <!-- 42 -->
      <g style="fill: #262626" transform="translate(968.55798 821.799922) scale(0.121 -0.121)">
       <use xlink:href="#DejaVuSans-34"/>
       <use xlink:href="#DejaVuSans-32" transform="translate(63.623047 0)"/>
      </g>
     </g>
    </g>
    <g id="xtick_47">
     <g id="line2d_61">
      <path d="M 1017.956721 803.105812 
L 1017.956721 428.999813 
" clip-path="url(#p029804a2f1)" style="fill: none; stroke: #cccccc; stroke-linecap: round"/>
     </g>
     <g id="text_35">
      <!-- 44 -->
      <g style="fill: #262626" transform="translate(1010.258096 821.799922) scale(0.121 -0.121)">
       <use xlink:href="#DejaVuSans-34"/>
       <use xlink:href="#DejaVuSans-34" transform="translate(63.623047 0)"/>
      </g>
     </g>
    </g>
    <g id="xtick_48">
     <g id="line2d_62">
      <path d="M 1059.656837 803.105812 
L 1059.656837 428.999813 
" clip-path="url(#p029804a2f1)" style="fill: none; stroke: #cccccc; stroke-linecap: round"/>
     </g>
     <g id="text_36">
      <!-- 46 -->
      <g style="fill: #262626" transform="translate(1051.958212 821.799922) scale(0.121 -0.121)">
       <use xlink:href="#DejaVuSans-34"/>
       <use xlink:href="#DejaVuSans-36" transform="translate(63.623047 0)"/>
      </g>
     </g>
    </g>
    <g id="text_37">
     <!-- Layer -->
     <g style="fill: #262626" transform="translate(573.800844 837.434469) scale(0.12 -0.12)">
      <defs>
       <path id="DejaVuSans-4c" d="M 628 4666 
L 1259 4666 
L 1259 531 
L 3531 531 
L 3531 0 
L 628 0 
L 628 4666 
z
" transform="scale(0.015625)"/>
       <path id="DejaVuSans-79" d="M 2059 -325 
Q 1816 -950 1584 -1140 
Q 1353 -1331 966 -1331 
L 506 -1331 
L 506 -850 
L 844 -850 
Q 1081 -850 1212 -737 
Q 1344 -625 1503 -206 
L 1606 56 
L 191 3500 
L 800 3500 
L 1894 763 
L 2988 3500 
L 3597 3500 
L 2059 -325 
z
" transform="scale(0.015625)"/>
      </defs>
      <use xlink:href="#DejaVuSans-4c"/>
      <use xlink:href="#DejaVuSans-61" transform="translate(55.712891 0)"/>
      <use xlink:href="#DejaVuSans-79" transform="translate(116.992188 0)"/>
      <use xlink:href="#DejaVuSans-65" transform="translate(176.171875 0)"/>
      <use xlink:href="#DejaVuSans-72" transform="translate(237.695312 0)"/>
     </g>
    </g>
   </g>
   <g id="matplotlib.axis_4">
    <g id="ytick_7">
     <g id="line2d_63">
      <path d="M 51.556531 786.100994 
L 1129.504531 786.100994 
" clip-path="url(#p029804a2f1)" style="fill: none; stroke: #cccccc; stroke-linecap: round"/>
     </g>
     <g id="text_38">
      <!-- 0.0 -->
      <g style="fill: #262626" transform="translate(22.81375 790.698049) scale(0.121 -0.121)">
       <use xlink:href="#DejaVuSans-30"/>
       <use xlink:href="#DejaVuSans-2e" transform="translate(63.623047 0)"/>
       <use xlink:href="#DejaVuSans-30" transform="translate(95.410156 0)"/>
      </g>
     </g>
    </g>
    <g id="ytick_8">
     <g id="line2d_64">
      <path d="M 51.556531 718.549767 
L 1129.504531 718.549767 
" clip-path="url(#p029804a2f1)" style="fill: none; stroke: #cccccc; stroke-linecap: round"/>
     </g>
     <g id="text_39">
      <!-- 0.2 -->
      <g style="fill: #262626" transform="translate(22.81375 723.146822) scale(0.121 -0.121)">
       <use xlink:href="#DejaVuSans-30"/>
       <use xlink:href="#DejaVuSans-2e" transform="translate(63.623047 0)"/>
       <use xlink:href="#DejaVuSans-32" transform="translate(95.410156 0)"/>
      </g>
     </g>
    </g>
    <g id="ytick_9">
     <g id="line2d_65">
      <path d="M 51.556531 650.99854 
L 1129.504531 650.99854 
" clip-path="url(#p029804a2f1)" style="fill: none; stroke: #cccccc; stroke-linecap: round"/>
     </g>
     <g id="text_40">
      <!-- 0.4 -->
      <g style="fill: #262626" transform="translate(22.81375 655.595595) scale(0.121 -0.121)">
       <use xlink:href="#DejaVuSans-30"/>
       <use xlink:href="#DejaVuSans-2e" transform="translate(63.623047 0)"/>
       <use xlink:href="#DejaVuSans-34" transform="translate(95.410156 0)"/>
      </g>
     </g>
    </g>
    <g id="ytick_10">
     <g id="line2d_66">
      <path d="M 51.556531 583.447313 
L 1129.504531 583.447313 
" clip-path="url(#p029804a2f1)" style="fill: none; stroke: #cccccc; stroke-linecap: round"/>
     </g>
     <g id="text_41">
      <!-- 0.6 -->
      <g style="fill: #262626" transform="translate(22.81375 588.044368) scale(0.121 -0.121)">
       <use xlink:href="#DejaVuSans-30"/>
       <use xlink:href="#DejaVuSans-2e" transform="translate(63.623047 0)"/>
       <use xlink:href="#DejaVuSans-36" transform="translate(95.410156 0)"/>
      </g>
     </g>
    </g>
    <g id="ytick_11">
     <g id="line2d_67">
      <path d="M 51.556531 515.896086 
L 1129.504531 515.896086 
" clip-path="url(#p029804a2f1)" style="fill: none; stroke: #cccccc; stroke-linecap: round"/>
     </g>
     <g id="text_42">
      <!-- 0.8 -->
      <g style="fill: #262626" transform="translate(22.81375 520.493141) scale(0.121 -0.121)">
       <use xlink:href="#DejaVuSans-30"/>
       <use xlink:href="#DejaVuSans-2e" transform="translate(63.623047 0)"/>
       <use xlink:href="#DejaVuSans-38" transform="translate(95.410156 0)"/>
      </g>
     </g>
    </g>
    <g id="ytick_12">
     <g id="line2d_68">
      <path d="M 51.556531 448.344859 
L 1129.504531 448.344859 
" clip-path="url(#p029804a2f1)" style="fill: none; stroke: #cccccc; stroke-linecap: round"/>
     </g>
     <g id="text_43">
      <!-- 1.0 -->
      <g style="fill: #262626" transform="translate(22.81375 452.941914) scale(0.121 -0.121)">
       <use xlink:href="#DejaVuSans-31"/>
       <use xlink:href="#DejaVuSans-2e" transform="translate(63.623047 0)"/>
       <use xlink:href="#DejaVuSans-30" transform="translate(95.410156 0)"/>
      </g>
     </g>
    </g>
    <g id="text_44">
     <!-- Mean Relative Edit (%) -->
     <g style="fill: #262626" transform="translate(16.318125 684.320625) rotate(-90) scale(0.12 -0.12)">
      <defs>
       <path id="DejaVuSans-52" d="M 2841 2188 
Q 3044 2119 3236 1894 
Q 3428 1669 3622 1275 
L 4263 0 
L 3584 0 
L 2988 1197 
Q 2756 1666 2539 1819 
Q 2322 1972 1947 1972 
L 1259 1972 
L 1259 0 
L 628 0 
L 628 4666 
L 2053 4666 
Q 2853 4666 3247 4331 
Q 3641 3997 3641 3322 
Q 3641 2881 3436 2590 
Q 3231 2300 2841 2188 
z
M 1259 4147 
L 1259 2491 
L 2053 2491 
Q 2509 2491 2742 2702 
Q 2975 2913 2975 3322 
Q 2975 3731 2742 3939 
Q 2509 4147 2053 4147 
L 1259 4147 
z
" transform="scale(0.015625)"/>
       <path id="DejaVuSans-76" d="M 191 3500 
L 800 3500 
L 1894 563 
L 2988 3500 
L 3597 3500 
L 2284 0 
L 1503 0 
L 191 3500 
z
" transform="scale(0.015625)"/>
       <path id="DejaVuSans-28" d="M 1984 4856 
Q 1566 4138 1362 3434 
Q 1159 2731 1159 2009 
Q 1159 1288 1364 580 
Q 1569 -128 1984 -844 
L 1484 -844 
Q 1016 -109 783 600 
Q 550 1309 550 2009 
Q 550 2706 781 3412 
Q 1013 4119 1484 4856 
L 1984 4856 
z
" transform="scale(0.015625)"/>
       <path id="DejaVuSans-25" d="M 4653 2053 
Q 4381 2053 4226 1822 
Q 4072 1591 4072 1178 
Q 4072 772 4226 539 
Q 4381 306 4653 306 
Q 4919 306 5073 539 
Q 5228 772 5228 1178 
Q 5228 1588 5073 1820 
Q 4919 2053 4653 2053 
z
M 4653 2450 
Q 5147 2450 5437 2106 
Q 5728 1763 5728 1178 
Q 5728 594 5436 251 
Q 5144 -91 4653 -91 
Q 4153 -91 3862 251 
Q 3572 594 3572 1178 
Q 3572 1766 3864 2108 
Q 4156 2450 4653 2450 
z
M 1428 4353 
Q 1159 4353 1004 4120 
Q 850 3888 850 3481 
Q 850 3069 1003 2837 
Q 1156 2606 1428 2606 
Q 1700 2606 1854 2837 
Q 2009 3069 2009 3481 
Q 2009 3884 1853 4118 
Q 1697 4353 1428 4353 
z
M 4250 4750 
L 4750 4750 
L 1831 -91 
L 1331 -91 
L 4250 4750 
z
M 1428 4750 
Q 1922 4750 2215 4408 
Q 2509 4066 2509 3481 
Q 2509 2891 2217 2550 
Q 1925 2209 1428 2209 
Q 931 2209 642 2551 
Q 353 2894 353 3481 
Q 353 4063 643 4406 
Q 934 4750 1428 4750 
z
" transform="scale(0.015625)"/>
       <path id="DejaVuSans-29" d="M 513 4856 
L 1013 4856 
Q 1481 4119 1714 3412 
Q 1947 2706 1947 2009 
Q 1947 1309 1714 600 
Q 1481 -109 1013 -844 
L 513 -844 
Q 928 -128 1133 580 
Q 1338 1288 1338 2009 
Q 1338 2731 1133 3434 
Q 928 4138 513 4856 
z
" transform="scale(0.015625)"/>
      </defs>
      <use xlink:href="#DejaVuSans-4d"/>
      <use xlink:href="#DejaVuSans-65" transform="translate(86.279297 0)"/>
      <use xlink:href="#DejaVuSans-61" transform="translate(147.802734 0)"/>
      <use xlink:href="#DejaVuSans-6e" transform="translate(209.082031 0)"/>
      <use xlink:href="#DejaVuSans-20" transform="translate(272.460938 0)"/>
      <use xlink:href="#DejaVuSans-52" transform="translate(304.248047 0)"/>
      <use xlink:href="#DejaVuSans-65" transform="translate(369.230469 0)"/>
      <use xlink:href="#DejaVuSans-6c" transform="translate(430.753906 0)"/>
      <use xlink:href="#DejaVuSans-61" transform="translate(458.537109 0)"/>
      <use xlink:href="#DejaVuSans-74" transform="translate(519.816406 0)"/>
      <use xlink:href="#DejaVuSans-69" transform="translate(559.025391 0)"/>
      <use xlink:href="#DejaVuSans-76" transform="translate(586.808594 0)"/>
      <use xlink:href="#DejaVuSans-65" transform="translate(645.988281 0)"/>
      <use xlink:href="#DejaVuSans-20" transform="translate(707.511719 0)"/>
      <use xlink:href="#DejaVuSans-45" transform="translate(739.298828 0)"/>
      <use xlink:href="#DejaVuSans-64" transform="translate(802.482422 0)"/>
      <use xlink:href="#DejaVuSans-69" transform="translate(865.958984 0)"/>
      <use xlink:href="#DejaVuSans-74" transform="translate(893.742188 0)"/>
      <use xlink:href="#DejaVuSans-20" transform="translate(932.951172 0)"/>
      <use xlink:href="#DejaVuSans-28" transform="translate(964.738281 0)"/>
      <use xlink:href="#DejaVuSans-25" transform="translate(1003.751953 0)"/>
      <use xlink:href="#DejaVuSans-29" transform="translate(1098.771484 0)"/>
     </g>
    </g>
   </g>
   <g id="line2d_69">
    <path d="M 100.554168 786.100994 
L 121.404226 786.100994 
L 142.254284 786.100994 
L 163.104342 786.100994 
L 183.9544 786.100994 
L 204.804458 786.100994 
L 225.654516 786.100994 
L 246.504574 786.100994 
L 267.354632 786.100994 
L 288.20469 786.100994 
L 309.054748 786.100994 
L 329.904806 786.100994 
L 350.754864 786.100994 
L 371.604922 782.875761 
L 392.45498 782.348615 
L 413.305038 782.212762 
L 434.155096 781.894932 
L 455.005154 781.398372 
L 475.855212 781.353731 
L 496.70527 518.476428 
L 517.555328 518.348601 
L 538.405386 507.271476 
L 559.255444 510.933589 
L 580.105502 514.658277 
L 600.95556 522.678379 
L 621.805618 531.680306 
L 642.655676 519.55623 
L 663.505734 531.879542 
L 684.355792 539.879235 
L 705.20585 535.904398 
L 726.055908 533.68696 
L 746.905966 542.61135 
L 767.756024 538.546778 
L 788.606083 544.89167 
L 809.456141 540.854527 
L 830.306199 543.058137 
L 851.156257 543.633773 
L 872.006315 543.996323 
L 892.856373 545.240765 
L 913.706431 546.643332 
L 934.556489 546.892646 
L 955.406547 549.253957 
L 976.256605 551.758433 
L 997.106663 552.365895 
L 1017.956721 552.903059 
L 1038.806779 553.037694 
L 1059.656837 551.747764 
" clip-path="url(#p029804a2f1)" style="fill: none; stroke: #3498db; stroke-opacity: 0.8; stroke-width: 1.5; stroke-linecap: round"/>
   </g>
   <g id="line2d_70">
    <path d="M 100.554168 786.100547 
L 121.404226 786.100536 
L 142.254284 780.914739 
L 163.104342 780.912951 
L 183.9544 780.386784 
L 204.804458 780.221078 
L 225.654516 780.540732 
L 246.504574 779.960854 
L 267.354632 779.702911 
L 288.20469 779.750403 
L 309.054748 780.064653 
L 329.904806 780.688638 
L 350.754864 780.838528 
L 371.604922 780.970348 
L 392.45498 780.302133 
L 413.305038 780.749135 
L 434.155096 627.775782 
L 455.005154 612.302758 
L 475.855212 598.77319 
L 496.70527 590.979099 
L 517.555328 584.883603 
L 538.405386 561.885163 
L 559.255444 562.032025 
L 580.105502 563.158694 
L 600.95556 562.269552 
L 621.805618 560.88439 
L 642.655676 545.016681 
L 663.505734 547.953161 
L 684.355792 545.731657 
L 705.20585 541.539777 
L 726.055908 525.77171 
L 746.905966 527.952948 
L 767.756024 518.693436 
L 788.606083 520.97933 
L 809.456141 510.716369 
L 830.306199 503.040946 
L 851.156257 494.087391 
L 872.006315 486.15853 
L 892.856373 479.055228 
L 913.706431 472.229316 
L 934.556489 464.510283 
L 955.406547 459.318057 
L 976.256605 452.78846 
L 997.106663 446.004631 
L 1017.956721 449.492236 
L 1038.806779 456.561493 
L 1059.656837 466.638708 
" clip-path="url(#p029804a2f1)" style="fill: none; stroke: #e74c3c; stroke-opacity: 0.8; stroke-width: 1.5; stroke-linecap: round"/>
   </g>
   <g id="line2d_71">
    <path d="M 100.554168 635.998009 
L 121.404226 533.428079 
L 142.254284 540.875915 
L 163.104342 537.525433 
L 183.9544 531.782576 
L 204.804458 534.219729 
L 225.654516 535.044331 
L 246.504574 537.894684 
L 267.354632 530.365038 
L 288.20469 534.17632 
L 309.054748 530.203036 
L 329.904806 535.934773 
L 350.754864 537.968695 
L 371.604922 539.04555 
L 392.45498 533.595695 
L 413.305038 534.414992 
L 434.155096 524.213447 
L 455.005154 516.980273 
L 475.855212 513.866717 
L 496.70527 511.086483 
L 517.555328 510.174744 
L 538.405386 494.799967 
L 559.255444 497.022203 
L 580.105502 506.658289 
L 600.95556 512.254327 
L 621.805618 522.855358 
L 642.655676 507.440963 
L 663.505734 522.904938 
L 684.355792 532.809683 
L 705.20585 535.732156 
L 726.055908 530.363728 
L 746.905966 541.618976 
L 767.756024 538.622452 
L 788.606083 547.480372 
L 809.456141 545.685997 
L 830.306199 545.382003 
L 851.156257 544.6758 
L 872.006315 544.148492 
L 892.856373 544.605761 
L 913.706431 544.295061 
L 934.556489 544.244994 
L 955.406547 544.907397 
L 976.256605 546.387973 
L 997.106663 546.381397 
L 1017.956721 546.956342 
L 1038.806779 546.750126 
L 1059.656837 548.40523 
L 1080.506895 554.936554 
" clip-path="url(#p029804a2f1)" style="fill: none; stroke: #2ecc71; stroke-opacity: 0.8; stroke-width: 1.5; stroke-linecap: round"/>
   </g>
   <g id="line2d_72">
    <path d="M 100.554168 786.100994 
L 121.404226 624.888665 
L 142.254284 633.862666 
L 163.104342 631.902397 
L 183.9544 630.331606 
L 204.804458 630.279261 
L 225.654516 629.54612 
L 246.504574 627.143981 
L 267.354632 625.517643 
L 288.20469 620.899884 
L 309.054748 625.9021 
L 329.904806 627.155755 
L 350.754864 630.783393 
L 371.604922 627.707969 
L 392.45498 625.523246 
L 413.305038 615.917449 
L 434.155096 595.536433 
L 455.005154 585.677389 
L 475.855212 582.634471 
L 496.70527 585.590477 
L 517.555328 569.5877 
L 538.405386 565.653348 
L 559.255444 572.495345 
L 580.105502 581.131618 
L 600.95556 588.441111 
L 621.805618 599.19056 
L 642.655676 584.496602 
L 663.505734 600.854631 
L 684.355792 608.095849 
L 705.20585 606.002158 
L 726.055908 604.443 
L 746.905966 608.183398 
L 767.756024 593.113097 
L 788.606083 612.704396 
L 809.456141 609.397894 
L 830.306199 601.552337 
L 851.156257 602.553843 
L 872.006315 601.327204 
L 892.856373 601.274024 
L 913.706431 605.045867 
L 934.556489 610.667148 
L 955.406547 618.919816 
L 976.256605 621.707715 
L 997.106663 620.827697 
L 1017.956721 621.511021 
L 1038.806779 622.466862 
L 1059.656837 605.165799 
" clip-path="url(#p029804a2f1)" style="fill: none; stroke: #9b59b6; stroke-opacity: 0.8; stroke-width: 1.5; stroke-linecap: round"/>
   </g>
   <g id="patch_9">
    <path d="M 51.556531 803.105813 
L 51.556531 428.999813 
" style="fill: none; stroke: #cccccc; stroke-width: 1.25; stroke-linejoin: miter; stroke-linecap: square"/>
   </g>
   <g id="patch_10">
    <path d="M 1129.504531 803.105813 
L 1129.504531 428.999813 
" style="fill: none; stroke: #cccccc; stroke-width: 1.25; stroke-linejoin: miter; stroke-linecap: square"/>
   </g>
   <g id="patch_11">
    <path d="M 51.556531 803.105812 
L 1129.504531 803.105812 
" style="fill: none; stroke: #cccccc; stroke-width: 1.25; stroke-linejoin: miter; stroke-linecap: square"/>
   </g>
   <g id="patch_12">
    <path d="M 51.556531 428.999813 
L 1129.504531 428.999813 
" style="fill: none; stroke: #cccccc; stroke-width: 1.25; stroke-linejoin: miter; stroke-linecap: square"/>
   </g>
   <g id="text_45">
    <!-- Layer-wise Relative Edit Magnitude -->
    <g style="fill: #262626" transform="translate(450.778812 422.999813) scale(0.14 -0.14)">
     <defs>
      <path id="DejaVuSans-Bold-52" d="M 2297 2597 
Q 2675 2597 2839 2737 
Q 3003 2878 3003 3200 
Q 3003 3519 2839 3656 
Q 2675 3794 2297 3794 
L 1791 3794 
L 1791 2597 
L 2297 2597 
z
M 1791 1766 
L 1791 0 
L 588 0 
L 588 4666 
L 2425 4666 
Q 3347 4666 3776 4356 
Q 4206 4047 4206 3378 
Q 4206 2916 3982 2619 
Q 3759 2322 3309 2181 
Q 3556 2125 3751 1926 
Q 3947 1728 4147 1325 
L 4800 0 
L 3519 0 
L 2950 1159 
Q 2778 1509 2601 1637 
Q 2425 1766 2131 1766 
L 1791 1766 
z
" transform="scale(0.015625)"/>
      <path id="DejaVuSans-Bold-76" d="M 97 3500 
L 1216 3500 
L 2088 1081 
L 2956 3500 
L 4078 3500 
L 2700 0 
L 1472 0 
L 97 3500 
z
" transform="scale(0.015625)"/>
     </defs>
     <use xlink:href="#DejaVuSans-Bold-4c"/>
     <use xlink:href="#DejaVuSans-Bold-61" transform="translate(63.720703 0)"/>
     <use xlink:href="#DejaVuSans-Bold-79" transform="translate(128.076172 0)"/>
     <use xlink:href="#DejaVuSans-Bold-65" transform="translate(193.261719 0)"/>
     <use xlink:href="#DejaVuSans-Bold-72" transform="translate(261.083984 0)"/>
     <use xlink:href="#DejaVuSans-Bold-2d" transform="translate(310.400391 0)"/>
     <use xlink:href="#DejaVuSans-Bold-77" transform="translate(351.904297 0)"/>
     <use xlink:href="#DejaVuSans-Bold-69" transform="translate(444.287109 0)"/>
     <use xlink:href="#DejaVuSans-Bold-73" transform="translate(478.564453 0)"/>
     <use xlink:href="#DejaVuSans-Bold-65" transform="translate(538.085938 0)"/>
     <use xlink:href="#DejaVuSans-Bold-20" transform="translate(605.908203 0)"/>
     <use xlink:href="#DejaVuSans-Bold-52" transform="translate(640.722656 0)"/>
     <use xlink:href="#DejaVuSans-Bold-65" transform="translate(717.724609 0)"/>
     <use xlink:href="#DejaVuSans-Bold-6c" transform="translate(785.546875 0)"/>
     <use xlink:href="#DejaVuSans-Bold-61" transform="translate(819.824219 0)"/>
     <use xlink:href="#DejaVuSans-Bold-74" transform="translate(887.304688 0)"/>
     <use xlink:href="#DejaVuSans-Bold-69" transform="translate(935.107422 0)"/>
     <use xlink:href="#DejaVuSans-Bold-76" transform="translate(969.384766 0)"/>
     <use xlink:href="#DejaVuSans-Bold-65" transform="translate(1034.570312 0)"/>
     <use xlink:href="#DejaVuSans-Bold-20" transform="translate(1102.392578 0)"/>
     <use xlink:href="#DejaVuSans-Bold-45" transform="translate(1137.207031 0)"/>
     <use xlink:href="#DejaVuSans-Bold-64" transform="translate(1205.517578 0)"/>
     <use xlink:href="#DejaVuSans-Bold-69" transform="translate(1277.099609 0)"/>
     <use xlink:href="#DejaVuSans-Bold-74" transform="translate(1311.376953 0)"/>
     <use xlink:href="#DejaVuSans-Bold-20" transform="translate(1359.179688 0)"/>
     <use xlink:href="#DejaVuSans-Bold-4d" transform="translate(1393.994141 0)"/>
     <use xlink:href="#DejaVuSans-Bold-61" transform="translate(1493.505859 0)"/>
     <use xlink:href="#DejaVuSans-Bold-67" transform="translate(1560.986328 0)"/>
     <use xlink:href="#DejaVuSans-Bold-6e" transform="translate(1632.568359 0)"/>
     <use xlink:href="#DejaVuSans-Bold-69" transform="translate(1703.759766 0)"/>
     <use xlink:href="#DejaVuSans-Bold-74" transform="translate(1738.037109 0)"/>
     <use xlink:href="#DejaVuSans-Bold-75" transform="translate(1785.839844 0)"/>
     <use xlink:href="#DejaVuSans-Bold-64" transform="translate(1857.03125 0)"/>
     <use xlink:href="#DejaVuSans-Bold-65" transform="translate(1928.613281 0)"/>
    </g>
   </g>
   <g id="legend_2">
    <g id="patch_13">
     <path d="M 58.556531 495.712313 
L 142.676844 495.712313 
Q 144.676844 495.712313 144.676844 493.712313 
L 144.676844 435.999813 
Q 144.676844 433.999813 142.676844 433.999813 
L 58.556531 433.999813 
Q 56.556531 433.999813 56.556531 435.999813 
L 56.556531 493.712313 
Q 56.556531 495.712313 58.556531 495.712313 
z
" style="fill: #ffffff; opacity: 0.8; stroke: #cccccc; stroke-linejoin: miter"/>
    </g>
    <g id="line2d_73">
     <path d="M 60.556531 442.09825 
L 70.556531 442.09825 
L 80.556531 442.09825 
" style="fill: none; stroke: #3498db; stroke-opacity: 0.8; stroke-width: 1.5; stroke-linecap: round"/>
    </g>
    <g id="text_46">
     <!-- Heretic -->
     <g style="fill: #262626" transform="translate(88.556531 445.59825) scale(0.1 -0.1)">
      <use xlink:href="#DejaVuSans-48"/>
      <use xlink:href="#DejaVuSans-65" transform="translate(75.195312 0)"/>
      <use xlink:href="#DejaVuSans-72" transform="translate(136.71875 0)"/>
      <use xlink:href="#DejaVuSans-65" transform="translate(175.582031 0)"/>
      <use xlink:href="#DejaVuSans-74" transform="translate(237.105469 0)"/>
      <use xlink:href="#DejaVuSans-69" transform="translate(276.314453 0)"/>
      <use xlink:href="#DejaVuSans-63" transform="translate(304.097656 0)"/>
     </g>
    </g>
    <g id="line2d_74">
     <path d="M 60.556531 456.776375 
L 70.556531 456.776375 
L 80.556531 456.776375 
" style="fill: none; stroke: #e74c3c; stroke-opacity: 0.8; stroke-width: 1.5; stroke-linecap: round"/>
    </g>
    <g id="text_47">
     <!-- HauhauCS -->
     <g style="fill: #262626" transform="translate(88.556531 460.276375) scale(0.1 -0.1)">
      <use xlink:href="#DejaVuSans-48"/>
      <use xlink:href="#DejaVuSans-61" transform="translate(75.195312 0)"/>
      <use xlink:href="#DejaVuSans-75" transform="translate(136.474609 0)"/>
      <use xlink:href="#DejaVuSans-68" transform="translate(199.853516 0)"/>
      <use xlink:href="#DejaVuSans-61" transform="translate(263.232422 0)"/>
      <use xlink:href="#DejaVuSans-75" transform="translate(324.511719 0)"/>
      <use xlink:href="#DejaVuSans-43" transform="translate(387.890625 0)"/>
      <use xlink:href="#DejaVuSans-53" transform="translate(457.714844 0)"/>
     </g>
    </g>
    <g id="line2d_75">
     <path d="M 60.556531 471.4545 
L 70.556531 471.4545 
L 80.556531 471.4545 
" style="fill: none; stroke: #2ecc71; stroke-opacity: 0.8; stroke-width: 1.5; stroke-linecap: round"/>
    </g>
    <g id="text_48">
     <!-- Huihui -->
     <g style="fill: #262626" transform="translate(88.556531 474.9545) scale(0.1 -0.1)">
      <use xlink:href="#DejaVuSans-48"/>
      <use xlink:href="#DejaVuSans-75" transform="translate(75.195312 0)"/>
      <use xlink:href="#DejaVuSans-69" transform="translate(138.574219 0)"/>
      <use xlink:href="#DejaVuSans-68" transform="translate(166.357422 0)"/>
      <use xlink:href="#DejaVuSans-75" transform="translate(229.736328 0)"/>
      <use xlink:href="#DejaVuSans-69" transform="translate(293.115234 0)"/>
     </g>
    </g>
    <g id="line2d_76">
     <path d="M 60.556531 486.132625 
L 70.556531 486.132625 
L 80.556531 486.132625 
" style="fill: none; stroke: #9b59b6; stroke-opacity: 0.8; stroke-width: 1.5; stroke-linecap: round"/>
    </g>
    <g id="text_49">
     <!-- Abliterix -->
     <g style="fill: #262626" transform="translate(88.556531 489.632625) scale(0.1 -0.1)">
      <use xlink:href="#DejaVuSans-41"/>
      <use xlink:href="#DejaVuSans-62" transform="translate(68.408203 0)"/>
      <use xlink:href="#DejaVuSans-6c" transform="translate(131.884766 0)"/>
      <use xlink:href="#DejaVuSans-69" transform="translate(159.667969 0)"/>
      <use xlink:href="#DejaVuSans-74" transform="translate(187.451172 0)"/>
      <use xlink:href="#DejaVuSans-65" transform="translate(226.660156 0)"/>
      <use xlink:href="#DejaVuSans-72" transform="translate(288.183594 0)"/>
      <use xlink:href="#DejaVuSans-69" transform="translate(329.296875 0)"/>
      <use xlink:href="#DejaVuSans-78" transform="translate(357.080078 0)"/>
     </g>
    </g>
   </g>
  </g>
 </g>
 <defs>
  <clipPath id="p179513926e">
   <rect x="51.556531" y="23.837813" width="1077.948" height="374.106"/>
  </clipPath>
  <clipPath id="p029804a2f1">
   <rect x="51.556531" y="428.999813" width="1077.948" height="374.106"/>
  </clipPath>
 </defs>
</svg>
