<?xml version="1.0" encoding="utf-8" standalone="no"?>
<!DOCTYPE svg PUBLIC "-//W3C//DTD SVG 1.1//EN"
  "http://www.w3.org/Graphics/SVG/1.1/DTD/svg11.dtd">
<svg xmlns:xlink="http://www.w3.org/1999/xlink" width="851.50825pt" height="449.771875pt" viewBox="0 0 851.50825 449.771875" xmlns="http://www.w3.org/2000/svg" version="1.1">
 <metadata>
  <rdf:RDF xmlns:dc="http://purl.org/dc/elements/1.1/" xmlns:cc="http://creativecommons.org/ns#" xmlns:rdf="http://www.w3.org/1999/02/22-rdf-syntax-ns#">
   <cc:Work>
    <dc:type rdf:resource="http://purl.org/dc/dcmitype/StillImage"/>
    <dc:date>2026-04-24T10:51:53.010744</dc:date>
    <dc:format>image/svg+xml</dc:format>
    <dc:creator>
     <cc:Agent>
      <dc:title>Matplotlib v3.10.8, https://matplotlib.org/</dc:title>
     </cc:Agent>
    </dc:creator>
   </cc:Work>
  </rdf:RDF>
 </metadata>
 <defs>
  <style type="text/css">*{stroke-linejoin: round; stroke-linecap: butt}</style>
 </defs>
 <g id="figure_1">
  <g id="patch_1">
   <path d="M 0 449.771875 
L 851.50825 449.771875 
L 851.50825 0 
L 0 0 
z
" style="fill: #ffffff"/>
  </g>
  <g id="axes_1">
   <g id="patch_2">
    <path d="M 63.10825 411.917812 
L 844.30825 411.917812 
L 844.30825 23.837812 
L 63.10825 23.837812 
z
" style="fill: #ffffff"/>
   </g>
   <g id="matplotlib.axis_1">
    <g id="xtick_1">
     <g id="line2d_1">
      <path d="M 147.595397 411.917812 
L 147.595397 23.837812 
" clip-path="url(#p05714bb35a)" style="fill: none; stroke: #cccccc; stroke-linecap: round"/>
     </g>
     <g id="text_1">
      <!-- Expert -->
      <g style="fill: #262626" transform="translate(131.210241 429.01625) scale(0.1 -0.1)">
       <defs>
        <path id="DejaVuSans-45" d="M 628 4666 
L 3578 4666 
L 3578 4134 
L 1259 4134 
L 1259 2753 
L 3481 2753 
L 3481 2222 
L 1259 2222 
L 1259 531 
L 3634 531 
L 3634 0 
L 628 0 
L 628 4666 
z
" transform="scale(0.015625)"/>
        <path id="DejaVuSans-78" d="M 3513 3500 
L 2247 1797 
L 3578 0 
L 2900 0 
L 1881 1375 
L 863 0 
L 184 0 
L 1544 1831 
L 300 3500 
L 978 3500 
L 1906 2253 
L 2834 3500 
L 3513 3500 
z
" transform="scale(0.015625)"/>
        <path id="DejaVuSans-70" d="M 1159 525 
L 1159 -1331 
L 581 -1331 
L 581 3500 
L 1159 3500 
L 1159 2969 
Q 1341 3281 1617 3432 
Q 1894 3584 2278 3584 
Q 2916 3584 3314 3078 
Q 3713 2572 3713 1747 
Q 3713 922 3314 415 
Q 2916 -91 2278 -91 
Q 1894 -91 1617 61 
Q 1341 213 1159 525 
z
M 3116 1747 
Q 3116 2381 2855 2742 
Q 2594 3103 2138 3103 
Q 1681 3103 1420 2742 
Q 1159 2381 1159 1747 
Q 1159 1113 1420 752 
Q 1681 391 2138 391 
Q 2594 391 2855 752 
Q 3116 1113 3116 1747 
z
" transform="scale(0.015625)"/>
        <path id="DejaVuSans-65" d="M 3597 1894 
L 3597 1613 
L 953 1613 
Q 991 1019 1311 708 
Q 1631 397 2203 397 
Q 2534 397 2845 478 
Q 3156 559 3463 722 
L 3463 178 
Q 3153 47 2828 -22 
Q 2503 -91 2169 -91 
Q 1331 -91 842 396 
Q 353 884 353 1716 
Q 353 2575 817 3079 
Q 1281 3584 2069 3584 
Q 2775 3584 3186 3129 
Q 3597 2675 3597 1894 
z
M 3022 2063 
Q 3016 2534 2758 2815 
Q 2500 3097 2075 3097 
Q 1594 3097 1305 2825 
Q 1016 2553 972 2059 
L 3022 2063 
z
" transform="scale(0.015625)"/>
        <path id="DejaVuSans-72" d="M 2631 2963 
Q 2534 3019 2420 3045 
Q 2306 3072 2169 3072 
Q 1681 3072 1420 2755 
Q 1159 2438 1159 1844 
L 1159 0 
L 581 0 
L 581 3500 
L 1159 3500 
L 1159 2956 
Q 1341 3275 1631 3429 
Q 1922 3584 2338 3584 
Q 2397 3584 2469 3576 
Q 2541 3569 2628 3553 
L 2631 2963 
z
" transform="scale(0.015625)"/>
        <path id="DejaVuSans-74" d="M 1172 4494 
L 1172 3500 
L 2356 3500 
L 2356 3053 
L 1172 3053 
L 1172 1153 
Q 1172 725 1289 603 
Q 1406 481 1766 481 
L 2356 481 
L 2356 0 
L 1766 0 
Q 1100 0 847 248 
Q 594 497 594 1153 
L 594 3053 
L 172 3053 
L 172 3500 
L 594 3500 
L 594 4494 
L 1172 4494 
z
" transform="scale(0.015625)"/>
       </defs>
       <use xlink:href="#DejaVuSans-45"/>
       <use xlink:href="#DejaVuSans-78" transform="translate(63.183594 0)"/>
       <use xlink:href="#DejaVuSans-70" transform="translate(122.363281 0)"/>
       <use xlink:href="#DejaVuSans-65" transform="translate(185.839844 0)"/>
       <use xlink:href="#DejaVuSans-72" transform="translate(247.363281 0)"/>
       <use xlink:href="#DejaVuSans-74" transform="translate(288.476562 0)"/>
      </g>
      <!-- down_proj -->
      <g style="fill: #262626" transform="translate(122.038366 440.214062) scale(0.1 -0.1)">
       <defs>
        <path id="DejaVuSans-64" d="M 2906 2969 
L 2906 4863 
L 3481 4863 
L 3481 0 
L 2906 0 
L 2906 525 
Q 2725 213 2448 61 
Q 2172 -91 1784 -91 
Q 1150 -91 751 415 
Q 353 922 353 1747 
Q 353 2572 751 3078 
Q 1150 3584 1784 3584 
Q 2172 3584 2448 3432 
Q 2725 3281 2906 2969 
z
M 947 1747 
Q 947 1113 1208 752 
Q 1469 391 1925 391 
Q 2381 391 2643 752 
Q 2906 1113 2906 1747 
Q 2906 2381 2643 2742 
Q 2381 3103 1925 3103 
Q 1469 3103 1208 2742 
Q 947 2381 947 1747 
z
" transform="scale(0.015625)"/>
        <path id="DejaVuSans-6f" d="M 1959 3097 
Q 1497 3097 1228 2736 
Q 959 2375 959 1747 
Q 959 1119 1226 758 
Q 1494 397 1959 397 
Q 2419 397 2687 759 
Q 2956 1122 2956 1747 
Q 2956 2369 2687 2733 
Q 2419 3097 1959 3097 
z
M 1959 3584 
Q 2709 3584 3137 3096 
Q 3566 2609 3566 1747 
Q 3566 888 3137 398 
Q 2709 -91 1959 -91 
Q 1206 -91 779 398 
Q 353 888 353 1747 
Q 353 2609 779 3096 
Q 1206 3584 1959 3584 
z
" transform="scale(0.015625)"/>
        <path id="DejaVuSans-77" d="M 269 3500 
L 844 3500 
L 1563 769 
L 2278 3500 
L 2956 3500 
L 3675 769 
L 4391 3500 
L 4966 3500 
L 4050 0 
L 3372 0 
L 2619 2869 
L 1863 0 
L 1184 0 
L 269 3500 
z
" transform="scale(0.015625)"/>
        <path id="DejaVuSans-6e" d="M 3513 2113 
L 3513 0 
L 2938 0 
L 2938 2094 
Q 2938 2591 2744 2837 
Q 2550 3084 2163 3084 
Q 1697 3084 1428 2787 
Q 1159 2491 1159 1978 
L 1159 0 
L 581 0 
L 581 3500 
L 1159 3500 
L 1159 2956 
Q 1366 3272 1645 3428 
Q 1925 3584 2291 3584 
Q 2894 3584 3203 3211 
Q 3513 2838 3513 2113 
z
" transform="scale(0.015625)"/>
        <path id="DejaVuSans-5f" d="M 3263 -1063 
L 3263 -1509 
L -63 -1509 
L -63 -1063 
L 3263 -1063 
z
" transform="scale(0.015625)"/>
        <path id="DejaVuSans-6a" d="M 603 3500 
L 1178 3500 
L 1178 -63 
Q 1178 -731 923 -1031 
Q 669 -1331 103 -1331 
L -116 -1331 
L -116 -844 
L 38 -844 
Q 366 -844 484 -692 
Q 603 -541 603 -63 
L 603 3500 
z
M 603 4863 
L 1178 4863 
L 1178 4134 
L 603 4134 
L 603 4863 
z
" transform="scale(0.015625)"/>
       </defs>
       <use xlink:href="#DejaVuSans-64"/>
       <use xlink:href="#DejaVuSans-6f" transform="translate(63.476562 0)"/>
       <use xlink:href="#DejaVuSans-77" transform="translate(124.658203 0)"/>
       <use xlink:href="#DejaVuSans-6e" transform="translate(206.445312 0)"/>
       <use xlink:href="#DejaVuSans-5f" transform="translate(269.824219 0)"/>
       <use xlink:href="#DejaVuSans-70" transform="translate(319.824219 0)"/>
       <use xlink:href="#DejaVuSans-72" transform="translate(383.300781 0)"/>
       <use xlink:href="#DejaVuSans-6f" transform="translate(422.164062 0)"/>
       <use xlink:href="#DejaVuSans-6a" transform="translate(483.345703 0)"/>
      </g>
     </g>
    </g>
    <g id="xtick_2">
     <g id="line2d_2">
      <path d="M 270.040538 411.917812 
L 270.040538 23.837812 
" clip-path="url(#p05714bb35a)" style="fill: none; stroke: #cccccc; stroke-linecap: round"/>
     </g>
     <g id="text_2">
      <!-- Attention -->
      <g style="fill: #262626" transform="translate(246.964757 429.01625) scale(0.1 -0.1)">
       <defs>
        <path id="DejaVuSans-41" d="M 2188 4044 
L 1331 1722 
L 3047 1722 
L 2188 4044 
z
M 1831 4666 
L 2547 4666 
L 4325 0 
L 3669 0 
L 3244 1197 
L 1141 1197 
L 716 0 
L 50 0 
L 1831 4666 
z
" transform="scale(0.015625)"/>
        <path id="DejaVuSans-69" d="M 603 3500 
L 1178 3500 
L 1178 0 
L 603 0 
L 603 3500 
z
M 603 4863 
L 1178 4863 
L 1178 4134 
L 603 4134 
L 603 4863 
z
" transform="scale(0.015625)"/>
       </defs>
       <use xlink:href="#DejaVuSans-41"/>
       <use xlink:href="#DejaVuSans-74" transform="translate(66.658203 0)"/>
       <use xlink:href="#DejaVuSans-74" transform="translate(105.867188 0)"/>
       <use xlink:href="#DejaVuSans-65" transform="translate(145.076172 0)"/>
       <use xlink:href="#DejaVuSans-6e" transform="translate(206.599609 0)"/>
       <use xlink:href="#DejaVuSans-74" transform="translate(269.978516 0)"/>
       <use xlink:href="#DejaVuSans-69" transform="translate(309.1875 0)"/>
       <use xlink:href="#DejaVuSans-6f" transform="translate(336.970703 0)"/>
       <use xlink:href="#DejaVuSans-6e" transform="translate(398.152344 0)"/>
      </g>
      <!-- (o_proj) -->
      <g style="fill: #262626" transform="translate(251.013976 440.214062) scale(0.1 -0.1)">
       <defs>
        <path id="DejaVuSans-28" d="M 1984 4856 
Q 1566 4138 1362 3434 
Q 1159 2731 1159 2009 
Q 1159 1288 1364 580 
Q 1569 -128 1984 -844 
L 1484 -844 
Q 1016 -109 783 600 
Q 550 1309 550 2009 
Q 550 2706 781 3412 
Q 1013 4119 1484 4856 
L 1984 4856 
z
" transform="scale(0.015625)"/>
        <path id="DejaVuSans-29" d="M 513 4856 
L 1013 4856 
Q 1481 4119 1714 3412 
Q 1947 2706 1947 2009 
Q 1947 1309 1714 600 
Q 1481 -109 1013 -844 
L 513 -844 
Q 928 -128 1133 580 
Q 1338 1288 1338 2009 
Q 1338 2731 1133 3434 
Q 928 4138 513 4856 
z
" transform="scale(0.015625)"/>
       </defs>
       <use xlink:href="#DejaVuSans-28"/>
       <use xlink:href="#DejaVuSans-6f" transform="translate(39.013672 0)"/>
       <use xlink:href="#DejaVuSans-5f" transform="translate(100.195312 0)"/>
       <use xlink:href="#DejaVuSans-70" transform="translate(150.195312 0)"/>
       <use xlink:href="#DejaVuSans-72" transform="translate(213.671875 0)"/>
       <use xlink:href="#DejaVuSans-6f" transform="translate(252.535156 0)"/>
       <use xlink:href="#DejaVuSans-6a" transform="translate(313.716797 0)"/>
       <use xlink:href="#DejaVuSans-29" transform="translate(341.5 0)"/>
      </g>
     </g>
    </g>
    <g id="xtick_3">
     <g id="line2d_3">
      <path d="M 392.485679 411.917812 
L 392.485679 23.837812 
" clip-path="url(#p05714bb35a)" style="fill: none; stroke: #cccccc; stroke-linecap: round"/>
     </g>
     <g id="text_3">
      <!-- Router -->
      <g style="fill: #262626" transform="translate(375.916148 429.01625) scale(0.1 -0.1)">
       <defs>
        <path id="DejaVuSans-52" d="M 2841 2188 
Q 3044 2119 3236 1894 
Q 3428 1669 3622 1275 
L 4263 0 
L 3584 0 
L 2988 1197 
Q 2756 1666 2539 1819 
Q 2322 1972 1947 1972 
L 1259 1972 
L 1259 0 
L 628 0 
L 628 4666 
L 2053 4666 
Q 2853 4666 3247 4331 
Q 3641 3997 3641 3322 
Q 3641 2881 3436 2590 
Q 3231 2300 2841 2188 
z
M 1259 4147 
L 1259 2491 
L 2053 2491 
Q 2509 2491 2742 2702 
Q 2975 2913 2975 3322 
Q 2975 3731 2742 3939 
Q 2509 4147 2053 4147 
L 1259 4147 
z
" transform="scale(0.015625)"/>
        <path id="DejaVuSans-75" d="M 544 1381 
L 544 3500 
L 1119 3500 
L 1119 1403 
Q 1119 906 1312 657 
Q 1506 409 1894 409 
Q 2359 409 2629 706 
Q 2900 1003 2900 1516 
L 2900 3500 
L 3475 3500 
L 3475 0 
L 2900 0 
L 2900 538 
Q 2691 219 2414 64 
Q 2138 -91 1772 -91 
Q 1169 -91 856 284 
Q 544 659 544 1381 
z
M 1991 3584 
L 1991 3584 
z
" transform="scale(0.015625)"/>
       </defs>
       <use xlink:href="#DejaVuSans-52"/>
       <use xlink:href="#DejaVuSans-6f" transform="translate(64.982422 0)"/>
       <use xlink:href="#DejaVuSans-75" transform="translate(126.164062 0)"/>
       <use xlink:href="#DejaVuSans-74" transform="translate(189.542969 0)"/>
       <use xlink:href="#DejaVuSans-65" transform="translate(228.751953 0)"/>
       <use xlink:href="#DejaVuSans-72" transform="translate(290.275391 0)"/>
      </g>
      <!-- (gate) -->
      <g style="fill: #262626" transform="translate(377.309117 440.214062) scale(0.1 -0.1)">
       <defs>
        <path id="DejaVuSans-67" d="M 2906 1791 
Q 2906 2416 2648 2759 
Q 2391 3103 1925 3103 
Q 1463 3103 1205 2759 
Q 947 2416 947 1791 
Q 947 1169 1205 825 
Q 1463 481 1925 481 
Q 2391 481 2648 825 
Q 2906 1169 2906 1791 
z
M 3481 434 
Q 3481 -459 3084 -895 
Q 2688 -1331 1869 -1331 
Q 1566 -1331 1297 -1286 
Q 1028 -1241 775 -1147 
L 775 -588 
Q 1028 -725 1275 -790 
Q 1522 -856 1778 -856 
Q 2344 -856 2625 -561 
Q 2906 -266 2906 331 
L 2906 616 
Q 2728 306 2450 153 
Q 2172 0 1784 0 
Q 1141 0 747 490 
Q 353 981 353 1791 
Q 353 2603 747 3093 
Q 1141 3584 1784 3584 
Q 2172 3584 2450 3431 
Q 2728 3278 2906 2969 
L 2906 3500 
L 3481 3500 
L 3481 434 
z
" transform="scale(0.015625)"/>
        <path id="DejaVuSans-61" d="M 2194 1759 
Q 1497 1759 1228 1600 
Q 959 1441 959 1056 
Q 959 750 1161 570 
Q 1363 391 1709 391 
Q 2188 391 2477 730 
Q 2766 1069 2766 1631 
L 2766 1759 
L 2194 1759 
z
M 3341 1997 
L 3341 0 
L 2766 0 
L 2766 531 
Q 2569 213 2275 61 
Q 1981 -91 1556 -91 
Q 1019 -91 701 211 
Q 384 513 384 1019 
Q 384 1609 779 1909 
Q 1175 2209 1959 2209 
L 2766 2209 
L 2766 2266 
Q 2766 2663 2505 2880 
Q 2244 3097 1772 3097 
Q 1472 3097 1187 3025 
Q 903 2953 641 2809 
L 641 3341 
Q 956 3463 1253 3523 
Q 1550 3584 1831 3584 
Q 2591 3584 2966 3190 
Q 3341 2797 3341 1997 
z
" transform="scale(0.015625)"/>
       </defs>
       <use xlink:href="#DejaVuSans-28"/>
       <use xlink:href="#DejaVuSans-67" transform="translate(39.013672 0)"/>
       <use xlink:href="#DejaVuSans-61" transform="translate(102.490234 0)"/>
       <use xlink:href="#DejaVuSans-74" transform="translate(163.769531 0)"/>
       <use xlink:href="#DejaVuSans-65" transform="translate(202.978516 0)"/>
       <use xlink:href="#DejaVuSans-29" transform="translate(264.501953 0)"/>
      </g>
     </g>
    </g>
    <g id="xtick_4">
     <g id="line2d_4">
      <path d="M 514.930821 411.917812 
L 514.930821 23.837812 
" clip-path="url(#p05714bb35a)" style="fill: none; stroke: #cccccc; stroke-linecap: round"/>
     </g>
     <g id="text_4">
      <!-- Shared -->
      <g style="fill: #262626" transform="translate(497.330039 429.01625) scale(0.1 -0.1)">
       <defs>
        <path id="DejaVuSans-53" d="M 3425 4513 
L 3425 3897 
Q 3066 4069 2747 4153 
Q 2428 4238 2131 4238 
Q 1616 4238 1336 4038 
Q 1056 3838 1056 3469 
Q 1056 3159 1242 3001 
Q 1428 2844 1947 2747 
L 2328 2669 
Q 3034 2534 3370 2195 
Q 3706 1856 3706 1288 
Q 3706 609 3251 259 
Q 2797 -91 1919 -91 
Q 1588 -91 1214 -16 
Q 841 59 441 206 
L 441 856 
Q 825 641 1194 531 
Q 1563 422 1919 422 
Q 2459 422 2753 634 
Q 3047 847 3047 1241 
Q 3047 1584 2836 1778 
Q 2625 1972 2144 2069 
L 1759 2144 
Q 1053 2284 737 2584 
Q 422 2884 422 3419 
Q 422 4038 858 4394 
Q 1294 4750 2059 4750 
Q 2388 4750 2728 4690 
Q 3069 4631 3425 4513 
z
" transform="scale(0.015625)"/>
        <path id="DejaVuSans-68" d="M 3513 2113 
L 3513 0 
L 2938 0 
L 2938 2094 
Q 2938 2591 2744 2837 
Q 2550 3084 2163 3084 
Q 1697 3084 1428 2787 
Q 1159 2491 1159 1978 
L 1159 0 
L 581 0 
L 581 4863 
L 1159 4863 
L 1159 2956 
Q 1366 3272 1645 3428 
Q 1925 3584 2291 3584 
Q 2894 3584 3203 3211 
Q 3513 2838 3513 2113 
z
" transform="scale(0.015625)"/>
       </defs>
       <use xlink:href="#DejaVuSans-53"/>
       <use xlink:href="#DejaVuSans-68" transform="translate(63.476562 0)"/>
       <use xlink:href="#DejaVuSans-61" transform="translate(126.855469 0)"/>
       <use xlink:href="#DejaVuSans-72" transform="translate(188.134766 0)"/>
       <use xlink:href="#DejaVuSans-65" transform="translate(226.998047 0)"/>
       <use xlink:href="#DejaVuSans-64" transform="translate(288.521484 0)"/>
      </g>
      <!-- expert -->
      <g style="fill: #262626" transform="translate(498.715977 440.214062) scale(0.1 -0.1)">
       <use xlink:href="#DejaVuSans-65"/>
       <use xlink:href="#DejaVuSans-78" transform="translate(59.773438 0)"/>
       <use xlink:href="#DejaVuSans-70" transform="translate(118.953125 0)"/>
       <use xlink:href="#DejaVuSans-65" transform="translate(182.429688 0)"/>
       <use xlink:href="#DejaVuSans-72" transform="translate(243.953125 0)"/>
       <use xlink:href="#DejaVuSans-74" transform="translate(285.066406 0)"/>
      </g>
     </g>
    </g>
    <g id="xtick_5">
     <g id="line2d_5">
      <path d="M 637.375962 411.917812 
L 637.375962 23.837812 
" clip-path="url(#p05714bb35a)" style="fill: none; stroke: #cccccc; stroke-linecap: round"/>
     </g>
     <g id="text_5">
      <!-- Expert -->
      <g style="fill: #262626" transform="translate(620.990805 429.01625) scale(0.1 -0.1)">
       <use xlink:href="#DejaVuSans-45"/>
       <use xlink:href="#DejaVuSans-78" transform="translate(63.183594 0)"/>
       <use xlink:href="#DejaVuSans-70" transform="translate(122.363281 0)"/>
       <use xlink:href="#DejaVuSans-65" transform="translate(185.839844 0)"/>
       <use xlink:href="#DejaVuSans-72" transform="translate(247.363281 0)"/>
       <use xlink:href="#DejaVuSans-74" transform="translate(288.476562 0)"/>
      </g>
      <!-- gate_proj -->
      <g style="fill: #262626" transform="translate(614.035337 440.214062) scale(0.1 -0.1)">
       <use xlink:href="#DejaVuSans-67"/>
       <use xlink:href="#DejaVuSans-61" transform="translate(63.476562 0)"/>
       <use xlink:href="#DejaVuSans-74" transform="translate(124.755859 0)"/>
       <use xlink:href="#DejaVuSans-65" transform="translate(163.964844 0)"/>
       <use xlink:href="#DejaVuSans-5f" transform="translate(225.488281 0)"/>
       <use xlink:href="#DejaVuSans-70" transform="translate(275.488281 0)"/>
       <use xlink:href="#DejaVuSans-72" transform="translate(338.964844 0)"/>
       <use xlink:href="#DejaVuSans-6f" transform="translate(377.828125 0)"/>
       <use xlink:href="#DejaVuSans-6a" transform="translate(439.009766 0)"/>
      </g>
     </g>
    </g>
    <g id="xtick_6">
     <g id="line2d_6">
      <path d="M 759.821103 411.917812 
L 759.821103 23.837812 
" clip-path="url(#p05714bb35a)" style="fill: none; stroke: #cccccc; stroke-linecap: round"/>
     </g>
     <g id="text_6">
      <!-- Expert -->
      <g style="fill: #262626" transform="translate(743.435946 429.01625) scale(0.1 -0.1)">
       <use xlink:href="#DejaVuSans-45"/>
       <use xlink:href="#DejaVuSans-78" transform="translate(63.183594 0)"/>
       <use xlink:href="#DejaVuSans-70" transform="translate(122.363281 0)"/>
       <use xlink:href="#DejaVuSans-65" transform="translate(185.839844 0)"/>
       <use xlink:href="#DejaVuSans-72" transform="translate(247.363281 0)"/>
       <use xlink:href="#DejaVuSans-74" transform="translate(288.476562 0)"/>
      </g>
      <!-- up_proj -->
      <g style="fill: #262626" transform="translate(741.412509 440.214062) scale(0.1 -0.1)">
       <use xlink:href="#DejaVuSans-75"/>
       <use xlink:href="#DejaVuSans-70" transform="translate(63.378906 0)"/>
       <use xlink:href="#DejaVuSans-5f" transform="translate(126.855469 0)"/>
       <use xlink:href="#DejaVuSans-70" transform="translate(176.855469 0)"/>
       <use xlink:href="#DejaVuSans-72" transform="translate(240.332031 0)"/>
       <use xlink:href="#DejaVuSans-6f" transform="translate(279.195312 0)"/>
       <use xlink:href="#DejaVuSans-6a" transform="translate(340.376953 0)"/>
      </g>
     </g>
    </g>
   </g>
   <g id="matplotlib.axis_2">
    <g id="ytick_1">
     <g id="line2d_7">
      <path d="M 63.10825 411.917812 
L 844.30825 411.917812 
" clip-path="url(#p05714bb35a)" style="fill: none; stroke: #cccccc; stroke-linecap: round"/>
     </g>
     <g id="text_7">
      <!-- 0 -->
      <g style="fill: #262626" transform="translate(45.909625 416.514867) scale(0.121 -0.121)">
       <defs>
        <path id="DejaVuSans-30" d="M 2034 4250 
Q 1547 4250 1301 3770 
Q 1056 3291 1056 2328 
Q 1056 1369 1301 889 
Q 1547 409 2034 409 
Q 2525 409 2770 889 
Q 3016 1369 3016 2328 
Q 3016 3291 2770 3770 
Q 2525 4250 2034 4250 
z
M 2034 4750 
Q 2819 4750 3233 4129 
Q 3647 3509 3647 2328 
Q 3647 1150 3233 529 
Q 2819 -91 2034 -91 
Q 1250 -91 836 529 
Q 422 1150 422 2328 
Q 422 3509 836 4129 
Q 1250 4750 2034 4750 
z
" transform="scale(0.015625)"/>
       </defs>
       <use xlink:href="#DejaVuSans-30"/>
      </g>
     </g>
    </g>
    <g id="ytick_2">
     <g id="line2d_8">
      <path d="M 63.10825 350.481642 
L 844.30825 350.481642 
" clip-path="url(#p05714bb35a)" style="fill: none; stroke: #cccccc; stroke-linecap: round"/>
     </g>
     <g id="text_8">
      <!-- 500 -->
      <g style="fill: #262626" transform="translate(30.512375 355.078697) scale(0.121 -0.121)">
       <defs>
        <path id="DejaVuSans-35" d="M 691 4666 
L 3169 4666 
L 3169 4134 
L 1269 4134 
L 1269 2991 
Q 1406 3038 1543 3061 
Q 1681 3084 1819 3084 
Q 2600 3084 3056 2656 
Q 3513 2228 3513 1497 
Q 3513 744 3044 326 
Q 2575 -91 1722 -91 
Q 1428 -91 1123 -41 
Q 819 9 494 109 
L 494 744 
Q 775 591 1075 516 
Q 1375 441 1709 441 
Q 2250 441 2565 725 
Q 2881 1009 2881 1497 
Q 2881 1984 2565 2268 
Q 2250 2553 1709 2553 
Q 1456 2553 1204 2497 
Q 953 2441 691 2322 
L 691 4666 
z
" transform="scale(0.015625)"/>
       </defs>
       <use xlink:href="#DejaVuSans-35"/>
       <use xlink:href="#DejaVuSans-30" transform="translate(63.623047 0)"/>
       <use xlink:href="#DejaVuSans-30" transform="translate(127.246094 0)"/>
      </g>
     </g>
    </g>
    <g id="ytick_3">
     <g id="line2d_9">
      <path d="M 63.10825 289.045472 
L 844.30825 289.045472 
" clip-path="url(#p05714bb35a)" style="fill: none; stroke: #cccccc; stroke-linecap: round"/>
     </g>
     <g id="text_9">
      <!-- 1000 -->
      <g style="fill: #262626" transform="translate(22.81375 293.642527) scale(0.121 -0.121)">
       <defs>
        <path id="DejaVuSans-31" d="M 794 531 
L 1825 531 
L 1825 4091 
L 703 3866 
L 703 4441 
L 1819 4666 
L 2450 4666 
L 2450 531 
L 3481 531 
L 3481 0 
L 794 0 
L 794 531 
z
" transform="scale(0.015625)"/>
       </defs>
       <use xlink:href="#DejaVuSans-31"/>
       <use xlink:href="#DejaVuSans-30" transform="translate(63.623047 0)"/>
       <use xlink:href="#DejaVuSans-30" transform="translate(127.246094 0)"/>
       <use xlink:href="#DejaVuSans-30" transform="translate(190.869141 0)"/>
      </g>
     </g>
    </g>
    <g id="ytick_4">
     <g id="line2d_10">
      <path d="M 63.10825 227.609302 
L 844.30825 227.609302 
" clip-path="url(#p05714bb35a)" style="fill: none; stroke: #cccccc; stroke-linecap: round"/>
     </g>
     <g id="text_10">
      <!-- 1500 -->
      <g style="fill: #262626" transform="translate(22.81375 232.206357) scale(0.121 -0.121)">
       <use xlink:href="#DejaVuSans-31"/>
       <use xlink:href="#DejaVuSans-35" transform="translate(63.623047 0)"/>
       <use xlink:href="#DejaVuSans-30" transform="translate(127.246094 0)"/>
       <use xlink:href="#DejaVuSans-30" transform="translate(190.869141 0)"/>
      </g>
     </g>
    </g>
    <g id="ytick_5">
     <g id="line2d_11">
      <path d="M 63.10825 166.173132 
L 844.30825 166.173132 
" clip-path="url(#p05714bb35a)" style="fill: none; stroke: #cccccc; stroke-linecap: round"/>
     </g>
     <g id="text_11">
      <!-- 2000 -->
      <g style="fill: #262626" transform="translate(22.81375 170.770186) scale(0.121 -0.121)">
       <defs>
        <path id="DejaVuSans-32" d="M 1228 531 
L 3431 531 
L 3431 0 
L 469 0 
L 469 531 
Q 828 903 1448 1529 
Q 2069 2156 2228 2338 
Q 2531 2678 2651 2914 
Q 2772 3150 2772 3378 
Q 2772 3750 2511 3984 
Q 2250 4219 1831 4219 
Q 1534 4219 1204 4116 
Q 875 4013 500 3803 
L 500 4441 
Q 881 4594 1212 4672 
Q 1544 4750 1819 4750 
Q 2544 4750 2975 4387 
Q 3406 4025 3406 3419 
Q 3406 3131 3298 2873 
Q 3191 2616 2906 2266 
Q 2828 2175 2409 1742 
Q 1991 1309 1228 531 
z
" transform="scale(0.015625)"/>
       </defs>
       <use xlink:href="#DejaVuSans-32"/>
       <use xlink:href="#DejaVuSans-30" transform="translate(63.623047 0)"/>
       <use xlink:href="#DejaVuSans-30" transform="translate(127.246094 0)"/>
       <use xlink:href="#DejaVuSans-30" transform="translate(190.869141 0)"/>
      </g>
     </g>
    </g>
    <g id="ytick_6">
     <g id="line2d_12">
      <path d="M 63.10825 104.736961 
L 844.30825 104.736961 
" clip-path="url(#p05714bb35a)" style="fill: none; stroke: #cccccc; stroke-linecap: round"/>
     </g>
     <g id="text_12">
      <!-- 2500 -->
      <g style="fill: #262626" transform="translate(22.81375 109.334016) scale(0.121 -0.121)">
       <use xlink:href="#DejaVuSans-32"/>
       <use xlink:href="#DejaVuSans-35" transform="translate(63.623047 0)"/>
       <use xlink:href="#DejaVuSans-30" transform="translate(127.246094 0)"/>
       <use xlink:href="#DejaVuSans-30" transform="translate(190.869141 0)"/>
      </g>
     </g>
    </g>
    <g id="ytick_7">
     <g id="line2d_13">
      <path d="M 63.10825 43.300791 
L 844.30825 43.300791 
" clip-path="url(#p05714bb35a)" style="fill: none; stroke: #cccccc; stroke-linecap: round"/>
     </g>
     <g id="text_13">
      <!-- 3000 -->
      <g style="fill: #262626" transform="translate(22.81375 47.897846) scale(0.121 -0.121)">
       <defs>
        <path id="DejaVuSans-33" d="M 2597 2516 
Q 3050 2419 3304 2112 
Q 3559 1806 3559 1356 
Q 3559 666 3084 287 
Q 2609 -91 1734 -91 
Q 1441 -91 1130 -33 
Q 819 25 488 141 
L 488 750 
Q 750 597 1062 519 
Q 1375 441 1716 441 
Q 2309 441 2620 675 
Q 2931 909 2931 1356 
Q 2931 1769 2642 2001 
Q 2353 2234 1838 2234 
L 1294 2234 
L 1294 2753 
L 1863 2753 
Q 2328 2753 2575 2939 
Q 2822 3125 2822 3475 
Q 2822 3834 2567 4026 
Q 2313 4219 1838 4219 
Q 1578 4219 1281 4162 
Q 984 4106 628 3988 
L 628 4550 
Q 988 4650 1302 4700 
Q 1616 4750 1894 4750 
Q 2613 4750 3031 4423 
Q 3450 4097 3450 3541 
Q 3450 3153 3228 2886 
Q 3006 2619 2597 2516 
z
" transform="scale(0.015625)"/>
       </defs>
       <use xlink:href="#DejaVuSans-33"/>
       <use xlink:href="#DejaVuSans-30" transform="translate(63.623047 0)"/>
       <use xlink:href="#DejaVuSans-30" transform="translate(127.246094 0)"/>
       <use xlink:href="#DejaVuSans-30" transform="translate(190.869141 0)"/>
      </g>
     </g>
    </g>
    <g id="text_14">
     <!-- Tensors Modified -->
     <g style="fill: #262626" transform="translate(16.318125 267.916875) rotate(-90) scale(0.12 -0.12)">
      <defs>
       <path id="DejaVuSans-54" d="M -19 4666 
L 3928 4666 
L 3928 4134 
L 2272 4134 
L 2272 0 
L 1638 0 
L 1638 4134 
L -19 4134 
L -19 4666 
z
" transform="scale(0.015625)"/>
       <path id="DejaVuSans-73" d="M 2834 3397 
L 2834 2853 
Q 2591 2978 2328 3040 
Q 2066 3103 1784 3103 
Q 1356 3103 1142 2972 
Q 928 2841 928 2578 
Q 928 2378 1081 2264 
Q 1234 2150 1697 2047 
L 1894 2003 
Q 2506 1872 2764 1633 
Q 3022 1394 3022 966 
Q 3022 478 2636 193 
Q 2250 -91 1575 -91 
Q 1294 -91 989 -36 
Q 684 19 347 128 
L 347 722 
Q 666 556 975 473 
Q 1284 391 1588 391 
Q 1994 391 2212 530 
Q 2431 669 2431 922 
Q 2431 1156 2273 1281 
Q 2116 1406 1581 1522 
L 1381 1569 
Q 847 1681 609 1914 
Q 372 2147 372 2553 
Q 372 3047 722 3315 
Q 1072 3584 1716 3584 
Q 2034 3584 2315 3537 
Q 2597 3491 2834 3397 
z
" transform="scale(0.015625)"/>
       <path id="DejaVuSans-20" transform="scale(0.015625)"/>
       <path id="DejaVuSans-4d" d="M 628 4666 
L 1569 4666 
L 2759 1491 
L 3956 4666 
L 4897 4666 
L 4897 0 
L 4281 0 
L 4281 4097 
L 3078 897 
L 2444 897 
L 1241 4097 
L 1241 0 
L 628 0 
L 628 4666 
z
" transform="scale(0.015625)"/>
       <path id="DejaVuSans-66" d="M 2375 4863 
L 2375 4384 
L 1825 4384 
Q 1516 4384 1395 4259 
Q 1275 4134 1275 3809 
L 1275 3500 
L 2222 3500 
L 2222 3053 
L 1275 3053 
L 1275 0 
L 697 0 
L 697 3053 
L 147 3053 
L 147 3500 
L 697 3500 
L 697 3744 
Q 697 4328 969 4595 
Q 1241 4863 1831 4863 
L 2375 4863 
z
" transform="scale(0.015625)"/>
      </defs>
      <use xlink:href="#DejaVuSans-54"/>
      <use xlink:href="#DejaVuSans-65" transform="translate(44.083984 0)"/>
      <use xlink:href="#DejaVuSans-6e" transform="translate(105.607422 0)"/>
      <use xlink:href="#DejaVuSans-73" transform="translate(168.986328 0)"/>
      <use xlink:href="#DejaVuSans-6f" transform="translate(221.085938 0)"/>
      <use xlink:href="#DejaVuSans-72" transform="translate(282.267578 0)"/>
      <use xlink:href="#DejaVuSans-73" transform="translate(323.380859 0)"/>
      <use xlink:href="#DejaVuSans-20" transform="translate(375.480469 0)"/>
      <use xlink:href="#DejaVuSans-4d" transform="translate(407.267578 0)"/>
      <use xlink:href="#DejaVuSans-6f" transform="translate(493.546875 0)"/>
      <use xlink:href="#DejaVuSans-64" transform="translate(554.728516 0)"/>
      <use xlink:href="#DejaVuSans-69" transform="translate(618.205078 0)"/>
      <use xlink:href="#DejaVuSans-66" transform="translate(645.988281 0)"/>
      <use xlink:href="#DejaVuSans-69" transform="translate(681.193359 0)"/>
      <use xlink:href="#DejaVuSans-65" transform="translate(708.976562 0)"/>
      <use xlink:href="#DejaVuSans-64" transform="translate(770.5 0)"/>
     </g>
    </g>
   </g>
   <g id="patch_3">
    <path d="M 98.617341 411.917812 
L 123.106369 411.917812 
L 123.106369 191.730578 
L 98.617341 191.730578 
z
" clip-path="url(#p05714bb35a)" style="fill: #3498db; opacity: 0.85; stroke: #ffffff; stroke-linejoin: miter"/>
   </g>
   <g id="patch_4">
    <path d="M 221.062482 411.917812 
L 245.55151 411.917812 
L 245.55151 407.740153 
L 221.062482 407.740153 
z
" clip-path="url(#p05714bb35a)" style="fill: #3498db; opacity: 0.85; stroke: #ffffff; stroke-linejoin: miter"/>
   </g>
   <g id="patch_5">
    <path d="M 343.507623 411.917812 
L 367.996651 411.917812 
L 367.996651 411.917812 
L 343.507623 411.917812 
z
" clip-path="url(#p05714bb35a)" style="fill: #3498db; opacity: 0.85; stroke: #ffffff; stroke-linejoin: miter"/>
   </g>
   <g id="patch_6">
    <path d="M 465.952764 411.917812 
L 490.441792 411.917812 
L 490.441792 411.917812 
L 465.952764 411.917812 
z
" clip-path="url(#p05714bb35a)" style="fill: #3498db; opacity: 0.85; stroke: #ffffff; stroke-linejoin: miter"/>
   </g>
   <g id="patch_7">
    <path d="M 588.397905 411.917812 
L 612.886933 411.917812 
L 612.886933 411.917812 
L 588.397905 411.917812 
z
" clip-path="url(#p05714bb35a)" style="fill: #3498db; opacity: 0.85; stroke: #ffffff; stroke-linejoin: miter"/>
   </g>
   <g id="patch_8">
    <path d="M 710.843046 411.917812 
L 735.332074 411.917812 
L 735.332074 411.917812 
L 710.843046 411.917812 
z
" clip-path="url(#p05714bb35a)" style="fill: #3498db; opacity: 0.85; stroke: #ffffff; stroke-linejoin: miter"/>
   </g>
   <g id="patch_9">
    <path d="M 123.106369 411.917812 
L 147.595397 411.917812 
L 147.595397 168.139089 
L 123.106369 168.139089 
z
" clip-path="url(#p05714bb35a)" style="fill: #e74c3c; opacity: 0.85; stroke: #ffffff; stroke-linejoin: miter"/>
   </g>
   <g id="patch_10">
    <path d="M 245.55151 411.917812 
L 270.040538 411.917812 
L 270.040538 406.388557 
L 245.55151 406.388557 
z
" clip-path="url(#p05714bb35a)" style="fill: #e74c3c; opacity: 0.85; stroke: #ffffff; stroke-linejoin: miter"/>
   </g>
   <g id="patch_11">
    <path d="M 367.996651 411.917812 
L 392.485679 411.917812 
L 392.485679 411.917812 
L 367.996651 411.917812 
z
" clip-path="url(#p05714bb35a)" style="fill: #e74c3c; opacity: 0.85; stroke: #ffffff; stroke-linejoin: miter"/>
   </g>
   <g id="patch_12">
    <path d="M 490.441792 411.917812 
L 514.930821 411.917812 
L 514.930821 411.917812 
L 490.441792 411.917812 
z
" clip-path="url(#p05714bb35a)" style="fill: #e74c3c; opacity: 0.85; stroke: #ffffff; stroke-linejoin: miter"/>
   </g>
   <g id="patch_13">
    <path d="M 612.886933 411.917812 
L 637.375962 411.917812 
L 637.375962 168.139089 
L 612.886933 168.139089 
z
" clip-path="url(#p05714bb35a)" style="fill: #e74c3c; opacity: 0.85; stroke: #ffffff; stroke-linejoin: miter"/>
   </g>
   <g id="patch_14">
    <path d="M 735.332074 411.917812 
L 759.821103 411.917812 
L 759.821103 168.139089 
L 735.332074 168.139089 
z
" clip-path="url(#p05714bb35a)" style="fill: #e74c3c; opacity: 0.85; stroke: #ffffff; stroke-linejoin: miter"/>
   </g>
   <g id="patch_15">
    <path d="M 147.595397 411.917812 
L 172.084426 411.917812 
L 172.084426 42.317812 
L 147.595397 42.317812 
z
" clip-path="url(#p05714bb35a)" style="fill: #2ecc71; opacity: 0.85; stroke: #ffffff; stroke-linejoin: miter"/>
   </g>
   <g id="patch_16">
    <path d="M 270.040538 411.917812 
L 294.529567 411.917812 
L 294.529567 406.01994 
L 270.040538 406.01994 
z
" clip-path="url(#p05714bb35a)" style="fill: #2ecc71; opacity: 0.85; stroke: #ffffff; stroke-linejoin: miter"/>
   </g>
   <g id="patch_17">
    <path d="M 392.485679 411.917812 
L 416.974708 411.917812 
L 416.974708 406.142812 
L 392.485679 406.142812 
z
" clip-path="url(#p05714bb35a)" style="fill: #2ecc71; opacity: 0.85; stroke: #ffffff; stroke-linejoin: miter"/>
   </g>
   <g id="patch_18">
    <path d="M 514.930821 411.917812 
L 539.419849 411.917812 
L 539.419849 406.142812 
L 514.930821 406.142812 
z
" clip-path="url(#p05714bb35a)" style="fill: #2ecc71; opacity: 0.85; stroke: #ffffff; stroke-linejoin: miter"/>
   </g>
   <g id="patch_19">
    <path d="M 637.375962 411.917812 
L 661.86499 411.917812 
L 661.86499 411.917812 
L 637.375962 411.917812 
z
" clip-path="url(#p05714bb35a)" style="fill: #2ecc71; opacity: 0.85; stroke: #ffffff; stroke-linejoin: miter"/>
   </g>
   <g id="patch_20">
    <path d="M 759.821103 411.917812 
L 784.310131 411.917812 
L 784.310131 411.917812 
L 759.821103 411.917812 
z
" clip-path="url(#p05714bb35a)" style="fill: #2ecc71; opacity: 0.85; stroke: #ffffff; stroke-linejoin: miter"/>
   </g>
   <g id="patch_21">
    <path d="M 172.084426 411.917812 
L 196.573454 411.917812 
L 196.573454 293.223132 
L 172.084426 293.223132 
z
" clip-path="url(#p05714bb35a)" style="fill: #9b59b6; opacity: 0.85; stroke: #ffffff; stroke-linejoin: miter"/>
   </g>
   <g id="patch_22">
    <path d="M 294.529567 411.917812 
L 319.018595 411.917812 
L 319.018595 407.985898 
L 294.529567 407.985898 
z
" clip-path="url(#p05714bb35a)" style="fill: #9b59b6; opacity: 0.85; stroke: #ffffff; stroke-linejoin: miter"/>
   </g>
   <g id="patch_23">
    <path d="M 416.974708 411.917812 
L 441.463736 411.917812 
L 441.463736 406.265685 
L 416.974708 406.265685 
z
" clip-path="url(#p05714bb35a)" style="fill: #9b59b6; opacity: 0.85; stroke: #ffffff; stroke-linejoin: miter"/>
   </g>
   <g id="patch_24">
    <path d="M 539.419849 411.917812 
L 563.908877 411.917812 
L 563.908877 406.51143 
L 539.419849 406.51143 
z
" clip-path="url(#p05714bb35a)" style="fill: #9b59b6; opacity: 0.85; stroke: #ffffff; stroke-linejoin: miter"/>
   </g>
   <g id="patch_25">
    <path d="M 661.86499 411.917812 
L 686.354018 411.917812 
L 686.354018 411.917812 
L 661.86499 411.917812 
z
" clip-path="url(#p05714bb35a)" style="fill: #9b59b6; opacity: 0.85; stroke: #ffffff; stroke-linejoin: miter"/>
   </g>
   <g id="patch_26">
    <path d="M 784.310131 411.917812 
L 808.799159 411.917812 
L 808.799159 411.917812 
L 784.310131 411.917812 
z
" clip-path="url(#p05714bb35a)" style="fill: #9b59b6; opacity: 0.85; stroke: #ffffff; stroke-linejoin: miter"/>
   </g>
   <g id="patch_27">
    <path d="M 63.10825 411.917812 
L 63.10825 23.837812 
" style="fill: none; stroke: #cccccc; stroke-width: 1.25; stroke-linejoin: miter; stroke-linecap: square"/>
   </g>
   <g id="patch_28">
    <path d="M 844.30825 411.917812 
L 844.30825 23.837812 
" style="fill: none; stroke: #cccccc; stroke-width: 1.25; stroke-linejoin: miter; stroke-linecap: square"/>
   </g>
   <g id="patch_29">
    <path d="M 63.10825 411.917812 
L 844.30825 411.917812 
" style="fill: none; stroke: #cccccc; stroke-width: 1.25; stroke-linejoin: miter; stroke-linecap: square"/>
   </g>
   <g id="patch_30">
    <path d="M 63.10825 23.837812 
L 844.30825 23.837812 
" style="fill: none; stroke: #cccccc; stroke-width: 1.25; stroke-linejoin: miter; stroke-linecap: square"/>
   </g>
   <g id="text_15">
    <!-- GLM-4.7-Flash Tensor Type Targeting by Technique -->
    <g style="fill: #262626" transform="translate(253.841844 17.837812) scale(0.14 -0.14)">
     <defs>
      <path id="DejaVuSans-Bold-47" d="M 4781 347 
Q 4331 128 3847 18 
Q 3363 -91 2847 -91 
Q 1681 -91 1000 561 
Q 319 1213 319 2328 
Q 319 3456 1012 4103 
Q 1706 4750 2913 4750 
Q 3378 4750 3804 4662 
Q 4231 4575 4609 4403 
L 4609 3438 
Q 4219 3659 3833 3768 
Q 3447 3878 3059 3878 
Q 2341 3878 1952 3476 
Q 1563 3075 1563 2328 
Q 1563 1588 1938 1184 
Q 2313 781 3003 781 
Q 3191 781 3352 804 
Q 3513 828 3641 878 
L 3641 1784 
L 2906 1784 
L 2906 2591 
L 4781 2591 
L 4781 347 
z
" transform="scale(0.015625)"/>
      <path id="DejaVuSans-Bold-4c" d="M 588 4666 
L 1791 4666 
L 1791 909 
L 3903 909 
L 3903 0 
L 588 0 
L 588 4666 
z
" transform="scale(0.015625)"/>
      <path id="DejaVuSans-Bold-4d" d="M 588 4666 
L 2119 4666 
L 3181 2169 
L 4250 4666 
L 5778 4666 
L 5778 0 
L 4641 0 
L 4641 3413 
L 3566 897 
L 2803 897 
L 1728 3413 
L 1728 0 
L 588 0 
L 588 4666 
z
" transform="scale(0.015625)"/>
      <path id="DejaVuSans-Bold-2d" d="M 347 2297 
L 2309 2297 
L 2309 1388 
L 347 1388 
L 347 2297 
z
" transform="scale(0.015625)"/>
      <path id="DejaVuSans-Bold-34" d="M 2356 3675 
L 1038 1722 
L 2356 1722 
L 2356 3675 
z
M 2156 4666 
L 3494 4666 
L 3494 1722 
L 4159 1722 
L 4159 850 
L 3494 850 
L 3494 0 
L 2356 0 
L 2356 850 
L 288 850 
L 288 1881 
L 2156 4666 
z
" transform="scale(0.015625)"/>
      <path id="DejaVuSans-Bold-2e" d="M 653 1209 
L 1778 1209 
L 1778 0 
L 653 0 
L 653 1209 
z
" transform="scale(0.015625)"/>
      <path id="DejaVuSans-Bold-37" d="M 428 4666 
L 3944 4666 
L 3944 3988 
L 2125 0 
L 953 0 
L 2675 3781 
L 428 3781 
L 428 4666 
z
" transform="scale(0.015625)"/>
      <path id="DejaVuSans-Bold-46" d="M 588 4666 
L 3834 4666 
L 3834 3756 
L 1791 3756 
L 1791 2888 
L 3713 2888 
L 3713 1978 
L 1791 1978 
L 1791 0 
L 588 0 
L 588 4666 
z
" transform="scale(0.015625)"/>
      <path id="DejaVuSans-Bold-6c" d="M 538 4863 
L 1656 4863 
L 1656 0 
L 538 0 
L 538 4863 
z
" transform="scale(0.015625)"/>
      <path id="DejaVuSans-Bold-61" d="M 2106 1575 
Q 1756 1575 1579 1456 
Q 1403 1338 1403 1106 
Q 1403 894 1545 773 
Q 1688 653 1941 653 
Q 2256 653 2472 879 
Q 2688 1106 2688 1447 
L 2688 1575 
L 2106 1575 
z
M 3816 1997 
L 3816 0 
L 2688 0 
L 2688 519 
Q 2463 200 2181 54 
Q 1900 -91 1497 -91 
Q 953 -91 614 226 
Q 275 544 275 1050 
Q 275 1666 698 1953 
Q 1122 2241 2028 2241 
L 2688 2241 
L 2688 2328 
Q 2688 2594 2478 2717 
Q 2269 2841 1825 2841 
Q 1466 2841 1156 2769 
Q 847 2697 581 2553 
L 581 3406 
Q 941 3494 1303 3539 
Q 1666 3584 2028 3584 
Q 2975 3584 3395 3211 
Q 3816 2838 3816 1997 
z
" transform="scale(0.015625)"/>
      <path id="DejaVuSans-Bold-73" d="M 3272 3391 
L 3272 2541 
Q 2913 2691 2578 2766 
Q 2244 2841 1947 2841 
Q 1628 2841 1473 2761 
Q 1319 2681 1319 2516 
Q 1319 2381 1436 2309 
Q 1553 2238 1856 2203 
L 2053 2175 
Q 2913 2066 3209 1816 
Q 3506 1566 3506 1031 
Q 3506 472 3093 190 
Q 2681 -91 1863 -91 
Q 1516 -91 1145 -36 
Q 775 19 384 128 
L 384 978 
Q 719 816 1070 734 
Q 1422 653 1784 653 
Q 2113 653 2278 743 
Q 2444 834 2444 1013 
Q 2444 1163 2330 1236 
Q 2216 1309 1875 1350 
L 1678 1375 
Q 931 1469 631 1722 
Q 331 1975 331 2491 
Q 331 3047 712 3315 
Q 1094 3584 1881 3584 
Q 2191 3584 2531 3537 
Q 2872 3491 3272 3391 
z
" transform="scale(0.015625)"/>
      <path id="DejaVuSans-Bold-68" d="M 4056 2131 
L 4056 0 
L 2931 0 
L 2931 347 
L 2931 1625 
Q 2931 2084 2911 2256 
Q 2891 2428 2841 2509 
Q 2775 2619 2662 2680 
Q 2550 2741 2406 2741 
Q 2056 2741 1856 2470 
Q 1656 2200 1656 1722 
L 1656 0 
L 538 0 
L 538 4863 
L 1656 4863 
L 1656 2988 
Q 1909 3294 2193 3439 
Q 2478 3584 2822 3584 
Q 3428 3584 3742 3212 
Q 4056 2841 4056 2131 
z
" transform="scale(0.015625)"/>
      <path id="DejaVuSans-Bold-20" transform="scale(0.015625)"/>
      <path id="DejaVuSans-Bold-54" d="M 31 4666 
L 4331 4666 
L 4331 3756 
L 2784 3756 
L 2784 0 
L 1581 0 
L 1581 3756 
L 31 3756 
L 31 4666 
z
" transform="scale(0.015625)"/>
      <path id="DejaVuSans-Bold-65" d="M 4031 1759 
L 4031 1441 
L 1416 1441 
Q 1456 1047 1700 850 
Q 1944 653 2381 653 
Q 2734 653 3104 758 
Q 3475 863 3866 1075 
L 3866 213 
Q 3469 63 3072 -14 
Q 2675 -91 2278 -91 
Q 1328 -91 801 392 
Q 275 875 275 1747 
Q 275 2603 792 3093 
Q 1309 3584 2216 3584 
Q 3041 3584 3536 3087 
Q 4031 2591 4031 1759 
z
M 2881 2131 
Q 2881 2450 2695 2645 
Q 2509 2841 2209 2841 
Q 1884 2841 1681 2658 
Q 1478 2475 1428 2131 
L 2881 2131 
z
" transform="scale(0.015625)"/>
      <path id="DejaVuSans-Bold-6e" d="M 4056 2131 
L 4056 0 
L 2931 0 
L 2931 347 
L 2931 1631 
Q 2931 2084 2911 2256 
Q 2891 2428 2841 2509 
Q 2775 2619 2662 2680 
Q 2550 2741 2406 2741 
Q 2056 2741 1856 2470 
Q 1656 2200 1656 1722 
L 1656 0 
L 538 0 
L 538 3500 
L 1656 3500 
L 1656 2988 
Q 1909 3294 2193 3439 
Q 2478 3584 2822 3584 
Q 3428 3584 3742 3212 
Q 4056 2841 4056 2131 
z
" transform="scale(0.015625)"/>
      <path id="DejaVuSans-Bold-6f" d="M 2203 2784 
Q 1831 2784 1636 2517 
Q 1441 2250 1441 1747 
Q 1441 1244 1636 976 
Q 1831 709 2203 709 
Q 2569 709 2762 976 
Q 2956 1244 2956 1747 
Q 2956 2250 2762 2517 
Q 2569 2784 2203 2784 
z
M 2203 3584 
Q 3106 3584 3614 3096 
Q 4122 2609 4122 1747 
Q 4122 884 3614 396 
Q 3106 -91 2203 -91 
Q 1297 -91 786 396 
Q 275 884 275 1747 
Q 275 2609 786 3096 
Q 1297 3584 2203 3584 
z
" transform="scale(0.015625)"/>
      <path id="DejaVuSans-Bold-72" d="M 3138 2547 
Q 2991 2616 2845 2648 
Q 2700 2681 2553 2681 
Q 2122 2681 1889 2404 
Q 1656 2128 1656 1613 
L 1656 0 
L 538 0 
L 538 3500 
L 1656 3500 
L 1656 2925 
Q 1872 3269 2151 3426 
Q 2431 3584 2822 3584 
Q 2878 3584 2943 3579 
Q 3009 3575 3134 3559 
L 3138 2547 
z
" transform="scale(0.015625)"/>
      <path id="DejaVuSans-Bold-79" d="M 78 3500 
L 1197 3500 
L 2138 1125 
L 2938 3500 
L 4056 3500 
L 2584 -331 
Q 2363 -916 2067 -1148 
Q 1772 -1381 1288 -1381 
L 641 -1381 
L 641 -647 
L 991 -647 
Q 1275 -647 1404 -556 
Q 1534 -466 1606 -231 
L 1638 -134 
L 78 3500 
z
" transform="scale(0.015625)"/>
      <path id="DejaVuSans-Bold-70" d="M 1656 506 
L 1656 -1331 
L 538 -1331 
L 538 3500 
L 1656 3500 
L 1656 2988 
Q 1888 3294 2169 3439 
Q 2450 3584 2816 3584 
Q 3463 3584 3878 3070 
Q 4294 2556 4294 1747 
Q 4294 938 3878 423 
Q 3463 -91 2816 -91 
Q 2450 -91 2169 54 
Q 1888 200 1656 506 
z
M 2400 2772 
Q 2041 2772 1848 2508 
Q 1656 2244 1656 1747 
Q 1656 1250 1848 986 
Q 2041 722 2400 722 
Q 2759 722 2948 984 
Q 3138 1247 3138 1747 
Q 3138 2247 2948 2509 
Q 2759 2772 2400 2772 
z
" transform="scale(0.015625)"/>
      <path id="DejaVuSans-Bold-67" d="M 2919 594 
Q 2688 288 2409 144 
Q 2131 0 1766 0 
Q 1125 0 706 504 
Q 288 1009 288 1791 
Q 288 2575 706 3076 
Q 1125 3578 1766 3578 
Q 2131 3578 2409 3434 
Q 2688 3291 2919 2981 
L 2919 3500 
L 4044 3500 
L 4044 353 
Q 4044 -491 3511 -936 
Q 2978 -1381 1966 -1381 
Q 1638 -1381 1331 -1331 
Q 1025 -1281 716 -1178 
L 716 -306 
Q 1009 -475 1290 -558 
Q 1572 -641 1856 -641 
Q 2406 -641 2662 -400 
Q 2919 -159 2919 353 
L 2919 594 
z
M 2181 2772 
Q 1834 2772 1640 2515 
Q 1447 2259 1447 1791 
Q 1447 1309 1634 1061 
Q 1822 813 2181 813 
Q 2531 813 2725 1069 
Q 2919 1325 2919 1791 
Q 2919 2259 2725 2515 
Q 2531 2772 2181 2772 
z
" transform="scale(0.015625)"/>
      <path id="DejaVuSans-Bold-74" d="M 1759 4494 
L 1759 3500 
L 2913 3500 
L 2913 2700 
L 1759 2700 
L 1759 1216 
Q 1759 972 1856 886 
Q 1953 800 2241 800 
L 2816 800 
L 2816 0 
L 1856 0 
Q 1194 0 917 276 
Q 641 553 641 1216 
L 641 2700 
L 84 2700 
L 84 3500 
L 641 3500 
L 641 4494 
L 1759 4494 
z
" transform="scale(0.015625)"/>
      <path id="DejaVuSans-Bold-69" d="M 538 3500 
L 1656 3500 
L 1656 0 
L 538 0 
L 538 3500 
z
M 538 4863 
L 1656 4863 
L 1656 3950 
L 538 3950 
L 538 4863 
z
" transform="scale(0.015625)"/>
      <path id="DejaVuSans-Bold-62" d="M 2400 722 
Q 2759 722 2948 984 
Q 3138 1247 3138 1747 
Q 3138 2247 2948 2509 
Q 2759 2772 2400 2772 
Q 2041 2772 1848 2508 
Q 1656 2244 1656 1747 
Q 1656 1250 1848 986 
Q 2041 722 2400 722 
z
M 1656 2988 
Q 1888 3294 2169 3439 
Q 2450 3584 2816 3584 
Q 3463 3584 3878 3070 
Q 4294 2556 4294 1747 
Q 4294 938 3878 423 
Q 3463 -91 2816 -91 
Q 2450 -91 2169 54 
Q 1888 200 1656 506 
L 1656 0 
L 538 0 
L 538 4863 
L 1656 4863 
L 1656 2988 
z
" transform="scale(0.015625)"/>
      <path id="DejaVuSans-Bold-63" d="M 3366 3391 
L 3366 2478 
Q 3138 2634 2908 2709 
Q 2678 2784 2431 2784 
Q 1963 2784 1702 2511 
Q 1441 2238 1441 1747 
Q 1441 1256 1702 982 
Q 1963 709 2431 709 
Q 2694 709 2930 787 
Q 3166 866 3366 1019 
L 3366 103 
Q 3103 6 2833 -42 
Q 2563 -91 2291 -91 
Q 1344 -91 809 395 
Q 275 881 275 1747 
Q 275 2613 809 3098 
Q 1344 3584 2291 3584 
Q 2566 3584 2833 3536 
Q 3100 3488 3366 3391 
z
" transform="scale(0.015625)"/>
      <path id="DejaVuSans-Bold-71" d="M 2181 2772 
Q 1825 2772 1636 2509 
Q 1447 2247 1447 1747 
Q 1447 1247 1636 984 
Q 1825 722 2181 722 
Q 2541 722 2730 984 
Q 2919 1247 2919 1747 
Q 2919 2247 2730 2509 
Q 2541 2772 2181 2772 
z
M 2919 506 
Q 2688 197 2409 53 
Q 2131 -91 1766 -91 
Q 1119 -91 703 423 
Q 288 938 288 1747 
Q 288 2556 703 3067 
Q 1119 3578 1766 3578 
Q 2131 3578 2409 3434 
Q 2688 3291 2919 2981 
L 2919 3500 
L 4044 3500 
L 4044 -1331 
L 2919 -1331 
L 2919 506 
z
" transform="scale(0.015625)"/>
      <path id="DejaVuSans-Bold-75" d="M 500 1363 
L 500 3500 
L 1625 3500 
L 1625 3150 
Q 1625 2866 1622 2436 
Q 1619 2006 1619 1863 
Q 1619 1441 1641 1255 
Q 1663 1069 1716 984 
Q 1784 875 1895 815 
Q 2006 756 2150 756 
Q 2500 756 2700 1025 
Q 2900 1294 2900 1772 
L 2900 3500 
L 4019 3500 
L 4019 0 
L 2900 0 
L 2900 506 
Q 2647 200 2364 54 
Q 2081 -91 1741 -91 
Q 1134 -91 817 281 
Q 500 653 500 1363 
z
" transform="scale(0.015625)"/>
     </defs>
     <use xlink:href="#DejaVuSans-Bold-47"/>
     <use xlink:href="#DejaVuSans-Bold-4c" transform="translate(82.080078 0)"/>
     <use xlink:href="#DejaVuSans-Bold-4d" transform="translate(145.800781 0)"/>
     <use xlink:href="#DejaVuSans-Bold-2d" transform="translate(245.3125 0)"/>
     <use xlink:href="#DejaVuSans-Bold-34" transform="translate(286.816406 0)"/>
     <use xlink:href="#DejaVuSans-Bold-2e" transform="translate(356.396484 0)"/>
     <use xlink:href="#DejaVuSans-Bold-37" transform="translate(394.384766 0)"/>
     <use xlink:href="#DejaVuSans-Bold-2d" transform="translate(463.964844 0)"/>
     <use xlink:href="#DejaVuSans-Bold-46" transform="translate(505.46875 0)"/>
     <use xlink:href="#DejaVuSans-Bold-6c" transform="translate(573.779297 0)"/>
     <use xlink:href="#DejaVuSans-Bold-61" transform="translate(608.056641 0)"/>
     <use xlink:href="#DejaVuSans-Bold-73" transform="translate(675.537109 0)"/>
     <use xlink:href="#DejaVuSans-Bold-68" transform="translate(735.058594 0)"/>
     <use xlink:href="#DejaVuSans-Bold-20" transform="translate(806.25 0)"/>
     <use xlink:href="#DejaVuSans-Bold-54" transform="translate(841.064453 0)"/>
     <use xlink:href="#DejaVuSans-Bold-65" transform="translate(896.027344 0)"/>
     <use xlink:href="#DejaVuSans-Bold-6e" transform="translate(963.849609 0)"/>
     <use xlink:href="#DejaVuSans-Bold-73" transform="translate(1035.041016 0)"/>
     <use xlink:href="#DejaVuSans-Bold-6f" transform="translate(1094.5625 0)"/>
     <use xlink:href="#DejaVuSans-Bold-72" transform="translate(1163.263672 0)"/>
     <use xlink:href="#DejaVuSans-Bold-20" transform="translate(1212.580078 0)"/>
     <use xlink:href="#DejaVuSans-Bold-54" transform="translate(1247.394531 0)"/>
     <use xlink:href="#DejaVuSans-Bold-79" transform="translate(1303.732422 0)"/>
     <use xlink:href="#DejaVuSans-Bold-70" transform="translate(1368.917969 0)"/>
     <use xlink:href="#DejaVuSans-Bold-65" transform="translate(1440.5 0)"/>
     <use xlink:href="#DejaVuSans-Bold-20" transform="translate(1508.322266 0)"/>
     <use xlink:href="#DejaVuSans-Bold-54" transform="translate(1543.136719 0)"/>
     <use xlink:href="#DejaVuSans-Bold-61" transform="translate(1598.474609 0)"/>
     <use xlink:href="#DejaVuSans-Bold-72" transform="translate(1665.955078 0)"/>
     <use xlink:href="#DejaVuSans-Bold-67" transform="translate(1715.271484 0)"/>
     <use xlink:href="#DejaVuSans-Bold-65" transform="translate(1786.853516 0)"/>
     <use xlink:href="#DejaVuSans-Bold-74" transform="translate(1854.675781 0)"/>
     <use xlink:href="#DejaVuSans-Bold-69" transform="translate(1902.478516 0)"/>
     <use xlink:href="#DejaVuSans-Bold-6e" transform="translate(1936.755859 0)"/>
     <use xlink:href="#DejaVuSans-Bold-67" transform="translate(2007.947266 0)"/>
     <use xlink:href="#DejaVuSans-Bold-20" transform="translate(2079.529297 0)"/>
     <use xlink:href="#DejaVuSans-Bold-62" transform="translate(2114.34375 0)"/>
     <use xlink:href="#DejaVuSans-Bold-79" transform="translate(2185.925781 0)"/>
     <use xlink:href="#DejaVuSans-Bold-20" transform="translate(2251.111328 0)"/>
     <use xlink:href="#DejaVuSans-Bold-54" transform="translate(2285.925781 0)"/>
     <use xlink:href="#DejaVuSans-Bold-65" transform="translate(2340.888672 0)"/>
     <use xlink:href="#DejaVuSans-Bold-63" transform="translate(2408.710938 0)"/>
     <use xlink:href="#DejaVuSans-Bold-68" transform="translate(2467.988281 0)"/>
     <use xlink:href="#DejaVuSans-Bold-6e" transform="translate(2539.179688 0)"/>
     <use xlink:href="#DejaVuSans-Bold-69" transform="translate(2610.371094 0)"/>
     <use xlink:href="#DejaVuSans-Bold-71" transform="translate(2644.648438 0)"/>
     <use xlink:href="#DejaVuSans-Bold-75" transform="translate(2716.230469 0)"/>
     <use xlink:href="#DejaVuSans-Bold-65" transform="translate(2787.421875 0)"/>
    </g>
   </g>
   <g id="legend_1">
    <g id="patch_31">
     <path d="M 753.187938 90.550312 
L 837.30825 90.550312 
Q 839.30825 90.550312 839.30825 88.550312 
L 839.30825 30.837812 
Q 839.30825 28.837812 837.30825 28.837812 
L 753.187938 28.837812 
Q 751.187938 28.837812 751.187938 30.837812 
L 751.187938 88.550312 
Q 751.187938 90.550312 753.187938 90.550312 
z
" style="fill: #ffffff; opacity: 0.8; stroke: #cccccc; stroke-linejoin: miter"/>
    </g>
    <g id="patch_32">
     <path d="M 755.187938 40.43625 
L 775.187938 40.43625 
L 775.187938 33.43625 
L 755.187938 33.43625 
z
" style="fill: #3498db; opacity: 0.85; stroke: #ffffff; stroke-linejoin: miter"/>
    </g>
    <g id="text_16">
     <!-- Heretic -->
     <g style="fill: #262626" transform="translate(783.187938 40.43625) scale(0.1 -0.1)">
      <defs>
       <path id="DejaVuSans-48" d="M 628 4666 
L 1259 4666 
L 1259 2753 
L 3553 2753 
L 3553 4666 
L 4184 4666 
L 4184 0 
L 3553 0 
L 3553 2222 
L 1259 2222 
L 1259 0 
L 628 0 
L 628 4666 
z
" transform="scale(0.015625)"/>
       <path id="DejaVuSans-63" d="M 3122 3366 
L 3122 2828 
Q 2878 2963 2633 3030 
Q 2388 3097 2138 3097 
Q 1578 3097 1268 2742 
Q 959 2388 959 1747 
Q 959 1106 1268 751 
Q 1578 397 2138 397 
Q 2388 397 2633 464 
Q 2878 531 3122 666 
L 3122 134 
Q 2881 22 2623 -34 
Q 2366 -91 2075 -91 
Q 1284 -91 818 406 
Q 353 903 353 1747 
Q 353 2603 823 3093 
Q 1294 3584 2113 3584 
Q 2378 3584 2631 3529 
Q 2884 3475 3122 3366 
z
" transform="scale(0.015625)"/>
      </defs>
      <use xlink:href="#DejaVuSans-48"/>
      <use xlink:href="#DejaVuSans-65" transform="translate(75.195312 0)"/>
      <use xlink:href="#DejaVuSans-72" transform="translate(136.71875 0)"/>
      <use xlink:href="#DejaVuSans-65" transform="translate(175.582031 0)"/>
      <use xlink:href="#DejaVuSans-74" transform="translate(237.105469 0)"/>
      <use xlink:href="#DejaVuSans-69" transform="translate(276.314453 0)"/>
      <use xlink:href="#DejaVuSans-63" transform="translate(304.097656 0)"/>
     </g>
    </g>
    <g id="patch_33">
     <path d="M 755.187938 55.114375 
L 775.187938 55.114375 
L 775.187938 48.114375 
L 755.187938 48.114375 
z
" style="fill: #e74c3c; opacity: 0.85; stroke: #ffffff; stroke-linejoin: miter"/>
    </g>
    <g id="text_17">
     <!-- HauhauCS -->
     <g style="fill: #262626" transform="translate(783.187938 55.114375) scale(0.1 -0.1)">
      <defs>
       <path id="DejaVuSans-43" d="M 4122 4306 
L 4122 3641 
Q 3803 3938 3442 4084 
Q 3081 4231 2675 4231 
Q 1875 4231 1450 3742 
Q 1025 3253 1025 2328 
Q 1025 1406 1450 917 
Q 1875 428 2675 428 
Q 3081 428 3442 575 
Q 3803 722 4122 1019 
L 4122 359 
Q 3791 134 3420 21 
Q 3050 -91 2638 -91 
Q 1578 -91 968 557 
Q 359 1206 359 2328 
Q 359 3453 968 4101 
Q 1578 4750 2638 4750 
Q 3056 4750 3426 4639 
Q 3797 4528 4122 4306 
z
" transform="scale(0.015625)"/>
      </defs>
      <use xlink:href="#DejaVuSans-48"/>
      <use xlink:href="#DejaVuSans-61" transform="translate(75.195312 0)"/>
      <use xlink:href="#DejaVuSans-75" transform="translate(136.474609 0)"/>
      <use xlink:href="#DejaVuSans-68" transform="translate(199.853516 0)"/>
      <use xlink:href="#DejaVuSans-61" transform="translate(263.232422 0)"/>
      <use xlink:href="#DejaVuSans-75" transform="translate(324.511719 0)"/>
      <use xlink:href="#DejaVuSans-43" transform="translate(387.890625 0)"/>
      <use xlink:href="#DejaVuSans-53" transform="translate(457.714844 0)"/>
     </g>
    </g>
    <g id="patch_34">
     <path d="M 755.187938 69.7925 
L 775.187938 69.7925 
L 775.187938 62.7925 
L 755.187938 62.7925 
z
" style="fill: #2ecc71; opacity: 0.85; stroke: #ffffff; stroke-linejoin: miter"/>
    </g>
    <g id="text_18">
     <!-- Huihui -->
     <g style="fill: #262626" transform="translate(783.187938 69.7925) scale(0.1 -0.1)">
      <use xlink:href="#DejaVuSans-48"/>
      <use xlink:href="#DejaVuSans-75" transform="translate(75.195312 0)"/>
      <use xlink:href="#DejaVuSans-69" transform="translate(138.574219 0)"/>
      <use xlink:href="#DejaVuSans-68" transform="translate(166.357422 0)"/>
      <use xlink:href="#DejaVuSans-75" transform="translate(229.736328 0)"/>
      <use xlink:href="#DejaVuSans-69" transform="translate(293.115234 0)"/>
     </g>
    </g>
    <g id="patch_35">
     <path d="M 755.187938 84.470625 
L 775.187938 84.470625 
L 775.187938 77.470625 
L 755.187938 77.470625 
z
" style="fill: #9b59b6; opacity: 0.85; stroke: #ffffff; stroke-linejoin: miter"/>
    </g>
    <g id="text_19">
     <!-- Abliterix -->
     <g style="fill: #262626" transform="translate(783.187938 84.470625) scale(0.1 -0.1)">
      <defs>
       <path id="DejaVuSans-62" d="M 3116 1747 
Q 3116 2381 2855 2742 
Q 2594 3103 2138 3103 
Q 1681 3103 1420 2742 
Q 1159 2381 1159 1747 
Q 1159 1113 1420 752 
Q 1681 391 2138 391 
Q 2594 391 2855 752 
Q 3116 1113 3116 1747 
z
M 1159 2969 
Q 1341 3281 1617 3432 
Q 1894 3584 2278 3584 
Q 2916 3584 3314 3078 
Q 3713 2572 3713 1747 
Q 3713 922 3314 415 
Q 2916 -91 2278 -91 
Q 1894 -91 1617 61 
Q 1341 213 1159 525 
L 1159 0 
L 581 0 
L 581 4863 
L 1159 4863 
L 1159 2969 
z
" transform="scale(0.015625)"/>
       <path id="DejaVuSans-6c" d="M 603 4863 
L 1178 4863 
L 1178 0 
L 603 0 
L 603 4863 
z
" transform="scale(0.015625)"/>
      </defs>
      <use xlink:href="#DejaVuSans-41"/>
      <use xlink:href="#DejaVuSans-62" transform="translate(68.408203 0)"/>
      <use xlink:href="#DejaVuSans-6c" transform="translate(131.884766 0)"/>
      <use xlink:href="#DejaVuSans-69" transform="translate(159.667969 0)"/>
      <use xlink:href="#DejaVuSans-74" transform="translate(187.451172 0)"/>
      <use xlink:href="#DejaVuSans-65" transform="translate(226.660156 0)"/>
      <use xlink:href="#DejaVuSans-72" transform="translate(288.183594 0)"/>
      <use xlink:href="#DejaVuSans-69" transform="translate(329.296875 0)"/>
      <use xlink:href="#DejaVuSans-78" transform="translate(357.080078 0)"/>
     </g>
    </g>
   </g>
  </g>
 </g>
 <defs>
  <clipPath id="p05714bb35a">
   <rect x="63.10825" y="23.837812" width="781.2" height="388.08"/>
  </clipPath>
 </defs>
</svg>
